<svg class="home-left" xmlns="http://www.w3.org/2000/svg" viewBox="0 0 720 900">
  <title>home-left</title>
  <g id="orn-1" class="orn">
    <g style="opacity:0.25">
      <line x1="54.99" y1="384.86" x2="54.99" y2="384.73" style="fill:none;stroke:#f1f1f2;stroke-linecap:round;stroke-miterlimit:10" />
      <line x1="54.99" y1="382.73" x2="54.99" y2="1.13" style="fill:none;stroke:#f1f1f2;stroke-linecap:round;stroke-miterlimit:10;stroke-dasharray:0.2500709295272827,2.0005674362182617" />
      <line x1="54.99" y1="0.13" x2="54.99" style="fill:none;stroke:#f1f1f2;stroke-linecap:round;stroke-miterlimit:10" />
    </g>
    <path d="M55,384.86a12,12,0,0,0,3.93,4c3.43,2.44,7.24,3.57,11.09,5.16,5.85,2.42,11.43,7.5,11.22,14.32.21,6.82-5.37,11.9-11.22,14.31-3.85,1.59-7.66,2.72-11.09,5.16a12.12,12.12,0,0,0-3.93,4,12.12,12.12,0,0,0-3.93-4c-3.44-2.44-7.25-3.57-11.09-5.16-5.86-2.41-11.43-7.49-11.22-14.31-.21-6.82,5.36-11.9,11.22-14.32,3.84-1.59,7.65-2.72,11.09-5.16A12,12,0,0,0,55,384.86Z" style="fill:#d9d98d" />
  </g>
  <g id="orn-2" class="orn">
    <line x1="108.26" y1="469.73" x2="108.26" y2="469.61" style="fill:none;stroke:#f1f1f2;stroke-linecap:round;stroke-miterlimit:10" />
    <line x1="108.26" y1="467.61" x2="108.26" y2="1.12" style="fill:none;stroke:#f1f1f2;stroke-linecap:round;stroke-miterlimit:10;stroke-dasharray:0.24972455203533173,1.9977964162826538" />
    <line x1="108.26" y1="0.13" x2="108.26" style="fill:none;stroke:#f1f1f2;stroke-linecap:round;stroke-miterlimit:10" />
    <path d="M108,469.73a42.4,42.4,0,1,0,42.4,42.4h0A42.4,42.4,0,0,0,108,469.73ZM123.32,526l-10.91,11-.07.07a6.08,6.08,0,0,1-8.59-.07L92.81,526a6.27,6.27,0,0,1,0-8.78h0a3.77,3.77,0,0,1,5.33,0h0l5.53,5.59.07.07a6.09,6.09,0,0,0,8.6-.07l5.53-5.6v-.05a3.79,3.79,0,0,1,5.35.05A6.24,6.24,0,0,1,123.32,526Zm11.47-17.66h0a3.65,3.65,0,0,1-5.15,0h0L124.32,503l-.07-.07a5.87,5.87,0,0,0-8.29.16h0l-5.37,5.44v.05a3.64,3.64,0,0,1-3.33,1,3.54,3.54,0,0,1-1.92-1l-5.34-5.3-.07-.07a5.86,5.86,0,0,0-8.28.16l-5.37,5.44v.05a3.66,3.66,0,0,1-5.16,0,6,6,0,0,1,.08-8.47l10.6-10.75.07-.07a5.87,5.87,0,0,1,8.28,0l7.9,8,8-8.14.07-.07a5.88,5.88,0,0,1,8.29,0l10.42,10.54a6,6,0,0,1,0,8.42Z" style="fill:#4c3d59" />
  </g>
  <g id="orn-3" class="orn">
    <line x1="161.52" y1="604.1" x2="161.52" y2="603.98" style="fill:none;stroke:#f1f1f2;stroke-linecap:round;stroke-miterlimit:10" />
    <line x1="161.52" y1="601.97" x2="161.52" y2="1.13" style="fill:none;stroke:#f1f1f2;stroke-linecap:round;stroke-miterlimit:10;stroke-dasharray:0.2504572570323944,2.0036580562591553" />
    <line x1="161.52" y1="0.13" x2="161.52" style="fill:none;stroke:#f1f1f2;stroke-linecap:round;stroke-miterlimit:10" />
    <polygon points="161.52 604.1 161.52 729.64 217.93 696.59 161.52 604.1" style="fill:#b51f3b" />
    <polygon points="161.52 604.1 161.52 729.64 105.11 696.59 161.52 604.1" style="fill:#d61f39" />
    <polygon points="161.52 740.27 161.52 786.39 217.93 707.22 161.52 740.27" style="fill:#a01c3a" />
    <polygon points="161.52 740.27 161.52 786.39 105.11 707.22 161.52 740.27" style="fill:#7f1733" />
    <polygon points="105.11 696.59 161.52 671.07 161.52 729.64 105.11 696.59" style="fill:#a01c3a" />
    <polygon points="217.93 696.59 161.52 671.07 161.52 729.64 217.93 696.59" style="fill:#7f1733" />
    <polygon points="185.1 630.34 181.77 639.17 174.43 641.98 181.77 644.89 185.73 653.83 189.64 644.89 197.04 641.98 189.64 639.17 185.1 630.34" style="fill:#d9d98d" />
  </g>
  <g id="orn-4" class="orn">
    <g style="opacity:0.25">
      <line x1="236.01" y1="351.76" x2="236.01" y2="351.64" style="fill:none;stroke:#f1f1f2;stroke-linecap:round;stroke-miterlimit:10" />
      <line x1="236.01" y1="349.63" x2="236.01" y2="1.13" style="fill:none;stroke:#f1f1f2;stroke-linecap:round;stroke-miterlimit:10;stroke-dasharray:0.2505430281162262,2.0043442249298096" />
      <line x1="236.01" y1="0.13" x2="236.01" style="fill:none;stroke:#f1f1f2;stroke-linecap:round;stroke-miterlimit:10" />
    </g>
    <path d="M236,425.62a9.58,9.58,0,0,1,.07-1.42c.93-13,7-24.87,8.64-37.79,1.56-12.21,0-25.28-8.71-34.65-8.7,9.37-10.26,22.44-8.71,34.65,1.64,12.92,7.71,24.79,8.64,37.79A9.58,9.58,0,0,1,236,425.62Z" style="fill:#cdeae8" />
  </g>
  <g id="orn-5" class="orn">
    <g style="opacity:0.25">
      <line x1="278.05" y1="790.17" x2="278.05" y2="790.05" style="fill:none;stroke:#f1f1f2;stroke-linecap:round;stroke-miterlimit:10" />
      <line x1="278.05" y1="788.05" x2="278.05" y2="1.13" style="fill:none;stroke:#f1f1f2;stroke-linecap:round;stroke-miterlimit:10;stroke-dasharray:0.2501336336135864,2.0010690689086914" />
      <line x1="278.05" y1="0.13" x2="278.05" style="fill:none;stroke:#f1f1f2;stroke-linecap:round;stroke-miterlimit:10" />
    </g>
    <path d="M306.3,815.44c.22-7.35-5.78-12.82-12.08-15.42-4.14-1.71-8.25-2.92-12-5.55a12.85,12.85,0,0,1-4.22-4.3,13.07,13.07,0,0,1-4.23,4.3c-3.7,2.63-7.8,3.84-11.94,5.55-6.3,2.6-12.31,8.07-12.08,15.42-.23,7.34,5.78,12.81,12.08,15.41,3.87,1.6,7.7,2.81,11.21,5.11-2,1-4.09,1.72-6.2,2.6-4.35,1.79-8.49,5.57-8.34,10.63-.15,5.07,4,8.85,8.34,10.64,2.85,1.18,5.68,2,8.24,3.84a8.82,8.82,0,0,1,2.92,3,8.89,8.89,0,0,1,2.91-3c2.56-1.81,5.39-2.65,8.25-3.83,4.34-1.79,8.49-5.57,8.33-10.64.16-5.06-4-8.84-8.33-10.63-2.12-.88-4.22-1.57-6.21-2.6,3.51-2.3,7.34-3.51,11.22-5.11C300.52,828.25,306.52,822.78,306.3,815.44Z" style="fill:#a5d0bf" />
  </g>
  <g id="orn-6" class="orn">
    <line x1="339.9" y1="231.9" x2="339.9" y2="231.78" style="fill:none;stroke:#f1f1f2;stroke-linecap:round;stroke-miterlimit:10" />
    <line x1="339.9" y1="229.78" x2="339.9" y2="1.13" style="fill:none;stroke:#f1f1f2;stroke-linecap:round;stroke-miterlimit:10;stroke-dasharray:0.2501636743545532,2.001309394836426" />
    <line x1="339.9" y1="0.13" x2="339.9" style="fill:none;stroke:#f1f1f2;stroke-linecap:round;stroke-miterlimit:10" />
    <polygon points="339.83 230.54 339.83 306.94 374.16 286.83 339.83 230.54" style="fill:#a0ba3f" />
    <polygon points="339.83 230.54 339.83 306.94 305.5 286.83 339.83 230.54" style="fill:#bcd556" />
    <polygon points="339.83 313.41 339.83 341.48 374.16 293.3 339.83 313.41" style="fill:#859a3b" />
    <polygon points="339.83 313.41 339.83 341.48 305.5 293.3 339.83 313.41" style="fill:#6c7d35" />
    <polygon points="305.5 286.83 339.83 271.3 339.83 306.94 305.5 286.83" style="fill:#859a3b" />
    <polygon points="374.16 286.83 339.83 271.3 339.83 306.94 374.16 286.83" style="fill:#6c7d35" />
    <polygon points="361.02 304.8 359.09 309.81 354.83 311.41 359.09 313.06 361.39 318.13 363.66 313.06 367.96 311.41 363.66 309.81 361.02 304.8" style="fill:#d9d98d" />
  </g>
</svg>
