<svg class="home-right" xmlns="http://www.w3.org/2000/svg" viewBox="0 0 720 900">
  <title>home-right</title>
  <g id="orn-7" class="orn">
    <g style="opacity:0.25">
      <line x1="397.8" y1="648.41" x2="397.8" y2="648.29" style="fill:none;stroke:#f1f1f2;stroke-linecap:round;stroke-miterlimit:10" />
      <line x1="397.8" y1="646.29" x2="397.8" y2="1.13" style="fill:none;stroke:#f1f1f2;stroke-linecap:round;stroke-miterlimit:10;stroke-dasharray:0.2501588761806488,2.0012710094451904" />
      <line x1="397.8" y1="0.13" x2="397.8" style="fill:none;stroke:#f1f1f2;stroke-linecap:round;stroke-miterlimit:10" />
    </g>
    <path d="M397.8,648.41a12.57,12.57,0,0,0,4.1,4.17c3.6,2.56,7.58,3.74,11.6,5.4,6.12,2.52,12,7.84,11.73,15,.22,7.13-5.61,12.44-11.73,15-4,1.66-8,2.84-11.6,5.39a12.67,12.67,0,0,0-4.1,4.17,12.6,12.6,0,0,0-4.11-4.17c-3.59-2.55-7.58-3.73-11.6-5.39-6.12-2.53-11.95-7.84-11.73-15-.22-7.13,5.61-12.45,11.73-15,4-1.66,8-2.84,11.6-5.4A12.51,12.51,0,0,0,397.8,648.41Z" style="fill:#d9d98d" />
  </g>
  <g id="orn-8" class="orn">
    <g style="opacity:0.25">
      <line x1="445.49" y1="427.01" x2="445.49" y2="426.88" style="fill:none;stroke:#f1f1f2;stroke-linecap:round;stroke-miterlimit:10" />
      <line x1="445.49" y1="424.88" x2="445.49" y2="1.12" style="fill:none;stroke:#f1f1f2;stroke-linecap:round;stroke-miterlimit:10;stroke-dasharray:0.24971143901348114,1.9976915121078491" />
      <line x1="445.49" y1="0.13" x2="445.49" style="fill:none;stroke:#f1f1f2;stroke-linecap:round;stroke-miterlimit:10" />
    </g>
    <path d="M473,451.58c.22-7.14-5.62-12.46-11.75-15-4-1.67-8-2.85-11.61-5.41a12.6,12.6,0,0,1-4.11-4.17,12.7,12.7,0,0,1-4.11,4.17c-3.6,2.56-7.59,3.74-11.62,5.41-6.13,2.53-12,7.85-11.75,15-.22,7.14,5.62,12.46,11.75,15,3.77,1.55,7.49,2.73,10.91,5-1.93,1-4,1.68-6,2.53-4.23,1.74-8.25,5.41-8.1,10.34-.15,4.93,3.87,8.6,8.1,10.35,2.78,1.14,5.54,2,8,3.73a8.69,8.69,0,0,1,2.84,2.88,8.69,8.69,0,0,1,2.84-2.88c2.48-1.77,5.23-2.59,8-3.73,4.23-1.75,8.26-5.42,8.11-10.35.15-4.93-3.88-8.6-8.11-10.34-2.06-.85-4.1-1.53-6-2.53,3.41-2.24,7.14-3.42,10.9-5C467.34,464,473.18,458.72,473,451.58Z" style="fill:#a5d0bf" />
  </g>
  <g id="orn-9" class="orn">
    <line x1="512.03" y1="145.29" x2="512.03" y2="145.16" style="fill:none;stroke:#f1f1f2;stroke-linecap:round;stroke-miterlimit:10" />
    <line x1="512.03" y1="143.18" x2="512.03" y2="1.12" style="fill:none;stroke:#f1f1f2;stroke-linecap:round;stroke-miterlimit:10;stroke-dasharray:0.24835392832756042,1.9868314266204834" />
    <line x1="512.03" y1="0.13" x2="512.03" style="fill:none;stroke:#f1f1f2;stroke-linecap:round;stroke-miterlimit:10" />
    <polygon points="512.02 145.2 512.02 258.57 562.97 228.73 512.02 145.2" style="fill:#66bd96" />
    <polygon points="512.02 145.2 512.02 258.57 461.08 228.73 512.02 145.2" style="fill:#a5d1be" />
    <polygon points="512.02 268.18 512.02 309.82 562.97 238.33 512.02 268.18" style="fill:#569d7c" />
    <polygon points="512.02 268.18 512.02 309.82 461.08 238.33 512.02 268.18" style="fill:#517d71" />
    <polygon points="461.08 228.73 512.02 205.68 512.02 258.57 461.08 228.73" style="fill:#569d7c" />
    <polygon points="562.97 228.73 512.02 205.68 512.02 258.57 562.97 228.73" style="fill:#517d71" />
    <polygon points="552.43 201.89 549.49 209.69 543.01 212.17 549.49 214.74 552.99 222.63 556.44 214.74 562.97 212.17 556.44 209.69 552.43 201.89" style="fill:#d9d98d" />
  </g>
  <g id="orn-10" class="orn">
    <line x1="568.98" y1="359.13" x2="568.98" y2="359" style="fill:none;stroke:#f1f1f2;stroke-linecap:round;stroke-miterlimit:10" />
    <line x1="568.98" y1="357.01" x2="568.98" y2="1.12" style="fill:none;stroke:#f1f1f2;stroke-linecap:round;stroke-miterlimit:10;stroke-dasharray:0.24939393997192383,1.9951515197753906" />
    <line x1="568.98" y1="0.13" x2="568.98" style="fill:none;stroke:#f1f1f2;stroke-linecap:round;stroke-miterlimit:10" />
    <path d="M569,359.13a49.29,49.29,0,1,0,49.29,49.29h0A49.28,49.28,0,0,0,569,359.13Zm17.84,65.39-12.68,12.84-.09.09a7.06,7.06,0,0,1-10-.07l0,0-12.71-12.83a7.28,7.28,0,0,1,0-10.2l0-.05a4.4,4.4,0,0,1,6.22.05l6.42,6.49.09.09a7.06,7.06,0,0,0,10-.07l0,0,6.43-6.5v-.06a4.39,4.39,0,0,1,6.21.05h0a7.28,7.28,0,0,1,0,10.2ZM600.14,404h0a4.23,4.23,0,0,1-6,0l0,0L588,397.81l-.09-.09a6.82,6.82,0,0,0-9.63.19h0L572,404.24v.05a4.38,4.38,0,0,1-6.1,0l-6.12-6.18-.09-.09a6.81,6.81,0,0,0-9.63.19h0l-6.24,6.33v0a4.24,4.24,0,0,1-6,0h0a7,7,0,0,1,.09-9.85l12.34-12.5.08-.08a6.81,6.81,0,0,1,9.63,0h0l9.18,9.28,9.33-9.46.09-.08a6.8,6.8,0,0,1,9.62,0h0l12.11,12.25A7,7,0,0,1,600.14,404Z" style="fill:#fad4d7" />
    <polygon points="599 358.76 595.31 368.57 587.15 371.7 595.31 374.93 599.71 384.86 604.05 374.93 612.27 371.7 604.05 368.57 599 358.76" style="fill:#d9d98d" />
  </g>
  <g id="orn-11" class="orn">
    <line x1="631.91" y1="574.52" x2="631.91" y2="574.4" style="fill:none;stroke:#f1f1f2;stroke-linecap:round;stroke-miterlimit:10" />
    <line x1="631.91" y1="572.39" x2="631.91" y2="1.13" style="fill:none;stroke:#f1f1f2;stroke-linecap:round;stroke-miterlimit:10;stroke-dasharray:0.25033608078956604,2.0026886463165283" />
    <line x1="631.91" y1="0.13" x2="631.91" style="fill:none;stroke:#f1f1f2;stroke-linecap:round;stroke-miterlimit:10" />
    <polygon points="631.91 573.33 631.91 653.28 667.84 632.23 631.91 573.33" style="fill:#ecba3f" />
    <polygon points="631.91 573.33 631.91 653.28 595.98 632.23 631.91 573.33" style="fill:#f4c35e" />
    <polygon points="631.91 660.05 631.91 689.42 667.84 639 631.91 660.05" style="fill:#ebad20" />
    <polygon points="631.91 660.05 631.91 689.42 595.98 639 631.91 660.05" style="fill:#d2972d" />
    <polygon points="595.98 632.23 631.91 615.98 631.91 653.28 595.98 632.23" style="fill:#ebad20" />
    <polygon points="667.84 632.23 631.91 615.98 631.91 653.28 667.84 632.23" style="fill:#d2972d" />
  </g>
  <g id="orn-12" class="orn">
    <g style="opacity:0.25">
      <line x1="672.56" y1="471.28" x2="672.56" y2="471.16" style="fill:none;stroke:#f1f1f2;stroke-linecap:round;stroke-miterlimit:10" />
      <line x1="672.56" y1="469.15" x2="672.56" y2="1.13" style="fill:none;stroke:#f1f1f2;stroke-linecap:round;stroke-miterlimit:10;stroke-dasharray:0.25054851174354553,2.0043880939483643" />
      <line x1="672.56" y1="0.13" x2="672.56" style="fill:none;stroke:#f1f1f2;stroke-linecap:round;stroke-miterlimit:10" />
    </g>
    <path d="M672.56,571.1a12.36,12.36,0,0,1,.1-1.92c1.26-17.56,9.46-33.61,11.68-51.07,2.1-16.5,0-34.17-11.78-46.83-11.75,12.66-13.87,30.33-11.77,46.83,2.22,17.46,10.42,33.51,11.68,51.07C672.51,569.82,672.55,570.46,672.56,571.1Z" style="fill:#cdeae8" />
  </g>
</svg>
