<svg class="orn" id="orn-8" xmlns="http://www.w3.org/2000/svg" viewBox="0 0 54.96 501.37">
  <title>orn</title>
  <g style="opacity:0.25">
    <line x1="27.48" y1="427.01" x2="27.48" y2="426.88" style="fill:none;stroke:#f1f1f2;stroke-linecap:round;stroke-miterlimit:10" />
    <line x1="27.48" y1="424.88" x2="27.48" y2="1.12" style="fill:none;stroke:#f1f1f2;stroke-linecap:round;stroke-miterlimit:10;stroke-dasharray:0.24971143901348114,1.9976915121078491" />
    <line x1="27.48" y1="0.13" x2="27.48" style="fill:none;stroke:#f1f1f2;stroke-linecap:round;stroke-miterlimit:10" />
  </g>
  <path d="M55,451.58c.21-7.14-5.62-12.46-11.75-15-4-1.67-8-2.85-11.62-5.41A12.7,12.7,0,0,1,27.48,427a12.6,12.6,0,0,1-4.11,4.17c-3.6,2.56-7.59,3.74-11.61,5.41-6.13,2.53-12,7.85-11.75,15-.22,7.14,5.62,12.46,11.75,15,3.76,1.55,7.49,2.73,10.9,5-1.93,1-4,1.68-6,2.53-4.23,1.74-8.26,5.41-8.11,10.34-.15,4.93,3.88,8.6,8.11,10.35,2.78,1.14,5.53,2,8,3.73a8.69,8.69,0,0,1,2.84,2.88,8.69,8.69,0,0,1,2.84-2.88c2.48-1.77,5.24-2.59,8-3.73,4.23-1.75,8.26-5.42,8.11-10.35.15-4.93-3.88-8.6-8.11-10.34-2-.85-4.1-1.53-6-2.53,3.42-2.24,7.14-3.42,10.91-5C49.34,464,55.17,458.72,55,451.58Z" style="fill:#a5d0bf" />
</svg>
