<svg class="orn" id="orn-2" xmlns="http://www.w3.org/2000/svg" viewBox="0 0 84.8 554.53">
  <title>orn</title>
  <line x1="42.68" y1="469.73" x2="42.68" y2="469.61" style="fill:none;stroke:#f1f1f2;stroke-linecap:round;stroke-miterlimit:10" />
  <line x1="42.68" y1="467.61" x2="42.68" y2="1.12" style="fill:none;stroke:#f1f1f2;stroke-linecap:round;stroke-miterlimit:10;stroke-dasharray:0.24972455203533173,1.9977964162826538" />
  <line x1="42.68" y1="0.13" x2="42.68" style="fill:none;stroke:#f1f1f2;stroke-linecap:round;stroke-miterlimit:10" />
  <path d="M42.4,469.73a42.4,42.4,0,1,0,42.4,42.4A42.4,42.4,0,0,0,42.4,469.73ZM57.74,526,46.83,537l-.07.07a6.08,6.08,0,0,1-8.59-.07L27.23,526a6.27,6.27,0,0,1,0-8.78l.05,0a3.77,3.77,0,0,1,5.34,0l5.53,5.59.07.07a6.09,6.09,0,0,0,8.6-.07l5.53-5.6,0-.05a3.78,3.78,0,0,1,5.34.05A6.24,6.24,0,0,1,57.74,526Zm11.47-17.66,0,0a3.64,3.64,0,0,1-5.15,0L58.74,503l-.07-.07a5.87,5.87,0,0,0-8.29.16h0L45,508.57l0,.05a3.63,3.63,0,0,1-3.33,1,3.49,3.49,0,0,1-1.91-1l-5.28-5.32-.07-.07a5.86,5.86,0,0,0-8.28.16l-5.37,5.44,0,.05a3.66,3.66,0,0,1-5.16,0,6,6,0,0,1,.08-8.47l10.62-10.76.07-.07a5.86,5.86,0,0,1,8.28,0l7.9,8,8-8.14.07-.07a5.87,5.87,0,0,1,8.29,0l10.42,10.54A6,6,0,0,1,69.21,508.32Z" style="fill:#4c3d59" />
</svg>
