<svg class="orn" id="orn-10" xmlns="http://www.w3.org/2000/svg" viewBox="0 0 98.57 457.7">
  <title>orn</title>
  <line x1="49.29" y1="359.13" x2="49.29" y2="359" style="fill:none;stroke:#f1f1f2;stroke-linecap:round;stroke-miterlimit:10" />
  <line x1="49.29" y1="357.01" x2="49.29" y2="1.12" style="fill:none;stroke:#f1f1f2;stroke-linecap:round;stroke-miterlimit:10;stroke-dasharray:0.24939393997192383,1.9951515197753906" />
  <line x1="49.29" y1="0.13" x2="49.29" style="fill:none;stroke:#f1f1f2;stroke-linecap:round;stroke-miterlimit:10" />
  <path d="M49.29,359.13a49.29,49.29,0,1,0,49.28,49.28A49.28,49.28,0,0,0,49.29,359.13Zm17.83,65.39L54.44,437.36l-.08.09a7.06,7.06,0,0,1-10-.09L31.65,424.53a7.28,7.28,0,0,1,0-10.2l.06-.05a4.39,4.39,0,0,1,6.21.05l6.42,6.49.09.09a7.06,7.06,0,0,0,10-.09l6.43-6.5.06-.06a4.38,4.38,0,0,1,6.21.06A7.28,7.28,0,0,1,67.12,424.52ZM80.45,404l0,0a4.23,4.23,0,0,1-6,0l-6.13-6.19-.09-.09a6.82,6.82,0,0,0-9.63.19h0l-6.24,6.33,0,.05a4.37,4.37,0,0,1-6.1,0L40,398.13,40,398a6.82,6.82,0,0,0-9.64.19l-6.23,6.33-.05.05a4.26,4.26,0,0,1-6,0,7,7,0,0,1,.09-9.85l12.35-12.5.08-.08a6.8,6.8,0,0,1,9.63,0l9.18,9.28L58.71,382a.6.6,0,0,1,.08-.08,6.8,6.8,0,0,1,9.63,0l12.12,12.25A7,7,0,0,1,80.45,404Z" style="fill:#fad4d7" />
  <polygon points="79.31 358.76 75.61 368.57 67.46 371.7 75.61 374.93 80.01 384.86 84.36 374.93 92.57 371.7 84.36 368.57 79.31 358.76" style="fill:#d9d98d;mix-blend-mode:hard-light" />
</svg>
