<svg class="orn" id="orn-5" xmlns="http://www.w3.org/2000/svg" viewBox="0 0 56.51 866.63">
  <title>orn</title>
  <g style="opacity:0.25">
    <line x1="28.26" y1="790.17" x2="28.26" y2="790.05" style="fill:none;stroke:#f1f1f2;stroke-linecap:round;stroke-miterlimit:10" />
    <line x1="28.26" y1="788.05" x2="28.26" y2="1.13" style="fill:none;stroke:#f1f1f2;stroke-linecap:round;stroke-miterlimit:10;stroke-dasharray:0.2501336336135864,2.0010690689086914" />
    <line x1="28.26" y1="0.13" x2="28.26" style="fill:none;stroke:#f1f1f2;stroke-linecap:round;stroke-miterlimit:10" />
  </g>
  <path d="M56.51,815.44c.22-7.35-5.78-12.82-12.09-15.42-4.14-1.71-8.24-2.92-11.94-5.55a12.94,12.94,0,0,1-4.22-4.3,13.07,13.07,0,0,1-4.23,4.3c-3.7,2.63-7.8,3.84-11.94,5.55C5.78,802.62-.22,808.09,0,815.44c-.23,7.34,5.77,12.81,12.08,15.41,3.87,1.6,7.7,2.81,11.21,5.11-2,1-4.09,1.72-6.2,2.6-4.35,1.79-8.5,5.57-8.34,10.63-.16,5.07,4,8.85,8.34,10.64,2.85,1.18,5.68,2,8.24,3.84a8.89,8.89,0,0,1,2.92,3,8.88,8.88,0,0,1,2.91-3c2.56-1.81,5.39-2.65,8.24-3.83,4.35-1.79,8.5-5.57,8.34-10.64.16-5.06-4-8.84-8.34-10.63-2.11-.88-4.21-1.57-6.2-2.6,3.51-2.3,7.34-3.51,11.21-5.11C50.73,828.25,56.73,822.78,56.51,815.44Z" style="fill:#a5d0bf" />
</svg>
