<svg class="orn" id="orn-3" xmlns="http://www.w3.org/2000/svg" viewBox="0 0 112.82 786.39">
  <title>orn</title>
  <line x1="56.41" y1="604.1" x2="56.41" y2="603.98" style="fill:none;stroke:#f1f1f2;stroke-linecap:round;stroke-miterlimit:10" />
  <line x1="56.41" y1="601.97" x2="56.41" y2="1.13" style="fill:none;stroke:#f1f1f2;stroke-linecap:round;stroke-miterlimit:10;stroke-dasharray:0.2504572570323944,2.0036580562591553" />
  <line x1="56.41" y1="0.13" x2="56.41" style="fill:none;stroke:#f1f1f2;stroke-linecap:round;stroke-miterlimit:10" />
  <polygon points="56.41 604.1 56.41 729.64 112.82 696.59 56.41 604.1" style="fill:#b51f3b" />
  <polygon points="56.41 604.1 56.41 729.64 0 696.59 56.41 604.1" style="fill:#d61f39" />
  <polygon points="56.41 740.27 56.41 786.39 112.82 707.22 56.41 740.27" style="fill:#a01c3a" />
  <polygon points="56.41 740.27 56.41 786.39 0 707.22 56.41 740.27" style="fill:#7f1733" />
  <polygon points="0 696.59 56.41 671.07 56.41 729.64 0 696.59" style="fill:#a01c3a" />
  <polygon points="112.82 696.59 56.41 671.07 56.41 729.64 112.82 696.59" style="fill:#7f1733" />
  <polygon points="79.99 630.34 76.66 639.17 69.32 641.98 76.66 644.89 80.62 653.83 84.53 644.89 91.92 641.98 84.53 639.17 79.99 630.34" style="fill:#d9d98d;mix-blend-mode:hard-light" />
</svg>
