<svg width="460" height="411" viewBox="0 0 460 411" fill="none" xmlns="http://www.w3.org/2000/svg"><path opacity="0.5" d="M411.603 436.266C401.343 445.793 392 453.982 382.989 461H86.292C95.696 454.419 107.486 446.824 121.601 438.075C210.965 382.674 218.9 374.791 331.434 370.91C348.572 370.325 339.894 368.35 355.433 368.07C475.727 365.876 480.044 372.711 411.603 436.266Z" fill="url(#paint0_linear_303_13459)" /><path d="M332.44 376.504C439.065 373.882 448.766 373.524 400.426 418.411C356.116 459.575 339.248 460.633 227.641 460.633C113.946 460.799 97.3052 460.974 164.094 419.556C228.515 379.606 225.229 379.152 332.44 376.504Z" fill="url(#paint1_linear_303_13459)" /><path d="M25.9971 189.185L43.6863 189.499C41.9384 188.905 54.2702 142.103 87.5425 94.5766C87.0252 90.8731 86.9372 87.1222 87.2803 83.3985L132.64 80.7241L132.989 92.9598L235.017 173.505L266.804 172.894L308.449 306.437H295.916C273.131 334.911 255.713 366.471 242.332 400.372L244.762 409.514C218.735 409.715 194.465 409.566 176.907 408.081L173.096 399.096L87.2541 318.175H73.5676C55.3889 274.292 38.862 231.039 25.9971 189.185Z" fill="url(#paint2_linear_303_13459)" /><path d="M132.894 84.7358L240.471 72.4302L266.839 173.331L234.852 173.68L132.544 93.1696L132.894 84.7358Z" fill="url(#paint3_linear_303_13459)" /><path d="M87.5426 94.5767C87.5426 94.5767 49.9617 155.047 43.5904 189.84C31.2935 189.482 25.6651 189.482 25.6651 189.482C25.6651 189.482 4.33138 126.363 0.407227 84.4561C42.192 87.1916 87.1931 87.8995 87.1931 87.8995L87.5426 94.5767Z" fill="url(#paint4_linear_303_13459)" /><path opacity="0.4" d="M8.69336 74.545C8.69336 74.545 258.651 50.0737 266.516 49.628C274.382 49.1823 294.781 46.1758 294.781 46.1758L239.633 68.8992C142.735 77.132 64.4268 79.4306 8.69336 74.545Z" fill="url(#paint5_linear_303_13459)" /><path d="M0.407227 80.6543V84.4561C29.9127 86.5886 58.9636 87.8733 87.1931 87.8996L87.2804 83.3986L0.407227 80.6543Z" fill="#A220A6" /><path d="M132.316 80.6456L132.893 84.7358L240.471 72.4302L239.614 68.9255L132.316 80.6456Z" fill="#A220A6" /><path d="M79.5716 318.175C79.5716 318.175 92.4453 364.417 111.454 402.846C89.028 363.193 74.7473 318.018 73.5674 318.14L79.5716 318.175Z" fill="url(#paint6_linear_303_13459)" /><path d="M79.5723 318.175H87.2545L173.096 399.114L176.951 408.107C176.951 408.107 130.079 409.427 111.499 402.863C100.495 378.82 80.6822 331.975 79.5723 318.175Z" fill="url(#paint7_linear_303_13459)" /><path d="M249.009 410.283L246.178 400.136C246.178 400.136 270.903 342.978 300.041 306.446C302.838 306.2 305.651 306.2 308.449 306.446L343.451 403.029C343.451 403.029 285.122 410.073 249.009 410.283Z" fill="url(#paint8_linear_303_13459)" /><path d="M295.916 306.463C295.916 306.463 258.125 352.085 242.332 400.398C244.08 406.892 244.762 409.54 244.762 409.54H248.66L246.178 400.171C246.178 400.171 271.339 344.604 300.233 306.385C298.795 306.268 297.348 306.294 295.916 306.463V306.463Z" fill="url(#paint9_linear_303_13459)" /><path d="M343.102 403.125C374.137 388.538 412.05 362.442 459.437 295.189L440.017 240.714C415.406 240.714 387.657 258.884 359.777 295.609C346.335 240.443 321.794 144.813 296.23 45.4941L239.614 68.9254C264.61 174.248 300.592 290.12 343.102 403.125Z" fill="url(#paint10_linear_303_13459)" /><path d="M440.017 240.714C411.893 239.526 380.054 239.648 345.934 240.199L359.777 295.609C383.707 264.941 409.778 243.695 440.017 240.714Z" fill="url(#paint11_linear_303_13459)" /><path d="M441.285 246.203L446.957 245.53C422.564 270.001 393.129 291.851 359.778 311.664L357.637 304.462C386.585 286.618 414.511 267.168 441.285 246.203V246.203Z" fill="#9F20AD" /><path d="M296.231 45.4941C281.932 52.7831 267.678 58.9009 239.614 68.9342C153.79 80.7066 70.9196 88.6686 0.407227 80.6542L8.69252 74.5364L296.231 45.4941Z" fill="#D642D2" /><path d="M36.1362 11.2081C95.5666 11.514 156.387 7.57235 217.67 0.0561523C210.547 12.9123 214.917 39.3326 222.101 69.1003C138.994 77.6652 66.5331 80.191 8.69336 74.5014C10.4675 50.537 16.9 28.7313 36.1362 11.2081Z" fill="url(#paint12_linear_303_13459)" /><path d="M217.669 0.047511C210.93 10.3692 214.173 36.3787 222.1 69.0916C238.398 64.9693 254.279 59.346 269.539 52.2938C262.041 23.9682 243.46 -0.433176 217.669 0.047511Z" fill="url(#paint13_linear_303_13459)" /><path d="M135.523 406.263C135.523 406.263 271.934 414.705 343.101 402.251C373.411 389.089 406.307 357.285 406.307 357.285L408.772 384.719C382.553 416.252 354.271 438.364 331.058 443.005C282.491 452.715 218.726 455.677 148.318 443.477L135.523 406.263Z" fill="url(#paint14_linear_303_13459)" /><path d="M132.299 80.9951L135.76 91.2731L235.647 166.706L266.839 173.331L234.851 173.68L132.456 94.6991L132.299 80.9951Z" fill="#BB30C4" /><path d="M251.238 64.1799L260.529 60.7976C285.645 169.159 317.235 275.917 355.128 380.498H345.787C310.793 281.22 280.155 178.315 251.238 64.1799Z" fill="url(#paint15_linear_303_13459)" /><path d="M260.537 60.7976C282.85 160.571 314.872 269.573 355.136 380.498C394.465 351.159 436.145 312.546 459.673 281.555C458.37 269.765 454.009 257.809 446.956 245.53C424.967 268.507 395.164 290.286 359.777 311.664C328.454 205.091 300.862 109.88 287.56 49.6807L260.537 60.7976Z" fill="url(#paint16_linear_303_13459)" /><path opacity="0.4" d="M98.1093 251.149C89.0287 219.975 103.956 194.944 142.437 193.686C181.085 192.41 209.008 204.811 213.142 245.329C217.154 284.71 200.032 303.807 160.529 302.032C121.025 300.258 107.033 281.669 98.1093 251.149Z" fill="url(#paint17_linear_303_13459)" /><path d="M138.793 257.39C146.999 264.041 150.076 267.414 155.136 267.222C161.437 267.012 164.418 258.709 168.508 256.621C175.141 253.125 184.108 262.634 178.428 269.774C157.723 292.829 163.281 293.398 133.627 268.358C125.578 261.532 131.041 251.185 138.793 257.39ZM119.723 244.56C123.419 239.832 127.256 232.368 135.734 238.739C144.412 245.355 148.302 249.935 152.794 244.717C165.029 230.34 165.169 232.385 182.264 244.385C191.441 250.678 198.267 238.853 188.338 232.079C157.435 211.2 161.962 210.623 145.112 230.331C132.823 221.531 126.199 214.6 120.439 222.002C109.366 236.309 109.191 236.598 108.772 238.547C107.688 243.598 114.33 251.91 119.723 244.56Z" fill="url(#paint18_linear_303_13459)" /><defs><linearGradient id="paint0_linear_303_13459" x1="389.23" y1="252.53" x2="229.572" y2="485.017" gradientUnits="userSpaceOnUse"><stop stop-color="#2D095A" /><stop offset="1" stop-color="#150957" /></linearGradient><linearGradient id="paint1_linear_303_13459" x1="129573" y1="27447.5" x2="124433" y2="54136.6" gradientUnits="userSpaceOnUse"><stop stop-color="#2D095A" /><stop offset="1" stop-color="#150957" /></linearGradient><linearGradient id="paint2_linear_303_13459" x1="207.662" y1="232.452" x2="37.378" y2="279.703" gradientUnits="userSpaceOnUse"><stop stop-color="#911BA0" /><stop offset="1" stop-color="#5E0E7A" /></linearGradient><linearGradient id="paint3_linear_303_13459" x1="199.691" y1="156.671" x2="180.243" y2="73.7378" gradientUnits="userSpaceOnUse"><stop stop-color="#731490" /><stop offset="1" stop-color="#831899" /></linearGradient><linearGradient id="paint4_linear_303_13459" x1="68.5818" y1="152.213" x2="10.9371" y2="146.941" gradientUnits="userSpaceOnUse"><stop stop-color="#5F0E7D" /><stop offset="1" stop-color="#75158A" /></linearGradient><linearGradient id="paint5_linear_303_13459" x1="42733" y1="4207.62" x2="42912" y2="-359.798" gradientUnits="userSpaceOnUse"><stop stop-color="#9A00EC" /><stop offset="1" stop-color="#2F00BA" /></linearGradient><linearGradient id="paint6_linear_303_13459" x1="4982.19" y1="34732.5" x2="2835.56" y2="34977.9" gradientUnits="userSpaceOnUse"><stop stop-color="#701482" /><stop offset="1" stop-color="#B32487" /></linearGradient><linearGradient id="paint7_linear_303_13459" x1="112.267" y1="408.215" x2="139.706" y2="358.644" gradientUnits="userSpaceOnUse"><stop stop-color="#701481" /><stop offset="1" stop-color="#440869" /></linearGradient><linearGradient id="paint8_linear_303_13459" x1="387.753" y1="410.283" x2="281.382" y2="435.053" gradientUnits="userSpaceOnUse"><stop stop-color="#921CA1" /><stop offset="1" stop-color="#5E0E78" /></linearGradient><linearGradient id="paint9_linear_303_13459" x1="239.967" y1="314.155" x2="252.604" y2="422.18" gradientUnits="userSpaceOnUse"><stop stop-color="#43086C" /><stop offset="1" stop-color="#8D1EA7" /></linearGradient><linearGradient id="paint10_linear_303_13459" x1="349.525" y1="45.4941" x2="364.651" y2="403.125" gradientUnits="userSpaceOnUse"><stop stop-color="#B329C7" /><stop offset="1" stop-color="#8C1DA6" /></linearGradient><linearGradient id="paint11_linear_303_13459" x1="380.803" y1="239.796" x2="380.803" y2="323.071" gradientUnits="userSpaceOnUse"><stop stop-color="#C92BC4" /><stop offset="0.902151" stop-color="#710D85" /></linearGradient><linearGradient id="paint12_linear_303_13459" x1="115.397" y1="5.11118" x2="115.397" y2="77.5539" gradientUnits="userSpaceOnUse"><stop stop-color="#B627B8" /><stop offset="1" stop-color="#88199B" /></linearGradient><linearGradient id="paint13_linear_303_13459" x1="221.769" y1="0.0405277" x2="246.398" y2="69.0916" gradientUnits="userSpaceOnUse"><stop stop-color="#BE2AC5" /><stop offset="1" stop-color="#A220B8" /></linearGradient><linearGradient id="paint14_linear_303_13459" x1="387.994" y1="442.545" x2="319.283" y2="451.507" gradientUnits="userSpaceOnUse"><stop stop-color="#7A0F92" /><stop offset="1" stop-color="#530B6B" /></linearGradient><linearGradient id="paint15_linear_303_13459" x1="312.864" y1="375.99" x2="272.744" y2="55.927" gradientUnits="userSpaceOnUse"><stop stop-color="#A320B8" /><stop offset="1" stop-color="#C623A6" /></linearGradient><linearGradient id="paint16_linear_303_13459" x1="402.909" y1="374.207" x2="346.93" y2="47.0937" gradientUnits="userSpaceOnUse"><stop stop-color="#D82FC9" /><stop offset="1" stop-color="#E93795" /></linearGradient><linearGradient id="paint17_linear_303_13459" x1="224.25" y1="131.38" x2="93.9666" y2="348.965" gradientUnits="userSpaceOnUse"><stop stop-color="#EC006E" stop-opacity="0.1" /><stop offset="1" stop-color="#BA00A1" /></linearGradient><linearGradient id="paint18_linear_303_13459" x1="137.796" y1="280.384" x2="163.823" y2="200.249" gradientUnits="userSpaceOnUse"><stop stop-color="#FF0064" stop-opacity="0.1" /><stop offset="1" stop-color="#DB00B4" /></linearGradient></defs></svg>