<svg width="742" height="179" viewBox="0 0 742 179" fill="none" xmlns="http://www.w3.org/2000/svg"><path d="M1.61354 143.819C0.044592 150.64 1.07789 157.801 4.51117 163.9C7.93564 169.713 13.0899 173.058 18.7359 173.111C85.2935 173.761 151.939 175.499 218.672 178.327C221.302 178.392 223.907 177.811 226.26 176.635C228.613 175.46 230.641 173.725 232.168 171.583C235.647 166.739 237.139 160.748 236.339 154.838C233.994 135.319 221.078 23.4706 221.078 23.4794C219.814 13.0567 212.218 4.88189 203.403 4.4692C152.024 2.39696 100.639 0.93351 49.2488 0.0788567C41.3023 -0.0616343 34.2777 6.55022 32.0913 16.1651C21.935 58.6753 11.7757 101.227 1.61354 143.819Z" fill="url(#paint0_linear_303_13526)" /><path d="M84.3711 113.991C131.172 117.995 177.964 119.83 224.748 119.496C221.201 87.8858 217.653 56.3076 214.106 24.7615C213.931 23.3126 213.55 21.8962 212.973 20.5555C177.71 19.0277 142.42 18.9487 107.157 19.0892C105.998 21.6707 91.9664 82.1169 84.3711 113.991Z" fill="#1B2026" /><path d="M45.7539 10.7298C45.7539 10.7298 107.157 19.1768 107.157 19.089C142.333 19.6159 177.526 19.449 212.701 21.0559L212.973 20.8978C211.147 16.6656 207.512 13.724 203.402 13.5396C152.024 11.2566 100.639 10.0859 49.2486 10.0274C48.0485 10.0257 46.8602 10.2645 45.7539 10.7298Z" fill="url(#paint1_radial_303_13526)" /><path d="M84.3713 113.991L46.1111 128.951L10.8418 159.966C12.5678 162.676 15.5401 164.45 18.7444 164.682C85.2962 167.369 151.939 169.297 218.672 170.468C225.257 170.591 230.315 163.707 229.376 155.936C227.9 143.789 226.215 131.618 224.764 119.448C177.952 119.448 131.109 116.407 84.3713 113.991Z" fill="url(#paint2_radial_303_13526)" /><path d="M8.37552 146.637C7.8426 148.896 7.78678 151.241 8.21163 153.523C8.63649 155.804 9.53267 157.972 10.8429 159.887C35.3498 143.836 59.8655 128.909 84.3724 113.999C91.9677 82.4943 99.563 50.4887 107.202 19.0978C86.6846 15.6557 66.2022 12.6235 45.7549 10.001C44.6222 10.44 40.346 12.5035 38.8621 19.0012C34.2786 39.1177 13.0117 125.985 8.37552 146.637Z" fill="url(#paint3_linear_303_13526)" /><path d="M198.6 84.593C200.356 83.9695 200.541 83.9695 202.236 84.7071C201.682 83.1793 201.516 82.951 202.341 81.0719C200.585 81.6953 200.409 81.6953 198.706 80.9665C199.355 82.6963 199.355 82.8983 198.6 84.593ZM101.082 103.226C103.462 102.348 103.716 102.348 106.096 103.375C105.218 100.978 105.218 100.741 106.236 98.3699C103.848 99.2479 103.602 99.2479 101.231 98.2206C102.101 100.609 102.092 100.89 101.082 103.226ZM166.7 51.7883C166.937 51.9683 167.233 52.0527 167.529 52.0247C167.825 51.9968 168.1 51.8586 168.298 51.6376C168.497 51.4165 168.606 51.1288 168.603 50.8314C168.599 50.534 168.484 50.2487 168.281 50.0322C168.044 49.8522 167.748 49.7678 167.452 49.7958C167.156 49.8237 166.881 49.9619 166.682 50.1829C166.483 50.404 166.375 50.6917 166.378 50.9891C166.381 51.2865 166.496 51.5717 166.7 51.7883ZM144.915 56.644C146.996 54.3084 150.535 57.4606 148.427 59.7963C146.32 62.132 142.799 58.9797 144.915 56.644ZM194.614 55.5552C196.704 53.2196 200.234 56.3718 198.126 58.7075C196.019 61.0432 192.498 57.8909 194.588 55.5552H194.614Z" fill="#1F5B78" /><path d="M169.755 105.508C172.082 104.63 172.284 104.63 174.76 105.658C173.882 103.261 173.882 103.023 174.909 100.644C172.512 101.522 172.275 101.522 169.895 100.495C170.765 102.892 170.756 103.164 169.755 105.508Z" fill="#82CDFF" /><path d="M156.961 32.4884C161.132 27.8171 168.2 34.1304 163.986 38.8017C159.771 43.4731 152.817 37.1598 156.961 32.4884Z" fill="#82CDFF" /><path d="M202.936 166.154L42.0215 162.281L46.4557 158.392L204.236 162.404L202.936 166.154Z" fill="url(#paint4_radial_303_13526)" /><path opacity="0.4" d="M219.5 139.07C179.508 163.861 76.9648 166.778 102.161 139.07C110.855 129.51 132.353 122.908 155.047 120.28L212.484 122.085C218.668 123.393 223.127 125.016 225.353 127.291L226.065 133.016C225.027 134.859 223.035 136.879 219.5 139.07Z" fill="#5A0EA7" /><ellipse cx="129.709" cy="149.506" rx="29.9914" ry="8.90834" fill="#5A0EA7" /><path d="M129.116 134.751C113.7 134.751 101.203 138.474 101.203 143.066V148.089C101.203 152.681 113.7 156.404 129.116 156.404C144.532 156.404 157.029 152.681 157.029 148.089V143.066C157.029 138.474 144.532 134.751 129.116 134.751Z" fill="url(#paint5_linear_303_13526)" /><path opacity="0.4" fill-rule="evenodd" clip-rule="evenodd" d="M114.108 155.101V145.17H111.888V154.632C112.601 154.798 113.341 154.955 114.108 155.101ZM110.5 154.285V144.06H106.061V152.778C107.333 153.332 108.826 153.838 110.5 154.285Z" fill="white" /><ellipse cx="129.116" cy="143.066" rx="27.9128" ry="8.31445" fill="#2D86DF" /><path opacity="0.45" fill-rule="evenodd" clip-rule="evenodd" d="M157.03 143.068C134.502 148.636 107.435 147.457 107.807 137.696C112.927 135.895 120.574 134.751 129.117 134.751C144.533 134.751 157.03 138.474 157.03 143.066C157.03 143.067 157.03 143.068 157.03 143.068Z" fill="#104BF5" /><circle cx="128.046" cy="89.2904" r="55.9451" fill="url(#paint6_linear_303_13526)" /><circle cx="128.046" cy="89.2904" r="55.9451" fill="url(#paint7_linear_303_13526)" /><path fill-rule="evenodd" clip-rule="evenodd" d="M128.045 145.236C158.942 145.236 183.99 120.188 183.99 89.2904C183.99 58.3927 158.942 33.3452 128.045 33.3452C97.1471 33.3452 72.0996 58.3927 72.0996 89.2904C72.0996 120.188 97.1471 145.236 128.045 145.236ZM128.044 140.973C155.558 140.973 177.862 118.669 177.862 91.1552C177.862 63.6415 155.558 41.3373 128.044 41.3373C100.53 41.3373 78.2263 63.6415 78.2263 91.1552C78.2263 118.669 100.53 140.973 128.044 140.973Z" fill="#004DB2" /><path opacity="0.2" fill-rule="evenodd" clip-rule="evenodd" d="M150.469 38.0209C145.162 35.6963 139.425 34.1716 133.411 33.5991L72.3525 94.6573C72.925 100.672 74.4498 106.409 76.7743 111.716L150.469 38.0209ZM93.2167 133.076C87.3698 128.419 82.4767 122.616 78.8775 116.006L154.76 40.1241C161.369 43.7232 167.173 48.6164 171.829 54.4633L93.2167 133.076ZM117.359 144.216C115.177 143.794 113.04 143.245 110.956 142.578L181.331 72.203C181.999 74.2867 182.548 76.4235 182.97 78.6056L117.359 144.216Z" fill="#EAFDFF" /><path fill-rule="evenodd" clip-rule="evenodd" d="M156.926 91.5484C158.501 92.8655 159.674 94.9877 159.905 97.8752C161.033 102.655 158.352 109.157 153.984 110.606C152.568 111.438 150.935 111.86 149.296 111.68C147.34 113.76 145.183 115.477 142.895 116.844C149.548 119.14 158.373 123.454 159.63 130.019C161.086 131.157 161.955 132.316 162.439 133.417C152.951 140.823 141.013 145.235 128.044 145.235C116.963 145.235 106.635 142.014 97.9451 136.457C99.5966 135.566 101.502 134.946 103.566 134.61L104.443 132.738C102.047 130.568 103.887 126.589 107.083 127.014C107.14 126.889 107.196 126.764 107.25 126.638C101.4 126.412 94.5652 123.674 88.433 121.013C86.5334 120.189 84.7232 119.97 83.2385 119.79H83.2385C82.2877 119.675 81.4704 119.576 80.8486 119.345C80.4056 118.65 79.9774 117.946 79.5646 117.231C79.723 116.26 80.6701 115.56 81.8423 115.172C81.2909 114.782 80.2674 114.196 78.3815 113.425C77.9913 113.266 77.6362 113.094 77.3156 112.913C76.6531 111.492 76.0486 110.04 75.5049 108.558C76.1531 107.697 77.4555 107.023 79.3637 106.788C86.8849 105.864 93.8261 108.645 100.102 111.16C103.388 112.477 106.491 113.721 109.4 114.321C101.33 107.753 96.7169 97.1367 98.8323 86.36C102.087 69.7775 120.447 58.2152 137.564 64.2908C146.859 67.5888 156.494 77.3946 156.926 91.5484Z" fill="#004DB2" /><path d="M88.634 79.4368L89.7848 79.8569L90.052 78.7195L91.4626 79.0514L91.1524 80.3677L92.4016 80.8305L92.0484 82.3335L90.7992 81.8708L90.5807 82.7937L91.8299 83.2564L91.4748 84.7589L90.2257 84.2962L89.9585 85.4337L88.5479 85.1017L88.858 83.7854L87.7068 83.367L87.4396 84.5045L86.0313 84.1712L86.3409 82.8567L85.0918 82.394L85.4468 80.8914L86.696 81.3542L86.9126 80.4309L85.6635 79.9681L86.0167 78.4651L87.2663 78.926L87.5349 77.7909L88.9437 78.1223L88.634 79.4368ZM88.2803 80.9417L88.0637 81.865L89.2144 82.2852L89.431 81.3618L88.2803 80.9417ZM95.7552 72.7543L92.9825 71.3943L94.5397 73.8098L94.0973 74.7108L91.3272 74.9687L93.987 76.2959L93.0601 78.1513L87.0065 75.1335L87.8431 73.4578L92.0465 73.0959L89.7819 69.5718L90.6167 67.8956L96.6753 70.8951L95.7552 72.7543ZM97.1146 62.0137L99.9209 67.1024C100.279 67.753 100.436 68.325 100.392 68.8186C100.282 69.999 99.1578 71.0362 98.378 71.2006L97.675 69.6943C98.1354 69.5841 98.6391 69.1714 98.5563 68.7185L93.0069 67.0644L94.42 65.328L97.3075 66.2674L95.8151 63.622L97.1146 62.0137ZM102.72 63.6437C102.101 63.7844 101.455 63.7477 100.856 63.5376C100.257 63.3276 99.7295 62.9528 99.334 62.4563C96.9097 59.5606 100.18 55.7551 103.142 56.422L102.865 58.3309C102.204 58.1937 101.657 58.3065 101.224 58.6691C100.515 59.2613 100.411 60.1645 101.095 60.9798C101.778 61.7951 102.683 61.8554 103.394 61.2595C103.827 60.8969 104.034 60.3784 104.015 59.7038L105.943 59.7664C105.966 60.3149 105.852 60.8605 105.61 61.3535C105.32 61.9183 104.913 62.4149 104.417 62.8102C103.92 63.2055 103.344 63.4905 102.729 63.6461L102.72 63.6437ZM108.076 53.7246L109.056 55.3891C108.146 55.7577 107.725 56.2895 108.233 57.1493L109.422 59.1714L107.548 60.279L104.861 55.7258L106.649 54.6735L106.938 55.1648C107.056 54.5879 107.438 54.1087 108.085 53.7271L108.076 53.7246ZM115.302 50.7687L115.257 56.5766C115.252 57.3193 115.109 57.8946 114.827 58.3024C114.154 59.278 112.666 59.6342 111.906 59.3935L112.031 57.7357C112.486 57.8599 113.121 57.7582 113.277 57.3173L109.248 53.1565L111.332 52.3339L113.385 54.5664L113.379 51.5271L115.302 50.7687ZM122.525 54.3905C121.84 54.9777 120.647 55.2534 119.928 54.7703L120.352 56.9591L118.211 57.373L116.852 50.3508L118.889 49.9559L118.97 50.3825C119.212 49.9756 119.652 49.7101 120.291 49.5859C123.089 49.0485 124.364 52.8214 122.534 54.393L122.525 54.3905ZM121.053 53.0065C121.182 52.7625 121.215 52.4795 121.146 52.2125C121.109 51.9374 120.972 51.6856 120.762 51.5043C120.224 51.0863 119.247 51.4406 119.458 52.5377C119.493 52.8116 119.629 53.0624 119.84 53.2412C119.933 53.3124 120.04 53.3633 120.154 53.3904C120.268 53.4175 120.387 53.4202 120.502 53.3985C120.618 53.3768 120.727 53.331 120.823 53.2642C120.92 53.1974 121.001 53.1111 121.062 53.0108L121.053 53.0065ZM128.712 54.0947C128.302 54.3129 127.843 54.4223 127.378 54.4123C125.909 54.4516 125.052 53.7775 125.014 52.3327L124.976 50.9822L124.253 51.0031L124.208 49.4092L124.933 49.3907L124.892 47.9137L127.069 47.8537L127.109 49.3284L128.19 49.2992L128.237 50.8839L127.156 50.9131L127.186 52.2437C127.194 52.5386 127.36 52.751 127.653 52.7425C127.828 52.7409 127.998 52.6858 128.14 52.5847L128.712 54.0947ZM130.69 54.1707C130.27 53.9005 129.936 53.5153 129.729 53.0609C129.522 52.6065 129.449 52.102 129.521 51.6077C129.578 51.1121 129.778 50.6437 130.095 50.2587C130.413 49.8737 130.834 49.5885 131.31 49.4374C131.834 49.2741 132.388 49.2274 132.932 49.3006C133.476 49.3737 133.997 49.565 134.46 49.8609C134.879 50.1303 135.211 50.5151 135.417 50.969C135.622 51.4228 135.692 51.9264 135.619 52.4191C135.563 52.9139 135.367 53.3823 135.052 53.7683C134.738 54.1543 134.319 54.4416 133.846 54.5957C133.323 54.7628 132.769 54.8118 132.225 54.739C131.681 54.6663 131.159 54.4736 130.699 54.175L130.69 54.1707ZM133.074 52.8565C133.273 52.6632 133.394 52.4042 133.415 52.1281C133.467 51.8568 133.417 51.5756 133.274 51.3392C132.897 50.7861 131.851 50.7954 131.714 51.8957C131.576 52.9959 132.571 53.3047 133.086 52.8517L133.074 52.8565ZM148.609 52.6849L144.112 58.1738L141.842 57.2753L142.155 53.5154L139.759 56.4512L137.489 55.5527L137.985 48.465L140.166 49.3294L139.849 53.3339L142.42 50.2198L144.371 50.9919L144.036 55.0424L146.623 51.8836L148.609 52.6849ZM149.613 55.4288L151.425 56.6445L148.484 61.0314L146.672 59.8157L149.613 55.4288ZM151.992 53.84C153.507 54.8548 152.164 56.6281 150.755 55.6837C149.309 54.6994 150.541 52.8566 152.003 53.8352L151.992 53.84ZM156.695 61.7102C156.726 62.266 156.475 62.8374 155.942 63.4244L153.917 65.6541L152.303 64.1879L154.074 62.2366C154.481 61.7898 154.525 61.4211 154.205 61.1307C154.125 61.0529 154.028 60.9937 153.923 60.9574C153.817 60.9211 153.705 60.9086 153.594 60.9207C153.311 60.9782 153.059 61.1361 152.883 61.3653L151.217 63.2017L149.601 61.735L153.149 57.8265L154.685 59.228L154.334 59.6136C154.628 59.6038 154.922 59.6532 155.197 59.759C155.471 59.8647 155.722 60.0246 155.934 60.2292C156.156 60.4107 156.338 60.635 156.471 60.8886C156.603 61.1423 156.684 61.42 156.706 61.7053L156.695 61.7102ZM157.283 69.5789C156.863 69.381 156.5 69.0791 156.229 68.7019C155.314 67.5501 155.345 66.4564 156.469 65.5626L157.526 64.7212L157.076 64.1542L158.328 63.1639L158.779 63.7309L159.934 62.8102L161.293 64.5174L160.136 65.4376L160.811 66.2839L159.558 67.2742L158.885 66.4284L157.844 67.2581C157.788 67.2911 157.739 67.3358 157.702 67.3891C157.665 67.4425 157.64 67.5033 157.629 67.5672C157.618 67.6312 157.62 67.6968 157.637 67.7597C157.653 67.8225 157.683 67.881 157.725 67.9311C157.831 68.0703 157.978 68.1735 158.145 68.2266L157.283 69.5789ZM162.225 74.0715L160.396 70.8924C160.265 71.0508 160.193 71.2497 160.192 71.4555C160.228 71.8898 160.43 72.2934 160.757 72.5823C160.911 72.7051 161.082 72.8054 161.265 72.8801L160.839 74.44C160.098 74.2769 159.468 73.7515 158.951 72.8636C157.122 69.6803 160.319 67.366 162.532 68.8068C162.958 69.0983 163.315 69.4803 163.578 69.9254C163.84 70.3705 164.001 70.868 164.049 71.3823C164.12 72.3468 163.678 73.2598 162.676 73.8352C162.666 73.8502 162.513 73.9283 162.24 74.0659L162.225 74.0715ZM161.289 70.3344L162.135 71.8071C162.296 71.6818 162.405 71.5008 162.44 71.2996C162.475 71.0984 162.434 70.8914 162.324 70.719C162.234 70.5359 162.078 70.3937 161.887 70.3209C161.696 70.2481 161.485 70.25 161.296 70.3263L161.289 70.3344ZM167.124 77.7175L165.325 78.4055C165.108 77.4443 164.65 76.948 163.721 77.3074L161.526 78.1488L160.741 76.115L165.668 74.2135L166.414 76.1503L165.883 76.355C166.447 76.5575 166.866 77.0098 167.14 77.7119L167.124 77.7175ZM165.621 88.7393L163.871 88.9629L163.176 83.5898L164.564 83.4126L167.125 85.5498C167.42 85.7934 167.735 86.0071 168.111 85.9586C168.411 85.9204 168.614 85.7026 168.555 85.2406C168.529 85.0341 168.445 84.8394 168.312 84.679C168.179 84.5186 168.004 84.3992 167.806 84.3347L168.439 82.5209C168.95 82.7141 169.395 83.0525 169.717 83.4947C170.355 84.3467 170.546 85.7193 170.285 86.6637C170.054 87.5086 169.46 88.0932 168.613 88.202C167.685 88.32 167.046 87.9411 166.331 87.3257L165.336 86.4803L165.621 88.7393ZM164.111 91.2057C164.812 90.1847 166.056 89.8384 167.299 89.9143C168.892 90.0014 169.869 90.7002 170.326 91.5538C170.575 92.0517 170.691 92.6062 170.66 93.1625C170.63 93.7187 170.455 94.2573 170.152 94.7249C169.45 95.7477 168.207 96.0922 166.966 96.0168C165.725 95.9414 164.523 95.4701 163.937 94.3768C163.689 93.877 163.575 93.3207 163.607 92.7632C163.64 92.2058 163.817 91.6665 164.123 91.199L164.111 91.2057ZM167.09 93.7321C168.228 93.7952 168.814 93.5705 168.846 93.058C168.879 92.5455 168.324 92.2572 167.182 92.1931C166.045 92.1304 165.46 92.3552 165.426 92.8673C165.392 93.3795 165.951 93.6655 167.102 93.7255L167.09 93.7321ZM163.906 102.252L162.187 101.841L163.446 96.5731L164.807 96.8994L166.439 99.7988C166.626 100.129 166.852 100.444 167.221 100.533C167.511 100.612 167.782 100.47 167.89 100.018C167.939 99.8155 167.929 99.6032 167.862 99.406C167.794 99.2088 167.672 99.0348 167.51 98.9044L168.746 97.4341C169.156 97.7964 169.451 98.2703 169.596 98.7979C169.889 99.819 169.583 101.172 169.004 101.961C168.486 102.664 167.736 103.008 166.896 102.808C165.986 102.589 165.523 102.009 165.071 101.18L164.442 100.038L163.906 102.252ZM166.955 108.079L160.679 105.58L161.524 103.464L166.204 105.331L166.635 104.254L168.231 104.886L166.955 108.079Z" fill="white" /><path fill-rule="evenodd" clip-rule="evenodd" d="M183.99 89.2904C183.99 120.188 158.942 145.236 128.045 145.236C126.114 145.236 124.205 145.138 122.325 144.947C120.955 144.808 119.599 144.619 118.26 144.383C110.295 142.978 102.912 139.888 96.4905 135.495C96.4907 135.495 96.4909 135.495 96.491 135.494C87.4399 129.301 80.3013 120.518 76.143 110.212C76.1424 110.212 76.1418 110.211 76.1412 110.211C75.7753 109.304 75.4325 108.385 75.1136 107.456C75.1137 107.455 75.1139 107.454 75.1141 107.454C73.1602 101.758 72.0996 95.6483 72.0996 89.2904C72.0996 58.3927 97.1471 33.3452 128.045 33.3452C158.942 33.3452 183.99 58.3927 183.99 89.2904ZM80.6872 104.798C79.09 99.9171 78.2263 94.7045 78.2263 89.2902C78.2263 61.7766 100.53 39.4724 128.044 39.4724C155.558 39.4724 177.862 61.7766 177.862 89.2902C177.862 104.843 170.735 118.731 159.569 127.867C157.996 120.942 147.991 116.568 141.34 114.466C132.838 117.929 120.811 117.963 110.46 112.647C107.248 112.16 103.789 110.773 100.101 109.295C94.195 106.929 87.7001 104.326 80.6872 104.798ZM88.0408 118.986C92.195 124.573 97.4919 129.26 103.586 132.701L104.442 130.873C102.046 128.703 103.885 124.724 107.082 125.149C107.139 125.024 107.194 124.898 107.249 124.773C101.398 124.547 94.5639 121.809 88.4318 119.148C88.301 119.091 88.1706 119.037 88.0408 118.986Z" fill="url(#paint8_linear_303_13526)" /><path fill-rule="evenodd" clip-rule="evenodd" d="M108.347 135.063C107.704 134.785 107.067 134.495 106.438 134.191C105.267 133.126 106.163 131.148 106.418 130.587C106.443 130.531 106.462 130.489 106.472 130.464C106.77 129.7 107.035 129.008 107.274 128.384L107.274 128.383C109.402 122.824 109.502 122.564 113.022 123.897L121.793 127.217C123.568 128.352 122.927 129.955 121.339 133.932C120.985 134.816 120.585 135.817 120.155 136.957C119.933 137.538 119.496 138.011 118.935 138.277C116.737 137.871 114.589 137.32 112.502 136.636L108.347 135.063ZM123.088 138.865C122.203 138.777 121.325 138.667 120.455 138.534C121.015 137.93 121.296 137.152 121.629 136.23C121.706 136.017 121.786 135.795 121.873 135.566C121.798 136.888 122.151 137.881 123.376 138.391C123.338 138.377 123.296 138.462 123.228 138.598C123.191 138.674 123.145 138.765 123.088 138.865ZM124.919 139.012C124.722 138.999 124.524 138.986 124.327 138.971C124.354 138.92 124.381 138.868 124.408 138.814C124.578 138.881 124.749 138.947 124.919 139.012ZM139.358 137.818C136.334 138.52 133.205 138.947 129.997 139.07C127.155 138.432 124.609 137.477 123.873 137.091C122.407 136.465 123.678 133.134 125.195 133.598C127.01 134.552 132.658 137.107 137.716 136.091C137.733 136.088 137.761 136.08 137.799 136.071C138.274 135.949 140.254 135.444 139.506 137.483C139.463 137.6 139.413 137.712 139.358 137.818ZM142.415 137.004C141.934 137.149 141.451 137.286 140.964 137.416C141.005 137.218 141.029 137.018 141.037 136.818L142.415 137.004ZM148.255 134.838C147.225 135.296 146.176 135.719 145.111 136.108C145.112 135.135 145.932 133.833 147.898 132.388C149.434 131.252 150.072 130.087 150.592 129.136C151.1 128.208 151.495 127.484 152.508 127.192C153.379 126.942 155.905 127.659 157.976 129.117C156.478 130.245 154.913 131.291 153.289 132.247C152.152 131.831 151.042 131.413 152.145 128.518C152.382 127.896 151.242 127.444 150.621 130.115C150.299 131.678 150.871 132.481 151.832 133.073C151.125 133.458 150.408 133.826 149.681 134.177C149.39 134.034 149.048 133.935 148.651 133.896C147.275 133.76 147.579 134.774 148.094 134.818C148.149 134.822 148.202 134.829 148.255 134.838ZM79.4949 106.475C76.0084 106.906 75.6171 108.552 78.9384 109.91C79.5609 110.165 80.2696 110.654 81.0072 111.164C82.3979 112.126 83.8914 113.158 85.1039 112.817C85.6743 112.657 86.459 113.735 83.2034 114.564C82.7044 114.644 81.0053 114.954 81.1738 115.723C81.3828 115.918 82.3086 116.032 83.3734 116.163L83.3734 116.163L83.3734 116.163C83.885 116.226 84.4286 116.293 84.9403 116.375C87.3397 116.758 88.8904 117.428 91.0714 118.37C92.753 119.097 94.8092 119.986 97.9179 121.029C99.2346 118.135 99.7082 114.064 99.7266 110.871L99.3404 110.717C92.9093 108.145 86.5575 105.606 79.4949 106.475ZM99.2525 121.459C100.556 118.51 101.053 114.624 101.117 111.425C107.499 113.952 110.28 114.958 112.327 114.865C121.793 120.726 131.908 119.261 140.965 116.064C143.539 116.809 145.313 117.445 148.331 118.767C144.12 120.453 143.323 125.362 143.928 129.854C141.989 129.018 139.89 128.706 137.754 128.762C136.668 128.79 136.673 130.439 137.797 130.431C138.052 130.426 138.301 130.426 138.544 130.431C138.571 131.787 138.528 133.143 138.415 134.494C138.359 134.504 138.277 134.525 138.169 134.553C137.051 134.839 133.167 135.833 126.697 132.776L126.698 132.774C126.742 132.685 128.711 128.661 125.022 127.25C122.285 126.203 120.096 125.351 118.331 124.665L118.331 124.665C111.275 121.918 111.004 121.813 109.548 122.414C110.447 119.455 110.49 119.118 110.057 118.981C109.673 118.856 109.618 118.988 108.909 120.672C108.665 121.252 108.344 122.016 107.905 123.017C105.045 123.017 101.964 122.296 99.2525 121.459ZM145.47 130.656C145.764 130.837 146.044 131.026 146.308 131.223C147.421 130.437 148.171 129.33 148.882 128.28C150.538 125.837 151.988 123.697 157.324 126.586C155.867 123.23 152.861 121.064 150.229 119.678C145.29 120.526 144.55 125.776 145.47 130.656ZM143.251 135.996L140.791 135.662C140.617 135.332 140.363 135.05 140.053 134.844C140.12 134.217 140.24 132.386 140.21 130.559C142.22 130.828 143.793 131.498 145.018 132.323C143.919 133.453 143.286 134.751 143.251 135.996ZM123.943 128.026C124.796 128.318 127.218 129.146 125.689 132.296C124.542 131.895 123.396 132.535 122.707 133.357C122.879 132.905 123.038 132.501 123.182 132.134C123.952 130.179 124.297 129.302 123.778 127.968C123.822 127.985 123.878 128.004 123.943 128.026Z" fill="white" /><path fill-rule="evenodd" clip-rule="evenodd" d="M148.97 37.3901C143.5 35.1827 137.601 33.8148 131.433 33.4463L125.335 39.5452C126.232 39.4971 127.135 39.4727 128.044 39.4727C133.702 39.4727 139.139 40.4157 144.207 42.1531L148.97 37.3901ZM81.6065 104.753C81.3011 104.763 80.9948 104.777 80.6874 104.798C79.0902 99.9174 78.2265 94.7049 78.2265 89.2906C78.2265 88.3814 78.2509 87.4779 78.299 86.5807L72.2002 92.6795C72.5075 97.8235 73.5099 102.78 75.1148 107.457C75.4335 108.386 75.7759 109.304 76.1414 110.21L76.1416 110.21C76.1424 110.212 76.1432 110.214 76.144 110.216L81.6065 104.753ZM78.1434 114.61L87.5254 105.228C91.9655 106.035 96.1647 107.718 100.102 109.295L100.102 109.296C103.791 110.774 107.25 112.16 110.461 112.647C110.695 112.767 110.929 112.884 111.164 112.998L100.518 123.644C96.4944 122.555 92.3227 120.836 88.4334 119.148C88.302 119.091 88.1709 119.037 88.0404 118.986C90.4606 122.241 93.2688 125.19 96.3964 127.766L92.0456 132.117C86.3162 127.296 81.5679 121.346 78.1434 114.61ZM113.027 143.197C110.978 142.627 108.976 141.944 107.028 141.154L131.43 116.752C135.014 116.457 138.39 115.668 141.342 114.466C141.446 114.499 141.551 114.532 141.657 114.567L113.027 143.197ZM179.908 68.2747C180.698 70.2219 181.381 72.2237 181.951 74.2729L176.871 79.3529C176.434 77.1925 175.856 75.0827 175.149 73.0335L179.908 68.2747ZM153.364 39.3895C160.1 42.814 166.05 47.5623 170.871 53.2918L166.52 57.6426C161.745 51.8444 155.685 47.1443 148.776 43.9779L153.364 39.3895Z" fill="url(#paint9_linear_303_13526)" /><path d="M159.634 96.5222C159.403 93.6346 158.229 91.5125 156.655 90.1953C156.223 76.0416 146.587 66.2358 137.293 62.9377C120.176 56.8622 101.816 68.4245 98.5611 85.007C95.3121 101.559 107.142 118.629 123.784 120.337C132.43 121.224 142.32 119.255 149.897 111.272C151.536 111.452 152.297 110.085 153.713 109.253C158.081 107.804 160.762 101.302 159.634 96.5222Z" fill="url(#paint10_linear_303_13526)" /><path opacity="0.6" d="M112.612 86.3101C113.701 89.8522 114.009 91.5264 115.56 92.1808C117.473 93.0103 119.998 90.4655 121.673 90.3181C124.38 90.0436 125.07 94.6849 122.068 96.4626C111.907 101.938 113.406 102.934 108.877 89.4981C107.746 85.8585 111.598 83.0013 112.612 86.3101ZM109.707 79.0805C111.889 77.9748 114.847 76.0119 115.846 79.3894C116.874 82.8908 117.048 85.056 119.558 83.8906C126.582 80.7307 126.129 81.442 128.442 88.0146C129.778 91.519 134.427 88.3753 133.158 84.6852C129.293 73.3583 130.867 73.8564 120.697 77.8926C119.245 73.1948 119.199 70.0336 115.485 71.6086C108.482 74.7246 108.473 74.8618 107.846 75.444C106.299 77.0052 106.431 80.8462 109.707 79.0805Z" fill="url(#paint11_linear_303_13526)" /><path d="M145.202 107.742C145.735 108.281 146.352 108.729 147.029 109.069C142.749 113.249 137.266 115.991 131.347 116.911C136.766 115.412 141.686 112.137 145.202 107.742ZM143.634 105.458C137.035 114.256 125.159 118.032 113.471 113.299C123.135 119.475 136.79 116.269 144.297 106.638C144.044 106.263 143.823 105.869 143.634 105.458ZM148.8 99.6985C150.685 103.878 155.889 102.458 158.401 98.9261C158.899 91.2554 151.081 90.5157 148.8 99.7012V99.6985ZM121.162 63.9264C138.148 59.5172 153.509 71.7574 154.794 88.4471C153.479 87.987 152.034 87.9558 150.62 88.352C148.927 74.3201 135.317 63.7168 121.162 63.9264ZM147.099 99.3355C145.733 99.7415 145.116 99.0302 144.927 98.8463C145.825 92.4899 151.724 87.7275 155.745 91.3859C153.973 90.9959 152.192 91.6468 150.801 92.7973C148.854 94.4086 147.698 96.8936 147.099 99.3355ZM109.5 70.0996C111.358 68.4813 113.416 67.1055 115.622 66.0054C130.706 62.3859 147.587 73.2979 149.277 88.8607C148.901 89.0423 148.539 89.251 148.194 89.4852C146.49 72.5686 125.656 59.7434 109.5 70.0996Z" fill="white" /><path opacity="0.2" d="M142.778 103.008C136.151 113.373 121.026 118.226 106.616 107.02C105.506 105.873 99.3067 97.2243 100.787 87.1094C106.312 101.263 127.106 110.906 142.629 101.613C142.652 102.081 142.702 102.547 142.778 103.008Z" fill="#001D42" /><g opacity="0.2"><path d="M141.978 92.2238C139.82 97.2634 134.091 94.8845 135.226 90.2122C136.989 84.4005 143.786 87.0938 141.978 92.2238Z" fill="#94E2EE" /><path d="M137.737 100.023C136.801 101.901 134.275 100.91 135.104 98.7708C136.04 96.8947 138.565 97.886 137.737 100.023Z" fill="#94E2EE" /></g><path d="M486.546 159.887C485.843 170.67 478.143 179.003 468.984 178.862C403.182 177.902 337.368 177.902 271.542 178.862C262.41 179.003 254.7 170.688 253.98 159.896C252.611 138.945 247.035 47.433 245.63 25.9116C244.998 16.2528 251.215 6.0233 261.049 5.85647C333.841 4.68571 406.644 4.67108 479.46 5.81257C489.61 5.97062 495.502 16.5952 494.896 25.8764" fill="url(#paint12_linear_303_13526)" /><path d="M473.629 19.0537V126.002H266.967V19.0537H473.629Z" fill="#1B2026" /><path d="M394.486 38.3898C398.982 39.3205 399.394 39.5927 402.037 43.3421C402.959 38.8464 403.231 38.4337 406.981 35.7907C402.494 34.9126 402.072 34.5965 399.429 30.8472C398.516 35.3341 398.244 35.7556 394.486 38.3898ZM325.118 44.5363C328.367 45.2036 328.675 45.4143 330.589 48.1188C331.291 44.6943 331.52 44.5187 334.18 42.6484C330.922 41.9723 330.624 41.7703 328.701 39.0571C328.034 42.306 327.84 42.5694 325.118 44.4924V44.5363ZM443.386 73.214C443.895 70.7203 444.044 70.492 446.125 69.0256C443.631 68.5163 443.403 68.3583 441.937 66.2772C441.427 68.771 441.269 69.008 439.188 70.4744C441.682 70.9837 441.902 71.133 443.386 73.214ZM351.662 61.6235C355.008 60.9298 353.954 55.8721 350.609 56.5658C347.263 57.2595 348.317 62.2733 351.662 61.6235ZM410.493 96.9921C410.179 97.0096 409.884 97.1512 409.674 97.3859C409.464 97.6205 409.356 97.929 409.374 98.2433C409.391 98.5577 409.533 98.8523 409.767 99.0622C410.002 99.2722 410.31 99.3803 410.625 99.3629C410.945 99.3443 411.245 99.1992 411.458 98.9596C411.671 98.72 411.781 98.4055 411.762 98.0853C411.743 97.7651 411.598 97.4654 411.359 97.2521C411.119 97.0389 410.805 96.9296 410.484 96.9482L410.493 96.9921ZM436.15 43.9392C436.326 47.0651 431.602 47.3373 431.426 44.2026C431.251 41.0679 435.975 40.7693 436.141 43.8953L436.15 43.9392ZM452.438 92.4086C452.781 98.6604 443.324 99.1961 442.973 92.9354C442.622 86.6748 452.061 86.1479 452.438 92.4086ZM424.34 105.158C424.516 108.284 419.792 108.556 419.616 105.422C419.441 102.287 424.165 102.015 424.34 105.158ZM291.488 105.062C293.833 107.546 297.591 103.999 295.247 101.549C292.902 99.0995 289.118 102.568 291.48 105.062H291.488ZM354.262 106.818C356.018 106.185 356.193 106.194 357.897 106.923C357.265 105.167 357.265 104.983 358.002 103.288C356.246 103.911 356.079 103.92 354.367 103.182C354.973 104.939 354.973 105.141 354.253 106.844L354.262 106.818ZM289.583 72.8364C291.339 72.2042 291.524 72.2042 293.218 72.9418C292.595 71.1856 292.595 71.0013 293.324 69.3066C291.567 69.93 291.392 69.93 289.697 69.2012C290.321 70.9398 290.321 71.133 289.583 72.8364ZM338.667 31.7165C338.992 31.4764 339.389 31.3556 339.793 31.3743C340.196 31.393 340.58 31.5502 340.881 31.8192C341.182 32.0883 341.382 32.4529 341.445 32.8516C341.509 33.2503 341.433 33.6588 341.231 34.0082C340.906 34.2482 340.509 34.3691 340.106 34.3504C339.702 34.3316 339.318 34.1745 339.017 33.9054C338.716 33.6364 338.517 33.2718 338.453 32.8731C338.389 32.4744 338.465 32.0659 338.667 31.7165Z" fill="#1F5B78" /><path d="M325.427 93.9976C330.853 95.1216 331.362 95.4465 334.559 99.9861C335.674 94.5508 335.999 94.0503 340.538 90.8542C335.103 89.739 334.603 89.4053 331.406 84.8745C330.291 90.301 329.958 90.8103 325.427 93.9976Z" fill="#82CDFF" /><path d="M406.832 60.4556C405.752 62.7649 405.55 62.9493 403.188 63.8976C405.489 64.9688 405.682 65.1708 406.622 67.5416C407.702 65.2323 407.904 65.0391 410.266 64.0996C407.965 63.0195 407.772 62.8176 406.832 60.4556Z" fill="#82CDFF" /><path d="M462.294 120.673L470.933 138.186L477.221 166.464C475.452 169.308 472.314 171.131 468.967 171.258C403.164 172.014 337.353 172.028 271.533 171.302C269.871 171.239 268.251 170.769 266.813 169.933C265.375 169.097 264.165 167.921 263.288 166.508L268.82 134.094L278.215 120.734C339.592 121.724 400.952 121.703 462.294 120.673Z" fill="url(#paint13_radial_303_13526)" /><path d="M484.228 16.2968L470.679 21.3457C403.788 20.093 336.885 20.093 269.97 21.3457L256.396 16.3144C257.716 15.1868 259.383 14.5454 261.12 14.4968C333.882 13.0802 406.662 13.0772 479.46 14.488C481.209 14.5291 482.892 15.1674 484.228 16.2968Z" fill="url(#paint14_radial_303_13526)" /><path d="M278.267 120.734C273.292 135.837 268.316 151.031 263.34 166.315C261.992 164.272 261.207 161.91 261.066 159.466C259.714 138.717 254.12 47.0731 252.698 25.3673C252.552 23.6624 252.81 21.9471 253.45 20.3605C254.091 18.7739 255.097 17.3606 256.386 16.2354C260.908 17.9915 265.43 19.5105 269.961 21.3721C272.709 54.3874 275.493 87.6575 278.267 120.734Z" fill="url(#paint15_linear_303_13526)" /><path d="M462.408 120.734C467.396 135.837 472.371 151.031 477.335 166.315C478.684 164.272 479.469 161.91 479.61 159.466C480.962 138.717 486.564 47.0731 487.978 25.3673C488.125 23.6631 487.869 21.948 487.23 20.3613C486.591 18.7746 485.586 17.3611 484.298 16.2354C479.768 17.9915 475.14 19.4842 470.618 21.3457C467.861 54.3611 465.183 87.6575 462.408 120.734Z" fill="url(#paint16_linear_303_13526)" /><path d="M284.565 166.903H453.317L452.647 162.577H285.897L284.565 166.903Z" fill="url(#paint17_radial_303_13526)" /><path d="M284.565 166.903H453.317L452.647 162.577H285.897L284.565 166.903Z" fill="#1B2026" /><path opacity="0.6" d="M451.682 89.6676C449.469 87.0593 446.728 84.9512 443.638 83.4831C433.745 79.0145 422.672 78.4336 411.983 77.7186C397.585 76.9947 383.143 77.0126 368.709 77.0305C354.276 77.0483 339.834 77.0305 325.436 77.799C312.834 78.8179 293.485 79.3273 285.612 90.5524C279.141 100.383 281.59 116.81 285.942 144.39C286.666 148.992 287.56 161.603 288.364 166.849H450.127C451.021 161.925 451.709 148.751 452.46 144.39C457.312 115.907 459.046 99.3376 451.682 89.6676Z" fill="url(#paint18_radial_303_13526)" /><path opacity="0.7" d="M285.576 90.5523C289.535 84.2963 296.935 81.4543 303.835 79.7473C317.991 76.5925 332.568 76.3244 347.001 75.949C361.435 75.5737 375.886 75.6809 390.338 75.949C404.789 76.2171 419.348 76.4763 433.522 79.5775C440.457 81.2487 447.822 84.0461 452.022 90.1055C449.743 87.3114 446.865 85.0637 443.603 83.5277C433.709 79.0591 422.636 78.4782 411.948 77.7633C397.55 77.0393 383.107 77.0572 368.674 77.0751C354.24 77.093 339.798 77.0751 325.4 77.8437C312.799 78.8625 293.45 79.3719 285.576 90.597V90.5523Z" fill="#FF8DFA" /><path d="M319.706 125.109H329.366C331.55 125.109 333.473 125.511 335.134 126.313C336.814 127.097 338.112 128.227 339.026 129.701C339.96 131.176 340.426 132.912 340.426 134.909C340.426 136.907 339.96 138.643 339.026 140.117C338.112 141.592 336.814 142.731 335.134 143.533C333.473 144.317 331.55 144.709 329.366 144.709H319.706V125.109ZM329.086 139.557C330.505 139.557 331.634 139.156 332.474 138.353C333.333 137.532 333.762 136.384 333.762 134.909C333.762 133.435 333.333 132.296 332.474 131.493C331.634 130.672 330.505 130.261 329.086 130.261H326.314V139.557H329.086ZM355.922 141.293H348.474L347.158 144.709H340.438L349.006 125.109H355.502L364.07 144.709H357.238L355.922 141.293ZM354.102 136.533L352.198 131.605L350.294 136.533H354.102ZM375.514 137.597V144.709H368.906V137.513L361.514 125.109H368.486L372.49 131.885L376.522 125.109H382.906L375.514 137.597ZM400.652 125.109V144.709H394.044V130.093H390.684V125.109H400.652ZM411.935 145.157C410.199 145.157 408.659 144.756 407.315 143.953C405.99 143.132 404.944 141.956 404.179 140.425C403.432 138.876 403.059 137.037 403.059 134.909C403.059 132.781 403.432 130.952 404.179 129.421C404.944 127.872 405.99 126.696 407.315 125.893C408.659 125.072 410.199 124.661 411.935 124.661C413.671 124.661 415.202 125.072 416.527 125.893C417.871 126.696 418.916 127.872 419.663 129.421C420.428 130.952 420.811 132.781 420.811 134.909C420.811 137.037 420.428 138.876 419.663 140.425C418.916 141.956 417.871 143.132 416.527 143.953C415.202 144.756 413.671 145.157 411.935 145.157ZM411.935 139.865C413.428 139.865 414.175 138.213 414.175 134.909C414.175 131.605 413.428 129.953 411.935 129.953C410.442 129.953 409.695 131.605 409.695 134.909C409.695 138.213 410.442 139.865 411.935 139.865Z" fill="white" /><path d="M331.674 113.941C330.786 113.941 329.986 113.757 329.274 113.389C328.562 113.013 328.002 112.493 327.594 111.829C327.194 111.157 326.994 110.397 326.994 109.549C326.994 108.701 327.194 107.945 327.594 107.281C328.002 106.609 328.562 106.089 329.274 105.721C329.986 105.345 330.786 105.157 331.674 105.157C332.49 105.157 333.218 105.301 333.858 105.589C334.498 105.877 335.026 106.293 335.442 106.837L333.654 108.433C333.134 107.777 332.522 107.449 331.818 107.449C331.226 107.449 330.75 107.641 330.39 108.025C330.03 108.401 329.85 108.909 329.85 109.549C329.85 110.189 330.03 110.701 330.39 111.085C330.75 111.461 331.226 111.649 331.818 111.649C332.522 111.649 333.134 111.321 333.654 110.665L335.442 112.261C335.026 112.805 334.498 113.221 333.858 113.509C333.218 113.797 332.49 113.941 331.674 113.941ZM341.688 113.941C340.784 113.941 339.972 113.753 339.252 113.377C338.532 113.001 337.968 112.481 337.56 111.817C337.152 111.145 336.948 110.389 336.948 109.549C336.948 108.709 337.152 107.957 337.56 107.293C337.968 106.621 338.532 106.097 339.252 105.721C339.972 105.345 340.784 105.157 341.688 105.157C342.592 105.157 343.404 105.345 344.124 105.721C344.844 106.097 345.408 106.621 345.816 107.293C346.224 107.957 346.428 108.709 346.428 109.549C346.428 110.389 346.224 111.145 345.816 111.817C345.408 112.481 344.844 113.001 344.124 113.377C343.404 113.753 342.592 113.941 341.688 113.941ZM341.688 111.649C342.04 111.649 342.356 111.565 342.636 111.397C342.924 111.221 343.152 110.977 343.32 110.665C343.488 110.345 343.572 109.973 343.572 109.549C343.572 109.125 343.488 108.757 343.32 108.445C343.152 108.125 342.924 107.881 342.636 107.713C342.356 107.537 342.04 107.449 341.688 107.449C341.336 107.449 341.016 107.537 340.728 107.713C340.448 107.881 340.224 108.125 340.056 108.445C339.888 108.757 339.804 109.125 339.804 109.549C339.804 109.973 339.888 110.345 340.056 110.665C340.224 110.977 340.448 111.221 340.728 111.397C341.016 111.565 341.336 111.649 341.688 111.649ZM356.156 113.749L356.132 109.921L354.308 112.993H353.06L351.236 110.053V113.749H348.656V105.349H350.984L353.72 109.825L356.384 105.349H358.712L358.736 113.749H356.156ZM361.305 105.349H364.137V113.749H361.305V105.349ZM374.981 105.349V113.749H372.653L369.461 109.933V113.749H366.701V105.349H369.029L372.221 109.165V105.349H374.981ZM383.101 109.321H385.561V112.873C385.065 113.217 384.489 113.481 383.833 113.665C383.177 113.849 382.533 113.941 381.901 113.941C381.005 113.941 380.201 113.757 379.489 113.389C378.777 113.013 378.217 112.493 377.809 111.829C377.409 111.157 377.209 110.397 377.209 109.549C377.209 108.701 377.409 107.945 377.809 107.281C378.217 106.609 378.781 106.089 379.501 105.721C380.229 105.345 381.049 105.157 381.961 105.157C382.785 105.157 383.521 105.297 384.169 105.577C384.825 105.849 385.369 106.249 385.801 106.777L383.989 108.373C383.461 107.757 382.833 107.449 382.105 107.449C381.481 107.449 380.985 107.637 380.617 108.013C380.249 108.389 380.065 108.901 380.065 109.549C380.065 110.181 380.245 110.689 380.605 111.073C380.973 111.457 381.461 111.649 382.069 111.649C382.429 111.649 382.773 111.581 383.101 111.445V109.321ZM397.17 113.941C396.266 113.941 395.454 113.753 394.734 113.377C394.014 113.001 393.45 112.481 393.042 111.817C392.634 111.145 392.43 110.389 392.43 109.549C392.43 108.709 392.634 107.957 393.042 107.293C393.45 106.621 394.014 106.097 394.734 105.721C395.454 105.345 396.266 105.157 397.17 105.157C398.074 105.157 398.886 105.345 399.606 105.721C400.326 106.097 400.89 106.621 401.298 107.293C401.706 107.957 401.91 108.709 401.91 109.549C401.91 110.389 401.706 111.145 401.298 111.817C400.89 112.481 400.326 113.001 399.606 113.377C398.886 113.753 398.074 113.941 397.17 113.941ZM397.17 111.649C397.522 111.649 397.838 111.565 398.118 111.397C398.406 111.221 398.634 110.977 398.802 110.665C398.97 110.345 399.054 109.973 399.054 109.549C399.054 109.125 398.97 108.757 398.802 108.445C398.634 108.125 398.406 107.881 398.118 107.713C397.838 107.537 397.522 107.449 397.17 107.449C396.818 107.449 396.498 107.537 396.21 107.713C395.93 107.881 395.706 108.125 395.538 108.445C395.37 108.757 395.286 109.125 395.286 109.549C395.286 109.973 395.37 110.345 395.538 110.665C395.706 110.977 395.93 111.221 396.21 111.397C396.498 111.565 396.818 111.649 397.17 111.649ZM412.418 105.349V113.749H410.09L406.898 109.933V113.749H404.138V105.349H406.466L409.658 109.165V105.349H412.418Z" fill="white" /><path d="M740.387 143.819C741.956 150.64 740.922 157.801 737.489 163.9C734.082 169.713 728.901 173.067 723.264 173.111C656.701 173.761 590.067 175.499 523.363 178.327C520.732 178.393 518.125 177.813 515.771 176.637C513.416 175.462 511.386 173.726 509.858 171.583C506.384 166.738 504.892 160.748 505.688 154.838C508.041 135.319 520.948 23.4706 520.948 23.4794C522.178 13.0567 529.773 4.88189 538.589 4.4692C589.973 2.39696 641.358 0.93351 692.743 0.0788567C700.645 -0.0616343 707.722 6.55022 709.9 16.1651C720.068 58.6753 730.23 101.227 740.387 143.819Z" fill="url(#paint19_linear_303_13526)" /><path d="M657.629 113.991C610.851 117.995 564.047 119.83 517.217 119.496L527.894 24.7615C528.066 23.3131 528.445 21.8968 529.018 20.5555C564.29 19.0277 599.571 18.9487 634.843 19.0892C635.993 21.6707 650.033 82.1169 657.629 113.991Z" fill="#1B2026" /><path d="M598.702 35.1402C598.18 35.4927 597.62 35.7871 597.034 36.0183C596.401 36.0372 595.768 35.9872 595.146 35.869C595.497 36.3927 595.791 36.9519 596.024 37.5373C596.043 38.1702 595.993 38.8032 595.875 39.4252C596.401 39.0729 596.963 38.7785 597.552 38.5471C598.185 38.5287 598.818 38.5787 599.44 38.6964C599.089 38.1731 598.794 37.6138 598.562 37.0281C598.54 36.3955 598.587 35.7625 598.702 35.1402ZM544.016 93.6811C544.207 93.8 544.437 93.8408 544.658 93.7951C544.879 93.7493 545.073 93.6205 545.201 93.4352C545.297 93.3438 545.37 93.2322 545.416 93.1085C545.462 92.9849 545.48 92.8525 545.467 92.7211C545.455 92.5898 545.414 92.4628 545.346 92.3498C545.278 92.2367 545.185 92.1404 545.075 92.068C544.965 91.9956 544.839 91.949 544.709 91.9316C544.578 91.9142 544.445 91.9266 544.32 91.9677C544.194 92.0087 544.08 92.0775 543.985 92.169C543.889 92.2604 543.816 92.372 543.77 92.4957C543.651 92.6871 543.61 92.9169 543.656 93.1375C543.702 93.3582 543.831 93.5528 544.016 93.6811ZM528.887 99.5202C529.072 99.2228 529.342 98.9877 529.663 98.8451C529.983 98.7024 530.338 98.6588 530.683 98.7199C531.028 98.7809 531.347 98.9438 531.599 99.1875C531.851 99.4313 532.024 99.7448 532.096 100.088C532.168 100.431 532.136 100.787 532.004 101.112C531.871 101.436 531.645 101.714 531.354 101.909C531.063 102.104 530.72 102.207 530.369 102.205C530.019 102.204 529.677 102.097 529.387 101.9C529.013 101.644 528.752 101.254 528.659 100.811C528.565 100.367 528.647 99.9048 528.887 99.5202ZM536.79 78.0075C537.162 77.4403 537.694 76.9962 538.319 76.7313C538.944 76.4664 539.633 76.3927 540.3 76.5193C540.967 76.646 541.581 76.9675 542.065 77.4431C542.549 77.9187 542.882 78.5271 543.02 79.1915C543.159 79.8559 543.097 80.5464 542.844 81.1759C542.59 81.8053 542.155 82.3454 541.595 82.728C541.034 83.1106 540.373 83.3184 539.694 83.3253C539.015 83.3322 538.35 83.1378 537.782 82.7667C537.024 82.2622 536.498 81.4783 536.317 80.5865C536.136 79.6946 536.315 78.7674 536.816 78.0075H536.79ZM544.762 30.1001C544.043 30.5934 543.272 31.0056 542.462 31.3294C541.579 31.3562 540.695 31.2856 539.828 31.1187C540.319 31.839 540.731 32.6104 541.057 33.4192C541.083 34.3023 541.012 35.1857 540.846 36.0534C541.567 35.5621 542.338 35.1499 543.147 34.8241C544.03 34.7962 544.913 34.8639 545.781 35.0261C545.288 34.3068 544.875 33.5353 544.552 32.7255C544.535 31.8444 544.615 30.964 544.789 30.1001H544.762ZM632.701 80.7822C632.495 80.6714 632.26 80.6243 632.026 80.6468C631.793 80.6693 631.572 80.7605 631.39 80.9088C631.209 81.0571 631.075 81.2558 631.007 81.4799C630.938 81.7041 630.938 81.9435 631.005 82.1679C631.073 82.3923 631.205 82.5918 631.386 82.7409C631.567 82.8901 631.788 82.9824 632.021 83.006C632.254 83.0297 632.489 82.9837 632.696 82.8739C632.903 82.7641 633.073 82.5954 633.184 82.3891C633.331 82.1116 633.363 81.7873 633.272 81.4866C633.182 81.1858 632.977 80.9328 632.701 80.7822ZM626.177 39.6359C625.955 40.0464 625.615 40.3818 625.202 40.5997C624.79 40.8176 624.321 40.9083 623.857 40.8602C623.393 40.8121 622.953 40.6275 622.593 40.3296C622.234 40.0317 621.971 39.634 621.837 39.1866C621.703 38.7392 621.705 38.2623 621.843 37.8161C621.98 37.3698 622.246 36.9743 622.608 36.6794C622.97 36.3845 623.412 36.2036 623.876 36.1593C624.341 36.1151 624.809 36.2097 625.22 36.431C625.493 36.5783 625.735 36.7781 625.932 37.019C626.128 37.2599 626.275 37.5371 626.363 37.8349C626.452 38.1326 626.482 38.4449 626.45 38.754C626.418 39.063 626.325 39.3627 626.177 39.6359ZM612.049 74.144C611.793 74.726 611.472 75.2769 611.092 75.786C610.564 76.1407 609.999 76.4352 609.406 76.6641C609.985 76.9241 610.532 77.2481 611.039 77.63C611.393 78.1581 611.687 78.7234 611.917 79.3159C612.177 78.7387 612.498 78.1912 612.874 77.6826C613.402 77.3291 613.968 77.0346 614.56 76.8046C613.983 76.5422 613.435 76.2184 612.927 75.8387C612.575 75.3068 612.28 74.7386 612.049 74.144ZM629.294 37.309C629.469 37.3178 629.643 37.2739 629.793 37.1829C629.943 37.0919 630.063 36.958 630.136 36.7985C630.209 36.6391 630.233 36.4613 630.204 36.2882C630.175 36.1151 630.095 35.9545 629.975 35.8273C629.854 35.7001 629.698 35.612 629.526 35.5744C629.355 35.5368 629.176 35.5514 629.013 35.6164C628.85 35.6814 628.71 35.7937 628.611 35.9389C628.513 36.0841 628.46 36.2555 628.46 36.431C628.46 36.6564 628.546 36.8734 628.701 37.0368C628.857 37.2003 629.069 37.2978 629.294 37.309ZM619.46 50.1991C619.46 49.8481 619.566 49.5053 619.763 49.2149C619.96 48.9245 620.24 48.6999 620.566 48.5699C620.892 48.44 621.249 48.4107 621.592 48.4859C621.935 48.5611 622.247 48.7373 622.489 48.9918C622.731 49.2462 622.891 49.5673 622.948 49.9135C623.006 50.2597 622.958 50.6153 622.812 50.9342C622.665 51.2532 622.427 51.5209 622.126 51.7029C621.826 51.8849 621.479 51.9728 621.128 51.9552C620.678 51.9327 620.253 51.7378 619.943 51.4108C619.632 51.0839 619.459 50.65 619.46 50.1991Z" fill="#1F5B78" /><path d="M562.674 54.6685C563.813 54.6345 564.952 54.7257 566.072 54.9407C565.427 53.9986 564.889 52.9886 564.465 51.9289C564.431 50.7896 564.522 49.6501 564.737 48.5308C563.793 49.1701 562.784 49.7059 561.725 50.1288C560.586 50.1628 559.446 50.0716 558.327 49.8566C558.97 50.7998 559.508 51.8096 559.934 52.8684C559.968 54.0077 559.877 55.1472 559.662 56.2665C560.605 55.6272 561.615 55.0914 562.674 54.6685ZM564.43 93.3562C564.616 93.0592 564.887 92.8248 565.207 92.6831C565.528 92.5414 565.884 92.4989 566.229 92.561C566.574 92.6232 566.892 92.7871 567.143 93.0318C567.394 93.2765 567.566 93.5907 567.637 93.934C567.708 94.2772 567.675 94.6339 567.541 94.958C567.408 95.2821 567.18 95.5589 566.888 95.7527C566.596 95.9465 566.253 96.0484 565.902 96.0454C565.552 96.0424 565.21 95.9345 564.921 95.7357C564.549 95.479 564.289 95.0881 564.198 94.6447C564.106 94.2013 564.189 93.7397 564.43 93.3562ZM644.413 101.461C643.969 102.285 643.29 102.958 642.462 103.397C641.635 103.835 640.696 104.018 639.765 103.922C638.833 103.826 637.951 103.457 637.23 102.86C636.509 102.263 635.981 101.465 635.713 100.568C635.445 99.671 635.449 98.7146 635.725 97.8199C636 96.9251 636.535 96.1323 637.262 95.5417C637.988 94.951 638.874 94.5891 639.806 94.5018C640.738 94.4144 641.675 94.6055 642.499 95.0508C643.602 95.6475 644.424 96.6578 644.782 97.8597C645.141 99.0616 645.008 100.357 644.413 101.461Z" fill="#82CDFF" /><path d="M696.237 10.7298C696.237 10.7298 634.878 19.1768 634.878 19.089C599.693 19.6159 564.509 19.449 529.334 21.0559L529.053 20.8978C530.879 16.6655 534.523 13.724 538.624 13.5396C589.997 11.2566 641.381 10.0859 692.777 10.0273C693.966 10.0297 695.142 10.2684 696.237 10.7298Z" fill="url(#paint20_radial_303_13526)" /><path d="M657.629 113.991L697.481 128.444L731.158 159.966C729.431 162.675 726.46 164.448 723.256 164.682L523.363 170.468C516.769 170.591 511.72 163.707 512.66 155.936L517.228 119.461L657.629 113.991Z" fill="url(#paint21_radial_303_13526)" /><path d="M733.626 146.637C734.157 148.897 734.212 151.242 733.785 153.523C733.359 155.805 732.461 157.972 731.149 159.887C706.651 143.836 682.136 128.909 657.629 113.999C650.033 82.4856 642.438 50.4799 634.878 19.089C655.337 15.6587 675.805 12.6293 696.281 10.001C697.405 10.44 701.69 12.5035 703.174 19.0012C707.758 39.1177 728.989 125.985 733.626 146.637Z" fill="url(#paint22_linear_303_13526)" /><path d="M537.719 165.154L702.74 161.183L698.202 157.194L537.287 161.309L537.719 165.154Z" fill="url(#paint23_radial_303_13526)" /><path d="M537.719 165.154L702.74 161.183L698.202 157.194L537.287 161.309L537.719 165.154Z" fill="#1B2026" /><path opacity="0.7" d="M549.272 85.7141C553.658 79.798 560.582 77.0786 566.877 75.4037C579.645 72.2971 592.414 71.8018 605.038 71.2345C617.663 70.6672 630.171 70.5051 642.687 70.4691C655.204 70.4331 667.775 70.4691 680.084 72.9995C686.135 74.3862 692.618 76.7814 696.571 82.2833C694.493 79.7856 691.889 77.7777 688.945 76.4033C680.228 72.5492 670.638 72.198 661.381 71.7298C648.91 71.3246 636.384 71.5767 623.841 71.8379C611.297 72.099 598.672 72.3331 586.021 73.2696C574.873 74.4042 557.782 75.1966 549.281 85.7141H549.272Z" fill="#FF8DFA" /><path opacity="0.6" d="M696.247 81.9232C694.23 79.5881 691.741 77.7069 688.944 76.4033C680.228 72.5493 670.638 72.1981 661.381 71.7298C648.909 71.3246 636.384 71.5768 623.84 71.8379C611.297 72.099 598.672 72.3332 586.02 73.2697C574.872 74.4043 557.781 75.1967 549.281 85.7142C542.014 95.1512 541.294 110.972 540.537 140.508C540.402 145.533 540.222 159.067 540.123 165.055L698.84 161.264C698.84 161.264 700.542 141.273 700.857 136.564C702.866 106.434 703.226 90.7929 696.247 81.9232Z" fill="url(#paint24_radial_303_13526)" /><path d="M569.016 118.312L578.673 118.088C580.857 118.037 582.788 118.394 584.468 119.158C586.165 119.902 587.488 121.001 588.437 122.454C589.404 123.907 589.911 125.632 589.957 127.629C590.004 129.625 589.577 131.372 588.679 132.868C587.798 134.363 586.528 135.532 584.867 136.373C583.224 137.195 581.311 137.632 579.128 137.682L569.47 137.906L569.016 118.312ZM578.728 132.538C580.147 132.505 581.266 132.078 582.087 131.256C582.927 130.415 583.329 129.257 583.295 127.783C583.261 126.309 582.805 125.18 581.928 124.398C581.07 123.596 579.931 123.212 578.513 123.245L575.742 123.309L575.957 132.602L578.728 132.538ZM605.597 133.652L598.151 133.824L596.914 137.27L590.196 137.426L598.307 117.632L604.802 117.482L613.822 136.878L606.992 137.036L605.597 133.652ZM603.667 128.935L601.649 124.053L599.86 129.023L603.667 128.935ZM625.099 129.502L625.263 136.612L618.657 136.766L618.49 129.572L610.813 117.342L617.783 117.181L621.943 123.862L625.817 116.994L632.199 116.846L625.099 129.502ZM656.658 130.759L656.776 135.882L641.073 136.246L640.978 132.187L647.909 125.472C648.511 124.88 648.91 124.376 649.106 123.96C649.302 123.545 649.395 123.141 649.386 122.749C649.375 122.264 649.198 121.895 648.856 121.641C648.532 121.369 648.063 121.24 647.447 121.254C646.85 121.268 646.293 121.439 645.778 121.769C645.263 122.098 644.872 122.555 644.606 123.14L639.565 120.765C640.279 119.348 641.345 118.221 642.764 117.385C644.182 116.531 645.908 116.08 647.942 116.033C649.491 115.997 650.868 116.217 652.074 116.693C653.28 117.17 654.23 117.866 654.923 118.784C655.617 119.701 655.978 120.767 656.006 121.98C656.031 123.062 655.821 124.085 655.377 125.047C654.951 125.991 654.089 127.075 652.792 128.3L650.051 130.912L656.658 130.759ZM665.843 122.984C668.586 122.92 670.615 123.452 671.93 124.579C673.262 125.687 673.95 127.174 673.994 129.041C674.022 130.272 673.722 131.418 673.093 132.478C672.482 133.519 671.513 134.382 670.184 135.066C668.855 135.732 667.192 136.088 665.196 136.134C663.815 136.166 662.43 136.049 661.042 135.783C659.673 135.516 658.469 135.105 657.429 134.55L659.555 129.627C660.387 130.075 661.254 130.41 662.155 130.631C663.075 130.853 663.965 130.954 664.823 130.934C665.588 130.916 666.201 130.771 666.661 130.499C667.14 130.208 667.374 129.82 667.363 129.334C667.352 128.868 667.129 128.528 666.695 128.314C666.26 128.081 665.483 127.978 664.363 128.004L658.68 128.135L659.384 116.216L672.401 115.914L672.516 120.897L664.93 121.073L664.835 123.007L665.843 122.984Z" fill="white" /><path d="M582.362 106.83C581.475 106.851 580.67 106.685 579.95 106.334C579.23 105.974 578.658 105.468 578.234 104.813C577.819 104.151 577.601 103.396 577.582 102.548C577.562 101.7 577.744 100.94 578.129 100.266C578.521 99.5852 579.069 99.0523 579.772 98.6679C580.475 98.2755 581.271 98.069 582.159 98.0484C582.974 98.0295 583.706 98.1566 584.352 98.4297C584.999 98.7028 585.536 99.1064 585.965 99.6406L584.214 101.278C583.679 100.634 583.06 100.32 582.356 100.336C581.764 100.35 581.292 100.553 580.941 100.945C580.59 101.33 580.422 101.842 580.437 102.482C580.452 103.121 580.644 103.629 581.012 104.005C581.381 104.372 581.861 104.549 582.453 104.535C583.157 104.519 583.761 104.177 584.266 103.509L586.09 105.063C585.687 105.617 585.169 106.045 584.536 106.348C583.903 106.65 583.178 106.811 582.362 106.83ZM592.373 106.598C591.47 106.619 590.654 106.45 589.925 106.091C589.197 105.731 588.621 105.225 588.197 104.57C587.774 103.908 587.552 103.157 587.533 102.317C587.513 101.477 587.7 100.721 588.092 100.047C588.485 99.3661 589.036 98.8292 589.748 98.4366C590.459 98.044 591.266 97.8372 592.17 97.8163C593.074 97.7953 593.89 97.9644 594.618 98.3236C595.347 98.6828 595.923 99.1936 596.346 99.856C596.77 100.51 596.991 101.257 597.01 102.097C597.03 102.937 596.843 103.697 596.451 104.379C596.059 105.052 595.507 105.585 594.796 105.978C594.085 106.37 593.277 106.577 592.373 106.598ZM592.32 104.307C592.672 104.298 592.986 104.207 593.262 104.033C593.546 103.85 593.768 103.601 593.929 103.285C594.09 102.961 594.165 102.587 594.155 102.163C594.145 101.74 594.053 101.374 593.878 101.066C593.702 100.75 593.469 100.511 593.177 100.35C592.893 100.18 592.575 100.099 592.223 100.108C591.871 100.116 591.553 100.211 591.269 100.394C590.993 100.568 590.775 100.817 590.615 101.141C590.454 101.457 590.378 101.827 590.388 102.251C590.398 102.675 590.491 103.045 590.666 103.361C590.841 103.669 591.071 103.907 591.355 104.077C591.647 104.238 591.968 104.315 592.32 104.307ZM606.833 106.071L606.72 102.244L604.968 105.358L603.72 105.386L601.829 102.49L601.914 106.185L599.335 106.244L599.14 97.8466L601.468 97.7927L604.307 102.204L606.866 97.6675L609.194 97.6135L609.412 106.011L606.833 106.071ZM611.786 97.5534L614.617 97.4877L614.812 105.885L611.981 105.951L611.786 97.5534ZM625.458 97.2363L625.653 105.634L623.325 105.688L620.046 101.947L620.134 105.762L617.375 105.826L617.18 97.4283L619.507 97.3743L622.787 101.115L622.698 97.3003L625.458 97.2363ZM633.668 101.019L636.128 100.962L636.21 104.513C635.722 104.868 635.152 105.146 634.501 105.345C633.849 105.544 633.207 105.651 632.576 105.666C631.68 105.686 630.872 105.521 630.151 105.17C629.431 104.81 628.859 104.303 628.436 103.649C628.02 102.986 627.803 102.231 627.783 101.384C627.763 100.536 627.946 99.7753 628.33 99.1022C628.723 98.4209 629.274 97.888 629.986 97.5034C630.705 97.1106 631.52 96.9037 632.432 96.8825C633.256 96.8634 633.995 96.9863 634.649 97.2512C635.311 97.5079 635.864 97.8952 636.308 98.413L634.534 100.051C633.992 99.447 633.357 99.1537 632.629 99.1706C632.005 99.185 631.514 99.3845 631.155 99.7689C630.795 100.153 630.623 100.669 630.638 101.317C630.653 101.949 630.845 102.453 631.213 102.828C631.59 103.204 632.083 103.384 632.69 103.37C633.05 103.362 633.393 103.286 633.717 103.142L633.668 101.019ZM647.84 105.312C646.936 105.333 646.12 105.163 645.391 104.804C644.663 104.445 644.087 103.938 643.664 103.284C643.24 102.621 643.019 101.87 642.999 101.031C642.98 100.191 643.166 99.4343 643.559 98.761C643.951 98.0798 644.503 97.5428 645.214 97.1502C645.925 96.7576 646.732 96.5509 647.636 96.5299C648.54 96.5089 649.356 96.6781 650.085 97.0373C650.813 97.3965 651.389 97.9073 651.813 98.5696C652.236 99.224 652.457 99.9711 652.477 100.811C652.496 101.651 652.31 102.411 651.917 103.092C651.525 103.766 650.973 104.299 650.262 104.691C649.551 105.084 648.744 105.291 647.84 105.312ZM647.787 103.02C648.139 103.012 648.453 102.921 648.729 102.746C649.012 102.564 649.235 102.314 649.395 101.999C649.556 101.675 649.631 101.301 649.622 100.877C649.612 100.453 649.519 100.087 649.344 99.7792C649.169 99.4632 648.935 99.2245 648.643 99.0632C648.359 98.8938 648.041 98.8131 647.689 98.8213C647.337 98.8295 647.02 98.9248 646.736 99.1075C646.46 99.2819 646.241 99.5311 646.081 99.8549C645.92 100.171 645.845 100.541 645.855 100.964C645.864 101.388 645.957 101.758 646.132 102.074C646.308 102.382 646.537 102.621 646.821 102.79C647.113 102.952 647.435 103.028 647.787 103.02ZM662.884 96.3683L663.079 104.766L660.752 104.82L657.472 101.079L657.561 104.894L654.801 104.958L654.607 96.5603L656.934 96.5063L660.214 100.247L660.125 96.4323L662.884 96.3683Z" fill="white" /><defs><linearGradient id="paint0_linear_303_13526" x1="-29717.1" y1="-440.213" x2="-32784.1" y2="101824" gradientUnits="userSpaceOnUse"><stop stop-color="#CB10DC" /><stop offset="1" stop-color="#6013A7" /></linearGradient><radialGradient id="paint1_radial_303_13526" cx="0" cy="0" r="1" gradientUnits="userSpaceOnUse" gradientTransform="translate(129.363 -107.827) rotate(81.7178) scale(351.279 186.408)"><stop stop-color="#DA13EC" /><stop offset="1" stop-color="#B000B8" /></radialGradient><radialGradient id="paint2_radial_303_13526" cx="0" cy="0" r="1" gradientUnits="userSpaceOnUse" gradientTransform="translate(93.1486 321.526) rotate(-32.4712) scale(232.187 250.402)"><stop stop-color="#A706C6" /><stop offset="1" stop-color="#6A01AE" /></radialGradient><linearGradient id="paint3_linear_303_13526" x1="-20.2685" y1="-17.9067" x2="113.22" y2="128.612" gradientUnits="userSpaceOnUse"><stop stop-color="#E102E0" /><stop offset="1" stop-color="#6909A9" /></linearGradient><radialGradient id="paint4_radial_303_13526" cx="0" cy="0" r="1" gradientUnits="userSpaceOnUse" gradientTransform="translate(72.6243 287.887) rotate(-71.7447) scale(161.227 233.037)"><stop stop-color="#A706C6" /><stop offset="1" stop-color="#6A01AE" /></radialGradient><linearGradient id="paint5_linear_303_13526" x1="112.19" y1="153.014" x2="157.029" y2="153.014" gradientUnits="userSpaceOnUse"><stop stop-color="#88D4FF" /><stop offset="1" stop-color="#4DB7F9" /></linearGradient><linearGradient id="paint6_linear_303_13526" x1="98.8743" y1="41.071" x2="157.217" y2="138.176" gradientUnits="userSpaceOnUse"><stop stop-color="#289DFD" /><stop offset="1" stop-color="#0B3DF3" /></linearGradient><linearGradient id="paint7_linear_303_13526" x1="98.8743" y1="41.071" x2="157.217" y2="138.176" gradientUnits="userSpaceOnUse"><stop stop-color="#3086CD" /><stop offset="1" stop-color="#2440A4" /></linearGradient><linearGradient id="paint8_linear_303_13526" x1="98.4737" y1="53.592" x2="123.356" y2="150.864" gradientUnits="userSpaceOnUse"><stop stop-color="#C9EEF2" /><stop offset="1" stop-color="#1FC5E4" /></linearGradient><linearGradient id="paint9_linear_303_13526" x1="109.31" y1="60.7566" x2="167.944" y2="120.902" gradientUnits="userSpaceOnUse"><stop stop-color="white" stop-opacity="0.69" /><stop offset="1" stop-color="white" stop-opacity="0" /></linearGradient><linearGradient id="paint10_linear_303_13526" x1="107.548" y1="46.8687" x2="142.185" y2="116.549" gradientUnits="userSpaceOnUse"><stop stop-color="#0065EA" /><stop offset="1" stop-color="#004DB2" /></linearGradient><linearGradient id="paint11_linear_303_13526" x1="117.054" y1="99.7655" x2="121.583" y2="66.268" gradientUnits="userSpaceOnUse"><stop stop-color="#0159CC" /><stop offset="1" stop-color="white" /></linearGradient><linearGradient id="paint12_linear_303_13526" x1="100677" y1="-18167.3" x2="110417" y2="110495" gradientUnits="userSpaceOnUse"><stop stop-color="#CB10DC" /><stop offset="1" stop-color="#6013A7" /></linearGradient><radialGradient id="paint13_radial_303_13526" cx="0" cy="0" r="1" gradientUnits="userSpaceOnUse" gradientTransform="translate(363.795 282.236) rotate(-32.3764) scale(177.166 179.342)"><stop stop-color="#A706C6" /><stop offset="1" stop-color="#6A01AE" /></radialGradient><radialGradient id="paint14_radial_303_13526" cx="0" cy="0" r="1" gradientUnits="userSpaceOnUse" gradientTransform="translate(370.312 -71.1347) rotate(74.5493) scale(258.786 247.378)"><stop stop-color="#DA13EC" /><stop offset="1" stop-color="#B000B8" /></radialGradient><linearGradient id="paint15_linear_303_13526" x1="239.901" y1="6.09133" x2="302.658" y2="17.6377" gradientUnits="userSpaceOnUse"><stop stop-color="#E102E0" /><stop offset="1" stop-color="#6909A9" /></linearGradient><linearGradient id="paint16_linear_303_13526" x1="494.958" y1="-16.1973" x2="415.984" y2="9.92744" gradientUnits="userSpaceOnUse"><stop stop-color="#E102E0" /><stop offset="1" stop-color="#6909A9" /></linearGradient><radialGradient id="paint17_radial_303_13526" cx="0" cy="0" r="1" gradientUnits="userSpaceOnUse" gradientTransform="translate(330.369 287.3) rotate(-91.2734) scale(143.897 299.606)"><stop stop-color="#A706C6" /><stop offset="1" stop-color="#6A01AE" /></radialGradient><radialGradient id="paint18_radial_303_13526" cx="0" cy="0" r="1" gradientUnits="userSpaceOnUse" gradientTransform="translate(296.31 -10.089) scale(391.376 391.376)"><stop stop-color="#FF6BCB" /><stop offset="1" stop-color="#6D65FF" /></radialGradient><linearGradient id="paint19_linear_303_13526" x1="165854" y1="-440.214" x2="168921" y2="101824" gradientUnits="userSpaceOnUse"><stop stop-color="#CB10DC" /><stop offset="1" stop-color="#6013A7" /></linearGradient><radialGradient id="paint20_radial_303_13526" cx="0" cy="0" r="1" gradientUnits="userSpaceOnUse" gradientTransform="translate(612.645 -107.827) rotate(81.7195) scale(351.277 186.37)"><stop stop-color="#DA13EC" /><stop offset="1" stop-color="#B000B8" /></radialGradient><radialGradient id="paint21_radial_303_13526" cx="0" cy="0" r="1" gradientUnits="userSpaceOnUse" gradientTransform="translate(603.832 247.217) rotate(-122.829) scale(158.548 172.947)"><stop stop-color="#A706C6" /><stop offset="1" stop-color="#6A01AE" /></radialGradient><linearGradient id="paint22_linear_303_13526" x1="760.947" y1="-22.3899" x2="646.559" y2="140.248" gradientUnits="userSpaceOnUse"><stop stop-color="#E102E0" /><stop offset="1" stop-color="#6909A9" /></linearGradient><radialGradient id="paint23_radial_303_13526" cx="0" cy="0" r="1" gradientUnits="userSpaceOnUse" gradientTransform="translate(615.892 271.922) rotate(-84.4328) scale(138.31 193.644)"><stop stop-color="#A706C6" /><stop offset="1" stop-color="#6A01AE" /></radialGradient><radialGradient id="paint24_radial_303_13526" cx="0" cy="0" r="1" gradientUnits="userSpaceOnUse" gradientTransform="translate(553.69 -19.1985) scale(362.287 407.558)"><stop stop-color="#FF6BCB" /><stop offset="1" stop-color="#6D65FF" /></radialGradient></defs></svg>