<svg width="496" height="370" viewBox="0 0 496 370" fill="none" xmlns="http://www.w3.org/2000/svg"><path d="M486.482 79.0078C486.482 79.0078 485.381 79.1739 483.135 79.4361C421.642 86.3667 318.399 79.1739 256.495 72.9861C261.538 55.5066 270.776 15.6358 261.258 0.280029C311.075 6.71249 399.347 12.7779 456.548 12.1137C456.548 12.0962 484.28 33.2639 486.482 79.0078Z" fill="url(#paint0_linear_303_13486)" /><path d="M256.53 72.9687C241.087 70.5128 218.547 61.607 205.402 55.2707C210.419 38.0883 219.29 20.3029 233.807 9.51803C248.201 -1.10952 261.258 0.262627 261.258 0.262627C270.793 15.6446 261.503 55.6203 256.53 72.9687Z" fill="url(#paint1_linear_303_13486)" /><path d="M495.396 85.4928H495.309C390.589 94.0927 360.533 87.1358 237.652 72.7415L186.288 51.5738L176.622 47.5972C177.155 47.6758 187.617 49.415 206.398 51.967C206.162 52.6924 205.804 53.7937 205.358 55.3056C218.564 61.6594 241.078 70.5565 256.486 73.0037C318.311 79.1827 421.519 86.4017 483.125 79.4536C485.372 79.1914 486.473 79.0253 486.473 79.0253C489.63 80.9005 492.606 83.0657 495.361 85.4928H495.396Z" fill="#8B34F6" /><path d="M123.134 257.343C118.441 275.827 113.879 293.665 107.954 316.869C88.7261 289.059 50.9965 258.68 21.8145 257.937C30.1697 256.451 69.4112 254.756 123.134 257.343Z" fill="url(#paint2_linear_303_13486)" /><path d="M107.953 316.86C74.3925 268.363 37.1611 257.5 21.8228 257.928L0.454102 317.026C27.827 355.342 81.3231 414.597 125.704 432.33C189.661 260.209 203.479 203.313 237.651 72.7414L176.604 47.5796C153.599 137.661 132.385 221.009 107.953 316.86Z" fill="url(#paint3_linear_303_13486)" /><path d="M411.948 341.48C394.346 396.637 375.391 434.017 375.391 434.017H307.046L309.283 428.721L401.794 341.498C412.972 341.472 411.118 341.48 411.948 341.48Z" fill="url(#paint4_linear_303_13486)" /><path d="M375.531 433.842L375.399 434.017C375.412 433.984 375.426 433.952 375.443 433.921C376.422 432.278 406.408 365.366 409.948 341.48H416.555C416.468 341.559 388.422 415.095 375.531 433.842Z" fill="#2703B1" /><path d="M467.709 202.789C467.709 202.789 430.836 314.291 416.555 341.472H401.802L309.292 428.694L307.054 433.991H233.64L234.654 430.084C234.654 430.084 219.246 382.068 176.972 328.965C170.26 328.528 162.813 328.808 162.813 328.808L208.26 184.925L242.52 185.563L352.694 99.3889V86.0171L401.75 88.9711L401.225 100.219C401.225 100.219 443.421 166.493 448.805 202.789C459.118 202.308 467.709 202.789 467.709 202.789Z" fill="url(#paint5_linear_303_13486)" /><path d="M495.186 89.6091C492.302 131.56 467.743 202.702 467.708 202.789H448.804C443.473 173.948 416.17 124.192 401.312 100.219V93.2274C416.161 94.4859 493.998 89.6091 495.186 89.6091Z" fill="url(#paint6_linear_303_13486)" /><path d="M495.396 85.4927C495.204 86.8648 495.003 88.2457 494.793 89.6266C481.762 90.4044 414.282 94.3198 401.277 93.1837L401.129 88.8138C421.641 90.2733 481.797 86.9522 495.317 85.5364H495.405L495.396 85.4927Z" fill="#992CF3" /><path d="M352.738 86.0172V89.5917L236.543 76.6044L237.653 72.7415C237.653 72.7415 336.229 83.3952 352.738 86.0172Z" fill="#992CF3" /><path d="M352.729 89.5918V99.389L242.547 185.563L208.287 184.925L236.534 76.6045L352.729 89.5918Z" fill="url(#paint7_linear_303_13486)" /><path d="M234.681 430.084L233.684 433.921H229.21L230.276 429.437C225.513 417.272 218.783 403.874 211.59 390.93C193.753 358.803 173.074 329.481 172.559 328.825H176.928L177.042 328.974L177.138 329.105C192.581 348.967 206.255 370.143 218.005 392.389C223.135 402.116 227.739 412.111 231.797 422.332C231.834 422.442 231.878 422.55 231.928 422.655C232.802 424.998 233.676 427.366 234.55 429.734L234.681 430.084Z" fill="#2703B1" /><path d="M230.311 429.429L229.244 433.912C174.341 433.912 139.164 434.27 125.766 432.339C125.844 432.077 161.896 331.718 162.91 328.816H172.593C175.451 332.487 214.378 388.824 230.311 429.429Z" fill="url(#paint8_linear_303_13486)" /><path d="M352.737 86.0171L348.743 97.0117L241.707 178.073L208.295 184.925L242.555 185.563L352.728 99.3889L352.737 86.0171Z" fill="#A32EF6" /><path d="M377.759 265.322C386.84 234.139 371.895 209.082 333.44 207.849C294.793 206.573 266.869 218.975 262.735 259.493C258.724 298.874 275.845 317.979 315.348 316.196C354.852 314.413 368.879 295.833 377.759 265.322Z" fill="url(#paint9_linear_303_13486)" /><path d="M342.241 282.548C312.587 307.561 318.136 306.976 297.432 283.929C291.751 276.789 300.718 267.324 307.352 270.776C311.442 272.873 314.422 281.176 320.723 281.377C325.784 281.578 328.86 278.196 337.067 271.545C344.801 265.348 350.29 275.705 342.241 282.548ZM367.097 252.693C366.677 250.744 366.502 250.456 355.429 236.149C349.669 228.72 343.045 235.677 330.757 244.487C313.906 224.787 318.434 225.364 287.53 246.234C277.601 253.008 284.427 264.833 293.604 258.54C310.699 246.54 310.804 244.495 323.074 258.872C327.567 264.116 331.456 259.519 340.134 252.903C348.612 246.532 352.449 253.987 356.146 258.715C361.538 266.074 368.18 257.771 367.097 252.693Z" fill="url(#paint10_linear_303_13486)" /><path d="M110.305 327.069L108.496 333.073L108.356 333.536L108.05 334.559V334.602L107.657 334.358C45.3689 296.051 14.2903 263.268 14.1592 263.181H19.7526C19.7526 263.181 39.9065 279.253 64.8498 297.047C79.3928 307.404 95.5613 318.329 110.305 327.069Z" fill="#4292E7" /><path d="M215.61 63.6434C208.016 116.624 150.237 307.238 113.18 409.799C95.5086 395.143 28.8505 338.133 0.4375 302.003C2.7448 291.157 8.01487 273.817 14.1327 263.172C37.7301 287.329 81.4289 318.608 108.015 334.585C108.409 333.798 180.345 95.596 186.271 51.5825L215.61 63.6434Z" fill="url(#paint11_linear_303_13486)" /><path d="M122.41 413.452L112.682 410.253C159.745 280.03 209.641 102.412 215.112 64.0972L225.941 67.9951C202.204 160.977 156.722 323.598 122.41 413.452Z" fill="url(#paint12_linear_303_13486)" /><defs><linearGradient id="paint0_linear_303_13486" x1="401.409" y1="74.9675" x2="400.413" y2="9.26078" gradientUnits="userSpaceOnUse"><stop stop-color="#551BDF" /><stop offset="1" stop-color="#9F2DF5" /></linearGradient><linearGradient id="paint1_linear_303_13486" x1="222.208" y1="61.0298" x2="242.94" y2="8.17488" gradientUnits="userSpaceOnUse"><stop stop-color="#7E2EF5" /><stop offset="1" stop-color="#B345F7" /></linearGradient><linearGradient id="paint2_linear_303_13486" x1="59.3662" y1="256.002" x2="63.8455" y2="316.867" gradientUnits="userSpaceOnUse"><stop stop-color="#9020EC" /><stop offset="0.902151" stop-color="#4E0AC5" /></linearGradient><linearGradient id="paint3_linear_303_13486" x1="167.432" y1="67.3876" x2="119.053" y2="432.33" gradientUnits="userSpaceOnUse"><stop stop-color="#8F1BE9" /><stop offset="1" stop-color="#7314FF" /></linearGradient><linearGradient id="paint4_linear_303_13486" x1="327.763" y1="387.748" x2="348.346" y2="441.728" gradientUnits="userSpaceOnUse"><stop stop-color="#3B07A1" /><stop offset="1" stop-color="#600FCE" /></linearGradient><linearGradient id="paint5_linear_303_13486" x1="186.902" y1="239.533" x2="451.64" y2="322.014" gradientUnits="userSpaceOnUse"><stop stop-color="#7F17DC" /><stop offset="1" stop-color="#520CC6" /></linearGradient><linearGradient id="paint6_linear_303_13486" x1="486.543" y1="136.924" x2="423.544" y2="136.924" gradientUnits="userSpaceOnUse"><stop stop-color="#7414D8" /><stop offset="1" stop-color="#570ECA" /></linearGradient><linearGradient id="paint7_linear_303_13486" x1="232.335" y1="123.662" x2="303.071" y2="142.451" gradientUnits="userSpaceOnUse"><stop stop-color="#590CCB" /><stop offset="1" stop-color="#6E13D4" /></linearGradient><linearGradient id="paint8_linear_303_13486" x1="167.125" y1="328.816" x2="178.038" y2="433.938" gradientUnits="userSpaceOnUse"><stop stop-color="#3305B7" /><stop offset="1" stop-color="#6510D1" /></linearGradient><linearGradient id="paint9_linear_303_13486" x1="358.516" y1="302.059" x2="309.293" y2="207.761" gradientUnits="userSpaceOnUse"><stop stop-color="#4308C0" /><stop offset="1" stop-color="#560DCA" /></linearGradient><linearGradient id="paint10_linear_303_13486" x1="335.9" y1="292.747" x2="298.651" y2="239.533" gradientUnits="userSpaceOnUse"><stop stop-color="#3067F2" /><stop offset="1" stop-color="#4293E5" /></linearGradient><linearGradient id="paint11_linear_303_13486" x1="89.2594" y1="409.799" x2="164.252" y2="51.5825" gradientUnits="userSpaceOnUse"><stop stop-color="#3573EE" /><stop offset="1" stop-color="#4293E6" /></linearGradient><linearGradient id="paint12_linear_303_13486" x1="160.251" y1="413.452" x2="284.324" y2="97.5103" gradientUnits="userSpaceOnUse"><stop stop-color="#2D5EF5" /><stop offset="1" stop-color="#3B83E9" /></linearGradient></defs></svg>