<svg width="492" height="169" viewBox="0 0 492 169" fill="none" xmlns="http://www.w3.org/2000/svg">
<path opacity="0.4" d="M457.008 95.8454C457.008 95.8454 446.462 72.6966 457.807 52.3652C463.479 42.1995 474.253 34.3716 485.185 30.8037C485.185 30.8037 445.705 47.7606 457.008 95.8454Z" fill="white"/>
<path d="M7.83415 22.1985L6.8954 57.2874C10.1363 60.7364 9.55468 59.0508 9.43486 65.1085C4.06585 69.4995 5.22243 68.0594 3.62882 71.6888C4.339 118.536 1.10891 110.741 7.39484 117.025C12.9951 118.834 12.7762 117.601 9.83023 122.056C7.35497 153.036 5.42601 147.675 16.2242 154.412C4.33462 160.133 6.12981 157.272 9.49867 168.788C176.446 138.445 372.177 139.119 482.863 149.267C479.506 105.622 477.226 100.12 477.226 100.12C472.978 97.4844 472.834 98.2658 477.254 96.2384C475.524 77.6775 475.197 82.8117 478.769 71.9688C478.769 71.9688 474.57 52.1031 472.682 52.484C470.795 52.8648 480.101 52.052 480.101 52.052C478.522 42.1774 482.655 41.7128 487.201 38.439L481.623 0.154514L7.83415 22.1985Z" fill="#DE993E"/>
<path d="M478.549 70.7095C478.549 70.7095 476.041 59.111 474.108 53.653C473.377 52.5743 473.008 51.956 472.449 50.8709C463.258 59.4298 458.577 63.7125 449.375 71.9558C449.344 75.749 449.241 77.6489 449.21 81.4421C458.055 86.8002 462.477 89.4792 471.501 94.9887C473.757 95.2205 474.972 95.3332 477.222 95.4072C476.641 89.1088 476.351 85.9597 475.77 79.6613C476.671 75.9936 477.297 74.2323 478.549 70.7095Z" fill="#BC905C"/>
<path d="M66.8424 144.054C63.6521 141.961 62.0569 140.915 58.8667 138.822C50.2886 135.982 45.9132 134.565 37.3352 131.725C27.9664 126.228 23.1928 123.404 13.8123 117.592C12.1445 119.234 11.3107 120.055 9.81557 121.691C9.00719 132.465 8.52256 138.014 7.71417 148.788C11.083 151.032 12.8508 152.072 16.2196 154.317C35.8205 151.373 45.4541 150.066 65.2394 147.432C65.7044 145.993 66.0262 145.349 66.8424 144.054Z" fill="#BC905C"/>
<path d="M480.524 3.16925C481.369 16.5678 481.789 23.1882 482.635 36.5868C482.635 36.5868 479.943 38.5833 478.585 39.2659C477.227 39.9486 478.403 48.2788 478.403 48.2788C425.979 51.9724 373.37 55.3569 320.929 58.5772C370.983 56.236 426.679 56.8443 471.072 51.0803C472.793 50.8581 473.713 70.8899 473.713 70.8899C472.634 74.4062 472.181 76.1612 471.28 79.8288C464.564 80.5533 461.123 80.9977 454.407 81.7222C461.325 81.7802 464.784 81.8091 471.708 82.0249C471.557 87.2445 471.484 89.9333 471.333 95.153C470.666 95.8098 470.338 96.2961 469.499 96.9594C439.95 97.4297 410.581 98.0513 381.044 98.8371C412.503 98.6115 444.153 98.8529 475.642 99.4163C476.258 106.661 476.566 110.284 477.182 117.529C474.086 117.96 472.365 118.183 469.275 118.772C472.919 119.11 474.657 119.361 478.128 119.706C478.642 128.851 478.985 133.42 479.493 142.407C477.975 143.412 477.302 143.911 475.783 144.915C311.892 134.075 167.92 140.799 19.4899 163.201C16.537 162.837 14.9772 162.737 12.0302 162.531C11.5966 160.177 11.3828 159.079 10.9492 156.725C12.9916 155.859 14.0099 155.347 16.0524 154.481C19.1544 154.207 20.881 154.143 23.9889 154.027C40.3151 151.364 48.5674 150.108 65.0781 147.754C47.6747 149.351 38.8926 150.311 21.6737 152.217C18.1675 150.926 16.59 150.353 13.0839 149.062C12.3207 137.872 11.942 132.356 11.1788 121.167C12.1676 119.866 12.8289 119.051 13.8177 117.75C46.3386 113.535 78.8772 109.793 111.612 106.676C77.4724 109.213 43.5172 112.06 9.56795 115.065C8.14547 114.012 7.60394 113.4 6.17558 112.189C5.57128 105.26 5.26913 101.795 4.66483 94.8653C8.27303 94.2567 9.98786 93.8767 13.4234 93.2745C9.619 93.2584 7.8924 93.3229 4.08799 93.3068C3.91339 83.9912 3.91536 79.4091 3.74664 70.2513C4.22342 69.1275 4.5452 68.4835 5.02197 67.3597C46.6448 66.123 88.2617 64.7285 130.051 63.3276C90.471 63.6981 51.0574 63.9044 11.4653 63.9593C11.3712 61.4348 11.3241 60.1725 11.2299 57.648C13.4509 56.9332 14.4751 56.5789 16.702 56.0219C14.4457 55.79 13.2312 55.6773 11.1475 55.4391C11.2005 42.955 11.3104 36.6308 11.3634 24.1467C68.0017 22.1919 475.677 3.03403 480.524 3.16925Z" fill="#FFD261"/>
<mask id="mask0" mask-type="alpha" maskUnits="userSpaceOnUse" x="1" y="4" width="486" height="162">
<path d="M480.582 4.74689C481.428 18.1455 481.848 24.7659 482.693 38.1645C482.693 38.1645 480.001 40.1609 478.644 40.8435C477.286 41.5262 478.461 49.8564 478.461 49.8564C426.037 53.5501 373.429 56.9346 320.987 60.1548C371.041 57.8136 426.738 58.422 471.131 52.6579C472.852 52.4357 473.772 72.4676 473.772 72.4676C472.693 75.9839 472.239 77.7388 471.339 81.4064C464.623 82.131 461.181 82.5753 454.465 83.2999C461.383 83.3578 464.843 83.3868 471.767 83.6025C471.615 88.8222 471.543 91.5109 471.392 96.7306C470.725 97.3875 470.397 97.8737 469.557 98.537C440.009 99.0073 410.639 99.6289 381.102 100.415C412.562 100.189 444.212 100.431 475.7 100.994C476.317 108.239 476.625 111.862 477.241 119.107C474.145 119.538 472.424 119.76 469.334 120.35C472.977 120.688 474.715 120.939 478.186 121.283C478.7 130.428 479.044 134.998 479.552 143.985C478.033 144.989 477.36 145.488 475.842 146.493C312.8 133.608 168.932 140.789 19.5485 164.779C16.5956 164.415 15.0358 164.315 12.0888 164.109C11.6552 161.755 11.4414 160.657 11.0077 158.303C13.0502 157.437 14.0685 156.925 16.111 156.059C19.213 155.785 20.9396 155.721 24.0475 155.605C40.3737 152.942 48.626 151.686 65.1367 149.332C47.7333 150.929 38.9512 151.889 21.7323 153.795C18.2261 152.504 16.6486 151.931 13.1425 150.639C12.3793 139.45 12.0006 133.934 11.2374 122.744C12.2262 121.443 12.8875 120.629 13.8763 119.328C46.3972 115.112 78.9358 111.371 111.671 108.254C77.531 110.791 43.5758 113.638 9.62654 116.642C8.20406 115.589 7.66254 114.977 6.23417 113.767C5.62987 106.837 5.32772 103.372 4.72343 96.4429C8.33163 95.8343 10.0465 95.4543 13.482 94.8522C9.67759 94.8361 7.95099 94.9005 4.14659 94.8844C3.97198 85.5688 3.97395 80.9867 3.80523 71.8289C4.28201 70.7051 4.60379 70.0611 5.08057 68.9373C46.7034 67.7006 88.3203 66.3062 130.11 64.9053C90.5296 65.2757 51.116 65.482 11.5239 65.5369C11.4298 63.0124 11.3827 61.7502 11.2885 59.2256C13.5095 58.5108 14.5337 58.1566 16.7606 57.5995C14.5043 57.3677 13.2898 57.255 11.2061 57.0167C11.2591 44.5326 11.369 38.2084 11.422 25.7243C68.0603 23.7695 475.736 4.61167 480.582 4.74689Z" fill="url(#paint0_linear)"/>
</mask>
<g mask="url(#mask0)">
<g opacity="0.1">
<path d="M-5.9666 148.192C48.904 131.293 106.337 122.831 164.912 117.169C238.722 112.046 313.917 111.611 387.253 116.933C386.586 117.59 386.252 117.919 385.591 118.733C268.263 116 130.708 117.971 21.2509 154.761C21.2509 154.761 -8.5781 156.98 -5.9666 148.192Z" fill="#C17C2B"/>
<path d="M152.325 159.825C217.901 142.527 289.154 129.125 358.634 128.429C388.552 128.577 418.302 128.889 448.058 129.359C392.576 129.849 333.087 129.54 278.648 139.471C262.053 144.198 251.34 149.022 251.34 149.022C218.266 152.309 185.435 157.484 152.325 159.825Z" fill="#C17C2B"/>
<path d="M313.34 151.765C313.34 151.765 357.08 142.391 384.194 141.538C419.756 140.053 455.318 138.568 491.07 137.551C492.573 145.395 493.411 149.314 494.914 157.158C434.611 153.561 373.644 155.361 313.34 151.765Z" fill="#C17C2B"/>
<path d="M207.667 72.1241C180.428 74.2462 158.111 78.5547 157.884 81.7232C157.656 84.8918 179.637 85.4938 206.876 83.3717C233.77 81.2624 255.747 77.1246 255.974 73.9561C256.208 70.9453 234.566 70.1726 207.667 72.1241ZM224.686 78.7573C213.308 79.6557 203.966 79.5302 204.092 78.2615C204.223 77.1506 213.494 75.3827 225.045 74.4778C236.423 73.5794 245.597 73.8692 245.466 74.9801C245.34 76.2488 236.064 77.8588 224.686 78.7573Z" fill="#C17C2B"/>
<path d="M490.851 66.7743C452.628 66.4621 414.256 66.7875 376.171 65.5222C328.007 62.8949 279.331 60.4447 230.956 61.4592C189.893 63.781 147.148 72.0117 109.021 83.546C92.1397 89.8638 95.0415 98.1296 123.215 97.8687C170.72 96.7286 220.887 92.8031 266.883 83.6612C268.253 83.2941 292.92 81.742 301.792 78.5669C310.492 75.3984 322.639 71.9432 326.247 71.3346C355.784 70.5488 385.2 71.1895 414.468 72.4677C443.051 73.9295 488.669 73.1758 488.669 73.1758C489.783 70.6062 490.082 69.331 490.851 66.7743ZM309.893 68.6267C305.791 69.8857 291.448 70.1047 284.381 70.6844C277.314 71.264 281.402 74.2715 283.182 75.6271C284.956 76.825 278.942 77.8393 273.625 78.9857C268.308 80.132 258.853 81.5908 250.624 83.4777C245.825 84.6048 232.226 86.2181 211.173 87.3194C189.953 88.585 126.242 90.9617 133.8 84.9917C141.536 79.173 170.206 73.6795 199.411 68.64C230.884 64.1479 263.379 63.8837 295.231 64.9076C310.133 65.7737 314.002 67.5254 309.893 68.6267Z" fill="#C17C2B"/>
<path d="M516.73 125.533C472.223 118.978 427.084 114.025 381.706 111.926C345.52 110.59 328.178 109.183 328.178 109.183C373.997 109.212 419.703 110.825 465.368 111.333C479.704 110.957 517.55 115.075 525.283 118.42C533.366 121.911 516.73 125.533 516.73 125.533Z" fill="#C17C2B"/>
<path d="M39.5979 173.827C84.5778 160.615 131.367 149.547 178.636 142.096C216.29 136.425 233.807 133.244 233.807 133.244C185.413 138.367 137.614 145.522 89.6419 152.684C74.3222 154.519 35.2736 164.508 27.9964 168.729C20.9036 173.26 39.5979 173.827 39.5979 173.827Z" fill="#C17C2B"/>
<path d="M13.2026 124.409C46.5927 120.319 79.5904 114.98 113.183 111.673C166.744 106.041 220.134 100.415 273.909 95.8812C218.998 97.7716 163.943 100.457 109.298 104.866C76.8318 105.919 38.8642 107.809 13.2026 124.409Z" fill="#C17C2B"/>
<path d="M15.7337 108.83C15.7337 108.83 43.9185 94.9807 71.2969 87.3233C98.3299 79.6788 120.23 73.4898 123.856 73.3545C127.482 73.2193 60.4448 83.7781 43.9087 90.083C27.3726 96.3879 3.20211 106.612 3.20211 106.612C3.20211 106.612 9.37469 109.857 15.7337 108.83Z" fill="#C17C2B"/>
<path d="M489.585 32.8512C469.243 29.818 433.622 29.7248 431.038 29.9792C428.46 30.3914 352.187 29.7606 352.187 29.7606C297.762 35.4249 242.564 38.906 188.555 46.4508C168.983 50.1829 144.632 50.9333 105.69 49.858C64.8477 48.8535 23.8684 48.8022 -16.9558 48.271C-16.9558 48.271 -26.4659 52.8918 -20.8388 64.69C-15.2116 76.4882 -14.317 86.567 -3.64932 89.8031C25.7421 80.4906 55.6869 72.1054 86.3929 65.5879C116.122 60.6869 146.802 58.1204 177.19 56.9868C216.235 56.1623 255.423 54.5424 294.444 53.0868C340.234 52.3267 386.346 50.9225 432.052 52.5356C459.605 54.1938 502.847 54.6347 502.847 54.6347C504.187 53.4787 504.854 52.8218 506.367 51.6594C508.768 46.5137 509.877 43.7864 512.272 38.4829C512.1 38.4894 509.755 35.8908 489.585 32.8512ZM371.125 46.1183C328.235 45.8222 285.075 47.5902 242.238 48.7142C271.847 45.2397 301.445 41.4496 331.072 38.4483C351.065 36.7545 381.392 38.6252 410.446 38.8054C439.155 38.9985 495.98 46.6748 495.98 46.6748C454.31 46.6492 412.652 46.9392 371.125 46.1183Z" fill="#C17C2B"/>
<path d="M207.361 105.632C297.301 97.2207 396.304 86.1014 486.171 94.2831C484.319 95.6162 483.307 96.286 481.454 97.6191C441.815 96.4118 401.491 95.388 361.636 97.6647C310.225 100.689 258.76 102.292 207.361 105.632Z" fill="#C17C2B"/>
<path d="M319.804 88.6392C377.835 86.9484 436.967 86.9545 494.675 90.4899C498.045 88.1521 499.731 86.9832 503.274 84.639C503.274 84.639 462.903 82.353 441.517 83.7828C400.96 85.7697 360.367 86.81 319.804 88.6392Z" fill="#C17C2B"/>
</g>
<g opacity="0.1">
<path d="M474.001 78.621C474.001 78.621 473.248 58.4249 471.36 58.8113C470.676 58.9949 451.522 60.0254 427.016 61.2555C429.642 62.1056 435.726 62.9847 439.191 63.1714C445.948 63.5513 459.378 66.6844 459.508 70.1556C459.637 73.6268 455.907 80.244 455.387 84.8454C454.867 89.4469 450.722 94.1836 453.835 94.2254C456.777 94.2737 464.385 94.3059 455.876 97.9413C447.539 101.57 396.353 106.008 393.246 106.124C423.991 105.293 439.363 104.877 469.781 104.533C470.448 103.876 470.776 103.39 471.615 102.726C471.767 97.5066 471.839 94.8178 471.99 89.5981C465.072 89.5402 461.613 89.5112 454.689 89.2955C461.405 88.571 464.846 88.1266 471.563 87.4021C472.475 84.05 472.928 82.2951 474.001 78.621Z" fill="#D7A456"/>
<path d="M100.318 160.817C140.96 156.457 181.994 153.347 223.069 151.34C308.161 147.376 391.686 147.736 476.244 152.64C477.762 151.635 478.435 151.136 479.954 150.132C479.44 140.987 479.097 136.417 478.589 127.43C474.945 127.092 473.207 126.841 469.736 126.497C472.832 126.065 474.553 125.843 477.643 125.254C477.027 118.009 476.719 114.386 476.103 107.141C445.477 106.545 430.087 106.487 399.312 106.529C414.381 107.231 452.323 109.292 455.531 111.858C459.459 115.188 464.548 131.114 462.052 133.735C450.926 146 360.723 142.729 318.968 145.077C245.813 149.228 172.814 152.899 100.318 160.817Z" fill="#D7A456"/>
<path d="M468.541 11.042C455.115 12.6489 448.232 13.5377 434.8 14.9867C444.278 14.1592 451.53 13.8886 454.31 14.2589C465.955 15.8786 468.712 15.6177 466.995 20.5798C465.278 25.5419 463.667 33.3441 463.803 36.9731C463.938 40.602 464.199 42.9623 462.28 47.1419C461.798 48.108 461.815 48.5813 461.994 48.7326C461.13 48.7649 459.243 49.1513 454.634 50.7452C441.838 55.3306 443.17 58.5989 430.411 59.5489C449.725 58.1964 459.388 57.6779 478.697 56.1676C478.697 56.1676 477.521 47.8374 478.879 47.1548C480.237 46.4721 482.929 44.4757 482.929 44.4757C482.083 31.0771 481.663 24.4567 480.818 11.0581C475.971 10.9229 473.554 11.013 468.541 11.042Z" fill="#D7A456"/>
<path d="M68.1248 164.546C68.2916 164.382 68.2974 164.54 68.1248 164.546V164.546Z" fill="#D7A456"/>
</g>
<path d="M13.8062 117.434C12.0384 116.394 11.1515 115.795 9.55641 114.749C42.2912 111.632 75.0436 108.988 107.808 106.66C76.2816 109.732 44.9517 113.428 13.8062 117.434Z" fill="#BC905C"/>
<path d="M4.83752 67.0504C45.2517 65.8588 85.8327 64.503 126.241 63.1536C87.8693 63.479 49.4917 63.6466 11.1082 63.6564C10.4117 63.5244 9.88783 63.3859 9.19131 63.2539C7.51768 64.7384 6.68381 65.5595 4.83752 67.0504Z" fill="#FFD261"/>
</g>
<path d="M6.16402 111.873C7.59239 113.084 8.12803 113.538 9.55639 114.749C42.2912 111.632 75.0436 108.988 107.808 106.66C75.8774 108.167 43.9648 110.147 12.2366 112.437C12.2366 112.437 9.91546 110.469 8.67741 109.726C7.44524 109.139 5.91487 95.9244 5.91487 95.9244C8.80889 94.7105 10.3452 94.1791 13.2392 92.9652C9.63099 93.5738 7.91616 93.9537 4.48062 94.5559C5.08492 101.485 5.38707 104.95 6.16402 111.873Z" fill="#FFD261"/>
<path d="M461.531 3.87751C467.127 5.56479 469.925 6.40843 475.521 8.0957C475.521 8.0957 478.946 30.4041 478.475 31.6857C478.005 32.9673 476.437 37.2918 475.627 38.744C474.816 40.1963 475.356 45.3902 475.356 45.3902C462.983 47.4318 456.969 48.4461 444.597 50.4877C458.219 49.5055 464.947 49.0965 478.397 48.1208C478.397 48.1208 477.222 39.7905 478.579 39.1079C479.937 38.4252 482.629 36.4288 482.629 36.4288C481.783 23.0302 481.364 16.4098 480.518 3.01124C475.678 3.0338 473.255 2.96619 468.414 2.98875C465.663 3.40737 464.288 3.61668 461.531 3.87751Z" fill="#FFD261"/>
<path d="M6.26805 91.4872C6.26805 91.4872 6.18176 70.6342 6.68797 70.2993C22.9867 62.2653 84.8087 64.8571 123.133 63.2695C124.687 63.2115 85.6603 64.5094 52.331 65.5947C51.813 65.614 51.4677 65.6269 50.9497 65.6462C48.8778 65.7235 46.8059 65.8008 44.9066 65.8716C29.7067 66.2806 22.1096 66.564 6.90968 66.973C5.87961 67.1695 5.54017 67.3401 4.5101 67.5366C4.02743 68.5026 3.87243 68.9824 3.55654 69.7841C3.73115 79.0997 3.72918 83.6818 3.8979 92.8396C7.7023 92.8557 9.4289 92.7913 13.2333 92.8074C10.4531 92.4371 9.05415 92.0153 6.26805 91.4872Z" fill="#FFD261"/>
<path d="M14.895 160.528C14.5203 159.752 14.3359 159.443 13.9611 158.667C14.7891 157.688 15.2894 157.195 16.1233 156.374C16.1233 156.374 18.8741 155.956 21.2913 155.865C23.5359 155.782 65.0724 147.596 65.0724 147.596C48.5618 149.95 40.4821 151.199 23.9832 153.869C20.8812 154.143 19.1546 154.207 16.0468 154.323C14.0043 155.189 12.986 155.701 10.9435 156.567C11.3771 158.921 11.591 160.019 12.0246 162.373C14.9774 162.737 16.5373 162.837 19.4843 163.043C86.9139 153.733 154.104 147.277 222.424 143.306C307.516 139.342 391.041 139.702 475.599 144.606C477.118 143.601 477.791 143.102 479.309 142.098C478.795 132.953 478.452 128.383 477.944 119.396C474.3 119.058 472.562 118.807 469.091 118.463C472.187 118.031 473.908 117.809 476.998 117.22C476.382 109.975 476.074 106.352 475.458 99.1069C443.969 98.5435 412.492 98.2958 380.86 98.5277C411.819 98.7949 442.623 99.5418 473.439 100.604C474.186 106.738 474.477 109.888 475.224 116.022C471.461 117.11 469.579 117.654 465.989 118.736C469.65 119.548 471.567 119.95 475.228 120.762C475.228 120.762 476.37 137.467 476.244 138.736C475.946 140.011 474.159 143.08 474.159 143.08C415.737 138.939 356.546 137.355 297.812 138.756C206.083 140.914 114.518 147.49 24.0637 160.66C20.2593 160.644 18.5268 160.551 14.895 160.528Z" fill="#FFD261"/>
<path d="M16.1155 146.894C15.2855 138.551 14.7813 134.304 13.9455 125.803C13.9455 125.803 14.954 120.393 16.3058 119.553C17.4909 118.877 81.64 109.69 101.782 107.358C72.3281 110.353 43.0583 113.657 13.8121 117.592C12.8232 118.893 12.162 119.708 11.1731 121.009C11.9363 132.198 12.315 137.714 13.0782 148.904C16.4117 150.201 18.1619 150.768 21.668 152.059C39.0596 150.147 47.669 149.193 65.0724 147.596C47.9849 148.392 39.5305 148.865 22.4548 149.976C19.8119 148.653 18.5798 148.066 16.1155 146.894Z" fill="#FFD261"/>
<path d="M471.322 94.8372C471.473 89.6175 471.545 86.9287 471.696 81.7091C464.778 81.6511 461.319 81.6222 454.395 81.4065C461.111 80.6819 464.553 80.2375 471.269 79.513C472.348 75.9967 472.801 74.2418 473.702 70.5741C473.702 70.5741 472.948 50.3781 471.061 50.7645C470.376 50.948 451.223 51.9785 426.717 53.2087C442.964 53.0766 451.085 52.9317 467.506 52.7931C468.961 59.3749 469.782 62.8203 471.243 69.5598C471.243 69.5598 469.43 76.5795 468.591 77.2429C467.751 77.9062 449.031 81.2906 449.031 81.2906C456.836 81.9474 460.825 82.2726 468.808 83.0808C468.808 83.0808 468.714 94.4604 468.375 94.6311C458.204 100.067 410.206 97.275 381.038 98.6791C410.569 97.7355 439.939 97.1139 469.493 96.8014C470.154 95.9867 470.488 95.6583 471.322 94.8372Z" fill="#FFD261"/>
<path d="M243.07 101.955L225.908 65.824C225.77 65.4934 225.688 65.1421 225.666 64.7846C225.598 64.0291 225.828 63.2769 226.306 62.6878C226.553 62.407 226.858 62.1822 227.199 62.0287C227.541 61.8752 227.911 61.7964 228.285 61.7976C228.852 61.7744 229.411 61.9286 229.886 62.2387C230.383 62.5688 230.783 63.0271 231.042 63.5652L247.415 98.9511L259.999 62.0476C260.201 61.4853 260.55 60.9878 261.011 60.6075C261.452 60.2482 261.994 60.0362 262.562 60.0012C262.934 59.9609 263.31 60.0006 263.665 60.1176C264.021 60.2347 264.347 60.4263 264.622 60.6798C265.16 61.2148 265.468 61.9391 265.48 62.6981C265.492 63.0552 265.448 63.4121 265.347 63.755L252.05 101.484C251.292 103.438 250.067 104.448 248.382 104.537L247.035 104.607C245.352 104.687 244.032 103.819 243.07 101.955Z" fill="black"/>
<path d="M274.024 102.059C273.752 101.812 273.533 101.513 273.379 101.179C273.226 100.845 273.143 100.483 273.134 100.116L271.173 62.6999C271.12 61.9504 271.365 61.2103 271.854 60.6398C272.093 60.3573 272.39 60.1291 272.724 59.9707C273.059 59.8122 273.423 59.7271 273.793 59.721L298.521 58.4251C298.871 58.3969 299.222 58.4436 299.552 58.5619C299.882 58.6802 300.183 58.8675 300.435 59.1113C300.7 59.3388 300.916 59.619 301.068 59.9342C301.22 60.2494 301.305 60.5927 301.317 60.9424C301.345 61.2861 301.298 61.6318 301.179 61.9555C301.06 62.2791 300.872 62.5731 300.629 62.817C300.151 63.326 299.493 63.6262 298.795 63.6526L276.907 64.7997L277.621 78.4228L297.301 77.3914C297.65 77.3638 298.001 77.4109 298.331 77.5296C298.66 77.6483 298.961 77.8359 299.212 78.0798C299.476 78.3087 299.69 78.589 299.842 78.9035C299.993 79.2179 300.079 79.56 300.095 79.9088C300.123 80.2525 300.075 80.5982 299.957 80.9219C299.838 81.2456 299.65 81.5395 299.406 81.7835C299.172 82.0381 298.889 82.2438 298.575 82.389C298.261 82.5341 297.921 82.6157 297.575 82.6291L277.896 83.6605L278.613 97.3548L300.501 96.2077C300.851 96.1789 301.202 96.2255 301.532 96.3443C301.862 96.463 302.162 96.6512 302.413 96.8961C302.679 97.1227 302.895 97.4024 303.048 97.7173C303.2 98.0322 303.285 98.3755 303.297 98.725C303.325 99.0689 303.278 99.4148 303.159 99.7385C303.039 100.062 302.851 100.356 302.607 100.6C302.133 101.113 301.474 101.417 300.776 101.445L276.048 102.741C275.681 102.788 275.308 102.751 274.958 102.632C274.607 102.514 274.288 102.318 274.024 102.059Z" fill="black"/>
<path d="M231.236 101.525L214.072 65.3923C213.106 63.5308 211.79 62.6621 210.105 62.7504L208.756 62.8211C207.074 62.9093 205.851 63.911 205.09 65.8732L199.313 82.3144L194.299 82.5771C193.576 82.6198 192.899 82.9455 192.415 83.4835C191.93 84.0216 191.677 84.7289 191.71 85.4522L191.712 85.4889C191.754 86.2119 192.08 86.8891 192.618 87.3738C193.156 87.8584 193.864 88.1113 194.587 88.0777L197.281 87.9365L191.769 103.608C191.667 103.95 191.622 104.308 191.636 104.665C191.646 105.424 191.953 106.149 192.492 106.683C192.767 106.937 193.094 107.129 193.45 107.246C193.805 107.364 194.182 107.404 194.554 107.364C195.119 107.326 195.658 107.114 196.097 106.758C196.559 106.377 196.909 105.879 197.111 105.316L203.16 87.6345L207.948 87.3836C208.673 87.3391 209.351 87.0098 209.834 86.4675C210.317 85.9252 210.566 85.2138 210.527 84.4885L210.524 84.4172C210.482 83.6944 210.157 83.0171 209.619 82.5324C209.081 82.0477 208.374 81.7947 207.651 81.8284L205.069 81.9636L209.723 68.4005L226.096 103.786C226.355 104.325 226.755 104.783 227.254 105.113C227.728 105.423 228.287 105.578 228.852 105.554C229.227 105.555 229.597 105.476 229.939 105.323C230.28 105.169 230.585 104.945 230.832 104.664C231.312 104.075 231.542 103.321 231.472 102.565C231.469 102.205 231.388 101.851 231.236 101.525Z" fill="black"/>
<path d="M185.737 103.91L168.577 67.7771C167.613 65.9155 166.293 65.047 164.61 65.1352L163.264 65.2058C161.579 65.2941 160.357 66.2958 159.595 68.258L153.818 84.6992L148.804 84.9619C148.082 85.0046 147.405 85.3303 146.921 85.8685C146.437 86.4066 146.184 87.1138 146.218 87.8369L146.219 87.8736C146.261 88.5967 146.586 89.2741 147.124 89.7592C147.662 90.2442 148.369 90.4976 149.093 90.4645L151.794 90.3229L146.283 105.994C146.176 106.331 146.125 106.683 146.133 107.036C146.142 107.795 146.449 108.52 146.988 109.054C147.264 109.308 147.59 109.5 147.946 109.617C148.302 109.735 148.678 109.775 149.051 109.735C149.615 109.697 150.154 109.485 150.594 109.129C151.055 108.748 151.405 108.25 151.607 107.687L157.659 90.0054L162.487 89.7523C163.21 89.7096 163.886 89.3839 164.37 88.8458C164.855 88.3077 165.107 87.6004 165.074 86.8773L165.07 86.7999C165.028 86.0771 164.703 85.3998 164.165 84.9151C163.627 84.4304 162.92 84.1774 162.197 84.211L159.613 84.3464L164.23 70.7831L180.611 106.167C180.872 106.705 181.272 107.163 181.77 107.495C182.245 107.803 182.804 107.957 183.37 107.936C183.744 107.937 184.115 107.857 184.456 107.703C184.797 107.549 185.102 107.325 185.35 107.044C185.828 106.455 186.057 105.703 185.989 104.947C185.981 104.587 185.895 104.234 185.737 103.91Z" fill="black"/>
<path d="M342.476 70.5338C342.193 66.6429 340.396 63.0181 337.47 60.4372C334.545 57.8563 330.724 56.5251 326.828 56.7293C322.933 56.9335 319.272 58.6567 316.632 61.5293C313.993 64.4018 312.584 68.1946 312.71 72.0938C312.712 72.1304 312.714 72.1691 312.716 72.2058L312.728 72.436L314.138 99.3459C314.175 99.7741 314.378 100.171 314.702 100.453C315.026 100.735 315.448 100.88 315.877 100.857C316.306 100.835 316.71 100.647 317.003 100.332C317.296 100.018 317.456 99.6022 317.448 99.1724L317.196 94.3625C317.173 93.9238 317.326 93.4939 317.62 93.1674C317.913 92.8409 318.325 92.6446 318.764 92.6216C319.203 92.5986 319.632 92.7508 319.959 93.0448C320.285 93.3387 320.482 93.7504 320.505 94.1891L320.624 96.4708C320.647 96.9095 320.844 97.3212 321.17 97.6151C321.497 97.9091 321.927 98.0613 322.365 98.0384C322.804 98.0154 323.216 97.819 323.51 97.4925C323.804 97.1661 323.956 96.7362 323.933 96.2974L323.813 94.0157C323.791 93.5771 323.943 93.1475 324.237 92.8212C324.531 92.4948 324.942 92.2983 325.381 92.2748C325.819 92.2523 326.249 92.4048 326.575 92.6986C326.902 92.9925 327.098 93.4038 327.122 93.8423L327.154 94.4657C327.177 94.9045 327.374 95.3161 327.7 95.6101C328.027 95.904 328.457 96.0563 328.895 96.0333C329.334 96.0103 329.746 95.8139 330.04 95.4874C330.334 95.161 330.486 94.7311 330.463 94.2923L330.43 93.6689C330.423 93.2392 330.582 92.8234 330.876 92.509C331.169 92.1947 331.573 92.0065 332.002 91.984C332.431 91.9615 332.852 92.1065 333.177 92.3885C333.501 92.6704 333.703 93.0673 333.741 93.4954L333.86 95.7771C333.883 96.2159 334.08 96.6275 334.406 96.9215C334.733 97.2154 335.163 97.3677 335.601 97.3447C336.04 97.3217 336.452 97.1254 336.746 96.7989C337.04 96.4724 337.192 96.0425 337.169 95.6038L337.049 93.3221C337.027 92.8835 337.179 92.4539 337.473 92.1275C337.767 91.8011 338.178 91.6046 338.617 91.5811C339.055 91.5587 339.485 91.7111 339.811 92.005C340.138 92.2988 340.334 92.7101 340.358 93.1487L340.61 97.9586C340.633 98.3973 340.829 98.8089 341.156 99.1029C341.482 99.3969 341.912 99.5491 342.351 99.5261C342.789 99.5031 343.201 99.3068 343.495 98.9803C343.789 98.6538 343.941 98.2239 343.918 97.7852L342.496 70.6451C342.486 70.6068 342.48 70.5704 342.476 70.5338ZM322.228 73.983C320.765 74.0597 319.509 72.765 319.421 71.0843C319.332 69.4035 320.447 67.9846 321.91 67.908C323.373 67.8313 324.629 69.128 324.717 70.8067C324.805 72.4854 323.693 73.9062 322.228 73.983ZM328.061 77.9673C326.733 78.0369 325.616 77.3028 325.564 76.327C325.513 75.3511 326.62 75.8835 327.948 75.8139C329.276 75.7443 330.321 75.0992 330.372 76.075C330.423 77.0508 329.389 77.8977 328.061 77.9673ZM333.207 73.4076C331.746 73.4842 330.487 72.1896 330.399 70.5089C330.311 68.8282 331.428 67.4091 332.888 67.3326C334.349 67.256 335.608 68.5526 335.696 70.2313C335.784 71.91 334.67 73.331 333.207 73.4076Z" fill="black"/>
<path opacity="0.1" d="M321.879 67.2987C320.706 67.3602 318.954 68.7757 319.076 71.1023C319.079 71.9452 319.414 72.753 320.007 73.3522C320.599 73.9514 321.404 74.2941 322.247 74.3068C323.381 74.2473 325.045 73.1265 324.923 70.7959C324.8 68.4653 323.053 67.2372 321.879 67.2987ZM322.266 73.9299C320.608 74.0658 319.523 72.2617 319.452 70.9089C319.424 70.559 319.466 70.2071 319.575 69.8734C319.684 69.5397 319.857 69.2307 320.086 68.9642C320.314 68.6976 320.593 68.4786 320.906 68.3198C321.219 68.161 321.56 68.0654 321.91 68.0386L321.957 68.0362C323.607 67.9497 324.392 69.2936 324.463 70.6463C324.534 71.999 323.926 73.7959 322.266 73.9299Z" fill="black"/>
<path opacity="0.1" d="M332.955 66.7182C331.781 66.7797 330.031 68.1952 330.153 70.5217C330.156 71.3645 330.49 72.1723 331.082 72.7716C331.675 73.3709 332.479 73.7137 333.322 73.7263C334.459 73.6667 336.12 72.546 335.998 70.2154C335.876 67.8848 334.128 66.6567 332.955 66.7182ZM333.343 73.3493C331.683 73.4853 330.6 71.6811 330.529 70.3284C330.474 69.6218 330.703 68.9224 331.164 68.3841C331.625 67.8459 332.281 67.5127 332.987 67.458L333.034 67.4556C334.682 67.3692 335.47 68.713 335.54 70.0657C335.611 71.4184 335.003 73.2153 333.343 73.3493Z" fill="black"/>
<path d="M341.626 79.9711C341.595 79.9725 341.565 79.9799 341.537 79.9931C341.509 80.0063 341.484 80.0249 341.463 80.0479C341.443 80.0708 341.427 80.0976 341.416 80.1268C341.406 80.156 341.402 80.1869 341.404 80.2177L341.778 87.348C341.779 87.3788 341.787 87.4089 341.8 87.4367C341.813 87.4646 341.832 87.4895 341.855 87.5101C341.878 87.5307 341.904 87.5466 341.934 87.5569C341.963 87.5672 341.993 87.5716 342.024 87.57C342.055 87.5684 342.085 87.5608 342.113 87.5475C342.141 87.5342 342.166 87.5156 342.186 87.4927C342.207 87.4698 342.223 87.4431 342.233 87.4141C342.243 87.385 342.248 87.3542 342.246 87.3235L341.872 80.1891C341.868 80.1277 341.84 80.0705 341.794 80.0297C341.748 79.9889 341.687 79.9679 341.626 79.9711Z" fill="#F1F2F2"/>
<path d="M341.432 76.2778C341.401 76.2791 341.37 76.2866 341.342 76.2998C341.315 76.3129 341.29 76.3315 341.269 76.3545C341.248 76.3774 341.232 76.4043 341.222 76.4334C341.212 76.4626 341.208 76.4935 341.21 76.5243L341.285 77.9728C341.287 78.0036 341.295 78.0337 341.308 78.0615C341.321 78.0893 341.34 78.1143 341.363 78.1349C341.386 78.1555 341.412 78.1714 341.441 78.1817C341.47 78.192 341.501 78.1964 341.532 78.1948C341.563 78.1932 341.593 78.1855 341.621 78.1723C341.649 78.159 341.673 78.1404 341.694 78.1175C341.715 78.0946 341.731 78.0679 341.741 78.0388C341.751 78.0098 341.756 77.979 341.754 77.9483L341.678 76.5038C341.677 76.4727 341.67 76.4421 341.657 76.4138C341.644 76.3855 341.625 76.3601 341.602 76.3391C341.579 76.318 341.552 76.3018 341.523 76.2912C341.494 76.2807 341.463 76.2761 341.432 76.2778Z" fill="#F1F2F2"/>
<path d="M314.289 75.8843C314.258 75.8859 314.228 75.8935 314.201 75.9068C314.173 75.9201 314.148 75.9387 314.128 75.9617C314.107 75.9846 314.091 76.0113 314.081 76.0403C314.071 76.0693 314.067 76.1001 314.069 76.1307L314.294 80.4211C314.292 80.4538 314.298 80.4863 314.31 80.5167C314.322 80.5471 314.34 80.5746 314.363 80.5976C314.387 80.6205 314.414 80.6384 314.445 80.65C314.475 80.6616 314.508 80.6667 314.541 80.665C314.573 80.6633 314.605 80.6548 314.634 80.6401C314.663 80.6253 314.689 80.6047 314.71 80.5794C314.73 80.5542 314.746 80.5249 314.754 80.4934C314.763 80.4619 314.765 80.429 314.76 80.3967L314.535 76.1063C314.534 76.0754 314.527 76.0451 314.513 76.0172C314.5 75.9893 314.482 75.9642 314.459 75.9436C314.436 75.9229 314.409 75.907 314.38 75.8968C314.351 75.8867 314.32 75.8824 314.289 75.8843Z" fill="#F1F2F2"/>
<defs>
<linearGradient id="paint0_linear" x1="246.711" y1="155.402" x2="241.169" y2="6.85174" gradientUnits="userSpaceOnUse">
<stop stop-color="#EBCB8A"/>
<stop offset="1" stop-color="#D7A456"/>
</linearGradient>
</defs>
</svg>
