<svg xmlns="http://www.w3.org/2000/svg" viewBox="0 0 600 450"><title>PRO-1320-MyCrypto_Advent_Calendar_Daily_Illustrations_FINAL</title><rect width="600" height="450" style="fill:#016177;opacity:0.9500000000000001"/><g style="opacity:0.30000000000000004"><circle cx="85.25" cy="122.52" r="6.91" style="fill:#fff"/><circle cx="127.77" cy="304.84" r="6.91" style="fill:#fff"/><circle cx="165.98" cy="228.99" r="5.5" style="fill:#fff"/><circle cx="64.83" cy="280.55" r="2.73" style="fill:#fff"/><circle cx="367.38" cy="109" r="5.5" style="fill:#fff"/><circle cx="227.17" cy="266.1" r="6.91" style="fill:#fff"/><circle cx="277.06" cy="167.19" r="6.91" style="fill:#fff"/><circle cx="388.44" cy="167.19" r="3.85" style="fill:#fff"/><circle cx="202.15" cy="121.58" r="2.73" style="fill:#fff"/><circle cx="333.98" cy="235.99" r="5.5" style="fill:#fff"/><circle cx="355.56" cy="273.01" r="3.85" style="fill:#fff"/><circle cx="216.15" cy="340.58" r="2.73" style="fill:#fff"/><circle cx="31.16" cy="196.3" r="5.5" style="fill:#fff"/><circle cx="476.13" cy="136.43" r="6.91" style="fill:#fff"/><circle cx="462.15" cy="159.58" r="2.73" style="fill:#fff"/><circle cx="555.83" cy="116.55" r="2.73" style="fill:#fff"/><circle cx="467.65" cy="37.51" r="5.5" style="fill:#fff"/><circle cx="469.22" cy="313.35" r="5.5" style="fill:#fff"/><circle cx="540.26" cy="234.49" r="6.91" style="fill:#fff"/><circle cx="447.45" cy="223.72" r="3.85" style="fill:#fff"/><circle cx="388.44" cy="354.3" r="3.85" style="fill:#fff"/><circle cx="418.83" cy="306.55" r="2.73" style="fill:#fff"/><circle cx="309.06" cy="365.07" r="6.91" style="fill:#fff"/><circle cx="454.15" cy="405.79" r="2.73" style="fill:#fff"/><circle cx="162.66" cy="389.9" r="5.5" style="fill:#fff"/><circle cx="263.02" cy="408.52" r="5.5" style="fill:#fff"/></g><path d="M6,10c-.85-3.18,3-6.15,5.84-5.54,2.65.57,4.83,3.19,6.5,5.16C22.08,14.05,23.27,20,25.7,25.09c.59,1.22-3.48-.3-3.89-.44a22.22,22.22,0,0,1-6.5-3.73c-1.93-1.47-3.81-3-5.76-4.45-1.36-1-3.16-2.27-3.16-4.15a5.2,5.2,0,0,0-.33-2.18A.65.65,0,0,1,6,10Z" style="fill:#fff"/><path d="M6.3,24.67c.43-1.23,2.45-1.39,3.52-1.46s6.76.76,6.2,2.68c-.75,2.52-9.08,2-9.74-.46A1.3,1.3,0,0,1,6.3,24.67Z" style="fill:#fff"/><path d="M24.94,7.55A20.59,20.59,0,0,1,27,6.62c.31-.11,3.63,7.93-.3,8.55-1.82.29-2.16-1.8-2.26-3.14C24.39,11.14,24,8,24.94,7.55Z" style="fill:#fff"/><path d="M98.13,34.47C95.4,33.23,94,31.91,94,28.84c.5-.16.65-.67.95-1.05a3.39,3.39,0,0,1,2,0L97,29l-1,.49q0,.74.09,1.47a3.79,3.79,0,0,0,2.35.38c.32-.26.67-.51,1-.76a8.24,8.24,0,0,0,1.3-2.92,4.3,4.3,0,0,0-1.28-2,8.3,8.3,0,0,0-2-.52c-4.39-.77-9.15.11-13.56.18-2.52,0-5-.13-7.54-.12-2,0-4.56.67-6.48,0a6.71,6.71,0,0,0-.79-1c.57-1.38,1.9-2.15,2.71-3.37A19.74,19.74,0,0,1,77,15.57a20.71,20.71,0,0,1,4-2.52l0-.19c-.1.38-15.07.35-16.4.45-2,.16-4-.12-6,0a7.22,7.22,0,0,0-2.85.48c-.15.08-2,1.37-1.91,1.09-1.08,5-3.37,9.34-9.18,9.14-2-.07-3.84-1.07-4.16-3.26a7.91,7.91,0,0,1,2.13-5.92,7.09,7.09,0,0,1,2.61-2c.24-.1,2.68-.71,2.75-.4l-.27-1.08a5.23,5.23,0,0,0-4-4c-.55,0-1.1,0-1.64,0-1.22.33-2.07,1.32-3,2a17.42,17.42,0,0,0-3.61,5.87c0,.17-.11.52-.15.69-.85,1.72-.56,3.63-.15,5.42.22.56.44,1.13.63,1.7a10.63,10.63,0,0,0,3.4,3.75,6.25,6.25,0,0,0,6.26,1.47,7.18,7.18,0,0,0,4.92-4,17.4,17.4,0,0,1,3.19-3.61,13.84,13.84,0,0,1,3.32-1.31c2.35-.33,7.32-.14,8,2.77.46,1.84-.19,6-2.73,6.25a4.72,4.72,0,0,0-1.55.34c-1.45,0-3.37.15-4.22-1.27a4.18,4.18,0,0,1-1.09-3.92c0-.6.26-1.54,1.07-1.28.57.31.32,1,.39,1.53.16.11.47.33.62.45a7.84,7.84,0,0,0,.08,1.45,2.83,2.83,0,0,0,1.55,1.07A2.76,2.76,0,0,0,61,23.86a5.61,5.61,0,0,0-4.69-2.45c-1.75.51-2.8,2.1-3.51,3.67-2.1,4.58-6.34,4.81-10.78,4.82A13.28,13.28,0,0,1,36,28.68C28.12,24.76,29.63,13.56,34.6,8c4.83-5.42,14.85-4.79,17.84,2.49-.08-.2,4.43-.08,4.7-.07,1.87.11,3.74.2,5.61.28,3.8.16,7.61.23,11.41.16,3.21-.07,6.39-.56,9.61-.59a21.07,21.07,0,0,1,4.14.57c1.45.24,4.08-.65,4.23,1.33a16.79,16.79,0,0,1-3,2.16c-1.59.95-2.85,2.35-4.6,3-1.26.71-2.59,1.3-3.91,1.91a51.41,51.41,0,0,0-5.83,3.5c.76-.46,2.78.31,3.68.34,2.06.05,4-.61,6.1-.65,2.4,0,4.79.07,7.18.14,4.09.13,12.67-.75,14,4.68A6.94,6.94,0,0,1,102,34.57a4.57,4.57,0,0,1-3.86-.07ZM48.35,15.1c-2.21.34-6.54,3-3,5.13.19.1.36.19.52.26C49.45,22,48,15.16,48.35,15.1Z" style="fill:#fff"/><path d="M130.9,10.34A34.62,34.62,0,0,1,136,8.23c4.16-1.35,9.12-.71,13.37,0,3.53.56,7,2.31,7.36,6.23a9.38,9.38,0,0,1-4.16,8.94,12.93,12.93,0,0,1-3.28,1.31c-2.08.57-3.95,1.09-6.07.34-1.78-.63-3.75-1.86-4.41-3.73-.78-2.22,0-5.64,2.1-6.88a4.76,4.76,0,0,1,5.79.53c1.29,1.41.21,2.78-1.36,3.1s-3.42.53-3.6,2.58c-.23,2.68,3.56,2.94,5.46,2.62,3.62-.59,5.41-4.87,4.71-8.18a7.61,7.61,0,0,0-4.09-3.8,12.1,12.1,0,0,0-4.68-.64c-1.46,0-2.94.14-4.4.26a19.64,19.64,0,0,0-8.19,2.23,13.76,13.76,0,0,0-3.8,3.33c-1,1.31-2,2.76-3.06,4-1-1.3-.69-2.86-1.88-4.08-1.46-1.49-4.7-3.23-6.84-2.63-3.93,1.09-7.29,3.81-11.44,4.19-2.72.26-6.43-1.32-6.85-4.36-.26-1.9,1.08-3.41,2.32-4.64a3.82,3.82,0,0,1,4.3-.6c-.07,0-1.76,1.29-2,1.43a3.32,3.32,0,0,0-1.5,1.66,2.54,2.54,0,0,0,2.09,3.27,7.73,7.73,0,0,0,3.94-.58c2-.71,3.76-1.92,5.71-2.74a16.35,16.35,0,0,1,6.4-.93,10,10,0,0,1,4,.76c1.52.65,1.86,2,3,3A36.75,36.75,0,0,1,130.9,10.34Z" style="fill:#fff"/><path d="M110.18,19.91c-.33-.19-.59-.47-.26-.88s1.65-.39,2.08-.49c.76-.19,1-.47,1.82-.61a7.76,7.76,0,0,1,2.54.16c1.84.31,3.45,1.19,3.56,3.26a2.34,2.34,0,0,1-1,1.93c-1,.74-2.79-.59-3.63-1.09a29.09,29.09,0,0,0-4.55-2.06A3.41,3.41,0,0,1,110.18,19.91Z" style="fill:#fff"/><path d="M107.93,23c0-.38,0-.76.56-.72s1.28,1.12,1.61,1.41c.59.51,1,.58,1.54,1.13A7.66,7.66,0,0,1,113,27c.82,1.68,1,3.51-.59,4.79a2.32,2.32,0,0,1-2.18.26c-1.2-.4-1.14-2.61-1.22-3.59a28.3,28.3,0,0,0-1-4.9A3.27,3.27,0,0,1,107.93,23Z" style="fill:#fff"/><path d="M90.83,20.06c-1-1.62-.55-3.11.76-4.37.91.69,2.7,1.15,2.5,2.68C94.34,20.33,92,19.91,90.83,20.06Z" style="fill:#fff"/><path d="M36,97.13a4.65,4.65,0,0,1,.07,3.86,7,7,0,0,1-7.32,3.72c-5.42-1.28-4.54-9.87-4.67-14C24,88.37,23.91,86,24,83.58c0-2,.7-4,.64-6.11,0-.89-.79-2.91-.33-3.68a52.31,52.31,0,0,0-3.5,5.83c-.61,1.32-1.2,2.65-1.91,3.92-.69,1.74-2.08,3-3,4.59a17.32,17.32,0,0,1-2.16,3c-2-.15-1.09-2.77-1.33-4.22a22.07,22.07,0,0,1-.58-4.15c0-3.22.54-6.39.6-9.61.07-3.8,0-7.61-.16-11.4-.08-1.87-.18-3.74-.28-5.61,0-.28-.13-4.79.07-4.71-7.28-3-7.91-13-2.49-17.83,5.58-5,16.78-6.48,20.7,1.36A13.3,13.3,0,0,1,31.41,41c0,4.44-.24,8.68-4.83,10.78-1.56.72-3.15,1.77-3.66,3.52A5.62,5.62,0,0,0,25.36,60a2.77,2.77,0,0,0,2.9-2,2.81,2.81,0,0,0-1.07-1.54,6.42,6.42,0,0,0-1.45-.08c-.12-.16-.35-.47-.45-.63-.53-.06-1.22.18-1.53-.39-.26-.81.68-1,1.27-1.07A4.19,4.19,0,0,1,29,55.38c1.43.85,1.29,2.78,1.28,4.22a4.59,4.59,0,0,0-.34,1.56c-.23,2.53-4.41,3.18-6.26,2.72-2.9-.72-3.1-5.69-2.77-8a13.86,13.86,0,0,1,1.32-3.32,17.43,17.43,0,0,1,3.61-3.19,7.24,7.24,0,0,0,4.05-4.91,6.27,6.27,0,0,0-1.47-6.26,10.54,10.54,0,0,0-3.75-3.4c-.57-.2-1.14-.41-1.7-.64-1.79-.41-3.71-.7-5.43.16l-.68.15A17.24,17.24,0,0,0,10.94,38c-.72,1-1.72,1.84-2,3-.05.54,0,1.09-.05,1.64a5.22,5.22,0,0,0,4,4L14,47c-.31-.08.3-2.51.4-2.75a7,7,0,0,1,2-2.62,7.9,7.9,0,0,1,5.91-2.13c2.2.33,3.19,2.15,3.26,4.17.21,5.81-4.1,8.09-9.14,9.18.29-.07-1,1.75-1.08,1.9a7.1,7.1,0,0,0-.48,2.85c-.11,2,.18,4,0,6-.1,1.33-.07,16.31-.45,16.4l.19,0a20.83,20.83,0,0,1,2.52-4,19.41,19.41,0,0,1,5.16-5.26c1.21-.82,2-2.15,3.37-2.72a6.33,6.33,0,0,0,1.05.8c.66,1.92,0,4.48,0,6.47,0,2.52.15,5,.12,7.54-.07,4.41-.95,9.18-.18,13.57a7.92,7.92,0,0,0,.53,2,4.1,4.1,0,0,0,2,1.28,8.36,8.36,0,0,0,2.93-1.29c.25-.35.5-.7.76-1A3.8,3.8,0,0,0,32.42,95c-.49,0-1-.07-1.46-.09-.16.34-.33.67-.49,1l-1.2,0a3.39,3.39,0,0,1,0-2c.39-.31.9-.46,1.06-1,3.06,0,4.39,1.35,5.63,4.08ZM22,44.87a4.35,4.35,0,0,0-.27-.52c-2.09-3.59-4.78.74-5.12,2.94C16.67,46.93,23.53,48.4,22,44.87Z" style="fill:#fff"/><path d="M11.85,129.85A33.74,33.74,0,0,0,9.74,135c-1.35,4.15-.71,9.12,0,13.37.56,3.52,2.31,7,6.23,7.36a9.39,9.39,0,0,0,8.94-4.17,12.93,12.93,0,0,0,1.31-3.28c.57-2.08,1.08-3.94.34-6.06-.63-1.78-1.86-3.76-3.73-4.41-2.22-.78-5.65,0-6.88,2.1-1,1.73-1.06,4.34.53,5.78,1.41,1.29,2.78.21,3.1-1.36s.53-3.42,2.58-3.6c2.68-.23,2.93,3.56,2.62,5.46-.59,3.63-4.87,5.42-8.19,4.72a7.63,7.63,0,0,1-3.79-4.09,12.13,12.13,0,0,1-.65-4.68c0-1.47.15-2.94.27-4.4a19.72,19.72,0,0,1,2.23-8.2,13.76,13.76,0,0,1,3.33-3.8c1.31-1,2.75-2,4-3.06-1.3-1-2.86-.68-4.08-1.87-1.5-1.47-3.24-4.7-2.64-6.85,1.1-3.93,3.81-7.29,4.2-11.44.25-2.72-1.32-6.43-4.37-6.85-1.89-.26-3.4,1.08-4.64,2.32a3.84,3.84,0,0,0-.59,4.31c0-.08,1.29-1.77,1.42-2a3.34,3.34,0,0,1,1.67-1.5,2.53,2.53,0,0,1,3.27,2.08,7.67,7.67,0,0,1-.59,3.95c-.71,2-1.91,3.75-2.73,5.7a16.22,16.22,0,0,0-.93,6.41,9.85,9.85,0,0,0,.76,4c.64,1.52,2,1.85,3,3A36.83,36.83,0,0,0,11.85,129.85Z" style="fill:#fff"/><path d="M21.64,109.63a27.81,27.81,0,0,0,2.06,4.55c.5.85,1.83,2.61,1.09,3.63a2.29,2.29,0,0,1-1.93,1c-2.07-.1-2.95-1.72-3.26-3.56a7.48,7.48,0,0,1-.16-2.54c.14-.77.42-1.05.61-1.81.1-.43.13-1.77.49-2.08s.69-.08.88.25A3.91,3.91,0,0,1,21.64,109.63Z" style="fill:#fff"/><path d="M25,107a29.08,29.08,0,0,0,4.9,1c1,.08,3.19,0,3.59,1.21a2.35,2.35,0,0,1-.26,2.19c-1.28,1.62-3.11,1.4-4.79.59a7.75,7.75,0,0,1-2.16-1.34c-.56-.57-.62-1-1.13-1.55-.29-.33-1.37-1.13-1.41-1.61s.34-.6.72-.56A3.19,3.19,0,0,1,25,107Z" style="fill:#fff"/><path d="M21.57,89.77c-1.62-1-3.12-.54-4.37.77.69.91,1.15,2.7,2.68,2.5C21.83,93.29,21.42,90.93,21.57,89.77Z" style="fill:#fff"/><path d="M57.91,57.42c0-.71,0-1.42,0-2.12a.47.47,0,0,0-.19-.38,83.49,83.49,0,0,1-6.68-5.69,17.24,17.24,0,0,1-1.54-1.73,15.32,15.32,0,0,0-2.06-2.22,22.57,22.57,0,0,1-2.77-2.67,31.27,31.27,0,0,0-2.22-2.24c-.38-.35-.78-.7-1.16-1a13.69,13.69,0,0,1-2-2,7.1,7.1,0,0,1,2.09-.27c.36,0,.73,0,1.13,0,1,0,1.92-.07,2.84-.13.77-.06,1.57-.12,2.39-.13a13.81,13.81,0,0,1,1.51-.07c.63,0,1.28,0,1.9.05s1.3.06,1.94.06a15.4,15.4,0,0,0,2-.12h.24c1.43,0,2.89.05,4.31.1l1.61,0h.08a6.68,6.68,0,0,1,.74.06,7.73,7.73,0,0,0,.85.06,2.09,2.09,0,0,0,1.58-.6.47.47,0,0,0,0-.65c-.16-.15-.18-.39-.21-.78a1.55,1.55,0,0,0-.79-1.53.47.47,0,0,0-.17,0,43.94,43.94,0,0,0-8.79.28,20.32,20.32,0,0,1-2.47-.1,16.8,16.8,0,0,0-3.39,0,25.44,25.44,0,0,1-2.62.19c-.64,0-1.31.06-2,.12-.22,0-.45,0-.71,0h0c-.36,0-.73,0-1.09,0s-.76,0-1.13,0a6.23,6.23,0,0,0-1.86.24l-.14,0a6.32,6.32,0,0,1-1.51.27,1.68,1.68,0,0,1-1.09-.35A.47.47,0,0,0,36,34l-1,.55a.46.46,0,0,0-.22.45c.49,3.89.85,7.35,1.12,10.54,0,1.17,0,2.36-.09,3.51a31.21,31.21,0,0,0,0,4.64,12.42,12.42,0,0,0,0,4.34c.09.92.08,1.87.08,2.8a14.9,14.9,0,0,0,.66,5.47.47.47,0,0,0,.44.31h.07l1.3-.19a.46.46,0,0,0,.35-.28A9.82,9.82,0,0,0,39,61.58a18.56,18.56,0,0,1-.17-1.95.22.22,0,0,1,0-.08,24.68,24.68,0,0,1-.33-4c0-.93-.05-1.9-.15-2.85a14.28,14.28,0,0,0,.16-2.83c0-.62,0-1.25,0-1.87a37.77,37.77,0,0,0-.13-5.22c-.07-.88-.14-1.78-.17-2.67A76.07,76.07,0,0,1,49,50.37l1.22,1.32c.63.65,1.29,1.28,1.94,1.89a39.78,39.78,0,0,1,3,3,3.56,3.56,0,0,0,2.32,1.27.42.42,0,0,0,.34-.1A.45.45,0,0,0,57.91,57.42Z" style="fill:#fff"/><path d="M75.51,33.66l-.77,0-1.59,0c-1.83,0-4.1.16-5.45,1.45-.19.18-.14.43.1.59A14.7,14.7,0,0,0,70.52,37a1,1,0,0,0,.35.06,1,1,0,0,0,.34-.06.44.44,0,0,0,.33-.39v-.13a12.46,12.46,0,0,0,3.22.42c.52,0,1,.05,1.44.1a1,1,0,0,0,.54-.09.43.43,0,0,0,.25-.33,3.57,3.57,0,0,0-.89-2.7A.8.8,0,0,0,75.51,33.66Z" style="fill:#fff"/><path d="M60.85,41.4a2.47,2.47,0,0,0,1.82-1.74.47.47,0,0,0-.18-.54l-.28-.2-.8-.56a.41.41,0,0,0-.28-.09h-.84a.43.43,0,0,0-.44.4v.13a2.84,2.84,0,0,0,.59,2.46.48.48,0,0,0,.34.14Z" style="fill:#fff"/><path d="M66.5,41.37l.18,0,1,.19h.08a.43.43,0,0,0,.39-.23c.79-1.47.26-2.26-.32-2.67a.45.45,0,0,0-.42-.05l-1.12.4a.46.46,0,0,0-.29.45c0,.48.07,1,.12,1.45A.49.49,0,0,0,66.5,41.37Z" style="fill:#fff"/><path d="M76.41,41.41a2.21,2.21,0,0,1-.18-.47c-.16-.52-.4-1.3-1.18-1.3a1,1,0,0,0-.29,0c-1-.06-1,1-1,1.56a2.25,2.25,0,0,1,0,.37.44.44,0,0,0,.14.39,1.26,1.26,0,0,0,.94.4,2.83,2.83,0,0,0,.89-.2,2.65,2.65,0,0,1,.37-.12.43.43,0,0,0,.31-.26A.49.49,0,0,0,76.41,41.41Z" style="fill:#fff"/><path d="M51.76,40.29a.51.51,0,0,0-.27-.09H50.06a8.06,8.06,0,0,1-2.2-.22.46.46,0,0,0-.42.1A2.18,2.18,0,0,0,46.9,42c0,.12,0,.24,0,.36a.45.45,0,0,0,.14.32.45.45,0,0,0,.33.14,10,10,0,0,1,1.66.2,11.52,11.52,0,0,0,1.85.21A3.9,3.9,0,0,0,52.35,43a.44.44,0,0,0,.27-.44v0A2.82,2.82,0,0,0,51.76,40.29Z" style="fill:#fff"/><path d="M62,45.94a.42.42,0,0,0,.32-.15.4.4,0,0,0,.1-.33c-.08-.82-.17-1.58-.3-2.32a.48.48,0,0,0-.46-.39A15.09,15.09,0,0,1,59,42.4c-.5-.09-1-.19-1.54-.26l0-.15a.47.47,0,0,0-.37-.38.44.44,0,0,0-.47.2c-.31.5-.63,1-.93,1.61a.46.46,0,0,0,.24.63l.32.15a9.45,9.45,0,0,0,2.11.77,6.64,6.64,0,0,1,1.35.44,5.87,5.87,0,0,0,2.14.54Z" style="fill:#fff"/><path d="M72.35,45.77a.49.49,0,0,0-.5-.39c-.31,0-.64,0-1,0a30.43,30.43,0,0,1-5.37-.66l-.37-.07a.44.44,0,0,0-.37.1c-.86.74-.4,1.66-.09,2.28l.06.12a.47.47,0,0,0,.38.27c1.22.13,2.47.37,3.67.61s2.24.43,3.38.57h.06a.43.43,0,0,0,.45-.45.36.36,0,0,0,0-.11A22.45,22.45,0,0,0,72.35,45.77Z" style="fill:#fff"/><path d="M42.26,52.09a.44.44,0,0,0,.34.22,4.24,4.24,0,0,0,.71,0,5.32,5.32,0,0,0,.69,0,.45.45,0,0,0,.37-.34,4,4,0,0,0-.58-2.62c-.12-.23-.23-.46-.34-.72s-.23-.52-.34-.8c-.39-1-.82-2.06-2.09-2.43a.44.44,0,0,0-.55.28,1.81,1.81,0,0,1-.18.38c-.24.44-.65,1.18,0,1.8a6.28,6.28,0,0,1,1.13,2.25A9,9,0,0,0,42.26,52.09Z" style="fill:#fff"/><path d="M56,46.79a.46.46,0,0,0-.33.29c-.15.45-.31.91-.46,1.37a.43.43,0,0,0,0,.35l.48.94A.55.55,0,0,0,56,50a2.6,2.6,0,0,0,.56.07,1.82,1.82,0,0,0,2-1.75.47.47,0,0,0,0-.17A2.15,2.15,0,0,0,56,46.79Z" style="fill:#fff"/><path d="M61.86,48.46a4,4,0,0,0-.49,0l-.36,0h0a.45.45,0,0,0-.33.14.44.44,0,0,0-.11.33,3.68,3.68,0,0,0,1.11,2.41.46.46,0,0,0,.33.13.41.41,0,0,0,.25-.08c.8-.54,1.2-1.06,1.21-1.59a1.11,1.11,0,0,0-.41-.85A1.4,1.4,0,0,0,61.86,48.46Z" style="fill:#fff"/><path d="M68,50.64a1.4,1.4,0,0,0-.39-.07c-.64,0-.93.55-1.13.92-.05.09-.1.19-.16.28a.45.45,0,0,0,0,.42l.45,1.16a.48.48,0,0,0,.44.3h.24l1.08,0a.42.42,0,0,0,.41-.38,2,2,0,0,0,0-.26C69,52.29,69.22,50.92,68,50.64Z" style="fill:#fff"/><path d="M47.2,60.5a.45.45,0,0,0,.26-.44,6.39,6.39,0,0,0-.68-2.14,8.36,8.36,0,0,1-.5-1.23A25.6,25.6,0,0,0,45.4,54a.48.48,0,0,0-.5-.31,1.76,1.76,0,0,1-.33,0h-.23a1,1,0,0,0-.87.36.86.86,0,0,0,.05.86,25.72,25.72,0,0,1,1.07,3.61c.15.59.3,1.19.46,1.77a.49.49,0,0,0,.47.35H46l.39,0A2.14,2.14,0,0,0,47.2,60.5Z" style="fill:#fff"/><path d="M52.14,56a.47.47,0,0,0,0-.54,2.42,2.42,0,0,0-2.54-.78.43.43,0,0,0-.34.4c0,.08,0,.16,0,.25a2.25,2.25,0,0,0,.61,2.14.21.21,0,0,0,.1.06,1.32,1.32,0,0,0,.59.15c.78,0,1.15-.75,1.42-1.29A2.75,2.75,0,0,1,52.14,56Z" style="fill:#fff"/><path d="M62.37,59.68a5.53,5.53,0,0,1-1-.9,3.63,3.63,0,0,0-2.41-1.39,2.08,2.08,0,0,0-.64.1.46.46,0,0,0-.23.16A1.36,1.36,0,0,0,57.87,59a2.68,2.68,0,0,0,1.66,1.38,9,9,0,0,1,.84,1.3.47.47,0,0,0,.25.23c.46.17,1,.35,1.6.56a.4.4,0,0,0,.15,0,.54.54,0,0,0,.21,0,.46.46,0,0,0,.21-.28,4,4,0,0,0-.2-2.19A.49.49,0,0,0,62.37,59.68Z" style="fill:#fff"/><path d="M54.54,60.35A1.85,1.85,0,0,0,54.26,59a2.24,2.24,0,0,1-.18-.41.48.48,0,0,0-.55-.34,9.63,9.63,0,0,0-1.67.5.43.43,0,0,0-.27.43c0,.37,0,.76,0,1.14a.5.5,0,0,0,.28.41,2.19,2.19,0,0,1,.3.16,2.12,2.12,0,0,0,1.06.4,1,1,0,0,0,.78-.36A1,1,0,0,0,54.54,60.35Z" style="fill:#fff"/><path d="M42,63.61l1.15-.07a.45.45,0,0,0,.4-.32l.26-.94a.46.46,0,0,0-.23-.54,2.23,2.23,0,0,1-.27-.23,1.36,1.36,0,0,0-1-.53l-.23,0a.83.83,0,0,0-.77.33c-.29.39-.12.92,0,1.39a2.35,2.35,0,0,1,.12.45.48.48,0,0,0,.47.43Z" style="fill:#fff"/><path d="M55.3,62.62a.43.43,0,0,0-.43.29c-.19.58-.39,1.16-.57,1.75a.47.47,0,0,0,.2.54,1.58,1.58,0,0,0,.85.24,3.31,3.31,0,0,0,1-.22l.24-.08a.45.45,0,0,0,.31-.34,2,2,0,0,0-.34-1.62A1.61,1.61,0,0,0,55.3,62.62Z" style="fill:#fff"/><path d="M47.23,62.75a1.2,1.2,0,0,0-1.07.65,1,1,0,0,0,.11,1,10.49,10.49,0,0,1,.42,1.44,11.21,11.21,0,0,0,.39,1.39.45.45,0,0,0,.34.3l1.11.27h.11a.44.44,0,0,0,.25-.08.4.4,0,0,0,.19-.31,5.2,5.2,0,0,0-.83-4A1.08,1.08,0,0,0,47.23,62.75Z" style="fill:#fff"/><path d="M42.55,69a.44.44,0,0,0,.27.09l.12,0a6.11,6.11,0,0,0,.79-.27l.43-.17a.44.44,0,0,0,.29-.5c0-.07,0-.15,0-.24-.08-.6-.23-1.73-1.22-1.73a.68.68,0,0,0-.2,0,1.14,1.14,0,0,0-1.16.82A2,2,0,0,0,42.55,69Z" style="fill:#fff"/><path d="M38.42,71.16a.58.58,0,0,0-.05-.14c-.31-.57-.59-1.07-.85-1.52a.48.48,0,0,0-.4-.23.43.43,0,0,0-.39.21l-.48.8a.58.58,0,0,0-.06.26c0,.43.05.86.07,1.31a9.44,9.44,0,0,0,.64,3.75.48.48,0,0,0,.43.28h1.18a.44.44,0,0,0,.44-.42,12.77,12.77,0,0,0-.35-3.34C38.54,71.81,38.47,71.48,38.42,71.16Z" style="fill:#fff"/><path d="M44.4,71.94c-.59,0-1.19,0-1.79.08a.44.44,0,0,0-.4.45,2.41,2.41,0,0,0,1.34,2.42.45.45,0,0,0,.16,0,.48.48,0,0,0,.24-.06,2.2,2.2,0,0,0,.87-1.9c0-.16,0-.33,0-.48a.45.45,0,0,0-.11-.38A.46.46,0,0,0,44.4,71.94Z" style="fill:#fff"/><path d="M595.75,10.14a5.2,5.2,0,0,0-.33,2.18c0,1.88-1.8,3.15-3.16,4.15-2,1.44-3.84,3-5.77,4.45A22,22,0,0,1,580,24.65c-.42.14-4.48,1.66-3.9.44,2.44-5.12,3.63-11,7.35-15.46,1.66-2,3.84-4.59,6.5-5.16,2.82-.61,6.68,2.36,5.84,5.54Z" style="fill:#fff"/><path d="M595.51,24.67c-.44-1.23-2.45-1.39-3.53-1.46s-6.75.76-6.19,2.68c.74,2.52,9.08,2,9.73-.46A1.39,1.39,0,0,0,595.51,24.67Z" style="fill:#fff"/><path d="M576.87,7.55a20.77,20.77,0,0,0-2.08-.93c-.3-.11-3.63,7.93.31,8.55,1.82.29,2.16-1.8,2.25-3.14C577.41,11.14,577.77,8,576.87,7.55Z" style="fill:#fff"/><path d="M503.62,34.5a4.57,4.57,0,0,1-3.86.07A7,7,0,0,1,496,27.26c1.28-5.43,9.87-4.55,14-4.68,2.38-.07,4.78-.18,7.17-.14,2.05,0,4.05.7,6.11.65.89,0,2.92-.8,3.68-.34a52.31,52.31,0,0,0-5.83-3.5c-1.32-.61-2.65-1.2-3.92-1.91-1.74-.68-3-2.08-4.59-3a17.25,17.25,0,0,1-3-2.16c.16-2,2.79-1.09,4.23-1.33a21.27,21.27,0,0,1,4.15-.57c3.22,0,6.39.52,9.61.59,3.8.07,7.61,0,11.4-.16,1.87-.08,3.74-.17,5.61-.28.28,0,4.79-.13,4.71.07,3-7.28,13-7.91,17.83-2.49,5,5.58,6.48,16.78-1.36,20.7a13.42,13.42,0,0,1-6.06,1.23c-4.44,0-8.68-.25-10.78-4.83-.72-1.57-1.77-3.16-3.52-3.67a5.61,5.61,0,0,0-4.68,2.45,2,2,0,1,0,3.49,1.82,6.42,6.42,0,0,0,.08-1.45l.63-.45c.07-.53-.18-1.22.39-1.53.81-.26,1,.68,1.07,1.28a4.18,4.18,0,0,1-1.1,3.92c-.84,1.42-2.76,1.28-4.21,1.27a4.84,4.84,0,0,0-1.55-.34c-2.54-.23-3.19-4.41-2.73-6.25.72-2.91,5.69-3.1,8-2.77a13.84,13.84,0,0,1,3.32,1.31,17.35,17.35,0,0,1,3.18,3.61,7.22,7.22,0,0,0,4.93,4,6.23,6.23,0,0,0,6.25-1.47,10.54,10.54,0,0,0,3.4-3.75c.2-.57.41-1.14.64-1.7.41-1.79.7-3.7-.16-5.42,0-.17-.11-.52-.15-.69a17.39,17.39,0,0,0-3.6-5.87c-1-.72-1.83-1.71-3.05-2-.54,0-1.09,0-1.64,0a5.23,5.23,0,0,0-4,4l-.27,1.08c.07-.31,2.5.3,2.74.4a7.12,7.12,0,0,1,2.62,2,8,8,0,0,1,2.13,5.92c-.33,2.19-2.15,3.19-4.16,3.26-5.82.2-8.1-4.11-9.18-9.14.06.28-1.76-1-1.91-1.09a7.25,7.25,0,0,0-2.85-.48c-2-.1-4,.18-6,0-1.33-.1-16.3-.07-16.4-.45l0,.19a21,21,0,0,1,4,2.52A19.56,19.56,0,0,1,530,20.73c.81,1.22,2.15,2,2.72,3.37a6.77,6.77,0,0,0-.8,1c-1.92.66-4.48,0-6.47,0-2.52,0-5,.15-7.54.12-4.41-.07-9.18-1-13.57-.18a8.34,8.34,0,0,0-2,.52,4.16,4.16,0,0,0-1.28,2,8.4,8.4,0,0,0,1.29,2.92c.35.25.7.5,1,.76a3.79,3.79,0,0,0,2.35-.38q.06-.74.09-1.47l-1-.49c0-.4,0-.8,0-1.2a3.43,3.43,0,0,1,2,0c.3.38.45.89.94,1.05,0,3.07-1.35,4.39-4.08,5.63Zm52.26-14,.52-.26c3.59-2.1-.73-4.79-2.94-5.13C553.83,15.16,552.35,22,555.88,20.49Z" style="fill:#fff"/><path d="M470.9,10.34a33.74,33.74,0,0,0-5.1-2.11c-4.15-1.35-9.12-.71-13.37,0-3.52.56-7,2.31-7.36,6.23a9.39,9.39,0,0,0,4.17,8.94,12.93,12.93,0,0,0,3.28,1.31c2.08.57,3.94,1.09,6.06.34,1.79-.63,3.76-1.86,4.41-3.73.78-2.22,0-5.64-2.09-6.88-1.74-1-4.35-1.06-5.8.53-1.28,1.41-.2,2.78,1.37,3.1s3.42.53,3.59,2.58c.24,2.68-3.55,2.94-5.45,2.62-3.63-.59-5.42-4.87-4.72-8.18a7.67,7.67,0,0,1,4.1-3.8,12.07,12.07,0,0,1,4.68-.64c1.46,0,2.93.14,4.39.26a19.72,19.72,0,0,1,8.2,2.23,13.76,13.76,0,0,1,3.8,3.33c1,1.31,2,2.76,3.06,4,1-1.3.68-2.86,1.87-4.08,1.47-1.49,4.71-3.23,6.85-2.63,3.92,1.09,7.29,3.81,11.44,4.19,2.72.26,6.43-1.32,6.85-4.36.26-1.9-1.08-3.41-2.32-4.64a3.83,3.83,0,0,0-4.3-.6c.06,0,1.76,1.29,1.95,1.43a3.28,3.28,0,0,1,1.5,1.66,2.53,2.53,0,0,1-2.08,3.27,7.78,7.78,0,0,1-3.95-.58c-2-.71-3.75-1.92-5.7-2.74a16.38,16.38,0,0,0-6.4-.93,10,10,0,0,0-4,.76c-1.52.65-1.86,2-3,3A37.27,37.27,0,0,0,470.9,10.34Z" style="fill:#fff"/><path d="M491.12,20.13a28.68,28.68,0,0,0-4.55,2.06c-.85.5-2.61,1.83-3.63,1.09a2.32,2.32,0,0,1-1.05-1.93c.1-2.07,1.72-3,3.55-3.26a7.82,7.82,0,0,1,2.55-.16c.77.14,1.05.42,1.81.61.43.1,1.77.13,2.08.49s.08.69-.25.88A3.41,3.41,0,0,1,491.12,20.13Z" style="fill:#fff"/><path d="M493.77,23.51a27.37,27.37,0,0,0-.95,4.9c-.09,1,0,3.19-1.22,3.59a2.35,2.35,0,0,1-2.19-.26c-1.62-1.28-1.4-3.11-.59-4.79a7.66,7.66,0,0,1,1.34-2.16c.57-.55,1-.62,1.55-1.13.33-.29,1.13-1.37,1.61-1.41s.6.34.56.72A3.19,3.19,0,0,1,493.77,23.51Z" style="fill:#fff"/><path d="M511,20.06c1-1.62.54-3.11-.77-4.37-.91.69-2.7,1.15-2.5,2.68C507.46,20.33,509.83,19.91,511,20.06Z" style="fill:#fff"/><path d="M565.83,97.07c1.24-2.73,2.56-4.1,5.62-4.08.17.49.68.64,1.06,1a3.48,3.48,0,0,1,0,2l-1.2,0c-.17-.34-.33-.67-.49-1-.49,0-1,0-1.46.09a3.73,3.73,0,0,0-.39,2.35c.26.32.51.67.76,1a8.4,8.4,0,0,0,2.92,1.29,4.08,4.08,0,0,0,2-1.28,7.51,7.51,0,0,0,.52-2c.77-4.39-.1-9.16-.17-13.57,0-2.51.12-5,.12-7.53,0-2-.67-4.56,0-6.48a5.94,5.94,0,0,0,1.05-.8c1.39.57,2.16,1.9,3.38,2.72A19.71,19.71,0,0,1,584.73,76a21.33,21.33,0,0,1,2.52,4l.19,0c-.38-.09-.35-15.07-.46-16.4-.16-2,.13-4,0-6a7.3,7.3,0,0,0-.48-2.86c-.08-.15-1.37-2-1.09-1.9-5-1.09-9.34-3.37-9.14-9.18.08-2,1.07-3.84,3.26-4.17a7.91,7.91,0,0,1,5.92,2.13,7.12,7.12,0,0,1,2,2.62c.1.24.71,2.67.4,2.75l1.08-.28a5.22,5.22,0,0,0,4-4c0-.55,0-1.1-.06-1.64-.32-1.21-1.31-2.07-2-3a17.43,17.43,0,0,0-5.87-3.6l-.69-.15c-1.72-.86-3.63-.57-5.42-.16-.56.23-1.13.44-1.7.64a10.45,10.45,0,0,0-3.75,3.4A6.25,6.25,0,0,0,572,44.42c.35,2.22,2.14,3.9,4,4.91a17.69,17.69,0,0,1,3.61,3.19,13.84,13.84,0,0,1,1.31,3.32c.33,2.35.13,7.32-2.77,8-1.85.46-6-.19-6.25-2.72a4.84,4.84,0,0,0-.34-1.56c0-1.44-.15-3.37,1.27-4.22a4.2,4.2,0,0,1,3.92-1.09c.59,0,1.54.26,1.28,1.07-.31.57-1,.33-1.53.39l-.45.63a6.39,6.39,0,0,0-1.45.08A2.82,2.82,0,0,0,573.54,58a2.77,2.77,0,0,0,2.9,2,5.66,5.66,0,0,0,2.45-4.68c-.52-1.75-2.1-2.8-3.67-3.52-4.58-2.1-4.82-6.34-4.82-10.78a13.3,13.3,0,0,1,1.22-6.06c3.92-7.84,15.11-6.34,20.7-1.36,5.42,4.83,4.79,14.84-2.49,17.83.2-.08.08,4.43.07,4.71-.11,1.87-.2,3.74-.28,5.61-.16,3.8-.23,7.6-.16,11.4.06,3.22.56,6.39.6,9.61a22.07,22.07,0,0,1-.58,4.15c-.24,1.45.65,4.07-1.34,4.22a17.87,17.87,0,0,1-2.16-3c-.94-1.58-2.34-2.85-3-4.59-.71-1.27-1.3-2.6-1.91-3.92a52.31,52.31,0,0,0-3.5-5.83c.45.77-.32,2.79-.34,3.68-.05,2.06.61,4.06.64,6.11,0,2.39-.06,4.79-.13,7.17-.14,4.09.75,12.68-4.68,14a7,7,0,0,1-7.31-3.72,4.57,4.57,0,0,1,.07-3.86Zm19.36-49.78c-.33-2.2-3-6.53-5.12-2.94a4.19,4.19,0,0,0-.26.52C578.28,48.4,585.14,46.93,585.19,47.29Z" style="fill:#fff"/><path d="M590,129.85a34.81,34.81,0,0,1,2.11,5.1c1.35,4.15.7,9.12,0,13.37-.56,3.52-2.31,7-6.23,7.36a9.38,9.38,0,0,1-8.94-4.17,13.34,13.34,0,0,1-1.32-3.28c-.56-2.08-1.08-3.94-.33-6.06.63-1.78,1.86-3.76,3.72-4.41,2.22-.78,5.65,0,6.89,2.1,1,1.73,1.06,4.34-.54,5.78-1.4,1.29-2.78.21-3.09-1.36s-.53-3.42-2.58-3.59c-2.68-.24-2.94,3.55-2.63,5.45.6,3.63,4.88,5.42,8.19,4.72a7.65,7.65,0,0,0,3.8-4.09,12.13,12.13,0,0,0,.64-4.68c0-1.47-.15-2.94-.26-4.4a19.72,19.72,0,0,0-2.23-8.2,13.76,13.76,0,0,0-3.33-3.8c-1.31-1-2.76-2-4-3.06,1.3-1,2.85-.68,4.07-1.87,1.5-1.47,3.24-4.7,2.64-6.85-1.09-3.93-3.81-7.29-4.2-11.44-.25-2.72,1.33-6.43,4.37-6.85,1.9-.26,3.41,1.08,4.64,2.32a3.84,3.84,0,0,1,.6,4.31c0-.08-1.3-1.77-1.42-2a3.32,3.32,0,0,0-1.68-1.5,2.54,2.54,0,0,0-3.27,2.08,7.88,7.88,0,0,0,.59,3.95c.71,2,1.92,3.76,2.74,5.7a16.4,16.4,0,0,1,.93,6.41,10,10,0,0,1-.76,4c-.65,1.52-2,1.85-3,3A36.83,36.83,0,0,1,590,129.85Z" style="fill:#fff"/><path d="M580.39,109.12c.19-.33.47-.59.87-.25s.4,1.65.5,2.08c.18.76.46,1,.6,1.82a7.44,7.44,0,0,1-.15,2.53c-.31,1.84-1.19,3.46-3.26,3.56a2.29,2.29,0,0,1-1.93-1c-.74-1,.59-2.78,1.09-3.63a28.64,28.64,0,0,0,2-4.55A4.14,4.14,0,0,1,580.39,109.12Z" style="fill:#fff"/><path d="M577.33,106.87c.38,0,.75,0,.72.56s-1.12,1.28-1.41,1.61c-.51.59-.58,1-1.13,1.55a7.9,7.9,0,0,1-2.16,1.34c-1.68.81-3.51,1-4.79-.59a2.32,2.32,0,0,1-.26-2.19c.4-1.19,2.61-1.13,3.59-1.21a29.16,29.16,0,0,0,4.89-1A3.56,3.56,0,0,1,577.33,106.87Z" style="fill:#fff"/><path d="M580.24,89.77c1.62-1,3.11-.54,4.37.77-.69.91-1.16,2.7-2.69,2.5C580,93.29,580.39,90.93,580.24,89.77Z" style="fill:#fff"/><path d="M543.89,57.42l0-2.12a.47.47,0,0,1,.19-.38,81.94,81.94,0,0,0,6.69-5.69,16,16,0,0,0,1.53-1.73,15.4,15.4,0,0,1,2.07-2.22,23.3,23.3,0,0,0,2.77-2.67,29.31,29.31,0,0,1,2.22-2.24c.37-.35.78-.7,1.16-1a14.11,14.11,0,0,0,2-2,7,7,0,0,0-2.08-.27c-.36,0-.73,0-1.13,0-.95,0-1.92-.07-2.85-.13-.76-.06-1.56-.12-2.38-.13a13.93,13.93,0,0,0-1.51-.07c-.63,0-1.28,0-1.9.06s-1.3,0-1.95,0a15.24,15.24,0,0,1-2-.12h-.24c-1.43,0-2.9.05-4.31.1l-1.61,0h-.09a6.71,6.71,0,0,0-.73.06,7.91,7.91,0,0,1-.85.06,2.07,2.07,0,0,1-1.58-.6.45.45,0,0,1-.12-.33.48.48,0,0,1,.15-.32c.16-.15.19-.39.21-.78a1.56,1.56,0,0,1,.8-1.53.47.47,0,0,1,.16,0,43.91,43.91,0,0,1,8.79.28,20.57,20.57,0,0,0,2.48-.1,16.8,16.8,0,0,1,3.39,0,25.45,25.45,0,0,0,2.61.19c.65,0,1.32.06,2,.12.22,0,.45,0,.72,0h0c.36,0,.72,0,1.09,0s.75,0,1.13,0a6.27,6.27,0,0,1,1.86.24l.13,0a6.41,6.41,0,0,0,1.51.27,1.66,1.66,0,0,0,1.09-.35.47.47,0,0,1,.51,0c.24.14.72.42,1,.55A.46.46,0,0,1,567,35c-.5,3.89-.86,7.35-1.12,10.54a34.13,34.13,0,0,0,.09,3.51,29.93,29.93,0,0,1,0,4.64,12.18,12.18,0,0,1,0,4.34c-.09.92-.08,1.87-.08,2.8a15.34,15.34,0,0,1-.66,5.47.47.47,0,0,1-.44.31h-.08l-1.29-.19a.44.44,0,0,1-.35-.28,9.82,9.82,0,0,1-.18-4.57,18.6,18.6,0,0,0,.18-1.95.22.22,0,0,1,0-.08,25.85,25.85,0,0,0,.33-4c0-.93,0-1.9.15-2.85a13.56,13.56,0,0,1-.16-2.83c0-.62,0-1.25,0-1.87a36.27,36.27,0,0,1,.13-5.22c.06-.88.13-1.78.16-2.67a77.16,77.16,0,0,0-10.79,10.28l-1.21,1.32c-.63.65-1.3,1.28-1.94,1.89a39.91,39.91,0,0,0-3,3,3.54,3.54,0,0,1-2.31,1.27.41.41,0,0,1-.34-.1A.42.42,0,0,1,543.89,57.42Z" style="fill:#fff"/><path d="M526.3,33.66l.76,0,1.59,0c1.83,0,4.11.16,5.45,1.45a.35.35,0,0,1-.1.59A14.6,14.6,0,0,1,531.29,37a1,1,0,0,1-.36.06.92.92,0,0,1-.33-.06c-.21-.08-.34-.22-.33-.39v-.13a12.46,12.46,0,0,1-3.22.42c-.52,0-1,.05-1.45.1a.93.93,0,0,1-.53-.09.39.39,0,0,1-.25-.33,3.6,3.6,0,0,1,.88-2.7A.82.82,0,0,1,526.3,33.66Z" style="fill:#fff"/><path d="M541,41.4a2.44,2.44,0,0,1-1.81-1.73.48.48,0,0,1,.17-.55l.29-.2.79-.56a.44.44,0,0,1,.29-.09h.84a.44.44,0,0,1,.44.4v.13a2.85,2.85,0,0,1-.6,2.46.45.45,0,0,1-.33.14Z" style="fill:#fff"/><path d="M535.31,41.37l-.18,0-1,.19h-.09a.45.45,0,0,1-.39-.23c-.78-1.47-.25-2.26.33-2.67a.45.45,0,0,1,.42-.05c.28.09.84.3,1.12.4a.45.45,0,0,1,.28.45c0,.48-.07,1-.12,1.45A.48.48,0,0,1,535.31,41.37Z" style="fill:#fff"/><path d="M525.4,41.41a2.25,2.25,0,0,0,.17-.47c.17-.52.41-1.3,1.19-1.3a.9.9,0,0,1,.28,0c1-.06,1,1,1,1.56,0,.14,0,.29,0,.37a.5.5,0,0,1-.14.39,1.28,1.28,0,0,1-.94.4,3,3,0,0,1-.9-.2,2.29,2.29,0,0,0-.37-.12.42.42,0,0,1-.3-.26A.43.43,0,0,1,525.4,41.41Z" style="fill:#fff"/><path d="M550.05,40.29a.51.51,0,0,1,.27-.09h1.43A8.49,8.49,0,0,0,554,40a.41.41,0,0,1,.41.09,2.19,2.19,0,0,1,.55,1.94c0,.12,0,.24,0,.36a.49.49,0,0,1-.14.32.47.47,0,0,1-.33.14,10,10,0,0,0-1.66.2,11.51,11.51,0,0,1-1.86.21,3.85,3.85,0,0,1-1.44-.25.42.42,0,0,1-.27-.44v0A2.75,2.75,0,0,1,550.05,40.29Z" style="fill:#fff"/><path d="M539.84,45.94a.44.44,0,0,1-.32-.15.48.48,0,0,1-.1-.33c.08-.82.18-1.58.31-2.32a.46.46,0,0,1,.46-.39,14.85,14.85,0,0,0,2.61-.35c.51-.09,1-.19,1.55-.26l0-.15a.48.48,0,0,1,.37-.38.45.45,0,0,1,.48.2c.3.5.63,1,.92,1.61a.41.41,0,0,1,0,.36.44.44,0,0,1-.25.27l-.32.15a9.63,9.63,0,0,1-2.11.77,6.53,6.53,0,0,0-1.36.44A5.77,5.77,0,0,1,540,46Z" style="fill:#fff"/><path d="M529.46,45.77a.47.47,0,0,1,.5-.39c.31,0,.64,0,1,0a30.66,30.66,0,0,0,5.38-.66l.37-.07a.45.45,0,0,1,.37.1c.86.74.4,1.66.09,2.28l-.06.12a.49.49,0,0,1-.38.27c-1.23.13-2.47.37-3.67.61s-2.25.43-3.39.57h-.06a.42.42,0,0,1-.44-.45.36.36,0,0,1,0-.11A20,20,0,0,1,529.46,45.77Z" style="fill:#fff"/><path d="M559.55,52.09a.46.46,0,0,1-.34.22,4.31,4.31,0,0,1-.71,0,5.22,5.22,0,0,1-.69,0,.45.45,0,0,1-.37-.34,3.84,3.84,0,0,1,.58-2.62l.34-.72c.12-.25.23-.52.34-.8a3.42,3.42,0,0,1,2.08-2.43.43.43,0,0,1,.55.28,1.91,1.91,0,0,0,.19.38c.23.44.64,1.18,0,1.81a6,6,0,0,0-1.13,2.24A9.46,9.46,0,0,1,559.55,52.09Z" style="fill:#fff"/><path d="M545.79,46.79a.45.45,0,0,1,.32.29c.16.45.31.91.47,1.37a.56.56,0,0,1,0,.36l-.49.93a.52.52,0,0,1-.3.24,2.52,2.52,0,0,1-.56.07,1.81,1.81,0,0,1-2-1.75.51.51,0,0,1,0-.17A2.16,2.16,0,0,1,545.79,46.79Z" style="fill:#fff"/><path d="M540,48.46l.48,0,.37,0h0a.43.43,0,0,1,.32.14.41.41,0,0,1,.12.33,3.64,3.64,0,0,1-1.12,2.41.44.44,0,0,1-.32.13.39.39,0,0,1-.25-.08c-.81-.54-1.2-1.06-1.21-1.59a1.08,1.08,0,0,1,.41-.85A1.4,1.4,0,0,1,540,48.46Z" style="fill:#fff"/><path d="M533.85,50.64a1.46,1.46,0,0,1,.4-.07c.64,0,.93.55,1.12.92l.17.28a.45.45,0,0,1,0,.42c-.15.38-.3.77-.46,1.16a.47.47,0,0,1-.44.3h-.23l-1.09,0a.44.44,0,0,1-.41-.38c0-.08,0-.17,0-.26C532.81,52.29,532.59,50.92,533.85,50.64Z" style="fill:#fff"/><path d="M554.61,60.5a.45.45,0,0,1-.26-.44,6.39,6.39,0,0,1,.68-2.14,7.32,7.32,0,0,0,.49-1.23c.24-.88.53-1.76.88-2.7a.49.49,0,0,1,.51-.31,1.73,1.73,0,0,0,.33,0h.22a1,1,0,0,1,.87.36.86.86,0,0,1,0,.86,25.77,25.77,0,0,0-1.08,3.61c-.14.59-.29,1.19-.46,1.77a.49.49,0,0,1-.47.35h-.42l-.39,0A2.14,2.14,0,0,1,554.61,60.5Z" style="fill:#fff"/><path d="M549.66,56a.47.47,0,0,1,0-.54,2.41,2.41,0,0,1,2.53-.78.44.44,0,0,1,.35.4c0,.08,0,.16,0,.25a2.27,2.27,0,0,1-.61,2.14.21.21,0,0,1-.1.06,1.32,1.32,0,0,1-.59.15c-.79,0-1.16-.75-1.43-1.29A2,2,0,0,0,549.66,56Z" style="fill:#fff"/><path d="M539.43,59.68a5.53,5.53,0,0,0,1-.9,3.66,3.66,0,0,1,2.42-1.39,2,2,0,0,1,.63.1.39.39,0,0,1,.23.16,1.37,1.37,0,0,1,.2,1.32,2.67,2.67,0,0,1-1.67,1.38,9,9,0,0,0-.83,1.3.46.46,0,0,1-.26.23c-.46.17-.95.35-1.59.56l-.15,0a.54.54,0,0,1-.21,0,.4.4,0,0,1-.21-.28,4,4,0,0,1,.2-2.19A.47.47,0,0,1,539.43,59.68Z" style="fill:#fff"/><path d="M547.26,60.35a1.9,1.9,0,0,1,.29-1.39,3.23,3.23,0,0,0,.18-.41.47.47,0,0,1,.54-.34,9.38,9.38,0,0,1,1.67.5.42.42,0,0,1,.28.43l-.06,1.14a.49.49,0,0,1-.27.41,3.07,3.07,0,0,0-.31.16,2.08,2.08,0,0,1-1.06.4,1.93,1.93,0,0,1-1.26-.9Z" style="fill:#fff"/><path d="M559.85,63.61l-1.16-.07a.44.44,0,0,1-.39-.32l-.27-.94a.47.47,0,0,1,.24-.54,1.58,1.58,0,0,0,.27-.23,1.33,1.33,0,0,1,1-.53,1,1,0,0,1,.24,0,.84.84,0,0,1,.77.33c.29.39.12.92,0,1.39a3.17,3.17,0,0,0-.11.45.46.46,0,0,1-.17.32.49.49,0,0,1-.31.11Z" style="fill:#fff"/><path d="M546.5,62.62a.42.42,0,0,1,.43.29c.2.58.39,1.16.58,1.75a.48.48,0,0,1-.2.54,1.61,1.61,0,0,1-.85.24,3.24,3.24,0,0,1-1-.22l-.25-.08a.43.43,0,0,1-.3-.34,2,2,0,0,1,.34-1.62A1.58,1.58,0,0,1,546.5,62.62Z" style="fill:#fff"/><path d="M554.58,62.75a1.2,1.2,0,0,1,1.07.65,1,1,0,0,1-.12,1,10.48,10.48,0,0,0-.41,1.44,13.27,13.27,0,0,1-.39,1.39.45.45,0,0,1-.34.3l-1.12.27h-.1a.45.45,0,0,1-.26-.08.42.42,0,0,1-.18-.31,5.2,5.2,0,0,1,.83-4A1.08,1.08,0,0,1,554.58,62.75Z" style="fill:#fff"/><path d="M559.26,69a.46.46,0,0,1-.27.09l-.12,0a6.11,6.11,0,0,1-.79-.27l-.43-.17a.44.44,0,0,1-.29-.5c0-.07,0-.15,0-.24.07-.6.22-1.73,1.22-1.73l.2,0A1.14,1.14,0,0,1,560,67,2,2,0,0,1,559.26,69Z" style="fill:#fff"/><path d="M563.39,71.16a.34.34,0,0,1,.05-.14c.3-.57.58-1.07.85-1.52a.45.45,0,0,1,.39-.23.42.42,0,0,1,.39.21c.13.2.36.6.48.8a.48.48,0,0,1,.07.26c0,.43-.06.86-.07,1.31a9.46,9.46,0,0,1-.65,3.75.47.47,0,0,1-.42.28H563.3a.45.45,0,0,1-.45-.42,13.26,13.26,0,0,1,.36-3.34Z" style="fill:#fff"/><path d="M557.4,71.94c.59,0,1.2,0,1.79.08a.43.43,0,0,1,.4.45,2.39,2.39,0,0,1-1.33,2.42.48.48,0,0,1-.4,0A2.15,2.15,0,0,1,557,73c0-.16,0-.33-.06-.48a.47.47,0,0,1,.47-.54Z" style="fill:#fff"/><path d="M595.79,438.84c.85,3.18-3,6.15-5.84,5.54-2.66-.57-4.84-3.19-6.5-5.16-3.73-4.42-4.91-10.34-7.35-15.45-.58-1.23,3.48.29,3.9.43a22.27,22.27,0,0,1,6.49,3.73c1.93,1.47,3.82,3,5.77,4.45,1.36,1,3.16,2.27,3.16,4.15a5.2,5.2,0,0,0,.33,2.18Z" style="fill:#fff"/><path d="M595.51,424.18c-.44,1.23-2.45,1.39-3.53,1.46s-6.76-.75-6.19-2.68c.74-2.52,9.08-2,9.73.46A1.22,1.22,0,0,1,595.51,424.18Z" style="fill:#fff"/><path d="M576.87,441.3a19.42,19.42,0,0,1-2.07.93c-.31.12-3.63-7.93.3-8.55,1.81-.29,2.16,1.8,2.25,3.14C577.41,437.72,577.77,440.85,576.87,441.3Z" style="fill:#fff"/><path d="M503.68,414.38c2.73,1.24,4.1,2.56,4.09,5.63-.5.16-.65.67-.95,1.05a3.34,3.34,0,0,1-2,0c0-.4,0-.8,0-1.2l1-.49c0-.49-.05-1-.09-1.46a3.8,3.8,0,0,0-2.35-.39c-.32.26-.67.51-1,.76a8.4,8.4,0,0,0-1.29,2.92,4.16,4.16,0,0,0,1.28,2,8.34,8.34,0,0,0,2,.52c4.39.77,9.16-.11,13.57-.18,2.51,0,5,.13,7.54.12,2,0,4.55-.67,6.47,0a7.46,7.46,0,0,0,.8,1.05c-.57,1.38-1.9,2.16-2.71,3.37a19.74,19.74,0,0,1-5.27,5.16,21,21,0,0,1-4,2.52l0,.19c.09-.38,15.07-.34,16.4-.45,2-.16,4,.13,6,0a7.28,7.28,0,0,0,2.85-.48c.15-.08,2-1.37,1.91-1.09,1.08-5,3.36-9.34,9.17-9.13,2,.06,3.84,1.06,4.17,3.26a7.9,7.9,0,0,1-2.13,5.91,7.12,7.12,0,0,1-2.62,2c-.24.1-2.67.71-2.75.4.09.36.19.72.28,1.08a5.23,5.23,0,0,0,4,4c.55,0,1.1,0,1.64-.05,1.22-.32,2.07-1.32,3.05-2a17.24,17.24,0,0,0,3.6-5.87c0-.17.11-.52.15-.69.86-1.71.57-3.63.16-5.42-.23-.56-.44-1.13-.64-1.7a10.54,10.54,0,0,0-3.4-3.75,6.24,6.24,0,0,0-6.26-1.47,7.2,7.2,0,0,0-4.91,4.06,17.9,17.9,0,0,1-3.19,3.6,14.29,14.29,0,0,1-3.32,1.32c-2.35.33-7.32.13-8-2.78-.46-1.84.19-6,2.72-6.25a4.54,4.54,0,0,0,1.56-.34c1.45,0,3.37-.15,4.21,1.28a4.17,4.17,0,0,1,1.1,3.92c0,.59-.26,1.54-1.07,1.27-.57-.31-.32-1-.39-1.52l-.63-.45a7.12,7.12,0,0,0-.08-1.46,2.82,2.82,0,0,0-1.54-1.07,2.76,2.76,0,0,0-2,2.89,5.61,5.61,0,0,0,4.68,2.45c1.75-.51,2.8-2.1,3.52-3.67,2.1-4.58,6.34-4.81,10.78-4.82a13.3,13.3,0,0,1,6.06,1.22c7.84,3.92,6.34,15.12,1.36,20.7-4.83,5.42-14.84,4.79-17.83-2.49.08.2-4.43.09-4.71.07-1.87-.11-3.74-.2-5.61-.28-3.79-.15-7.6-.23-11.4-.16-3.22.07-6.39.56-9.61.59a21.27,21.27,0,0,1-4.15-.57c-1.44-.24-4.07.65-4.23-1.33a17.25,17.25,0,0,1,3-2.16c1.58-.94,2.85-2.34,4.59-3,1.27-.71,2.6-1.3,3.92-1.91a52.31,52.31,0,0,0,5.83-3.5c-.76.46-2.78-.31-3.68-.33-2.06,0-4.06.6-6.11.64-2.39,0-4.78-.07-7.17-.14-4.09-.13-12.68.75-14-4.68a7,7,0,0,1,3.73-7.31,4.61,4.61,0,0,1,3.86.07Zm49.78,19.37c2.21-.34,6.54-3,2.94-5.13-.18-.1-.36-.19-.52-.26C552.36,426.83,553.82,433.69,553.46,433.75Z" style="fill:#fff"/><path d="M470.9,438.51a34.06,34.06,0,0,1-5.09,2.11c-4.16,1.35-9.13.71-13.38,0-3.52-.56-7-2.31-7.36-6.23a9.39,9.39,0,0,1,4.17-8.94,12.93,12.93,0,0,1,3.28-1.31c2.08-.57,3.94-1.08,6.06-.34,1.78.63,3.76,1.86,4.42,3.73.77,2.22-.05,5.64-2.11,6.88-1.73,1-4.34,1.06-5.78-.53-1.29-1.41-.21-2.78,1.36-3.1s3.42-.53,3.6-2.58c.23-2.68-3.56-2.94-5.46-2.62-3.62.59-5.42,4.87-4.72,8.19A7.7,7.7,0,0,0,454,437.6a12.15,12.15,0,0,0,4.69.64c1.46,0,2.93-.14,4.39-.26a19.68,19.68,0,0,0,8.2-2.23,13.76,13.76,0,0,0,3.8-3.33c1-1.31,2-2.75,3.06-4,1,1.3.68,2.86,1.87,4.08,1.47,1.49,4.7,3.24,6.85,2.63,3.92-1.09,7.29-3.81,11.44-4.19,2.72-.25,6.43,1.32,6.85,4.36.26,1.9-1.08,3.41-2.32,4.64a3.83,3.83,0,0,1-4.3.6c.07,0,1.76-1.29,1.95-1.42a3.34,3.34,0,0,0,1.5-1.67,2.53,2.53,0,0,0-2.08-3.27,7.67,7.67,0,0,0-3.95.59c-2,.71-3.75,1.91-5.7,2.73a16.38,16.38,0,0,1-6.4.93,10,10,0,0,1-4-.76c-1.51-.65-1.85-2-3-3A36.83,36.83,0,0,1,470.9,438.51Z" style="fill:#fff"/><path d="M491.63,428.94c.33.19.59.47.25.88s-1.65.39-2.08.5c-.76.18-1,.46-1.81.6a7.74,7.74,0,0,1-2.54-.16c-1.84-.31-3.46-1.19-3.56-3.25a2.32,2.32,0,0,1,1.05-1.94c1-.74,2.79.59,3.63,1.09a27.81,27.81,0,0,0,4.55,2.06A3.91,3.91,0,0,1,491.63,428.94Z" style="fill:#fff"/><path d="M493.88,425.88c0,.38,0,.76-.56.72s-1.28-1.12-1.61-1.41c-.59-.51-1-.58-1.55-1.13a7.66,7.66,0,0,1-1.34-2.16c-.81-1.68-1-3.51.6-4.79a2.32,2.32,0,0,1,2.18-.26c1.19.4,1.13,2.61,1.22,3.59a28.1,28.1,0,0,0,.95,4.9A3.19,3.19,0,0,1,493.88,425.88Z" style="fill:#fff"/><path d="M511,428.79c1,1.62.54,3.12-.76,4.37-.92-.69-2.71-1.15-2.51-2.68C507.47,428.52,509.83,428.94,511,428.79Z" style="fill:#fff"/><path d="M565.8,351.72a4.61,4.61,0,0,1-.07-3.86,7,7,0,0,1,7.31-3.72c5.43,1.28,4.54,9.87,4.68,14,.07,2.39.18,4.78.14,7.17,0,2.05-.7,4.05-.65,6.11,0,.9.79,2.92.34,3.68a52.31,52.31,0,0,0,3.5-5.83c.61-1.32,1.2-2.65,1.91-3.92.68-1.74,2.08-3,3-4.59a17.26,17.26,0,0,1,2.15-3c2,.15,1.1,2.78,1.34,4.22a21.27,21.27,0,0,1,.57,4.15c0,3.22-.53,6.39-.59,9.61-.07,3.8,0,7.61.16,11.4.08,1.87.17,3.75.28,5.61,0,.28.13,4.79-.07,4.71,7.28,3,7.91,13,2.49,17.83-5.59,5-16.78,6.48-20.7-1.36a13.3,13.3,0,0,1-1.22-6.06c0-4.44.23-8.68,4.82-10.78,1.57-.72,3.16-1.77,3.67-3.51a5.66,5.66,0,0,0-2.45-4.69,2.77,2.77,0,0,0-2.9,2,2.87,2.87,0,0,0,1.08,1.54,6.39,6.39,0,0,0,1.45.08l.45.63c.53.06,1.22-.18,1.53.39.26.81-.68,1-1.28,1.07a4.15,4.15,0,0,1-3.91-1.09c-1.43-.85-1.3-2.77-1.28-4.22a4.84,4.84,0,0,0,.34-1.56c.23-2.53,4.4-3.18,6.25-2.72,2.91.72,3.1,5.69,2.77,8a13.84,13.84,0,0,1-1.31,3.32,17.69,17.69,0,0,1-3.61,3.19,7.18,7.18,0,0,0-4,4.92,6.23,6.23,0,0,0,1.47,6.25,10.45,10.45,0,0,0,3.75,3.4c.57.2,1.14.41,1.7.64,1.79.41,3.7.7,5.42-.16l.69-.15a17.24,17.24,0,0,0,5.87-3.6c.72-1,1.71-1.83,2-3.05.05-.54,0-1.09.05-1.64a5.23,5.23,0,0,0-4-4l-1.08-.28c.31.08-.31,2.52-.4,2.75a7.23,7.23,0,0,1-2,2.62,7.91,7.91,0,0,1-5.92,2.13c-2.19-.33-3.19-2.15-3.26-4.16-.2-5.81,4.11-8.1,9.14-9.18-.28.06,1-1.76,1.09-1.91a7.28,7.28,0,0,0,.48-2.85c.1-2-.18-4,0-6,.11-1.33.08-16.31.46-16.4l-.19,0a21.85,21.85,0,0,1-2.52,4,19.89,19.89,0,0,1-5.16,5.27c-1.22.81-2,2.14-3.37,2.71a6.35,6.35,0,0,0-1.06-.79c-.65-1.93,0-4.49,0-6.48,0-2.52-.16-5-.12-7.54.07-4.41,1-9.18.18-13.57a7.92,7.92,0,0,0-.53-2,4.08,4.08,0,0,0-2-1.28,8.4,8.4,0,0,0-2.92,1.29c-.25.35-.5.7-.76,1a3.79,3.79,0,0,0,.38,2.35l1.47.09c.16-.33.32-.67.49-1l1.2,0a3.39,3.39,0,0,1,0,2c-.38.31-.89.46-1,.95-3.07,0-4.4-1.35-5.64-4.08A.14.14,0,0,0,565.8,351.72Zm14,52.26a3.6,3.6,0,0,0,.26.52c2.09,3.6,4.79-.73,5.13-2.94C585.14,401.92,578.28,400.46,579.81,404Z" style="fill:#fff"/><path d="M590,319a35.15,35.15,0,0,0,2.11-5.09c1.35-4.16.71-9.13,0-13.38-.56-3.52-2.31-7-6.23-7.36a9.38,9.38,0,0,0-8.94,4.17,13.34,13.34,0,0,0-1.32,3.28c-.56,2.08-1.08,3.94-.33,6.06.63,1.78,1.86,3.76,3.72,4.41,2.22.78,5.65,0,6.89-2.1,1-1.73,1.06-4.34-.53-5.78-1.41-1.29-2.79-.21-3.1,1.36s-.53,3.42-2.58,3.6c-2.68.23-2.94-3.56-2.63-5.46.6-3.62,4.88-5.42,8.19-4.72a7.68,7.68,0,0,1,3.8,4.09,12.18,12.18,0,0,1,.64,4.69c0,1.46-.14,2.93-.26,4.39a19.68,19.68,0,0,1-2.23,8.2,13.76,13.76,0,0,1-3.33,3.8c-1.31,1-2.76,2-4,3.06,1.3,1,2.86.68,4.07,1.88,1.5,1.46,3.24,4.69,2.64,6.84-1.09,3.93-3.81,7.29-4.19,11.44-.26,2.72,1.32,6.43,4.36,6.85,1.9.26,3.41-1.08,4.64-2.32a3.84,3.84,0,0,0,.6-4.31c0,.08-1.3,1.77-1.42,2a3.32,3.32,0,0,1-1.68,1.5A2.53,2.53,0,0,1,585.6,348a7.77,7.77,0,0,1,.58-4c.71-2,1.92-3.75,2.74-5.7a16.35,16.35,0,0,0,.93-6.4,10.07,10.07,0,0,0-.76-4c-.65-1.51-2-1.85-3-3A36.83,36.83,0,0,0,590,319Z" style="fill:#fff"/><path d="M580.16,339.22a28.64,28.64,0,0,0-2-4.55c-.5-.85-1.83-2.61-1.09-3.63A2.29,2.29,0,0,1,579,330c2.07.1,2.95,1.72,3.26,3.56a7.74,7.74,0,0,1,.16,2.54c-.14.77-.43,1.06-.61,1.81-.1.43-.13,1.78-.5,2.08s-.68.08-.87-.25A3.57,3.57,0,0,1,580.16,339.22Z" style="fill:#fff"/><path d="M576.79,341.87a28.46,28.46,0,0,0-4.9-.95c-1-.09-3.19,0-3.59-1.22a2.32,2.32,0,0,1,.26-2.19c1.28-1.62,3.11-1.4,4.79-.59a7.9,7.9,0,0,1,2.16,1.34c.55.57.62,1,1.13,1.55.29.33,1.37,1.13,1.41,1.61s-.34.6-.72.56A3.19,3.19,0,0,1,576.79,341.87Z" style="fill:#fff"/><path d="M580.24,359.08c1.62,1,3.11.54,4.36-.77-.68-.91-1.14-2.7-2.67-2.5C580,355.57,580.39,357.93,580.24,359.08Z" style="fill:#fff"/><path d="M543.9,391.43c0,.71,0,1.42,0,2.12a.47.47,0,0,0,.19.38,81.94,81.94,0,0,1,6.69,5.69,16,16,0,0,1,1.53,1.73,14.9,14.9,0,0,0,2.07,2.22,23.3,23.3,0,0,1,2.77,2.67,29.31,29.31,0,0,0,2.22,2.24c.37.36.77.7,1.16,1a14.13,14.13,0,0,1,2,2,6.82,6.82,0,0,1-2.09.27c-.37,0-.73,0-1.13,0-1,0-1.92.06-2.84.13s-1.57.11-2.39.13c-.46,0-1,.06-1.51.06s-1.28,0-1.9-.05-1.3-.06-1.95-.06a13.62,13.62,0,0,0-2,.13h-.24c-1.43,0-2.9-.06-4.31-.11l-1.61,0h-.09a6.51,6.51,0,0,1-.73-.06,7.91,7.91,0,0,0-.85-.06,2.07,2.07,0,0,0-1.58.6.45.45,0,0,0-.12.33.49.49,0,0,0,.16.33c.15.14.18.38.2.77a1.55,1.55,0,0,0,.8,1.53.47.47,0,0,0,.17,0,44,44,0,0,0,8.79-.28,20.51,20.51,0,0,1,2.47.11,17.53,17.53,0,0,0,3.39,0,25.45,25.45,0,0,1,2.61-.19c.65,0,1.32-.06,2-.12.22,0,.45,0,.72,0h0c.36,0,.72,0,1.09,0s.75,0,1.13,0a6.27,6.27,0,0,0,1.86-.24l.13,0a6.4,6.4,0,0,1,1.52-.27,1.65,1.65,0,0,1,1.08.35.47.47,0,0,0,.51,0l1-.55a.46.46,0,0,0,.22-.44c-.49-3.9-.86-7.36-1.13-10.55,0-1.17,0-2.36.1-3.51a31.21,31.21,0,0,0,0-4.64,12.42,12.42,0,0,0,0-4.34,26.11,26.11,0,0,1-.08-2.8,15.34,15.34,0,0,0-.66-5.47.47.47,0,0,0-.44-.31h-.08l-1.29.19a.44.44,0,0,0-.35.28,9.82,9.82,0,0,0-.18,4.57c.08.65.16,1.32.18,2a.22.22,0,0,0,0,.08,25.85,25.85,0,0,1,.33,4c0,.93,0,1.9.15,2.85a14.34,14.34,0,0,0-.16,2.84,16.55,16.55,0,0,1,0,1.86,39.35,39.35,0,0,0,.14,5.22c.07.88.13,1.78.16,2.67a76,76,0,0,1-10.79-10.28l-1.21-1.32c-.63-.65-1.3-1.28-1.94-1.89a39.62,39.62,0,0,1-2.95-3,3.58,3.58,0,0,0-2.32-1.28.43.43,0,0,0-.49.43Z" style="fill:#fff"/><path d="M526.3,415.2l.76,0,1.6,0c1.82,0,4.1-.16,5.44-1.45a.35.35,0,0,0-.1-.59,14.6,14.6,0,0,0-2.71-1.36,1,1,0,0,0-.36-.06.92.92,0,0,0-.33.06c-.21.08-.34.23-.33.39v.13a12.52,12.52,0,0,0-3.22-.42c-.52,0-1-.05-1.45-.1a.86.86,0,0,0-.53.1.4.4,0,0,0-.25.32,3.59,3.59,0,0,0,.88,2.7A.89.89,0,0,0,526.3,415.2Z" style="fill:#fff"/><path d="M541,407.45a2.44,2.44,0,0,0-1.81,1.74.47.47,0,0,0,.17.54l.28.2.81.56a.39.39,0,0,0,.28.09h.84a.44.44,0,0,0,.44-.4V410a2.87,2.87,0,0,0-.59-2.46.49.49,0,0,0-.34-.14Z" style="fill:#fff"/><path d="M535.31,407.48l-.18,0-1-.19h-.09a.45.45,0,0,0-.39.23c-.78,1.47-.25,2.26.33,2.67a.45.45,0,0,0,.42.05c.28-.09.84-.3,1.12-.4a.45.45,0,0,0,.28-.45c0-.48-.07-1-.12-1.45A.48.48,0,0,0,535.31,407.48Z" style="fill:#fff"/><path d="M525.4,407.44a2.25,2.25,0,0,1,.17.47c.17.52.41,1.3,1.19,1.3a.9.9,0,0,0,.28,0c1,.06,1-1,1-1.56a2.09,2.09,0,0,1,0-.37.51.51,0,0,0-.14-.39,1.28,1.28,0,0,0-.94-.4,2.83,2.83,0,0,0-.89.2,2.78,2.78,0,0,1-.38.12.42.42,0,0,0-.3.26A.46.46,0,0,0,525.4,407.44Z" style="fill:#fff"/><path d="M550.05,408.56a.44.44,0,0,0,.27.09h1.43a8.1,8.1,0,0,1,2.2.22.44.44,0,0,0,.41-.1,2.19,2.19,0,0,0,.55-1.94c0-.12,0-.24,0-.35a.45.45,0,0,0-.14-.33.47.47,0,0,0-.33-.14,10,10,0,0,1-1.66-.2,11.65,11.65,0,0,0-1.85-.21,3.87,3.87,0,0,0-1.45.26.41.41,0,0,0-.27.43v.06A2.73,2.73,0,0,0,550.05,408.56Z" style="fill:#fff"/><path d="M539.84,402.91a.42.42,0,0,0-.31.15.44.44,0,0,0-.11.33c.08.82.18,1.58.31,2.32a.46.46,0,0,0,.46.39,14.85,14.85,0,0,1,2.61.35c.51.09,1,.2,1.55.26l0,.15a.5.5,0,0,0,.37.38.45.45,0,0,0,.48-.2c.3-.5.63-1,.92-1.6a.44.44,0,0,0,0-.37.44.44,0,0,0-.25-.27l-.32-.15a10,10,0,0,0-2.11-.77,6.72,6.72,0,0,1-1.36-.44,5.76,5.76,0,0,0-2.13-.53Z" style="fill:#fff"/><path d="M529.46,403.08a.48.48,0,0,0,.5.39c.31,0,.64,0,1,0a30.54,30.54,0,0,1,5.38.66l.37.07a.45.45,0,0,0,.37-.1c.86-.74.4-1.66.09-2.28l-.06-.12a.5.5,0,0,0-.38-.27c-1.23-.12-2.47-.37-3.67-.6s-2.24-.44-3.39-.58h-.06a.42.42,0,0,0-.44.45.36.36,0,0,0,0,.11A20,20,0,0,0,529.46,403.08Z" style="fill:#fff"/><path d="M559.55,396.76a.49.49,0,0,0-.34-.22,4.31,4.31,0,0,0-.71-.05,5.32,5.32,0,0,0-.69,0,.45.45,0,0,0-.37.34,3.84,3.84,0,0,0,.58,2.62c.11.23.23.46.34.73s.23.51.34.8c.39,1,.82,2.06,2.08,2.42a.43.43,0,0,0,.55-.28,2.22,2.22,0,0,1,.19-.38,1.4,1.4,0,0,0,0-1.8,6.12,6.12,0,0,1-1.13-2.25A9.16,9.16,0,0,0,559.55,396.76Z" style="fill:#fff"/><path d="M545.79,402.06a.45.45,0,0,0,.32-.29c.16-.45.32-.91.47-1.37a.43.43,0,0,0,0-.35l-.49-.94a.52.52,0,0,0-.3-.24,2.51,2.51,0,0,0-.55-.07,1.81,1.81,0,0,0-2,1.75.33.33,0,0,0,0,.17A2.15,2.15,0,0,0,545.79,402.06Z" style="fill:#fff"/><path d="M540,400.39l.48,0,.37,0h0a.43.43,0,0,0,.32-.14.41.41,0,0,0,.12-.33,3.72,3.72,0,0,0-1.11-2.41.46.46,0,0,0-.33-.13.39.39,0,0,0-.25.08c-.81.54-1.2,1.07-1.21,1.59a1,1,0,0,0,.41.85A1.4,1.4,0,0,0,540,400.39Z" style="fill:#fff"/><path d="M533.85,398.21a1.46,1.46,0,0,0,.4.07c.64,0,.93-.55,1.12-.92l.17-.28a.45.45,0,0,0,0-.42l-.46-1.16a.47.47,0,0,0-.44-.3h-.23l-1.09.05a.45.45,0,0,0-.41.38,2.34,2.34,0,0,1,0,.26C532.81,396.56,532.59,397.93,533.85,398.21Z" style="fill:#fff"/><path d="M554.61,388.35a.44.44,0,0,0-.26.44,6.39,6.39,0,0,0,.68,2.14,7.32,7.32,0,0,1,.49,1.23c.24.88.53,1.76.88,2.7a.48.48,0,0,0,.51.31,1.73,1.73,0,0,1,.33,0h.22a1,1,0,0,0,.88-.36.87.87,0,0,0-.05-.85,26.31,26.31,0,0,1-1.08-3.62c-.15-.59-.29-1.18-.46-1.77a.49.49,0,0,0-.47-.35h-.42l-.39,0A2.14,2.14,0,0,0,554.61,388.35Z" style="fill:#fff"/><path d="M549.66,392.84a.45.45,0,0,0,0,.53,2.41,2.41,0,0,0,2.53.78.44.44,0,0,0,.35-.4,2.29,2.29,0,0,1,0-.25,2.27,2.27,0,0,0-.61-2.14.21.21,0,0,0-.1-.06,1.31,1.31,0,0,0-.59-.14c-.79,0-1.16.74-1.43,1.29C549.8,392.59,549.73,392.73,549.66,392.84Z" style="fill:#fff"/><path d="M539.44,389.17a6.24,6.24,0,0,1,1,.9,3.63,3.63,0,0,0,2.4,1.4,2.11,2.11,0,0,0,.65-.11.36.36,0,0,0,.22-.16,1.38,1.38,0,0,0,.2-1.31,2.69,2.69,0,0,0-1.66-1.39,7.83,7.83,0,0,1-.84-1.3.51.51,0,0,0-.25-.23c-.47-.17-1-.35-1.6-.56l-.15,0a.42.42,0,0,0-.21.06.4.4,0,0,0-.22.27,4.1,4.1,0,0,0,.21,2.19A.45.45,0,0,0,539.44,389.17Z" style="fill:#fff"/><path d="M547.27,388.51a1.83,1.83,0,0,0,.28,1.38,4,4,0,0,1,.18.41.48.48,0,0,0,.55.34,10.43,10.43,0,0,0,1.66-.49.43.43,0,0,0,.28-.43c0-.38,0-.77-.06-1.15a.51.51,0,0,0-.27-.41,2.19,2.19,0,0,1-.3-.16,2.15,2.15,0,0,0-1.07-.4,1,1,0,0,0-.77.37A1,1,0,0,0,547.27,388.51Z" style="fill:#fff"/><path d="M559.85,385.24l-1.16.08a.43.43,0,0,0-.39.31l-.27.94a.47.47,0,0,0,.24.54,1.65,1.65,0,0,1,.26.23,1.4,1.4,0,0,0,1,.53,1,1,0,0,0,.24,0,.84.84,0,0,0,.77-.33c.29-.39.12-.92,0-1.39a3.17,3.17,0,0,1-.11-.45.46.46,0,0,0-.17-.32.47.47,0,0,0-.31-.11Z" style="fill:#fff"/><path d="M546.5,386.23a.41.41,0,0,0,.43-.29c.2-.58.39-1.16.58-1.75a.47.47,0,0,0-.2-.54,1.61,1.61,0,0,0-.85-.24,3.31,3.31,0,0,0-1,.22l-.25.08a.45.45,0,0,0-.3.34,2,2,0,0,0,.34,1.62A1.58,1.58,0,0,0,546.5,386.23Z" style="fill:#fff"/><path d="M554.58,386.1a1.2,1.2,0,0,0,1.07-.65,1,1,0,0,0-.11-1,9.45,9.45,0,0,1-.42-1.43,12.78,12.78,0,0,0-.39-1.4.49.49,0,0,0-.34-.3l-1.12-.27h-.11a.49.49,0,0,0-.25.08.42.42,0,0,0-.18.31,5.19,5.19,0,0,0,.83,4A1.08,1.08,0,0,0,554.58,386.1Z" style="fill:#fff"/><path d="M559.26,379.87a.47.47,0,0,0-.27-.1l-.12,0a6.12,6.12,0,0,0-.79.28l-.43.16a.44.44,0,0,0-.29.5q0,.11,0,.24c.08.6.23,1.73,1.23,1.73h.2a1.15,1.15,0,0,0,1.16-.83A2,2,0,0,0,559.26,379.87Z" style="fill:#fff"/><path d="M563.39,377.69a.58.58,0,0,0,.05.14c.3.57.58,1.07.85,1.52a.45.45,0,0,0,.39.23.44.44,0,0,0,.4-.21c.12-.2.36-.59.48-.8a.45.45,0,0,0,.05-.26c0-.43-.05-.86-.06-1.31a9.28,9.28,0,0,0-.65-3.75.47.47,0,0,0-.43-.28H563.3a.44.44,0,0,0-.45.41,13.21,13.21,0,0,0,.36,3.34Z" style="fill:#fff"/><path d="M557.4,376.92c.59,0,1.2,0,1.79-.09a.45.45,0,0,0,.41-.45,2.43,2.43,0,0,0-1.34-2.42.51.51,0,0,0-.17,0,.46.46,0,0,0-.23.06,2.17,2.17,0,0,0-.87,1.9c0,.16,0,.33-.06.48a.48.48,0,0,0,.11.38A.53.53,0,0,0,557.4,376.92Z" style="fill:#fff"/><path d="M6.06,438.71a5.36,5.36,0,0,0,.33-2.18c0-1.88,1.8-3.15,3.16-4.15,1.95-1.44,3.83-3,5.77-4.45a22.14,22.14,0,0,1,6.49-3.73c.42-.14,4.48-1.66,3.89-.43-2.43,5.11-3.62,11-7.34,15.45-1.66,2-3.84,4.59-6.5,5.16C9,445,5.17,442,6,438.84A.69.69,0,0,0,6.06,438.71Z" style="fill:#fff"/><path d="M6.3,424.18c.43,1.23,2.45,1.39,3.52,1.46s6.76-.76,6.2-2.68c-.75-2.52-9.08-2-9.74.46A1.3,1.3,0,0,0,6.3,424.18Z" style="fill:#fff"/><path d="M24.94,441.3a18.56,18.56,0,0,0,2.07.93c.31.12,3.63-7.93-.3-8.55-1.82-.29-2.16,1.8-2.26,3.14C24.39,437.72,24,440.85,24.94,441.3Z" style="fill:#fff"/><path d="M98.18,414.35a4.61,4.61,0,0,1,3.86-.07,7,7,0,0,1,3.73,7.31c-1.28,5.43-9.87,4.55-14,4.68-2.39.07-4.78.18-7.17.14-2,0-4-.7-6.11-.65-.9,0-2.92.8-3.68.34a51.41,51.41,0,0,0,5.83,3.5c1.32.61,2.65,1.2,3.92,1.91,1.74.69,3,2.09,4.59,3a16.79,16.79,0,0,1,3,2.16c-.15,2-2.78,1.09-4.22,1.33a21.27,21.27,0,0,1-4.15.57c-3.22,0-6.4-.52-9.61-.59-3.8-.07-7.61,0-11.41.16-1.86.08-3.74.17-5.61.28-.27,0-4.78.13-4.7-.07-3,7.28-13,7.91-17.84,2.49-5-5.58-6.48-16.78,1.37-20.7A13.28,13.28,0,0,1,42,419c4.44,0,8.68.24,10.78,4.82.71,1.57,1.76,3.16,3.51,3.67A5.61,5.61,0,0,0,61,425a2.78,2.78,0,0,0-1.95-2.89,2.88,2.88,0,0,0-1.55,1.07,7.9,7.9,0,0,0-.08,1.46l-.62.45c-.07.52.18,1.21-.39,1.52-.81.26-1-.68-1.07-1.28a4.16,4.16,0,0,1,1.09-3.91c.84-1.43,2.77-1.29,4.22-1.28a4.53,4.53,0,0,0,1.55.34c2.54.23,3.19,4.41,2.73,6.25-.72,2.91-5.69,3.1-8,2.78a14.29,14.29,0,0,1-3.32-1.32,17.4,17.4,0,0,1-3.19-3.61,7.21,7.21,0,0,0-4.92-4.05A6.25,6.25,0,0,0,39.21,422a10.72,10.72,0,0,0-3.4,3.75c-.19.57-.41,1.14-.63,1.7-.41,1.79-.7,3.71.15,5.42.05.17.12.52.15.69a17.42,17.42,0,0,0,3.61,5.87c1,.72,1.83,1.72,3,2,.53.05,1.09,0,1.64.05a5.21,5.21,0,0,0,4-4c.1-.36.19-.72.28-1.08-.08.31-2.51-.3-2.75-.4a7.09,7.09,0,0,1-2.61-2,7.91,7.91,0,0,1-2.13-5.92c.32-2.19,2.14-3.19,4.16-3.25,5.81-.21,8.1,4.1,9.18,9.13-.06-.28,1.76,1,1.91,1.09a7.25,7.25,0,0,0,2.85.48c2,.11,4-.18,6,0,1.33.1,16.3.07,16.4.45l0-.19a20.71,20.71,0,0,1-4-2.52,19.74,19.74,0,0,1-5.27-5.16c-.81-1.21-2.15-2-2.71-3.37a6.71,6.71,0,0,0,.79-1.05c1.92-.66,4.48,0,6.48,0,2.51,0,5-.15,7.54-.12,4.41.07,9.17,1,13.56.18a8.3,8.3,0,0,0,2-.52,4.3,4.3,0,0,0,1.28-2,8.24,8.24,0,0,0-1.3-2.92c-.34-.25-.69-.5-1-.76a3.84,3.84,0,0,0-2.36.39c0,.48-.06,1-.08,1.46l1,.49c0,.4,0,.8,0,1.2a3.31,3.31,0,0,1-2,0c-.3-.38-.45-.89-.95-1.05,0-3.07,1.36-4.39,4.09-5.63Zm-52.25,14a5,5,0,0,0-.52.26c-3.6,2.1.73,4.79,2.93,5.13C48,433.69,49.45,426.83,45.93,428.36Z" style="fill:#fff"/><path d="M130.9,438.51a34.62,34.62,0,0,0,5.1,2.11c4.16,1.35,9.12.71,13.38,0,3.52-.56,7-2.31,7.35-6.23a9.38,9.38,0,0,0-4.16-8.94,12.93,12.93,0,0,0-3.28-1.31c-2.08-.57-3.94-1.08-6.07-.34-1.78.63-3.75,1.86-4.41,3.73-.78,2.22,0,5.64,2.1,6.88a4.76,4.76,0,0,0,5.79-.53c1.29-1.41.21-2.78-1.36-3.1s-3.42-.53-3.6-2.58c-.23-2.68,3.56-2.94,5.46-2.62,3.62.59,5.42,4.87,4.72,8.18a7.67,7.67,0,0,1-4.1,3.8,12.1,12.1,0,0,1-4.68.64c-1.46,0-2.93-.14-4.39-.26a19.64,19.64,0,0,1-8.2-2.23,13.76,13.76,0,0,1-3.8-3.33c-1-1.31-2-2.75-3.06-4-1,1.3-.68,2.86-1.88,4.08-1.46,1.49-4.7,3.24-6.84,2.63-3.93-1.09-7.29-3.81-11.44-4.19-2.72-.26-6.44,1.32-6.85,4.36-.26,1.9,1.08,3.41,2.31,4.64a3.84,3.84,0,0,0,4.31.6c-.07,0-1.76-1.29-2-1.42a3.36,3.36,0,0,1-1.51-1.67,2.54,2.54,0,0,1,2.09-3.27,7.68,7.68,0,0,1,3.95.59c2,.71,3.75,1.91,5.7,2.73a16.32,16.32,0,0,0,6.4.93,10,10,0,0,0,4-.76c1.51-.65,1.85-2,3-3A37.18,37.18,0,0,0,130.9,438.51Z" style="fill:#fff"/><path d="M110.69,428.72a28.2,28.2,0,0,0,4.55-2.06c.84-.5,2.61-1.83,3.63-1.09a2.34,2.34,0,0,1,1,1.93c-.11,2.07-1.72,2.95-3.56,3.26a7.78,7.78,0,0,1-2.54.16c-.78-.14-1-.42-1.82-.6-.42-.11-1.77-.14-2.07-.5s-.08-.69.25-.88A3.41,3.41,0,0,1,110.69,428.72Z" style="fill:#fff"/><path d="M108,425.34a28.12,28.12,0,0,0,1-4.9c.09-1,0-3.19,1.22-3.59a2.32,2.32,0,0,1,2.18.26c1.63,1.28,1.4,3.11.59,4.79a7.44,7.44,0,0,1-1.34,2.16c-.56.55-1,.62-1.54,1.13-.33.29-1.13,1.37-1.61,1.41s-.6-.34-.56-.72A3.27,3.27,0,0,1,108,425.34Z" style="fill:#fff"/><path d="M90.83,428.79c-1,1.62-.54,3.12.76,4.37.92-.69,2.7-1.15,2.5-2.68C94.34,428.52,92,428.94,90.83,428.79Z" style="fill:#fff"/><path d="M36,351.78c-1.24,2.73-2.56,4.1-5.63,4.08-.16-.49-.67-.64-1.05-.95a3.31,3.31,0,0,1,0-2l1.2,0c.16.34.33.68.49,1,.49,0,1-.05,1.46-.09a3.72,3.72,0,0,0,.38-2.35c-.25-.32-.5-.67-.75-1a8.4,8.4,0,0,0-2.92-1.29,4.08,4.08,0,0,0-2,1.28,7.92,7.92,0,0,0-.53,2c-.77,4.39.11,9.16.18,13.57,0,2.51-.13,5-.12,7.53,0,2,.67,4.56,0,6.49a6.71,6.71,0,0,0-1.05.79c-1.38-.57-2.16-1.9-3.37-2.71a19.59,19.59,0,0,1-5.16-5.27,21.33,21.33,0,0,1-2.52-4l-.19,0c.38.09.34,15.07.45,16.4.16,2-.12,4,0,6a7.1,7.1,0,0,0,.48,2.85c.08.15,1.37,2,1.09,1.91,5,1.08,9.34,3.37,9.13,9.17-.07,2-1.06,3.84-3.26,4.17a7.89,7.89,0,0,1-5.91-2.13,7.12,7.12,0,0,1-2-2.62c-.1-.23-.71-2.67-.41-2.75l-1.08.28a5.21,5.21,0,0,0-4,4c0,.55,0,1.1.05,1.64.32,1.22,1.32,2.07,2,3.05a17.24,17.24,0,0,0,5.87,3.6l.69.15c1.71.86,3.63.57,5.42.16.56-.23,1.13-.44,1.7-.64a10.54,10.54,0,0,0,3.75-3.4,6.25,6.25,0,0,0,1.47-6.25,7.22,7.22,0,0,0-4.06-4.92,17.64,17.64,0,0,1-3.6-3.19A13.86,13.86,0,0,1,20.86,393c-.33-2.35-.13-7.32,2.77-8,1.85-.46,6,.19,6.26,2.72a4.59,4.59,0,0,0,.34,1.56c0,1.45.15,3.37-1.28,4.22A4.16,4.16,0,0,1,25,394.56c-.6,0-1.55-.26-1.28-1.07.31-.57,1-.33,1.52-.39l.46-.63a6.42,6.42,0,0,0,1.45-.08,2.81,2.81,0,0,0,1.07-1.54,2.75,2.75,0,0,0-2.89-2,5.66,5.66,0,0,0-2.45,4.69c.51,1.74,2.1,2.79,3.66,3.51,4.59,2.1,4.82,6.34,4.83,10.78a13.3,13.3,0,0,1-1.22,6.06c-3.92,7.84-15.12,6.34-20.7,1.36C4.07,410.47,4.7,400.46,12,397.47c-.2.08-.08-4.43-.07-4.71.1-1.87.2-3.74.28-5.61.15-3.8.23-7.6.16-11.4-.06-3.22-.56-6.39-.6-9.61a22.07,22.07,0,0,1,.58-4.15c.24-1.44-.66-4.07,1.34-4.22a17.26,17.26,0,0,1,2.15,3c.95,1.58,2.34,2.85,3,4.59.71,1.27,1.3,2.6,1.91,3.92a52.31,52.31,0,0,0,3.5,5.83c-.45-.76.31-2.78.33-3.68.05-2.06-.6-4.06-.64-6.11,0-2.39.06-4.79.14-7.17.14-4.09-.75-12.68,4.67-14a7,7,0,0,1,7.32,3.72,4.57,4.57,0,0,1-.08,3.86A.14.14,0,0,1,36,351.78ZM16.62,401.56c.33,2.21,3,6.54,5.11,2.94A4.35,4.35,0,0,0,22,404C23.53,400.46,16.67,401.92,16.62,401.56Z" style="fill:#fff"/><path d="M11.85,319a34.81,34.81,0,0,1-2.11-5.1c-1.35-4.15-.71-9.12,0-13.37.56-3.52,2.31-7,6.23-7.36a9.39,9.39,0,0,1,8.94,4.17,13.74,13.74,0,0,1,1.32,3.28c.56,2.08,1.07,3.94.33,6.06-.63,1.78-1.86,3.76-3.73,4.41-2.22.78-5.65,0-6.88-2.1-1-1.73-1.06-4.34.53-5.78,1.41-1.29,2.78-.21,3.1,1.36s.53,3.42,2.57,3.59c2.69.24,2.94-3.55,2.63-5.45-.59-3.62-4.87-5.42-8.18-4.72a7.65,7.65,0,0,0-3.8,4.09,12.13,12.13,0,0,0-.65,4.68c0,1.47.15,2.94.27,4.4a19.68,19.68,0,0,0,2.23,8.2,13.6,13.6,0,0,0,3.33,3.8c1.31,1,2.75,2,4,3.06-1.3,1-2.86.68-4.08,1.88-1.5,1.46-3.24,4.69-2.64,6.84,1.09,3.93,3.82,7.29,4.2,11.44.26,2.72-1.32,6.43-4.36,6.85-1.9.26-3.41-1.08-4.65-2.32a3.84,3.84,0,0,1-.59-4.31c0,.08,1.3,1.77,1.42,2a3.32,3.32,0,0,0,1.68,1.5A2.53,2.53,0,0,0,16.21,348a7.77,7.77,0,0,0-.59-4c-.71-2-1.91-3.76-2.73-5.7a16,16,0,0,1-.93-6.41,10,10,0,0,1,.76-4c.64-1.51,2-1.85,3-3A36.17,36.17,0,0,1,11.85,319Z" style="fill:#fff"/><path d="M21.42,339.73c-.19.33-.47.59-.88.25s-.39-1.65-.49-2.08c-.19-.75-.47-1-.61-1.81a7.48,7.48,0,0,1,.16-2.54c.31-1.84,1.19-3.46,3.26-3.56A2.29,2.29,0,0,1,24.79,331c.74,1-.6,2.78-1.09,3.63a29.61,29.61,0,0,0-2.06,4.55A3.91,3.91,0,0,1,21.42,339.73Z" style="fill:#fff"/><path d="M24.48,342c-.38,0-.76,0-.72-.56s1.12-1.28,1.41-1.61c.51-.59.58-1,1.13-1.55a7.9,7.9,0,0,1,2.16-1.34c1.68-.81,3.51-1,4.79.59a2.35,2.35,0,0,1,.26,2.19c-.4,1.2-2.61,1.13-3.59,1.21a29.08,29.08,0,0,0-4.9,1A3.19,3.19,0,0,1,24.48,342Z" style="fill:#fff"/><path d="M21.57,359.08c-1.62,1-3.11.54-4.37-.77.69-.91,1.15-2.7,2.68-2.5C21.83,355.57,21.42,357.93,21.57,359.08Z" style="fill:#fff"/><path d="M57.91,391.43c0,.71,0,1.42,0,2.12a.47.47,0,0,1-.19.38,83.49,83.49,0,0,0-6.68,5.69,17.24,17.24,0,0,0-1.54,1.73,14.82,14.82,0,0,1-2.06,2.22,23.3,23.3,0,0,0-2.77,2.67,31.27,31.27,0,0,1-2.22,2.24c-.38.35-.78.7-1.16,1a13.63,13.63,0,0,0-2,2,6.79,6.79,0,0,0,2.09.27c.36,0,.73,0,1.13,0,1,0,1.92.06,2.84.13.77.05,1.57.11,2.39.12a13.81,13.81,0,0,0,1.51.07c.63,0,1.27,0,1.9-.05s1.3-.06,2-.06a15.35,15.35,0,0,1,2,.12h.24c1.43,0,2.9-.05,4.31-.1l1.61,0h.09a6.35,6.35,0,0,0,.72-.06,8.1,8.1,0,0,1,.86-.06,2.05,2.05,0,0,1,1.57.6.46.46,0,0,1,.13.33.54.54,0,0,1-.16.33c-.16.14-.18.38-.21.77a1.53,1.53,0,0,1-.79,1.53.47.47,0,0,1-.17,0,43.91,43.91,0,0,1-8.79-.28,22.57,22.57,0,0,0-2.47.1,16.81,16.81,0,0,1-3.39,0,25.44,25.44,0,0,0-2.62-.19c-.64,0-1.31-.06-2-.12-.22,0-.45,0-.71,0h0c-.36,0-.73,0-1.09,0s-.76,0-1.13,0a6.23,6.23,0,0,1-1.86-.24l-.14,0a6.32,6.32,0,0,0-1.51-.27,1.68,1.68,0,0,0-1.09.35.47.47,0,0,1-.51,0l-1-.55a.46.46,0,0,1-.22-.44c.49-3.9.85-7.36,1.12-10.55,0-1.17,0-2.36-.09-3.51a31.21,31.21,0,0,1,0-4.64,12.42,12.42,0,0,1,0-4.34c.09-.92.08-1.87.08-2.8a15.1,15.1,0,0,1,.65-5.47.5.5,0,0,1,.45-.31h.07l1.3.19a.46.46,0,0,1,.35.28,9.82,9.82,0,0,1,.17,4.57,18.79,18.79,0,0,0-.17,2,.22.22,0,0,1,0,.08,24.68,24.68,0,0,0-.33,4c0,.93-.05,1.9-.15,2.85a14.34,14.34,0,0,1,.16,2.84c0,.61,0,1.24,0,1.86a37.73,37.73,0,0,1-.13,5.22c-.07.88-.14,1.78-.17,2.67A75.52,75.52,0,0,0,49,398.48l1.22-1.32c.63-.65,1.29-1.28,1.94-1.89,1-.95,2-1.94,3-3A3.54,3.54,0,0,1,57.42,391a.42.42,0,0,1,.34.1A.45.45,0,0,1,57.91,391.43Z" style="fill:#fff"/><path d="M75.51,415.2l-.76,0-1.6,0c-1.83,0-4.1-.16-5.45-1.45a.36.36,0,0,1,.1-.59,14.7,14.7,0,0,1,2.72-1.36,1,1,0,0,1,.35-.06,1,1,0,0,1,.34.06.45.45,0,0,1,.33.39.62.62,0,0,1,0,.13,12.59,12.59,0,0,1,3.23-.42c.52,0,1-.05,1.44-.1a1,1,0,0,1,.54.09.43.43,0,0,1,.25.33,3.6,3.6,0,0,1-.88,2.7A.89.89,0,0,1,75.51,415.2Z" style="fill:#fff"/><path d="M60.85,407.45a2.44,2.44,0,0,1,1.82,1.74.47.47,0,0,1-.18.54l-.28.2-.8.56a.39.39,0,0,1-.28.09h-.84a.43.43,0,0,1-.44-.4V410a2.84,2.84,0,0,1,.59-2.46.47.47,0,0,1,.33-.14Z" style="fill:#fff"/><path d="M66.5,407.48l.18,0,1-.19h.08a.43.43,0,0,1,.39.23c.79,1.47.26,2.26-.32,2.67a.45.45,0,0,1-.42.05l-1.12-.4a.47.47,0,0,1-.29-.45c0-.48.07-1,.12-1.45A.49.49,0,0,1,66.5,407.48Z" style="fill:#fff"/><path d="M76.41,407.44a2.21,2.21,0,0,0-.18.47c-.16.52-.4,1.3-1.19,1.3a1,1,0,0,1-.28,0c-1,.06-1-1-1-1.56,0-.14,0-.29,0-.37a.48.48,0,0,1,.14-.39,1.26,1.26,0,0,1,.94-.4,2.83,2.83,0,0,1,.89.2l.37.12a.43.43,0,0,1,.31.26A.49.49,0,0,1,76.41,407.44Z" style="fill:#fff"/><path d="M51.76,408.56a.54.54,0,0,1-.27.09H50.06a8.06,8.06,0,0,0-2.2.22.46.46,0,0,1-.42-.1,2.18,2.18,0,0,1-.54-1.94c0-.12,0-.24,0-.35a.49.49,0,0,1,.13-.33.51.51,0,0,1,.34-.14,10.25,10.25,0,0,0,1.66-.2,11.52,11.52,0,0,1,1.85-.21,3.87,3.87,0,0,1,1.45.26.43.43,0,0,1,.27.43v.06A2.8,2.8,0,0,1,51.76,408.56Z" style="fill:#fff"/><path d="M62,402.91a.42.42,0,0,1,.32.15.4.4,0,0,1,.1.33c-.07.82-.17,1.58-.3,2.32a.48.48,0,0,1-.46.39,15.09,15.09,0,0,0-2.62.35c-.5.09-1,.2-1.54.26l0,.15a.47.47,0,0,1-.37.38.44.44,0,0,1-.47-.2c-.31-.5-.63-1-.93-1.6a.48.48,0,0,1,0-.37.44.44,0,0,1,.25-.27l.32-.15a10,10,0,0,1,2.11-.77,6.72,6.72,0,0,0,1.36-.44,5.76,5.76,0,0,1,2.13-.53Z" style="fill:#fff"/><path d="M72.35,403.08a.48.48,0,0,1-.5.39c-.32,0-.64,0-1,0a30.55,30.55,0,0,0-5.37.66l-.37.07a.45.45,0,0,1-.37-.1c-.86-.74-.4-1.66-.09-2.28l.06-.12a.47.47,0,0,1,.38-.27c1.22-.13,2.47-.37,3.67-.6s2.24-.44,3.39-.58h.06a.42.42,0,0,1,.44.45.36.36,0,0,1,0,.11A22.45,22.45,0,0,1,72.35,403.08Z" style="fill:#fff"/><path d="M42.26,396.76a.49.49,0,0,1,.34-.22,4.31,4.31,0,0,1,.71-.05,5.32,5.32,0,0,1,.69,0,.45.45,0,0,1,.37.34,4,4,0,0,1-.58,2.62c-.12.23-.23.46-.34.72s-.23.52-.35.8c-.38,1-.81,2.07-2.07,2.43a.43.43,0,0,1-.55-.28,2.68,2.68,0,0,0-.19-.38,1.4,1.4,0,0,1,0-1.8,6.28,6.28,0,0,0,1.13-2.25A8.69,8.69,0,0,1,42.26,396.76Z" style="fill:#fff"/><path d="M56,402.06a.46.46,0,0,1-.33-.29c-.15-.45-.31-.91-.46-1.37a.43.43,0,0,1,0-.35l.49-.94a.53.53,0,0,1,.29-.24,2.62,2.62,0,0,1,.57-.07,1.82,1.82,0,0,1,2,1.75.33.33,0,0,1,0,.17A2.15,2.15,0,0,1,56,402.06Z" style="fill:#fff"/><path d="M61.86,400.39l-.49,0-.36,0h0a.45.45,0,0,1-.33-.14.44.44,0,0,1-.11-.33,3.68,3.68,0,0,1,1.11-2.41.45.45,0,0,1,.32-.13.42.42,0,0,1,.26.08c.81.54,1.2,1.07,1.21,1.59a1.11,1.11,0,0,1-.41.85A1.41,1.41,0,0,1,61.86,400.39Z" style="fill:#fff"/><path d="M68,398.21a1.4,1.4,0,0,1-.39.07c-.64,0-.93-.55-1.13-.92-.05-.09-.1-.19-.16-.28a.42.42,0,0,1,0-.42c.15-.38.3-.76.45-1.16a.48.48,0,0,1,.45-.3h.23l1.08.05a.45.45,0,0,1,.42.38l0,.26C69,396.56,69.22,397.93,68,398.21Z" style="fill:#fff"/><path d="M47.2,388.35a.45.45,0,0,1,.26.44,6.4,6.4,0,0,1-.69,2.14,9.54,9.54,0,0,0-.49,1.23,28,28,0,0,1-.87,2.7.49.49,0,0,1-.51.31,1.76,1.76,0,0,0-.33,0h-.22a1,1,0,0,1-.88-.36.86.86,0,0,1,.05-.86,25.72,25.72,0,0,0,1.07-3.61c.15-.59.3-1.18.46-1.77a.49.49,0,0,1,.47-.35H46l.39,0A2.14,2.14,0,0,1,47.2,388.35Z" style="fill:#fff"/><path d="M52.14,392.84a.45.45,0,0,1,0,.53,2.43,2.43,0,0,1-2.54.78.43.43,0,0,1-.34-.4c0-.08,0-.16,0-.25a2.25,2.25,0,0,1,.61-2.14.24.24,0,0,1,.09-.06,1.4,1.4,0,0,1,.6-.15c.78,0,1.15.75,1.42,1.3C52,392.59,52.07,392.73,52.14,392.84Z" style="fill:#fff"/><path d="M62.37,389.17a6.24,6.24,0,0,0-1,.9,3.63,3.63,0,0,1-2.41,1.39,2.08,2.08,0,0,1-.64-.1.46.46,0,0,1-.23-.16,1.36,1.36,0,0,1-.19-1.32,2.68,2.68,0,0,1,1.66-1.38,8.53,8.53,0,0,0,.84-1.3.51.51,0,0,1,.25-.23c.46-.17,1-.35,1.6-.56a.4.4,0,0,1,.15,0,.54.54,0,0,1,.21.05.46.46,0,0,1,.21.28,4,4,0,0,1-.2,2.19A.45.45,0,0,1,62.37,389.17Z" style="fill:#fff"/><path d="M54.54,388.51a1.83,1.83,0,0,1-.28,1.38,2.24,2.24,0,0,0-.18.41.48.48,0,0,1-.55.34,9.9,9.9,0,0,1-1.67-.5.44.44,0,0,1-.28-.42c0-.38,0-.77.07-1.15a.49.49,0,0,1,.27-.41,3.07,3.07,0,0,0,.31-.16,2,2,0,0,1,1.05-.4,1,1,0,0,1,.78.36A1,1,0,0,1,54.54,388.51Z" style="fill:#fff"/><path d="M42,385.24l1.16.08a.43.43,0,0,1,.4.31l.26.94a.45.45,0,0,1-.23.54,2.23,2.23,0,0,0-.27.23,1.36,1.36,0,0,1-1,.53l-.23,0a.84.84,0,0,1-.77-.33c-.29-.39-.12-.92,0-1.39a2.35,2.35,0,0,0,.12-.45.48.48,0,0,1,.47-.43Z" style="fill:#fff"/><path d="M55.31,386.23a.41.41,0,0,1-.43-.29c-.2-.58-.4-1.16-.59-1.75a.49.49,0,0,1,.21-.54,1.58,1.58,0,0,1,.85-.24,3.31,3.31,0,0,1,1,.22l.24.08a.45.45,0,0,1,.31.34,2,2,0,0,1-.34,1.62A1.6,1.6,0,0,1,55.31,386.23Z" style="fill:#fff"/><path d="M47.23,386.1a1.2,1.2,0,0,1-1.07-.65,1,1,0,0,1,.11-1,9.45,9.45,0,0,0,.42-1.43,12.78,12.78,0,0,1,.39-1.4.45.45,0,0,1,.34-.3l1.11-.27h.11a.44.44,0,0,1,.25.08.43.43,0,0,1,.19.31,5.2,5.2,0,0,1-.83,4A1.08,1.08,0,0,1,47.23,386.1Z" style="fill:#fff"/><path d="M42.55,379.86a.51.51,0,0,1,.27-.09l.12,0a5.49,5.49,0,0,1,.78.28l.44.16a.45.45,0,0,1,.29.5c0,.07,0,.15,0,.24-.08.6-.23,1.73-1.22,1.73H43a1.15,1.15,0,0,1-1.16-.83A2,2,0,0,1,42.55,379.86Z" style="fill:#fff"/><path d="M38.42,377.69a.58.58,0,0,1-.05.14c-.31.57-.58,1.07-.85,1.52a.48.48,0,0,1-.4.23.42.42,0,0,1-.39-.21l-.48-.8a.46.46,0,0,1-.06-.26c0-.43.05-.86.07-1.31a9.44,9.44,0,0,1,.64-3.75.48.48,0,0,1,.43-.28h1.18a.44.44,0,0,1,.44.42,12.81,12.81,0,0,1-.35,3.34C38.54,377,38.47,377.37,38.42,377.69Z" style="fill:#fff"/><path d="M44.4,376.92c-.59,0-1.19,0-1.79-.09a.44.44,0,0,1-.4-.45A2.41,2.41,0,0,1,43.55,374a.45.45,0,0,1,.16,0A.48.48,0,0,1,44,374a2.19,2.19,0,0,1,.87,1.9c0,.16,0,.33.06.48a.45.45,0,0,1-.12.38A.51.51,0,0,1,44.4,376.92Z" style="fill:#fff"/><line x1="162.58" y1="15.69" x2="162.71" y2="15.69" style="fill:none;stroke:#fff;stroke-linecap:round;stroke-miterlimit:10"/><line x1="164.71" y1="15.69" x2="436.29" y2="15.69" style="fill:none;stroke:#fff;stroke-linecap:round;stroke-miterlimit:10;stroke-dasharray:0.25030893087387085,2.002471446990967"/><line x1="437.29" y1="15.69" x2="437.42" y2="15.69" style="fill:none;stroke:#fff;stroke-linecap:round;stroke-miterlimit:10"/><line x1="162.58" y1="433.88" x2="162.71" y2="433.88" style="fill:none;stroke:#fff;stroke-linecap:round;stroke-miterlimit:10"/><line x1="164.71" y1="433.88" x2="436.29" y2="433.88" style="fill:none;stroke:#fff;stroke-linecap:round;stroke-miterlimit:10;stroke-dasharray:0.25030893087387085,2.002471446990967"/><line x1="437.29" y1="433.88" x2="437.42" y2="433.88" style="fill:none;stroke:#fff;stroke-linecap:round;stroke-miterlimit:10"/><line x1="584.61" y1="163.61" x2="584.61" y2="163.74" style="fill:none;stroke:#fff;stroke-linecap:round;stroke-miterlimit:10"/><line x1="584.61" y1="165.72" x2="584.61" y2="285.27" style="fill:none;stroke:#fff;stroke-linecap:round;stroke-miterlimit:10;stroke-dasharray:0.2480325996875763,1.9842607975006104"/><line x1="584.61" y1="286.26" x2="584.61" y2="286.39" style="fill:none;stroke:#fff;stroke-linecap:round;stroke-miterlimit:10"/><line x1="17.2" y1="163.61" x2="17.2" y2="163.74" style="fill:none;stroke:#fff;stroke-linecap:round;stroke-miterlimit:10"/><line x1="17.2" y1="165.72" x2="17.2" y2="285.27" style="fill:none;stroke:#fff;stroke-linecap:round;stroke-miterlimit:10;stroke-dasharray:0.2480325996875763,1.9842607975006104"/><line x1="17.2" y1="286.26" x2="17.2" y2="286.39" style="fill:none;stroke:#fff;stroke-linecap:round;stroke-miterlimit:10"/><path d="M435.28,57.2c0-.17.07-.36.1-.58a5.28,5.28,0,0,0-.09-1.54,9.77,9.77,0,0,0-1.61-3.7A9.33,9.33,0,0,0,431.23,49a10.52,10.52,0,0,0-1.33-.76,9.27,9.27,0,0,0-1.36-.49l-.33-.09-.17,0-.08,0h-.26l0,0-.07,0a.34.34,0,0,1-.12-.06l0,0-.05-.12-.06-.17a5.58,5.58,0,0,0-.28-.67,11.44,11.44,0,0,0-.7-1.34c-.14-.22-.26-.45-.41-.67l-.48-.67a15.31,15.31,0,0,0-6.27-5,13.83,13.83,0,0,0-4-1c-1.26-.08-2.15,0-3,0l-4.49,0c-2.76,0-5.53.07-11.05.07-11,0-86.38.28-97.42.28l-22.09-.07c-11.05,0-11.05.29-22.09.29s-11-.44-22.09-.44-11-.92-22.09-.92-11-.19-22.09-.19H187c-.58,0-1,0-1.7,0a14.21,14.21,0,0,0-3.23.54,13.57,13.57,0,0,0-4.51,2.33,14.62,14.62,0,0,0-3.2,3.53c-.25.36-.46.77-.7,1.18s-.44.88-.62,1.37c-.09.25-.19.51-.28.77s-.16.54-.24.82c0,.05,0,0,0,0h0v.11s0,.1,0,.15l-.19,0-.23,0H172l-.19.06-.4.12a9.76,9.76,0,0,0-3.84,2.26,9.63,9.63,0,0,0-2.05,2.83,7.06,7.06,0,0,0-.29.71,5.58,5.58,0,0,0-.23.69c-.06.22-.12.45-.17.66s-.07.45-.11.66-.05.43-.06.64,0,.41,0,.62a12.09,12.09,0,0,0,.08,1.21,9.67,9.67,0,0,0,.23,1.17c.05.19.09.39.15.58l.21.58a10.44,10.44,0,0,0,1.23,2.32,10.27,10.27,0,0,0,2.15,2.26,10,10,0,0,0,3.47,1.77,9.06,9.06,0,0,0,1.49.25c.06.19.08.42.13.62a5.4,5.4,0,0,0,.15.61,11.35,11.35,0,0,0,.52,1.46c.2.44.4.86.62,1.24a10.78,10.78,0,0,0,.69,1.06,12.41,12.41,0,0,0,7.17,4.8l.64.15.68.09a11.42,11.42,0,0,0,1.48.11h3.4c11,0,11,1.68,22.09,1.68s11-.7,22.09-.7l22.09.05c11,0,11-.51,22.08-.51s11.05.52,22.09.52,86.38-.85,97.42-.85a57.43,57.43,0,0,1,11,.93c1.38.23,2.77.46,4.49.63.43,0,.89.09,1.37.12.24,0,.56,0,.85,0a7.6,7.6,0,0,0,.95,0,12.59,12.59,0,0,0,4.25-1.11,14.5,14.5,0,0,0,3.94-2.66,14.75,14.75,0,0,0,1.34-1.45,16.77,16.77,0,0,0,1-1.46c.14-.24.29-.47.41-.71s.23-.48.34-.71.11-.23.16-.35.09-.23.14-.35.16-.46.25-.69.13-.46.19-.68l0-.17s0,0,0,0h0a.22.22,0,0,1,0-.08v0s0,0,.06,0,.05,0,.59-.24a9.69,9.69,0,0,0,2.43-1.29A10,10,0,0,0,433,65a9.75,9.75,0,0,0,1.57-3.41,6.81,6.81,0,0,0,.2-1.49c0-.44.66-1.36.58-1.65s-.16-.44-.29-.75c0,0,0-.06.05-.09A3.08,3.08,0,0,0,435.28,57.2Z" style="fill:#dda62a"/><path d="M171,53.93c1.65-.47,3.08.67,4.52,1.27.59.16.76.81,1.05,1.28a6.51,6.51,0,0,1-.28,2.74,5.59,5.59,0,0,1-2.85,2.31c-1.7.07-3.17-1.08-4.26-2.3-.09-.37-.17-.74-.25-1.11a3.2,3.2,0,0,0,.28-1.06c.19-.43.36-.86.52-1.3A4.83,4.83,0,0,1,171,53.93Zm0,2.62c-.63.45-.6,1.19-.56,1.89a3.88,3.88,0,0,0,2.07.58c.75.11,1.1-.66,1.49-1.15,0-.63,0-1.25-.08-1.87C173,56.05,172.06,56.83,171,56.55Z" style="fill:#fff"/><path d="M424.45,53.93c1.65-.47,3.08.67,4.52,1.27.59.16.76.81,1,1.28a6.51,6.51,0,0,1-.28,2.74,5.59,5.59,0,0,1-2.85,2.31c-1.71.07-3.17-1.08-4.26-2.3-.09-.37-.18-.74-.26-1.11a3.21,3.21,0,0,0,.29-1.06c.19-.43.36-.86.52-1.3A4.72,4.72,0,0,1,424.45,53.93Zm0,2.62c-.63.45-.6,1.19-.56,1.89A3.87,3.87,0,0,0,426,59c.76.11,1.11-.66,1.5-1.15a16.61,16.61,0,0,0-.09-1.87C426.37,56.05,425.47,56.83,424.45,56.55Z" style="fill:#fff"/><text transform="translate(211.84 69.25)" style="opacity:0.9500000000000001;font-size:34.10612106323242px;fill:#016177;font-family:Aladin-Regular, Aladin">Decemb<tspan x="91.3" y="0" style="letter-spacing:-0.009993036872585591em">e</tspan><tspan x="103.51" y="0">r 25th</tspan></text></svg>