<svg xmlns="http://www.w3.org/2000/svg" xmlns:xlink="http://www.w3.org/1999/xlink" viewBox="0 0 600 450"><defs><clipPath id="a"><rect x="67.96" y="293.09" width="63.73" height="66.29" style="fill:none"/></clipPath></defs><title>bg</title><rect width="600" height="450" style="fill:#016177;opacity:0.9500000000000001"/><g style="opacity:0.30000000000000004"><circle cx="85.25" cy="122.52" r="6.91" style="fill:#fff"/><circle cx="127.77" cy="304.84" r="6.91" style="fill:#fff"/><circle cx="165.98" cy="228.99" r="5.5" style="fill:#fff"/><circle cx="64.83" cy="280.55" r="2.73" style="fill:#fff"/><circle cx="367.38" cy="109" r="5.5" style="fill:#fff"/><circle cx="227.17" cy="266.1" r="6.91" style="fill:#fff"/><circle cx="277.06" cy="167.19" r="6.91" style="fill:#fff"/><circle cx="388.44" cy="167.19" r="3.85" style="fill:#fff"/><circle cx="202.15" cy="121.58" r="2.73" style="fill:#fff"/><circle cx="333.98" cy="235.99" r="5.5" style="fill:#fff"/><circle cx="355.56" cy="273.01" r="3.85" style="fill:#fff"/><circle cx="216.15" cy="340.58" r="2.73" style="fill:#fff"/><circle cx="31.16" cy="196.3" r="5.5" style="fill:#fff"/><circle cx="476.13" cy="136.43" r="6.91" style="fill:#fff"/><circle cx="462.15" cy="159.58" r="2.73" style="fill:#fff"/><circle cx="581.24" cy="87.08" r="5.5" style="fill:#fff"/><circle cx="555.83" cy="116.55" r="2.73" style="fill:#fff"/><circle cx="467.65" cy="24.51" r="5.5" style="fill:#fff"/><circle cx="306.91" cy="32.47" r="6.91" style="fill:#fff"/><circle cx="56.6" cy="16.56" r="5.5" style="fill:#fff"/><circle cx="219.04" cy="38.16" r="2.73" style="fill:#fff"/><circle cx="469.22" cy="313.35" r="5.5" style="fill:#fff"/><circle cx="522.26" cy="234.49" r="6.91" style="fill:#fff"/><circle cx="447.45" cy="223.72" r="3.85" style="fill:#fff"/><circle cx="388.44" cy="354.3" r="3.85" style="fill:#fff"/><circle cx="53.62" cy="422.9" r="6.91" style="fill:#fff"/><circle cx="418.83" cy="306.55" r="2.73" style="fill:#fff"/><circle cx="578.33" cy="401.74" r="5.5" style="fill:#fff"/><circle cx="309.06" cy="365.07" r="6.91" style="fill:#fff"/><circle cx="454.15" cy="405.79" r="2.73" style="fill:#fff"/><circle cx="162.66" cy="389.9" r="5.5" style="fill:#fff"/><circle cx="263.02" cy="408.52" r="5.5" style="fill:#fff"/></g><g style="opacity:0.25"><line x1="562.67" y1="126.42" x2="562.67" y2="126.3" style="fill:none;stroke:#f1f1f2;stroke-linecap:round;stroke-miterlimit:10"/><line x1="562.67" y1="124.29" x2="562.67" y2="1.13" style="fill:none;stroke:#f1f1f2;stroke-linecap:round;stroke-miterlimit:10;stroke-dasharray:0.25084030628204346,2.0067224502563477"/><line x1="562.67" y1="0.13" x2="562.67" style="fill:none;stroke:#f1f1f2;stroke-linecap:round;stroke-miterlimit:10"/></g><g style="opacity:0.25"><line x1="422.09" y1="56.72" x2="422.09" y2="56.59" style="fill:none;stroke:#f1f1f2;stroke-linecap:round;stroke-miterlimit:10"/><line x1="422.09" y1="54.58" x2="422.09" y2="1.13" style="fill:none;stroke:#f1f1f2;stroke-linecap:round;stroke-miterlimit:10;stroke-dasharray:0.25209808349609375,2.01678466796875"/><line x1="422.09" y1="0.13" x2="422.09" style="fill:none;stroke:#f1f1f2;stroke-linecap:round;stroke-miterlimit:10"/></g><g style="opacity:0.25"><line x1="492.33" y1="398.25" x2="492.33" y2="398.12" style="fill:none;stroke:#f1f1f2;stroke-linecap:round;stroke-miterlimit:10"/><line x1="492.33" y1="396.12" x2="492.33" y2="1.13" style="fill:none;stroke:#f1f1f2;stroke-linecap:round;stroke-miterlimit:10;stroke-dasharray:0.24999882280826569,1.9999905824661255"/><line x1="492.33" y1="0.13" x2="492.33" style="fill:none;stroke:#f1f1f2;stroke-linecap:round;stroke-miterlimit:10"/></g><line x1="546.17" y1="279.04" x2="546.17" y2="278.91" style="fill:none;stroke:#f1f1f2;stroke-linecap:round;stroke-miterlimit:10"/><line x1="546.17" y1="276.91" x2="546.17" y2="1.13" style="fill:none;stroke:#f1f1f2;stroke-linecap:round;stroke-miterlimit:10;stroke-dasharray:0.25003471970558167,2.0002777576446533"/><line x1="546.17" y1="0.13" x2="546.17" style="fill:none;stroke:#f1f1f2;stroke-linecap:round;stroke-miterlimit:10"/><g style="opacity:0.25"><line x1="31.16" y1="379.98" x2="31.16" y2="379.85" style="fill:none;stroke:#f1f1f2;stroke-linecap:round;stroke-miterlimit:10"/><line x1="31.16" y1="377.86" x2="31.16" y2="1.12" style="fill:none;stroke:#f1f1f2;stroke-linecap:round;stroke-miterlimit:10;stroke-dasharray:0.24982155859470367,1.9985724687576294"/><line x1="31.16" y1="0.13" x2="31.16" style="fill:none;stroke:#f1f1f2;stroke-linecap:round;stroke-miterlimit:10"/></g><g style="opacity:0.25"><line x1="101.5" y1="297.93" x2="101.5" y2="297.81" style="fill:none;stroke:#f1f1f2;stroke-linecap:round;stroke-miterlimit:10"/><line x1="101.5" y1="295.8" x2="101.5" y2="1.13" style="fill:none;stroke:#f1f1f2;stroke-linecap:round;stroke-miterlimit:10;stroke-dasharray:0.25078660249710083,2.0062928199768066"/><line x1="101.5" y1="0.13" x2="101.5" style="fill:none;stroke:#f1f1f2;stroke-linecap:round;stroke-miterlimit:10"/></g><line x1="47.67" y1="242.5" x2="47.67" y2="242.38" style="fill:none;stroke:#f1f1f2;stroke-linecap:round;stroke-miterlimit:10"/><line x1="47.67" y1="240.38" x2="47.67" y2="1.12" style="fill:none;stroke:#f1f1f2;stroke-linecap:round;stroke-miterlimit:10;stroke-dasharray:0.2494850605726242,1.9958804845809937"/><line x1="47.67" y1="0.13" x2="47.67" style="fill:none;stroke:#f1f1f2;stroke-linecap:round;stroke-miterlimit:10"/><line x1="162.76" y1="108.83" x2="162.76" y2="108.71" style="fill:none;stroke:#f1f1f2;stroke-linecap:round;stroke-miterlimit:10"/><line x1="162.76" y1="106.69" x2="162.76" y2="1.13" style="fill:none;stroke:#f1f1f2;stroke-linecap:round;stroke-miterlimit:10;stroke-dasharray:0.2519310414791107,2.0154483318328857"/><line x1="162.76" y1="0.13" x2="162.76" style="fill:none;stroke:#f1f1f2;stroke-linecap:round;stroke-miterlimit:10"/><line x1="321.24" y1="133.66" x2="321.24" y2="133.54" style="fill:none;stroke:#f1f1f2;stroke-linecap:round;stroke-miterlimit:10"/><line x1="321.24" y1="131.52" x2="321.24" y2="1.13" style="fill:none;stroke:#f1f1f2;stroke-linecap:round;stroke-miterlimit:10;stroke-dasharray:0.2517184317111969,2.013747453689575"/><line x1="321.24" y1="0.13" x2="321.24" style="fill:none;stroke:#f1f1f2;stroke-linecap:round;stroke-miterlimit:10"/><path d="M31.16,380.27a7.13,7.13,0,0,1-2.36,2.4c-2.07,1.47-4.36,2.15-6.67,3.1-3.52,1.46-6.88,4.51-6.75,8.61-.13,4.1,3.23,7.16,6.75,8.61,2.31,1,4.6,1.64,6.67,3.11a7.19,7.19,0,0,1,2.36,2.39,7.19,7.19,0,0,1,2.36-2.39c2.07-1.47,4.36-2.15,6.67-3.11,3.52-1.45,6.87-4.51,6.75-8.61.12-4.1-3.23-7.15-6.75-8.61-2.31-.95-4.6-1.63-6.67-3.1A7.13,7.13,0,0,1,31.16,380.27Z" style="fill:#cdeae8"/><path d="M562.67,174c0-.31,0-.61.05-.92.6-8.37,4.51-16,5.56-24.33,1-7.86,0-16.28-5.61-22.31-5.6,6-6.61,14.45-5.6,22.31,1,8.32,5,16,5.56,24.33C562.65,173.37,562.67,173.67,562.67,174Z" style="fill:#8dc63f"/><path d="M335.81,146.69c.12-3.78-3-6.61-6.23-7.95a29.49,29.49,0,0,1-6.16-2.86,6.61,6.61,0,0,1-2.18-2.22,6.73,6.73,0,0,1-2.19,2.22,29.25,29.25,0,0,1-6.16,2.86c-3.25,1.34-6.34,4.17-6.23,7.95-.11,3.79,3,6.61,6.23,8a33.25,33.25,0,0,1,5.79,2.63c-1,.54-2.11.89-3.2,1.34-2.25.93-4.38,2.88-4.3,5.49-.08,2.62,2.05,4.56,4.3,5.49a20.28,20.28,0,0,1,4.25,2,4.7,4.7,0,0,1,1.51,1.53,4.57,4.57,0,0,1,1.5-1.53,20.28,20.28,0,0,1,4.25-2c2.25-.93,4.38-2.87,4.3-5.49.08-2.61-2.05-4.56-4.3-5.49-1.09-.45-2.17-.8-3.2-1.34a33.25,33.25,0,0,1,5.79-2.63C332.83,153.3,335.93,150.48,335.81,146.69Z" style="fill:#f7941d"/><path d="M546.17,279a25.81,25.81,0,1,0,25.8,25.8A25.8,25.8,0,0,0,546.17,279Zm9.33,34.23L548.87,320l0,0a3.69,3.69,0,0,1-5.23,0l-6.66-6.72a3.82,3.82,0,0,1,0-5.34l0,0a2.31,2.31,0,0,1,3.26,0l3.36,3.4,0,.05a3.7,3.7,0,0,0,5.23-.05l3.37-3.41,0,0a2.29,2.29,0,0,1,3.25,0A3.8,3.8,0,0,1,555.5,313.27Zm7-10.75,0,0a2.22,2.22,0,0,1-3.14,0l-3.21-3.24,0,0a3.57,3.57,0,0,0-5.05.09h0l-3.27,3.32,0,0a2.29,2.29,0,0,1-3.2,0l-3.21-3.24,0,0a3.57,3.57,0,0,0-5,.1L533,302.82l0,0a2.22,2.22,0,0,1-3.14,0,3.68,3.68,0,0,1,.05-5.16l6.46-6.54,0-.05a3.57,3.57,0,0,1,5,0l4.81,4.86L551.1,291l0,0a3.57,3.57,0,0,1,5.05,0l6.34,6.41A3.67,3.67,0,0,1,562.48,302.52Z" style="fill:#ffde17"/><path d="M47.34,242.51A9.19,9.19,0,1,1,38.48,252,9.19,9.19,0,0,1,47.34,242.51Z" style="fill:#4e2175"/><path d="M48,248.94a3.34,3.34,0,1,1,3.46,3.22A3.35,3.35,0,0,1,48,248.94Zm1.6-.05a1.74,1.74,0,1,0,1.67-1.8A1.75,1.75,0,0,0,49.62,248.89Z" style="fill:#662d91"/><path d="M49.9,255.07a2.23,2.23,0,1,1,2.31,2.15A2.23,2.23,0,0,1,49.9,255.07Zm1.6,0a.63.63,0,0,0,.65.6.63.63,0,1,0,0-1.25A.63.63,0,0,0,51.5,255Z" style="fill:#662d91"/><g style="clip-path:url(#a)"><image width="2001" height="2375" transform="translate(54.98 286.58) scale(0.04 0.04)" xlink:href="Links/BabyRobot-Transparent@2000px.png"/></g><path d="M188.25,127.87c-1.39-4.72-4.13-10.83-7.64-13.82-7.51-6.39-24.88-7.36-34.46.62-8.44,7-9.25,16.93-9.3,19.8a1.35,1.35,0,0,0,1.15,1.35l.18,0,.21,0-.08.93,35.88,4.47a1.34,1.34,0,0,0,.89,1.5l.23.06a1.34,1.34,0,0,0,1.47-.89,20.33,20.33,0,0,0-.94-15.34,16.57,16.57,0,0,0-3.28-4.41,3.49,3.49,0,0,1,2.08-1.84c1.62-.28,3.45,2,4.66,3.5a15.14,15.14,0,0,1,2.76,5.46,1.35,1.35,0,0,0,1.1,1,1.15,1.15,0,0,0,.55,0,1.33,1.33,0,0,0,.94-1.65s0,0,0,0l.91-.26.12.39a1.34,1.34,0,1,0,2.58-.76Z" style="fill:#be1e2d"/><path d="M185,141.25a7.12,7.12,0,1,1,8.09-6A7.13,7.13,0,0,1,185,141.25Z" style="fill:#f1f2f2"/><path d="M154.39,155.8c-4.19-.63-8.36-1.36-12.48-2.2l-6.45-1.31a6.2,6.2,0,0,1-4.89-7l.82-5.5a6.19,6.19,0,0,1,6.7-5.24l6.56.62a238.06,238.06,0,0,1,25.06,3.73l6.45,1.31h0a6.18,6.18,0,0,1,4.88,7l-.82,5.5a6.17,6.17,0,0,1-6.7,5.24l-6.55-.62Q160.69,156.73,154.39,155.8Z" style="fill:#f1f2f2"/><path d="M493.68,437.61H491a8.74,8.74,0,0,1-8.34-6.06L477,414.08a12.1,12.1,0,0,1,11.5-15.83h7.6a12.1,12.1,0,0,1,11.52,15.82L502,431.54A8.74,8.74,0,0,1,493.68,437.61Z" style="fill:#603913"/><path d="M504.58,408.15c-.63-.89-1.21-1.76-.61-2.83a2,2,0,0,1,2.73-.75L521.63,413a2,2,0,0,1,.41,3.17,13.27,13.27,0,0,1-8.52,3.71H513a13.35,13.35,0,0,1-9-3.72,2,2,0,0,1,0-2.87c.87-.92,1.65-1.53,1.63-3A4.11,4.11,0,0,0,504.58,408.15Z" style="fill:#754c29"/><path d="M480.13,408.15c.63-.89,1.21-1.76.61-2.83a2,2,0,0,0-2.73-.75L463.08,413a2,2,0,0,0-.41,3.17,13.25,13.25,0,0,0,8.52,3.71h.51a13.32,13.32,0,0,0,9-3.72,2,2,0,0,0,0-2.87c-.87-.92-1.66-1.53-1.63-3A4.11,4.11,0,0,1,480.13,408.15Z" style="fill:#754c29"/><path d="M492.35,433.62a2.22,2.22,0,0,1-.91-.19c-.76-.34-3.25-1.64-3.25-4,0-.59.2-3.52,4.16-3.52s4.16,2.93,4.16,3.51c0,2.33-2.49,3.63-3.25,4A2.22,2.22,0,0,1,492.35,433.62Z" style="fill:#be1e2d"/><path d="M489.23,413.82a2.77,2.77,0,1,1-2.77-2.77A2.77,2.77,0,0,1,489.23,413.82Z" style="fill:#1d1d1b"/><path d="M495.47,413.82a2.77,2.77,0,1,0,2.77-2.77A2.77,2.77,0,0,0,495.47,413.82Z" style="fill:#1d1d1b"/><path d="M488.55,402.26a2,2,0,0,1-1.49-.66l-14.62-16.15a2.06,2.06,0,0,1-.51-1.13l-1.84-17.24a2,2,0,0,1,.27-1.24l4.43-7.41a2,2,0,1,1,3.44,2.05l-4.09,6.84,1.71,15.92L490,398.91a2,2,0,0,1-.14,2.83A2,2,0,0,1,488.55,402.26Z" style="fill:#c49a6c"/><path d="M473.93,386.11h-9.88a2,2,0,0,1-1.65-.86l-3.51-5a2,2,0,1,1,3.28-2.29l2.92,4.19h8.83a2,2,0,1,1,0,4Z" style="fill:#c49a6c"/><path d="M481.69,394.69a1.91,1.91,0,0,1-1-.29,2,2,0,0,1-.7-2.74l3-5.11a2,2,0,0,1,3.45,2.05l-3,5.11A2,2,0,0,1,481.69,394.69Z" style="fill:#c49a6c"/><path d="M472.08,368.87a2,2,0,0,1-1.38-.54l-4.86-4.59a2,2,0,1,1,2.75-2.91l4.86,4.58a2,2,0,0,1,.08,2.83A2,2,0,0,1,472.08,368.87Z" style="fill:#c49a6c"/><path d="M496.14,402.25a2,2,0,0,1-1.48-3.34l14.16-15.68,1.7-15.93-4.1-6.83a2,2,0,1,1,3.44-2.06l4.43,7.41a2,2,0,0,1,.28,1.24l-1.83,17.24a2,2,0,0,1-.51,1.13l-14.6,16.16A2,2,0,0,1,496.14,402.25Z" style="fill:#c49a6c"/><path d="M520.63,386.09h-9.88a2,2,0,0,1,0-4h8.83l2.91-4.19a2,2,0,0,1,3.29,2.28l-3.51,5.05A2,2,0,0,1,520.63,386.09Z" style="fill:#c49a6c"/><path d="M503,394.68a2,2,0,0,1-1.72-1l-3-5.11a2,2,0,0,1,3.44-2l3,5.11a2,2,0,0,1-1.72,3Z" style="fill:#c49a6c"/><path d="M512.58,368.85a2,2,0,0,1-1.38-3.46l4.86-4.59a2,2,0,1,1,2.75,2.91L514,368.3A2,2,0,0,1,512.58,368.85Z" style="fill:#c49a6c"/><polygon points="422.09 56.72 422.09 98.54 440.88 87.53 422.09 56.72" style="fill:#d80e2f"/><polygon points="422.09 56.72 422.09 98.54 403.3 87.53 422.09 56.72" style="fill:#f25f5f"/><polygon points="422.09 102.08 422.09 117.44 440.88 91.07 422.09 102.08" style="fill:#d80e2f"/><polygon points="422.09 102.08 422.09 117.44 403.3 91.07 422.09 102.08" style="fill:#be1e2d"/><polygon points="403.3 87.53 422.09 79.03 422.09 98.54 403.3 87.53" style="fill:#d80e2f"/><polygon points="440.88 87.53 422.09 79.03 422.09 98.54 440.88 87.53" style="fill:#be1e2d"/></svg>