<svg xmlns="http://www.w3.org/2000/svg" viewBox="0 0 600 450"><title>bg</title><rect width="600" height="450" style="fill:#016177;opacity:0.9500000000000001"/><path d="M443.17,61.51c-120.23,0-217-6.32-284-12.68C57.19,39.15.36,27.27-.21,27.15l.42-2c.56.12,57.32,12,159.18,21.65C253.4,55.77,406.15,64.61,600,56l.08,2C544.22,60.48,491.77,61.51,443.17,61.51Z" style="fill:#808285"/><path d="M115.23,69.53c-55,0-91.46-3.63-115.41-8l.36-2c49.64,9.06,153.28,15,365.09-8.36C492,37.26,598.77,19.19,599.83,19l.34,2c-1.07.18-107.91,18.25-234.69,32.2C255.46,65.3,174.55,69.53,115.23,69.53Z" style="fill:#808285"/><g style="opacity:0.30000000000000004"><circle cx="85.25" cy="122.52" r="6.91" style="fill:#fff"/><circle cx="127.77" cy="304.84" r="6.91" style="fill:#fff"/><circle cx="165.98" cy="228.99" r="5.5" style="fill:#fff"/><circle cx="64.83" cy="280.55" r="2.73" style="fill:#fff"/><circle cx="367.38" cy="109" r="5.5" style="fill:#fff"/><circle cx="227.17" cy="266.1" r="6.91" style="fill:#fff"/><circle cx="277.06" cy="167.19" r="6.91" style="fill:#fff"/><circle cx="388.44" cy="167.19" r="3.85" style="fill:#fff"/><circle cx="202.15" cy="121.58" r="2.73" style="fill:#fff"/><circle cx="333.98" cy="235.99" r="5.5" style="fill:#fff"/><circle cx="355.56" cy="273.01" r="3.85" style="fill:#fff"/><circle cx="216.15" cy="340.58" r="2.73" style="fill:#fff"/><circle cx="31.16" cy="196.3" r="5.5" style="fill:#fff"/><circle cx="476.13" cy="136.43" r="6.91" style="fill:#fff"/><circle cx="462.15" cy="159.58" r="2.73" style="fill:#fff"/><circle cx="581.24" cy="87.08" r="5.5" style="fill:#fff"/><circle cx="555.83" cy="116.55" r="2.73" style="fill:#fff"/><circle cx="467.65" cy="24.51" r="5.5" style="fill:#fff"/><circle cx="318.15" cy="32.75" r="6.91" style="fill:#fff"/><circle cx="56.6" cy="16.56" r="5.5" style="fill:#fff"/><circle cx="219.04" cy="38.16" r="2.73" style="fill:#fff"/><circle cx="469.22" cy="313.35" r="5.5" style="fill:#fff"/><circle cx="540.26" cy="234.49" r="6.91" style="fill:#fff"/><circle cx="447.45" cy="223.72" r="3.85" style="fill:#fff"/><circle cx="388.44" cy="354.3" r="3.85" style="fill:#fff"/><circle cx="51.1" cy="391.31" r="6.91" style="fill:#fff"/><circle cx="418.83" cy="306.55" r="2.73" style="fill:#fff"/><circle cx="547.17" cy="384.4" r="5.5" style="fill:#fff"/><circle cx="309.06" cy="365.07" r="6.91" style="fill:#fff"/><circle cx="454.15" cy="405.79" r="2.73" style="fill:#fff"/><circle cx="162.66" cy="389.9" r="5.5" style="fill:#fff"/><circle cx="263.02" cy="408.52" r="5.5" style="fill:#fff"/></g><g style="opacity:0.5"><path d="M524.15,155.44l-1.29-1.29a.54.54,0,0,1,0-.78l2-2v-3l-2.63,1.52-.72,2.71a.55.55,0,0,1-.67.39l-1.77-.47a.54.54,0,0,1-.33-.26.53.53,0,0,1-.05-.41l.5-1.89-1.89-.51a.52.52,0,0,1-.33-.25.56.56,0,0,1-.05-.42l.47-1.76a.56.56,0,0,1,.67-.39l2.71.73,2.63-1.52-2.63-1.52L518,145a.54.54,0,0,1-.67-.39l-.47-1.76a.53.53,0,0,1,.05-.41.54.54,0,0,1,.33-.26l1.89-.5-.5-1.89a.53.53,0,0,1,.38-.67l1.77-.47a.54.54,0,0,1,.67.38l.72,2.72,2.63,1.51v-3l-2-2a.53.53,0,0,1,0-.77l1.29-1.29a.53.53,0,0,1,.77,0l1.38,1.38,1.38-1.38a.54.54,0,0,1,.78,0l1.29,1.29a.55.55,0,0,1,0,.77l-2,2v3l2.63-1.51.73-2.72a.53.53,0,0,1,.67-.38l1.76.47a.61.61,0,0,1,.34.25.56.56,0,0,1,.05.42l-.51,1.89,1.89.5a.54.54,0,0,1,.33.26.49.49,0,0,1,.06.41l-.47,1.76a.55.55,0,0,1-.68.39l-2.71-.73-2.63,1.52,2.63,1.52,2.71-.73a.56.56,0,0,1,.68.39l.47,1.76a.55.55,0,0,1-.39.67l-1.89.51.51,1.89a.53.53,0,0,1-.05.41.59.59,0,0,1-.34.26l-1.76.47a.52.52,0,0,1-.42-.06.56.56,0,0,1-.25-.33l-.73-2.71-2.63-1.52v3l2,2a.56.56,0,0,1,0,.78l-1.29,1.29a.56.56,0,0,1-.78,0l-1.38-1.38-1.38,1.38a.59.59,0,0,1-.39.16A.55.55,0,0,1,524.15,155.44Zm2.54-2.54,1.38,1.38.52-.52L526.83,152a.55.55,0,0,1-.16-.39V147.4a.55.55,0,0,1,.82-.47l3.65,2.1a.61.61,0,0,1,.25.34l.65,2.4.7-.19-.51-1.89a.58.58,0,0,1,.06-.41.54.54,0,0,1,.33-.26l1.89-.5-.19-.71-2.4.65a.62.62,0,0,1-.42-.06l-3.65-2.1a.55.55,0,0,1,0-1l3.65-2.11a.56.56,0,0,1,.42-.05l2.4.64.19-.7-1.89-.51a.56.56,0,0,1-.33-.25.62.62,0,0,1-.06-.42l.51-1.89-.7-.19-.65,2.41a.56.56,0,0,1-.25.33l-3.65,2.11a.59.59,0,0,1-.55,0,.55.55,0,0,1-.27-.48V140a.57.57,0,0,1,.16-.39l1.76-1.76-.52-.51-1.38,1.38a.55.55,0,0,1-.77,0l-1.39-1.38-.51.51,1.76,1.76a.57.57,0,0,1,.16.39v4.21a.56.56,0,0,1-.28.48.57.57,0,0,1-.54,0l-3.65-2.11a.54.54,0,0,1-.26-.33l-.64-2.41-.71.19.51,1.89a.56.56,0,0,1,0,.42.61.61,0,0,1-.34.25l-1.88.51.19.7,2.4-.64a.53.53,0,0,1,.41.05l3.65,2.11a.54.54,0,0,1,0,1l-3.65,2.1a.58.58,0,0,1-.41.06l-2.4-.65-.19.71,1.88.5a.59.59,0,0,1,.34.26.53.53,0,0,1,0,.41l-.51,1.89.71.19.64-2.4a.59.59,0,0,1,.26-.34l3.65-2.1a.52.52,0,0,1,.54,0,.56.56,0,0,1,.28.47v4.21a.55.55,0,0,1-.16.39L524,153.76l.51.52,1.39-1.38a.51.51,0,0,1,.38-.16A.54.54,0,0,1,526.69,152.9Z" style="fill:#fff"/><path d="M568.19,344.84l-1.29-1.29a.55.55,0,0,1,0-.77l2-2v-3l-2.63,1.51-.73,2.72a.54.54,0,0,1-.67.38l-1.76-.47a.56.56,0,0,1-.33-.25.52.52,0,0,1-.06-.42l.51-1.89-1.89-.5a.54.54,0,0,1-.33-.26.58.58,0,0,1-.06-.41l.48-1.76a.54.54,0,0,1,.67-.39l2.71.73,2.63-1.52-2.63-1.52-2.71.73a.55.55,0,0,1-.67-.39l-.48-1.76a.62.62,0,0,1,.06-.42.49.49,0,0,1,.33-.25l1.89-.51-.51-1.89a.49.49,0,0,1,.06-.41.54.54,0,0,1,.33-.26l1.76-.47a.54.54,0,0,1,.67.39l.73,2.71,2.63,1.52v-3l-2-2a.56.56,0,0,1,0-.78l1.29-1.29a.56.56,0,0,1,.78,0l1.38,1.38,1.38-1.38a.55.55,0,0,1,.77,0l1.3,1.29a.56.56,0,0,1,0,.78l-2,2v3l2.63-1.52.73-2.71a.49.49,0,0,1,.25-.33.52.52,0,0,1,.42-.06l1.76.47a.54.54,0,0,1,.33.26.58.58,0,0,1,.06.41l-.51,1.89,1.89.51a.49.49,0,0,1,.33.25.56.56,0,0,1,0,.42l-.47,1.76a.56.56,0,0,1-.67.39l-2.71-.73-2.63,1.52,2.63,1.52,2.71-.73a.54.54,0,0,1,.67.39l.47,1.76a.53.53,0,0,1,0,.41.54.54,0,0,1-.33.26l-1.89.5.51,1.89a.62.62,0,0,1-.06.42.56.56,0,0,1-.33.25l-1.76.47a.56.56,0,0,1-.42-.05.49.49,0,0,1-.25-.33l-.73-2.72-2.63-1.51v3l2,2a.55.55,0,0,1,0,.77l-1.3,1.29a.53.53,0,0,1-.77,0l-1.38-1.38L569,344.84a.56.56,0,0,1-.78,0Zm2.55-2.54,1.38,1.38.51-.51-1.76-1.76a.59.59,0,0,1-.16-.39v-4.21a.56.56,0,0,1,.28-.48.59.59,0,0,1,.55,0l3.64,2.11a.54.54,0,0,1,.26.33l.64,2.4.71-.18-.51-1.89a.52.52,0,0,1,.06-.42.56.56,0,0,1,.33-.25l1.88-.51-.18-.7-2.41.64a.53.53,0,0,1-.41-.05l-3.65-2.11a.55.55,0,0,1,0-.95l3.65-2.1a.49.49,0,0,1,.41-.06l2.41.65.18-.71-1.88-.5a.54.54,0,0,1-.33-.26.5.5,0,0,1-.06-.41l.51-1.89-.71-.19-.64,2.4a.59.59,0,0,1-.26.34l-3.64,2.1a.54.54,0,0,1-.55,0,.56.56,0,0,1-.28-.47v-4.22a.55.55,0,0,1,.16-.38l1.76-1.76-.51-.52-1.38,1.38a.54.54,0,0,1-.78,0l-1.38-1.38-.52.52,1.76,1.76a.51.51,0,0,1,.16.38v4.22a.55.55,0,0,1-.82.47l-3.64-2.1a.59.59,0,0,1-.26-.34l-.64-2.4-.71.19.51,1.88a.61.61,0,0,1-.06.42.54.54,0,0,1-.33.26l-1.89.5.19.71,2.4-.65a.52.52,0,0,1,.42.06l3.65,2.1a.55.55,0,0,1,0,.95l-3.65,2.11a.56.56,0,0,1-.42.05l-2.4-.64-.19.7,1.89.51a.56.56,0,0,1,.33.25.62.62,0,0,1,.06.42l-.51,1.89.71.18.64-2.4a.54.54,0,0,1,.26-.33l3.64-2.11a.59.59,0,0,1,.55,0,.55.55,0,0,1,.27.48V341a.54.54,0,0,1-.16.39l-1.76,1.76.52.51L570,342.3a.56.56,0,0,1,.78,0Z" style="fill:#fff"/><path d="M130.73,130.9l-.82-.82a.34.34,0,0,1,0-.49l1.26-1.26V126.4l-1.67,1-.46,1.72a.35.35,0,0,1-.43.24l-1.11-.3a.31.31,0,0,1-.21-.16.34.34,0,0,1,0-.26l.32-1.2-1.2-.32a.36.36,0,0,1-.21-.16.42.42,0,0,1,0-.27l.3-1.11a.34.34,0,0,1,.42-.25l1.73.46,1.66-1-1.66-1-1.73.46a.34.34,0,0,1-.42-.25l-.3-1.12a.39.39,0,0,1,0-.26.36.36,0,0,1,.21-.16l1.2-.32-.32-1.2a.34.34,0,0,1,0-.26.36.36,0,0,1,.21-.17l1.11-.3a.36.36,0,0,1,.43.25l.46,1.72,1.67,1v-1.92L129.91,120a.34.34,0,0,1,0-.49l.82-.82a.34.34,0,0,1,.49,0l.88.87.87-.87a.34.34,0,0,1,.49,0l.82.82a.34.34,0,0,1,0,.49L133,121.27v1.92l1.67-1,.46-1.72a.34.34,0,0,1,.16-.21.32.32,0,0,1,.27,0l1.11.29a.41.41,0,0,1,.22.17.39.39,0,0,1,0,.26l-.32,1.2,1.2.32a.34.34,0,0,1,.24.42l-.3,1.12a.34.34,0,0,1-.42.25l-1.72-.46-1.67,1,1.67,1,1.72-.46a.34.34,0,0,1,.42.25l.3,1.11a.36.36,0,0,1,0,.27.34.34,0,0,1-.21.16l-1.2.32.32,1.2a.39.39,0,0,1,0,.26.36.36,0,0,1-.22.16l-1.11.3a.36.36,0,0,1-.27,0,.34.34,0,0,1-.16-.21l-.46-1.72-1.67-1v1.93l1.26,1.26a.34.34,0,0,1,0,.49l-.82.82a.36.36,0,0,1-.49,0l-.87-.88-.88.88a.35.35,0,0,1-.25.1A.33.33,0,0,1,130.73,130.9Zm1.61-1.61.88.87.32-.33-1.11-1.11a.33.33,0,0,1-.1-.25V125.8a.34.34,0,0,1,.17-.3.36.36,0,0,1,.35,0l2.31,1.34a.31.31,0,0,1,.16.21l.41,1.52.45-.12-.32-1.2a.39.39,0,0,1,0-.26.36.36,0,0,1,.21-.16l1.2-.32-.12-.45-1.52.41a.42.42,0,0,1-.27,0l-2.31-1.34a.34.34,0,0,1-.17-.3.33.33,0,0,1,.17-.3l2.31-1.34a.36.36,0,0,1,.27,0l1.52.41.12-.45-1.2-.32a.41.41,0,0,1-.21-.16.42.42,0,0,1,0-.27l.32-1.19-.45-.12-.41,1.52a.31.31,0,0,1-.16.21l-2.31,1.34a.36.36,0,0,1-.35,0,.35.35,0,0,1-.17-.3v-2.68a.31.31,0,0,1,.1-.24l1.11-1.12-.32-.32-.88.87a.34.34,0,0,1-.49,0l-.88-.87-.32.32,1.11,1.12a.31.31,0,0,1,.1.24v2.68a.35.35,0,0,1-.17.3.36.36,0,0,1-.35,0L129,122.76a.31.31,0,0,1-.16-.21l-.41-1.52-.45.12.32,1.19a.36.36,0,0,1,0,.27.37.37,0,0,1-.21.16l-1.2.32.12.45,1.52-.41a.36.36,0,0,1,.27,0l2.31,1.34a.34.34,0,0,1,.18.3.35.35,0,0,1-.18.3l-2.31,1.34a.42.42,0,0,1-.27,0l-1.52-.41-.12.45,1.2.32a.34.34,0,0,1,.21.16.36.36,0,0,1,0,.27l-.32,1.19.45.12.41-1.52a.31.31,0,0,1,.16-.21l2.31-1.34a.36.36,0,0,1,.35,0,.34.34,0,0,1,.17.3v2.67a.33.33,0,0,1-.1.25l-1.11,1.11.32.33.88-.87a.36.36,0,0,1,.25-.11A.35.35,0,0,1,132.34,129.29Z" style="fill:#fff"/><path d="M80.1,200.57l-2.18-2.18a.91.91,0,0,1,0-1.31l3.35-3.36v-5.13l-4.44,2.56-1.23,4.59a.92.92,0,0,1-1.14.65l-3-.8a.92.92,0,0,1-.56-.43.94.94,0,0,1-.09-.7l.86-3.19-3.19-.85a.94.94,0,0,1-.66-1.13l.8-3a.93.93,0,0,1,1.14-.66l4.58,1.23,4.45-2.56-4.45-2.57L69.78,183a.93.93,0,0,1-1.14-.66l-.8-3a.94.94,0,0,1,.66-1.13l3.19-.85-.86-3.19a.94.94,0,0,1,.09-.7.92.92,0,0,1,.56-.43l3-.8a.92.92,0,0,1,1.14.65l1.23,4.59L81.27,180v-5.13l-3.35-3.36a.91.91,0,0,1,0-1.31l2.18-2.18a.93.93,0,0,1,1.31,0l2.33,2.34,2.33-2.34a.93.93,0,0,1,1.31,0l2.18,2.18a.93.93,0,0,1,0,1.31l-3.35,3.36V180l4.44-2.56,1.23-4.59a.92.92,0,0,1,1.13-.65l3,.8a.87.87,0,0,1,.56.43.9.9,0,0,1,.1.7l-.86,3.19,3.19.85a.94.94,0,0,1,.66,1.13l-.8,3a.94.94,0,0,1-1.14.66l-4.58-1.23-4.45,2.57,4.45,2.56,4.58-1.23a.93.93,0,0,1,1.14.66l.8,3a.94.94,0,0,1-.66,1.13l-3.19.85.86,3.19a.9.9,0,0,1-.1.7.92.92,0,0,1-.56.44l-3,.79a.92.92,0,0,1-1.13-.65l-1.23-4.59-4.44-2.56v5.13l3.35,3.36a.93.93,0,0,1,0,1.31l-2.18,2.18a.93.93,0,0,1-1.31,0l-2.33-2.34-2.33,2.34a1,1,0,0,1-.66.27A.91.91,0,0,1,80.1,200.57Zm4.29-4.3,2.34,2.33.87-.87-3-3a.9.9,0,0,1-.27-.66V187a.91.91,0,0,1,.46-.8.89.89,0,0,1,.92,0l6.17,3.55a1,1,0,0,1,.43.57l1.09,4.06,1.19-.32-.86-3.19a.9.9,0,0,1,.1-.7.87.87,0,0,1,.56-.43l3.19-.86-.32-1.19-4.06,1.09a.94.94,0,0,1-.7-.09l-6.17-3.56a.93.93,0,0,1,0-1.61L92.53,180a.94.94,0,0,1,.7-.09L97.29,181l.32-1.19-3.19-.86a.87.87,0,0,1-.56-.43.9.9,0,0,1-.1-.7l.86-3.19-1.19-.32-1.09,4.07a1,1,0,0,1-.43.56l-6.17,3.56a.94.94,0,0,1-.92,0,.92.92,0,0,1-.46-.81v-7.11a.91.91,0,0,1,.27-.66l3-3-.87-.87-2.34,2.33a.93.93,0,0,1-1.31,0L80.75,170l-.87.87,3,3a.91.91,0,0,1,.27.66v7.11a.92.92,0,0,1-.46.81,1,1,0,0,1-.93,0l-6.16-3.56a1,1,0,0,1-.43-.56l-1.09-4.07-1.19.32.85,3.19a.9.9,0,0,1-.09.7.87.87,0,0,1-.56.43l-3.19.86.32,1.19,4.06-1.09a.94.94,0,0,1,.7.09l6.17,3.56a.93.93,0,0,1,0,1.61L75,188.68a.94.94,0,0,1-.7.09l-4.06-1.09-.32,1.19,3.19.86a.87.87,0,0,1,.56.43.9.9,0,0,1,.09.7l-.85,3.19,1.19.32,1.09-4.07a1,1,0,0,1,.43-.56l6.16-3.55a.93.93,0,0,1,1.39.8v7.11a.9.9,0,0,1-.27.66l-3,3,.87.87,2.33-2.33a1,1,0,0,1,.66-.27A.91.91,0,0,1,84.39,196.27Z" style="fill:#fff"/><path d="M390,37.42l-2.19-2.18a.93.93,0,0,1,0-1.31l3.36-3.35V25.45L386.73,28,385.5,32.6a.93.93,0,0,1-1.14.65l-3-.8a.92.92,0,0,1-.65-1.13l.86-3.19-3.19-.85a.92.92,0,0,1-.56-.44.9.9,0,0,1-.1-.7l.8-3a.93.93,0,0,1,1.14-.65l4.58,1.23,4.45-2.57-4.45-2.57-4.58,1.23a.92.92,0,0,1-1.14-.65l-.8-3a.94.94,0,0,1,.66-1.13l3.19-.86L380.73,11a1,1,0,0,1,.09-.71,1,1,0,0,1,.56-.43l3-.8a.93.93,0,0,1,1.14.66l1.23,4.58,4.44,2.57V11.77l-3.36-3.36a.93.93,0,0,1,0-1.31L390,4.92a.92.92,0,0,1,1.3,0l2.34,2.33L396,4.92a.93.93,0,0,1,1.31,0l2.18,2.18a.93.93,0,0,1,0,1.31l-3.35,3.36V16.9l4.44-2.57,1.23-4.58a.94.94,0,0,1,1.13-.66l3,.8a.94.94,0,0,1,.66,1.13l-.86,3.19,3.19.86a.92.92,0,0,1,.65,1.13l-.79,3a.93.93,0,0,1-1.14.65L403,18.6l-4.45,2.57L403,23.74l4.58-1.23a.94.94,0,0,1,1.14.65l.79,3a.9.9,0,0,1-.09.7.92.92,0,0,1-.56.44l-3.19.85.86,3.19a.94.94,0,0,1-.66,1.13l-3,.8a.92.92,0,0,1-1.13-.65L400.55,28l-4.44-2.57v5.14l3.35,3.35a.93.93,0,0,1,0,1.31l-2.18,2.18a.93.93,0,0,1-1.31,0l-2.33-2.33-2.34,2.33a.92.92,0,0,1-1.3,0Zm4.29-4.29,2.34,2.33.87-.87-3-3a.88.88,0,0,1-.27-.65V23.84a.92.92,0,0,1,.46-.8.94.94,0,0,1,.92,0l6.17,3.56a.9.9,0,0,1,.43.56l1.09,4.06,1.19-.32-.86-3.18a.94.94,0,0,1,.66-1.14l3.19-.85-.32-1.19-4.06,1.08a.93.93,0,0,1-.71-.09L396.26,22a.91.91,0,0,1-.46-.8.92.92,0,0,1,.46-.8l6.16-3.56a.93.93,0,0,1,.71-.09l4.06,1.09.32-1.2-3.19-.85a.94.94,0,0,1-.66-1.13l.86-3.19-1.19-.32-1.09,4.06a.9.9,0,0,1-.43.56l-6.17,3.56a.89.89,0,0,1-.92,0,.91.91,0,0,1-.46-.8V11.38a.89.89,0,0,1,.27-.65l3-3-.87-.87-2.34,2.34a.93.93,0,0,1-1.31,0l-2.33-2.34-.87.87,3,3a.89.89,0,0,1,.27.65V18.5a.93.93,0,0,1-1.39.8l-6.16-3.56a.9.9,0,0,1-.43-.56L384,11.12l-1.19.32.85,3.19a.92.92,0,0,1-.65,1.13l-3.19.85.32,1.2,4.06-1.09a.9.9,0,0,1,.7.09L391,20.37a.94.94,0,0,1,.46.8.93.93,0,0,1-.46.8l-6.17,3.56a.9.9,0,0,1-.7.09l-4.06-1.08-.32,1.19,3.19.85a.92.92,0,0,1,.65,1.14l-.85,3.18,1.19.32L385,27.16a.9.9,0,0,1,.43-.56L391.63,23a1,1,0,0,1,.93,0,.92.92,0,0,1,.46.8V31a.88.88,0,0,1-.27.65l-3,3,.87.87L393,33.13a1,1,0,0,1,.66-.28A.92.92,0,0,1,394.29,33.13Z" style="fill:#fff"/><path d="M13.46,122.08a.89.89,0,0,0,.82.54.94.94,0,0,0,.36-.08l5.18-2.28,4.58,2-.54,5-4.57,3.34A.9.9,0,1,0,20.35,132l3.24-2.37-.43,4a.89.89,0,0,0,.79,1h.1a.9.9,0,0,0,.9-.81l.61-5.62,4-3,4,3,.61,5.62a.9.9,0,0,0,.9.81h.09a.9.9,0,0,0,.8-1l-.43-4L38.84,132a.9.9,0,1,0,1.06-1.45l-4.57-3.34-.54-5,4.58-2,5.18,2.28a.94.94,0,0,0,.36.08.9.9,0,0,0,.36-1.73l-3.67-1.62,3.67-1.62a.89.89,0,0,0,.46-1.18.9.9,0,0,0-1.18-.47l-5.18,2.29-4.58-2,.54-5L39.9,108a.9.9,0,0,0-1.06-1.46l-3.24,2.37.43-4a.9.9,0,0,0-.8-1,.89.89,0,0,0-1,.8l-.61,5.63-4,3-4-3L25,104.69a.9.9,0,1,0-1.79.19l.43,4-3.24-2.37A.9.9,0,1,0,19.29,108l4.57,3.34.54,5-4.58,2L14.64,116a.9.9,0,0,0-1.18.47.88.88,0,0,0,.46,1.18l3.67,1.62-3.67,1.62A.89.89,0,0,0,13.46,122.08Zm8.59-2.81,3.67-1.62a.91.91,0,0,0,.54-.92l-.44-4,3.24,2.37a.92.92,0,0,0,1.07,0l3.24-2.37-.44,4a.9.9,0,0,0,.53.92l3.68,1.62-3.68,1.62a.9.9,0,0,0-.53.92l.44,4-3.24-2.38a.93.93,0,0,0-1.07,0l-3.24,2.38.44-4a.91.91,0,0,0-.54-.92Z" style="fill:#fff"/><path d="M207,118.61a.72.72,0,0,0,.65.42.71.71,0,0,0,.28-.06l4.08-1.8,3.59,1.59-.42,3.91-3.59,2.63a.71.71,0,0,0-.16,1,.72.72,0,0,0,1,.15l2.55-1.86-.34,3.13a.71.71,0,0,0,.63.78h.08a.71.71,0,0,0,.7-.63l.48-4.43,3.17-2.32,3.18,2.32.48,4.43a.7.7,0,0,0,.7.63h.08a.69.69,0,0,0,.62-.78l-.34-3.13,2.55,1.86a.71.71,0,1,0,.84-1.14l-3.59-2.63-.43-3.91,3.6-1.59,4.07,1.8a.72.72,0,0,0,.29.06.7.7,0,0,0,.64-.42.71.71,0,0,0-.36-.94l-2.89-1.27,2.89-1.27a.71.71,0,0,0-.57-1.3l-4.07,1.8-3.6-1.59.43-3.91,3.59-2.63a.71.71,0,0,0-.84-1.14l-2.55,1.86.34-3.14a.7.7,0,0,0-1.4-.15l-.48,4.43-3.18,2.32-3.17-2.32-.48-4.43a.69.69,0,0,0-.78-.62.7.7,0,0,0-.63.77l.34,3.14-2.55-1.86a.72.72,0,0,0-1,.15.71.71,0,0,0,.16,1l3.59,2.63.42,3.91L212,115.63l-4.08-1.8a.71.71,0,0,0-.93.36.72.72,0,0,0,.36.94l2.89,1.27-2.89,1.27A.72.72,0,0,0,207,118.61Zm6.76-2.21,2.89-1.27a.73.73,0,0,0,.42-.73l-.34-3.14,2.54,1.87a.72.72,0,0,0,.84,0l2.55-1.87-.34,3.14a.7.7,0,0,0,.42.73l2.88,1.27-2.88,1.27a.7.7,0,0,0-.42.73l.34,3.14-2.55-1.87a.7.7,0,0,0-.42-.13.74.74,0,0,0-.42.13l-2.54,1.87.34-3.14a.73.73,0,0,0-.42-.73Z" style="fill:#fff"/><path d="M31.5,337.43a.71.71,0,0,0,.65.43.71.71,0,0,0,.28-.06l4.08-1.8,3.59,1.59-.42,3.91-3.59,2.63a.71.71,0,0,0-.16,1,.71.71,0,0,0,1,.15l2.55-1.87-.34,3.14a.71.71,0,0,0,.63.78h.07a.71.71,0,0,0,.71-.63l.48-4.43L44.19,340l3.18,2.32.48,4.43a.7.7,0,0,0,.7.63h.08a.69.69,0,0,0,.62-.78l-.34-3.14,2.55,1.87a.71.71,0,0,0,.84-1.14l-3.6-2.63-.42-3.91,3.6-1.59L56,337.8a.72.72,0,0,0,.29.06.69.69,0,0,0,.64-.43.7.7,0,0,0-.36-.93l-2.89-1.27L56.52,334a.71.71,0,1,0-.57-1.29l-4.07,1.79-3.6-1.58L48.7,329l3.6-2.63a.71.71,0,0,0,.15-1,.7.7,0,0,0-1-.15l-2.55,1.86.34-3.14a.7.7,0,1,0-1.4-.15l-.48,4.42-3.18,2.33L41,328.18l-.48-4.42a.7.7,0,0,0-.78-.63.71.71,0,0,0-.63.78l.34,3.14-2.55-1.86a.71.71,0,1,0-.83,1.14L39.68,329l.42,3.91-3.59,1.58-4.08-1.79a.71.71,0,0,0-.57,1.29l2.89,1.28-2.89,1.27A.7.7,0,0,0,31.5,337.43Zm6.76-2.2L41.15,334a.71.71,0,0,0,.42-.72l-.34-3.14L43.77,332a.72.72,0,0,0,.84,0l2.55-1.87-.34,3.14a.68.68,0,0,0,.41.72l2.89,1.28-2.89,1.27a.71.71,0,0,0-.41.73l.34,3.14-2.55-1.87a.7.7,0,0,0-.84,0l-2.54,1.87.34-3.14a.73.73,0,0,0-.42-.73Z" style="fill:#fff"/><path d="M543.53,252.55a.68.68,0,0,0,.64.42.58.58,0,0,0,.29-.06l4.07-1.79,3.6,1.59-.43,3.91-3.59,2.62a.72.72,0,0,0-.15,1,.71.71,0,0,0,1,.16l2.55-1.87-.34,3.14a.69.69,0,0,0,.62.78h.08a.7.7,0,0,0,.7-.63l.48-4.42,3.18-2.32,3.17,2.32.48,4.42a.7.7,0,0,0,.7.63h.08a.71.71,0,0,0,.63-.78l-.34-3.14,2.55,1.87a.7.7,0,0,0,1-.16.71.71,0,0,0-.15-1l-3.59-2.62-.43-3.91,3.6-1.59,4.08,1.79a.57.57,0,0,0,.28.06.71.71,0,0,0,.29-1.35l-2.89-1.27,2.89-1.28a.71.71,0,1,0-.57-1.29l-4.08,1.79L560.3,248l.43-3.91,3.59-2.63a.71.71,0,0,0,.15-1,.7.7,0,0,0-1-.16l-2.55,1.87.34-3.14a.71.71,0,0,0-1.41-.15l-.48,4.42-3.17,2.33L553,243.3l-.48-4.42a.7.7,0,0,0-.78-.63.69.69,0,0,0-.62.78l.34,3.14L549,240.3a.71.71,0,0,0-1,.16.71.71,0,0,0,.15,1l3.59,2.63.43,3.91-3.6,1.58-4.07-1.79a.71.71,0,1,0-.57,1.29l2.89,1.28-2.89,1.27A.7.7,0,0,0,543.53,252.55Zm6.76-2.2,2.88-1.28a.69.69,0,0,0,.42-.72l-.34-3.14,2.55,1.86a.68.68,0,0,0,.83,0l2.55-1.86-.34,3.14a.71.71,0,0,0,.42.72l2.89,1.28-2.89,1.27a.71.71,0,0,0-.42.72l.34,3.14-2.55-1.86a.69.69,0,0,0-.83,0l-2.55,1.86.34-3.14a.69.69,0,0,0-.42-.72Z" style="fill:#fff"/><path d="M464.43,368.3a1,1,0,0,0,.95.62,1,1,0,0,0,.42-.08l6-2.64,5.28,2.33-.63,5.73-5.26,3.86a1,1,0,1,0,1.22,1.67l3.74-2.73-.5,4.6a1,1,0,0,0,.92,1.14h.11a1,1,0,0,0,1-.93l.71-6.48L483,372l4.65,3.41.71,6.48a1,1,0,0,0,1,.93h.11a1,1,0,0,0,.92-1.14l-.5-4.6,3.74,2.73a1,1,0,1,0,1.22-1.67l-5.26-3.86-.63-5.73,5.28-2.33,6,2.64a1,1,0,0,0,.42.08,1,1,0,0,0,.42-2l-4.24-1.87,4.24-1.87a1,1,0,1,0-.84-1.9l-6,2.63L489,361.61l.63-5.73,5.26-3.86a1,1,0,1,0-1.22-1.67L490,353.08l.5-4.6a1,1,0,0,0-.92-1.14,1,1,0,0,0-1.14.91l-.71,6.49L483,358.15l-4.65-3.41-.71-6.49a1,1,0,0,0-1.14-.91,1,1,0,0,0-.92,1.14l.5,4.6-3.74-2.73a1,1,0,1,0-1.22,1.67l5.26,3.86.63,5.73-5.28,2.32-6-2.63a1,1,0,1,0-.84,1.9l4.24,1.87L465,366.94A1,1,0,0,0,464.43,368.3Zm9.91-3.23,4.24-1.87a1,1,0,0,0,.61-1.06l-.5-4.6,3.74,2.73a1,1,0,0,0,1.22,0l3.74-2.73-.5,4.6a1,1,0,0,0,.61,1.06l4.24,1.87-4.24,1.87a1,1,0,0,0-.61,1.06l.5,4.6-3.74-2.73a1,1,0,0,0-.61-.2,1,1,0,0,0-.61.2l-3.74,2.73.5-4.6a1,1,0,0,0-.61-1.06Z" style="fill:#fff"/><path d="M528.71,94.79a.7.7,0,0,0,.64.42.72.72,0,0,0,.29-.06l4.07-1.8,3.6,1.59-.42,3.91-3.6,2.63a.71.71,0,1,0,.84,1.14l2.55-1.86-.34,3.13a.69.69,0,0,0,.62.78H537a.7.7,0,0,0,.7-.63l.48-4.43,3.18-2.32,3.17,2.32.48,4.43a.71.71,0,0,0,.71.63h.07a.71.71,0,0,0,.63-.78l-.34-3.13,2.55,1.86a.72.72,0,0,0,1-.15.71.71,0,0,0-.16-1l-3.59-2.63-.42-3.91,3.59-1.59,4.08,1.8a.71.71,0,0,0,.28.06.72.72,0,0,0,.65-.42.71.71,0,0,0-.36-.94l-2.89-1.27,2.89-1.27a.71.71,0,0,0,.36-.94.72.72,0,0,0-.93-.36l-4.08,1.8-3.59-1.59.42-3.91,3.59-2.63a.71.71,0,0,0,.16-1,.72.72,0,0,0-1-.15l-2.55,1.86.34-3.13a.71.71,0,0,0-.63-.78.7.7,0,0,0-.78.62l-.48,4.43-3.17,2.32-3.18-2.32-.48-4.43a.68.68,0,0,0-.78-.62.69.69,0,0,0-.62.78l.34,3.13-2.55-1.86a.71.71,0,0,0-.84,1.14l3.6,2.63.42,3.91-3.6,1.59L529.64,90a.71.71,0,0,0-.57,1.3L532,92.58l-2.89,1.27A.71.71,0,0,0,528.71,94.79Zm6.76-2.21,2.89-1.27a.71.71,0,0,0,.41-.73l-.34-3.14L541,89.31a.72.72,0,0,0,.84,0l2.54-1.87L544,90.58a.73.73,0,0,0,.42.73l2.89,1.27-2.89,1.27a.73.73,0,0,0-.42.73l.34,3.14-2.54-1.87a.74.74,0,0,0-.42-.13.7.7,0,0,0-.42.13l-2.55,1.87.34-3.14a.71.71,0,0,0-.41-.73Z" style="fill:#fff"/><path d="M438.24,159.24a.46.46,0,0,0,.41.27.41.41,0,0,0,.19,0l2.58-1.14,2.29,1-.27,2.49-2.28,1.67a.45.45,0,1,0,.53.72l1.62-1.18-.22,2a.46.46,0,0,0,.4.5h.05a.45.45,0,0,0,.45-.4l.3-2.81,2-1.48,2,1.48.3,2.81a.45.45,0,0,0,.45.4h.05a.47.47,0,0,0,.4-.5l-.22-2,1.62,1.18a.45.45,0,0,0,.63-.09.46.46,0,0,0-.1-.63l-2.28-1.67-.27-2.49,2.28-1,2.59,1.14a.39.39,0,0,0,.18,0,.43.43,0,0,0,.41-.27.44.44,0,0,0-.22-.59l-1.84-.81,1.84-.81a.45.45,0,0,0-.37-.82l-2.59,1.14-2.28-1,.27-2.48,2.28-1.67a.46.46,0,0,0,.1-.63.45.45,0,0,0-.63-.1l-1.62,1.18.22-2a.47.47,0,0,0-.4-.5.46.46,0,0,0-.5.4l-.3,2.81-2,1.48-2-1.48-.3-2.81a.45.45,0,1,0-.9.1l.22,2-1.62-1.18a.45.45,0,0,0-.53.73l2.28,1.67.27,2.48-2.29,1-2.58-1.14a.45.45,0,1,0-.37.82l1.84.81-1.84.81A.46.46,0,0,0,438.24,159.24Zm4.3-1.4,1.84-.81a.46.46,0,0,0,.26-.46l-.22-2,1.62,1.18a.44.44,0,0,0,.53,0l1.62-1.18-.21,2a.44.44,0,0,0,.26.46l1.84.81-1.84.81a.45.45,0,0,0-.26.46l.21,2-1.62-1.19a.41.41,0,0,0-.26-.09.46.46,0,0,0-.27.09l-1.62,1.19.22-2a.47.47,0,0,0-.26-.46Z" style="fill:#fff"/><path d="M470.87,209.73a.91.91,0,0,0,0,1.28.93.93,0,0,0,.64.26.89.89,0,0,0,.63-.26l1.94-1.94h4.61l3.76,6.51-2.31,4-2.64.71a.9.9,0,0,0-.64,1.1.91.91,0,0,0,1.1.64l2.13-.57.58,2.13a.89.89,0,0,0,.86.67.67.67,0,0,0,.24,0,.89.89,0,0,0,.63-1.1l-.7-2.64,2.3-4h7.51l2.31,4-.71,2.64a.9.9,0,0,0,.64,1.1.66.66,0,0,0,.23,0,.91.91,0,0,0,.87-.67l.57-2.13,2.13.57a.9.9,0,1,0,.47-1.74l-2.64-.71-2.31-4,3.75-6.51h4.62l1.93,1.94a.92.92,0,0,0,1.28,0,.91.91,0,0,0,0-1.28l-1.57-1.56,1.57-1.56a.9.9,0,0,0,0-1.27.91.91,0,0,0-1.28,0l-1.93,1.93h-4.62l-3.75-6.5,2.31-4,2.64-.71a.9.9,0,1,0-.47-1.74l-2.13.57-.57-2.13a.9.9,0,0,0-1.1-.64.91.91,0,0,0-.64,1.11l.71,2.64-2.31,4H484l-2.3-4,.7-2.64a.9.9,0,1,0-1.73-.47l-.58,2.13-2.13-.57a.9.9,0,1,0-.46,1.74l2.64.71,2.31,4-3.76,6.5h-4.61l-1.94-1.93a.9.9,0,0,0-1.27,1.27l1.56,1.56Zm12.61-7.16,2.72,4.7h-5.43Zm7-.9-2.71,4.7-2.72-4.7Zm4.28,5.6h-5.43l2.71-4.7ZM492,213.78l-2.71-4.71h5.43Zm-7,.9,2.72-4.71,2.71,4.71Zm-4.27-5.61h5.43l-2.72,4.71Z" style="fill:#fff"/><path d="M140.27,22.73A.9.9,0,1,0,141.55,24l1.93-1.93h4.61l3.76,6.5-2.31,4-2.64.71a.9.9,0,0,0-.64,1.1.91.91,0,0,0,1.1.64l2.14-.58.57,2.14a.89.89,0,0,0,.87.66l.23,0a.91.91,0,0,0,.64-1.1l-.71-2.64,2.31-4h7.5l2.31,4-.71,2.64a.9.9,0,0,0,.64,1.1l.23,0a.9.9,0,0,0,.87-.66l.57-2.14L167,35a.92.92,0,0,0,1.11-.64.9.9,0,0,0-.64-1.1l-2.64-.71-2.31-4,3.76-6.5h4.61L172.77,24a.9.9,0,1,0,1.28-1.27l-1.56-1.56,1.56-1.56a.9.9,0,0,0,0-1.27.91.91,0,0,0-1.28,0l-1.93,1.93h-4.61l-3.76-6.5,2.31-4,2.64-.7A.9.9,0,1,0,167,7.33l-2.13.57-.57-2.13a.9.9,0,1,0-1.74.46l.71,2.64-2.31,4h-7.5l-2.31-4,.71-2.64a.9.9,0,0,0-1.74-.46L149.5,7.9l-2.14-.57a.9.9,0,0,0-1.1.63.91.91,0,0,0,.64,1.11l2.64.7,2.31,4-3.76,6.5h-4.61l-1.93-1.93a.91.91,0,0,0-1.28,0,.9.9,0,0,0,0,1.27l1.56,1.56Zm12.62-7.16,2.71,4.7h-5.43Zm7-.9-2.71,4.7-2.71-4.7Zm4.28,5.6h-5.43l2.71-4.7Zm-2.72,6.5-2.71-4.7h5.43Zm-7,.9,2.71-4.7,2.71,4.7Zm-4.28-5.6h5.43l-2.71,4.7Z" style="fill:#fff"/><path d="M61.45,417.76A.9.9,0,1,0,62.73,419l1.93-1.93h4.62L73,423.6l-2.31,4-2.64.71a.9.9,0,1,0,.47,1.73l2.13-.57.57,2.13a.89.89,0,0,0,.87.67l.23,0a.9.9,0,0,0,.64-1.1l-.71-2.64,2.31-4H82.1l2.3,4-.7,2.64a.89.89,0,0,0,.63,1.1l.24,0a.88.88,0,0,0,.86-.67l.58-2.13,2.13.57a.9.9,0,1,0,.46-1.73L86,427.6l-2.31-4,3.76-6.5H92L94,419a.86.86,0,0,0,.63.27.91.91,0,0,0,.64-1.54l-1.56-1.56,1.56-1.56A.9.9,0,0,0,94,413.37L92,415.3H87.41l-3.76-6.5,2.31-4,2.64-.71a.9.9,0,1,0-.46-1.73l-2.13.57-.58-2.13a.9.9,0,1,0-1.73.46l.7,2.64-2.3,4H74.59l-2.31-4,.71-2.64a.9.9,0,1,0-1.74-.46l-.57,2.13-2.13-.57a.9.9,0,1,0-.47,1.73l2.64.71,2.31,4-3.75,6.5H64.66l-1.93-1.93a.91.91,0,0,0-1.28,0,.9.9,0,0,0,0,1.27L63,416.2Zm12.62-7.16,2.71,4.7H71.35Zm7-.9-2.72,4.7-2.71-4.7Zm4.27,5.6H79.9l2.71-4.7Zm-2.72,6.5-2.71-4.7h5.43Zm-7,.9,2.71-4.7,2.72,4.7Zm-4.28-5.6h5.43l-2.71,4.7Z" style="fill:#fff"/><path d="M15.55,216a.52.52,0,0,0,0,.73.51.51,0,0,0,.36.15.51.51,0,0,0,.37-.15l1.11-1.11H20l2.15,3.72-1.33,2.29-1.51.4a.52.52,0,0,0,.27,1l1.22-.33.33,1.22a.52.52,0,0,0,.49.39l.14,0a.52.52,0,0,0,.36-.63l-.4-1.51,1.32-2.29h4.3l1.32,2.29-.41,1.51a.52.52,0,0,0,.37.63l.13,0a.52.52,0,0,0,.5-.39l.32-1.22,1.22.33a.52.52,0,1,0,.27-1l-1.51-.4-1.32-2.29,2.15-3.72h2.64l1.11,1.11a.51.51,0,0,0,.72,0,.5.5,0,0,0,0-.73l-.89-.9.89-.89a.5.5,0,0,0,0-.73.51.51,0,0,0-.72,0l-1.11,1.11H30.41l-2.15-3.72,1.32-2.29,1.51-.41a.51.51,0,0,0,.37-.63.52.52,0,0,0-.64-.36l-1.22.33-.32-1.22a.52.52,0,0,0-1,.26l.41,1.51-1.32,2.29h-4.3L21.75,208l.4-1.51a.51.51,0,1,0-1-.26l-.33,1.22-1.22-.33a.52.52,0,0,0-.63.36.51.51,0,0,0,.36.63l1.51.41,1.33,2.29L20,214.57H17.39l-1.11-1.11a.52.52,0,1,0-.73.73l.89.89Zm7.22-4.1,1.55,2.69h-3.1Zm4-.52-1.55,2.69-1.56-2.69Zm2.45,3.21H26.11l1.55-2.69Zm-1.56,3.72-1.55-2.69h3.11Zm-4,.52,1.56-2.69,1.55,2.69Zm-2.44-3.21h3.1l-1.55,2.69Z" style="fill:#fff"/><path d="M278.66,86.23a.38.38,0,0,0,0,.54.39.39,0,0,0,.27.11.38.38,0,0,0,.26-.11L280,86H282l1.58,2.74-1,1.69-1.11.29a.38.38,0,0,0,.2.74l.89-.24.24.89a.39.39,0,0,0,.37.29l.1,0a.38.38,0,0,0,.27-.46l-.3-1.11,1-1.69h3.16l1,1.69L288,91.87a.37.37,0,0,0,.26.46l.1,0a.39.39,0,0,0,.37-.29l.24-.89.9.24a.38.38,0,0,0,.19-.74L289,90.38l-1-1.69L289.59,86h1.94l.82.82a.39.39,0,0,0,.27.11.38.38,0,0,0,.26-.65l-.65-.65.65-.66a.38.38,0,0,0,0-.54.37.37,0,0,0-.53,0l-.82.82h-1.94L288,82.46l1-1.69,1.11-.29a.38.38,0,0,0-.19-.74L289,80l-.24-.89a.38.38,0,0,0-.47-.27.37.37,0,0,0-.26.46l.29,1.12-1,1.68h-3.16l-1-1.68.3-1.12a.38.38,0,0,0-.27-.46.39.39,0,0,0-.47.27l-.24.89-.89-.24a.38.38,0,1,0-.2.74l1.11.29,1,1.69L282,85.2H280l-.82-.82a.37.37,0,0,0-.53,0,.38.38,0,0,0,0,.54l.66.66Zm5.31-3,1.14,2h-2.28Zm2.94-.38-1.14,2-1.14-2Zm1.8,2.36h-2.28l1.14-2Zm-1.14,2.73-1.14-2h2.28Zm-2.94.38,1.14-2,1.14,2ZM282.83,86h2.28l-1.14,2Z" style="fill:#fff"/><path d="M472.35,89.45a.4.4,0,0,0,0,.54.43.43,0,0,0,.27.11.39.39,0,0,0,.27-.11l.82-.81h1.94l1.58,2.73-1,1.69-1.11.3a.36.36,0,0,0-.27.46.38.38,0,0,0,.46.27l.9-.24.24.9a.38.38,0,0,0,.37.28l.09,0a.36.36,0,0,0,.27-.46l-.3-1.11,1-1.69h3.16L482,94l-.3,1.11a.38.38,0,0,0,.27.46l.1,0a.38.38,0,0,0,.37-.28l.24-.9.89.24a.4.4,0,0,0,.47-.27.38.38,0,0,0-.27-.46l-1.11-.3-1-1.68,1.58-2.74h1.94L486,90a.43.43,0,0,0,.27.11.39.39,0,0,0,.27-.11.38.38,0,0,0,0-.54l-.66-.65.66-.66a.38.38,0,0,0,0-.54.4.4,0,0,0-.54,0l-.81.82h-1.94l-1.58-2.74,1-1.68,1.11-.3a.39.39,0,0,0,.27-.47.38.38,0,0,0-.47-.26l-.89.24-.24-.9A.4.4,0,0,0,482,82a.39.39,0,0,0-.27.47l.3,1.11-1,1.68h-3.16l-1-1.68.29-1.11a.38.38,0,0,0-.27-.47.38.38,0,0,0-.46.27l-.24.9-.9-.24a.37.37,0,0,0-.46.26.38.38,0,0,0,.27.47l1.11.3,1,1.68-1.58,2.74h-1.94l-.82-.82a.38.38,0,0,0-.54.54l.66.66Zm5.32-3,1.14,2h-2.29Zm2.94-.38-1.14,2-1.15-2Zm1.8,2.36h-2.29l1.15-2Zm-1.14,2.74-1.15-2h2.29Zm-2.95.38,1.15-2,1.14,2Zm-1.8-2.36h2.29l-1.14,2Z" style="fill:#fff"/><path d="M551.44,426.16a.38.38,0,0,0,0,.54.39.39,0,0,0,.27.11.38.38,0,0,0,.26-.11l.82-.82h1.94l1.58,2.74-1,1.68-1.11.3a.39.39,0,0,0-.27.47.37.37,0,0,0,.46.26l.9-.24.24.9a.38.38,0,0,0,.37.28h.1a.39.39,0,0,0,.27-.47l-.3-1.11,1-1.68h3.16l1,1.68-.29,1.11a.38.38,0,0,0,.26.47h.1a.38.38,0,0,0,.37-.28l.24-.9.9.24a.37.37,0,0,0,.46-.26.38.38,0,0,0-.27-.47l-1.11-.3-1-1.68,1.58-2.74h1.94l.82.82a.39.39,0,0,0,.27.11.38.38,0,0,0,.26-.65l-.65-.66.65-.66a.37.37,0,0,0-.53-.53l-.82.81h-1.94l-1.58-2.74,1-1.68,1.11-.3a.36.36,0,0,0,.27-.46.38.38,0,0,0-.46-.27l-.9.24-.24-.9a.38.38,0,0,0-.47-.26.37.37,0,0,0-.26.46l.29,1.11-1,1.69H557l-1-1.69.3-1.11a.38.38,0,0,0-.74-.2l-.24.9-.9-.24a.38.38,0,0,0-.46.27.38.38,0,0,0,.27.46l1.11.3,1,1.68-1.58,2.74h-1.94l-.82-.81a.37.37,0,0,0-.53.53l.66.66Zm5.31-3,1.14,2h-2.28Zm2.94-.38-1.14,2-1.14-2Zm1.8,2.36h-2.28l1.14-2Zm-1.14,2.74-1.14-2h2.28Zm-2.94.38,1.14-2,1.14,2Zm-1.8-2.36h2.28l-1.14,2Z" style="fill:#fff"/><path d="M106.53,278.48a.37.37,0,0,0,0,.53.35.35,0,0,0,.27.11.34.34,0,0,0,.26-.11l.82-.81h1.94l1.58,2.74-1,1.68-1.11.3a.38.38,0,0,0-.27.46.38.38,0,0,0,.46.27l.9-.24.24.9a.38.38,0,0,0,.37.28h.1a.38.38,0,0,0,.26-.47l-.29-1.11,1-1.68h3.16l1,1.68-.29,1.11a.38.38,0,0,0,.26.47h.1a.38.38,0,0,0,.37-.28l.24-.9.9.24a.38.38,0,0,0,.19-.73l-1.11-.3-1-1.68,1.58-2.74h1.94l.82.81a.34.34,0,0,0,.26.11.35.35,0,0,0,.27-.11.37.37,0,0,0,0-.53l-.65-.66.65-.66a.37.37,0,1,0-.53-.53l-.82.81h-1.94l-1.58-2.74,1-1.68,1.11-.3a.38.38,0,0,0,.27-.46.36.36,0,0,0-.46-.27l-.9.24-.24-.9a.4.4,0,0,0-.47-.27.38.38,0,0,0-.26.47l.29,1.11-1,1.68h-3.16l-1-1.68.29-1.11a.38.38,0,0,0-.26-.47.4.4,0,0,0-.47.27l-.24.9-.9-.24a.36.36,0,0,0-.46.27.38.38,0,0,0,.27.46l1.11.3,1,1.68-1.58,2.74h-1.94l-.82-.81a.37.37,0,1,0-.53.53l.65.66Zm5.31-3,1.14,2H110.7Zm2.94-.38-1.14,2-1.14-2Zm1.8,2.36H114.3l1.14-2Zm-1.14,2.74-1.14-2h2.28Zm-2.94.38,1.14-2,1.14,2Zm-1.8-2.36H113l-1.14,2Z" style="fill:#fff"/></g><path d="M584.79,28.62A4.82,4.82,0,0,0,580,33.44c0,3,3.78,9.67,4.82,9.8,1-.13,4.82-6.85,4.82-9.8A4.83,4.83,0,0,0,584.79,28.62Z" style="fill:#be1e2d"/><path d="M586.67,28.93a.52.52,0,0,1-.52-.52V26.59h-2.73v1.82a.52.52,0,0,1-.52.52.52.52,0,0,1-.52-.52V26.07a.52.52,0,0,1,.52-.51h3.77a.51.51,0,0,1,.52.51v2.34A.52.52,0,0,1,586.67,28.93Z" style="fill:#1d1d1b"/><path d="M584.79,25.38a.51.51,0,0,1-.4-.19,5.31,5.31,0,0,1-1.27-2.35,1.67,1.67,0,1,1,3.33,0,5.29,5.29,0,0,1-1.26,2.35A.53.53,0,0,1,584.79,25.38Zm0-3.17a.63.63,0,0,0-.63.63,3.44,3.44,0,0,0,.63,1.16,3.35,3.35,0,0,0,.62-1.16A.63.63,0,0,0,584.79,22.21Z" style="fill:#1d1d1b"/><path d="M584.79,44.27c-2.09,0-5.86-8.06-5.86-10.83a5.86,5.86,0,0,1,11.72,0C590.65,36.21,586.88,44.27,584.79,44.27Zm0-15.65A4.82,4.82,0,0,0,580,33.44c0,3,3.78,9.67,4.82,9.8,1-.13,4.82-6.85,4.82-9.8A4.83,4.83,0,0,0,584.79,28.62Z" style="fill:#1d1d1b"/><path d="M581.92,35a.51.51,0,0,1-.51-.39,5.22,5.22,0,0,1-.17-1.17,3.57,3.57,0,0,1,1.16-2.63.53.53,0,0,1,.74,0,.52.52,0,0,1,0,.73,2.53,2.53,0,0,0-.82,1.86,4.29,4.29,0,0,0,.14.92A.52.52,0,0,1,582,35Z" style="fill:#ea003d"/><path d="M582.65,37.11a.51.51,0,0,1-.47-.32l-.13-.3a.52.52,0,0,1,1-.39l.12.28a.52.52,0,0,1-.27.68A.54.54,0,0,1,582.65,37.11Z" style="fill:#ea003d"/><path d="M484.49,43.37A4.82,4.82,0,0,0,480.58,49c.51,2.91,5.41,8.86,6.46,8.81,1-.31,3.54-7.58,3-10.48A4.82,4.82,0,0,0,484.49,43.37Z" style="fill:#006838"/><path d="M486.4,43.35a.52.52,0,0,1-.6-.42l-.32-1.79-2.69.47.32,1.79a.52.52,0,0,1-1,.18l-.4-2.3a.52.52,0,0,1,.42-.6l3.71-.66a.52.52,0,0,1,.6.42l.41,2.31A.52.52,0,0,1,486.4,43.35Z" style="fill:#1d1d1b"/><path d="M483.92,40.18a.53.53,0,0,1-.42-.12c-.36-.3-1.53-1.35-1.66-2.1a1.67,1.67,0,0,1,3.28-.58,5.39,5.39,0,0,1-.84,2.54A.52.52,0,0,1,483.92,40.18Zm-.55-3.12a.62.62,0,0,0-.51.72,3.42,3.42,0,0,0,.82,1,3.43,3.43,0,0,0,.42-1.26A.63.63,0,0,0,483.37,37.06Z" style="fill:#1d1d1b"/><path d="M487.21,58.78c-2.06.37-7.17-6.92-7.65-9.65a5.85,5.85,0,0,1,11.53-2C491.58,49.82,489.27,58.42,487.21,58.78Zm-2.72-15.41A4.82,4.82,0,0,0,480.58,49c.51,2.91,5.41,8.86,6.46,8.81,1-.31,3.54-7.58,3-10.48A4.82,4.82,0,0,0,484.49,43.37Z" style="fill:#1d1d1b"/><path d="M482.77,50.15a.51.51,0,0,1-.56-.3,4.93,4.93,0,0,1-.38-1.12,3.58,3.58,0,0,1,.69-2.79.52.52,0,0,1,.73-.09.51.51,0,0,1,.09.73,2.54,2.54,0,0,0-.49,2,4.57,4.57,0,0,0,.3.88.5.5,0,0,1-.26.68A.28.28,0,0,1,482.77,50.15Z" style="fill:#39b54a"/><path d="M483.86,52.1a.51.51,0,0,1-.52-.23l-.18-.27A.52.52,0,0,1,484,51l.17.26a.52.52,0,0,1-.16.72A.64.64,0,0,1,483.86,52.1Z" style="fill:#39b54a"/><path d="M424.63,50.58a4.83,4.83,0,0,0-5.12,4.51c-.18,2.94,3.17,9.88,4.2,10.08,1-.07,5.24-6.53,5.42-9.48A4.82,4.82,0,0,0,424.63,50.58Z" style="fill:#fff200"/><path d="M426.49,51a.52.52,0,0,1-.49-.55l.12-1.82-2.73-.17-.11,1.82a.52.52,0,0,1-.55.48.51.51,0,0,1-.49-.55l.15-2.33a.52.52,0,0,1,.55-.49l3.76.24a.52.52,0,0,1,.49.55L427,50.53A.52.52,0,0,1,426.49,51Z" style="fill:#1d1d1b"/><path d="M424.83,47.34a.53.53,0,0,1-.39-.21,5.36,5.36,0,0,1-1.11-2.43,1.66,1.66,0,0,1,3.32.21,5.25,5.25,0,0,1-1.41,2.27A.51.51,0,0,1,424.83,47.34Zm.2-3.16a.63.63,0,0,0-.66.59,3.43,3.43,0,0,0,.55,1.2,3.46,3.46,0,0,0,.7-1.12A.63.63,0,0,0,425,44.18Z" style="fill:#1d1d1b"/><path d="M423.64,66.2c-2.09-.13-5.34-8.42-5.16-11.18a5.86,5.86,0,1,1,11.69.74C430,58.52,425.73,66.34,423.64,66.2Zm1-15.62a4.83,4.83,0,0,0-5.12,4.51c-.18,2.94,3.17,9.88,4.2,10.08,1-.07,5.24-6.53,5.42-9.48A4.82,4.82,0,0,0,424.63,50.58Z" style="fill:#1d1d1b"/><path d="M421.36,56.77a.54.54,0,0,1-.48-.42,5.38,5.38,0,0,1-.1-1.18,3.54,3.54,0,0,1,1.33-2.55.52.52,0,0,1,.65.81,2.51,2.51,0,0,0-.94,1.8,3.66,3.66,0,0,0,.08.92.51.51,0,0,1-.41.61Z" style="fill:#fff27d"/><path d="M422,58.91a.5.5,0,0,1-.45-.34l-.11-.31a.52.52,0,0,1,.33-.65.52.52,0,0,1,.66.32l.1.29a.53.53,0,0,1-.32.67A.5.5,0,0,1,422,58.91Z" style="fill:#fff27d"/><path d="M363.43,58a4.82,4.82,0,0,0-4.28,5.3c.31,2.93,4.79,9.21,5.84,9.23,1-.24,4.06-7.32,3.74-10.25A4.81,4.81,0,0,0,363.43,58Z" style="fill:#be1e2d"/><path d="M365.33,58.1a.52.52,0,0,1-.57-.46l-.19-1.81-2.72.29.2,1.81a.52.52,0,0,1-1,.11l-.24-2.33a.51.51,0,0,1,.46-.57l3.75-.4a.52.52,0,0,1,.57.46l.25,2.33A.52.52,0,0,1,365.33,58.1Z" style="fill:#1d1d1b"/><path d="M363.08,54.76a.51.51,0,0,1-.42-.14c-.33-.33-1.42-1.45-1.5-2.21a1.66,1.66,0,1,1,3.31-.35,5.29,5.29,0,0,1-1,2.47A.5.5,0,0,1,363.08,54.76Zm-.34-3.15a.63.63,0,0,0-.55.69,3.5,3.5,0,0,0,.75,1.1,3.5,3.5,0,0,0,.49-1.23A.63.63,0,0,0,362.74,51.61Z" style="fill:#1d1d1b"/><path d="M365.09,73.55c-2.08.23-6.68-7.4-7-10.15a5.85,5.85,0,1,1,11.64-1.24C370.06,64.91,367.17,73.33,365.09,73.55ZM363.43,58a4.82,4.82,0,0,0-4.28,5.3c.31,2.93,4.79,9.21,5.84,9.23,1-.24,4.06-7.32,3.74-10.25A4.81,4.81,0,0,0,363.43,58Z" style="fill:#1d1d1b"/><path d="M361.25,64.64a.52.52,0,0,1-.54-.34,5,5,0,0,1-.3-1.14,3.54,3.54,0,0,1,.88-2.74.52.52,0,0,1,.73,0,.51.51,0,0,1,.05.73,2.56,2.56,0,0,0-.63,1.94,4.46,4.46,0,0,0,.24.89.52.52,0,0,1-.3.67Z" style="fill:#ea003d"/><path d="M362.21,66.65a.53.53,0,0,1-.51-.26l-.15-.28a.52.52,0,0,1,.21-.71.52.52,0,0,1,.7.21l.15.27a.52.52,0,0,1-.21.71A.6.6,0,0,1,362.21,66.65Z" style="fill:#ea003d"/><path d="M231.22,69.91a4.82,4.82,0,0,0-5,4.58c-.14,3,3.32,9.84,4.36,10,1-.08,5.13-6.61,5.27-9.56A4.82,4.82,0,0,0,231.22,69.91Z" style="fill:#f15a29"/><path d="M233.09,70.31a.51.51,0,0,1-.49-.54l.08-1.82L230,67.82l-.09,1.82a.52.52,0,0,1-1,0l.11-2.34a.52.52,0,0,1,.55-.49l3.76.18a.52.52,0,0,1,.5.54l-.11,2.34A.53.53,0,0,1,233.09,70.31Z" style="fill:#1d1d1b"/><path d="M231.38,66.67a.5.5,0,0,1-.39-.21,5.38,5.38,0,0,1-1.16-2.41,1.67,1.67,0,0,1,3.33.16,5.33,5.33,0,0,1-1.37,2.29A.54.54,0,0,1,231.38,66.67Zm.15-3.16a.63.63,0,0,0-.66.59,3.61,3.61,0,0,0,.57,1.2,3.4,3.4,0,0,0,.68-1.14A.62.62,0,0,0,231.53,63.51Z" style="fill:#1d1d1b"/><path d="M230.48,85.54c-2.09-.09-5.47-8.33-5.34-11.1a5.86,5.86,0,0,1,11.71.56C236.72,77.76,232.57,85.64,230.48,85.54Zm.74-15.63a4.82,4.82,0,0,0-5,4.58c-.14,3,3.32,9.84,4.36,10,1-.08,5.13-6.61,5.27-9.56A4.82,4.82,0,0,0,231.22,69.91Z" style="fill:#1d1d1b"/><path d="M228.05,76.15a.52.52,0,0,1-.48-.42,5.46,5.46,0,0,1-.12-1.18A3.55,3.55,0,0,1,228.74,72a.5.5,0,0,1,.73.07.52.52,0,0,1-.07.73,2.48,2.48,0,0,0-.91,1.81,3.85,3.85,0,0,0,.1.92.53.53,0,0,1-.41.62Z" style="fill:#f7941d"/><path d="M228.69,78.28a.5.5,0,0,1-.46-.34l-.11-.3a.52.52,0,0,1,1-.34l.1.29a.52.52,0,0,1-.31.66A.34.34,0,0,1,228.69,78.28Z" style="fill:#f7941d"/><path d="M171,73.12a4.83,4.83,0,0,0-4.37,5.23c.26,2.94,4.63,9.29,5.68,9.33,1-.23,4.18-7.26,3.92-10.19A4.83,4.83,0,0,0,171,73.12Z" style="fill:#006838"/><path d="M172.9,73.26a.51.51,0,0,1-.56-.47L172.17,71l-2.72.24.17,1.82a.52.52,0,0,1-1,.09l-.21-2.33a.52.52,0,0,1,.47-.56l3.76-.34a.51.51,0,0,1,.56.47l.21,2.33A.51.51,0,0,1,172.9,73.26Z" style="fill:#1d1d1b"/><path d="M170.7,69.89a.53.53,0,0,1-.41-.15,5.31,5.31,0,0,1-1.47-2.23,1.66,1.66,0,0,1,1.51-1.81,1.68,1.68,0,0,1,1.81,1.51,5.49,5.49,0,0,1-1,2.46A.54.54,0,0,1,170.7,69.89Zm-.28-3.15a.63.63,0,0,0-.57.68,3.62,3.62,0,0,0,.73,1.1,3.4,3.4,0,0,0,.52-1.22A.61.61,0,0,0,170.42,66.74Z" style="fill:#1d1d1b"/><path d="M172.4,88.71c-2.09.19-6.56-7.51-6.81-10.27a5.86,5.86,0,0,1,11.67-1C177.51,80.15,174.48,88.52,172.4,88.71ZM171,73.12a4.83,4.83,0,0,0-4.37,5.23c.26,2.94,4.63,9.29,5.68,9.33,1-.23,4.18-7.26,3.92-10.19A4.83,4.83,0,0,0,171,73.12Z" style="fill:#1d1d1b"/><path d="M168.71,79.73a.52.52,0,0,1-.54-.34,5.55,5.55,0,0,1-.28-1.15,3.53,3.53,0,0,1,.93-2.72.52.52,0,0,1,.76.7,2.48,2.48,0,0,0-.65,1.92,3.62,3.62,0,0,0,.22.9.53.53,0,0,1-.32.67Z" style="fill:#39b54a"/><path d="M169.63,81.76a.51.51,0,0,1-.5-.27l-.15-.28a.52.52,0,0,1,.22-.7.51.51,0,0,1,.7.22L170,81a.51.51,0,0,1-.21.7A.39.39,0,0,1,169.63,81.76Z" style="fill:#39b54a"/><path d="M42.25,71.57a4.84,4.84,0,0,0-4.4,5.21c.25,2.94,4.58,9.32,5.64,9.36,1-.22,4.22-7.23,4-10.17A4.83,4.83,0,0,0,42.25,71.57Z" style="fill:#be1e2d"/><path d="M44.15,71.73a.53.53,0,0,1-.56-.48l-.15-1.81-2.72.23.15,1.81a.52.52,0,0,1-1,.09l-.19-2.33a.52.52,0,0,1,.47-.56l3.76-.32a.52.52,0,0,1,.56.48l.2,2.33A.53.53,0,0,1,44.15,71.73Z" style="fill:#1d1d1b"/><path d="M42,68.34a.5.5,0,0,1-.42-.15A5.33,5.33,0,0,1,40.1,66a1.67,1.67,0,0,1,3.32-.28,5.41,5.41,0,0,1-1.06,2.45A.5.5,0,0,1,42,68.34Zm-.27-3.15a.62.62,0,0,0-.57.67A3.25,3.25,0,0,0,41.86,67a3.68,3.68,0,0,0,.53-1.21A.63.63,0,0,0,41.71,65.19Z" style="fill:#1d1d1b"/><path d="M43.57,87.17c-2.09.18-6.52-7.54-6.75-10.3a5.86,5.86,0,1,1,11.67-1C48.73,78.64,45.65,87,43.57,87.17Zm-1.32-15.6a4.84,4.84,0,0,0-4.4,5.21c.25,2.94,4.58,9.32,5.64,9.36,1-.22,4.22-7.23,4-10.17A4.83,4.83,0,0,0,42.25,71.57Z" style="fill:#1d1d1b"/><path d="M39.93,78.18a.52.52,0,0,1-.54-.35,4.88,4.88,0,0,1-.27-1.15A3.54,3.54,0,0,1,40.06,74a.52.52,0,0,1,.73,0,.53.53,0,0,1,0,.74,2.53,2.53,0,0,0-.67,1.92,4.42,4.42,0,0,0,.22.9.51.51,0,0,1-.32.66Z" style="fill:#ea003d"/><path d="M40.84,80.21a.53.53,0,0,1-.51-.28l-.14-.28a.52.52,0,1,1,.92-.47l.14.27a.51.51,0,0,1-.21.7Z" style="fill:#ea003d"/><path d="M199,57.18a6.17,6.17,0,1,0,6.57,5.74A6.18,6.18,0,0,0,199,57.18Z" style="fill:#fff200"/><path d="M199.91,70.57a7.25,7.25,0,1,1,6.75-7.72A7.26,7.26,0,0,1,199.91,70.57ZM199,57.18a6.17,6.17,0,1,0,6.57,5.74A6.18,6.18,0,0,0,199,57.18Z" style="fill:#1d1d1b"/><path d="M201,57.34a.53.53,0,0,1-.57-.5L200.28,55l-2.82.19.13,1.88a.54.54,0,0,1-1.08.07l-.16-2.41a.54.54,0,0,1,.5-.58l3.89-.26a.55.55,0,0,1,.58.5l.16,2.42A.54.54,0,0,1,201,57.34Z" style="fill:#1d1d1b"/><path d="M198.79,53.8h0a.54.54,0,0,1-.43-.17,5.47,5.47,0,0,1-1.47-2.34,1.72,1.72,0,1,1,3.44-.23,5.64,5.64,0,0,1-1.14,2.52A.54.54,0,0,1,198.79,53.8Zm-.23-3.27a.65.65,0,0,0-.6.69,3.5,3.5,0,0,0,.73,1.16,3.8,3.8,0,0,0,.57-1.25A.65.65,0,0,0,198.56,50.53Z" style="fill:#1d1d1b"/><path d="M196.92,63.91A2.24,2.24,0,1,1,199,61.53,2.25,2.25,0,0,1,196.92,63.91Zm-.23-3.39a1.16,1.16,0,1,0,.16,2.32,1.16,1.16,0,1,0-.16-2.32Z" style="fill:#fff27d"/><path d="M196.78,67.34a1.49,1.49,0,1,1,1.39-1.59A1.49,1.49,0,0,1,196.78,67.34Zm-.13-1.91a.42.42,0,1,0,.45.39A.42.42,0,0,0,196.65,65.43Z" style="fill:#fff27d"/><path d="M138.47,51.7A6.17,6.17,0,1,0,144,58.42,6.18,6.18,0,0,0,138.47,51.7Z" style="fill:#1b75bc"/><path d="M137.22,65.05a7.24,7.24,0,1,1,7.89-6.53A7.25,7.25,0,0,1,137.22,65.05Zm1.25-13.35A6.17,6.17,0,1,0,144,58.42,6.18,6.18,0,0,0,138.47,51.7Z" style="fill:#1d1d1b"/><path d="M140.38,52.17a.54.54,0,0,1-.48-.59l.18-1.87-2.82-.27-.18,1.88a.52.52,0,0,1-.58.48.54.54,0,0,1-.49-.58l.23-2.41a.54.54,0,0,1,.58-.49l3.89.37a.54.54,0,0,1,.49.58L141,51.68A.54.54,0,0,1,140.38,52.17Z" style="fill:#1d1d1b"/><path d="M138.78,48.32h0a.54.54,0,0,1-.39-.23,5.56,5.56,0,0,1-1.08-2.55,1.73,1.73,0,0,1,3.44.32,5.57,5.57,0,0,1-1.53,2.31A.56.56,0,0,1,138.78,48.32Zm.31-3.26a.65.65,0,0,0-.71.58,3.85,3.85,0,0,0,.54,1.27,3.66,3.66,0,0,0,.76-1.15A.65.65,0,0,0,139.09,45.06Z" style="fill:#1d1d1b"/><path d="M135.32,58a2.24,2.24,0,1,1,2.44-2A2.25,2.25,0,0,1,135.32,58Zm.32-3.39a1.17,1.17,0,0,0-.22,2.32,1.18,1.18,0,0,0,1.27-1A1.17,1.17,0,0,0,135.64,54.62Z" style="fill:#00aeef"/><path d="M134.64,61.37A1.5,1.5,0,1,1,136.27,60,1.49,1.49,0,0,1,134.64,61.37Zm.18-1.91a.42.42,0,1,0,.38.46A.42.42,0,0,0,134.82,59.46Z" style="fill:#00aeef"/><path d="M79.24,45a6.17,6.17,0,1,0,6,6.3A6.17,6.17,0,0,0,79.24,45Z" style="fill:#4e2175"/><path d="M79,58.38a7.25,7.25,0,1,1,7.4-7.09A7.25,7.25,0,0,1,79,58.38ZM79.24,45a6.17,6.17,0,1,0,6,6.3A6.17,6.17,0,0,0,79.24,45Z" style="fill:#1d1d1b"/><path d="M81.18,45.3a.54.54,0,0,1-.52-.55l0-1.88-2.83-.07,0,1.89a.54.54,0,0,1-.55.52.52.52,0,0,1-.52-.55l0-2.42a.53.53,0,0,1,.55-.52l3.9.08a.53.53,0,0,1,.52.55l0,2.42A.54.54,0,0,1,81.18,45.3Z" style="fill:#1d1d1b"/><path d="M79.31,41.58h0a.55.55,0,0,1-.41-.21,5.51,5.51,0,0,1-1.25-2.46,1.72,1.72,0,1,1,3.44.07,5.43,5.43,0,0,1-1.36,2.41A.55.55,0,0,1,79.31,41.58Zm.07-3.28a.65.65,0,0,0-.66.63,3.62,3.62,0,0,0,.62,1.22A3.75,3.75,0,0,0,80,39,.65.65,0,0,0,79.38,38.3Z" style="fill:#1d1d1b"/><path d="M76.55,51.48a2.24,2.24,0,1,1,2.29-2.19A2.25,2.25,0,0,1,76.55,51.48Zm.08-3.4a1.17,1.17,0,1,0,1.13,1.19A1.15,1.15,0,0,0,76.63,48.08Z" style="fill:#662d91"/><path d="M76.11,54.89a1.5,1.5,0,1,1,1.53-1.47A1.5,1.5,0,0,1,76.11,54.89Zm0-1.92a.42.42,0,1,0,0,.84.41.41,0,0,0,.43-.41A.42.42,0,0,0,76.15,53Z" style="fill:#662d91"/><path d="M13.85,34.44a6.17,6.17,0,1,0,5.24,7A6.18,6.18,0,0,0,13.85,34.44Z" style="fill:#006838"/><path d="M12,47.72a7.24,7.24,0,1,1,8.2-6.15A7.25,7.25,0,0,1,12,47.72Zm1.9-13.28a6.17,6.17,0,1,0,5.24,7A6.18,6.18,0,0,0,13.85,34.44Z" style="fill:#1d1d1b"/><path d="M15.74,35a.53.53,0,0,1-.45-.6l.26-1.87-2.8-.4L12.49,34a.54.54,0,0,1-1.07-.16l.35-2.39a.53.53,0,0,1,.6-.46l3.87.55a.54.54,0,0,1,.45.61l-.34,2.4A.53.53,0,0,1,15.74,35Z" style="fill:#1d1d1b"/><path d="M14.33,31.09h0a.55.55,0,0,1-.38-.26A5.52,5.52,0,0,1,13,28.24a1.72,1.72,0,1,1,3.41.48c-.11.78-1.28,1.91-1.64,2.23A.55.55,0,0,1,14.33,31.09Zm.47-3.25a.65.65,0,0,0-.74.55,3.82,3.82,0,0,0,.47,1.29,3.79,3.79,0,0,0,.82-1.11A.65.65,0,0,0,14.8,27.84Z" style="fill:#1d1d1b"/><path d="M10.4,40.59a2.24,2.24,0,1,1,2.54-1.9A2.23,2.23,0,0,1,10.4,40.59Zm.49-3.37a1.16,1.16,0,1,0,1,1.32A1.16,1.16,0,0,0,10.89,37.22Z" style="fill:#39b54a"/><path d="M9.56,43.92a1.5,1.5,0,1,1,1.69-1.27A1.5,1.5,0,0,1,9.56,43.92ZM9.83,42a.42.42,0,1,0,.36.48A.42.42,0,0,0,9.83,42Z" style="fill:#39b54a"/><path d="M565,64.22a6.17,6.17,0,1,0,5.79,6.53A6.18,6.18,0,0,0,565,64.22Z" style="fill:#006838"/><path d="M564.19,77.61a7.24,7.24,0,1,1,7.67-6.79A7.25,7.25,0,0,1,564.19,77.61ZM565,64.22a6.17,6.17,0,1,0,5.79,6.53A6.18,6.18,0,0,0,565,64.22Z" style="fill:#1d1d1b"/><path d="M566.94,64.63a.54.54,0,0,1-.51-.57l.12-1.88L563.72,62l-.11,1.88a.54.54,0,0,1-.57.5.53.53,0,0,1-.5-.57l.14-2.42a.54.54,0,0,1,.57-.5l3.9.24a.54.54,0,0,1,.5.57l-.15,2.41A.53.53,0,0,1,566.94,64.63Z" style="fill:#1d1d1b"/><path d="M565.21,60.84h0a.53.53,0,0,1-.4-.22,5.57,5.57,0,0,1-1.16-2.51,1.72,1.72,0,1,1,3.44.21,5.61,5.61,0,0,1-1.45,2.35A.57.57,0,0,1,565.21,60.84Zm.2-3.28a.66.66,0,0,0-.69.61.78.78,0,1,0,1.3.08A.65.65,0,0,0,565.41,57.56Z" style="fill:#1d1d1b"/><path d="M562.07,70.63a2.24,2.24,0,1,1,2.37-2.1A2.24,2.24,0,0,1,562.07,70.63Zm.2-3.4a1.16,1.16,0,1,0,1.09,1.23A1.16,1.16,0,0,0,562.27,67.23Z" style="fill:#39b54a"/><path d="M561.49,74a1.5,1.5,0,1,1,1.59-1.4A1.5,1.5,0,0,1,561.49,74Zm.12-1.91a.42.42,0,1,0-.05.84.42.42,0,0,0,.44-.4A.41.41,0,0,0,561.61,72.1Z" style="fill:#39b54a"/><path d="M515.81,65.57a6.17,6.17,0,1,0,6.73,5.55A6.17,6.17,0,0,0,515.81,65.57Z" style="fill:#be1e2d"/><path d="M517.09,78.92a7.24,7.24,0,1,1,6.52-7.9A7.25,7.25,0,0,1,517.09,78.92Zm-1.28-13.35a6.17,6.17,0,1,0,6.73,5.55A6.17,6.17,0,0,0,515.81,65.57Z" style="fill:#1d1d1b"/><path d="M517.78,65.67a.54.54,0,0,1-.58-.49L517,63.31l-2.82.27.18,1.87a.54.54,0,1,1-1.07.1l-.23-2.41a.54.54,0,0,1,.49-.58l3.88-.37a.54.54,0,0,1,.59.48l.23,2.41A.54.54,0,0,1,517.78,65.67Z" style="fill:#1d1d1b"/><path d="M515.49,62.19h0a.5.5,0,0,1-.43-.16c-.34-.34-1.46-1.51-1.53-2.3a1.72,1.72,0,0,1,3.43-.32A5.6,5.6,0,0,1,515.89,62,.57.57,0,0,1,515.49,62.19Zm-.31-3.26a.63.63,0,0,0-.58.7,3.37,3.37,0,0,0,.76,1.14,3.65,3.65,0,0,0,.53-1.26A.64.64,0,0,0,515.18,58.93Z" style="fill:#1d1d1b"/><path d="M513.91,72.35a2.24,2.24,0,1,1,2-2.44A2.25,2.25,0,0,1,513.91,72.35ZM513.58,69a1.17,1.17,0,0,0,.22,2.32,1.17,1.17,0,0,0-.22-2.32Z" style="fill:#ea003d"/><path d="M513.86,75.79a1.5,1.5,0,1,1,1.35-1.64A1.51,1.51,0,0,1,513.86,75.79Zm-.18-1.92a.43.43,0,0,0-.38.46.41.41,0,0,0,.46.38.42.42,0,0,0,.38-.46A.42.42,0,0,0,513.68,73.87Z" style="fill:#ea003d"/><path d="M460.19,66a6.17,6.17,0,1,0,5.95,6.38A6.16,6.16,0,0,0,460.19,66Z" style="fill:#1b75bc"/><path d="M459.71,79.36a7.24,7.24,0,1,1,7.5-7A7.26,7.26,0,0,1,459.71,79.36Zm.48-13.4a6.17,6.17,0,1,0,5.95,6.38A6.16,6.16,0,0,0,460.19,66Z" style="fill:#1d1d1b"/><path d="M462.13,66.31a.53.53,0,0,1-.51-.55l.06-1.88-2.82-.11-.07,1.89a.54.54,0,0,1-.56.51.54.54,0,0,1-.52-.55l.09-2.42a.54.54,0,0,1,.56-.52l3.9.14a.54.54,0,0,1,.52.56l-.09,2.42A.53.53,0,0,1,462.13,66.31Z" style="fill:#1d1d1b"/><path d="M460.32,62.57h0a.59.59,0,0,1-.41-.21,5.51,5.51,0,0,1-1.22-2.48,1.72,1.72,0,1,1,3.44.12,5.53,5.53,0,0,1-1.39,2.39A.56.56,0,0,1,460.32,62.57Zm.11-3.28a.66.66,0,0,0-.67.62,3.75,3.75,0,0,0,.61,1.23,3.63,3.63,0,0,0,.69-1.18A.65.65,0,0,0,460.43,59.29Z" style="fill:#1d1d1b"/><path d="M457.41,72.43a2.24,2.24,0,1,1,2.32-2.15A2.23,2.23,0,0,1,457.41,72.43Zm.13-3.4a1.17,1.17,0,1,0,1.12,1.21A1.18,1.18,0,0,0,457.54,69Z" style="fill:#00aeef"/><path d="M456.92,75.83a1.5,1.5,0,1,1,1.55-1.44A1.5,1.5,0,0,1,456.92,75.83Zm.07-1.92a.43.43,0,1,0,.41.44A.42.42,0,0,0,457,73.91Z" style="fill:#00aeef"/><path d="M395.77,66.24A6.17,6.17,0,1,0,402.34,72,6.17,6.17,0,0,0,395.77,66.24Z" style="fill:#4e2175"/><path d="M396.67,79.62a7.24,7.24,0,1,1,6.74-7.71A7.25,7.25,0,0,1,396.67,79.62Zm-.9-13.38A6.17,6.17,0,1,0,402.34,72,6.17,6.17,0,0,0,395.77,66.24Z" style="fill:#1d1d1b"/><path d="M397.73,66.4a.54.54,0,0,1-.57-.5L397,64l-2.82.19.13,1.88a.54.54,0,0,1-.5.57.53.53,0,0,1-.57-.5l-.17-2.41a.55.55,0,0,1,.51-.58l3.89-.26a.53.53,0,0,1,.57.5l.16,2.42A.54.54,0,0,1,397.73,66.4Z" style="fill:#1d1d1b"/><path d="M395.54,62.86h0a.54.54,0,0,1-.43-.17,5.63,5.63,0,0,1-1.47-2.34,1.72,1.72,0,1,1,3.44-.23,5.54,5.54,0,0,1-1.14,2.52A.53.53,0,0,1,395.54,62.86Zm-.22-3.27a.64.64,0,0,0-.6.69,3.7,3.7,0,0,0,.72,1.16,3.59,3.59,0,0,0,.57-1.25A.64.64,0,0,0,395.32,59.59Z" style="fill:#1d1d1b"/><path d="M393.67,73a2.24,2.24,0,1,1,2.08-2.38A2.24,2.24,0,0,1,393.67,73Zm-.23-3.39a1.15,1.15,0,0,0-1.08,1.23,1.16,1.16,0,1,0,2.32-.15A1.16,1.16,0,0,0,393.44,69.58Z" style="fill:#662d91"/><path d="M393.53,76.4a1.5,1.5,0,1,1,1.4-1.59A1.5,1.5,0,0,1,393.53,76.4Zm-.12-1.91a.42.42,0,1,0,.44.39A.41.41,0,0,0,393.41,74.49Z" style="fill:#662d91"/><path d="M306.74,88.93a4.31,4.31,0,0,1-5.12-3.29l-5-23a12.07,12.07,0,0,1,23.59-5.13l.39,1.83a4.31,4.31,0,0,1-8.42,1.83l-.39-1.83A3.45,3.45,0,0,0,305,60.77l5,23A4.31,4.31,0,0,1,306.74,88.93Z" style="fill:#f1f2f2"/><path d="M302.5,84.33a1.13,1.13,0,0,1-1-.23,1.14,1.14,0,0,1-.17-1.61l5.12-6.29a1.14,1.14,0,1,1,1.77,1.43l-5.12,6.3A1.19,1.19,0,0,1,302.5,84.33Z" style="fill:#be1e2d"/><path d="M301.38,79.2a1.17,1.17,0,0,1-1-.23,1.14,1.14,0,0,1-.16-1.61l5.11-6.3A1.15,1.15,0,0,1,307,70.9a1.14,1.14,0,0,1,.16,1.6L302,78.8A1.18,1.18,0,0,1,301.38,79.2Z" style="fill:#be1e2d"/><path d="M307.88,56.3a1.16,1.16,0,0,1-1.16-.43,4.64,4.64,0,0,0-1.85-1.49,5.48,5.48,0,0,0-4.67.41,1.14,1.14,0,0,1-1.13-2,7.77,7.77,0,0,1,6.71-.52,6.93,6.93,0,0,1,2.76,2.2,1.14,1.14,0,0,1-.22,1.6A1.37,1.37,0,0,1,307.88,56.3Z" style="fill:#be1e2d"/><path d="M311.62,57.1a.92.92,0,0,1-.37,0,1.14,1.14,0,0,1-1-1.26,5.87,5.87,0,0,0-.38-2.84,6.05,6.05,0,0,0-2.23-2.74,1.14,1.14,0,0,1,1.27-1.9,8.38,8.38,0,0,1,3.08,3.8,8.23,8.23,0,0,1,.53,3.93A1.15,1.15,0,0,1,311.62,57.1Z" style="fill:#be1e2d"/><path d="M112,88.17a2.62,2.62,0,0,1-3.11-2l-3-14a7.32,7.32,0,1,1,14.3-3.11l.25,1.1a2.61,2.61,0,0,1-5.11,1.11l-.24-1.1a2.1,2.1,0,0,0-4.1.89l3,14A2.61,2.61,0,0,1,112,88.17Z" style="fill:#f1f2f2"/><path d="M109.44,85.38a.69.69,0,0,1-.68-1.12l3.1-3.82a.69.69,0,1,1,1.07.88l-3.1,3.82A.76.76,0,0,1,109.44,85.38Z" style="fill:#be1e2d"/><path d="M108.76,82.26a.65.65,0,0,1-.58-.14.69.69,0,0,1-.1-1l3.1-3.82a.7.7,0,0,1,1-.1.68.68,0,0,1,.1,1L109.15,82A.65.65,0,0,1,108.76,82.26Z" style="fill:#be1e2d"/><path d="M112.7,68.37a.67.67,0,0,1-.7-.26,2.85,2.85,0,0,0-1.12-.9,3.3,3.3,0,0,0-2.83.25.69.69,0,1,1-.69-1.2,4.73,4.73,0,0,1,4.07-.32,4.35,4.35,0,0,1,1.68,1.34.7.7,0,0,1-.14,1A.66.66,0,0,1,112.7,68.37Z" style="fill:#be1e2d"/><path d="M115,68.86a.82.82,0,0,1-.22,0,.71.71,0,0,1-.62-.77,3.53,3.53,0,0,0-.22-1.72,3.74,3.74,0,0,0-1.36-1.67.69.69,0,0,1-.19-1,.7.7,0,0,1,1-.19,5.1,5.1,0,0,1,1.87,2.31,5,5,0,0,1,.32,2.38A.68.68,0,0,1,115,68.86Z" style="fill:#be1e2d"/><path d="M537.08,45.73l3-14a2.1,2.1,0,0,0-4.1-.89L535.78,32a2.61,2.61,0,0,1-5.11-1.11l.25-1.1a7.32,7.32,0,0,1,14.3,3.1l-3,14a2.61,2.61,0,0,1-5.11-1.11Z" style="fill:#f1f2f2"/><path d="M541.65,46a.65.65,0,0,0,.58-.14.68.68,0,0,0,.1-1l-3.1-3.82a.69.69,0,0,0-1.07.87l3.1,3.82A.65.65,0,0,0,541.65,46Z" style="fill:#be1e2d"/><path d="M542.33,42.93a.69.69,0,0,0,.68-1.11L539.91,38a.69.69,0,0,0-1.08.87l3.11,3.82A.65.65,0,0,0,542.33,42.93Z" style="fill:#be1e2d"/><path d="M538.39,29a.69.69,0,0,0,.7-.26,2.85,2.85,0,0,1,1.12-.9,3.26,3.26,0,0,1,2.83.25.7.7,0,0,0,1-.26.69.69,0,0,0-.26-.94,4.73,4.73,0,0,0-4.07-.32A4.26,4.26,0,0,0,538,28a.7.7,0,0,0,.14,1A.66.66,0,0,0,538.39,29Z" style="fill:#be1e2d"/><path d="M536.12,29.53a.55.55,0,0,0,.22,0,.69.69,0,0,0,.62-.76,3.53,3.53,0,0,1,.22-1.72,3.68,3.68,0,0,1,1.36-1.67.7.7,0,0,0,.19-1,.69.69,0,0,0-1-.19,5.12,5.12,0,0,0-1.87,2.3,5,5,0,0,0-.32,2.39A.69.69,0,0,0,536.12,29.53Z" style="fill:#be1e2d"/></svg>