<svg width="336" height="550" viewBox="0 0 336 550" fill="none" xmlns="http://www.w3.org/2000/svg">
<path opacity="0.1" d="M334.982 488.942C334.982 489.758 347.666 489.35 170.09 489.35C165.862 489.35 167.115 481.847 167.115 185.805C347.265 175.143 309.771 271.242 309.771 369.179C309.771 418.349 334.982 446.301 334.982 488.942Z" fill="#75ACEB"/>
<path fill-rule="evenodd" clip-rule="evenodd" d="M82.1142 262.523C101.159 260.165 91.9088 262.523 135.077 241.12C142.151 236.404 139.975 238.037 144.147 234.409C149.044 228.968 144.872 223.526 137.798 221.168C123.288 216.271 86.6487 229.33 75.2217 233.139C55.6325 239.851 15.5473 249.282 19.7191 267.965C21.1701 274.676 30.9647 276.49 37.8572 276.308C52.3677 275.583 66.6968 267.783 82.1142 262.523Z" fill="#352234"/>
<g style="mix-blend-mode:color-burn" opacity="0.55">
<path fill-rule="evenodd" clip-rule="evenodd" d="M35.1374 250.369C33.6863 252.365 31.5097 254.36 32.2353 256.899C38.5836 276.126 99.3463 234.589 119.48 236.222C131.088 237.129 145.417 219.535 105.695 222.981C145.054 214.275 149.952 227.515 144.147 234.227C139.976 237.854 141.971 236.222 135.078 240.938C91.7283 262.522 100.979 259.983 82.1151 262.341C65.2466 268.145 41.4857 281.023 25.1614 273.586C4.84672 264.517 44.9319 237.31 35.1374 250.369Z" fill="#868686"/>
</g>
<path fill-rule="evenodd" clip-rule="evenodd" d="M195.479 432.659C193.302 456.42 178.611 463.856 158.296 479.274C123.471 504.849 39.1285 569.964 8.11229 538.585C-23.0853 507.207 44.9327 450.071 56.7224 426.492C59.8059 420.506 61.0756 414.521 61.257 407.81C61.4383 397.471 51.6438 344.508 49.8299 336.527C39.1285 292.089 24.4366 297.711 26.4318 287.373C28.2456 277.759 28.7897 285.922 22.8042 278.848C20.9903 276.853 19.5393 270.141 20.2648 269.053C20.6276 268.69 23.1669 276.127 34.0498 273.769C45.2954 271.411 46.9279 266.877 61.4383 263.974C71.0515 261.979 80.1206 261.798 88.6455 257.626C116.578 244.023 114.039 248.194 131.633 239.851C139.251 235.498 138.888 233.14 142.697 231.144C147.594 228.424 144.148 224.615 144.148 224.615C146.869 226.066 148.683 228.242 151.222 232.414C156.119 240.758 151.403 242.572 153.761 243.297C163.919 245.655 158.296 266.151 160.291 278.485C163.919 319.84 198.744 394.932 195.479 432.659Z" fill="#F22A45"/>
<path fill-rule="evenodd" clip-rule="evenodd" d="M58.1738 540.944C7.56847 559.082 -14.9228 530.242 12.103 485.804C31.148 492.515 50.9185 513.011 58.1738 540.944ZM190.219 391.667C200.921 446.625 196.749 450.616 161.38 477.098C149.046 452.43 155.031 408.173 183.145 389.309C190.038 384.593 188.95 384.775 190.219 391.667Z" fill="#FFD244"/>
<path fill-rule="evenodd" clip-rule="evenodd" d="M154.123 242.39C159.746 245.292 159.746 251.821 156.3 257.263C150.133 267.42 132.72 272.499 132.539 271.955C132.176 271.048 148.138 264.881 153.76 255.63C159.202 247.65 153.761 245.473 152.491 243.841C151.584 242.752 151.04 253.817 127.097 261.979C126.916 261.979 101.341 269.597 101.16 269.415C100.979 268.871 112.768 264.155 127.46 258.17C139.976 253.091 156.118 246.38 150.314 232.776C150.133 232.232 150.858 231.87 151.221 232.414C154.667 239.488 151.403 241.12 154.123 242.39ZM26.6124 291.725C24.4358 292.814 33.1421 302.427 49.8291 299.162C54.0009 298.436 93.542 281.931 90.0957 282.838C80.6639 285.196 48.9222 300.069 32.7793 295.716C27.3379 294.265 27.7007 291.181 26.6124 291.725ZM93.542 272.136C92.9978 271.048 85.5612 275.582 80.1198 277.759C76.6735 279.029 76.3108 278.847 76.4922 279.573C76.8549 282.294 93.9047 272.862 93.542 272.136ZM70.8693 274.131C70.8693 269.234 34.4118 287.191 23.8916 278.303C20.9896 275.945 21.5337 274.494 20.9895 274.494C20.4454 274.494 19.9013 291.181 52.7312 279.391C72.139 272.499 70.8693 275.582 70.8693 274.131Z" fill="#352234"/>
<path fill-rule="evenodd" clip-rule="evenodd" d="M43.2992 450.978C49.1034 456.239 84.8355 495.598 98.2577 521.354C92.8163 524.619 86.6493 528.065 80.1196 531.33C69.0553 511.197 42.7551 477.46 27.8818 463.675C42.3923 446.263 40.7599 448.621 43.2992 450.978ZM168.452 318.57C174.438 339.066 174.801 336.527 173.712 337.253C146.686 357.204 99.1646 377.519 57.6283 379.877C56.5401 373.891 55.089 365.185 54.0007 357.749C95.537 351.763 144.51 331.992 168.452 318.57ZM52.731 316.212C183.144 287.917 154.304 256.538 163.374 298.618C136.71 316.394 94.8115 333.444 50.5545 339.611C44.5689 312.947 40.0344 318.933 52.731 316.212Z" fill="#FFD244"/>
<g opacity="0.6">
<path opacity="0.6" fill-rule="evenodd" clip-rule="evenodd" d="M60.1647 527.884C59.0764 528.609 60.1647 528.791 62.1599 535.502C62.3413 536.953 64.5178 536.59 64.3365 535.139C63.9737 531.33 61.4344 527.158 60.1647 527.884ZM53.4536 515.731C52.7281 516.457 53.0908 516.276 57.444 523.712C57.9881 524.982 59.9833 524.075 59.4392 522.805C57.9881 519.178 54.7233 514.462 53.4536 515.731ZM155.571 473.832C156.659 473.288 155.934 472.381 155.027 469.842C149.041 450.797 151.399 476.19 155.571 473.832ZM50.0074 513.011C50.7329 514.099 52.5467 513.011 51.8212 511.741C47.6494 504.304 39.85 501.04 50.0074 513.011ZM151.218 446.625C149.767 446.444 149.223 450.978 149.404 452.974C149.767 457.689 152.669 460.229 152.125 454.062C151.581 448.62 152.488 446.807 151.218 446.625ZM35.8596 496.142C35.4969 496.686 34.9527 495.961 41.6638 502.853C42.5707 503.942 44.2032 502.672 43.2963 501.584C41.1197 498.137 36.7665 494.328 35.8596 496.142ZM151.944 432.296C150.492 431.933 149.948 435.742 149.767 437.375C149.223 444.63 152.306 442.998 152.306 441.547C152.669 432.659 152.85 432.659 151.944 432.296ZM25.5209 487.617C24.7954 488.706 28.7858 491.064 32.232 493.603C33.3203 494.51 34.7713 493.059 33.6831 491.971C31.8692 490.157 26.6092 485.985 25.5209 487.617ZM156.115 418.511C154.664 417.786 153.213 421.776 152.85 423.408C150.855 431.026 154.12 429.757 154.301 428.487C156.659 418.511 157.022 418.874 156.115 418.511ZM19.354 485.985C23.163 487.799 24.2512 485.985 20.6236 483.627C16.4519 481.269 10.2849 481.632 19.354 485.985ZM162.282 403.638C160.468 402.912 155.39 414.339 157.929 415.065C159.38 415.428 163.733 404.363 162.282 403.638ZM172.077 390.76C170.807 389.49 167.542 393.843 166.817 394.932C161.738 402.368 165.366 402.187 166.091 401.099C172.621 390.578 172.802 391.485 172.077 390.76ZM184.229 380.965C183.322 379.514 179.513 382.416 178.425 383.323C172.258 388.402 175.523 390.034 176.611 388.765C180.964 383.867 185.136 382.416 184.229 380.965Z" fill="#676767"/>
<path opacity="0.6" fill-rule="evenodd" clip-rule="evenodd" d="M37.3127 538.404C37.3127 538.404 33.5037 539.129 32.0527 538.948C30.0575 538.585 30.0575 542.213 35.1362 541.306C39.3079 540.58 39.8521 537.678 37.3127 538.404ZM71.0496 522.805C68.6917 525.163 70.1427 526.977 72.8634 524.8C75.9469 522.261 73.9517 519.903 71.0496 522.805ZM40.0335 523.893C40.2148 524.075 42.0287 528.791 42.21 528.972C42.5728 530.423 44.568 529.879 44.2052 528.428C43.1169 520.266 37.6755 519.54 40.0335 523.893ZM93.1781 501.946C91.9085 501.402 92.0898 503.397 85.5601 509.02C84.4718 509.927 85.5601 511.559 86.8298 510.834C92.2712 507.388 94.6292 502.672 93.1781 501.946ZM108.233 496.142C107.326 497.412 109.321 499.226 111.316 495.961C112.949 492.877 110.772 490.519 108.233 496.142ZM23.3464 521.717C22.0767 522.624 24.2533 525.344 25.3416 526.614C30.0575 531.511 31.1458 528.247 29.8761 527.34C23.8905 521.898 24.4347 520.991 23.3464 521.717ZM11.9194 525.163C10.287 526.433 16.4539 534.051 18.0863 532.6C19.1746 531.33 13.1891 524.075 11.9194 525.163ZM130.361 475.102C129.817 476.372 131.631 477.278 132.356 476.009C134.896 472.563 133.263 465.307 130.361 475.102ZM62.5247 497.412C60.1668 500.858 62.5247 501.765 64.7013 499.044C67.422 495.598 65.2454 493.059 62.5247 497.412ZM172.442 448.257C171.535 451.704 173.53 452.066 174.981 449.164C176.069 446.625 174.437 440.821 172.442 448.257ZM30.2389 509.927C32.7782 513.011 34.0479 511.197 32.5968 508.657C30.783 505.393 26.6113 505.755 30.2389 509.927ZM159.926 448.439C160.108 451.704 162.466 451.522 162.647 448.439C162.828 444.993 159.564 444.63 159.926 448.439ZM77.0352 479.999C77.0352 480.181 74.3145 484.896 74.1331 485.259C73.2262 486.529 75.4028 488.887 77.9421 483.808C79.9373 479.636 78.1235 477.641 77.0352 479.999ZM112.223 462.768C111.498 462.768 111.679 462.768 109.865 468.754C109.321 470.023 111.316 470.93 111.86 469.66C114.218 466.214 113.493 462.768 112.223 462.768ZM95.7175 473.651C94.085 476.734 96.0802 477.641 97.7127 475.283C100.071 472.563 98.0754 469.116 95.7175 473.651ZM7.20348 511.741C7.0221 516.094 9.9242 515.368 9.74282 513.736C10.287 505.574 7.38486 509.202 7.20348 511.741ZM181.692 428.668C180.604 433.928 183.687 433.021 183.687 431.752C185.501 422.683 182.599 424.497 181.692 428.668ZM14.096 494.872C13.9146 495.235 13.0077 494.691 20.0815 499.588C21.1698 500.495 22.6209 498.863 21.5326 497.956C18.8119 494.872 14.4587 493.059 14.096 494.872ZM132.175 443.542C131.631 449.709 134.352 448.439 134.352 447.169C135.621 435.924 132.719 438.281 132.175 443.542ZM62.7061 472.018C61.255 471.111 59.6226 475.283 55.8136 478.729C54.3626 479.818 56.1764 483.083 60.7109 477.278C61.7992 476.19 64.1571 472.925 62.7061 472.018ZM170.809 421.232C167.907 429.575 171.353 428.124 171.716 427.036C176.976 414.339 172.623 416.153 170.809 421.232ZM68.5103 458.596C67.7848 459.866 69.4172 460.954 70.3241 459.866C73.589 456.238 72.6821 449.164 68.5103 458.596ZM28.4251 474.195C27.3368 477.641 29.6947 477.823 30.9644 475.102C32.4154 471.837 29.6947 470.205 28.4251 474.195ZM88.4622 446.988C87.1926 451.341 89.3691 451.704 90.8202 448.439C92.8154 443.542 90.276 440.639 88.4622 446.988ZM48.7398 463.856C45.8377 467.847 47.8329 468.935 50.5536 466.033C53.8184 462.042 53.0929 457.508 48.7398 463.856ZM116.395 432.84C116.032 436.286 118.39 436.105 119.116 433.203C119.66 429.757 116.758 428.668 116.395 432.84ZM179.697 400.554C176.795 403.456 179.334 404.907 180.241 403.638C185.501 398.559 181.873 398.559 179.697 400.554ZM136.71 410.53C135.621 415.609 137.798 416.879 139.249 411.8C141.426 403.456 138.342 403.456 136.71 410.53ZM68.3289 439.188C67.422 443.179 69.5986 443.36 70.6869 440.277C72.1379 436.468 69.5986 433.021 68.3289 439.188ZM94.2664 426.31C94.2664 427.761 96.2616 427.761 96.443 426.492C97.3499 422.139 92.9967 418.511 94.2664 426.31ZM51.4605 443.904C50.5536 444.993 52.186 446.444 53.0929 445.355C57.2647 441.546 57.9902 433.928 51.4605 443.904ZM115.307 401.098C115.488 405.452 117.665 405.27 118.027 401.643C118.39 396.927 115.125 394.569 115.307 401.098ZM147.592 383.686C148.499 388.22 150.676 386.951 150.313 383.142C149.588 378.426 146.323 378.063 147.592 383.686ZM68.8731 411.8C68.5103 413.251 70.6869 413.614 71.0496 412.344C72.8634 407.628 69.78 400.736 68.8731 411.8ZM89.0064 396.564C89.0064 396.745 89.5505 400.917 89.5505 401.098C89.5505 402.549 91.5457 402.549 91.7271 401.28C92.9967 393.843 88.0994 392.392 89.0064 396.564ZM159.382 366.273C160.289 370.264 162.466 369.357 162.103 365.91C161.559 361.557 158.294 361.376 159.382 366.273ZM132.356 378.788C132.356 380.421 135.077 380.602 134.714 376.975C134.352 373.71 131.268 372.44 132.356 378.788ZM171.172 357.93C172.623 362.101 174.437 360.832 173.893 357.748C172.986 353.214 168.995 351.763 171.172 357.93ZM103.517 370.445C102.247 370.808 104.061 376.068 104.242 379.151C104.242 380.602 106.238 380.602 106.419 379.333C106.963 375.342 105.331 369.901 103.517 370.445ZM75.4028 389.853C76.3097 393.843 78.3049 393.118 78.1235 389.853C77.5793 384.955 74.1331 384.23 75.4028 389.853ZM83.5649 377.519C84.2904 381.328 86.6484 380.965 86.2856 377.156C85.7415 372.44 82.658 372.803 83.5649 377.519ZM63.613 384.049C64.1571 387.858 66.3337 387.676 66.3337 383.867C66.1523 379.877 62.162 374.798 63.613 384.049ZM113.674 359.925C114.762 364.641 116.939 363.915 116.395 359.925C115.669 354.483 111.86 352.67 113.674 359.925ZM138.523 341.968C139.612 345.414 141.788 344.87 141.063 341.243C140.337 337.796 135.803 333.987 138.523 341.968ZM158.475 324.011C160.289 329.816 162.103 327.276 161.74 326.188C159.564 317.3 156.843 318.389 158.475 324.011ZM118.753 341.787C120.385 345.777 122.199 344.326 121.474 341.424C120.385 337.071 116.576 336.164 118.753 341.787ZM71.4124 355.39C70.1427 355.934 71.9565 360.288 72.1379 363.734C72.1379 365.185 74.3145 365.185 74.3145 363.734C74.8586 359.925 73.0448 354.665 71.4124 355.39ZM144.69 326.551C146.504 331.448 148.499 330.541 147.411 326.369C145.779 320.202 141.97 319.477 144.69 326.551ZM102.066 335.62C100.978 336.164 103.698 344.508 105.331 344.145C107.507 343.419 104.061 334.532 102.066 335.62ZM58.5343 352.67C59.4412 356.479 61.6178 355.935 61.0737 352.126C60.5295 347.41 56.3578 344.507 58.5343 352.67ZM81.207 335.801C82.2953 339.61 84.2905 338.703 83.9277 335.62C83.3835 331.448 79.5745 330.36 81.207 335.801ZM115.669 308.413C116.395 311.315 116.576 312.584 117.846 312.403C121.836 311.496 110.409 287.372 115.669 308.413ZM137.254 297.53C138.161 301.157 140.519 300.976 139.974 297.348C139.068 291.907 136.165 293.177 137.254 297.53ZM61.4364 331.085C62.7061 333.987 64.8827 333.625 63.9758 330.178C63.0689 326.732 58.353 324.193 61.4364 331.085ZM143.602 285.921C144.69 292.995 146.867 290.456 146.686 289.368C145.597 278.303 142.514 278.848 143.602 285.921ZM95.8988 299.525C95.8988 299.706 97.7126 305.329 97.894 305.511C98.2568 306.962 100.252 306.417 100.071 305.148C98.6196 294.628 94.2664 295.353 95.8988 299.525ZM81.207 309.32C82.8394 312.947 84.8346 311.859 83.7463 308.413C82.2952 304.422 79.2118 304.785 81.207 309.32ZM123.65 291.726C124.194 292.995 126.189 292.27 125.645 291C124.557 285.559 118.209 281.75 123.65 291.726ZM52.3674 306.962C51.4605 307.687 52.7301 308.775 55.0881 316.393C55.4509 317.844 57.446 317.3 57.2647 316.031C56.5391 310.589 53.637 305.873 52.3674 306.962ZM103.517 273.769C103.698 273.95 103.698 274.132 105.149 277.215C105.512 278.666 107.689 277.941 107.144 276.671C106.6 270.504 101.34 270.141 103.517 273.769ZM57.9902 285.559C59.2599 288.823 61.2551 287.554 60.5295 284.652C59.6226 281.387 56.3578 281.75 57.9902 285.559Z" fill="#676767"/>
</g>
<g style="mix-blend-mode:color-burn">
<path d="M153.397 238.944C142.877 261.435 127.278 258.533 94.9921 272.862C87.9182 275.945 81.3885 278.122 73.7705 278.485C77.3981 278.122 81.9327 273.587 85.1975 271.774C126.371 248.375 150.857 247.831 149.951 230.963C151.583 233.502 153.215 236.042 153.397 238.944Z" fill="#868686"/>
</g>
<g style="mix-blend-mode:color-burn">
<path d="M104.243 517.545C76.1286 535.139 -14.1992 517.183 44.7497 444.449C52.7304 434.654 59.6229 424.134 60.8926 411.982C100.978 391.304 136.71 370.082 136.71 320.928C136.71 279.936 122.199 282.838 123.65 277.578C125.283 271.593 170.81 260.166 153.76 243.297C163.917 245.474 158.294 265.97 160.289 278.485C164.098 319.114 183.143 349.586 193.845 407.81C201.826 450.253 184.957 459.141 163.554 475.284C147.411 487.255 121.837 506.662 104.243 517.545Z" fill="#868686"/>
</g>
<g style="mix-blend-mode:color-burn">
<path d="M71.2316 273.95C66.6971 273.588 47.1079 291.363 26.6119 286.466C26.7933 285.015 27.156 283.382 27.8815 282.294C25.1608 281.568 22.8029 279.573 21.5332 276.308C35.1368 285.559 66.153 269.779 71.2316 273.95Z" fill="#868686"/>
</g>
<path d="M152.309 242.39C153.395 242.028 153.214 242.209 152.852 242.933C152.671 242.752 152.49 242.39 152.309 242.39Z" fill="#868686"/>
<g style="mix-blend-mode:color-burn">
<path d="M34.4123 297.167C49.1042 300.794 68.8747 291.363 78.6693 287.01C83.2038 285.014 87.557 285.014 92.2729 283.745C90.4591 285.377 85.9245 285.558 83.3852 286.465C73.2279 289.912 58.8988 305.692 37.8586 305.873C30.2405 294.265 30.7847 296.079 34.4123 297.167Z" fill="#868686"/>
</g>
<path fill-rule="evenodd" clip-rule="evenodd" d="M211.442 248.738C229.942 253.454 220.148 252.366 268.577 248.013C276.739 246.199 274.381 246.925 279.46 245.111C285.989 241.846 283.994 235.135 278.553 230.419C266.944 220.624 227.947 219.173 215.976 218.811C195.299 218.085 154.669 212.099 151.586 230.963C150.498 237.856 159.022 243.116 165.552 245.292C179.156 250.008 195.299 248.013 211.442 248.738Z" fill="#41253F"/>
<g style="mix-blend-mode:color-burn" opacity="0.55">
<path fill-rule="evenodd" clip-rule="evenodd" d="M172.263 220.262C170.086 221.531 167.366 222.62 167.184 225.34C165.914 245.655 237.923 229.149 255.88 238.037C266.4 243.116 286.17 232.051 247.717 220.624C286.896 226.791 287.621 240.939 279.459 245.111C274.199 246.925 276.738 246.199 268.576 248.013C220.51 252.366 229.942 253.273 211.441 248.738C193.303 248.013 166.821 251.278 154.306 238.4C138.889 222.438 186.592 211.555 172.263 220.262Z" fill="#B3B3B3"/>
</g>
<path fill-rule="evenodd" clip-rule="evenodd" d="M162.648 241.846C151.765 240.032 151.947 232.233 151.584 232.414C150.496 232.958 149.407 239.851 150.314 242.39C153.398 251.278 155.756 243.478 150.677 251.64C145.236 260.528 160.653 261.254 154.486 305.873C153.398 314.035 143.059 366.999 139.069 376.431C133.446 389.671 123.651 397.108 110.41 404.545C100.616 410.167 26.0682 441.546 42.0297 478.729C62.3444 525.889 225.225 473.107 235.019 468.572C283.085 446.262 255.334 347.228 286.713 270.685C289.978 265.244 287.438 257.626 284.355 256.538C289.071 251.278 286.531 240.213 283.085 236.042C283.085 236.042 285.08 240.939 279.458 241.664C276.011 242.027 272.565 244.748 269.844 245.111C259.506 246.743 257.329 246.199 233.024 245.111C226.676 245.292 220.509 247.106 214.342 246.562C203.096 245.655 193.846 241.483 181.693 241.483C176.252 242.027 168.815 242.934 162.648 241.846Z" fill="#F22A45"/>
<path fill-rule="evenodd" clip-rule="evenodd" d="M87.5568 499.226C33.868 497.593 23.3478 462.406 64.7027 431.027C80.1201 444.267 91.003 470.568 87.5568 499.226ZM265.129 408.354C254.971 463.312 249.711 465.489 207.087 477.279C204.548 449.89 226.313 410.893 259.325 403.638C267.487 401.824 266.398 401.643 265.129 408.354Z" fill="#FFD244"/>
<path fill-rule="evenodd" clip-rule="evenodd" d="M285.988 256.356C290.16 261.254 287.62 267.239 282.542 271.048C273.11 278.304 254.972 276.671 254.972 276.127C254.972 275.22 272.203 275.401 280.728 268.69C288.709 263.249 284.355 259.259 283.811 257.263C283.448 255.994 278.914 265.97 253.521 264.881C253.339 264.881 226.676 262.523 226.676 262.342C226.676 261.617 239.373 261.617 255.334 261.435C268.938 261.254 286.351 260.891 285.806 246.199C285.806 245.655 286.713 245.474 286.713 246.199C287.439 253.817 283.993 253.998 285.988 256.356ZM149.226 255.812C146.869 255.994 151.403 268.146 168.09 271.23C172.262 271.955 215.068 271.23 211.44 270.686C201.827 269.416 166.82 271.592 153.398 261.798C149.045 258.352 150.496 255.631 149.226 255.812ZM218.695 261.979C218.695 260.71 209.989 262.342 204.004 262.161C200.376 262.161 200.013 261.798 199.832 262.523C199.469 265.244 218.695 262.705 218.695 261.979ZM196.748 255.631C198.562 251.096 158.114 254.361 151.584 242.39C149.771 239.125 150.678 238.037 150.315 237.856C149.771 237.674 143.241 253.092 178.066 253.998C198.743 254.543 196.386 256.719 196.748 255.631Z" fill="#41253F"/>
<path fill-rule="evenodd" clip-rule="evenodd" d="M106.784 409.986C110.23 417.06 129.093 466.758 132.358 495.598C126.01 496.686 119.117 497.593 111.862 498.318C108.96 475.464 96.8076 434.472 87.9199 416.334C107.509 405.27 105.151 406.902 106.784 409.986ZM271.659 332.536C269.845 353.758 271.115 351.581 269.664 351.944C237.197 360.65 185.503 362.282 145.962 349.223C147.05 343.237 149.045 334.713 150.678 327.276C191.489 336.889 244.27 336.345 271.659 332.536ZM164.644 287.916C296.508 309.138 280.909 269.415 274.017 312.04C242.638 318.751 197.474 319.476 153.943 308.956C158.114 281.931 151.403 285.74 164.644 287.916Z" fill="#FFD244"/>
<path fill-rule="evenodd" clip-rule="evenodd" d="M94.2663 487.798C92.9967 487.98 93.9036 488.705 93.3594 495.598C92.9967 497.049 95.1732 497.411 95.536 495.96C96.6243 492.151 95.7174 487.617 94.2663 487.798ZM92.4525 474.013C91.5456 474.376 91.9084 474.376 93.1781 482.901C93.1781 484.352 95.3546 484.171 95.3546 482.72C95.3546 479.999 94.4477 473.288 92.4525 474.013ZM202.732 472.381C203.821 472.199 203.458 471.111 203.639 468.572C205.272 448.438 198.016 473.106 202.732 472.381ZM90.276 470.386C90.6387 471.837 92.6339 471.293 92.4525 469.841C91.3642 461.679 85.1973 455.15 90.276 470.386ZM208.718 445.355C207.448 444.63 205.272 448.62 204.727 450.615C203.276 455.15 205.09 458.414 206.904 452.61C208.355 447.35 209.806 446.081 208.718 445.355ZM83.2021 449.527C82.658 449.89 82.4766 449.164 86.1042 457.87C86.467 459.321 88.6435 458.596 88.0994 457.326C87.3739 453.154 84.8345 448.076 83.2021 449.527ZM214.522 432.296C213.252 431.389 211.439 434.654 210.713 436.105C207.63 442.634 211.076 442.272 211.439 441.002C215.248 432.84 215.429 433.021 214.522 432.296ZM76.6724 437.737C75.5841 438.644 78.4862 442.272 80.6628 445.718C81.2069 446.987 83.2021 446.081 82.6579 444.811C81.751 442.453 78.3048 436.467 76.6724 437.737ZM223.591 421.05C222.503 419.78 219.782 423.045 218.694 424.315C213.978 430.663 217.605 430.845 218.331 429.575C223.954 421.231 224.317 421.776 223.591 421.05ZM71.4123 433.928C74.3144 437.012 75.9468 435.742 73.4075 432.296C70.6868 428.305 64.8826 426.673 71.4123 433.928ZM234.655 409.442C233.204 407.991 224.317 416.878 226.493 418.511C227.581 419.236 235.744 410.53 234.655 409.442ZM248.622 401.098C247.896 399.466 243.362 402.186 242.092 403.093C234.655 408.172 238.102 409.26 239.19 408.535C248.984 401.098 248.984 402.005 248.622 401.098ZM263.495 396.382C263.314 394.75 258.416 396.019 257.147 396.564C249.529 399.103 252.068 401.642 253.519 400.917C259.142 398.015 263.858 398.015 263.495 396.382Z" fill="#6B6B6B"/>
<path fill-rule="evenodd" clip-rule="evenodd" d="M70.508 489.975C70.3266 489.068 66.3363 488.887 64.1597 487.98C62.89 487.254 61.8017 489.068 63.0714 489.794C66.699 492.696 70.6894 491.064 70.508 489.975ZM106.24 487.073C103.157 488.343 103.882 490.519 107.147 489.612C110.956 488.343 109.868 485.441 106.24 487.073ZM77.0377 476.734C77.0377 476.916 77.2191 481.994 77.2191 482.176C77.0377 483.627 79.2143 483.808 79.3957 482.357C81.2095 474.558 76.3122 471.837 77.0377 476.734ZM134.536 475.646C133.629 474.739 133.084 476.553 124.741 479.455C123.29 479.818 123.834 481.813 125.285 481.632C131.633 480.543 135.624 476.916 134.536 475.646ZM150.678 475.827C149.409 476.734 150.497 479.092 153.581 476.734C156.12 474.558 155.032 471.474 150.678 475.827ZM62.1645 468.572C60.7134 468.754 61.6203 472.018 62.3459 473.832C64.8852 480.181 67.0618 477.46 66.3363 476.19C62.7086 469.116 63.4342 468.391 62.1645 468.572ZM50.3747 467.665C48.3795 468.209 51.2816 477.46 53.2768 476.734C54.9092 476.009 52.0072 467.121 50.3747 467.665ZM178.793 464.4C177.704 465.307 179.155 466.94 180.244 466.033C184.053 463.675 185.141 456.238 178.793 464.4ZM107.691 460.229C104.245 462.587 106.059 464.219 109.142 462.405C112.77 460.41 111.682 457.327 107.691 460.229ZM227.765 454.606C225.589 457.508 227.403 458.596 229.761 456.42C231.756 454.425 232.481 448.439 227.765 454.606ZM73.0474 460.229C74.317 464.038 76.1308 462.768 75.7681 459.866C75.0426 456.057 71.2335 454.969 73.0474 460.229ZM216.157 450.253C215.25 453.336 217.427 454.062 218.696 451.16C220.147 448.076 217.245 446.625 216.157 450.253ZM127.462 449.346C127.28 449.527 123.109 452.973 122.927 453.155C121.476 454.062 122.746 456.964 127.099 453.155C130.364 450.253 129.275 447.532 127.462 449.346ZM166.459 446.262C165.733 446.081 165.914 446.081 162.105 450.978C161.017 451.885 162.65 453.518 163.557 452.611C167.003 450.071 167.728 446.625 166.459 446.262ZM147.051 450.253C144.33 452.611 145.781 454.062 148.321 452.611C151.585 450.797 151.041 446.988 147.051 450.253ZM50.9189 453.518C49.2864 457.327 52.1885 457.871 52.5513 456.238C55.9975 448.802 51.8258 451.16 50.9189 453.518ZM243.546 439.733C240.462 444.267 243.727 444.449 244.271 443.36C249.531 435.561 245.904 436.286 243.546 439.733ZM63.4342 440.277C63.0714 440.821 62.7086 439.914 67.2432 446.806C67.9687 448.076 69.7825 447.169 69.2383 445.9C67.6059 441.365 64.3411 439.007 63.4342 440.277ZM192.215 435.561C189.313 441.002 192.577 440.821 192.94 439.733C198.2 429.757 194.573 430.845 192.215 435.561ZM117.123 436.831C116.035 435.379 113.495 438.644 108.235 440.64C106.603 441.002 106.966 444.811 113.314 441.184C114.584 440.277 118.03 438.1 117.123 436.831ZM236.29 428.85C230.668 435.561 234.295 435.561 234.839 434.654C244.452 424.678 239.737 424.859 236.29 428.85ZM127.28 426.31C126.192 427.036 127.28 428.85 128.55 428.124C132.903 426.129 134.717 419.055 127.28 426.31ZM84.293 426.31C81.935 429.213 84.1116 430.119 86.2882 428.124C88.8275 425.585 87.0137 423.046 84.293 426.31ZM150.134 422.864C147.414 426.492 149.227 427.58 151.767 425.041C155.576 421.232 154.125 417.604 150.134 422.864ZM106.966 423.953C102.794 426.673 104.245 428.306 107.873 426.492C112.407 424.315 113.495 419.781 106.966 423.953ZM181.332 419.781C179.699 422.864 182.057 423.59 183.69 421.05C185.504 418.148 183.146 416.153 181.332 419.781ZM252.07 412.888C248.443 414.521 250.257 416.879 251.526 415.972C258.056 413.251 254.791 411.8 252.07 412.888ZM208.358 406.54C205.456 410.893 207.088 412.888 210.171 408.535C215.432 401.643 212.348 400.554 208.358 406.54ZM134.173 408.172C131.815 411.619 133.81 412.525 135.987 410.168C138.889 407.084 137.8 402.912 134.173 408.172ZM163.012 405.814C162.468 407.084 164.463 407.991 165.008 406.721C167.547 402.912 164.826 398.015 163.012 405.814ZM116.942 406.359C115.672 407.084 116.579 408.898 117.848 408.354C123.109 406.359 126.555 399.466 116.942 406.359ZM191.852 389.853C190.401 393.843 192.577 394.569 194.029 391.304C196.205 387.132 194.21 383.686 191.852 389.853ZM228.31 385.5C227.584 390.034 229.942 389.853 231.03 386.044C232.119 381.328 229.216 379.877 228.31 385.5ZM144.874 382.96C144.149 384.049 145.781 385.318 146.688 384.23C150.134 380.421 149.59 372.984 144.874 382.96ZM168.998 376.068C168.998 376.249 167.91 380.24 167.91 380.421C167.366 381.691 169.361 382.598 169.905 381.328C173.714 374.98 169.723 371.896 168.998 376.068ZM245.541 373.529C244.815 377.519 247.173 377.519 248.08 374.073C249.35 369.901 246.448 368.631 245.541 373.529ZM215.976 375.342C215.432 376.793 217.789 378.063 218.878 374.435C219.603 371.533 217.245 368.994 215.976 375.342ZM259.688 370.082C259.507 374.435 261.684 374.073 262.228 370.808C263.135 366.273 259.87 363.734 259.688 370.082ZM192.215 357.204C190.945 357.204 190.764 362.646 189.675 365.548C189.131 366.817 191.126 367.724 191.671 366.455C193.666 363.008 194.029 357.204 192.215 357.204ZM158.841 364.822C158.296 368.813 160.473 368.994 161.38 365.911C162.65 361.195 159.566 359.199 158.841 364.822ZM170.812 356.297C170.086 360.106 172.444 360.651 173.351 356.842C174.802 352.488 171.719 351.763 170.812 356.297ZM149.953 355.209C149.046 359.018 151.223 359.562 152.492 355.935C153.943 352.126 152.13 345.959 149.953 355.209ZM205.456 351.037C204.73 355.935 207.088 355.935 207.995 352.126C209.265 346.684 206.362 343.601 205.456 351.037ZM235.021 343.419C234.839 347.047 237.016 347.228 237.741 343.782C238.286 340.154 235.565 334.894 235.021 343.419ZM260.233 333.806C259.688 339.792 262.409 338.159 262.591 337.071C263.679 328.002 260.777 328.002 260.233 333.806ZM216.701 335.983C216.701 340.154 218.878 339.61 219.422 336.527C219.966 332.174 216.701 329.997 216.701 335.983ZM167.728 331.267C166.277 331.267 166.459 335.983 165.37 339.248C164.826 340.517 166.821 341.424 167.366 340.154C169.179 336.708 169.542 331.267 167.728 331.267ZM246.448 331.267C246.266 336.527 248.624 336.345 248.987 332.174C249.713 325.644 246.629 323.649 246.448 331.267ZM203.46 324.012C202.191 324.193 201.647 332.899 203.46 333.081C205.637 333.443 205.818 323.83 203.46 324.012ZM156.664 324.193C156.301 328.002 158.296 328.365 159.203 324.556C160.473 320.021 157.752 315.668 156.664 324.193ZM184.053 316.756C183.69 320.565 185.866 320.565 186.592 317.482C187.499 313.491 184.415 311.133 184.053 316.756ZM225.952 303.697C225.589 306.599 225.407 307.869 226.496 308.05C230.668 308.957 228.854 282.294 225.952 303.697ZM250.075 301.52C249.713 305.148 251.889 305.873 252.615 302.246C253.884 296.986 250.801 296.986 250.075 301.52ZM167.366 305.148C167.547 308.413 169.542 308.776 170.086 305.148C170.268 301.52 167.003 297.53 167.366 305.148ZM260.414 292.995C258.963 299.888 261.865 298.437 262.046 297.348C264.949 286.647 261.865 285.921 260.414 292.995ZM210.897 288.279C210.897 288.461 210.534 294.446 210.534 294.628C210.353 296.079 212.348 296.442 212.711 294.991C215.25 284.652 211.078 283.745 210.897 288.279ZM193.484 292.088C193.666 296.079 195.842 295.716 196.205 292.088C196.568 287.917 193.484 287.01 193.484 292.088ZM239.555 291.182C239.555 292.633 241.732 292.633 241.732 291.182C242.639 285.74 238.286 279.936 239.555 291.182ZM167.547 279.21C166.459 279.392 167.366 281.024 166.64 289.005C166.459 290.456 168.454 290.819 168.817 289.368C170.268 284.289 169.179 278.848 167.547 279.21ZM227.403 267.058C227.403 267.239 227.403 267.421 227.584 270.867C227.403 272.318 229.579 272.499 229.761 271.048C231.574 265.063 226.677 262.886 227.403 267.058ZM180.606 261.435C180.606 264.881 182.964 264.519 183.327 261.616C183.69 258.17 180.606 257.263 180.606 261.435Z" fill="#6B6B6B"/>
<g style="mix-blend-mode:color-burn">
<path d="M286.531 252.91C268.575 270.141 255.334 261.616 219.783 263.067C211.984 263.43 205.273 263.067 197.836 260.528C201.282 261.616 207.268 259.077 210.895 258.533C257.873 251.64 280.727 260.347 286.169 244.204C286.894 247.106 287.438 250.008 286.531 252.91Z" fill="#B3B3B3"/>
</g>
<g style="mix-blend-mode:color-burn">
<path d="M62.1634 433.203C63.0703 439.007 56.9033 454.606 74.86 471.656C82.478 478.911 105.513 479.637 114.582 477.641C132.358 473.651 146.143 462.587 162.467 455.513C171.536 451.523 178.973 446.263 184.958 438.463C208.719 407.447 206.724 417.06 219.421 402.006C245.721 370.445 235.201 352.126 244.27 321.654C245.902 316.031 247.716 310.589 248.623 304.423C251.344 284.833 237.015 276.853 249.349 276.671C255.697 273.951 293.787 277.034 285.081 257.263C287.439 258.896 289.797 265.607 286.713 271.048C255.516 347.047 283.448 446.263 235.02 468.935C225.225 473.47 163.193 489.25 159.384 490.157C37.1328 522.987 16.9995 469.479 62.1634 433.203Z" fill="#B3B3B3"/>
</g>
<g style="mix-blend-mode:color-burn">
<path d="M197.111 255.45C193.121 253.454 168.271 262.705 150.859 250.915C151.584 249.645 152.31 248.194 153.398 247.469C151.222 245.836 149.589 243.116 149.771 239.488C159.384 253.092 194.028 249.645 197.111 255.45Z" fill="#B3B3B3"/>
</g>
<path d="M284.354 255.631C285.441 255.631 285.26 255.812 284.717 256.356C284.536 255.993 284.536 255.812 284.354 255.631Z" fill="#B3B3B3"/>
<g style="mix-blend-mode:color-burn">
<path d="M154.487 263.612C166.64 272.318 188.406 270.686 199.47 270.504C204.548 270.323 208.539 271.955 213.255 272.499C210.897 273.406 206.725 271.955 204.004 271.774C193.121 271.23 174.076 280.843 154.487 273.225C151.767 259.44 151.404 261.254 154.487 263.612Z" fill="#B3B3B3"/>
</g>
<path d="M170.085 501.402C178.791 527.34 187.86 533.144 194.753 540.944C202.915 550.194 249.348 554.003 261.138 543.483C297.777 510.834 312.106 428.487 299.954 417.967C282.541 403.094 180.968 402.913 164.462 417.242C151.584 428.487 166.094 489.613 170.085 501.402Z" fill="#FFD244"/>
<path d="M298.141 425.767C311.926 450.616 180.787 448.439 168.091 429.938C150.134 403.638 288.346 408.354 298.141 425.767Z" fill="#C88761"/>
<path d="M165.553 436.83C176.798 448.076 216.339 453.518 232.119 454.424C266.219 456.42 281.274 449.709 298.142 443.723C302.314 442.272 300.681 452.429 268.577 457.689C242.639 461.861 216.883 459.866 192.034 453.336C153.037 442.997 162.469 433.928 165.553 436.83Z" fill="#FF9230"/>
<path d="M237.56 495.054C229.398 482.357 228.31 479.455 226.859 481.632C217.246 494.873 217.246 494.329 217.79 495.417C225.226 510.472 226.677 515.55 228.491 512.648C238.286 495.236 238.104 495.961 237.56 495.054Z" fill="#FF9230"/>
<path d="M210.534 493.603C203.641 482.358 202.734 479.637 201.465 481.632C193.302 493.422 193.302 493.059 193.665 493.966C199.469 506.481 201.102 511.923 202.734 509.202C211.078 493.785 211.078 494.329 210.534 493.603Z" fill="#FF9230"/>
<path d="M260.233 497.231C253.34 485.985 252.433 483.264 251.164 485.259C243.002 497.049 243.002 496.686 243.364 497.593C249.169 510.109 250.801 515.55 252.433 512.829C260.777 497.412 260.777 498.138 260.233 497.231Z" fill="#FF9230"/>
<path d="M283.087 498.319C276.195 487.073 275.288 484.353 274.018 486.348C265.856 498.138 265.856 497.775 266.219 498.682C272.023 511.197 273.655 516.638 275.288 513.918C283.631 498.682 283.631 499.226 283.087 498.319Z" fill="#FF9230"/>
<path d="M187.863 491.245C180.97 479.999 180.063 477.279 178.794 479.274C170.631 491.064 170.631 490.701 170.994 491.608C176.798 504.123 178.612 509.564 180.063 506.844C188.407 491.426 188.407 492.152 187.863 491.245Z" fill="#FF9230"/>
<path d="M178.248 520.266C179.155 521.717 181.513 525.889 181.876 526.433C208.539 531.512 246.629 531.33 274.561 528.791C280.184 520.629 280.366 527.34 226.677 525.889C204.911 525.345 190.582 523.168 178.248 520.266Z" fill="#FF9230"/>
<path d="M161.2 458.233C161.382 459.866 161.563 461.317 161.744 462.949C202.192 475.283 259.509 478.367 299.957 466.758C303.403 452.792 260.96 486.166 161.2 458.233Z" fill="#FF9230"/>
<g opacity="0.6">
<g opacity="0.6">
<path opacity="0.6" d="M223.054 422.32C222.872 422.501 225.412 422.501 231.397 418.692C234.843 416.516 229.221 414.702 227.951 415.79C224.323 418.511 217.793 421.957 223.054 422.32Z" fill="#F5B97D"/>
<path opacity="0.6" d="M254.793 422.32C254.612 422.501 252.617 420.869 251.347 422.32C245.724 429.394 227.586 430.119 216.159 429.213C213.439 429.031 211.988 426.673 209.448 426.673C206.909 426.673 206.546 426.129 210.536 423.952C214.345 421.957 210.536 420.688 210.355 420.869C207.816 418.511 199.472 425.041 201.83 428.85C208.723 440.64 267.127 429.938 254.793 422.32Z" fill="#F5B97D"/>
<path opacity="0.6" d="M237.2 422.32C239.921 422.501 240.102 421.05 244.999 418.511C247.176 417.422 244.092 416.697 244.092 416.515C239.558 415.064 237.381 418.873 235.386 419.418C233.572 419.962 234.661 422.32 237.2 422.32Z" fill="#F5B97D"/>
</g>
</g>
<path opacity="0.6" d="M215.975 411.619C315.553 414.521 283.63 438.645 281.816 440.459C321.901 431.208 290.159 409.08 215.975 411.619Z" fill="#F5B97D"/>
<path opacity="0.7" d="M171.899 103.815C142.697 79.1472 165.732 36.704 162.83 0.790527C155.575 35.0716 128.912 57.5628 128.912 82.412C128.912 129.571 222.142 148.979 222.142 194.143C222.142 240.395 144.148 271.955 142.153 337.071C140.339 397.29 202.916 423.953 232.299 428.85C229.579 367.725 309.93 374.254 260.051 307.325C269.12 342.331 206.18 356.479 200.376 387.314C198.744 335.257 280.547 262.523 284.356 226.61C293.425 142.993 205.818 132.655 171.899 103.815ZM202.916 257.989C175.89 286.284 144.148 348.679 178.248 391.485C137.437 345.052 156.119 298.981 202.916 257.989Z" fill="#FAFAFA"/>
</svg>
