<svg width="492" height="169" viewBox="0 0 492 169" fill="none" xmlns="http://www.w3.org/2000/svg">
<path opacity="0.4" d="M457.008 95.8454C457.008 95.8454 446.462 72.6966 457.807 52.3652C463.479 42.1995 474.253 34.3716 485.185 30.8037C485.185 30.8037 445.705 47.7606 457.008 95.8454Z" fill="white"/>
<path d="M7.83415 22.1985L6.8954 57.2874C10.1363 60.7364 9.55468 59.0508 9.43486 65.1085C4.06585 69.4995 5.22243 68.0594 3.62882 71.6888C4.339 118.536 1.10891 110.741 7.39484 117.025C12.9951 118.834 12.7762 117.601 9.83023 122.056C7.35497 153.036 5.42601 147.675 16.2242 154.412C4.33462 160.133 6.12981 157.272 9.49867 168.788C176.446 138.445 372.177 139.119 482.863 149.267C479.506 105.622 477.226 100.12 477.226 100.12C472.978 97.4844 472.834 98.2658 477.254 96.2384C475.524 77.6775 475.197 82.8117 478.769 71.9688C478.769 71.9688 474.57 52.1031 472.682 52.484C470.795 52.8648 480.101 52.052 480.101 52.052C478.522 42.1774 482.655 41.7128 487.201 38.439L481.623 0.154514L7.83415 22.1985Z" fill="#DE993E"/>
<path d="M478.549 70.7095C478.549 70.7095 476.041 59.111 474.108 53.653C473.377 52.5743 473.008 51.956 472.449 50.8709C463.258 59.4298 458.577 63.7125 449.375 71.9558C449.344 75.749 449.241 77.6489 449.21 81.4421C458.055 86.8002 462.477 89.4792 471.501 94.9887C473.757 95.2205 474.972 95.3332 477.222 95.4072C476.641 89.1088 476.351 85.9597 475.77 79.6613C476.671 75.9936 477.297 74.2323 478.549 70.7095Z" fill="#BC905C"/>
<path d="M66.8424 144.054C63.6521 141.961 62.0569 140.915 58.8667 138.822C50.2886 135.982 45.9132 134.565 37.3352 131.725C27.9664 126.228 23.1928 123.404 13.8123 117.592C12.1445 119.234 11.3107 120.055 9.81557 121.691C9.00719 132.465 8.52256 138.014 7.71417 148.788C11.083 151.032 12.8508 152.072 16.2196 154.317C35.8205 151.373 45.4541 150.066 65.2394 147.432C65.7044 145.993 66.0262 145.349 66.8424 144.054Z" fill="#BC905C"/>
<path d="M480.524 3.16925C481.369 16.5678 481.789 23.1882 482.635 36.5868C482.635 36.5868 479.943 38.5833 478.585 39.2659C477.227 39.9486 478.403 48.2788 478.403 48.2788C425.979 51.9724 373.37 55.3569 320.929 58.5772C370.983 56.236 426.679 56.8443 471.072 51.0803C472.793 50.8581 473.713 70.8899 473.713 70.8899C472.634 74.4062 472.181 76.1612 471.28 79.8288C464.564 80.5533 461.123 80.9977 454.407 81.7222C461.325 81.7802 464.784 81.8091 471.708 82.0249C471.557 87.2445 471.484 89.9333 471.333 95.153C470.666 95.8098 470.338 96.2961 469.499 96.9594C439.95 97.4297 410.581 98.0513 381.044 98.8371C412.503 98.6115 444.153 98.8529 475.642 99.4163C476.258 106.661 476.566 110.284 477.182 117.529C474.086 117.96 472.365 118.183 469.275 118.772C472.919 119.11 474.657 119.361 478.128 119.706C478.642 128.851 478.985 133.42 479.493 142.407C477.975 143.412 477.302 143.911 475.783 144.915C311.892 134.075 167.92 140.799 19.4899 163.201C16.537 162.837 14.9772 162.737 12.0302 162.531C11.5966 160.177 11.3828 159.079 10.9492 156.725C12.9916 155.859 14.0099 155.347 16.0524 154.481C19.1544 154.207 20.881 154.143 23.9889 154.027C40.3151 151.364 48.5674 150.108 65.0781 147.754C47.6747 149.351 38.8926 150.311 21.6737 152.217C18.1675 150.926 16.59 150.353 13.0839 149.062C12.3207 137.872 11.942 132.356 11.1788 121.167C12.1676 119.866 12.8289 119.051 13.8177 117.75C46.3386 113.535 78.8772 109.793 111.612 106.676C77.4724 109.213 43.5172 112.06 9.56795 115.065C8.14547 114.012 7.60394 113.4 6.17558 112.189C5.57128 105.26 5.26913 101.795 4.66483 94.8653C8.27303 94.2567 9.98786 93.8767 13.4234 93.2745C9.619 93.2584 7.8924 93.3229 4.08799 93.3068C3.91339 83.9912 3.91536 79.4091 3.74664 70.2513C4.22342 69.1275 4.5452 68.4835 5.02197 67.3597C46.6448 66.123 88.2617 64.7285 130.051 63.3276C90.471 63.6981 51.0574 63.9044 11.4653 63.9593C11.3712 61.4348 11.3241 60.1725 11.2299 57.648C13.4509 56.9332 14.4751 56.5789 16.702 56.0219C14.4457 55.79 13.2312 55.6773 11.1475 55.4391C11.2005 42.955 11.3104 36.6308 11.3634 24.1467C68.0017 22.1919 475.677 3.03403 480.524 3.16925Z" fill="#FFD261"/>
<mask id="mask0" mask-type="alpha" maskUnits="userSpaceOnUse" x="1" y="4" width="486" height="162">
<path d="M480.582 4.74689C481.428 18.1455 481.848 24.7659 482.693 38.1645C482.693 38.1645 480.001 40.1609 478.644 40.8435C477.286 41.5262 478.461 49.8564 478.461 49.8564C426.037 53.5501 373.429 56.9346 320.987 60.1548C371.041 57.8136 426.738 58.422 471.131 52.6579C472.852 52.4357 473.772 72.4676 473.772 72.4676C472.693 75.9839 472.239 77.7388 471.339 81.4064C464.623 82.131 461.181 82.5753 454.465 83.2999C461.383 83.3578 464.843 83.3868 471.767 83.6025C471.615 88.8222 471.543 91.5109 471.392 96.7306C470.725 97.3875 470.397 97.8737 469.557 98.537C440.009 99.0073 410.639 99.6289 381.102 100.415C412.562 100.189 444.212 100.431 475.7 100.994C476.317 108.239 476.625 111.862 477.241 119.107C474.145 119.538 472.424 119.76 469.334 120.35C472.977 120.688 474.715 120.939 478.186 121.283C478.7 130.428 479.044 134.998 479.552 143.985C478.033 144.989 477.36 145.488 475.842 146.493C312.8 133.608 168.932 140.789 19.5485 164.779C16.5956 164.415 15.0358 164.315 12.0888 164.109C11.6552 161.755 11.4414 160.657 11.0077 158.303C13.0502 157.437 14.0685 156.925 16.111 156.059C19.213 155.785 20.9396 155.721 24.0475 155.605C40.3737 152.942 48.626 151.686 65.1367 149.332C47.7333 150.929 38.9512 151.889 21.7323 153.795C18.2261 152.504 16.6486 151.931 13.1425 150.639C12.3793 139.45 12.0006 133.934 11.2374 122.744C12.2262 121.443 12.8875 120.629 13.8763 119.328C46.3972 115.112 78.9358 111.371 111.671 108.254C77.531 110.791 43.5758 113.638 9.62654 116.642C8.20406 115.589 7.66254 114.977 6.23417 113.767C5.62987 106.837 5.32772 103.372 4.72343 96.4429C8.33163 95.8343 10.0465 95.4543 13.482 94.8522C9.67759 94.8361 7.95099 94.9005 4.14659 94.8844C3.97198 85.5688 3.97395 80.9867 3.80523 71.8289C4.28201 70.7051 4.60379 70.0611 5.08057 68.9373C46.7034 67.7006 88.3203 66.3062 130.11 64.9053C90.5296 65.2757 51.116 65.482 11.5239 65.5369C11.4298 63.0124 11.3827 61.7502 11.2885 59.2256C13.5095 58.5108 14.5337 58.1566 16.7606 57.5995C14.5043 57.3677 13.2898 57.255 11.2061 57.0167C11.2591 44.5326 11.369 38.2084 11.422 25.7243C68.0603 23.7695 475.736 4.61167 480.582 4.74689Z" fill="url(#paint0_linear)"/>
</mask>
<g mask="url(#mask0)">
<g opacity="0.1">
<path d="M-5.9666 148.192C48.904 131.293 106.337 122.831 164.912 117.169C238.722 112.046 313.917 111.611 387.253 116.933C386.586 117.59 386.252 117.919 385.591 118.733C268.263 116 130.708 117.971 21.2509 154.761C21.2509 154.761 -8.5781 156.98 -5.9666 148.192Z" fill="#C17C2B"/>
<path d="M152.325 159.825C217.901 142.527 289.154 129.125 358.634 128.429C388.552 128.577 418.302 128.889 448.058 129.359C392.576 129.849 333.087 129.54 278.648 139.471C262.053 144.198 251.34 149.022 251.34 149.022C218.266 152.309 185.435 157.484 152.325 159.825Z" fill="#C17C2B"/>
<path d="M313.34 151.765C313.34 151.765 357.08 142.391 384.194 141.538C419.756 140.053 455.318 138.568 491.07 137.551C492.573 145.395 493.411 149.314 494.914 157.158C434.611 153.561 373.644 155.361 313.34 151.765Z" fill="#C17C2B"/>
<path d="M207.667 72.1241C180.428 74.2462 158.111 78.5547 157.884 81.7232C157.656 84.8918 179.637 85.4938 206.876 83.3717C233.77 81.2624 255.747 77.1246 255.974 73.9561C256.208 70.9453 234.566 70.1726 207.667 72.1241ZM224.686 78.7573C213.308 79.6557 203.966 79.5302 204.092 78.2615C204.223 77.1506 213.494 75.3827 225.045 74.4778C236.423 73.5794 245.597 73.8692 245.466 74.9801C245.34 76.2488 236.064 77.8588 224.686 78.7573Z" fill="#C17C2B"/>
<path d="M490.851 66.7743C452.628 66.4621 414.256 66.7875 376.171 65.5222C328.007 62.8949 279.331 60.4447 230.956 61.4592C189.893 63.781 147.148 72.0117 109.021 83.546C92.1397 89.8638 95.0415 98.1296 123.215 97.8687C170.72 96.7286 220.887 92.8031 266.883 83.6612C268.253 83.2941 292.92 81.742 301.792 78.5669C310.492 75.3984 322.639 71.9432 326.247 71.3346C355.784 70.5488 385.2 71.1895 414.468 72.4677C443.051 73.9295 488.669 73.1758 488.669 73.1758C489.783 70.6062 490.082 69.331 490.851 66.7743ZM309.893 68.6267C305.791 69.8857 291.448 70.1047 284.381 70.6844C277.314 71.264 281.402 74.2715 283.182 75.6271C284.956 76.825 278.942 77.8393 273.625 78.9857C268.308 80.132 258.853 81.5908 250.624 83.4777C245.825 84.6048 232.226 86.2181 211.173 87.3194C189.953 88.585 126.242 90.9617 133.8 84.9917C141.536 79.173 170.206 73.6795 199.411 68.64C230.884 64.1479 263.379 63.8837 295.231 64.9076C310.133 65.7737 314.002 67.5254 309.893 68.6267Z" fill="#C17C2B"/>
<path d="M516.73 125.533C472.223 118.978 427.084 114.025 381.706 111.926C345.52 110.59 328.178 109.183 328.178 109.183C373.997 109.212 419.703 110.825 465.368 111.333C479.704 110.957 517.55 115.075 525.283 118.42C533.366 121.911 516.73 125.533 516.73 125.533Z" fill="#C17C2B"/>
<path d="M39.5979 173.827C84.5778 160.615 131.367 149.547 178.636 142.096C216.29 136.425 233.807 133.244 233.807 133.244C185.413 138.367 137.614 145.522 89.6419 152.684C74.3222 154.519 35.2736 164.508 27.9964 168.729C20.9036 173.26 39.5979 173.827 39.5979 173.827Z" fill="#C17C2B"/>
<path d="M13.2026 124.409C46.5927 120.319 79.5904 114.98 113.183 111.673C166.744 106.041 220.134 100.415 273.909 95.8812C218.998 97.7716 163.943 100.457 109.298 104.866C76.8318 105.919 38.8642 107.809 13.2026 124.409Z" fill="#C17C2B"/>
<path d="M15.7337 108.83C15.7337 108.83 43.9185 94.9807 71.2969 87.3233C98.3299 79.6788 120.23 73.4898 123.856 73.3545C127.482 73.2193 60.4448 83.7781 43.9087 90.083C27.3726 96.3879 3.20211 106.612 3.20211 106.612C3.20211 106.612 9.37469 109.857 15.7337 108.83Z" fill="#C17C2B"/>
<path d="M489.585 32.8512C469.243 29.818 433.622 29.7248 431.038 29.9792C428.46 30.3914 352.187 29.7606 352.187 29.7606C297.762 35.4249 242.564 38.906 188.555 46.4508C168.983 50.1829 144.632 50.9333 105.69 49.858C64.8477 48.8535 23.8684 48.8022 -16.9558 48.271C-16.9558 48.271 -26.4659 52.8918 -20.8388 64.69C-15.2116 76.4882 -14.317 86.567 -3.64932 89.8031C25.7421 80.4906 55.6869 72.1054 86.3929 65.5879C116.122 60.6869 146.802 58.1204 177.19 56.9868C216.235 56.1623 255.423 54.5424 294.444 53.0868C340.234 52.3267 386.346 50.9225 432.052 52.5356C459.605 54.1938 502.847 54.6347 502.847 54.6347C504.187 53.4787 504.854 52.8218 506.367 51.6594C508.768 46.5137 509.877 43.7864 512.272 38.4829C512.1 38.4894 509.755 35.8908 489.585 32.8512ZM371.125 46.1183C328.235 45.8222 285.075 47.5902 242.238 48.7142C271.847 45.2397 301.445 41.4496 331.072 38.4483C351.065 36.7545 381.392 38.6252 410.446 38.8054C439.155 38.9985 495.98 46.6748 495.98 46.6748C454.31 46.6492 412.652 46.9392 371.125 46.1183Z" fill="#C17C2B"/>
<path d="M207.361 105.632C297.301 97.2207 396.304 86.1014 486.171 94.2831C484.319 95.6162 483.307 96.286 481.454 97.6191C441.815 96.4118 401.491 95.388 361.636 97.6647C310.225 100.689 258.76 102.292 207.361 105.632Z" fill="#C17C2B"/>
<path d="M319.804 88.6392C377.835 86.9484 436.967 86.9545 494.675 90.4899C498.045 88.1521 499.731 86.9832 503.274 84.639C503.274 84.639 462.903 82.353 441.517 83.7828C400.96 85.7697 360.367 86.81 319.804 88.6392Z" fill="#C17C2B"/>
</g>
<g opacity="0.1">
<path d="M474.001 78.621C474.001 78.621 473.248 58.4249 471.36 58.8113C470.676 58.9949 451.522 60.0254 427.016 61.2555C429.642 62.1056 435.726 62.9847 439.191 63.1714C445.948 63.5513 459.378 66.6844 459.508 70.1556C459.637 73.6268 455.907 80.244 455.387 84.8454C454.867 89.4469 450.722 94.1836 453.835 94.2254C456.777 94.2737 464.385 94.3059 455.876 97.9413C447.539 101.57 396.353 106.008 393.246 106.124C423.991 105.293 439.363 104.877 469.781 104.533C470.448 103.876 470.776 103.39 471.615 102.726C471.767 97.5066 471.839 94.8178 471.99 89.5981C465.072 89.5402 461.613 89.5112 454.689 89.2955C461.405 88.571 464.846 88.1266 471.563 87.4021C472.475 84.05 472.928 82.2951 474.001 78.621Z" fill="#D7A456"/>
<path d="M100.318 160.817C140.96 156.457 181.994 153.347 223.069 151.34C308.161 147.376 391.686 147.736 476.244 152.64C477.762 151.635 478.435 151.136 479.954 150.132C479.44 140.987 479.097 136.417 478.589 127.43C474.945 127.092 473.207 126.841 469.736 126.497C472.832 126.065 474.553 125.843 477.643 125.254C477.027 118.009 476.719 114.386 476.103 107.141C445.477 106.545 430.087 106.487 399.312 106.529C414.381 107.231 452.323 109.292 455.531 111.858C459.459 115.188 464.548 131.114 462.052 133.735C450.926 146 360.723 142.729 318.968 145.077C245.813 149.228 172.814 152.899 100.318 160.817Z" fill="#D7A456"/>
<path d="M468.541 11.042C455.115 12.6489 448.232 13.5377 434.8 14.9867C444.278 14.1592 451.53 13.8886 454.31 14.2589C465.955 15.8786 468.712 15.6177 466.995 20.5798C465.278 25.5419 463.667 33.3441 463.803 36.9731C463.938 40.602 464.199 42.9623 462.28 47.1419C461.798 48.108 461.815 48.5813 461.994 48.7326C461.13 48.7649 459.243 49.1513 454.634 50.7452C441.838 55.3306 443.17 58.5989 430.411 59.5489C449.725 58.1964 459.388 57.6779 478.697 56.1676C478.697 56.1676 477.521 47.8374 478.879 47.1548C480.237 46.4721 482.929 44.4757 482.929 44.4757C482.083 31.0771 481.663 24.4567 480.818 11.0581C475.971 10.9229 473.554 11.013 468.541 11.042Z" fill="#D7A456"/>
<path d="M68.1248 164.546C68.2916 164.382 68.2974 164.54 68.1248 164.546V164.546Z" fill="#D7A456"/>
</g>
<path d="M13.8062 117.434C12.0384 116.394 11.1515 115.795 9.55641 114.749C42.2912 111.632 75.0436 108.988 107.808 106.66C76.2816 109.732 44.9517 113.428 13.8062 117.434Z" fill="#BC905C"/>
<path d="M4.83752 67.0504C45.2517 65.8588 85.8327 64.503 126.241 63.1536C87.8693 63.479 49.4917 63.6466 11.1082 63.6564C10.4117 63.5244 9.88783 63.3859 9.19131 63.2539C7.51768 64.7384 6.68381 65.5595 4.83752 67.0504Z" fill="#FFD261"/>
</g>
<path d="M6.16402 111.873C7.59239 113.084 8.12803 113.538 9.55639 114.749C42.2912 111.632 75.0436 108.988 107.808 106.66C75.8774 108.167 43.9648 110.147 12.2366 112.437C12.2366 112.437 9.91546 110.469 8.67741 109.726C7.44524 109.139 5.91487 95.9244 5.91487 95.9244C8.80889 94.7105 10.3452 94.1791 13.2392 92.9652C9.63099 93.5738 7.91616 93.9537 4.48062 94.5559C5.08492 101.485 5.38707 104.95 6.16402 111.873Z" fill="#FFD261"/>
<path d="M461.531 3.87751C467.127 5.56479 469.925 6.40843 475.521 8.0957C475.521 8.0957 478.946 30.4041 478.475 31.6857C478.005 32.9673 476.437 37.2918 475.627 38.744C474.816 40.1963 475.356 45.3902 475.356 45.3902C462.983 47.4318 456.969 48.4461 444.597 50.4877C458.219 49.5055 464.947 49.0965 478.397 48.1208C478.397 48.1208 477.222 39.7905 478.579 39.1079C479.937 38.4252 482.629 36.4288 482.629 36.4288C481.783 23.0302 481.364 16.4098 480.518 3.01124C475.678 3.0338 473.255 2.96619 468.414 2.98875C465.663 3.40737 464.288 3.61668 461.531 3.87751Z" fill="#FFD261"/>
<path d="M6.26805 91.4872C6.26805 91.4872 6.18176 70.6342 6.68797 70.2993C22.9867 62.2653 84.8087 64.8571 123.133 63.2695C124.687 63.2115 85.6603 64.5094 52.331 65.5947C51.813 65.614 51.4677 65.6269 50.9497 65.6462C48.8778 65.7235 46.8059 65.8008 44.9066 65.8716C29.7067 66.2806 22.1096 66.564 6.90968 66.973C5.87961 67.1695 5.54017 67.3401 4.5101 67.5366C4.02743 68.5026 3.87243 68.9824 3.55654 69.7841C3.73115 79.0997 3.72918 83.6818 3.8979 92.8396C7.7023 92.8557 9.4289 92.7913 13.2333 92.8074C10.4531 92.4371 9.05415 92.0153 6.26805 91.4872Z" fill="#FFD261"/>
<path d="M14.895 160.528C14.5203 159.752 14.3359 159.443 13.9611 158.667C14.7891 157.688 15.2894 157.195 16.1233 156.374C16.1233 156.374 18.8741 155.956 21.2913 155.865C23.5359 155.782 65.0724 147.596 65.0724 147.596C48.5618 149.95 40.4821 151.199 23.9832 153.869C20.8812 154.143 19.1546 154.207 16.0468 154.323C14.0043 155.189 12.986 155.701 10.9435 156.567C11.3771 158.921 11.591 160.019 12.0246 162.373C14.9774 162.737 16.5373 162.837 19.4843 163.043C86.9139 153.733 154.104 147.277 222.424 143.306C307.516 139.342 391.041 139.702 475.599 144.606C477.118 143.601 477.791 143.102 479.309 142.098C478.795 132.953 478.452 128.383 477.944 119.396C474.3 119.058 472.562 118.807 469.091 118.463C472.187 118.031 473.908 117.809 476.998 117.22C476.382 109.975 476.074 106.352 475.458 99.1069C443.969 98.5435 412.492 98.2958 380.86 98.5277C411.819 98.7949 442.623 99.5418 473.439 100.604C474.186 106.738 474.477 109.888 475.224 116.022C471.461 117.11 469.579 117.654 465.989 118.736C469.65 119.548 471.567 119.95 475.228 120.762C475.228 120.762 476.37 137.467 476.244 138.736C475.946 140.011 474.159 143.08 474.159 143.08C415.737 138.939 356.546 137.355 297.812 138.756C206.083 140.914 114.518 147.49 24.0637 160.66C20.2593 160.644 18.5268 160.551 14.895 160.528Z" fill="#FFD261"/>
<path d="M16.1155 146.894C15.2855 138.551 14.7813 134.304 13.9455 125.803C13.9455 125.803 14.954 120.393 16.3058 119.553C17.4909 118.877 81.64 109.69 101.782 107.358C72.3281 110.353 43.0583 113.657 13.8121 117.592C12.8232 118.893 12.162 119.708 11.1731 121.009C11.9363 132.198 12.315 137.714 13.0782 148.904C16.4117 150.201 18.1619 150.768 21.668 152.059C39.0596 150.147 47.669 149.193 65.0724 147.596C47.9849 148.392 39.5305 148.865 22.4548 149.976C19.8119 148.653 18.5798 148.066 16.1155 146.894Z" fill="#FFD261"/>
<path d="M471.322 94.8372C471.473 89.6175 471.545 86.9287 471.696 81.7091C464.778 81.6511 461.319 81.6222 454.395 81.4065C461.111 80.6819 464.553 80.2375 471.269 79.513C472.348 75.9967 472.801 74.2418 473.702 70.5741C473.702 70.5741 472.948 50.3781 471.061 50.7645C470.376 50.948 451.223 51.9785 426.717 53.2087C442.964 53.0766 451.085 52.9317 467.506 52.7931C468.961 59.3749 469.782 62.8203 471.243 69.5598C471.243 69.5598 469.43 76.5795 468.591 77.2429C467.751 77.9062 449.031 81.2906 449.031 81.2906C456.836 81.9474 460.825 82.2726 468.808 83.0808C468.808 83.0808 468.714 94.4604 468.375 94.6311C458.204 100.067 410.206 97.275 381.038 98.6791C410.569 97.7355 439.939 97.1139 469.493 96.8014C470.154 95.9867 470.488 95.6583 471.322 94.8372Z" fill="#FFD261"/>
<path d="M317.726 78.8645L322.877 78.5945C322.916 79.3384 323.19 79.8592 323.699 80.1572C324.242 80.4189 324.837 80.5536 325.44 80.5512C326.042 80.5487 326.636 80.4092 327.177 80.1431C327.366 80.0381 327.52 79.8796 327.619 79.6873C327.718 79.495 327.759 79.2777 327.734 79.0627C327.731 78.8013 327.624 78.552 327.437 78.3691C327.198 78.1635 326.918 78.011 326.616 77.9213C326.25 77.7962 325.785 77.6615 325.221 77.5172L323.168 76.991C322.451 76.8031 321.776 76.6047 321.143 76.3957C320.546 76.2049 319.979 75.9302 319.46 75.5796C318.979 75.2552 318.579 74.8254 318.29 74.3231C317.98 73.7347 317.814 73.0813 317.804 72.4163C317.742 71.6277 317.88 70.8363 318.205 70.1152C318.518 69.4559 318.991 68.8852 319.581 68.4547C320.246 67.9761 320.991 67.6197 321.781 67.4023C322.717 67.136 323.682 66.9804 324.655 66.9386C325.772 66.8596 326.894 66.9487 327.984 67.2028C328.83 67.401 329.627 67.7673 330.329 68.2799C330.93 68.7309 331.414 69.3198 331.74 69.9971C332.067 70.6857 332.252 71.433 332.284 72.1946L327.099 72.4663C327.063 71.7803 326.86 71.2577 326.487 70.8927C326.114 70.5277 325.57 70.361 324.853 70.3986C324.359 70.4108 323.877 70.5619 323.464 70.8347C323.284 70.9559 323.14 71.124 323.048 71.3208C322.956 71.5177 322.92 71.7358 322.943 71.9518C322.946 72.2358 323.06 72.5072 323.261 72.7081C323.507 72.9237 323.793 73.0886 324.103 73.1933C324.47 73.3313 324.921 73.47 325.457 73.6094L327.298 74.0925C328.047 74.2452 328.745 74.4205 329.393 74.6184C330 74.7992 330.581 75.0549 331.124 75.3799C331.617 75.6793 332.035 76.0877 332.346 76.5737C332.682 77.1472 332.864 77.7981 332.874 78.4629C332.949 79.3697 332.787 80.2804 332.404 81.1058C332.048 81.8303 331.525 82.4593 330.877 82.9403C330.182 83.4438 329.399 83.8126 328.569 84.0274C327.653 84.2757 326.714 84.4241 325.767 84.4699C323.316 84.5983 321.389 84.184 319.988 83.2269C318.586 82.2698 317.834 80.8143 317.732 78.8603" fill="black"/>
<path d="M237.46 83.0711L242.611 82.8012C242.65 83.545 242.924 84.0659 243.433 84.3638C243.976 84.6256 244.571 84.7603 245.173 84.7578C245.776 84.7554 246.37 84.6158 246.91 84.3497C247.1 84.2448 247.254 84.0862 247.353 83.894C247.452 83.7017 247.492 83.4843 247.468 83.2693C247.465 83.0079 247.358 82.7586 247.171 82.5757C246.932 82.3702 246.652 82.2176 246.35 82.128C245.984 82.0029 245.518 81.8682 244.953 81.7239L242.902 81.1976C242.185 81.0098 241.51 80.8113 240.877 80.6023C240.281 80.4091 239.716 80.1316 239.199 79.7782C238.718 79.4538 238.319 79.024 238.03 78.5217C237.719 77.9333 237.553 77.28 237.543 76.6149C237.481 75.8264 237.619 75.035 237.944 74.3138C238.258 73.6545 238.73 73.0838 239.32 72.6534C239.985 72.1747 240.73 71.8183 241.52 71.6009C242.456 71.3346 243.421 71.179 244.394 71.1373C245.509 71.0614 246.63 71.1532 247.718 71.4094C248.564 71.6076 249.361 71.9739 250.062 72.4865C250.664 72.9375 251.148 73.5265 251.474 74.2037C251.801 74.8924 251.986 75.6397 252.018 76.4012L246.833 76.673C246.797 75.987 246.594 75.4643 246.221 75.0993C245.848 74.7343 245.304 74.5677 244.587 74.6052C244.092 74.6174 243.611 74.7685 243.198 75.0413C243.016 75.1614 242.87 75.3291 242.776 75.5261C242.683 75.7231 242.645 75.942 242.667 76.159C242.67 76.4429 242.784 76.7144 242.985 76.9152C243.23 77.1344 243.517 77.3026 243.828 77.4101C244.195 77.5481 244.646 77.6867 245.181 77.8261L247.023 78.3093C247.769 78.4621 248.467 78.6375 249.118 78.8352C249.724 79.0159 250.306 79.2717 250.849 79.5967C251.342 79.8954 251.76 80.3039 252.07 80.7905C252.408 81.3638 252.59 82.0147 252.6 82.6796C252.675 83.5843 252.513 84.4928 252.132 85.3166C251.776 86.0411 251.253 86.6701 250.605 87.1511C249.91 87.6543 249.127 88.023 248.297 88.2382C247.381 88.4867 246.441 88.6351 245.493 88.6808C243.043 88.8092 241.118 88.3948 239.716 87.4377C238.315 86.4806 237.563 85.0251 237.46 83.0711Z" fill="black"/>
<path d="M252.55 75.1171L252.345 71.1918L254.929 71.0564L254.67 66.1195L259.917 65.8445L260.176 70.7814L263.935 70.5844L264.141 74.5096L260.382 74.7067L260.691 80.6187C260.703 81.1138 260.786 81.6047 260.938 82.0762C261.041 82.3912 261.221 82.6758 261.461 82.9048C261.678 83.1003 261.948 83.2267 262.237 83.268C262.569 83.3149 262.905 83.3277 263.24 83.3062C263.463 83.2945 263.749 83.2796 264.094 83.2363C264.397 83.2094 264.698 83.1627 264.995 83.0964L265.209 87.1874C264.828 87.275 264.336 87.3645 263.751 87.457C263.167 87.5495 262.478 87.6088 261.684 87.6504C261.031 87.6821 260.377 87.6719 259.725 87.6197C259.041 87.567 258.377 87.3586 257.786 87.0102C257.128 86.6012 256.595 86.0187 256.247 85.3267C255.82 84.5543 255.57 83.4776 255.498 82.0966L255.125 74.9822L252.55 75.1171Z" fill="black"/>
<path d="M265.274 78.8426C265.201 77.6605 265.342 76.4748 265.69 75.3427C266.008 74.3032 266.529 73.3368 267.222 72.4993C267.89 71.6957 268.709 71.03 269.631 70.5393C270.577 70.0356 271.624 69.7497 272.694 69.7024C273.819 69.615 274.946 69.8301 275.96 70.3255C276.836 70.7522 277.581 71.4083 278.115 72.224L277.991 69.848L283.244 69.5727L284.115 86.1988L278.849 86.4748L278.726 84.1335C278.296 84.9825 277.639 85.6957 276.828 86.1942C275.858 86.8053 274.741 87.1435 273.595 87.1733C272.53 87.2349 271.465 87.0597 270.476 86.6604C269.505 86.269 268.621 85.6895 267.875 84.9553C267.102 84.1905 266.487 83.2822 266.063 82.2813C265.599 81.1917 265.335 80.0273 265.284 78.844L265.274 78.8426ZM270.535 78.5688C270.563 79.1293 270.691 79.6803 270.914 80.1953C271.121 80.682 271.417 81.1253 271.788 81.502C272.156 81.8641 272.59 82.1511 273.067 82.347C273.582 82.5553 274.138 82.6445 274.692 82.6077C275.251 82.5856 275.797 82.4387 276.291 82.1781C276.748 81.9347 277.153 81.6036 277.483 81.2036C277.812 80.7938 278.061 80.325 278.216 79.8222C278.385 79.2838 278.455 78.719 278.422 78.1555C278.369 77.0668 277.925 76.0339 277.17 75.2473C276.807 74.869 276.367 74.5726 275.88 74.3777C275.358 74.1745 274.797 74.0891 274.238 74.1276C273.684 74.1486 273.141 74.2919 272.649 74.5471C272.189 74.7904 271.786 75.1283 271.466 75.5385C271.144 75.9565 270.896 76.4271 270.733 76.9295C270.563 77.456 270.493 78.0094 270.525 78.5616" fill="black"/>
<path d="M285.256 73.403L285.051 69.4777L287.635 69.3423L287.376 64.4053L292.629 64.13L292.888 69.067L296.647 68.87L296.853 72.7952L293.093 72.9923L293.403 78.9042C293.415 79.3993 293.497 79.8902 293.648 80.3619C293.752 80.6765 293.931 80.961 294.17 81.1905C294.388 81.3857 294.658 81.5121 294.947 81.5536C295.279 81.6004 295.615 81.6132 295.95 81.5919C296.173 81.5802 296.459 81.5652 296.804 81.522C297.108 81.4951 297.409 81.4483 297.707 81.382L297.921 85.4729C297.539 85.5606 297.046 85.6502 296.463 85.7426C295.88 85.835 295.188 85.8944 294.394 85.936C293.742 85.9678 293.088 85.9575 292.437 85.9053C291.753 85.8526 291.089 85.6442 290.498 85.2958C289.839 84.8873 289.307 84.3047 288.958 83.6123C288.532 82.8399 288.282 81.7632 288.21 80.3822L287.837 73.2677L285.256 73.403Z" fill="black"/>
<path d="M299.155 78.638L298.637 68.766L303.89 68.4907L304.337 77.0138C304.399 78.2047 304.662 79.1628 305.125 79.8883C305.588 80.6137 306.369 80.947 307.467 80.8882C308.559 80.831 309.345 80.4097 309.826 79.6245C310.307 78.8393 310.51 77.7981 310.435 76.501L309.999 68.1706L315.25 67.8954L316.121 84.5214L310.87 84.7966L310.746 82.4226C310.324 83.332 309.63 84.088 308.761 84.5864C307.85 85.1301 306.742 85.4361 305.437 85.5045C304.281 85.5651 303.339 85.4348 302.582 85.1131C301.876 84.8272 301.239 84.3942 300.714 83.843C300.151 83.2298 299.753 82.4832 299.559 81.6736C299.33 80.6766 299.195 79.6603 299.155 78.638Z" fill="black"/>
<path d="M191.048 47.3274C184.512 47.6699 178.224 49.943 172.979 53.8591C167.735 57.7753 163.77 63.1587 161.585 69.3284C159.4 75.4982 159.094 82.1773 160.705 88.5211C162.316 94.865 165.772 100.589 170.636 104.968C175.5 109.348 181.554 112.187 188.031 113.126C194.509 114.065 201.119 113.062 207.027 110.245C212.934 107.427 217.874 102.92 221.22 97.2955C224.567 91.6705 226.17 85.1794 225.828 78.6432C225.368 69.8784 221.446 61.655 214.923 55.7822C208.401 49.9093 199.813 46.868 191.048 47.3274V47.3274ZM188.487 95.3202C184.354 95.7706 180.082 93.4883 179.642 89.442C179.213 85.4647 182.184 82.6328 187.312 82.0742C191.095 81.6615 193.512 82.4005 197.301 81.9874C198.239 81.8862 199.167 81.7037 200.074 81.4421C199.873 88.3277 195.221 94.5866 188.487 95.3202ZM198.337 79.7767C194.389 80.2135 191.858 79.4206 187.906 79.8576C186.927 79.9636 185.958 80.1573 185.013 80.4363C185.208 73.0835 190.063 66.3984 197.092 65.6223C201.405 65.145 205.87 67.5912 206.332 71.9146C206.786 76.1649 203.687 79.1871 198.337 79.7767Z" fill="black"/>
<defs>
<linearGradient id="paint0_linear" x1="246.711" y1="155.402" x2="241.169" y2="6.85174" gradientUnits="userSpaceOnUse">
<stop stop-color="#EBCB8A"/>
<stop offset="1" stop-color="#D7A456"/>
</linearGradient>
</defs>
</svg>
