<?xml version="1.0" encoding="UTF-8"?>
<svg width="1063px" height="225px" viewBox="0 0 1063 225" version="1.1" xmlns="http://www.w3.org/2000/svg" xmlns:xlink="http://www.w3.org/1999/xlink">
    <!-- Generator: Sketch 60.1 (88133) - https://sketch.com -->
    <title>twitter-share</title>
    <desc>Created with Sketch.</desc>
    <defs>
        <radialGradient cx="49.9788851%" cy="112.531223%" fx="49.9788851%" fy="112.531223%" r="91.8285473%" gradientTransform="translate(0.499789,1.125312),scale(1.000000,0.971429),translate(-0.499789,-1.125312)" id="radialGradient-1">
            <stop stop-color="#087984" offset="1%"></stop>
            <stop stop-color="#09707E" offset="13%"></stop>
            <stop stop-color="#0D576E" offset="33%"></stop>
            <stop stop-color="#143054" offset="59%"></stop>
            <stop stop-color="#142E53" offset="60%"></stop>
            <stop stop-color="#122645" offset="66%"></stop>
            <stop stop-color="#0F192C" offset="79%"></stop>
            <stop stop-color="#0E111D" offset="90%"></stop>
            <stop stop-color="#0D0E18" offset="100%"></stop>
        </radialGradient>
        <radialGradient cx="48.5116917%" cy="112.671082%" fx="48.5116917%" fy="112.671082%" r="294.757207%" gradientTransform="translate(0.485117,1.126711),scale(0.301887,1.000000),translate(-0.485117,-1.126711)" id="radialGradient-2">
            <stop stop-color="#087984" offset="1%"></stop>
            <stop stop-color="#09707E" offset="13%"></stop>
            <stop stop-color="#0D576E" offset="33%"></stop>
            <stop stop-color="#143054" offset="59%"></stop>
            <stop stop-color="#142E53" offset="60%"></stop>
            <stop stop-color="#122645" offset="66%"></stop>
            <stop stop-color="#0F192C" offset="79%"></stop>
            <stop stop-color="#0E111D" offset="90%"></stop>
            <stop stop-color="#0D0E18" offset="100%"></stop>
        </radialGradient>
        <path d="M24.1425781,72.8032422 C31.4863281,72.8032422 37.6061198,70.9214063 42.5019531,67.1577344 C47.3977865,63.3940625 49.8304036,57.9780469 49.7998047,50.9096875 C49.8304036,47.7885938 49.2643229,45.0652865 48.1015625,42.7397656 C46.9388021,40.4142448 45.4853516,38.6089063 43.7412109,37.32375 C41.9970703,36.0385938 40.0234375,34.9523307 37.8203125,34.0649609 C35.6171875,33.1775911 33.4140625,32.4432161 31.2109375,31.8618359 C29.0078125,31.2804557 27.0188802,30.6531771 25.2441406,29.98 C21.2356771,28.541849 19.2161458,26.1551302 19.1855469,22.8198438 C19.1855469,20.8615104 20.210612,19.3009635 22.2607422,18.1382031 C24.3108724,16.9754427 26.4375,16.3940625 28.640625,16.3940625 C30.84375,16.3940625 32.9550781,16.76125 34.9746094,17.495625 C36.9941406,18.23 38.5546875,19.3315625 39.65625,20.8003125 L39.65625,20.8003125 L49.7080078,9.83058594 C44.444987,5.17954427 37.6520182,2.85402344 29.3291016,2.85402344 C22.383138,2.85402344 16.4163411,4.76645833 11.4287109,8.59132813 C6.44108073,12.4161979 3.94726562,17.7098177 3.94726562,24.4721875 C3.94726562,27.9298698 4.71223958,30.8979688 6.2421875,33.3764844 C7.77213542,35.855 9.69986979,37.6909375 12.0253906,38.8842969 C16.7988281,41.2710156 21.8170573,43.168151 27.0800781,44.5757031 C29.405599,45.1876823 31.3333333,46.166849 32.8632812,47.5132031 C34.3932292,48.8595573 35.1582031,50.5425 35.1582031,52.5620313 C35.1582031,54.5815625 34.1178385,56.2033073 32.0371094,57.4272656 C29.9563802,58.651224 27.6614583,59.2632031 25.1523438,59.2632031 C22.6126302,59.2632031 20.1953125,58.6971224 17.9003906,57.5649609 C15.6054688,56.4327995 13.7083333,54.9028516 12.2089844,52.9751172 L12.2089844,52.9751172 L1.79003906,64.4497266 C7.7874349,70.018737 15.2382812,72.8032422 24.1425781,72.8032422 Z M73.0244141,71.105 L73.0244141,48.339375 C73.0244141,44.7898958 73.6057943,41.9594922 74.7685547,39.8481641 C75.9313151,37.7368359 77.9814453,36.6964714 80.9189453,36.7270703 C83.9176432,36.7576693 86.0136719,37.6297396 87.2070312,39.3432812 C88.2779948,40.7202344 88.8134766,43.8566276 88.8134766,48.7524609 L88.8134766,48.7524609 L88.8134766,71.105 L102.904297,71.105 L102.904297,45.9067578 C102.904297,38.9607943 101.726237,33.621276 99.3701172,29.8882031 C97.0139974,26.1551302 92.5465495,24.2885938 85.9677734,24.2885938 C82.7854818,24.2885938 80.046875,25.0229688 77.7519531,26.4917188 C75.4876302,27.9910677 73.9729818,29.7046094 73.2080078,31.6323438 L73.2080078,31.6323438 L73.0244141,31.6323438 L73.0244141,0.05421875 L58.9335938,0.05421875 L58.9335938,71.105 L73.0244141,71.105 Z M126.863281,72.2524609 C133.625651,72.2524609 138.444987,69.9575391 141.321289,65.3676953 L141.321289,65.3676953 L141.504883,65.3676953 L141.504883,71.105 L154.494141,71.105 L154.494141,47.8803906 C154.463542,39.8022656 152.933594,33.8507682 149.904297,30.0258984 C146.875,26.2010286 141.351888,24.2885938 133.334961,24.2885938 C125.318034,24.2885938 118.708659,26.7365104 113.506836,31.6323438 L113.506836,31.6323438 L121.03418,39.3432813 C124.308268,35.7020052 128.133138,33.8813672 132.508789,33.8813672 C135.017904,33.8813672 137.144531,34.6310417 138.888672,36.1303906 C140.632812,37.6297396 141.504883,39.6033724 141.504883,42.0512891 C139.301758,42.0512891 137.48112,42.0665885 136.042969,42.0971875 C125.578125,42.3113802 118.433268,44.285013 114.608398,48.0180859 C111.946289,50.7107943 110.615234,54.1684766 110.615234,58.3911328 C110.615234,62.6137891 112.191081,65.9796745 115.342773,68.4887891 C118.525065,70.9979036 122.365234,72.2524609 126.863281,72.2524609 Z M131.682617,62.6596875 C129.326497,62.6596875 127.47526,62.2160026 126.128906,61.3286328 C124.782552,60.441263 124.109375,59.2173047 124.109375,57.6567578 C124.109375,53.2811068 128.745117,51.0932813 138.016602,51.0932813 L138.016602,51.0932813 L141.504883,51.0932813 L141.504883,54.0766797 C141.535482,56.799987 140.495117,58.9113151 138.383789,60.4106641 C136.272461,61.910013 134.038737,62.6596875 131.682617,62.6596875 Z M177.397461,71.105 L177.397461,52.01125 C177.397461,49.4409375 177.519857,47.3449089 177.764648,45.7231641 C178.407227,41.6535026 180.289062,38.9454948 183.410156,37.5991406 C186.53125,36.2833854 190.539714,36.2986849 195.435547,37.6450391 L195.435547,37.6450391 L195.435547,24.7475781 C194.395182,24.4415885 192.834635,24.2885938 190.753906,24.2885938 C185.031901,24.2885938 180.640951,27.1036979 177.581055,32.7339063 L177.581055,32.7339063 L177.397461,32.7339063 L177.397461,25.4360547 L163.306641,25.4360547 L163.306641,71.105 L177.397461,71.105 Z M223.800781,72.2524609 C227.472656,72.221862 231.037435,71.4109896 234.495117,69.8198438 C237.952799,68.2286979 240.813802,66.0255729 243.078125,63.2104688 L243.078125,63.2104688 L233.209961,55.9585156 C230.517253,59.6609896 227.151367,61.5122266 223.112305,61.5122266 C220.419596,61.5122266 218.124674,60.7166536 216.227539,59.1255078 C214.330404,57.534362 213.091146,55.3924349 212.509766,52.6997266 L212.509766,52.6997266 L245.235352,52.6997266 L245.235352,48.2475781 C245.235352,40.9038281 243.307617,35.0747266 239.452148,30.7602734 C235.59668,26.4458203 230.226562,24.2885938 223.341797,24.2885938 C216.457031,24.2885938 210.582031,26.4917188 205.716797,30.8979688 C200.851562,35.3042188 198.418945,41.0874219 198.418945,48.2475781 C198.418945,55.4077344 200.836263,61.1909375 205.670898,65.5971875 C210.505534,70.0034375 216.548828,72.221862 223.800781,72.2524609 Z M231.144531,43.1069531 L212.509766,43.1069531 C212.66276,40.7202344 213.626628,38.6701042 215.401367,36.9565625 C217.176107,35.3042188 219.42513,34.4780469 222.148438,34.4780469 C224.871745,34.4780469 227.05957,35.3195182 228.711914,37.0024609 C230.364258,38.6854036 231.17513,40.7202344 231.144531,43.1069531 L231.144531,43.1069531 Z M305.224609,72.2065625 C312.445964,72.2065625 318.489258,70.0034375 323.354492,65.5971875 C328.219727,61.1909375 330.652344,55.4077344 330.652344,48.2475781 C330.652344,41.0874219 328.235026,35.3042188 323.400391,30.8979688 C318.565755,26.4917188 312.522461,24.2885938 305.270508,24.2885938 C298.049154,24.2885938 292.005859,26.4917188 287.140625,30.8979688 C282.30599,35.3348177 279.888672,41.1180208 279.888672,48.2475781 C279.888672,55.3771354 282.30599,61.1603385 287.140625,65.5971875 C291.97526,70.0034375 298.003255,72.2065625 305.224609,72.2065625 Z M305.270508,59.8139844 C301.751628,59.8139844 298.982422,58.7583203 296.962891,56.6469922 C294.943359,54.5050651 293.948893,51.7052604 293.979492,48.2475781 C293.948893,44.8204948 294.943359,42.0359896 296.962891,39.8940625 C298.982422,37.7521354 301.736328,36.6811719 305.224609,36.6811719 C308.712891,36.6811719 311.466797,37.7521354 313.486328,39.8940625 C315.505859,42.0359896 316.515625,44.8204948 316.515625,48.2475781 C316.576823,51.6746615 315.597656,54.4591667 313.578125,56.6010938 C311.558594,58.7430208 308.789388,59.8139844 305.270508,59.8139844 Z M353.004883,71.105 L353.004883,48.339375 C353.004883,44.7898958 353.586263,41.9594922 354.749023,39.8481641 C355.911784,37.7368359 357.961914,36.6964714 360.899414,36.7270703 C363.898112,36.7576693 365.994141,37.6297396 367.1875,39.3432813 C368.258464,40.7202344 368.793945,43.8566276 368.793945,48.7524609 L368.793945,48.7524609 L368.793945,71.105 L382.884766,71.105 L382.884766,45.9067578 C382.884766,38.9607943 381.706706,33.621276 379.350586,29.8882031 C376.994466,26.1551302 372.527018,24.2885938 365.948242,24.2885938 C362.765951,24.2885938 360.012044,25.0076693 357.686523,26.4458203 C355.391602,27.8839714 353.708659,29.6128125 352.637695,31.6323438 L352.637695,31.6323438 L352.408203,31.6323438 L352.408203,25.4360547 L338.914062,25.4360547 L338.914062,71.105 L353.004883,71.105 Z M449.988281,71.105 L449.988281,17.5415234 L468.944336,17.5415234 L468.944336,4.55226563 L416.298828,4.55226563 L416.298828,17.5415234 L435.300781,17.5415234 L435.300781,71.105 L449.988281,71.105 Z M489.644531,71.105 L498.089844,40.7202344 L498.273438,40.7202344 L507.774414,71.105 L521.681641,71.105 L537.929688,25.4360547 L523.655273,25.4360547 L515.118164,54.0766797 L514.888672,54.0766797 L506.443359,25.4360547 L491.021484,25.4360547 L483.21875,54.0766797 L483.035156,54.0766797 L473.717773,25.4360547 L458.708984,25.4360547 L475.416016,71.105 L489.644531,71.105 Z M549.633789,19.2397656 C551.898112,19.2397656 553.825846,18.4288932 555.416992,16.8071484 C557.008138,15.2160026 557.803711,13.2882682 557.803711,11.0239453 C557.803711,8.7596224 557.008138,6.83188802 555.416992,5.24074219 C553.825846,3.64959635 551.898112,2.85402344 549.633789,2.85402344 C547.369466,2.85402344 545.441732,3.64959635 543.850586,5.24074219 C542.25944,6.83188802 541.463867,8.7596224 541.463867,11.0239453 C541.463867,13.3188672 542.25944,15.261901 543.850586,16.8530469 C545.441732,18.4441927 547.369466,19.2397656 549.633789,19.2397656 Z M556.702148,71.105 L556.702148,25.4360547 L542.611328,25.4360547 L542.611328,71.105 L556.702148,71.105 Z M587.270508,72.2524609 C591.799154,72.2524609 595.348633,71.7781771 597.918945,70.8296094 L597.918945,70.8296094 L597.918945,59.0796094 C597.000977,59.9363802 595.119141,60.3647656 592.273438,60.3647656 C589.427734,60.3647656 587.591797,59.6762891 586.765625,58.2993359 C585.939453,56.9223828 585.526367,54.7957552 585.526367,51.9194531 L585.526367,51.9194531 L585.526367,36.6811719 L597.918945,36.6811719 L597.918945,25.4360547 L585.526367,25.4360547 L585.526367,11.8960156 L571.435547,11.8960156 L571.435547,25.4360547 L562.393555,25.4360547 L562.393555,36.6811719 L571.435547,36.6811719 L571.435547,58.4370313 C571.435547,63.1798698 572.950195,66.668151 575.979492,68.901875 C578.97819,71.135599 582.741862,72.2524609 587.270508,72.2524609 Z M625.503906,72.2524609 C630.032552,72.2524609 633.582031,71.7781771 636.152344,70.8296094 L636.152344,70.8296094 L636.152344,59.0796094 C635.234375,59.9363802 633.352539,60.3647656 630.506836,60.3647656 C627.661133,60.3647656 625.825195,59.6762891 624.999023,58.2993359 C624.172852,56.9223828 623.759766,54.7957552 623.759766,51.9194531 L623.759766,51.9194531 L623.759766,36.6811719 L636.152344,36.6811719 L636.152344,25.4360547 L623.759766,25.4360547 L623.759766,11.8960156 L609.668945,11.8960156 L609.668945,25.4360547 L600.626953,25.4360547 L600.626953,36.6811719 L609.668945,36.6811719 L609.668945,58.4370313 C609.668945,63.1798698 611.183594,66.668151 614.212891,68.901875 C617.211589,71.135599 620.97526,72.2524609 625.503906,72.2524609 Z M667.271484,72.2524609 C670.943359,72.221862 674.508138,71.4109896 677.96582,69.8198438 C681.423503,68.2286979 684.284505,66.0255729 686.548828,63.2104688 L686.548828,63.2104688 L676.680664,55.9585156 C673.987956,59.6609896 670.62207,61.5122266 666.583008,61.5122266 C663.890299,61.5122266 661.595378,60.7166536 659.698242,59.1255078 C657.801107,57.534362 656.561849,55.3924349 655.980469,52.6997266 L655.980469,52.6997266 L688.706055,52.6997266 L688.706055,48.2475781 C688.706055,40.9038281 686.77832,35.0747266 682.922852,30.7602734 C679.067383,26.4458203 673.697266,24.2885938 666.8125,24.2885938 C659.927734,24.2885938 654.052734,26.4917188 649.1875,30.8979688 C644.322266,35.3042188 641.889648,41.0874219 641.889648,48.2475781 C641.889648,55.4077344 644.306966,61.1909375 649.141602,65.5971875 C653.976237,70.0034375 660.019531,72.221862 667.271484,72.2524609 Z M674.615234,43.1069531 L655.980469,43.1069531 C656.133464,40.7202344 657.097331,38.6701042 658.87207,36.9565625 C660.64681,35.3042188 662.895833,34.4780469 665.619141,34.4780469 C668.342448,34.4780469 670.530273,35.3195182 672.182617,37.0024609 C673.834961,38.6854036 674.645833,40.7202344 674.615234,43.1069531 L674.615234,43.1069531 Z M711.333984,71.105 L711.333984,52.01125 C711.333984,49.4409375 711.45638,47.3449089 711.701172,45.7231641 C712.34375,41.6535026 714.225586,38.9454948 717.34668,37.5991406 C720.467773,36.2833854 724.476237,36.2986849 729.37207,37.6450391 L729.37207,37.6450391 L729.37207,24.7475781 C728.331706,24.4415885 726.771159,24.2885938 724.69043,24.2885938 C718.968424,24.2885938 714.577474,27.1036979 711.517578,32.7339063 L711.517578,32.7339063 L711.333984,32.7339063 L711.333984,25.4360547 L697.243164,25.4360547 L697.243164,71.105 L711.333984,71.105 Z" id="path-3"></path>
    </defs>
    <g id="Page-1" stroke="none" stroke-width="1" fill="none" fill-rule="evenodd">
        <g id="twitter-share">
            <g id="Path-2" opacity="0.3" transform="translate(0.000000, 142.000000)" fill="#000000">
                <g id="path-1-link" fill-rule="nonzero">
                    <path d="M16.4341653,73.163594 C16.4341653,73.163594 16.4341653,73.163594 16.4341653,73.163594 C36.0405998,85.687031 69.1687132,85.687031 115.818506,73.163594 L150.298787,45.105 L996.01642,49.580586 C1024.19803,47.263529 1042.87485,45.771667 1052.04688,45.105 C1061.21891,44.438333 1064.14112,34.938333 1060.81352,16.605 C1057.9745,11.271667 1049.89054,8.605 1036.56165,8.605 C1023.23276,8.605 744.722357,5.771667 201.030436,0.105 L54.6877142,6.105 L30.0459333,9.721427 C11.1246204,12.498354 -1.9630229,30.088229 0.8138689,49.009547 C2.2719894,58.944958 7.9713789,67.758063 16.4341653,73.163594 Z" id="path-1"></path>
                </g>
                <g id="path-1-link" fill-opacity="0.29">
                    <path d="M16.4341653,73.163594 C16.4341653,73.163594 16.4341653,73.163594 16.4341653,73.163594 C36.0405998,85.687031 69.1687132,85.687031 115.818506,73.163594 L150.298787,45.105 L996.01642,49.580586 C1024.19803,47.263529 1042.87485,45.771667 1052.04688,45.105 C1061.21891,44.438333 1064.14112,34.938333 1060.81352,16.605 C1057.9745,11.271667 1049.89054,8.605 1036.56165,8.605 C1023.23276,8.605 744.722357,5.771667 201.030436,0.105 L54.6877142,6.105 L30.0459333,9.721427 C11.1246204,12.498354 -1.9630229,30.088229 0.8138689,49.009547 C2.2719894,58.944958 7.9713789,67.758063 16.4341653,73.163594 Z" id="path-1"></path>
                </g>
            </g>
            <rect id="Rectangle" fill="#F9F9F9" fill-rule="nonzero" x="104" y="0" width="938" height="172"></rect>
            <path d="M263.05,54.6912009 C259.287944,56.3386184 255.306259,57.4300447 251.23,57.9312009 C255.51675,55.3800622 258.718957,51.345282 260.23,46.5912009 C256.215811,48.9917533 251.818222,50.6831335 247.23,51.5912009 C241.475408,45.4530348 232.556854,43.4497591 224.73,46.5372757 C216.903145,49.6247923 211.754167,57.1773903 211.74,65.5912009 C211.720918,67.1638791 211.878573,68.7337234 212.21,70.2712009 C195.708776,69.4631301 180.332564,61.6659213 169.93,48.8312009 C164.447565,58.1989281 167.208569,70.2158717 176.23,76.2512009 C172.993597,76.1521048 169.828261,75.2776078 167,73.7012009 L167,73.9312009 C167.0151,83.6962137 173.877718,92.1116878 183.44,94.0912009 C181.685056,94.5569815 179.875646,94.7856802 178.06,94.7712009 C176.757934,94.7919389 175.457336,94.674617 174.18,94.4212009 C176.897378,102.764705 184.577925,108.490058 193.35,108.711201 C186.087233,114.390949 177.129936,117.471781 167.91,117.461201 C166.268988,117.474634 164.628846,117.381102 163,117.181201 C172.383371,123.227619 183.317313,126.426526 194.48,126.391775 C232.24,126.391775 252.88,95.1112009 252.88,68.0012009 C252.88,67.0912009 252.88,66.2212009 252.8,65.3512009 C256.838083,62.4525915 260.311914,58.8398073 263.05,54.6912009 Z" id="Path" fill="#2A769D" fill-rule="nonzero"></path>
            <g id="illust-bear" transform="translate(9.000000, 24.105000)" fill-rule="nonzero">
                <polygon id="Path" fill="url(#radialGradient-1)" points="40.2787162 112.73751 47.3213682 109 70 141.858035 44.5358953 144 36 134.266445"></polygon>
                <path d="M66,78.2075055 C66.3566328,77.2679912 66,68 66,68 L115.1571,68 L119,76.5403974 C119,76.5403974 115.1571,84 114.305548,84 C113.453996,84 66,78.2075055 66,78.2075055 Z" id="Path" fill="url(#radialGradient-2)"></path>
                <path d="M58.0715016,27 C52.1662746,24.4050236 50.904964,2.70813792 66.6211809,6.42760405 C66.6211809,6.42760405 77.22049,9.59924182 71.0931004,16.5191788 C67.3501128,20.7039288 62.9514452,24.2443273 58.0715016,27 L58.0715016,27 Z" id="Path" fill="#8B594C"></path>
                <path d="M67.0619934,73.6828816 C56.9296729,82.3759408 28.2841556,123.142888 52.4352651,140.237293 C76.5863745,157.331698 109.241396,176.891081 125.221513,158.739215 C146.673082,134.373854 143.01821,101.69466 133.24052,87.5028037 C123.462831,73.310947 123.354271,71.458567 120.770529,70 C102.503403,82.6968255 73.966446,78.3575888 67.0619934,73.6828816 Z" id="Path" fill="#BD816A"></path>
                <path d="M65,75 C55.5980364,75 22.0908844,75.2520205 15.7698719,83.064657 C9.44885944,90.8772935 10.8880831,101.462156 21.5195343,103.751942 C29.0917312,105.379275 47.7437806,98.5171159 48.7346029,97.192208 C52.589408,89.8620108 64.8770512,75 65,75 Z" id="Path" fill="#A86E5D"></path>
                <path d="M106.283536,87.0902024 C101.766548,90.3971951 99.8945111,96.2646229 101.654303,101.599371 C103.415741,106.565155 108.030417,109.868353 112.535914,112.585617 C117.194262,115.383448 125.506502,119.22131 125.506502,125.673898 C125.506502,133.532726 126.663811,154.194193 142.574982,149.243058 C149.635292,147.045809 156.608257,142.87836 158.44976,135.173339 C160.393165,127.014221 156.826617,117.888312 153.398364,110.600769 C149.300473,101.906986 143.07721,92.7224846 135.245362,86.98034 C128.25784,81.8387768 114.013483,81.4725686 106.283536,87.0902024 Z" id="Path" fill="#A86E5D"></path>
                <path d="M43.8738794,110.907986 C37.469836,111.783354 31.4416506,117.672195 30.3646726,118.967162 C29.2876947,120.262128 30.3646726,121.983927 30.3646726,121.983927 C30.3646726,121.983927 25.8399196,105.171069 15.07014,106.031968 C4.30036045,106.892867 1.94401941,113.780062 1.08388265,122.403525 C0.223745893,131.026987 5.8110208,168.55207 25.6230784,162.301507 C45.1387864,156.152226 40.3465959,148.556055 48.6732979,146.132515 L57,143.694506 C57,143.694506 49.049156,143.260439 44.3003337,131.750432 C39.5515115,120.240425 43.8738794,110.907986 43.8738794,110.907986 Z" id="Path" fill="#A86E5D"></path>
                <path d="M16.2405058,161.268595 C23.6698853,165.615336 21.9226597,149.293326 21.570278,146.315808 C20.5204744,137.267344 18.7732488,122.408736 12.3055775,115.330794 C6.78493186,109.288825 1,116.265343 1,121.850904 C1,121.887127 2.07182748,153.031522 16.2405058,161.268595 Z" id="Path" fill="#774030"></path>
                <path d="M134,45.6714245 C134,66.9369894 114.518898,78 90.5073072,78 C66.4957164,78 47,66.9152972 47,45.6497324 C47,24.3841675 66.4664875,1 90.5073072,1 C114.548127,1 134,24.398629 134,45.6714245 Z" id="Path" fill="#BD816A"></path>
                <ellipse id="Oval" fill="#774030" cx="75.5" cy="48" rx="6.5" ry="4"></ellipse>
                <path d="M74.8073506,52 C74.364257,54.1491876 74.0817046,56.3057607 73.8055738,58.4623338 C73.529443,60.6189069 73.311107,62.7828656 73.1634091,64.9468242 C72.9839794,67.1017512 72.9260634,69.2677795 72.9900247,71.4313146 C73.0256953,72.4976759 73.1569642,73.5569559 73.3817451,74.5923191 C73.5440633,75.6521154 74.1491299,76.552349 75,77 C74.5102042,76.933214 74.0560041,76.6720266 73.7156707,76.2614476 C73.3727309,75.8274615 73.0988478,75.3274734 72.9065433,74.7843427 C72.5390046,73.7357974 72.2949623,72.6354612 72.1808972,71.5125554 C71.9608713,69.3052262 71.9415017,67.0775318 72.1231024,64.8655835 C72.2946459,62.6592335 72.5928324,60.4683407 73.0157113,58.3072378 C73.3950156,56.131058 73.9963911,54.013992 74.8073506,52 Z" id="Path" fill="#774030"></path>
                <path d="M93,0 C89.7481799,3.95151855 86.9199094,8.2319084 84.5614407,12.7711702 C83.380001,15.0253571 82.3229849,17.342327 81.3951271,19.7117018 C80.4737963,22.0991721 79.6743939,24.5317288 79,27 C79.2012356,24.4186846 79.6988449,21.8689628 80.4830508,19.4009318 C81.2614519,16.9224811 82.2538734,14.5160896 83.4491525,12.2088243 C84.6566674,9.9058101 86.055639,7.7079168 87.6313559,5.63825706 C89.2008119,3.56174566 91.0019434,1.67016142 93,0 L93,0 Z" id="Path" fill="#774030"></path>
                <path d="M80,10.4749655 C80.7820515,9.74477201 81.7378773,9.28595587 82.75,9.15490879 C83.7394094,8.97334674 84.7469853,8.9512579 85.742,9.0893159 C86.749735,9.20489097 87.7375102,9.4809891 88.6753333,9.90922692 C89.1467166,10.1193645 89.5926462,10.394821 90.0026667,10.7291379 C90.4256594,11.0519298 90.7687458,11.4891112 91,12 C90.1982629,11.4481825 89.3097023,11.0725026 88.382,10.8931201 C87.48,10.6717442 86.556,10.5241602 85.632,10.4011735 C84.7046311,10.2744074 83.7720903,10.2005197 82.838,10.1797976 C81.8844209,10.1345408 80.9297512,10.2338318 80,10.4749655 L80,10.4749655 Z" id="Path" fill="#774030"></path>
                <path d="M80,13.0602386 C80.546376,12.5506495 81.2523055,12.2210731 82.0129032,12.1204772 C82.7418304,11.9881443 83.4882416,11.9646544 84.2248848,12.0508652 C84.9611748,12.1240559 85.6804504,12.3073362 86.3557604,12.5938385 C86.6982394,12.7416745 87.0201635,12.9287099 87.3142857,13.1507341 C87.6189432,13.3710648 87.8556848,13.6642723 88,14 C87.3891853,13.7179635 86.73453,13.529958 86.0608295,13.4431043 C85.4046083,13.3386864 84.7483871,13.2551521 84.0847926,13.1785789 C83.4211982,13.1020058 82.7502304,13.0254326 82.0571429,13.0254326 C81.3721994,12.9645697 80.6821937,12.9762443 80,13.0602386 L80,13.0602386 Z" id="Path" fill="#774030"></path>
                <path d="M113,15.5932873 C113.309334,13.2935697 114.473018,10.8514548 116.734102,9.76211487 C122.125349,7.1420032 130.926634,11.6987191 132.635335,17.0243809 C134.182005,21.8730115 130.779332,27.8821806 122.987065,29 C122.987065,29 115.408385,21.3746207 113,15.5932873 Z" id="Path" fill="#A86E5D"></path>
                <path d="M130,19 C129.188379,18.1915214 128.291103,17.4718543 127.323689,16.8534459 C126.400119,16.2456499 125.397655,15.7642707 124.34358,15.4224099 C123.318158,15.0898856 122.228812,14.9968214 121.16094,15.150513 C120.04131,15.3507891 118.969306,15.7560336 118,16.3454281 C118.731028,15.3578694 119.762821,14.6281149 120.943942,14.2632707 C122.167928,13.8981489 123.47567,13.9131329 124.690778,14.3062018 C125.883017,14.6767396 126.980766,15.2965553 127.909584,16.1236175 C128.826971,16.9049978 129.543467,17.8908865 130,19 L130,19 Z" id="Path" fill="#774030"></path>
                <path d="M120.091549,21.1636114 C121.001131,21.9847185 121.968439,22.7385436 122.985915,23.4191965 C123.214066,23.5481343 123.449172,23.6641671 123.690141,23.7667552 C123.881012,23.8423192 124.083689,23.8831468 124.288732,23.8873368 C124.612769,23.8915411 124.918167,23.7350898 125.105634,23.4688477 C125.435785,23.0879761 125.704332,22.6571173 125.901408,22.1921015 C126.147887,21.6743099 126.34507,21.1210532 126.56338,20.5465174 C126.978873,19.3974458 127.359155,18.1916298 127.887324,17 L128,17 C127.895017,18.2685383 127.709188,19.5289682 127.443662,20.7734945 C127.232631,22.0465555 126.717889,23.2489795 125.943662,24.2774537 C125.504291,24.7982523 124.836129,25.0642524 124.161972,24.9867572 C123.523827,24.8695562 122.928251,24.5830875 122.43662,24.1568721 C121.467233,23.3275023 120.643499,22.3395668 120,21.2345418 L120.091549,21.1636114 Z" id="Path" fill="#774030"></path>
                <circle id="Oval" fill="#774030" cx="99" cy="36" r="1"></circle>
                <circle id="Oval" fill="#774030" cx="106" cy="38" r="1"></circle>
                <circle id="Oval" fill="#774030" cx="98" cy="41" r="1"></circle>
                <circle id="Oval" fill="#774030" cx="102" cy="43" r="1"></circle>
                <path d="M101.500211,46 C97.841314,46 94.7164812,43.3596707 94.1058668,39.7520479 C93.4952524,36.1444251 95.5771235,32.6227761 99.0322335,31.4187105 C102.487343,30.2146449 106.306983,31.6796861 108.070711,34.8854623 C109.834439,38.0912384 109.02734,42.1018324 106.160859,44.3757986 L106.160859,44.3757986 C104.836428,45.4300269 103.192986,46.0027471 101.500211,46 L101.500211,46 Z M101.500211,32.1450052 C98.5369842,32.1497546 95.9702672,34.2017062 95.3131879,37.0911962 C94.6561085,39.9806862 96.083059,42.9408289 98.7528255,44.2265651 C101.422592,45.5123014 104.626605,44.7823899 106.476038,42.4671272 C108.325471,40.1518645 108.329477,36.8657333 106.485692,34.5459693 C105.278761,33.0172441 103.433765,32.1312204 101.486088,32.1450052 L101.500211,32.1450052 Z" id="Shape" fill="#774030"></path>
                <path d="M99.034242,36.0522354 C99.2575447,35.9825882 99.4957792,35.9825882 99.719082,36.0522354 C99.9256825,36.1012099 100.127435,36.1698976 100.321741,36.2574138 C100.668014,36.4204313 100.99069,36.6323516 101.280517,36.8870992 C101.817181,37.3637317 102.247143,37.9551879 102.540623,38.6205028 C102.835304,39.2871694 102.991605,40.0101938 102.999465,40.7430378 C103.012544,41.546595 102.785347,42.3347557 102.348867,43 L102.177657,43 C102.057143,42.3686985 101.901657,41.7450629 101.711966,41.1321692 C101.523919,40.5221953 101.295088,39.9264519 101.027126,39.3492398 C100.776452,38.7594318 100.488186,38.1874503 100.164228,37.6370615 C100.000264,37.3676165 99.8219306,37.1077949 99.6300528,36.8587987 C99.4721245,36.6033024 99.2557394,36.3919032 99,36.2432635 L99.034242,36.0522354 Z" id="Path" fill="#8B594C"></path>
                <path d="M105.923922,38.6163928 C105.494203,38.7371856 105.076414,38.9009625 104.676247,39.1054924 C104.311074,39.273871 103.991547,39.4502676 103.67202,39.6186461 C103.032967,39.9473852 102.424345,40.2600883 101.785292,40.5487372 C101.113685,40.851882 100.428131,41.119483 99.7311919,41.3505399 C98.8882201,41.6636855 98.0160226,41.8813981 97.1293322,42 L97,41.8636935 C97.5637836,41.2043108 98.1881311,40.6053824 98.8639053,40.0756736 C99.5422346,39.547302 100.271542,39.0957957 101.03973,38.7286452 C101.822952,38.3749724 102.650647,38.1427117 103.497041,38.0390949 C103.921641,37.9869684 104.350548,37.9869684 104.775148,38.0390949 C105.201562,38.0961793 105.615711,38.2290217 106,38.4319782 L105.923922,38.6163928 Z" id="Path" fill="#8B594C"></path>
                <circle id="Oval" fill="#774030" transform="translate(59.017261, 33.391602) rotate(-89.070000) translate(-59.017261, -33.391602) " cx="59.0172605" cy="33.3916015" r="1"></circle>
                <circle id="Oval" fill="#774030" transform="translate(63.926376, 29.866025) rotate(-89.070000) translate(-63.926376, -29.866025) " cx="63.9263757" cy="29.8660252" r="1"></circle>
                <circle id="Oval" fill="#774030" transform="translate(62.844363, 37.827055) rotate(-88.854237) translate(-62.844363, -37.827055) " cx="62.8443635" cy="37.8270554" r="1"></circle>
                <circle id="Oval" fill="#774030" transform="translate(64.716883, 34.878370) rotate(-89.070000) translate(-64.716883, -34.878370) " cx="64.7168825" cy="34.8783698" r="1"></circle>
                <path d="M61.9784722,40 L61.892361,40 C58.5842551,39.9398173 55.9435111,36.7576572 56.0009185,32.8984417 C56.058326,29.0392262 58.7564775,26 62.0215278,26 L62.107639,26 C65.4157449,26.0526599 68.0564889,29.2423428 67.9990815,33.1015583 C67.941674,36.9607738 65.2435225,40 61.9784722,40 Z M62.0215278,27.2111768 C59.3951357,27.2111768 57.2280034,29.7463729 57.1777718,32.8984417 C57.1275403,36.0505105 59.251617,38.706072 61.9138888,38.751209 L61.9784722,38.751209 C64.6048643,38.751209 66.7719966,36.2160129 66.8222282,33.0639441 C66.8724597,29.9118753 64.748383,27.2563138 62.0861112,27.2111768 L62.0215278,27.2111768 Z" id="Shape" fill="#774030"></path>
                <path d="M59,33.5362593 C59.4937957,33.2182814 60.0844652,33.0370579 60.6962963,33.0158182 C61.2444521,32.9723455 61.7970337,33.0186697 62.3259259,33.152434 C62.856814,33.2782779 63.3583061,33.4852812 63.8074074,33.7639523 C64.3018964,34.055232 64.7106243,34.4454091 65,34.9024173 L64.9555556,35 C63.9777778,34.7137574 63.0148148,34.3949872 61.9925926,34.1737997 C61.5037037,34.0501949 61.0074074,33.9396012 60.5111111,33.848524 C60.0219813,33.756952 59.5273726,33.689622 59.0296296,33.6468531 L59,33.5362593 Z" id="Path" fill="#8B594C"></path>
                <path d="M64,30.1160976 C63.6299752,30.6593888 63.3179691,31.2283783 63.0675355,31.8165854 C62.8612381,32.3492683 62.6962001,32.8546341 62.539414,33.3873171 C62.382628,33.92 62.2588495,34.48 62.0773077,35.0741463 C61.920674,35.7298408 61.6998963,36.3739129 61.4171559,37 L61.2851255,37 C61.1171677,36.3623681 61.0232192,35.7129122 61.004561,35.0604878 C60.9799798,34.4042853 61.0548297,33.7481191 61.2273622,33.1073171 C61.4105208,32.4641172 61.7319598,31.8534212 62.1763305,31.3043902 C62.6142847,30.7473317 63.22388,30.2970529 63.9422367,30 L64,30.1160976 Z" id="Path" fill="#8B594C"></path>
                <path d="M84.3925254,148.905072 C79.7422624,138.959292 72.1626999,136.545764 71.694012,136.720763 C96.864018,127.161439 99.0976089,122.983337 105.505452,124.20833 C113.070368,125.666656 118.313814,127.394771 120.349677,136.669721 C122.38554,145.944671 119.763817,165.063318 110.748898,165.931021 C101.733978,166.798725 91.21047,174.907015 84.3852021,181.863227 C77.5599343,188.819439 52.7634139,178.545537 50.2149233,154.628999 C49.5778007,148.620698 50.0757816,141.183239 55.6341274,137.493675 C65.5571295,130.916627 79.2442815,140.29366 84.3925254,148.905072 Z" id="Path" fill="#A86E5D"></path>
                <path d="M51,154.723607 C52.0003213,147.248422 54.4903296,137.851465 63.8962281,143.974832 C73.3021266,150.098199 81.6285417,186.180761 71.0927839,181.599197 C50.3235237,172.58221 51.0071966,154.723607 51.0071966,154.723607" id="Path" fill="#774030"></path>
                <g id="Group" opacity="0.1" style="mix-blend-mode: multiply;" fill="#3E62AD">
                    <path d="M153.716364,110.574545 C149.621818,101.941818 143.403636,92.8218182 135.578182,87.12 C134.122418,86.098494 132.528112,85.2903207 130.843636,84.72 C123.221818,73.52 122.930909,71.84 120.545455,70.5163636 C102.189091,83.1854545 73.5127273,78.8581818 66.5745455,74.1963636 C66.2327273,74.4872727 65.8472727,74.8145455 65.4909091,75.1781818 C65.4909091,75.1418182 65.5418182,75.12 65.5490909,75.12 C56.0945455,75.12 22.4,75.3745455 16.0436364,83.2654545 C9.68727273,91.1563636 11.1345455,101.847273 21.8254545,104.16 C29.44,105.803636 48.1963636,98.8727273 49.1927273,97.5345455 C49.8472727,96.2909091 50.7418182,94.8218182 51.7818182,93.2509091 C42.5890909,108.945455 36.2909091,129.614545 51.8763636,140.567273 L52.9018182,141.294545 C52.7636364,141.534545 52.6254545,141.774545 52.4945455,142.021818 C49.9054545,140.472727 46.6763636,137.469091 44.2981818,131.687273 C39.4909091,120.116364 43.8690909,110.727273 43.8690909,110.727273 C37.4254545,111.607273 31.36,117.527273 30.2763636,118.829091 C29.9208892,119.254481 29.7506327,119.80454 29.8036364,120.356364 C28.3490909,116.232727 23.7309091,105.12 14.8872727,105.810909 C4.95272727,106.603636 2.13818182,112.487273 1.06909091,120.138182 C0.902888095,120.836388 0.817479241,121.551382 0.814545455,122.269091 C0.0872727273,129.338182 3.72363636,155.76 15.9127273,161.825455 L15.9127273,161.825455 C16.3933905,162.123389 16.9189105,162.341946 17.4690909,162.472727 C20.0907172,163.306949 22.9114335,163.273794 25.5127273,162.378182 C45.1127273,156.196364 40.32,148.56 48.6981818,146.123636 L51.3236364,145.352727 C50.6926675,148.417267 50.5698171,151.564694 50.96,154.669091 L50.96,154.669091 C50.96,154.669091 50.64,163.2 57.4109091,171.396364 C65.8836364,182.88 80.0218182,186.8 84.8945455,181.803636 C91.2,175.345455 100.683636,167.890909 109.192727,166.196364 C115.330909,165.927273 120.756364,163.774545 125.018182,158.981818 C128.011183,155.608411 130.634603,151.924407 132.843636,147.992727 C135.265455,149.701818 138.523636,150.276364 142.901818,148.923636 C149.956364,146.741818 156.923636,142.603636 158.763636,134.952727 C160.705455,126.901818 157.141818,117.810909 153.716364,110.574545 Z" id="Path"></path>
                    <path d="M75.2290909,76.4509091 L75.3236364,76.4509091 L75.3236364,76.4509091 C80.3906499,77.6241692 85.5771841,78.2026203 90.7781818,78.1745455 C114.690909,78.1745455 134.08,67.0254545 134.08,45.6363636 C133.970083,38.8066365 132.237574,32.100956 129.025455,26.0727273 C131.903467,23.8345692 133.144552,20.0797126 132.167273,16.5672727 C130.48,11.1272727 121.789091,6.47272727 116.465455,9.14909091 C116.143457,9.31450782 115.838897,9.51186288 115.556364,9.73818182 C109.069091,4.64727273 101.28,1.25090909 92.8509091,0.770909091 L92.8872727,0.705454545 L92.8218182,0.770909091 C92.1454545,0.770909091 91.4618182,0.705454545 90.7781818,0.705454545 C83.0523,0.783553654 75.5210872,3.1387969 69.1272727,7.47636364 C68.4507904,7.14199569 67.7507378,6.85759929 67.0327273,6.62545455 C55.2727273,3.86181818 52.88,14.9890909 54.8218182,22.1018182 C50.1818182,29.3745455 47.4763362,37.6436364 47.4763362,45.6363636 C47.4618182,62.1745455 58.9890909,72.5454545 75.2290909,76.4509091 Z" id="Path"></path>
                </g>
            </g>
            <g id="Share-on-Twitter" transform="translate(303.000000, 45.000000)" fill-rule="nonzero">
                <g id="ShareonTwitter">
                    <use fill="#000000" xlink:href="#path-3"></use>
                    <use fill="#2A769D" xlink:href="#path-3"></use>
                </g>
            </g>
        </g>
    </g>
</svg>