<svg width="492" height="169" viewBox="0 0 492 169" fill="none" xmlns="http://www.w3.org/2000/svg">
<path opacity="0.4" d="M457.008 95.8454C457.008 95.8454 446.462 72.6966 457.807 52.3652C463.479 42.1995 474.253 34.3716 485.185 30.8037C485.185 30.8037 445.705 47.7606 457.008 95.8454Z" fill="white"/>
<path d="M7.83415 22.1985L6.8954 57.2874C10.1363 60.7364 9.55468 59.0508 9.43486 65.1085C4.06585 69.4995 5.22243 68.0594 3.62882 71.6888C4.339 118.536 1.10891 110.741 7.39484 117.025C12.9951 118.834 12.7762 117.601 9.83023 122.056C7.35497 153.036 5.42601 147.675 16.2242 154.412C4.33462 160.133 6.12981 157.272 9.49867 168.788C176.446 138.445 372.177 139.119 482.863 149.267C479.506 105.622 477.226 100.12 477.226 100.12C472.978 97.4844 472.834 98.2658 477.254 96.2384C475.524 77.6775 475.197 82.8117 478.769 71.9688C478.769 71.9688 474.57 52.1031 472.682 52.484C470.795 52.8648 480.101 52.052 480.101 52.052C478.522 42.1774 482.655 41.7128 487.201 38.439L481.623 0.154514L7.83415 22.1985Z" fill="#DE993E"/>
<path d="M478.549 70.7095C478.549 70.7095 476.041 59.111 474.108 53.653C473.377 52.5743 473.008 51.956 472.449 50.8709C463.258 59.4298 458.577 63.7125 449.375 71.9558C449.344 75.749 449.241 77.6489 449.21 81.4421C458.055 86.8002 462.477 89.4792 471.501 94.9887C473.757 95.2205 474.972 95.3332 477.222 95.4072C476.641 89.1088 476.351 85.9597 475.77 79.6613C476.671 75.9936 477.297 74.2323 478.549 70.7095Z" fill="#BC905C"/>
<path d="M66.8424 144.054C63.6521 141.961 62.0569 140.915 58.8667 138.822C50.2886 135.982 45.9132 134.565 37.3352 131.725C27.9664 126.228 23.1928 123.404 13.8123 117.592C12.1445 119.234 11.3107 120.055 9.81557 121.691C9.00719 132.465 8.52256 138.014 7.71417 148.788C11.083 151.032 12.8508 152.072 16.2196 154.317C35.8205 151.373 45.4541 150.066 65.2394 147.432C65.7044 145.993 66.0262 145.349 66.8424 144.054Z" fill="#BC905C"/>
<path d="M480.524 3.16925C481.369 16.5678 481.789 23.1882 482.635 36.5868C482.635 36.5868 479.943 38.5833 478.585 39.2659C477.227 39.9486 478.403 48.2788 478.403 48.2788C425.979 51.9724 373.37 55.3569 320.929 58.5772C370.983 56.236 426.679 56.8443 471.072 51.0803C472.793 50.8581 473.713 70.8899 473.713 70.8899C472.634 74.4062 472.181 76.1612 471.28 79.8288C464.564 80.5533 461.123 80.9977 454.407 81.7222C461.325 81.7802 464.784 81.8091 471.708 82.0249C471.557 87.2445 471.484 89.9333 471.333 95.153C470.666 95.8098 470.338 96.2961 469.499 96.9594C439.95 97.4297 410.581 98.0513 381.044 98.8371C412.503 98.6115 444.153 98.8529 475.642 99.4163C476.258 106.661 476.566 110.284 477.182 117.529C474.086 117.96 472.365 118.183 469.275 118.772C472.919 119.11 474.657 119.361 478.128 119.706C478.642 128.851 478.985 133.42 479.493 142.407C477.975 143.412 477.302 143.911 475.783 144.915C311.892 134.075 167.92 140.799 19.4899 163.201C16.537 162.837 14.9772 162.737 12.0302 162.531C11.5966 160.177 11.3828 159.079 10.9492 156.725C12.9916 155.859 14.0099 155.347 16.0524 154.481C19.1544 154.207 20.881 154.143 23.9889 154.027C40.3151 151.364 48.5674 150.108 65.0781 147.754C47.6747 149.351 38.8926 150.311 21.6737 152.217C18.1675 150.926 16.59 150.353 13.0839 149.062C12.3207 137.872 11.942 132.356 11.1788 121.167C12.1676 119.866 12.8289 119.051 13.8177 117.75C46.3386 113.535 78.8772 109.793 111.612 106.676C77.4724 109.213 43.5172 112.06 9.56795 115.065C8.14547 114.012 7.60394 113.4 6.17558 112.189C5.57128 105.26 5.26913 101.795 4.66483 94.8653C8.27303 94.2567 9.98786 93.8767 13.4234 93.2745C9.619 93.2584 7.8924 93.3229 4.08799 93.3068C3.91339 83.9912 3.91536 79.4091 3.74664 70.2513C4.22342 69.1275 4.5452 68.4835 5.02197 67.3597C46.6448 66.123 88.2617 64.7285 130.051 63.3276C90.471 63.6981 51.0574 63.9044 11.4653 63.9593C11.3712 61.4348 11.3241 60.1725 11.2299 57.648C13.4509 56.9332 14.4751 56.5789 16.702 56.0219C14.4457 55.79 13.2312 55.6773 11.1475 55.4391C11.2005 42.955 11.3104 36.6308 11.3634 24.1467C68.0017 22.1919 475.677 3.03403 480.524 3.16925Z" fill="#FFD261"/>
<mask id="mask0" mask-type="alpha" maskUnits="userSpaceOnUse" x="1" y="4" width="486" height="162">
<path d="M480.582 4.74689C481.428 18.1455 481.848 24.7659 482.693 38.1645C482.693 38.1645 480.001 40.1609 478.644 40.8435C477.286 41.5262 478.461 49.8564 478.461 49.8564C426.037 53.5501 373.429 56.9346 320.987 60.1548C371.041 57.8136 426.738 58.422 471.131 52.6579C472.852 52.4357 473.772 72.4676 473.772 72.4676C472.693 75.9839 472.239 77.7388 471.339 81.4064C464.623 82.131 461.181 82.5753 454.465 83.2999C461.383 83.3578 464.843 83.3868 471.767 83.6025C471.615 88.8222 471.543 91.5109 471.392 96.7306C470.725 97.3875 470.397 97.8737 469.557 98.537C440.009 99.0073 410.639 99.6289 381.102 100.415C412.562 100.189 444.212 100.431 475.7 100.994C476.317 108.239 476.625 111.862 477.241 119.107C474.145 119.538 472.424 119.76 469.334 120.35C472.977 120.688 474.715 120.939 478.186 121.283C478.7 130.428 479.044 134.998 479.552 143.985C478.033 144.989 477.36 145.488 475.842 146.493C312.8 133.608 168.932 140.789 19.5485 164.779C16.5956 164.415 15.0358 164.315 12.0888 164.109C11.6552 161.755 11.4414 160.657 11.0077 158.303C13.0502 157.437 14.0685 156.925 16.111 156.059C19.213 155.785 20.9396 155.721 24.0475 155.605C40.3737 152.942 48.626 151.686 65.1367 149.332C47.7333 150.929 38.9512 151.889 21.7323 153.795C18.2261 152.504 16.6486 151.931 13.1425 150.639C12.3793 139.45 12.0006 133.934 11.2374 122.744C12.2262 121.443 12.8875 120.629 13.8763 119.328C46.3972 115.112 78.9358 111.371 111.671 108.254C77.531 110.791 43.5758 113.638 9.62654 116.642C8.20406 115.589 7.66254 114.977 6.23417 113.767C5.62987 106.837 5.32772 103.372 4.72343 96.4429C8.33163 95.8343 10.0465 95.4543 13.482 94.8522C9.67759 94.8361 7.95099 94.9005 4.14659 94.8844C3.97198 85.5688 3.97395 80.9867 3.80523 71.8289C4.28201 70.7051 4.60379 70.0611 5.08057 68.9373C46.7034 67.7006 88.3203 66.3062 130.11 64.9053C90.5296 65.2757 51.116 65.482 11.5239 65.5369C11.4298 63.0124 11.3827 61.7502 11.2885 59.2256C13.5095 58.5108 14.5337 58.1566 16.7606 57.5995C14.5043 57.3677 13.2898 57.255 11.2061 57.0167C11.2591 44.5326 11.369 38.2084 11.422 25.7243C68.0603 23.7695 475.736 4.61167 480.582 4.74689Z" fill="url(#paint0_linear)"/>
</mask>
<g mask="url(#mask0)">
<g opacity="0.1">
<path d="M-5.9666 148.192C48.904 131.293 106.337 122.831 164.912 117.169C238.722 112.046 313.917 111.611 387.253 116.933C386.586 117.59 386.252 117.919 385.591 118.733C268.263 116 130.708 117.971 21.2509 154.761C21.2509 154.761 -8.5781 156.98 -5.9666 148.192Z" fill="#C17C2B"/>
<path d="M152.325 159.825C217.901 142.527 289.154 129.125 358.634 128.429C388.552 128.577 418.302 128.889 448.058 129.359C392.576 129.849 333.087 129.54 278.648 139.471C262.053 144.198 251.34 149.022 251.34 149.022C218.266 152.309 185.435 157.484 152.325 159.825Z" fill="#C17C2B"/>
<path d="M313.34 151.765C313.34 151.765 357.08 142.391 384.194 141.538C419.756 140.053 455.318 138.568 491.07 137.551C492.573 145.395 493.411 149.314 494.914 157.158C434.611 153.561 373.644 155.361 313.34 151.765Z" fill="#C17C2B"/>
<path d="M207.667 72.1241C180.428 74.2462 158.111 78.5547 157.884 81.7232C157.656 84.8918 179.637 85.4938 206.876 83.3717C233.77 81.2624 255.747 77.1246 255.974 73.9561C256.208 70.9453 234.566 70.1726 207.667 72.1241ZM224.686 78.7573C213.308 79.6557 203.966 79.5302 204.092 78.2615C204.223 77.1506 213.494 75.3827 225.045 74.4778C236.423 73.5794 245.597 73.8692 245.466 74.9801C245.34 76.2488 236.064 77.8588 224.686 78.7573Z" fill="#C17C2B"/>
<path d="M490.851 66.7743C452.628 66.4621 414.256 66.7875 376.171 65.5222C328.007 62.8949 279.331 60.4447 230.956 61.4592C189.893 63.781 147.148 72.0117 109.021 83.546C92.1397 89.8638 95.0415 98.1296 123.215 97.8687C170.72 96.7286 220.887 92.8031 266.883 83.6612C268.253 83.2941 292.92 81.742 301.792 78.5669C310.492 75.3984 322.639 71.9432 326.247 71.3346C355.784 70.5488 385.2 71.1895 414.468 72.4677C443.051 73.9295 488.669 73.1758 488.669 73.1758C489.783 70.6062 490.082 69.331 490.851 66.7743ZM309.893 68.6267C305.791 69.8857 291.448 70.1047 284.381 70.6844C277.314 71.264 281.402 74.2715 283.182 75.6271C284.956 76.825 278.942 77.8393 273.625 78.9857C268.308 80.132 258.853 81.5908 250.624 83.4777C245.825 84.6048 232.226 86.2181 211.173 87.3194C189.953 88.585 126.242 90.9617 133.8 84.9917C141.536 79.173 170.206 73.6795 199.411 68.64C230.884 64.1479 263.379 63.8837 295.231 64.9076C310.133 65.7737 314.002 67.5254 309.893 68.6267Z" fill="#C17C2B"/>
<path d="M516.73 125.533C472.223 118.978 427.084 114.025 381.706 111.926C345.52 110.59 328.178 109.183 328.178 109.183C373.997 109.212 419.703 110.825 465.368 111.333C479.704 110.957 517.55 115.075 525.283 118.42C533.366 121.911 516.73 125.533 516.73 125.533Z" fill="#C17C2B"/>
<path d="M39.5979 173.827C84.5778 160.615 131.367 149.547 178.636 142.096C216.29 136.425 233.807 133.244 233.807 133.244C185.413 138.367 137.614 145.522 89.6419 152.684C74.3222 154.519 35.2736 164.508 27.9964 168.729C20.9036 173.26 39.5979 173.827 39.5979 173.827Z" fill="#C17C2B"/>
<path d="M13.2026 124.409C46.5927 120.319 79.5904 114.98 113.183 111.673C166.744 106.041 220.134 100.415 273.909 95.8812C218.998 97.7716 163.943 100.457 109.298 104.866C76.8318 105.919 38.8642 107.809 13.2026 124.409Z" fill="#C17C2B"/>
<path d="M15.7337 108.83C15.7337 108.83 43.9185 94.9807 71.2969 87.3233C98.3299 79.6788 120.23 73.4898 123.856 73.3545C127.482 73.2193 60.4448 83.7781 43.9087 90.083C27.3726 96.3879 3.20211 106.612 3.20211 106.612C3.20211 106.612 9.37469 109.857 15.7337 108.83Z" fill="#C17C2B"/>
<path d="M489.585 32.8512C469.243 29.818 433.622 29.7248 431.038 29.9792C428.46 30.3914 352.187 29.7606 352.187 29.7606C297.762 35.4249 242.564 38.906 188.555 46.4508C168.983 50.1829 144.632 50.9333 105.69 49.858C64.8477 48.8535 23.8684 48.8022 -16.9558 48.271C-16.9558 48.271 -26.4659 52.8918 -20.8388 64.69C-15.2116 76.4882 -14.317 86.567 -3.64932 89.8031C25.7421 80.4906 55.6869 72.1054 86.3929 65.5879C116.122 60.6869 146.802 58.1204 177.19 56.9868C216.235 56.1623 255.423 54.5424 294.444 53.0868C340.234 52.3267 386.346 50.9225 432.052 52.5356C459.605 54.1938 502.847 54.6347 502.847 54.6347C504.187 53.4787 504.854 52.8218 506.367 51.6594C508.768 46.5137 509.877 43.7864 512.272 38.4829C512.1 38.4894 509.755 35.8908 489.585 32.8512ZM371.125 46.1183C328.235 45.8222 285.075 47.5902 242.238 48.7142C271.847 45.2397 301.445 41.4496 331.072 38.4483C351.065 36.7545 381.392 38.6252 410.446 38.8054C439.155 38.9985 495.98 46.6748 495.98 46.6748C454.31 46.6492 412.652 46.9392 371.125 46.1183Z" fill="#C17C2B"/>
<path d="M207.361 105.632C297.301 97.2207 396.304 86.1014 486.171 94.2831C484.319 95.6162 483.307 96.286 481.454 97.6191C441.815 96.4118 401.491 95.388 361.636 97.6647C310.225 100.689 258.76 102.292 207.361 105.632Z" fill="#C17C2B"/>
<path d="M319.804 88.6392C377.835 86.9484 436.967 86.9545 494.675 90.4899C498.045 88.1521 499.731 86.9832 503.274 84.639C503.274 84.639 462.903 82.353 441.517 83.7828C400.96 85.7697 360.367 86.81 319.804 88.6392Z" fill="#C17C2B"/>
</g>
<g opacity="0.1">
<path d="M474.001 78.621C474.001 78.621 473.248 58.4249 471.36 58.8113C470.676 58.9949 451.522 60.0254 427.016 61.2555C429.642 62.1056 435.726 62.9847 439.191 63.1714C445.948 63.5513 459.378 66.6844 459.508 70.1556C459.637 73.6268 455.907 80.244 455.387 84.8454C454.867 89.4469 450.722 94.1836 453.835 94.2254C456.777 94.2737 464.385 94.3059 455.876 97.9413C447.539 101.57 396.353 106.008 393.246 106.124C423.991 105.293 439.363 104.877 469.781 104.533C470.448 103.876 470.776 103.39 471.615 102.726C471.767 97.5066 471.839 94.8178 471.99 89.5981C465.072 89.5402 461.613 89.5112 454.689 89.2955C461.405 88.571 464.846 88.1266 471.563 87.4021C472.475 84.05 472.928 82.2951 474.001 78.621Z" fill="#D7A456"/>
<path d="M100.318 160.817C140.96 156.457 181.994 153.347 223.069 151.34C308.161 147.376 391.686 147.736 476.244 152.64C477.762 151.635 478.435 151.136 479.954 150.132C479.44 140.987 479.097 136.417 478.589 127.43C474.945 127.092 473.207 126.841 469.736 126.497C472.832 126.065 474.553 125.843 477.643 125.254C477.027 118.009 476.719 114.386 476.103 107.141C445.477 106.545 430.087 106.487 399.312 106.529C414.381 107.231 452.323 109.292 455.531 111.858C459.459 115.188 464.548 131.114 462.052 133.735C450.926 146 360.723 142.729 318.968 145.077C245.813 149.228 172.814 152.899 100.318 160.817Z" fill="#D7A456"/>
<path d="M468.541 11.042C455.115 12.6489 448.232 13.5377 434.8 14.9867C444.278 14.1592 451.53 13.8886 454.31 14.2589C465.955 15.8786 468.712 15.6177 466.995 20.5798C465.278 25.5419 463.667 33.3441 463.803 36.9731C463.938 40.602 464.199 42.9623 462.28 47.1419C461.798 48.108 461.815 48.5813 461.994 48.7326C461.13 48.7649 459.243 49.1513 454.634 50.7452C441.838 55.3306 443.17 58.5989 430.411 59.5489C449.725 58.1964 459.388 57.6779 478.697 56.1676C478.697 56.1676 477.521 47.8374 478.879 47.1548C480.237 46.4721 482.929 44.4757 482.929 44.4757C482.083 31.0771 481.663 24.4567 480.818 11.0581C475.971 10.9229 473.554 11.013 468.541 11.042Z" fill="#D7A456"/>
<path d="M68.1248 164.546C68.2916 164.382 68.2974 164.54 68.1248 164.546V164.546Z" fill="#D7A456"/>
</g>
<path d="M13.8062 117.434C12.0384 116.394 11.1515 115.795 9.55641 114.749C42.2912 111.632 75.0436 108.988 107.808 106.66C76.2816 109.732 44.9517 113.428 13.8062 117.434Z" fill="#BC905C"/>
<path d="M4.83752 67.0504C45.2517 65.8588 85.8327 64.503 126.241 63.1536C87.8693 63.479 49.4917 63.6466 11.1082 63.6564C10.4117 63.5244 9.88783 63.3859 9.19131 63.2539C7.51768 64.7384 6.68381 65.5595 4.83752 67.0504Z" fill="#FFD261"/>
</g>
<path d="M6.16402 111.873C7.59239 113.084 8.12803 113.538 9.55639 114.749C42.2912 111.632 75.0436 108.988 107.808 106.66C75.8774 108.167 43.9648 110.147 12.2366 112.437C12.2366 112.437 9.91546 110.469 8.67741 109.726C7.44524 109.139 5.91487 95.9244 5.91487 95.9244C8.80889 94.7105 10.3452 94.1791 13.2392 92.9652C9.63099 93.5738 7.91616 93.9537 4.48062 94.5559C5.08492 101.485 5.38707 104.95 6.16402 111.873Z" fill="#FFD261"/>
<path d="M461.531 3.87751C467.127 5.56479 469.925 6.40843 475.521 8.0957C475.521 8.0957 478.946 30.4041 478.475 31.6857C478.005 32.9673 476.437 37.2918 475.627 38.744C474.816 40.1963 475.356 45.3902 475.356 45.3902C462.983 47.4318 456.969 48.4461 444.597 50.4877C458.219 49.5055 464.947 49.0965 478.397 48.1208C478.397 48.1208 477.222 39.7905 478.579 39.1079C479.937 38.4252 482.629 36.4288 482.629 36.4288C481.783 23.0302 481.364 16.4098 480.518 3.01124C475.678 3.0338 473.255 2.96619 468.414 2.98875C465.663 3.40737 464.288 3.61668 461.531 3.87751Z" fill="#FFD261"/>
<path d="M6.26805 91.4872C6.26805 91.4872 6.18176 70.6342 6.68797 70.2993C22.9867 62.2653 84.8087 64.8571 123.133 63.2695C124.687 63.2115 85.6603 64.5094 52.331 65.5947C51.813 65.614 51.4677 65.6269 50.9497 65.6462C48.8778 65.7235 46.8059 65.8008 44.9066 65.8716C29.7067 66.2806 22.1096 66.564 6.90968 66.973C5.87961 67.1695 5.54017 67.3401 4.5101 67.5366C4.02743 68.5026 3.87243 68.9824 3.55654 69.7841C3.73115 79.0997 3.72918 83.6818 3.8979 92.8396C7.7023 92.8557 9.4289 92.7913 13.2333 92.8074C10.4531 92.4371 9.05415 92.0153 6.26805 91.4872Z" fill="#FFD261"/>
<path d="M14.895 160.528C14.5203 159.752 14.3359 159.443 13.9611 158.667C14.7891 157.688 15.2894 157.195 16.1233 156.374C16.1233 156.374 18.8741 155.956 21.2913 155.865C23.5359 155.782 65.0724 147.596 65.0724 147.596C48.5618 149.95 40.4821 151.199 23.9832 153.869C20.8812 154.143 19.1546 154.207 16.0468 154.323C14.0043 155.189 12.986 155.701 10.9435 156.567C11.3771 158.921 11.591 160.019 12.0246 162.373C14.9774 162.737 16.5373 162.837 19.4843 163.043C86.9139 153.733 154.104 147.277 222.424 143.306C307.516 139.342 391.041 139.702 475.599 144.606C477.118 143.601 477.791 143.102 479.309 142.098C478.795 132.953 478.452 128.383 477.944 119.396C474.3 119.058 472.562 118.807 469.091 118.463C472.187 118.031 473.908 117.809 476.998 117.22C476.382 109.975 476.074 106.352 475.458 99.1069C443.969 98.5435 412.492 98.2958 380.86 98.5277C411.819 98.7949 442.623 99.5418 473.439 100.604C474.186 106.738 474.477 109.888 475.224 116.022C471.461 117.11 469.579 117.654 465.989 118.736C469.65 119.548 471.567 119.95 475.228 120.762C475.228 120.762 476.37 137.467 476.244 138.736C475.946 140.011 474.159 143.08 474.159 143.08C415.737 138.939 356.546 137.355 297.812 138.756C206.083 140.914 114.518 147.49 24.0637 160.66C20.2593 160.644 18.5268 160.551 14.895 160.528Z" fill="#FFD261"/>
<path d="M16.1155 146.894C15.2855 138.551 14.7813 134.304 13.9455 125.803C13.9455 125.803 14.954 120.393 16.3058 119.553C17.4909 118.877 81.64 109.69 101.782 107.358C72.3281 110.353 43.0583 113.657 13.8121 117.592C12.8232 118.893 12.162 119.708 11.1731 121.009C11.9363 132.198 12.315 137.714 13.0782 148.904C16.4117 150.201 18.1619 150.768 21.668 152.059C39.0596 150.147 47.669 149.193 65.0724 147.596C47.9849 148.392 39.5305 148.865 22.4548 149.976C19.8119 148.653 18.5798 148.066 16.1155 146.894Z" fill="#FFD261"/>
<path d="M471.322 94.8372C471.473 89.6175 471.545 86.9287 471.696 81.7091C464.778 81.6511 461.319 81.6222 454.395 81.4065C461.111 80.6819 464.553 80.2375 471.269 79.513C472.348 75.9967 472.801 74.2418 473.702 70.5741C473.702 70.5741 472.948 50.3781 471.061 50.7645C470.376 50.948 451.223 51.9785 426.717 53.2087C442.964 53.0766 451.085 52.9317 467.506 52.7931C468.961 59.3749 469.782 62.8203 471.243 69.5598C471.243 69.5598 469.43 76.5795 468.591 77.2429C467.751 77.9062 449.031 81.2906 449.031 81.2906C456.836 81.9474 460.825 82.2726 468.808 83.0808C468.808 83.0808 468.714 94.4604 468.375 94.6311C458.204 100.067 410.206 97.275 381.038 98.6791C410.569 97.7355 439.939 97.1139 469.493 96.8014C470.154 95.9867 470.488 95.6583 471.322 94.8372Z" fill="#FFD261"/>
<path fill-rule="evenodd" clip-rule="evenodd" d="M91.4552 50.123C99.1295 58.7092 107.619 69.548 108.993 71.3013C109.066 71.3948 109.119 71.4624 109.151 71.5025C109.882 72.4325 110.483 73.1212 110.939 73.6443L110.939 73.6444L110.939 73.6444C111.952 74.8056 112.252 75.1501 111.695 75.5042C111.246 75.7898 110.774 75.8986 110.3 75.92C109.763 75.9443 109.146 75.7105 108.687 75.3084C108.362 75.0242 106.09 71.9955 102.984 67.5805C100.608 64.2022 98.6203 61.4005 98.5674 61.3545C98.4452 61.248 98.4474 61.2517 102.792 68.3289C105.519 72.7729 107.396 76.0631 107.406 76.2786C107.426 76.7169 107.318 76.9527 106.81 77.58C105.963 78.626 105.615 79.774 105.433 82.1253C105.228 84.7611 104.404 86.654 102.032 89.9366C100.643 91.8583 100.417 92.2091 100.079 92.9737C99.6538 93.9364 99.5489 94.4696 99.5504 95.661C99.5521 96.9207 99.6961 97.7279 100.131 98.9125C100.511 99.9498 100.89 100.629 101.841 101.978C102.662 103.143 103.143 104.014 103.159 104.363C103.172 104.641 103.224 104.639 104.4 104.314C107.213 103.537 109.47 102.293 110.705 100.836C111.47 99.9349 111.637 99.4487 111.589 98.2631C111.558 97.4875 111.524 97.3265 111.296 96.8898C110.926 96.1788 110.284 95.6031 108.886 94.7285C107.055 93.5824 106.252 92.6296 105.981 91.2814C105.759 90.1754 105.923 89.3804 106.811 87.2563C107.731 85.0577 107.941 84.129 108.014 81.9513C108.06 80.5444 108.188 79.9847 108.567 79.523C108.962 79.0415 109.329 78.8678 110.352 78.6791C112.019 78.3719 113.068 77.8852 113.909 77.028C114.639 76.2845 114.927 75.5867 114.929 74.5559L114.931 73.7745L114.483 73.2924C112.859 71.5462 90.3582 48.7423 90.2633 48.7466C90.243 48.7475 90.7794 49.3669 91.4552 50.123ZM103.689 96.8994C104.01 96.2599 103.788 95.4668 103.188 95.1014C102.62 94.7563 101.772 94.9693 101.794 95.4515C101.8 95.5985 101.886 95.7019 102.071 95.7884C102.384 95.9334 102.415 96.1111 102.191 96.487C101.964 96.868 101.998 97.1922 102.287 97.4003C102.754 97.7363 103.382 97.5116 103.689 96.8994ZM112.646 62.4195C111.953 62.3428 111.924 62.3315 112.245 62.2666C112.861 62.1422 114.332 62.2074 115.352 62.4043C117.734 62.8636 119.944 64.2161 122.349 66.6868L122.988 67.3432L123.852 67.1627C127.489 66.4023 131.239 66.7066 134.423 68.0208C135.299 68.3823 136.687 69.118 136.865 69.3152C136.922 69.378 137.04 69.7936 137.127 70.2388C137.429 71.7791 137.367 72.973 136.937 73.8821C136.704 74.3767 136.696 74.5305 136.887 74.9362C137.038 75.2599 137.432 75.4868 137.811 75.4692C138.585 75.4331 139.362 74.1302 139.669 72.3522L139.791 71.646L140.111 71.9802C141.865 73.8138 143.293 76.3578 143.602 78.2006L143.682 78.681L143.382 78.2546C142.865 77.5207 142.357 77.028 141.717 76.6411C140.565 75.9437 139.37 75.7426 136.228 75.7173C133.391 75.6945 131.778 75.5227 130.166 75.0712C127.423 74.3033 126.008 73.1795 122.605 69.0702C121.094 67.245 120.165 66.2393 119.251 65.437C117.172 63.6138 115.169 62.6989 112.646 62.4195ZM137.334 65.5321C137.348 64.2626 137.481 63.4198 137.788 62.6416C137.909 62.3336 138.025 62.0807 138.044 62.0799C138.064 62.079 138.015 62.3045 137.936 62.5809C137.721 63.3324 137.726 64.3467 137.951 65.5169C138.235 67.0017 138.369 67.2118 140.005 68.7557C140.773 69.4798 141.67 70.3964 141.997 70.7925L142.594 71.5126L142.007 71.0052C141.29 70.3847 139.651 69.1853 139.293 69.0194C139.053 68.9082 139.019 68.9119 138.881 69.0637C138.754 69.2036 138.735 69.406 138.759 70.3578C138.797 71.8412 138.64 72.8016 138.201 73.7746C137.963 74.3009 137.916 74.193 138.126 73.6016C138.283 73.16 138.293 72.9686 138.227 71.5339C138.094 68.6511 137.723 67.9734 135.683 66.8759C135.166 66.5978 134.317 66.2015 133.796 65.9952C133.275 65.7887 132.861 65.6072 132.875 65.5916C132.929 65.5325 134.893 66.0163 135.686 66.2841C136.867 66.6825 137.061 66.7323 137.199 66.6715C137.292 66.6308 137.325 66.3509 137.334 65.5321ZM111.999 64.4587C111.913 66.6929 112.911 69.6312 114.396 71.5101C115.546 72.9665 117.277 74.0605 118.521 74.1175C119.335 74.1548 119.568 73.8873 119.176 73.3626C118.633 72.634 117.954 71.5051 117.766 71.0172C117.649 70.714 117.384 69.815 117.177 69.0193C116.47 66.3028 115.85 65.2605 114.49 64.5089C113.995 64.235 112.948 63.8946 112.347 63.8116L112.026 63.7673L111.999 64.4587ZM136.516 84.9929C129.87 82.6337 127.467 80.4338 127.292 76.5467C127.266 75.9747 127.265 75.5058 127.288 75.5047C127.312 75.5037 127.573 75.681 127.868 75.8989C129.24 76.9113 130.743 77.3022 134.873 77.7216C137.302 77.9683 138.674 78.1941 139.946 78.5575C143.99 79.7118 146.576 82.3082 147.331 85.97C147.55 87.0339 147.54 89.048 147.311 90.1198C147.131 90.9663 146.532 92.5042 146.357 92.5701C146.309 92.5884 146.252 92.4007 146.228 92.1429C146.099 90.761 145.345 89.4441 144.136 88.4866C142.761 87.3979 140.942 86.5642 136.516 84.9929ZM131.606 84.9221C131.71 85.1936 131.88 85.8146 131.984 86.3025C132.649 89.4211 131.131 92.0336 127.999 93.1608C127.667 93.28 126.354 93.6019 125.081 93.8754C122.504 94.4294 121.359 94.791 120.221 95.4101C119.413 95.8492 118.441 96.4959 118.503 96.553C118.523 96.5715 118.709 96.5175 118.917 96.4331C120.362 95.8461 121.984 95.5027 124.46 95.2602C125.443 95.1642 126.56 95.0311 126.942 94.9649C129.141 94.5836 130.643 93.8357 131.78 92.5564C132.412 91.8445 132.779 91.1913 133.057 90.2811C133.234 89.704 133.251 89.4914 133.207 88.4846C133.163 87.4586 133.13 87.272 132.882 86.6509C132.558 85.8366 132.192 85.2311 131.742 84.7649L131.417 84.4284L131.606 84.9221ZM135.218 91.5339C134.266 89.6902 133.985 87.8815 134.383 86.165C134.426 85.9813 134.501 85.8293 134.55 85.8271C134.6 85.8249 134.809 85.9276 135.016 86.0549C135.428 86.3086 136.25 86.73 138.438 87.8092C141.168 89.156 142.739 90.2233 143.83 91.4749C144.786 92.5706 145.404 93.8398 145.745 95.4063C145.938 96.2937 145.946 98.4496 145.76 99.3602C145.172 102.232 143.607 104.537 141.292 105.946C140.953 106.152 140.647 106.323 140.613 106.325C140.58 106.327 140.692 105.996 140.862 105.589C141.585 103.866 141.602 102.221 140.916 100.423C140.495 99.3214 139.68 97.9912 138.053 95.7541C136.162 93.1533 135.696 92.4594 135.218 91.5339ZM119.165 98.4469C116.44 99.0212 113.493 100.624 111.165 102.799L110.472 103.447L111.11 103.518C114.44 103.89 115.351 104.312 117.753 106.595C119.135 107.909 119.594 108.194 120.702 108.427C122.328 108.769 123.879 107.936 124.357 106.462C124.571 105.804 124.49 104.733 124.187 104.207C123.466 102.956 121.516 102.629 120.625 103.61C119.882 104.427 120.162 105.595 121.139 105.754C121.362 105.79 121.355 105.781 121.078 105.669C120.646 105.495 120.45 105.235 120.428 104.808C120.378 103.808 121.486 103.195 122.562 103.628C123.35 103.945 123.677 104.391 123.714 105.197C123.77 106.438 122.766 107.421 121.542 107.323C120.888 107.27 120.073 106.886 119.625 106.418C118.496 105.241 118.827 103.287 120.292 102.477C121.407 101.861 122.93 101.931 124.141 102.656C125.533 103.489 126.145 104.28 127.43 106.909C127.848 107.765 128.38 108.725 128.612 109.043C129.79 110.661 131.148 111.419 132.739 111.347C133.616 111.307 134.269 111.115 135.081 110.659C135.684 110.32 136.532 109.689 136.466 109.628C136.447 109.611 136.195 109.703 135.905 109.832C134.199 110.595 132.431 110.628 131.371 109.916C130.703 109.468 130.139 108.54 129.818 107.363C129.762 107.159 129.568 106.257 129.387 105.358C128.926 103.079 128.537 102.063 127.686 100.915C126.814 99.741 125.197 98.7955 123.421 98.4208C122.313 98.1871 120.339 98.1991 119.165 98.4469ZM114.519 80.8768C114.716 79.9818 115.444 79.1039 116.221 78.8239C116.714 78.646 117.754 78.6984 118.252 78.9263C119.218 79.3683 119.952 80.4408 119.84 81.2442C119.702 82.2237 118.178 83.0713 116.385 83.1651C115.469 83.2128 115.125 83.1038 114.753 82.6478C114.524 82.3652 114.399 81.4228 114.519 80.8768ZM118.027 79.2835C118.511 79.5524 118.651 79.9761 118.392 80.3855C118.214 80.6676 117.636 80.9542 117.205 80.9736C116.557 81.0029 115.83 80.5702 115.81 80.1448C115.772 79.2899 117.106 78.7712 118.027 79.2835ZM258.752 75.3794C257.069 70.5777 259.3 66.4309 264.391 64.9009C265.851 64.4618 272.546 64.3278 273.712 64.7144C274.139 64.8559 274.35 65.4642 274.412 66.731C274.459 67.7287 274.623 68.9356 274.775 69.4131C275.005 70.1367 274.896 70.286 274.123 70.3093C273.423 70.3299 272.982 69.9392 272.335 68.7262C271.303 66.7888 270.133 66.2106 267.472 66.3233C264.075 66.467 261.693 68.8659 262.223 71.6106C262.568 73.3966 264.444 75.0846 268.585 77.3345C272.526 79.4747 274.85 81.2762 275.819 82.9404C278.41 87.3898 276.594 92.3586 271.39 95.0558C268.719 96.4402 264.153 96.7772 260.89 95.8307L258.8 95.2244L258.651 91.9354C258.516 88.9569 258.573 88.6426 259.252 88.6119C259.82 88.5863 260.083 88.9506 260.335 90.1176C260.963 93.0194 263.265 94.6942 266.43 94.5512C269.531 94.4112 271.622 92.6193 272.313 89.5103C272.607 88.1858 272.525 87.7061 271.758 86.2943C270.839 84.6017 269.34 83.5187 264.296 80.9048C261.497 79.4542 259.473 77.4371 258.752 75.3794ZM162.014 71.4725C161.343 71.5028 161.072 71.2954 161.046 70.7332C161.013 69.989 161.273 69.9401 166.529 69.7026C171.407 69.4823 172.035 69.5275 171.948 70.0924C171.894 70.4441 171.242 70.9578 170.498 71.2345L169.146 71.7376L169.478 81.7055C169.7 88.3567 169.984 92.1866 170.33 93.2156C171.36 96.2761 174.156 97.9365 177.986 97.7635C180.653 97.643 182.183 96.9492 184.056 95.0092C186.071 92.9236 186.321 91.0171 185.871 81.1874C185.426 71.4916 185.221 70.699 183.13 70.5919C182.178 70.5429 181.851 70.3365 181.825 69.77C181.793 69.0636 182.104 68.9991 186.496 68.8007C190.939 68.6 191.203 68.6316 191.236 69.3696C191.258 69.8509 191.008 70.1651 190.585 70.1878C188.77 70.2858 188.745 70.4601 188.981 81.1032C189.226 92.1561 189.048 93.4737 186.932 96.2795C186.322 97.0889 184.834 98.2913 183.626 98.9518C181.658 100.028 181.023 100.17 177.509 100.322C174.269 100.462 173.24 100.352 171.587 99.6876C169.174 98.7182 167.574 97.3949 166.346 95.3531C165.489 93.9278 165.385 93.1403 164.755 83.2498C164.033 71.9286 163.907 71.387 162.014 71.4725ZM198.702 69.8153C197.806 69.8558 197.536 69.691 197.509 69.0862C197.476 68.3537 197.725 68.2955 201.494 68.1553L205.514 68.0059L207.537 70.1334C208.649 71.3034 212.267 74.9574 215.577 78.2531C218.886 81.5485 222.688 85.3844 224.025 86.7774C225.362 88.1707 226.613 89.3032 226.804 89.2945C227.001 89.2857 226.914 85.1838 226.604 79.8735L226.055 70.4683L224.912 69.5757C224.284 69.0845 223.339 68.7025 222.811 68.7263C222.11 68.758 221.843 68.557 221.817 67.9772C221.783 67.2142 221.982 67.1798 227.177 67.05C231.595 66.9397 232.578 67.0187 232.599 67.4851C232.614 67.8176 232.084 68.1912 231.326 68.3816C230.612 68.5611 229.833 68.9204 229.594 69.1802C229.287 69.5155 229.31 73.6701 229.675 83.5076L230.188 97.3627L229.052 97.414C228.073 97.4582 226.859 96.4101 220.326 89.8807C216.151 85.7088 211.275 80.747 209.489 78.8544C207.703 76.9615 206.108 75.4039 205.946 75.3933C205.489 75.3629 206.394 92.954 206.935 94.6032C207.356 95.8884 207.616 96.1012 209.176 96.4427C210.433 96.7175 210.95 97.0305 210.973 97.529C211.002 98.1692 210.532 98.2506 205.516 98.4772C200.41 98.7078 200.024 98.6742 199.993 97.9928C199.971 97.4939 200.326 97.1701 201.109 96.977C203.481 96.3919 203.606 95.6275 203.217 84.0466C203 77.5605 202.684 73.0296 202.384 72.0915C201.858 70.4416 200.699 69.7251 198.702 69.8153ZM239.814 67.9583C238.974 67.9962 238.704 67.8224 238.677 67.2267C238.643 66.48 238.903 66.4335 244.523 66.1796C250.142 65.9258 250.405 65.9487 250.439 66.6954C250.465 67.2685 250.213 67.4885 249.494 67.521C248.955 67.5454 248.17 67.9402 247.75 68.3985C247.009 69.2075 247.006 69.5932 247.657 81.5495C248.292 93.221 248.368 93.8945 249.113 94.3869C249.546 94.6727 250.307 94.8881 250.805 94.8657C251.448 94.8366 251.72 95.0504 251.745 95.6062C251.779 96.3528 251.519 96.3992 245.899 96.653C240.413 96.9008 240.016 96.8696 239.985 96.1876C239.96 95.6375 240.334 95.3775 241.494 95.1382C243.797 94.6638 243.882 93.9015 243.127 80.4019C242.523 69.5909 242.443 68.9188 241.701 68.4281C241.269 68.1423 240.419 67.9309 239.814 67.9583ZM280.837 66.1052C280.301 66.1295 279.88 65.8505 279.731 65.3722C279.499 64.6256 279.684 64.5914 285.335 64.3361C290.918 64.084 291.181 64.1069 291.215 64.8535C291.242 65.454 290.989 65.6467 290.122 65.6859C287.654 65.7973 287.729 66.2418 291.926 76.2903C294.062 81.4053 296.132 86.2624 296.524 87.0836L297.238 88.5771L299.873 80.4728C302.974 70.9334 303.354 69.178 302.678 67.4942C302.207 66.3207 300.531 65.2157 299.307 65.2709C298.961 65.2866 298.684 64.9624 298.664 64.517C298.631 63.7693 298.89 63.7238 304.706 63.4612C310.522 63.1985 310.785 63.2202 310.819 63.968C310.844 64.5239 310.592 64.7612 309.948 64.7903C308.3 64.8647 307.613 65.7735 307.927 67.4646C308.25 69.2055 315.843 87.7291 316.113 87.4346C316.553 86.9556 323.105 66.3495 323.069 65.5596C323.027 64.6129 322.344 64.2304 320.819 64.2992C320.133 64.3302 319.862 64.1268 319.836 63.5607C319.803 62.8227 320.062 62.7675 324.506 62.5668C328.497 62.3865 329.215 62.4465 329.238 62.9606C329.253 63.2943 328.784 63.759 328.196 63.9934C326.873 64.521 326.56 65.0692 325.069 69.4619C324.414 71.3909 322.365 77.4283 320.515 82.8775C318.665 88.3272 317.072 93.0237 316.975 93.314C316.878 93.6046 316.24 93.8674 315.557 93.8982L314.316 93.9543L311.169 86.7561C309.438 82.7974 307.392 78.107 306.623 76.3332C305.305 73.2936 305.201 73.1637 304.797 74.0665C304.561 74.594 302.917 79.4596 301.141 84.8793L297.914 94.7335L296.54 94.6785L295.167 94.6236L289.334 81.2157C286.075 73.7247 283.104 67.4232 282.602 66.9369C282.108 66.4577 281.314 66.0837 280.837 66.1052ZM359.241 62.7297C359.168 62.5843 359.145 62.0509 359.145 62.0509C359.145 62.0509 359.121 61.8593 359.197 61.753C359.273 61.647 359.302 61.6431 359.588 61.6026L359.591 61.6022C360.645 61.4537 362.762 61.1883 364.531 61.0309C364.694 61.0164 364.875 61 365.072 60.982L365.075 60.9819L365.076 60.9817C367.023 60.8051 370.508 60.529 372.913 60.5405C377.526 60.5626 380.901 62.6398 382.183 66.2664C383.465 69.8929 383.031 73.3711 381.609 75.6368C380.188 77.9025 377.716 79.9096 373.459 79.9785C369.946 80.0354 368.977 79.4207 368.203 78.9297C368.039 78.8259 367.884 78.7274 367.716 78.6424L367.928 83.3314C368.109 86.5277 368.205 88.0625 368.479 88.6199C368.847 89.3702 369.622 89.8077 371.108 90.1027C371.108 90.1027 371.78 90.2286 371.959 90.387C372.138 90.5455 372.155 90.9145 372.155 90.9145C372.155 90.9145 372.206 91.258 372.075 91.4401C371.945 91.6222 371.678 91.5991 371.678 91.5991L365.168 91.8406L361.244 92.0075C361.244 92.0075 360.836 92.1052 360.674 91.9463C360.512 91.7874 360.511 91.4414 360.511 91.4414C360.511 91.4414 360.528 91.0678 360.701 90.8931C360.873 90.7185 361.534 90.5018 361.534 90.5018C363.029 90.0086 363.664 89.5295 363.969 88.6674C364.214 87.9726 364.159 86.7065 363.69 76.3772C363.245 66.5816 363.148 64.755 362.9 64.2396C362.532 63.4767 361.69 63.3082 360.492 63.0683L360.491 63.0682C360.254 63.0206 360.002 62.9702 359.737 62.9119C359.737 62.9119 359.313 62.8752 359.241 62.7297ZM378.551 69.8669C378.623 71.4732 378.708 73.9893 377.071 75.674C375.433 77.3588 372.086 77.9509 369.781 77.6065C369.054 77.498 368.632 77.2992 368.307 77.1459L368.275 77.1306L367.676 76.849L367.387 71.2068C367.206 67.6716 367.139 65.3661 367.207 65.033C367.199 63.165 369.939 62.8088 371.286 62.8171C377.035 62.5575 378.269 67.3558 378.551 69.8669ZM340.908 62.1273C340.788 62.1794 340.622 62.2513 340.424 62.3367L338.925 63.199L337.945 66.0086C337.405 67.5539 336.419 70.3905 335.753 72.3121C334.54 75.8121 333.738 78.1118 332.894 80.5124C332.646 81.2186 331.896 83.3685 331.229 85.2902C330.562 87.2116 329.891 89.042 329.738 89.3576C329.713 89.4101 329.686 89.4666 329.657 89.5266C329.272 90.3361 328.603 91.7428 327.322 92.0089C327.322 92.0089 326.615 92.1107 326.364 92.3821C326.113 92.6539 326.148 92.865 326.148 92.865L326.163 93.1922C326.163 93.1922 326.194 93.3497 326.346 93.4218C326.499 93.4943 326.701 93.4897 326.701 93.4897L331.42 93.2227L336.301 93.0023C336.301 93.0023 336.648 93.027 336.776 92.9106C336.904 92.7942 336.933 92.6288 336.933 92.6288L336.918 92.2843C336.918 92.2843 336.833 91.9138 336.633 91.7767C336.434 91.6398 335.704 91.5728 335.704 91.5728C333.739 91.4042 333.336 89.9417 333.517 88.602C333.606 87.9438 334.282 85.4932 335.057 83.0219L335.324 82.1678L340.436 81.8977C343.248 81.7491 345.677 81.654 345.834 81.6864C346.059 81.7325 346.398 82.3495 347.412 84.5559C348.948 87.8989 349.077 88.3087 348.8 88.9597C348.783 88.9993 348.765 89.043 348.746 89.09C348.487 89.7192 347.983 90.9416 346.583 91.127C346.583 91.127 345.839 91.1864 345.664 91.4177C345.488 91.6493 345.54 91.904 345.54 91.904L345.555 92.2448C345.555 92.2448 345.614 92.4424 345.713 92.5173C345.812 92.5921 345.974 92.5647 345.974 92.5647L350.614 92.3217L357.139 92.0267C357.139 92.0267 357.396 92.0424 357.461 91.941C357.526 91.8393 357.535 91.7228 357.535 91.7228L357.515 91.2701C357.515 91.2701 357.476 91.0306 357.344 90.9034C357.213 90.7766 356.36 90.6747 356.36 90.6747C355.272 90.5492 354.693 89.6813 354.262 89.0351C354.152 88.8702 354.052 88.7197 353.955 88.5998C353.758 88.355 353.032 86.9973 352.452 85.6862C351.872 84.3751 350.564 81.4132 349.544 79.1046C348.525 76.796 347.102 73.5755 346.383 71.9483C345.664 70.3208 344.297 67.2242 343.345 65.0669C343.189 64.7128 343.049 64.3948 342.924 64.1101L342.924 64.1093C342.285 62.6601 342.028 62.0753 341.961 61.9976C341.744 61.7454 341.119 62.0357 341.119 62.0357C341.119 62.0357 341.042 62.0691 340.908 62.1273ZM341.221 71.0226C340.992 70.5312 340.589 69.6494 340.325 69.063C339.845 67.9971 339.67 67.7545 339.547 67.9848C339.511 68.052 339.274 68.806 339.02 69.6604C337.373 75.1922 336.627 77.6832 336.476 78.1531C336.381 78.4485 336.307 78.7518 336.31 78.8273C336.314 78.914 337.855 78.8951 340.492 78.776C342.789 78.6723 344.667 78.5589 344.666 78.524C344.664 78.4891 344.435 77.9786 344.158 77.3889C343.88 76.7995 343.2 75.3267 342.645 74.1166C342.091 72.9064 341.449 71.5142 341.221 71.0226Z" fill="black"/>
<defs>
<linearGradient id="paint0_linear" x1="246.711" y1="155.402" x2="241.169" y2="6.85174" gradientUnits="userSpaceOnUse">
<stop stop-color="#EBCB8A"/>
<stop offset="1" stop-color="#D7A456"/>
</linearGradient>
</defs>
</svg>
