<?xml version="1.0" encoding="UTF-8"?>
<svg width="218px" height="253px" viewBox="0 0 218 253" version="1.1" xmlns="http://www.w3.org/2000/svg" xmlns:xlink="http://www.w3.org/1999/xlink">
    <!-- Generator: Sketch 60.1 (88133) - https://sketch.com -->
    <title>illust-bear</title>
    <desc>Created with Sketch.</desc>
    <defs>
        <radialGradient cx="49.9788851%" cy="112.531224%" fx="49.9788851%" fy="112.531224%" r="91.8285473%" gradientTransform="translate(0.499789,1.125312),scale(1.000000,0.985845),translate(-0.499789,-1.125312)" id="radialGradient-1">
            <stop stop-color="#087984" offset="1%"></stop>
            <stop stop-color="#09707E" offset="13%"></stop>
            <stop stop-color="#0D576E" offset="33%"></stop>
            <stop stop-color="#143054" offset="59%"></stop>
            <stop stop-color="#142E53" offset="60%"></stop>
            <stop stop-color="#122645" offset="66%"></stop>
            <stop stop-color="#0F192C" offset="79%"></stop>
            <stop stop-color="#0E111D" offset="90%"></stop>
            <stop stop-color="#0D0E18" offset="100%"></stop>
        </radialGradient>
        <radialGradient cx="48.5116726%" cy="112.671082%" fx="48.5116726%" fy="112.671082%" r="286.082119%" gradientTransform="translate(0.485117,1.126711),scale(0.311041,1.000000),translate(-0.485117,-1.126711)" id="radialGradient-2">
            <stop stop-color="#087984" offset="1%"></stop>
            <stop stop-color="#09707E" offset="13%"></stop>
            <stop stop-color="#0D576E" offset="33%"></stop>
            <stop stop-color="#143054" offset="59%"></stop>
            <stop stop-color="#142E53" offset="60%"></stop>
            <stop stop-color="#122645" offset="66%"></stop>
            <stop stop-color="#0F192C" offset="79%"></stop>
            <stop stop-color="#0E111D" offset="90%"></stop>
            <stop stop-color="#0D0E18" offset="100%"></stop>
        </radialGradient>
    </defs>
    <g id="Page-1" stroke="none" stroke-width="1" fill="none" fill-rule="evenodd">
        <g id="illust-bear" transform="translate(-1.000000, 0.000000)" fill-rule="nonzero">
            <polygon id="Path" fill="url(#radialGradient-1)" points="54.89 155.3 64.7 150.17 96.29 195.27 60.82 198.21 48.93 184.85"></polygon>
            <path d="M91.42,107.49 C91.91,106.16 91.42,93.04 91.42,93.04 L158.96,93.04 L164.24,105.13 C164.24,105.13 158.96,115.69 157.79,115.69 C156.62,115.69 91.42,107.49 91.42,107.49 Z" id="Path" fill="url(#radialGradient-2)"></path>
            <path d="M80.22,37.68 C71.98,34.08 70.22,3.98 92.15,9.14 C92.15,9.14 106.94,13.54 98.39,23.14 C93.1671326,28.9454864 87.0293463,33.8570666 80.22,37.68 L80.22,37.68 Z" id="Path" fill="#8B594C"></path>
            <path d="M91.54,102.02 C77.54,113.94 37.96,169.84 71.33,193.28 C104.7,216.72 149.82,243.54 171.9,218.65 C201.54,185.24 196.49,140.43 182.98,120.97 C169.47,101.51 169.32,98.97 165.75,96.97 C140.51,114.38 101.08,108.43 91.54,102.02 Z" id="Path" fill="#BD816A"></path>
            <path d="M90.13,103.29 C77.13,103.29 30.8,103.64 22.06,114.49 C13.32,125.34 15.31,140.04 30.01,143.22 C40.48,145.48 66.27,135.95 67.64,134.11 C72.97,123.93 89.96,103.29 90.13,103.29 Z" id="Path" fill="#A86E5D"></path>
            <path d="M146.63,119.97 C140.424211,124.485181 137.852262,132.496236 140.27,139.78 C142.69,146.56 149.03,151.07 155.22,154.78 C161.62,158.6 173.04,163.84 173.04,172.65 C173.04,183.38 174.63,211.59 196.49,204.83 C206.19,201.83 215.77,196.14 218.3,185.62 C220.97,174.48 216.07,162.02 211.36,152.07 C205.73,140.2 197.18,127.66 186.42,119.82 C176.82,112.8 157.25,112.3 146.63,119.97 Z" id="Path" fill="#A86E5D"></path>
            <path d="M60.32,152.24 C51.46,153.45 43.12,161.59 41.63,163.38 C40.14,165.17 41.63,167.55 41.63,167.55 C41.63,167.55 35.37,144.31 20.47,145.5 C5.57,146.69 2.31,156.21 1.12,168.13 C-0.07,180.05 7.66,231.92 35.07,223.28 C62.07,214.78 55.44,204.28 66.96,200.93 L78.48,197.56 C78.48,197.56 67.48,196.96 60.91,181.05 C54.34,165.14 60.32,152.24 60.32,152.24 Z" id="Path" fill="#A86E5D"></path>
            <path d="M21.88,222.49 C32,228.49 29.62,205.96 29.14,201.85 C27.71,189.36 25.33,168.85 16.52,159.08 C9,150.74 1.12,160.37 1.12,168.08 C1.12,168.13 2.58,211.12 21.88,222.49 Z" id="Path" fill="#774030"></path>
            <path d="M184.34,62.78 C184.34,92.19 157.68,107.49 124.82,107.49 C91.96,107.49 65.28,92.16 65.28,62.75 C65.28,33.34 91.92,1 124.82,1 C157.72,1 184.34,33.36 184.34,62.78 Z" id="Path" fill="#BD816A"></path>
            <ellipse id="Oval" fill="#774030" cx="103.27" cy="65.94" rx="9.14" ry="5.84"></ellipse>
            <path d="M103.28,71.31 C102.59,74.22 102.15,77.14 101.72,80.06 C101.29,82.98 100.95,85.91 100.72,88.84 C100.440586,91.7577712 100.350397,94.6905734 100.45,97.62 C100.505547,99.0638532 100.709964,100.498118 101.06,101.9 C101.312767,103.334964 102.254997,104.553881 103.58,105.16 C102.817274,105.069572 102.109978,104.715924 101.58,104.16 C101.045963,103.572383 100.619463,102.895399 100.32,102.16 C99.7476567,100.74027 99.3676259,99.2504144 99.19,97.73 C98.8473684,94.7412763 98.8172055,91.724978 99.1,88.73 C99.3671331,85.7426022 99.8314791,82.7761333 100.49,79.85 C101.080665,76.9034525 102.017147,74.0369452 103.28,71.31 Z" id="Path" fill="#774030"></path>
            <path d="M127.7,1 C123.314688,6.34040414 119.500564,12.1252718 116.32,18.26 C114.726744,21.3064918 113.301283,24.4378338 112.05,27.64 C110.80752,30.8666219 109.729468,34.1541772 108.82,37.49 C109.091381,34.0014 109.762442,30.5554983 110.82,27.22 C111.869729,23.8704199 113.208081,20.6182263 114.82,17.5 C116.44842,14.3875189 118.335033,11.4171068 120.46,8.62 C122.576523,5.81363329 125.005478,3.25719224 127.7,1 L127.7,1 Z" id="Path" fill="#774030"></path>
            <path d="M109.82,14.19 C110.886434,13.2994235 112.189833,12.7398309 113.57,12.58 C114.919195,12.3585588 116.293162,12.3316183 117.65,12.5 C119.024184,12.6409605 120.37115,12.9777021 121.65,13.5 C122.292795,13.7562931 122.900881,14.0922521 123.46,14.5 C124.036808,14.8936913 124.504653,15.4268972 124.82,16.05 C123.726722,15.3769787 122.515049,14.9187829 121.25,14.7 C120.02,14.43 118.76,14.25 117.5,14.1 C116.235406,13.9453904 114.96376,13.8552737 113.69,13.83 C112.389665,13.7748028 111.087843,13.8959026 109.82,14.19 L109.82,14.19 Z" id="Path" fill="#774030"></path>
            <path d="M110.09,18.54 C110.831022,17.8079575 111.788439,17.3345096 112.82,17.19 C113.808607,16.9998992 114.820928,16.9661552 115.82,17.09 C116.818593,17.195141 117.794111,17.4584295 118.71,17.87 C119.174487,18.0823716 119.611097,18.3510545 120.01,18.67 C120.423192,18.9865127 120.744272,19.4077154 120.94,19.89 C120.111583,19.4848447 119.223706,19.2147682 118.31,19.09 C117.42,18.94 116.53,18.82 115.63,18.71 C114.73,18.6 113.82,18.49 112.88,18.49 C111.951045,18.4025683 111.015225,18.4193392 110.09,18.54 L110.09,18.54 Z" id="Path" fill="#774030"></path>
            <path d="M155.05,20.8 C155.47,17.57 157.05,14.14 160.12,12.61 C167.44,8.93 179.39,15.33 181.71,22.81 C183.81,29.62 179.19,38.06 168.61,39.63 C168.61,39.63 158.32,28.92 155.05,20.8 Z" id="Path" fill="#A86E5D"></path>
            <path d="M178.71,26.81 C177.587934,25.6800794 176.347449,24.6742806 175.01,23.81 C173.733164,22.960551 172.347257,22.2877809 170.89,21.81 C169.472354,21.3452678 167.966333,21.2152024 166.49,21.43 C164.942111,21.7099036 163.460065,22.2762688 162.12,23.1 C163.130647,21.7197989 164.5571,20.6999022 166.19,20.19 C167.88216,19.6797099 169.690113,19.7006514 171.37,20.25 C173.018271,20.7678595 174.53591,21.6341071 175.82,22.79 C177.088287,23.8820483 178.078843,25.2599154 178.71,26.81 L178.71,26.81 Z" id="Path" fill="#774030"></path>
            <path d="M164.31,29.24 C165.601606,30.3976245 166.975184,31.4603926 168.42,32.42 C168.743973,32.6017809 169.077824,32.7653678 169.42,32.91 C169.691037,33.0165327 169.978838,33.0740928 170.27,33.08 C170.730133,33.0859274 171.163796,32.865357 171.43,32.49 C171.898815,31.9530342 172.280152,31.345595 172.56,30.69 C172.91,29.96 173.19,29.18 173.5,28.37 C174.09,26.75 174.63,25.05 175.38,23.37 L175.54,23.37 C175.390924,25.1584281 175.127047,26.9354248 174.75,28.69 C174.450336,30.4848044 173.719402,32.1800223 172.62,33.63 C171.996094,34.3642394 171.047303,34.7392554 170.09,34.63 C169.183834,34.4647661 168.338117,34.0608928 167.64,33.46 C166.263471,32.2907264 165.093769,30.8979016 164.18,29.34 L164.31,29.24 Z" id="Path" fill="#774030"></path>
            <circle id="Oval" fill="#774030" cx="135.8" cy="49.22" r="1.24"></circle>
            <circle id="Oval" fill="#774030" cx="145.68" cy="52.46" r="1.21"></circle>
            <circle id="Oval" fill="#774030" cx="134.23" cy="56.8" r="1.17"></circle>
            <circle id="Oval" fill="#774030" cx="140.42" cy="58.63" r="1.2"></circle>
            <path d="M139.11,64.0300141 C133.928591,64.0300141 129.503478,60.2910636 128.638779,55.1823167 C127.774081,50.0735698 130.722244,45.0865704 135.615067,43.3814956 C140.50789,41.6764209 145.916928,43.7510626 148.414564,48.2907553 C150.912201,52.830448 149.769258,58.5098414 145.71,61.73 L145.71,61.73 C143.834456,63.2228905 141.507159,64.0339184 139.11,64.0300141 L139.11,64.0300141 Z M139.11,44.41 C134.913738,44.4167256 131.278979,47.3224898 130.348481,51.4142903 C129.417983,55.5060908 131.438705,59.6979426 135.219394,61.5186709 C139.000082,63.3393992 143.537323,62.3057731 146.156328,59.0271346 C148.775334,55.7484961 148.781005,51.0950129 146.17,47.81 C144.46085,45.6451756 141.848129,44.3904793 139.09,44.41 L139.11,44.41 Z" id="Shape" fill="#774030"></path>
            <path d="M135.82,49.1 C136.146066,49.0015604 136.493934,49.0015604 136.82,49.1 C137.121677,49.1692208 137.416275,49.2663042 137.7,49.39 C138.205626,49.6204097 138.676795,49.9199387 139.1,50.28 C139.883634,50.9536745 140.511462,51.7896411 140.94,52.73 C141.370292,53.6722695 141.598522,54.6941952 141.61,55.73 C141.629097,56.8657512 141.297345,57.9797408 140.66,58.92 L140.41,58.92 C140.234025,58.0277158 140.006985,57.1462665 139.73,56.28 C139.455414,55.4178604 139.121276,54.5758341 138.73,53.76 C138.363966,52.9263629 137.943042,52.1179219 137.47,51.34 C137.230581,50.9591653 136.970179,50.5919323 136.69,50.24 C136.459394,49.8788804 136.143429,49.580088 135.77,49.37 L135.82,49.1 Z" id="Path" fill="#8B594C"></path>
            <path d="M145.88,52.64 C145.315158,52.7906515 144.765997,52.9949124 144.24,53.25 C143.76,53.46 143.34,53.68 142.92,53.89 C142.08,54.3 141.28,54.69 140.44,55.05 C139.557211,55.4280791 138.656088,55.7618283 137.74,56.05 C136.63196,56.4405521 135.485505,56.7120809 134.32,56.86 L134.15,56.69 C134.891062,55.8676247 135.711732,55.1206474 136.6,54.46 C137.491626,53.8010203 138.450261,53.2379063 139.46,52.78 C140.489503,52.3389029 141.577461,52.0492297 142.69,51.92 C143.248113,51.8549883 143.811887,51.8549883 144.37,51.92 C144.930497,51.9911951 145.474873,52.1568747 145.98,52.41 L145.88,52.64 Z" id="Path" fill="#8B594C"></path>
            <ellipse id="Oval" fill="#774030" transform="translate(81.148733, 45.913453) rotate(-89.070000) translate(-81.148733, -45.913453) " cx="81.1487332" cy="45.9134534" rx="1.07" ry="1"></ellipse>
            <ellipse id="Oval" fill="#774030" transform="translate(87.898767, 41.065784) rotate(-89.070000) translate(-87.898767, -41.065784) " cx="87.8987667" cy="41.065784" rx="1.05" ry="1"></ellipse>
            <ellipse id="Oval" fill="#774030" transform="translate(86.411000, 52.012200) rotate(-88.854237) translate(-86.411000, -52.012200) " cx="86.411" cy="52.0122" rx="1.01020198" ry="1"></ellipse>
            <ellipse id="Oval" fill="#774030" transform="translate(88.985713, 47.957759) rotate(-89.070000) translate(-88.985713, -47.957759) " cx="88.985713" cy="47.9577594" rx="1.04" ry="1"></ellipse>
            <path d="M85.2,55.29 L85.08,55.29 C80.47,55.21 76.79,50.98 76.87,45.85 C76.95,40.72 80.71,36.68 85.26,36.68 L85.38,36.68 C89.99,36.75 93.67,40.99 93.59,46.12 C93.51,51.25 89.75,55.29 85.2,55.29 Z M85.26,38.29 C81.6,38.29 78.58,41.66 78.51,45.85 C78.44,50.04 81.4,53.57 85.11,53.63 L85.2,53.63 C88.86,53.63 91.88,50.26 91.95,46.07 C92.02,41.88 89.06,38.35 85.35,38.29 L85.26,38.29 Z" id="Shape" fill="#774030"></path>
            <path d="M81.14,45.82 C81.8066241,45.3312179 82.604028,45.0526489 83.43,45.02 C84.1700103,44.9531756 84.9159955,45.0243833 85.63,45.23 C86.346699,45.4234419 87.0237132,45.7416386 87.63,46.17 C88.2975602,46.6177428 88.8493428,47.2175065 89.24,47.92 L89.18,48.07 C87.86,47.63 86.56,47.14 85.18,46.8 C84.52,46.61 83.85,46.44 83.18,46.3 C82.5196748,46.1592395 81.851953,46.0557426 81.18,45.99 L81.14,45.82 Z" id="Path" fill="#8B594C"></path>
            <path d="M88.08,41 C87.6315882,41.7955337 87.253486,42.6286968 86.95,43.49 C86.7,44.27 86.5,45.01 86.31,45.79 C86.12,46.57 85.97,47.39 85.75,48.26 C85.5601846,49.220124 85.2926369,50.1632296 84.95,51.08 L84.79,51.08 C84.5864616,50.1463247 84.4726108,49.1953356 84.45,48.24 C84.4202115,47.2791321 84.5109178,46.3183172 84.72,45.38 C84.9419593,44.4381716 85.3314928,43.5439382 85.87,42.74 C86.4007315,41.9243072 87.1394649,41.2649704 88.01,40.83 L88.08,41 Z" id="Path" fill="#8B594C"></path>
            <path d="M116.73,204.83 C110.38,191.19 100.03,187.88 99.39,188.12 C133.76,175.01 136.81,169.28 145.56,170.96 C155.89,172.96 163.05,175.33 165.83,188.05 C168.61,200.77 165.03,226.99 152.72,228.18 C140.41,229.37 126.04,240.49 116.72,250.03 C107.4,259.57 73.54,245.48 70.06,212.68 C69.19,204.44 69.87,194.24 77.46,189.18 C91.01,180.16 109.7,193.02 116.73,204.83 Z" id="Path" fill="#A86E5D"></path>
            <path d="M70.07,212.68 C71.46,202.45 74.92,189.59 87.99,197.97 C101.06,206.35 112.63,255.73 97.99,249.46 C69.13,237.12 70.08,212.68 70.08,212.68" id="Path" fill="#774030"></path>
            <g id="Group" opacity="0.1" style="mix-blend-mode: multiply;" fill="#3E62AD">
                <path d="M211.36,152.04 C205.73,140.17 197.18,127.63 186.42,119.79 C184.418324,118.385429 182.226154,117.274191 179.91,116.49 C169.43,101.09 169.03,98.78 165.75,96.96 C140.51,114.38 101.08,108.43 91.54,102.02 C91.07,102.42 90.54,102.87 90.05,103.37 C90.05,103.32 90.12,103.29 90.13,103.29 C77.13,103.29 30.8,103.64 22.06,114.49 C13.32,125.34 15.31,140.04 30.01,143.22 C40.48,145.48 66.27,135.95 67.64,134.11 C68.54,132.4 69.77,130.38 71.2,128.22 C58.56,149.8 49.9,178.22 71.33,193.28 L72.74,194.28 C72.55,194.61 72.36,194.94 72.18,195.28 C68.62,193.15 64.18,189.02 60.91,181.07 C54.3,165.16 60.32,152.25 60.32,152.25 C51.46,153.46 43.12,161.6 41.63,163.39 C41.1412227,163.974911 40.9071199,164.731243 40.98,165.49 C38.98,159.82 32.63,144.54 20.47,145.49 C6.81,146.58 2.94,154.67 1.47,165.19 C1.24147113,166.150033 1.12403396,167.13315 1.12,168.12 C0.12,177.84 5.12,214.17 21.88,222.51 L21.88,222.51 C22.5409119,222.91966 23.2635019,223.220176 24.02,223.4 C27.6247362,224.547054 31.5032211,224.501466 35.08,223.27 C62.03,214.77 55.44,204.27 66.96,200.92 L70.57,199.86 C69.7024179,204.073742 69.5334986,208.401454 70.07,212.67 L70.07,212.67 C70.07,212.67 69.63,224.4 78.94,235.67 C90.59,251.46 110.03,256.85 116.73,249.98 C125.4,241.1 138.44,230.85 150.14,228.52 C158.58,228.15 166.04,225.19 171.9,218.6 C176.015376,213.961565 179.622579,208.89606 182.66,203.49 C185.99,205.84 190.47,206.63 196.49,204.77 C206.19,201.77 215.77,196.08 218.3,185.56 C220.97,174.49 216.07,161.99 211.36,152.04 Z" id="Path"></path>
                <path d="M103.44,105.12 L103.57,105.12 L103.57,105.12 C110.537144,106.733233 117.668628,107.528603 124.82,107.49 C157.7,107.49 184.36,92.16 184.36,62.75 C184.208864,53.3591252 181.826665,44.1388145 177.41,35.85 C181.367268,32.7725327 183.07376,27.6096048 181.73,22.78 C179.41,15.3 167.46,8.9 160.14,12.58 C159.697253,12.8074482 159.278483,13.0788115 158.89,13.39 C149.97,6.39 139.26,1.72 127.67,1.06 L127.72,0.97 L127.63,1.06 C126.7,1.06 125.76,0.97 124.82,0.97 C114.196913,1.07738627 103.841495,4.31584573 95.05,10.28 C94.1198368,9.82024407 93.1572644,9.42919902 92.17,9.11 C76,5.31 72.71,20.61 75.38,30.39 C69,40.39 65.2799811,51.76 65.2799811,62.75 C65.26,85.49 81.11,99.75 103.44,105.12 Z" id="Path"></path>
            </g>
        </g>
    </g>
</svg>