<?xml version="1.0" encoding="UTF-8"?>
<svg width="69px" height="98px" viewBox="0 0 69 98" version="1.1" xmlns="http://www.w3.org/2000/svg" xmlns:xlink="http://www.w3.org/1999/xlink">
    <!-- Generator: Sketch 60.1 (88133) - https://sketch.com -->
    <title>illust-gift-2</title>
    <desc>Created with Sketch.</desc>
    <g id="Page-1" stroke="none" stroke-width="1" fill="none" fill-rule="evenodd">
        <g id="illust-gift-2" fill-rule="nonzero">
            <path d="M32.2514922,39 L40.6290299,32.7106874 L40.7884235,32.9278858 C50.4769089,29.644203 57.8603849,21.6498876 60.412583,11.680208 C60.6798016,10.5989373 61.1579823,7.97839037 59.8968979,6.95850183 C58.9124083,6.14636837 57.140327,6.53354828 55.8089221,7.15681349 C51.2427655,9.29574639 47.712667,14.0221743 45.0264168,21.6005127 C44.0137989,24.4335364 42.7198983,28.1872928 41.6885283,31.9174407 L38.5100332,31.1950197 C39.8880265,23.0952578 38.7211204,14.7642731 35.1721447,7.36456856 C34.6621031,6.14390521 33.9090141,5.0415145 32.9593871,4.12547812 C32.1061627,3.39833537 31.0419764,3.10558959 30.2496966,3.37472684 C29.0214286,3.7996804 28.3322859,5.4853295 27.9713064,6.82629406 C26.2169322,13.5200685 27.7892478,20.6550887 32.1905476,25.9728126 C33.0437719,26.9832578 33.981381,27.9134339 34.9799348,28.9002705 C36.3973006,30.2312984 37.7048841,31.6761778 38.8897649,33.2206316 L36.2550832,35.1706963 C35.1754951,33.7701874 33.9838766,32.4610498 32.6921685,31.2564019 C31.6889267,30.2601219 30.6481805,29.2355116 29.7011953,28.1070238 C24.606748,21.9641487 22.7842474,13.71545 24.8115636,5.97638695 C25.6366596,2.90727793 27.108706,0.985543509 29.1855102,0.272565875 C31.0607285,-0.369586166 33.3156785,0.140358102 35.0549435,1.61825214 C36.3610123,2.82365322 37.3980627,4.29463899 38.0974852,5.93389159 C40.2344822,10.3865507 41.5860394,15.179725 42.0917002,20.0990101 C45.0873614,11.8926848 49.1237688,6.68936458 54.4306366,4.20102542 C57.3606652,2.82700892 60.10786,2.91199963 61.9596381,4.44183244 C63.9239292,6.05665595 64.4818067,8.84718431 63.5817019,12.51595 C60.6954359,23.782829 52.2526497,32.7590428 41.2384759,36.2708538 L32.2514922,39 Z" id="Path" fill="#4A7865"></path>
            <polygon id="Path" fill="#D43D4F" points="11 87.8938935 16.5085044 33 67 35.2895915 52.886217 98"></polygon>
            <g id="Group" transform="translate(15.000000, 34.000000)">
                <polygon id="Path" fill="#4A7865" points="12.2470866 58.6535433 21.9054331 3.16535433 28.9993701 3.72283465 18.3654331 59.9385827"></polygon>
                <path d="M0.454496794,8.88574452 C1.84819758,8.88574452 45.4265569,14.5276733 49,15 L51,6.5863682 L1.42139858,0 L0.454496794,8.88574452 Z" id="Path" fill="#312841" opacity="0.2" style="mix-blend-mode: multiply;"></path>
            </g>
            <polygon id="Path" fill="#BD3846" points="12.3173667 26 12 37.858325 67.2824859 45 69 33.9373119"></polygon>
            <polygon id="Path" fill="#4A7865" points="36.137558 28 34 42.0655152 43.8485317 44 46 29.1340083"></polygon>
            <path d="M0,53.7411421 L0.563324538,50.5650983 C6.52179261,51.546483 12.5399802,49.1930932 16.262533,44.4259815 C18.3403694,41.6897688 19.494723,38.4072396 20.73219,34.9302587 C21.507342,32.5811852 22.4327445,30.2846697 23.5026385,28.0550034 C24.9340369,25.2215649 27.487467,21.7075456 31.5,21.0778926 C34.1334206,20.722414 36.7841677,21.5958566 38.6939314,23.448351 C40.4782084,25.2014715 41.6396165,27.4931113 42,29.9717413 L38.8278364,30.490279 C38.5785983,28.712384 37.7583968,27.0643296 36.4914248,25.7956603 C35.2988312,24.6351139 33.649685,24.0725941 31.9986807,24.263196 C29.3298153,24.6798782 27.4643799,27.3512736 26.3700528,29.5133909 C25.365003,31.6166465 24.4936501,33.7815433 23.7612137,35.995113 C22.505277,39.5508005 21.2031662,43.2268629 18.8205805,46.3658683 C14.3571424,52.0807567 7.14535216,54.9068612 0,53.7411421 Z" id="Path" fill="#4A7865"></path>
        </g>
    </g>
</svg>