<svg id="Layer_1" data-name="Layer 1" xmlns="http://www.w3.org/2000/svg" xmlns:xlink="http://www.w3.org/1999/xlink" viewBox="0 0 231.2 343.9"><defs><linearGradient id="linear-gradient" x1="313.36" y1="493.16" x2="236.7" y2="270.78" gradientTransform="matrix(1, 0, 0, -1, -176.2, 520)" gradientUnits="userSpaceOnUse"><stop offset="0.13" stop-color="#2d425b"/><stop offset="0.35" stop-color="#3b5371"/><stop offset="0.69" stop-color="#55779f"/><stop offset="0.79" stop-color="#54749b"/><stop offset="0.86" stop-color="#4e6d91"/><stop offset="0.92" stop-color="#456182"/><stop offset="0.98" stop-color="#38516d"/><stop offset="1" stop-color="#324964"/></linearGradient><linearGradient id="linear-gradient-2" x1="407.03" y1="391.41" x2="210.33" y2="504.98" gradientTransform="matrix(1, 0, 0, -1, -176.2, 520)" gradientUnits="userSpaceOnUse"><stop offset="0" stop-color="#55779f"/><stop offset="0.49" stop-color="#54759c"/><stop offset="0.71" stop-color="#4f6e94"/><stop offset="0.86" stop-color="#486486"/><stop offset="0.91" stop-color="#446081"/></linearGradient><linearGradient id="linear-gradient-3" x1="519.82" y1="455.2" x2="327.15" y2="455.2" gradientTransform="matrix(1, 0, 0, -1, -176.2, 520)" gradientUnits="userSpaceOnUse"><stop offset="0.25" stop-color="#21344c"/><stop offset="0.38" stop-color="#263b53"/><stop offset="0.61" stop-color="#354c69"/><stop offset="0.9" stop-color="#4c6a8f"/><stop offset="1" stop-color="#55779f"/></linearGradient><linearGradient id="linear-gradient-4" x1="101.64" y1="455.25" x2="300.83" y2="455.25" gradientTransform="matrix(1, 0, 0, -1, -176.2, 520)" gradientUnits="userSpaceOnUse"><stop offset="0.25" stop-color="#55779f"/><stop offset="0.39" stop-color="#506f94"/><stop offset="0.63" stop-color="#415b7b"/><stop offset="0.94" stop-color="#293e57"/><stop offset="1" stop-color="#233850"/></linearGradient><linearGradient id="linear-gradient-5" x1="315.05" y1="596.9" x2="311.11" y2="433.4" gradientTransform="matrix(1, 0, 0, -1, -176.2, 520)" gradientUnits="userSpaceOnUse"><stop offset="0.01" stop-color="#55779f"/><stop offset="0.18" stop-color="#527299"/><stop offset="0.4" stop-color="#4a678a"/><stop offset="0.65" stop-color="#3c5573"/><stop offset="0.91" stop-color="#293e57"/><stop offset="1" stop-color="#22354d"/></linearGradient><linearGradient id="linear-gradient-6" x1="350.04" y1="542.54" x2="188.99" y2="386.24" gradientTransform="matrix(1, 0, 0, -1, -176.2, 520)" gradientUnits="userSpaceOnUse"><stop offset="0.25" stop-color="#55779f"/><stop offset="0.39" stop-color="#506f94"/><stop offset="0.62" stop-color="#415b7b"/><stop offset="0.92" stop-color="#2a3e58"/><stop offset="1" stop-color="#23374e"/></linearGradient><linearGradient id="linear-gradient-7" x1="291.56" y1="521.68" x2="425.76" y2="402.01" xlink:href="#linear-gradient-6"/><linearGradient id="linear-gradient-8" x1="144.16" y1="287.65" x2="432.13" y2="184.87" gradientTransform="matrix(1, 0, 0, -1, -176.2, 520)" gradientUnits="userSpaceOnUse"><stop offset="0.27" stop-color="#55779f"/><stop offset="1" stop-color="#435f80"/></linearGradient><linearGradient id="linear-gradient-9" x1="274.28" y1="587.4" x2="445.67" y2="434.69" gradientTransform="matrix(1, 0, 0, -1, -176.2, 520)" gradientUnits="userSpaceOnUse"><stop offset="0.46" stop-color="#55779f" stop-opacity="0"/><stop offset="0.56" stop-color="#53749b" stop-opacity="0.19"/><stop offset="0.65" stop-color="#4d6c90" stop-opacity="0.38"/><stop offset="0.74" stop-color="#445f80" stop-opacity="0.56"/><stop offset="0.84" stop-color="#364d6a" stop-opacity="0.75"/><stop offset="0.93" stop-color="#253850" stop-opacity="0.93"/><stop offset="0.97" stop-color="#1c2e45"/></linearGradient><linearGradient id="linear-gradient-10" x1="313.25" y1="170.15" x2="313.25" y2="615.77" xlink:href="#linear-gradient-6"/></defs><title>logo-shapeshift</title><polygon points="98 101.4 0 187.3 136.6 265.9 137.1 104 98 101.4" style="fill:url(#linear-gradient)"/><polygon points="84 154.5 136.7 295.1 137 162.4 84 154.5" style="fill:#466385"/><polygon points="189.3 155 136.7 295.1 137 162.4 189.3 155" style="fill:#364e6b"/><polygon points="231.2 0.1 178.9 27.5 137.1 36.7 94.9 27.5 42.8 0 60.8 82.9 43.7 129.5 103.5 166.6 136.8 202.7 136.8 203 136.9 202.8 137.1 203 137.1 202.7 170.4 166.6 230.3 129.5 213.3 83 231.2 0.1" style="fill:url(#linear-gradient-2)"/><polygon points="231.2 0.1 216.7 83.2 230.3 129.5 213.3 83 231.2 0.1" style="fill:url(#linear-gradient-3)"/><polygon points="42.8 0 57.5 83.1 43.7 129.5 60.8 82.9 42.8 0" style="fill:url(#linear-gradient-4)"/><polygon points="42.8 0 103.7 25.4 170.4 25.4 231.2 0.1 178.9 27.5 137.1 36.7 94.9 27.5 42.8 0" style="fill:url(#linear-gradient-5)"/><polygon points="60.8 82.9 57.8 91.2 120.9 33.1 60.8 82.9" style="fill:url(#linear-gradient-6)"/><polygon points="213.3 83 153.5 33.1 216.2 90.9 213.3 83" style="fill:url(#linear-gradient-7)"/><polygon points="0 187.3 146.7 268.3 165.3 314.7 126 329.7 64.8 323.4 0 234.1 0 187.3" style="fill:url(#linear-gradient-8)"/><polygon points="121.4 254.4 65 323.2 64.8 323.4 125.9 343.9 126 343.9 173.7 319.5 173.9 319.4 173.9 283.2 121.4 254.4" style="fill:#fff"/><polygon points="213.3 83 231.2 0.1 178.9 27.5 153.5 33.1 213.3 83" style="fill:url(#linear-gradient-9)"/><polygon points="137.1 203 120.4 184.8 137.1 166.6 153.7 184.8 137.1 203" style="fill:#fff"/><polygon points="135.4 36.3 137.1 36.7 138.7 36.4 137 142.2 135.4 36.3" style="fill:url(#linear-gradient-10)"/><path d="M254.1,102.4" transform="translate(-176.2 -66)" style="fill:none"/><path d="M251.6,102.4" transform="translate(-176.2 -66)" style="fill:none"/></svg>