<svg xmlns="http://www.w3.org/2000/svg" viewBox="0 0 911.25 684.21"><title>logo-tbp</title><g id="Layer_2" data-name="Layer 2" style="opacity:0.8"><path d="M534.79,437.67l-4.27-1.34,4.27-1.33s22-10.67,22-41.33-29.33-52-53.33-52h-16V292.33h-28v49.34H436.12V292.33h-28v49.34H356.79v30h17.3a12.7,12.7,0,0,1,12.7,12.7V508.3a12.71,12.71,0,0,1-12.7,12.7h-17.3v34h51.33v48.67h28V555h23.34v48.67h28V555h16c24,0,69.33-16,69.33-64.67C572.79,444.33,534.79,437.67,534.79,437.67Zm-97.33-63.34h28.66s36,0,36,26c0,28.67-27.33,28-27.33,28H437.46Zm40.66,146H437.46v-60h41.33s37.33,0,37.33,30S478.12,520.33,478.12,520.33ZM455.57,264.76A183.22,183.22,0,1,1,326,318.43a182,182,0,0,1,129.56-53.67m0-53c-130.46,0-236.22,105.76-236.22,236.23S325.11,684.21,455.57,684.21,691.79,578.45,691.79,448,586,211.76,455.57,211.76ZM845.86,441.47c1.77,2.28,2.31,5.72,1.63,10.35s-2.21,7.84-4.58,9.67-5.41,2.47-9.12,1.92l-14.65-2.16L823,435.08l14.64,2.16Q843.22,438.07,845.86,441.47Zm-18-90.36C850.23,205.43,757.42,0,461.12,0h-11C153.83,0,61,205.43,83.41,351.11,40.43,363.44-11.15,396.86,2.12,487c19,129,167,88,167,88l-33-231a166.25,166.25,0,0,0-25,1.47c.64-75.24,29.85-153.82,107-210.47,103-75.64,232-70,232-70h11s129-5.64,232,70c77.14,56.65,106.35,135.23,107,210.47a166.35,166.35,0,0,0-25-1.47l-33,231s148,41,167-88C922.4,396.86,870.81,363.44,827.84,351.11ZM93,517.9l-16.41,2-9-73.39L44.2,449.38l-1.93-15.79,63.21-7.72,1.93,15.79-23.35,2.85Zm770.62-63.82q-2.32,15.74-10.11,21.24T833.08,479l-16.19-2.39-4.72,31.95L796,506.14l13.11-88.88,33.39,4.93q11.55,1.71,17.4,9.59T863.65,454.08Z" style="fill:#fff"/></g></svg>