<svg id="trezor" xmlns="http://www.w3.org/2000/svg" viewBox="0 0 2567.5 722.3"><title>logo-trezor</title><path id="path7" d="M249,0A179.2,179.2,0,0,0,69.7,179.3v67.2C34.9,252.8,0,261.2,0,272.1V622.8s0,9.7,10.9,14.3c39.5,16,194.9,71,230.6,83.6,4.6,1.7,5.9,1.7,7.1,1.7,1.7,0,2.5,0,7.1-1.7,35.7-12.6,191.5-67.6,231-83.6a16.69,16.69,0,0,0,10.5-13.9V272.1c0-10.9-34.4-19.7-69.3-25.6V179.3C428.4,80.2,347.7,0,249,0Zm0,85.7c58.4,0,93.7,35.3,93.7,93.7v58.4a1272.78,1272.78,0,0,0-187.3,0V179.4C155.4,120.9,190.7,85.7,249,85.7Zm-.4,238.1c81.5,0,149.9,6.3,149.9,17.6V560.2c0,3.4-.4,3.8-3.4,5s-139,50.4-139,50.4-5.5,1.7-7.1,1.7-7.1-2.1-7.1-2.1-136.1-49.1-139-50.4-3.4-1.7-3.4-5V341C98.7,329.7,167.1,323.8,248.6,323.8Z" style="fill:#fff"/><g id="g3222"><path id="path13" d="M728.47,563.18V323.58H640.92V237.66h273v85.92H827.19v239.6Z" style="fill:#fff"/><path id="path15" d="M1135,563.18l-44.92-102.36h-35.74V563.18H955.65V237.66H1129.4c76.27,0,117.18,50.55,117.18,111.53,0,56.2-32.5,85.92-58.59,98.73l59,115.17H1135Zm11.66-214c0-17.68-15.67-25.33-32.11-25.33h-60.21v51.42h60.21C1131,374.9,1146.7,367.25,1146.7,349.19Z" style="fill:#fff"/><path id="path17" d="M1298.38,563.18V237.66h246.87v85.92H1396.73v32.11h144.89v85.92H1396.73v35.75h148.52v85.82Z" style="fill:#fff"/><path id="path19" d="M1596.57,563.57V485.29L1720.63,324H1596.57V238h254v77.51L1726.17,477.74h128.07v85.92Z" style="fill:#fff"/><path id="path21" d="M1878.33,401c0-100,77.51-168.59,178.25-168.59,100.35,0,178.24,68.24,178.24,168.59,0,100-77.51,168.21-178.24,168.21S1878.33,501,1878.33,401Zm256.14,0c0-45.4-30.87-81.52-78.28-81.52s-78.27,36.12-78.27,81.52,30.87,81.53,78.27,81.53C2104,482.52,2134.47,446.39,2134.47,401Z" style="fill:#fff"/><path id="path23" d="M2455.51,563.57l-44.92-102.36h-35.75V563.57h-98.73V238h173.76C2526.14,238,2567,288.6,2567,349.57c0,56.2-32.49,85.93-58.59,98.73l59,115.17H2455.51Zm12-214.38c0-17.68-15.68-25.33-32.11-25.33h-60.22v51.42h60.22C2452,374.9,2467.55,367.25,2467.55,349.19Z" style="fill:#fff"/></g></svg>