<?xml version="1.0" encoding="UTF-8"?>
<svg width="148px" height="245px" viewBox="0 0 148 245" version="1.1" xmlns="http://www.w3.org/2000/svg" xmlns:xlink="http://www.w3.org/1999/xlink">
    <!-- Generator: Sketch 60.1 (88133) - https://sketch.com -->
    <title>popup-left-mobile</title>
    <desc>Created with Sketch.</desc>
    <defs>
        <linearGradient x1="1.38010803%" y1="38.3820092%" x2="98.6373249%" y2="61.6040921%" id="linearGradient-1">
            <stop stop-color="#0072B3" offset="0%"></stop>
            <stop stop-color="#007A9A" offset="58%"></stop>
            <stop stop-color="#01BED1" offset="100%"></stop>
        </linearGradient>
    </defs>
    <g id="Page-1" stroke="none" stroke-width="1" fill="none" fill-rule="evenodd">
        <g id="Pop-up-Copy" transform="translate(-94.000000, -290.000000)" fill-rule="nonzero">
            <g id="popup-left-mobile" transform="translate(74.000000, 271.000000)">
                <g id="candy2-copy" transform="translate(104.500000, 131.500000) rotate(-24.000000) translate(-104.500000, -131.500000) translate(43.000000, 15.000000)">
                    <path d="M21.469605,232.910877 C22.298661,233.112137 23.1722363,232.969431 23.8979767,232.514181 C24.6237171,232.058931 25.1421125,231.328468 25.3390164,230.483633 L59.9563382,82.8082689 C60.2320928,81.1138239 59.1751283,79.4905162 57.5356664,79.0905515 C55.8962045,78.6905868 54.232231,79.6500918 53.7248156,81.2880207 L19.0872616,228.947924 C18.6786602,230.707697 19.7438774,232.472739 21.469605,232.895416" id="Path" fill="#7BCFDF"></path>
                    <polygon id="Path" fill="#1991AD" points="46.1122995 139.479882 39 140 44.6149733 118 51 120.345533"></polygon>
                    <path d="M1.68706825,47.2146054 C-4.0942542,71.4058374 5.26767672,96.6973274 25.4071727,111.295059 C45.5466687,125.892792 72.4973364,126.921801 93.6914464,113.902236 C114.885556,100.882671 126.149013,76.3786833 122.229403,51.8170579 C118.309792,27.2554326 99.9790654,7.47348359 75.7852713,1.69599846 C42.753504,-6.19199724 9.58030304,14.1863363 1.68706825,47.2146054" id="Path" fill="url(#linearGradient-1)"></path>
                    <path d="M59.508531,50.2137411 L59.7547787,50.1673423 C59.9850571,50.1188263 60.2180523,50.0843936 60.4524804,50.064234 C61.3167771,50.0065995 62.1844939,50.0990302 63.0175603,50.337471 C65.223529,50.9045667 68.4606599,52.8636243 70.6101968,56.7095637 C71.7576616,58.7998268 72.3313233,61.1591482 72.2723686,63.5456437 C72.1352132,66.3350226 71.2078845,69.0269614 69.5995553,71.304543 C67.8655613,73.8255409 65.5929005,76.1248559 62.6020174,77.3466892 C59.4117939,78.6309729 55.9027731,78.8850391 52.5622947,78.0736026 C45.4878043,76.5269782 38.3312314,71.1705022 34.6067354,63.8188807 C32.7144233,60.1763006 31.9972317,56.032148 32.5546715,51.9614267 C33.1446399,47.9247369 35.2326149,44.0787975 38.2491489,40.7896428 C39.0032823,39.9647764 39.8241079,39.175998 40.6654541,38.4078412 L41.9890353,37.2891162 L43.2869658,36.2580332 C43.7999817,35.907465 44.3694295,35.4744102 44.8260137,35.1908623 C45.2825979,34.9073145 45.6673599,34.6443884 46.1803759,34.3763068 C47.1497086,33.8290685 48.1539909,33.3468444 49.1866495,32.9327907 C53.3944129,31.2609517 57.9525857,30.6777391 62.4429824,31.2366592 C71.5951875,32.3038301 80.4344528,37.6654614 86.3033556,45.0944142 C89.2356637,48.7644517 91.4152072,52.9820416 92.7160554,57.5034976 C93.9487024,61.9036246 94.2768587,66.5099053 93.6805254,71.0416169 C93.0465286,75.5300318 91.6587637,79.8776867 89.5763976,83.8992214 C89.0633816,84.9303043 88.5503656,85.9098331 87.9296163,86.8790511 C87.632067,87.3688155 87.3704289,87.8688908 87.0472288,88.3431889 L86.2058826,89.6578197 L85.1182887,91.2044441 L84.2256409,92.3180137 C83.55359,93.1222585 82.8507581,93.8646382 82.1376659,94.6173287 C79.2754727,97.494408 75.8989462,99.8031483 72.1851559,101.422476 C68.4574422,102.988008 64.5124948,103.968667 60.4883915,104.33013 C56.5126881,104.686892 52.508929,104.569216 48.56077,103.979562 C44.7638997,103.463273 41.0288707,102.561624 37.4129328,101.288435 C34.0366119,100.104511 30.75709,98.6583474 27.6040673,96.9630425 C24.7432994,95.3918136 21.9999838,93.6136644 19.3958116,91.6426544 C15.1165084,88.3823584 11.3168668,84.5310351 8.10946008,80.202789 C6.01774034,77.3460587 4.21658017,74.2855932 2.73305262,71.0673939 C2.22003664,69.9332027 1.85579529,69.0464713 1.63006826,68.4432878 L1.26069676,67.525624 L1.26069676,67.4998469 C1.19681301,67.33722 1.07085715,67.2070252 0.91089154,67.1382694 C0.750925928,67.0695135 0.570240183,67.0679087 0.409090231,67.1338124 C0.137486578,67.2465896 -0.0275768436,67.5258492 0.00380760777,67.8194826 C0.00380760777,67.8194826 0.0448488861,68.15974 0.121801283,68.8505656 C0.19875368,69.5413912 0.347528314,70.5002983 0.573255345,71.789152 C0.874823038,73.3680505 1.26881975,74.9276952 1.7531921,76.4599578 C2.39069942,78.5643108 3.18645638,80.6169231 4.13358624,82.6000568 C5.3084954,85.0847981 6.66843377,87.4768369 8.20180295,89.7557726 C10.0555576,92.431801 12.113842,94.9587172 14.3579947,97.3136107 C16.9389943,99.9994976 19.7586026,102.442993 22.7817171,104.613678 C26.1316677,107.073119 29.7164371,109.192086 33.4832304,110.939372 C41.3528955,114.615183 50.7718689,117.280532 61.2168742,116.976363 C63.8779431,116.890761 66.5289945,116.606429 69.1481013,116.125719 C71.8778246,115.590018 74.5557066,114.815474 77.1511505,113.810938 C82.6313986,111.699273 87.6065811,108.449308 91.7515853,104.273421 C92.8079349,103.210858 93.8030932,102.088591 94.7322082,100.91209 C95.209313,100.314062 95.6966782,99.6387028 96.1686529,98.9994313 L97.2665071,97.3703202 L97.425542,97.1383266 L97.4922341,97.0249075 L97.6358786,96.7929138 L97.9129072,96.3392373 L98.4720946,95.4215735 C98.8568566,94.8183899 99.190317,94.1739631 99.5494282,93.5450025 C100.242,92.2819258 100.87814,90.9672951 101.478368,89.6268872 C103.98912,84.1532132 105.487602,78.2660402 105.900566,72.2531393 C106.305042,66.1003835 105.472815,59.9287642 103.45348,54.1060792 C101.430501,48.3439155 98.3369227,43.0202789 94.3371858,38.418152 C86.4726509,29.2930678 75.3196835,23.0601713 63.3202398,22.1218858 C57.3329596,21.6212298 51.3177762,22.6683318 45.8469155,25.1635806 C44.5099109,25.7829701 43.2143799,26.4890316 41.9685147,27.2773006 C41.3528955,27.6381797 40.7064954,28.1279441 40.0806159,28.5558435 C39.4547364,28.9837429 39.0545839,29.3600882 38.5159172,29.7622106 L36.8486152,31.1902605 L35.3095673,32.6183104 C34.3194465,33.6133054 33.3601066,34.6340775 32.4674588,35.7115592 C30.6513035,37.8933553 29.1235279,40.3020035 27.9221372,42.8775858 C24.3649596,50.5529165 24.8241952,59.5009252 29.1482454,66.767778 C31.643876,71.0501585 35.053496,74.7230676 39.1315363,77.5219733 C42.8877106,80.1629975 47.1807123,81.9326735 51.7004278,82.7031651 C56.0610636,83.409457 60.5756043,82.8887601 64.2795796,81.0121891 C66.0811984,80.1227431 67.7216533,78.9360102 69.1327108,77.5013516 C70.4189886,76.186222 71.5405437,74.7180796 72.4724448,73.1295599 C74.2486074,70.2471703 75.1687798,66.9150223 75.1247374,63.5250221 C75.0245081,60.6716692 74.1595699,57.8984346 72.6212195,55.4980412 C69.8047617,51.2242024 66.023834,49.3115435 63.3869318,48.796002 C62.3528528,48.5744295 61.2873787,48.5429891 60.2421439,48.7032045 C59.9911317,48.7432255 59.7427294,48.7983152 59.4982707,48.8681778 L59.2571532,48.9300428 C59.0889645,48.9714864 58.9441133,49.0785114 58.8545933,49.2274787 C58.7650732,49.3764459 58.73825,49.5550984 58.7800483,49.7239767 C58.8700217,50.0539603 59.1928919,50.262859 59.5290517,50.2085857" id="Path" fill="#FFE2B6"></path>
                    <path d="M75.0553186,71.6288707 C72.0714042,77.5262189 66.3093625,81.8260445 59.9453932,83.3872598 C56.3441172,84.2741961 52.4032923,84.3053167 49.0129481,82.7648484 C45.3087784,81.0843376 42.6181108,77.7233159 40.5499494,74.2015046 C39.0603367,71.8097651 37.9884382,69.1782725 37.3808264,66.4213619 C34.7518949,52.8372326 46.0856251,37.6452072 60.5318868,40.306016 C73.4861912,42.6815529 80.7299007,60.3476637 75.0347399,71.623684" id="Path" fill="#176A84"></path>
                    <path d="M59.508531,50.2137411 L59.7547787,50.1673423 C59.9850571,50.1188263 60.2180523,50.0843936 60.4524804,50.064234 C61.3167771,50.0065995 62.1844939,50.0990302 63.0175603,50.337471 C65.223529,50.9045667 68.4606599,52.8636243 70.6101968,56.7095637 C71.7576616,58.7998268 72.3313233,61.1591482 72.2723686,63.5456437 C72.1352132,66.3350226 71.2078845,69.0269614 69.5995553,71.304543 C67.8655613,73.8255409 65.5929005,76.1248559 62.6020174,77.3466892 C59.4117939,78.6309729 55.9027731,78.8850391 52.5622947,78.0736026 C45.4878043,76.5269782 38.3312314,71.1705022 34.6067354,63.8188807 C32.7144233,60.1763006 31.9972317,56.032148 32.5546715,51.9614267 C33.1446399,47.9247369 35.2326149,44.0787975 38.2491489,40.7896428 C39.0032823,39.9647764 39.8241079,39.175998 40.6654541,38.4078412 L41.9890353,37.2891162 L43.2869658,36.2580332 C43.7999817,35.907465 44.3694295,35.4744102 44.8260137,35.1908623 C45.2825979,34.9073145 45.6673599,34.6443884 46.1803759,34.3763068 C47.1497086,33.8290685 48.1539909,33.3468444 49.1866495,32.9327907 C53.3944129,31.2609517 57.9525857,30.6777391 62.4429824,31.2366592 C71.5951875,32.3038301 80.4344528,37.6654614 86.3033556,45.0944142 C89.2356637,48.7644517 91.4152072,52.9820416 92.7160554,57.5034976 C93.9487024,61.9036246 94.2768587,66.5099053 93.6805254,71.0416169 C93.0465286,75.5300318 91.6587637,79.8776867 89.5763976,83.8992214 C89.0633816,84.9303043 88.5503656,85.9098331 87.9296163,86.8790511 C87.632067,87.3688155 87.3704289,87.8688908 87.0472288,88.3431889 L86.2058826,89.6578197 L85.1182887,91.2044441 L84.2256409,92.3180137 C83.55359,93.1222585 82.8507581,93.8646382 82.1376659,94.6173287 C79.2754727,97.494408 75.8989462,99.8031483 72.1851559,101.422476 C68.4574422,102.988008 64.5124948,103.968667 60.4883915,104.33013 C56.5126881,104.686892 52.508929,104.569216 48.56077,103.979562 C44.7638997,103.463273 41.0288707,102.561624 37.4129328,101.288435 C34.0366119,100.104511 30.75709,98.6583474 27.6040673,96.9630425 C24.7432994,95.3918136 21.9999838,93.6136644 19.3958116,91.6426544 C15.1165084,88.3823584 11.3168668,84.5310351 8.10946008,80.202789 C6.01774034,77.3460587 4.21658017,74.2855932 2.73305262,71.0673939 C2.22003664,69.9332027 1.85579529,69.0464713 1.63006826,68.4432878 L1.26069676,67.525624 L1.26069676,67.4998469 C1.19681301,67.33722 1.07085715,67.2070252 0.91089154,67.1382694 C0.750925928,67.0695135 0.570240183,67.0679087 0.409090231,67.1338124 C0.137486578,67.2465896 -0.0275768436,67.5258492 0.00380760777,67.8194826 C0.00380760777,67.8194826 0.0448488861,68.15974 0.121801283,68.8505656 C0.19875368,69.5413912 0.347528314,70.5002983 0.573255345,71.789152 C0.874823038,73.3680505 1.26881975,74.9276952 1.7531921,76.4599578 C2.39069942,78.5643108 3.18645638,80.6169231 4.13358624,82.6000568 C5.3084954,85.0847981 6.66843377,87.4768369 8.20180295,89.7557726 C10.0555576,92.431801 12.113842,94.9587172 14.3579947,97.3136107 C16.9389943,99.9994976 19.7586026,102.442993 22.7817171,104.613678 C26.1316677,107.073119 29.7164371,109.192086 33.4832304,110.939372 C41.3528955,114.615183 50.7718689,117.280532 61.2168742,116.976363 C63.8779431,116.890761 66.5289945,116.606429 69.1481013,116.125719 C71.8778246,115.590018 74.5557066,114.815474 77.1511505,113.810938 C82.6313986,111.699273 87.6065811,108.449308 91.7515853,104.273421 C92.8079349,103.210858 93.8030932,102.088591 94.7322082,100.91209 C95.209313,100.314062 95.6966782,99.6387028 96.1686529,98.9994313 L97.2665071,97.3703202 L97.425542,97.1383266 L97.4922341,97.0249075 L97.6358786,96.7929138 L97.9129072,96.3392373 L98.4720946,95.4215735 C98.8568566,94.8183899 99.190317,94.1739631 99.5494282,93.5450025 C100.242,92.2819258 100.87814,90.9672951 101.478368,89.6268872 C103.98912,84.1532132 105.487602,78.2660402 105.900566,72.2531393 C106.305042,66.1003835 105.472815,59.9287642 103.45348,54.1060792 C101.430501,48.3439155 98.3369227,43.0202789 94.3371858,38.418152 C86.4726509,29.2930678 75.3196835,23.0601713 63.3202398,22.1218858 C57.3329596,21.6212298 51.3177762,22.6683318 45.8469155,25.1635806 C44.5099109,25.7829701 43.2143799,26.4890316 41.9685147,27.2773006 C41.3528955,27.6381797 40.7064954,28.1279441 40.0806159,28.5558435 C39.4547364,28.9837429 39.0545839,29.3600882 38.5159172,29.7622106 L36.8486152,31.1902605 L35.3095673,32.6183104 C34.3194465,33.6133054 33.3601066,34.6340775 32.4674588,35.7115592 C30.6513035,37.8933553 29.1235279,40.3020035 27.9221372,42.8775858 C24.3649596,50.5529165 24.8241952,59.5009252 29.1482454,66.767778 C31.643876,71.0501585 35.053496,74.7230676 39.1315363,77.5219733 C42.8877106,80.1629975 47.1807123,81.9326735 51.7004278,82.7031651 C56.0610636,83.409457 60.5756043,82.8887601 64.2795796,81.0121891 C66.0811984,80.1227431 67.7216533,78.9360102 69.1327108,77.5013516 C70.4189886,76.186222 71.5405437,74.7180796 72.4724448,73.1295599 C74.2486074,70.2471703 75.1687798,66.9150223 75.1247374,63.5250221 C75.0245081,60.6716692 74.1595699,57.8984346 72.6212195,55.4980412 C69.8047617,51.2242024 66.023834,49.3115435 63.3869318,48.796002 C62.3528528,48.5744295 61.2873787,48.5429891 60.2421439,48.7032045 C59.9911317,48.7432255 59.7427294,48.7983152 59.4982707,48.8681778 L59.2571532,48.9300428 C59.0889645,48.9714864 58.9441133,49.0785114 58.8545933,49.2274787 C58.7650732,49.3764459 58.73825,49.5550984 58.7800483,49.7239767 C58.8700217,50.0539603 59.1928919,50.262859 59.5290517,50.2085857" id="Path" fill="#7BCFDF"></path>
                </g>
                <g id="gift2-copy-2" transform="translate(98.551505, 165.088175)">
                    <path d="M32.2514922,39 L40.6290299,32.7106874 L40.7884235,32.9278858 C50.4769089,29.644203 57.8603849,21.6498876 60.412583,11.680208 C60.6798016,10.5989373 61.1579823,7.97839037 59.8968979,6.95850183 C58.9124083,6.14636837 57.140327,6.53354828 55.8089221,7.15681349 C51.2427655,9.29574639 47.712667,14.0221743 45.0264168,21.6005127 C44.0137989,24.4335364 42.7198983,28.1872928 41.6885283,31.9174407 L38.5100332,31.1950197 C39.8880265,23.0952578 38.7211204,14.7642731 35.1721447,7.36456856 C34.6621031,6.14390521 33.9090141,5.0415145 32.9593871,4.12547812 C32.1061627,3.39833537 31.0419764,3.10558959 30.2496966,3.37472684 C29.0214286,3.7996804 28.3322859,5.4853295 27.9713064,6.82629406 C26.2169322,13.5200685 27.7892478,20.6550887 32.1905476,25.9728126 C33.0437719,26.9832578 33.981381,27.9134339 34.9799348,28.9002705 C36.3973006,30.2312984 37.7048841,31.6761778 38.8897649,33.2206316 L36.2550832,35.1706963 C35.1754951,33.7701874 33.9838766,32.4610498 32.6921685,31.2564019 C31.6889267,30.2601219 30.6481805,29.2355116 29.7011953,28.1070238 C24.606748,21.9641487 22.7842474,13.71545 24.8115636,5.97638695 C25.6366596,2.90727793 27.108706,0.985543509 29.1855102,0.272565875 C31.0607285,-0.369586166 33.3156785,0.140358102 35.0549435,1.61825214 C36.3610123,2.82365322 37.3980627,4.29463899 38.0974852,5.93389159 C40.2344822,10.3865507 41.5860394,15.179725 42.0917002,20.0990101 C45.0873614,11.8926848 49.1237688,6.68936458 54.4306366,4.20102542 C57.3606652,2.82700892 60.10786,2.91199963 61.9596381,4.44183244 C63.9239292,6.05665595 64.4818067,8.84718431 63.5817019,12.51595 C60.6954359,23.782829 52.2526497,32.7590428 41.2384759,36.2708538 L32.2514922,39 Z" id="Path" fill="#4A7865"></path>
                    <polygon id="Path" fill="#D43D4F" points="11 87.8938935 16.5085044 33 67 35.2895915 52.886217 98"></polygon>
                    <g id="Group" transform="translate(15.000000, 34.000000)">
                        <polygon id="Path" fill="#4A7865" points="12.2470866 58.6535433 21.9054331 3.16535433 28.9993701 3.72283465 18.3654331 59.9385827"></polygon>
                        <path d="M0.454496794,8.88574452 C1.84819758,8.88574452 45.4265569,14.5276733 49,15 L51,6.5863682 L1.42139858,0 L0.454496794,8.88574452 Z" id="Path" fill="#312841" opacity="0.2" style="mix-blend-mode: multiply;"></path>
                    </g>
                    <polygon id="Path" fill="#BD3846" points="12.3173667 26 12 37.858325 67.2824859 45 69 33.9373119"></polygon>
                    <polygon id="Path" fill="#4A7865" points="36.137558 28 34 42.0655152 43.8485317 44 46 29.1340083"></polygon>
                    <path d="M0,53.7411421 L0.563324538,50.5650983 C6.52179261,51.546483 12.5399802,49.1930932 16.262533,44.4259815 C18.3403694,41.6897688 19.494723,38.4072396 20.73219,34.9302587 C21.507342,32.5811852 22.4327445,30.2846697 23.5026385,28.0550034 C24.9340369,25.2215649 27.487467,21.7075456 31.5,21.0778926 C34.1334206,20.722414 36.7841677,21.5958566 38.6939314,23.448351 C40.4782084,25.2014715 41.6396165,27.4931113 42,29.9717413 L38.8278364,30.490279 C38.5785983,28.712384 37.7583968,27.0643296 36.4914248,25.7956603 C35.2988312,24.6351139 33.649685,24.0725941 31.9986807,24.263196 C29.3298153,24.6798782 27.4643799,27.3512736 26.3700528,29.5133909 C25.365003,31.6166465 24.4936501,33.7815433 23.7612137,35.995113 C22.505277,39.5508005 21.2031662,43.2268629 18.8205805,46.3658683 C14.3571424,52.0807567 7.14535216,54.9068612 0,53.7411421 Z" id="Path" fill="#4A7865"></path>
                </g>
            </g>
        </g>
    </g>
</svg>