<svg xmlns="http://www.w3.org/2000/svg" viewBox="0 0 600 450"><title>bg</title><rect width="600" height="450" style="fill:#016177;opacity:0.9500000000000001"/><g style="opacity:0.30000000000000004"><circle cx="85.25" cy="122.52" r="6.91" style="fill:#fff"/><circle cx="127.77" cy="304.84" r="6.91" style="fill:#fff"/><circle cx="165.98" cy="228.99" r="5.5" style="fill:#fff"/><circle cx="64.83" cy="280.55" r="2.73" style="fill:#fff"/><circle cx="367.38" cy="109" r="5.5" style="fill:#fff"/><circle cx="227.17" cy="266.1" r="6.91" style="fill:#fff"/><circle cx="277.06" cy="167.19" r="6.91" style="fill:#fff"/><circle cx="388.44" cy="167.19" r="3.85" style="fill:#fff"/><circle cx="202.15" cy="121.58" r="2.73" style="fill:#fff"/><circle cx="333.98" cy="235.99" r="5.5" style="fill:#fff"/><circle cx="355.56" cy="273.01" r="3.85" style="fill:#fff"/><circle cx="216.15" cy="340.58" r="2.73" style="fill:#fff"/><circle cx="31.16" cy="196.3" r="5.5" style="fill:#fff"/><circle cx="476.13" cy="136.43" r="6.91" style="fill:#fff"/><circle cx="462.15" cy="159.58" r="2.73" style="fill:#fff"/><circle cx="581.24" cy="87.08" r="5.5" style="fill:#fff"/><circle cx="555.83" cy="116.55" r="2.73" style="fill:#fff"/><circle cx="467.65" cy="24.51" r="5.5" style="fill:#fff"/><circle cx="318.15" cy="32.75" r="6.91" style="fill:#fff"/><circle cx="56.6" cy="16.56" r="5.5" style="fill:#fff"/><circle cx="219.04" cy="38.16" r="2.73" style="fill:#fff"/><circle cx="469.22" cy="313.35" r="5.5" style="fill:#fff"/><circle cx="540.26" cy="234.49" r="6.91" style="fill:#fff"/><circle cx="447.45" cy="223.72" r="3.85" style="fill:#fff"/><circle cx="388.44" cy="354.3" r="3.85" style="fill:#fff"/><circle cx="51.1" cy="391.31" r="6.91" style="fill:#fff"/><circle cx="418.83" cy="306.55" r="2.73" style="fill:#fff"/><circle cx="547.17" cy="384.4" r="5.5" style="fill:#fff"/><circle cx="309.06" cy="365.07" r="6.91" style="fill:#fff"/><circle cx="454.15" cy="405.79" r="2.73" style="fill:#fff"/><circle cx="162.66" cy="389.9" r="5.5" style="fill:#fff"/><circle cx="263.02" cy="408.52" r="5.5" style="fill:#fff"/></g><path d="M70.64,104a7.35,7.35,0,0,1-1.88.09,7.11,7.11,0,0,1-4.87-2.49L53.14,88.92l-5.57,15.63a7.14,7.14,0,1,1-13.46-4.79l5.51-15.49-2-11.13L22.65,69.65a7.15,7.15,0,0,1,3.26-13.92l11,2.57a12.47,12.47,0,1,1,20.53-3.77l9.37-6.31a7.1,7.1,0,0,1,5.36-1.08,7,7,0,0,1,4.56,3h0a7.14,7.14,0,0,1-1.94,9.92L62.08,68.64l2,11.13L74.78,92.29A7.16,7.16,0,0,1,74,102.37,7.21,7.21,0,0,1,70.64,104Z" style="fill:#8b5e3c"/><path d="M70.64,104a7.35,7.35,0,0,1-1.88.09,7.11,7.11,0,0,1-4.87-2.49L53.14,88.92l-5.57,15.63a7.14,7.14,0,1,1-13.46-4.79l5.51-15.49-2-11.13L22.65,69.65a7.15,7.15,0,0,1,3.26-13.92l11,2.57a12.47,12.47,0,1,1,20.53-3.77l9.37-6.31a7.1,7.1,0,0,1,5.36-1.08,7,7,0,0,1,4.56,3h0a7.14,7.14,0,0,1-1.94,9.92L62.08,68.64l2,11.13L74.78,92.29A7.16,7.16,0,0,1,74,102.37,7.21,7.21,0,0,1,70.64,104ZM52.14,83.49a1.83,1.83,0,0,1,1.73.62L66.69,99.17A3.47,3.47,0,0,0,72,94.68L61,81.78a1.86,1.86,0,0,1-.41-.86l-2.35-12.8A1.85,1.85,0,0,1,59,66.26L72.74,57a3.47,3.47,0,0,0,.94-4.82,3.44,3.44,0,0,0-2.21-1.46,3.4,3.4,0,0,0-2.6.52l-11.7,7.88a1.9,1.9,0,0,1-.69.28l-4,.73a1.84,1.84,0,0,1-1.4-3.3,8.79,8.79,0,1,0-7.4,1.36,1.84,1.84,0,0,1-.14,3.58l-4,.74a2,2,0,0,1-.76,0L25.07,59.31A3.49,3.49,0,0,0,20.9,61.9a3.47,3.47,0,0,0,2.59,4.17l16.1,3.76A1.83,1.83,0,0,1,41,71.29l2.35,12.8a1.82,1.82,0,0,1-.08,1L37.57,101a3.43,3.43,0,0,0,.14,2.65,3.39,3.39,0,0,0,2,1.78,3.44,3.44,0,0,0,2.65-.13,3.48,3.48,0,0,0,1.78-2l6.63-18.64A1.83,1.83,0,0,1,52.14,83.49Z" style="fill:#754c29"/><path d="M26.12,70.19a1.81,1.81,0,0,1-1.53-.41,1.85,1.85,0,0,1-.2-2.6,9.14,9.14,0,0,0,2.05-4.25,9.25,9.25,0,0,0-.21-4.25,1.84,1.84,0,0,1,3.53-1,12.73,12.73,0,0,1-2.58,11.93A1.8,1.8,0,0,1,26.12,70.19Z" style="fill:#fff"/><path d="M71.75,61.82a1.88,1.88,0,0,1-1.22-.2,12.78,12.78,0,0,1-6.64-10.24,1.84,1.84,0,0,1,3.67-.29,9.21,9.21,0,0,0,1.31,4,9,9,0,0,0,3.43,3.25,1.85,1.85,0,0,1-.55,3.43Z" style="fill:#fff"/><path d="M47.4,102.45a1.83,1.83,0,0,1-1.62-.5,9.17,9.17,0,0,0-4.11-2.34,9.28,9.28,0,0,0-4.25-.08,1.84,1.84,0,1,1-.79-3.59,12.75,12.75,0,0,1,11.73,3.39,1.84,1.84,0,0,1,0,2.6A1.88,1.88,0,0,1,47.4,102.45Z" style="fill:#fff"/><path d="M63.31,99.53a1.77,1.77,0,0,1-1.1-.14A1.84,1.84,0,0,1,61.3,97a12.77,12.77,0,0,1,9.76-7.34,1.84,1.84,0,1,1,.54,3.64,9.07,9.07,0,0,0-6.95,5.23A1.84,1.84,0,0,1,63.31,99.53Z" style="fill:#fff"/><path d="M50,66.81l-1.7.31a1.84,1.84,0,0,1-.66-3.62l1.69-.31A1.84,1.84,0,0,1,50,66.81Z" style="fill:#fff"/><path d="M51,72.49l-1.69.31a1.84,1.84,0,1,1-.67-3.62l1.69-.31A1.84,1.84,0,1,1,51,72.49Z" style="fill:#fff"/><path d="M52,78.17l-1.69.31a1.84,1.84,0,1,1-.67-3.61l1.7-.32A1.84,1.84,0,1,1,52,78.17Z" style="fill:#fff"/><path d="M47.26,56.88a7.22,7.22,0,0,1-5.44-1.16,1.83,1.83,0,0,1-.47-2.56,1.85,1.85,0,0,1,2.56-.47,3.58,3.58,0,0,0,5-.91,1.84,1.84,0,1,1,3,2.09A7.21,7.21,0,0,1,47.26,56.88Z" style="fill:#fff"/><path d="M44.08,47.41a2.29,2.29,0,1,1-2.67-1.83A2.3,2.3,0,0,1,44.08,47.41Z" style="fill:#fff"/><path d="M46.87,46.9a2.29,2.29,0,1,0,1.84-2.66A2.29,2.29,0,0,0,46.87,46.9Z" style="fill:#fff"/><path d="M518.18,423.07a2,2,0,0,1,.8.41l7.12,6.22h1l-.9-.05.6-9.43a1.9,1.9,0,0,1,.92-1.5l8.11-4.85.32-1-.33.83-8.79-3.48a1.91,1.91,0,0,1-1.14-1.34l-2.11-9.21s0-.05-.06-.06l-6.12,7.3a1.89,1.89,0,0,1-1.62.68l-9.41-.85-.84.62.76-.48,5.05,8a1.85,1.85,0,0,1,.14,1.75L508,425.3l.11.12,9.15-2.34A1.87,1.87,0,0,1,518.18,423.07Z" style="fill:#fbb040"/><path d="M507.66,427.17a1.91,1.91,0,0,1-1-.61,1.86,1.86,0,0,1-.3-2l3.71-8.69L505,407.84a1.89,1.89,0,0,1,1.76-2.89l9.41.84,6.11-7.3a1.89,1.89,0,0,1,3.29.78h0l2.11,9.21,8.83,3.55a1.88,1.88,0,0,1,.27,3.37l-8.11,4.85-.64,9.5a1.89,1.89,0,0,1-3.13,1.3l-7.11-6.21-9.24,2.32A1.83,1.83,0,0,1,507.66,427.17Zm10.52-4.1a2,2,0,0,1,.8.41l7.12,6.22h1l-.9-.05.6-9.43a1.9,1.9,0,0,1,.92-1.5l8.11-4.85.32-1-.33.83-8.79-3.48a1.91,1.91,0,0,1-1.14-1.34l-2.11-9.21s0-.05-.06-.06l-6.12,7.3a1.89,1.89,0,0,1-1.62.68l-9.41-.85-.84.62.76-.48,5.05,8a1.85,1.85,0,0,1,.14,1.75L508,425.3l.11.12,9.15-2.34A1.87,1.87,0,0,1,518.18,423.07Z" style="fill:#f7941d"/><path d="M519.76,408.41a.82.82,0,0,1-.37-.19.9.9,0,0,1-.12-1.26l1.69-2a.9.9,0,0,1,1.39,1.15l-1.69,2A.92.92,0,0,1,519.76,408.41Z" style="fill:#f7941d"/><path d="M511.7,410.43a.9.9,0,0,1,.29-1.77l2.58.23a.9.9,0,1,1-.16,1.79l-2.58-.23Z" style="fill:#f7941d"/><path d="M63.09,339.87a11.09,11.09,0,0,0-6.9,14.06c2.19,6.41,15.4,18.21,17.77,17.72,2.15-1,5.38-18.46,3.19-24.88A11.1,11.1,0,0,0,63.09,339.87Z" style="fill:#be1e2d"/><path d="M67.42,339.15a1.18,1.18,0,0,1-1.51-.74l-1.35-4-5.94,2,1.35,4a1.19,1.19,0,0,1-2.26.77L56,336.12a1.19,1.19,0,0,1,.75-1.51l8.2-2.8a1.19,1.19,0,0,1,1.51.74l1.74,5.09A1.19,1.19,0,0,1,67.42,339.15Z" style="fill:#1d1d1b"/><path d="M60.68,332.82a1.17,1.17,0,0,1-1-.11c-.91-.56-3.93-2.52-4.49-4.18a3.82,3.82,0,1,1,7.24-2.47c.56,1.65-.63,5.05-1,6.05A1.18,1.18,0,0,1,60.68,332.82Zm-2.35-6.89a1.45,1.45,0,0,0-.9,1.83,8,8,0,0,0,2.23,2.07,8.05,8.05,0,0,0,.5-3A1.45,1.45,0,0,0,58.33,325.93Z" style="fill:#1d1d1b"/><path d="M74.72,373.91C70.17,375.47,56,360.72,53.93,354.7A13.46,13.46,0,1,1,79.41,346C81.46,352,79.27,372.36,74.72,373.91Zm-11.63-34a11.09,11.09,0,0,0-6.9,14.06c2.19,6.41,15.4,18.21,17.77,17.72,2.15-1,5.38-18.46,3.19-24.88A11.1,11.1,0,0,0,63.09,339.87Z" style="fill:#1d1d1b"/><path d="M61.59,355.88a1.19,1.19,0,0,1-1.39-.48A11.66,11.66,0,0,1,59,353a8.18,8.18,0,0,1,.58-6.58,1.22,1.22,0,0,1,1.63-.47,1.21,1.21,0,0,1,.46,1.63,5.81,5.81,0,0,0-.41,4.65,9.15,9.15,0,0,0,1,1.88,1.19,1.19,0,0,1-.35,1.65A.91.91,0,0,1,61.59,355.88Z" style="fill:#ea003d"/><path d="M64.75,359.91a1.18,1.18,0,0,1-1.27-.34L63,359a1.19,1.19,0,1,1,1.8-1.56l.47.53a1.19,1.19,0,0,1-.1,1.68A1.14,1.14,0,0,1,64.75,359.91Z" style="fill:#ea003d"/><path d="M46.49,334.58a11.45,11.45,0,0,0-16-2.52c-5.66,4.12-13.27,20.77-12.06,22.95,1.69,1.8,19.86-.32,25.52-4.44A11.48,11.48,0,0,0,46.49,334.58Z" style="fill:#006838"/><path d="M48.52,338.64a1.24,1.24,0,0,1,.27-1.73l3.49-2.54-3.81-5.24L45,331.67a1.24,1.24,0,0,1-1.45-2L48,326.41a1.24,1.24,0,0,1,1.73.27L55,333.92a1.23,1.23,0,0,1-.27,1.72l-4.49,3.27A1.23,1.23,0,0,1,48.52,338.64Z" style="fill:#1d1d1b"/><path d="M16.45,356.45c-2.92-4,7.3-22.51,12.61-26.38a13.91,13.91,0,0,1,16.36,22.49C40.1,356.43,19.37,360.47,16.45,356.45Zm30-21.87a11.45,11.45,0,0,0-16-2.52c-5.66,4.12-13.27,20.77-12.06,22.95,1.69,1.8,19.86-.32,25.52-4.44A11.48,11.48,0,0,0,46.49,334.58Z" style="fill:#1d1d1b"/><path d="M30.23,338a1.25,1.25,0,0,1,.05-1.52,11.76,11.76,0,0,1,2-2A8.43,8.43,0,0,1,39,333.07a1.23,1.23,0,1,1-.5,2.41,6,6,0,0,0-4.72,1,9.85,9.85,0,0,0-1.55,1.56,1.25,1.25,0,0,1-1.74.16A1.45,1.45,0,0,1,30.23,338Z" style="fill:#39b54a"/><path d="M27.22,342.34a1.22,1.22,0,0,1,0-1.36l.39-.65a1.23,1.23,0,1,1,2.1,1.3l-.38.62a1.25,1.25,0,0,1-1.7.42A1.42,1.42,0,0,1,27.22,342.34Z" style="fill:#39b54a"/><path d="M503.61,111.63a2.07,2.07,0,0,1-1.7-1.23l-3.07-6.91-7,2.92a2.08,2.08,0,0,1-2.74-2.69l6.13-15.41a2.08,2.08,0,1,1,3.87,1.54l-4.3,10.81,4.28-1.8a2.09,2.09,0,0,1,2.71,1.08l1.88,4.24,3.86-9.72A2.08,2.08,0,1,1,511.44,96l-5.69,14.32a2.1,2.1,0,0,1-1.9,1.32Z" style="fill:#be1e2d"/><path d="M526,113.76a1.6,1.6,0,0,1-.23,0,2.1,2.1,0,0,1-1.62-1.65L521.3,96.94A2.1,2.1,0,0,1,523,94.5a2.07,2.07,0,0,1,2.43,1.66l2,10.27,2.65-3.81a2.08,2.08,0,0,1,2.86-.54l3.87,2.56-2.19-11.42a2.09,2.09,0,1,1,4.1-.78l3.11,16.29a2.09,2.09,0,0,1-.9,2.12,2.05,2.05,0,0,1-2.3,0l-6.29-4.18L528,112.88A2.09,2.09,0,0,1,526,113.76Z" style="fill:#be1e2d"/><path d="M516,100.21a13.91,13.91,0,0,1-11.22-7.81A13.93,13.93,0,0,1,489.62,74a13.93,13.93,0,0,1,2.26-23.72,13.93,13.93,0,0,1,18.36-15.17A13.93,13.93,0,0,1,534,37.41a13.93,13.93,0,0,1,15.17,18.36,13.93,13.93,0,0,1-2.26,23.72,13.92,13.92,0,0,1-18.36,15.17A13.93,13.93,0,0,1,516,100.21Z" style="fill:#006838"/><path d="M505.06,54.67a6.4,6.4,0,0,1-5.75-7,6.3,6.3,0,0,1,2.29-4.31,6.39,6.39,0,0,1,9,.85h0a6.39,6.39,0,0,1-5.53,10.42Zm.81-8.57a2.23,2.23,0,0,0-1.62.5,2.17,2.17,0,0,0-.79,1.5,2.2,2.2,0,0,0,.49,1.62,2.28,2.28,0,0,0,3.13.3,2.21,2.21,0,0,0,.79-1.5,2.16,2.16,0,0,0-.5-1.62A2.2,2.2,0,0,0,505.87,46.1Z" style="fill:#be1e2d"/><path d="M497.34,69.22a6.38,6.38,0,1,1,7-5.75A6.39,6.39,0,0,1,497.34,69.22Zm.82-8.56a2.22,2.22,0,1,0,2,2.42A2.21,2.21,0,0,0,498.16,60.66Z" style="fill:#f15a29"/><path d="M502.17,85a6.38,6.38,0,0,1,1.21-12.71h0A6.38,6.38,0,1,1,502.17,85Zm.82-8.56a2.16,2.16,0,0,0-1.62.5h0a2.22,2.22,0,0,0-.8,1.5,2.17,2.17,0,0,0,.5,1.62A2.22,2.22,0,1,0,503,76.41ZM500,75.3h0Z" style="fill:#f9ed32"/><path d="M516.73,92.69a6.38,6.38,0,1,1,7-5.75A6.39,6.39,0,0,1,516.73,92.69Zm.82-8.56a2.21,2.21,0,1,0,2,2.42A2.21,2.21,0,0,0,517.55,84.13Z" style="fill:#1b75bc"/><path d="M532.48,87.85a6.36,6.36,0,0,1-4.31-2.28h0a6.38,6.38,0,0,1,.85-9,6.54,6.54,0,0,1,9,.86,6.38,6.38,0,0,1-5.53,10.41Zm-1.1-4.93a2.22,2.22,0,0,0,3.12.29,2.21,2.21,0,0,0,.3-3.12,2.29,2.29,0,0,0-3.13-.3,2.23,2.23,0,0,0-.29,3.13Z" style="fill:#be1e2d"/><path d="M540.2,73.3a6.38,6.38,0,1,1,7-5.75A6.39,6.39,0,0,1,540.2,73.3Zm.82-8.56a2.22,2.22,0,1,0,2,2.42A2.21,2.21,0,0,0,541,64.74Z" style="fill:#f15a29"/><path d="M535.37,57.55a6.38,6.38,0,0,1-5.75-7,6.28,6.28,0,0,1,2.29-4.31,6.38,6.38,0,1,1,3.46,11.27Zm.81-8.56a2.14,2.14,0,0,0-1.62.5,2.2,2.2,0,0,0-.8,1.49,2.24,2.24,0,0,0,.5,1.63,2.28,2.28,0,0,0,3.12.3h0a2.22,2.22,0,0,0,.79-1.5,2.21,2.21,0,0,0-2-2.41Z" style="fill:#f9ed32"/><path d="M520.81,49.83a6.38,6.38,0,1,1,7-5.75A6.4,6.4,0,0,1,520.81,49.83Zm.82-8.56a2.21,2.21,0,1,0,2,2.41A2.21,2.21,0,0,0,521.63,41.27Z" style="fill:#1b75bc"/><path d="M518.1,78.28a13.44,13.44,0,1,1,14.65-12.1A13.45,13.45,0,0,1,518.1,78.28Zm2.15-22.6a9.27,9.27,0,1,0,8.35,10.11A9.27,9.27,0,0,0,520.25,55.68Z" style="fill:#009444"/></svg>