<svg id="Illustrations" xmlns="http://www.w3.org/2000/svg" viewBox="0 0 600 450"><title>bg</title><g id="December_6" data-name="December 6"><rect id="Illustration_Area_BG" data-name="Illustration Area BG" width="600" height="450" style="fill:#016177;opacity:0.9500000000000001"/><g id="Snowflakes" style="opacity:0.30000000000000004"><g id="Upper_Left" data-name="Upper Left" style="opacity:0.30000000000000004"><circle cx="85.25" cy="122.52" r="6.91" style="fill:#fff"/><circle cx="127.77" cy="304.84" r="6.91" style="fill:#fff"/><circle cx="165.98" cy="228.99" r="5.5" style="fill:#fff"/><circle cx="64.83" cy="280.55" r="2.73" style="fill:#fff"/><circle cx="367.38" cy="109" r="5.5" style="fill:#fff"/><circle cx="227.17" cy="266.1" r="6.91" style="fill:#fff"/><circle cx="277.06" cy="167.19" r="6.91" style="fill:#fff"/><circle cx="388.44" cy="167.19" r="3.85" style="fill:#fff"/><circle cx="202.15" cy="121.58" r="2.73" style="fill:#fff"/><circle cx="333.98" cy="235.99" r="5.5" style="fill:#fff"/><circle cx="355.56" cy="273.01" r="3.85" style="fill:#fff"/><circle cx="216.15" cy="340.58" r="2.73" style="fill:#fff"/><circle cx="31.16" cy="196.3" r="5.5" style="fill:#fff"/><circle cx="476.13" cy="136.43" r="6.91" style="fill:#fff"/><circle cx="462.15" cy="159.58" r="2.73" style="fill:#fff"/><circle cx="581.24" cy="87.08" r="5.5" style="fill:#fff"/><circle cx="555.83" cy="116.55" r="2.73" style="fill:#fff"/><circle cx="467.65" cy="24.51" r="5.5" style="fill:#fff"/><circle cx="318.15" cy="32.75" r="6.91" style="fill:#fff"/><circle cx="56.6" cy="16.56" r="5.5" style="fill:#fff"/><circle cx="219.04" cy="38.16" r="2.73" style="fill:#fff"/><circle cx="469.22" cy="313.35" r="5.5" style="fill:#fff"/><circle cx="540.26" cy="234.49" r="6.91" style="fill:#fff"/><circle cx="447.45" cy="223.72" r="3.85" style="fill:#fff"/><circle cx="388.44" cy="354.3" r="3.85" style="fill:#fff"/><circle cx="51.1" cy="391.31" r="6.91" style="fill:#fff"/><circle cx="418.83" cy="306.55" r="2.73" style="fill:#fff"/><circle cx="547.17" cy="384.4" r="5.5" style="fill:#fff"/><circle cx="309.06" cy="365.07" r="6.91" style="fill:#fff"/><circle cx="454.15" cy="405.79" r="2.73" style="fill:#fff"/><circle cx="162.66" cy="389.9" r="5.5" style="fill:#fff"/><circle cx="263.02" cy="408.52" r="5.5" style="fill:#fff"/></g><g id="Snowflakes-2" data-name="Snowflakes"><path d="M524.15,155.44l-1.29-1.29a.54.54,0,0,1,0-.78l2-2v-3l-2.63,1.52-.72,2.71a.55.55,0,0,1-.67.39l-1.77-.47a.54.54,0,0,1-.33-.26.53.53,0,0,1-.05-.41l.5-1.89-1.89-.51a.52.52,0,0,1-.33-.25.56.56,0,0,1-.05-.42l.47-1.76a.56.56,0,0,1,.67-.39l2.71.73,2.63-1.52-2.63-1.52L518,145a.54.54,0,0,1-.67-.39l-.47-1.76a.53.53,0,0,1,.05-.41.54.54,0,0,1,.33-.26l1.89-.5-.5-1.89a.53.53,0,0,1,.38-.67l1.77-.47a.54.54,0,0,1,.67.38l.72,2.72,2.63,1.51v-3l-2-2a.53.53,0,0,1,0-.77l1.29-1.29a.53.53,0,0,1,.77,0l1.38,1.38,1.38-1.38a.54.54,0,0,1,.78,0l1.29,1.29a.55.55,0,0,1,0,.77l-2,2v3l2.63-1.51.73-2.72a.53.53,0,0,1,.67-.38l1.76.47a.61.61,0,0,1,.34.25.56.56,0,0,1,.05.42l-.51,1.89,1.89.5a.54.54,0,0,1,.33.26.49.49,0,0,1,.06.41l-.47,1.76a.55.55,0,0,1-.68.39l-2.71-.73-2.63,1.52,2.63,1.52,2.71-.73a.56.56,0,0,1,.68.39l.47,1.76a.55.55,0,0,1-.39.67l-1.89.51.51,1.89a.53.53,0,0,1-.05.41.59.59,0,0,1-.34.26l-1.76.47a.52.52,0,0,1-.42-.06.56.56,0,0,1-.25-.33l-.73-2.71-2.63-1.52v3l2,2a.56.56,0,0,1,0,.78l-1.29,1.29a.56.56,0,0,1-.78,0l-1.38-1.38-1.38,1.38a.59.59,0,0,1-.39.16A.55.55,0,0,1,524.15,155.44Zm2.54-2.54,1.38,1.38.52-.52L526.83,152a.55.55,0,0,1-.16-.39V147.4a.55.55,0,0,1,.82-.47l3.65,2.1a.61.61,0,0,1,.25.34l.65,2.4.7-.19-.51-1.89a.58.58,0,0,1,.06-.41.54.54,0,0,1,.33-.26l1.89-.5-.19-.71-2.4.65a.62.62,0,0,1-.42-.06l-3.65-2.1a.55.55,0,0,1,0-1l3.65-2.11a.56.56,0,0,1,.42-.05l2.4.64.19-.7-1.89-.51a.56.56,0,0,1-.33-.25.62.62,0,0,1-.06-.42l.51-1.89-.7-.19-.65,2.41a.56.56,0,0,1-.25.33l-3.65,2.11a.59.59,0,0,1-.55,0,.55.55,0,0,1-.27-.48V140a.57.57,0,0,1,.16-.39l1.76-1.76-.52-.51-1.38,1.38a.55.55,0,0,1-.77,0l-1.39-1.38-.51.51,1.76,1.76a.57.57,0,0,1,.16.39v4.21a.56.56,0,0,1-.28.48.57.57,0,0,1-.54,0l-3.65-2.11a.54.54,0,0,1-.26-.33l-.64-2.41-.71.19.51,1.89a.56.56,0,0,1,0,.42.61.61,0,0,1-.34.25l-1.88.51.19.7,2.4-.64a.53.53,0,0,1,.41.05l3.65,2.11a.54.54,0,0,1,0,1l-3.65,2.1a.58.58,0,0,1-.41.06l-2.4-.65-.19.71,1.88.5a.59.59,0,0,1,.34.26.53.53,0,0,1,0,.41l-.51,1.89.71.19.64-2.4a.59.59,0,0,1,.26-.34l3.65-2.1a.52.52,0,0,1,.54,0,.56.56,0,0,1,.28.47v4.21a.55.55,0,0,1-.16.39L524,153.76l.51.52,1.39-1.38a.51.51,0,0,1,.38-.16A.54.54,0,0,1,526.69,152.9Z" style="fill:#fff"/><path d="M568.19,344.84l-1.29-1.29a.55.55,0,0,1,0-.77l2-2v-3l-2.63,1.51-.73,2.72a.54.54,0,0,1-.67.38l-1.76-.47a.56.56,0,0,1-.33-.25.52.52,0,0,1-.06-.42l.51-1.89-1.89-.5a.54.54,0,0,1-.33-.26.58.58,0,0,1-.06-.41l.48-1.76a.54.54,0,0,1,.67-.39l2.71.73,2.63-1.52-2.63-1.52-2.71.73a.55.55,0,0,1-.67-.39l-.48-1.76a.62.62,0,0,1,.06-.42.49.49,0,0,1,.33-.25l1.89-.51-.51-1.89a.49.49,0,0,1,.06-.41.54.54,0,0,1,.33-.26l1.76-.47a.54.54,0,0,1,.67.39l.73,2.71,2.63,1.52v-3l-2-2a.56.56,0,0,1,0-.78l1.29-1.29a.56.56,0,0,1,.78,0l1.38,1.38,1.38-1.38a.55.55,0,0,1,.77,0l1.3,1.29a.56.56,0,0,1,0,.78l-2,2v3l2.63-1.52.73-2.71a.49.49,0,0,1,.25-.33.52.52,0,0,1,.42-.06l1.76.47a.54.54,0,0,1,.33.26.58.58,0,0,1,.06.41l-.51,1.89,1.89.51a.49.49,0,0,1,.33.25.56.56,0,0,1,0,.42l-.47,1.76a.56.56,0,0,1-.67.39l-2.71-.73-2.63,1.52,2.63,1.52,2.71-.73a.54.54,0,0,1,.67.39l.47,1.76a.53.53,0,0,1,0,.41.54.54,0,0,1-.33.26l-1.89.5.51,1.89a.62.62,0,0,1-.06.42.56.56,0,0,1-.33.25l-1.76.47a.56.56,0,0,1-.42-.05.49.49,0,0,1-.25-.33l-.73-2.72-2.63-1.51v3l2,2a.55.55,0,0,1,0,.77l-1.3,1.29a.53.53,0,0,1-.77,0l-1.38-1.38L569,344.84a.56.56,0,0,1-.78,0Zm2.55-2.54,1.38,1.38.51-.51-1.76-1.76a.59.59,0,0,1-.16-.39v-4.21a.56.56,0,0,1,.28-.48.59.59,0,0,1,.55,0l3.64,2.11a.54.54,0,0,1,.26.33l.64,2.4.71-.18-.51-1.89a.52.52,0,0,1,.06-.42.56.56,0,0,1,.33-.25l1.88-.51-.18-.7-2.41.64a.53.53,0,0,1-.41-.05l-3.65-2.11a.55.55,0,0,1,0-.95l3.65-2.1a.49.49,0,0,1,.41-.06l2.41.65.18-.71-1.88-.5a.54.54,0,0,1-.33-.26.5.5,0,0,1-.06-.41l.51-1.89-.71-.19-.64,2.4a.59.59,0,0,1-.26.34l-3.64,2.1a.54.54,0,0,1-.55,0,.56.56,0,0,1-.28-.47v-4.22a.55.55,0,0,1,.16-.38l1.76-1.76-.51-.52-1.38,1.38a.54.54,0,0,1-.78,0l-1.38-1.38-.52.52,1.76,1.76a.51.51,0,0,1,.16.38v4.22a.55.55,0,0,1-.82.47l-3.64-2.1a.59.59,0,0,1-.26-.34l-.64-2.4-.71.19.51,1.88a.61.61,0,0,1-.06.42.54.54,0,0,1-.33.26l-1.89.5.19.71,2.4-.65a.52.52,0,0,1,.42.06l3.65,2.1a.55.55,0,0,1,0,.95l-3.65,2.11a.56.56,0,0,1-.42.05l-2.4-.64-.19.7,1.89.51a.56.56,0,0,1,.33.25.62.62,0,0,1,.06.42l-.51,1.89.71.18.64-2.4a.54.54,0,0,1,.26-.33l3.64-2.11a.59.59,0,0,1,.55,0,.55.55,0,0,1,.27.48V341a.54.54,0,0,1-.16.39l-1.76,1.76.52.51L570,342.3a.56.56,0,0,1,.78,0Z" style="fill:#fff"/><path d="M130.73,130.9l-.82-.82a.34.34,0,0,1,0-.49l1.26-1.26V126.4l-1.67,1-.46,1.72a.35.35,0,0,1-.43.24l-1.11-.3a.31.31,0,0,1-.21-.16.34.34,0,0,1,0-.26l.32-1.2-1.2-.32a.36.36,0,0,1-.21-.16.42.42,0,0,1,0-.27l.3-1.11a.34.34,0,0,1,.42-.25l1.73.46,1.66-1-1.66-1-1.73.46a.34.34,0,0,1-.42-.25l-.3-1.12a.39.39,0,0,1,0-.26.36.36,0,0,1,.21-.16l1.2-.32-.32-1.2a.34.34,0,0,1,0-.26.36.36,0,0,1,.21-.17l1.11-.3a.36.36,0,0,1,.43.25l.46,1.72,1.67,1v-1.92L129.91,120a.34.34,0,0,1,0-.49l.82-.82a.34.34,0,0,1,.49,0l.88.87.87-.87a.34.34,0,0,1,.49,0l.82.82a.34.34,0,0,1,0,.49L133,121.27v1.92l1.67-1,.46-1.72a.34.34,0,0,1,.16-.21.32.32,0,0,1,.27,0l1.11.29a.41.41,0,0,1,.22.17.39.39,0,0,1,0,.26l-.32,1.2,1.2.32a.34.34,0,0,1,.24.42l-.3,1.12a.34.34,0,0,1-.42.25l-1.72-.46-1.67,1,1.67,1,1.72-.46a.34.34,0,0,1,.42.25l.3,1.11a.36.36,0,0,1,0,.27.34.34,0,0,1-.21.16l-1.2.32.32,1.2a.39.39,0,0,1,0,.26.36.36,0,0,1-.22.16l-1.11.3a.36.36,0,0,1-.27,0,.34.34,0,0,1-.16-.21l-.46-1.72-1.67-1v1.93l1.26,1.26a.34.34,0,0,1,0,.49l-.82.82a.36.36,0,0,1-.49,0l-.87-.88-.88.88a.35.35,0,0,1-.25.1A.33.33,0,0,1,130.73,130.9Zm1.61-1.61.88.87.32-.33-1.11-1.11a.33.33,0,0,1-.1-.25V125.8a.34.34,0,0,1,.17-.3.36.36,0,0,1,.35,0l2.31,1.34a.31.31,0,0,1,.16.21l.41,1.52.45-.12-.32-1.2a.39.39,0,0,1,0-.26.36.36,0,0,1,.21-.16l1.2-.32-.12-.45-1.52.41a.42.42,0,0,1-.27,0l-2.31-1.34a.34.34,0,0,1-.17-.3.33.33,0,0,1,.17-.3l2.31-1.34a.36.36,0,0,1,.27,0l1.52.41.12-.45-1.2-.32a.41.41,0,0,1-.21-.16.42.42,0,0,1,0-.27l.32-1.19-.45-.12-.41,1.52a.31.31,0,0,1-.16.21l-2.31,1.34a.36.36,0,0,1-.35,0,.35.35,0,0,1-.17-.3v-2.68a.31.31,0,0,1,.1-.24l1.11-1.12-.32-.32-.88.87a.34.34,0,0,1-.49,0l-.88-.87-.32.32,1.11,1.12a.31.31,0,0,1,.1.24v2.68a.35.35,0,0,1-.17.3.36.36,0,0,1-.35,0L129,122.76a.31.31,0,0,1-.16-.21l-.41-1.52-.45.12.32,1.19a.36.36,0,0,1,0,.27.37.37,0,0,1-.21.16l-1.2.32.12.45,1.52-.41a.36.36,0,0,1,.27,0l2.31,1.34a.34.34,0,0,1,.18.3.35.35,0,0,1-.18.3l-2.31,1.34a.42.42,0,0,1-.27,0l-1.52-.41-.12.45,1.2.32a.34.34,0,0,1,.21.16.36.36,0,0,1,0,.27l-.32,1.19.45.12.41-1.52a.31.31,0,0,1,.16-.21l2.31-1.34a.36.36,0,0,1,.35,0,.34.34,0,0,1,.17.3v2.67a.33.33,0,0,1-.1.25l-1.11,1.11.32.33.88-.87a.36.36,0,0,1,.25-.11A.35.35,0,0,1,132.34,129.29Z" style="fill:#fff"/><path d="M80.1,200.57l-2.18-2.18a.91.91,0,0,1,0-1.31l3.35-3.36v-5.13l-4.44,2.56-1.23,4.59a.92.92,0,0,1-1.14.65l-3-.8a.92.92,0,0,1-.56-.43.94.94,0,0,1-.09-.7l.86-3.19-3.19-.85a.94.94,0,0,1-.66-1.13l.8-3a.93.93,0,0,1,1.14-.66l4.58,1.23,4.45-2.56-4.45-2.57L69.78,183a.93.93,0,0,1-1.14-.66l-.8-3a.94.94,0,0,1,.66-1.13l3.19-.85-.86-3.19a.94.94,0,0,1,.09-.7.92.92,0,0,1,.56-.43l3-.8a.92.92,0,0,1,1.14.65l1.23,4.59L81.27,180v-5.13l-3.35-3.36a.91.91,0,0,1,0-1.31l2.18-2.18a.93.93,0,0,1,1.31,0l2.33,2.34,2.33-2.34a.93.93,0,0,1,1.31,0l2.18,2.18a.93.93,0,0,1,0,1.31l-3.35,3.36V180l4.44-2.56,1.23-4.59a.92.92,0,0,1,1.13-.65l3,.8a.87.87,0,0,1,.56.43.9.9,0,0,1,.1.7l-.86,3.19,3.19.85a.94.94,0,0,1,.66,1.13l-.8,3a.94.94,0,0,1-1.14.66l-4.58-1.23-4.45,2.57,4.45,2.56,4.58-1.23a.93.93,0,0,1,1.14.66l.8,3a.94.94,0,0,1-.66,1.13l-3.19.85.86,3.19a.9.9,0,0,1-.1.7.92.92,0,0,1-.56.44l-3,.79a.92.92,0,0,1-1.13-.65l-1.23-4.59-4.44-2.56v5.13l3.35,3.36a.93.93,0,0,1,0,1.31l-2.18,2.18a.93.93,0,0,1-1.31,0l-2.33-2.34-2.33,2.34a1,1,0,0,1-.66.27A.91.91,0,0,1,80.1,200.57Zm4.29-4.3,2.34,2.33.87-.87-3-3a.9.9,0,0,1-.27-.66V187a.91.91,0,0,1,.46-.8.89.89,0,0,1,.92,0l6.17,3.55a1,1,0,0,1,.43.57l1.09,4.06,1.19-.32-.86-3.19a.9.9,0,0,1,.1-.7.87.87,0,0,1,.56-.43l3.19-.86-.32-1.19-4.06,1.09a.94.94,0,0,1-.7-.09l-6.17-3.56a.93.93,0,0,1,0-1.61L92.53,180a.94.94,0,0,1,.7-.09L97.29,181l.32-1.19-3.19-.86a.87.87,0,0,1-.56-.43.9.9,0,0,1-.1-.7l.86-3.19-1.19-.32-1.09,4.07a1,1,0,0,1-.43.56l-6.17,3.56a.94.94,0,0,1-.92,0,.92.92,0,0,1-.46-.81v-7.11a.91.91,0,0,1,.27-.66l3-3-.87-.87-2.34,2.33a.93.93,0,0,1-1.31,0L80.75,170l-.87.87,3,3a.91.91,0,0,1,.27.66v7.11a.92.92,0,0,1-.46.81,1,1,0,0,1-.93,0l-6.16-3.56a1,1,0,0,1-.43-.56l-1.09-4.07-1.19.32.85,3.19a.9.9,0,0,1-.09.7.87.87,0,0,1-.56.43l-3.19.86.32,1.19,4.06-1.09a.94.94,0,0,1,.7.09l6.17,3.56a.93.93,0,0,1,0,1.61L75,188.68a.94.94,0,0,1-.7.09l-4.06-1.09-.32,1.19,3.19.86a.87.87,0,0,1,.56.43.9.9,0,0,1,.09.7l-.85,3.19,1.19.32,1.09-4.07a1,1,0,0,1,.43-.56l6.16-3.55a.93.93,0,0,1,1.39.8v7.11a.9.9,0,0,1-.27.66l-3,3,.87.87,2.33-2.33a1,1,0,0,1,.66-.27A.91.91,0,0,1,84.39,196.27Z" style="fill:#fff"/><path d="M402.5,67l-2.18-2.18a.93.93,0,0,1,0-1.31l3.35-3.36V55.05l-4.44,2.56L398,62.2a.92.92,0,0,1-1.13.65l-3-.8a.91.91,0,0,1-.57-.43.94.94,0,0,1-.09-.7l.86-3.19-3.19-.85a.94.94,0,0,1-.66-1.13l.8-3a.93.93,0,0,1,1.14-.66l4.58,1.23,4.45-2.57-4.45-2.56-4.58,1.23a.94.94,0,0,1-1.14-.66l-.8-3a.94.94,0,0,1,.66-1.13l3.19-.85-.86-3.19a.94.94,0,0,1,.09-.7.91.91,0,0,1,.57-.43l3-.8a.92.92,0,0,1,1.13.65l1.23,4.59,4.44,2.56V41.37L400.32,38a.93.93,0,0,1,0-1.31l2.18-2.18a.93.93,0,0,1,1.31,0l2.33,2.34,2.33-2.34a.93.93,0,0,1,1.31,0L412,36.7A.91.91,0,0,1,412,38l-3.35,3.36V46.5l4.44-2.56,1.23-4.59a.92.92,0,0,1,1.13-.65l3,.79a1,1,0,0,1,.57.44.94.94,0,0,1,.09.7l-.86,3.19,3.19.85A.94.94,0,0,1,422,45.8l-.8,3a.93.93,0,0,1-1.14.66l-4.58-1.23-4.45,2.56,4.45,2.57,4.58-1.23a.93.93,0,0,1,1.14.66l.8,3a.94.94,0,0,1-.66,1.13l-3.19.85.86,3.19a.94.94,0,0,1-.09.7,1,1,0,0,1-.57.44l-3,.79a.92.92,0,0,1-1.13-.65l-1.23-4.59-4.44-2.56v5.13L412,63.54a.91.91,0,0,1,0,1.31L409.78,67a.93.93,0,0,1-1.31,0l-2.33-2.34L403.81,67a.93.93,0,0,1-.66.27A.91.91,0,0,1,402.5,67Zm4.3-4.3,2.33,2.33.87-.87-3-3a.9.9,0,0,1-.27-.66V53.45a.94.94,0,0,1,.46-.81,1,1,0,0,1,.93,0l6.16,3.56a1,1,0,0,1,.43.57l1.09,4.06,1.19-.32-.85-3.19a.9.9,0,0,1,.09-.7.87.87,0,0,1,.56-.43l3.19-.86-.32-1.19-4.06,1.09a.94.94,0,0,1-.7-.09l-6.17-3.56a.93.93,0,0,1,0-1.61l6.17-3.56a.94.94,0,0,1,.7-.09l4.06,1.09.32-1.19-3.19-.86a.87.87,0,0,1-.56-.43.9.9,0,0,1-.09-.7L417,41l-1.19-.32-1.09,4.06a1,1,0,0,1-.43.57l-6.16,3.56a1,1,0,0,1-.93,0,.94.94,0,0,1-.46-.81V41a.9.9,0,0,1,.27-.66l3-3-.87-.87-2.33,2.33a.93.93,0,0,1-1.31,0l-2.34-2.33-.87.87,3,3a.9.9,0,0,1,.27.66V48.1a.92.92,0,0,1-1.38.81L398,45.35a1,1,0,0,1-.43-.56l-1.09-4.07-1.19.32.85,3.19a.9.9,0,0,1-.09.7.87.87,0,0,1-.56.43l-3.19.86.32,1.19,4.06-1.09a.94.94,0,0,1,.7.09L403.52,50a.93.93,0,0,1,0,1.61l-6.17,3.56a.94.94,0,0,1-.7.09l-4.06-1.09-.32,1.19,3.19.86a.87.87,0,0,1,.56.43.9.9,0,0,1,.09.7l-.85,3.19,1.19.32,1.09-4.07a1,1,0,0,1,.43-.56l6.17-3.56a.92.92,0,0,1,1.38.81v7.11a.9.9,0,0,1-.27.66l-3,3,.87.87,2.34-2.33a.91.91,0,0,1,.65-.27A1,1,0,0,1,406.8,62.73Z" style="fill:#fff"/><path d="M29.67,84.46a.91.91,0,0,0,.82.53.94.94,0,0,0,.37-.07L36,82.63l4.57,2-.54,5L35.5,93a.9.9,0,0,0,1.07,1.45l3.24-2.37-.44,4a.91.91,0,0,0,.8,1h.1a.91.91,0,0,0,.89-.81l.62-5.62,4-3,4,3,.61,5.62a.91.91,0,0,0,.89.81h.1a.91.91,0,0,0,.8-1l-.44-4,3.24,2.37A.9.9,0,0,0,56.12,93l-4.57-3.35-.54-5,4.57-2,5.18,2.29a.94.94,0,0,0,.37.07.9.9,0,0,0,.36-1.72l-3.67-1.62L61.49,80A.9.9,0,0,0,62,78.84a.92.92,0,0,0-1.19-.46l-5.18,2.29-4.57-2,.54-5,4.57-3.35a.9.9,0,0,0-1.07-1.45l-3.24,2.37.44-4a.91.91,0,0,0-.8-1,.89.89,0,0,0-1,.8l-.61,5.62-4,3-4-3-.62-5.62a.89.89,0,0,0-1-.8.91.91,0,0,0-.8,1l.44,4-3.24-2.37a.91.91,0,0,0-1.26.2.89.89,0,0,0,.19,1.25l4.57,3.35.54,5-4.57,2-5.18-2.29a.92.92,0,0,0-1.19.46A.91.91,0,0,0,30.13,80l3.68,1.62-3.68,1.62A.91.91,0,0,0,29.67,84.46Zm8.6-2.81L41.94,80a.89.89,0,0,0,.53-.92l-.43-4,3.24,2.37a.9.9,0,0,0,1.06,0l3.24-2.37-.43,4a.9.9,0,0,0,.53.92l3.67,1.62-3.67,1.62a.9.9,0,0,0-.53.92l.43,4-3.24-2.37a.91.91,0,0,0-1.06,0L42,88.18l.43-4a.89.89,0,0,0-.53-.92Z" style="fill:#fff"/><path d="M207,118.61a.72.72,0,0,0,.65.42.71.71,0,0,0,.28-.06l4.08-1.8,3.59,1.59-.42,3.91-3.59,2.63a.71.71,0,0,0-.16,1,.72.72,0,0,0,1,.15l2.55-1.86-.34,3.13a.71.71,0,0,0,.63.78h.08a.71.71,0,0,0,.7-.63l.48-4.43,3.17-2.32,3.18,2.32.48,4.43a.7.7,0,0,0,.7.63h.08a.69.69,0,0,0,.62-.78l-.34-3.13,2.55,1.86a.71.71,0,1,0,.84-1.14l-3.59-2.63-.43-3.91,3.6-1.59,4.07,1.8a.72.72,0,0,0,.29.06.7.7,0,0,0,.64-.42.71.71,0,0,0-.36-.94l-2.89-1.27,2.89-1.27a.71.71,0,0,0-.57-1.3l-4.07,1.8-3.6-1.59.43-3.91,3.59-2.63a.71.71,0,0,0-.84-1.14l-2.55,1.86.34-3.14a.7.7,0,0,0-1.4-.15l-.48,4.43-3.18,2.32-3.17-2.32-.48-4.43a.69.69,0,0,0-.78-.62.7.7,0,0,0-.63.77l.34,3.14-2.55-1.86a.72.72,0,0,0-1,.15.71.71,0,0,0,.16,1l3.59,2.63.42,3.91L212,115.63l-4.08-1.8a.71.71,0,0,0-.93.36.72.72,0,0,0,.36.94l2.89,1.27-2.89,1.27A.72.72,0,0,0,207,118.61Zm6.76-2.21,2.89-1.27a.73.73,0,0,0,.42-.73l-.34-3.14,2.54,1.87a.72.72,0,0,0,.84,0l2.55-1.87-.34,3.14a.7.7,0,0,0,.42.73l2.88,1.27-2.88,1.27a.7.7,0,0,0-.42.73l.34,3.14-2.55-1.87a.7.7,0,0,0-.42-.13.74.74,0,0,0-.42.13l-2.54,1.87.34-3.14a.73.73,0,0,0-.42-.73Z" style="fill:#fff"/><path d="M31.5,337.43a.71.71,0,0,0,.65.43.71.71,0,0,0,.28-.06l4.08-1.8,3.59,1.59-.42,3.91-3.59,2.63a.71.71,0,0,0-.16,1,.71.71,0,0,0,1,.15l2.55-1.87-.34,3.14a.71.71,0,0,0,.63.78h.07a.71.71,0,0,0,.71-.63l.48-4.43L44.19,340l3.18,2.32.48,4.43a.7.7,0,0,0,.7.63h.08a.69.69,0,0,0,.62-.78l-.34-3.14,2.55,1.87a.71.71,0,0,0,.84-1.14l-3.6-2.63-.42-3.91,3.6-1.59L56,337.8a.72.72,0,0,0,.29.06.69.69,0,0,0,.64-.43.7.7,0,0,0-.36-.93l-2.89-1.27L56.52,334a.71.71,0,1,0-.57-1.29l-4.07,1.79-3.6-1.58L48.7,329l3.6-2.63a.71.71,0,0,0,.15-1,.7.7,0,0,0-1-.15l-2.55,1.86.34-3.14a.7.7,0,1,0-1.4-.15l-.48,4.42-3.18,2.33L41,328.18l-.48-4.42a.7.7,0,0,0-.78-.63.71.71,0,0,0-.63.78l.34,3.14-2.55-1.86a.71.71,0,1,0-.83,1.14L39.68,329l.42,3.91-3.59,1.58-4.08-1.79a.71.71,0,0,0-.57,1.29l2.89,1.28-2.89,1.27A.7.7,0,0,0,31.5,337.43Zm6.76-2.2L41.15,334a.71.71,0,0,0,.42-.72l-.34-3.14L43.77,332a.72.72,0,0,0,.84,0l2.55-1.87-.34,3.14a.68.68,0,0,0,.41.72l2.89,1.28-2.89,1.27a.71.71,0,0,0-.41.73l.34,3.14-2.55-1.87a.7.7,0,0,0-.84,0l-2.54,1.87.34-3.14a.73.73,0,0,0-.42-.73Z" style="fill:#fff"/><path d="M543.53,252.55a.68.68,0,0,0,.64.42.58.58,0,0,0,.29-.06l4.07-1.79,3.6,1.59-.43,3.91-3.59,2.62a.72.72,0,0,0-.15,1,.71.71,0,0,0,1,.16l2.55-1.87-.34,3.14a.69.69,0,0,0,.62.78h.08a.7.7,0,0,0,.7-.63l.48-4.42,3.18-2.32,3.17,2.32.48,4.42a.7.7,0,0,0,.7.63h.08a.71.71,0,0,0,.63-.78l-.34-3.14,2.55,1.87a.7.7,0,0,0,1-.16.71.71,0,0,0-.15-1l-3.59-2.62-.43-3.91,3.6-1.59,4.08,1.79a.57.57,0,0,0,.28.06.71.71,0,0,0,.29-1.35l-2.89-1.27,2.89-1.28a.71.71,0,1,0-.57-1.29l-4.08,1.79L560.3,248l.43-3.91,3.59-2.63a.71.71,0,0,0,.15-1,.7.7,0,0,0-1-.16l-2.55,1.87.34-3.14a.71.71,0,0,0-1.41-.15l-.48,4.42-3.17,2.33L553,243.3l-.48-4.42a.7.7,0,0,0-.78-.63.69.69,0,0,0-.62.78l.34,3.14L549,240.3a.71.71,0,0,0-1,.16.71.71,0,0,0,.15,1l3.59,2.63.43,3.91-3.6,1.58-4.07-1.79a.71.71,0,1,0-.57,1.29l2.89,1.28-2.89,1.27A.7.7,0,0,0,543.53,252.55Zm6.76-2.2,2.88-1.28a.69.69,0,0,0,.42-.72l-.34-3.14,2.55,1.86a.68.68,0,0,0,.83,0l2.55-1.86-.34,3.14a.71.71,0,0,0,.42.72l2.89,1.28-2.89,1.27a.71.71,0,0,0-.42.72l.34,3.14-2.55-1.86a.69.69,0,0,0-.83,0l-2.55,1.86.34-3.14a.69.69,0,0,0-.42-.72Z" style="fill:#fff"/><path d="M464.43,368.3a1,1,0,0,0,.95.62,1,1,0,0,0,.42-.08l6-2.64,5.28,2.33-.63,5.73-5.26,3.86a1,1,0,1,0,1.22,1.67l3.74-2.73-.5,4.6a1,1,0,0,0,.92,1.14h.11a1,1,0,0,0,1-.93l.71-6.48L483,372l4.65,3.41.71,6.48a1,1,0,0,0,1,.93h.11a1,1,0,0,0,.92-1.14l-.5-4.6,3.74,2.73a1,1,0,1,0,1.22-1.67l-5.26-3.86-.63-5.73,5.28-2.33,6,2.64a1,1,0,0,0,.42.08,1,1,0,0,0,.42-2l-4.24-1.87,4.24-1.87a1,1,0,1,0-.84-1.9l-6,2.63L489,361.61l.63-5.73,5.26-3.86a1,1,0,1,0-1.22-1.67L490,353.08l.5-4.6a1,1,0,0,0-.92-1.14,1,1,0,0,0-1.14.91l-.71,6.49L483,358.15l-4.65-3.41-.71-6.49a1,1,0,0,0-1.14-.91,1,1,0,0,0-.92,1.14l.5,4.6-3.74-2.73a1,1,0,1,0-1.22,1.67l5.26,3.86.63,5.73-5.28,2.32-6-2.63a1,1,0,1,0-.84,1.9l4.24,1.87L465,366.94A1,1,0,0,0,464.43,368.3Zm9.91-3.23,4.24-1.87a1,1,0,0,0,.61-1.06l-.5-4.6,3.74,2.73a1,1,0,0,0,1.22,0l3.74-2.73-.5,4.6a1,1,0,0,0,.61,1.06l4.24,1.87-4.24,1.87a1,1,0,0,0-.61,1.06l.5,4.6-3.74-2.73a1,1,0,0,0-.61-.2,1,1,0,0,0-.61.2l-3.74,2.73.5-4.6a1,1,0,0,0-.61-1.06Z" style="fill:#fff"/><path d="M535.48,40.48a.72.72,0,0,0,.65.42.71.71,0,0,0,.28-.06l4.08-1.79,3.59,1.58-.42,3.91-3.59,2.63a.71.71,0,0,0-.16,1,.72.72,0,0,0,1,.15l2.55-1.86-.34,3.14a.71.71,0,0,0,.63.78h.08a.71.71,0,0,0,.7-.63l.48-4.43L548.17,43l3.18,2.32.48,4.43a.7.7,0,0,0,.7.63h.08a.7.7,0,0,0,.62-.78l-.34-3.14,2.55,1.86a.7.7,0,0,0,1-.15.71.71,0,0,0-.15-1l-3.59-2.63-.43-3.91,3.6-1.58,4.07,1.79a.72.72,0,0,0,.29.06.71.71,0,0,0,.28-1.35l-2.89-1.28L560.5,37a.71.71,0,0,0-.57-1.3l-4.07,1.8-3.6-1.59.43-3.91,3.59-2.63a.71.71,0,0,0-.84-1.14l-2.55,1.87.34-3.14a.7.7,0,0,0-1.4-.16l-.48,4.43-3.18,2.32L545,31.23l-.48-4.43a.7.7,0,0,0-.78-.62.71.71,0,0,0-.63.78l.34,3.14-2.55-1.87a.72.72,0,0,0-1,.15.71.71,0,0,0,.16,1L543.66,32l.42,3.91-3.59,1.59-4.08-1.8a.71.71,0,0,0-.57,1.3l2.89,1.27-2.89,1.28A.7.7,0,0,0,535.48,40.48Zm6.76-2.21L545.13,37a.73.73,0,0,0,.42-.73l-.34-3.14L547.75,35a.72.72,0,0,0,.84,0l2.55-1.87-.34,3.14a.7.7,0,0,0,.42.73l2.88,1.27-2.88,1.28a.68.68,0,0,0-.42.72l.34,3.14-2.55-1.87a.7.7,0,0,0-.42-.13.74.74,0,0,0-.42.13l-2.54,1.87.34-3.14a.71.71,0,0,0-.42-.72Z" style="fill:#fff"/><path d="M438.24,159.24a.46.46,0,0,0,.41.27.41.41,0,0,0,.19,0l2.58-1.14,2.29,1-.27,2.49-2.28,1.67a.45.45,0,1,0,.53.72l1.62-1.18-.22,2a.46.46,0,0,0,.4.5h.05a.45.45,0,0,0,.45-.4l.3-2.81,2-1.48,2,1.48.3,2.81a.45.45,0,0,0,.45.4h.05a.47.47,0,0,0,.4-.5l-.22-2,1.62,1.18a.45.45,0,0,0,.63-.09.46.46,0,0,0-.1-.63l-2.28-1.67-.27-2.49,2.28-1,2.59,1.14a.39.39,0,0,0,.18,0,.43.43,0,0,0,.41-.27.44.44,0,0,0-.22-.59l-1.84-.81,1.84-.81a.45.45,0,0,0-.37-.82l-2.59,1.14-2.28-1,.27-2.48,2.28-1.67a.46.46,0,0,0,.1-.63.45.45,0,0,0-.63-.1l-1.62,1.18.22-2a.47.47,0,0,0-.4-.5.46.46,0,0,0-.5.4l-.3,2.81-2,1.48-2-1.48-.3-2.81a.45.45,0,1,0-.9.1l.22,2-1.62-1.18a.45.45,0,0,0-.53.73l2.28,1.67.27,2.48-2.29,1-2.58-1.14a.45.45,0,1,0-.37.82l1.84.81-1.84.81A.46.46,0,0,0,438.24,159.24Zm4.3-1.4,1.84-.81a.46.46,0,0,0,.26-.46l-.22-2,1.62,1.18a.44.44,0,0,0,.53,0l1.62-1.18-.21,2a.44.44,0,0,0,.26.46l1.84.81-1.84.81a.45.45,0,0,0-.26.46l.21,2-1.62-1.19a.41.41,0,0,0-.26-.09.46.46,0,0,0-.27.09l-1.62,1.19.22-2a.47.47,0,0,0-.26-.46Z" style="fill:#fff"/><path d="M470.87,209.73a.91.91,0,0,0,0,1.28.93.93,0,0,0,.64.26.89.89,0,0,0,.63-.26l1.94-1.94h4.61l3.76,6.51-2.31,4-2.64.71a.9.9,0,0,0-.64,1.1.91.91,0,0,0,1.1.64l2.13-.57.58,2.13a.89.89,0,0,0,.86.67.67.67,0,0,0,.24,0,.89.89,0,0,0,.63-1.1l-.7-2.64,2.3-4h7.51l2.31,4-.71,2.64a.9.9,0,0,0,.64,1.1.66.66,0,0,0,.23,0,.91.91,0,0,0,.87-.67l.57-2.13,2.13.57a.9.9,0,1,0,.47-1.74l-2.64-.71-2.31-4,3.75-6.51h4.62l1.93,1.94a.92.92,0,0,0,1.28,0,.91.91,0,0,0,0-1.28l-1.57-1.56,1.57-1.56a.9.9,0,0,0,0-1.27.91.91,0,0,0-1.28,0l-1.93,1.93h-4.62l-3.75-6.5,2.31-4,2.64-.71a.9.9,0,1,0-.47-1.74l-2.13.57-.57-2.13a.9.9,0,0,0-1.1-.64.91.91,0,0,0-.64,1.11l.71,2.64-2.31,4H484l-2.3-4,.7-2.64a.9.9,0,1,0-1.73-.47l-.58,2.13-2.13-.57a.9.9,0,1,0-.46,1.74l2.64.71,2.31,4-3.76,6.5h-4.61l-1.94-1.93a.9.9,0,0,0-1.27,1.27l1.56,1.56Zm12.61-7.16,2.72,4.7h-5.43Zm7-.9-2.71,4.7-2.72-4.7Zm4.28,5.6h-5.43l2.71-4.7ZM492,213.78l-2.71-4.71h5.43Zm-7,.9,2.72-4.71,2.71,4.71Zm-4.27-5.61h5.43l-2.72,4.71Z" style="fill:#fff"/><path d="M129.9,46a.9.9,0,1,0,1.28,1.27l1.93-1.93h4.62l3.75,6.5-2.31,4-2.64.71a.9.9,0,1,0,.47,1.73l2.13-.57.57,2.13a.89.89,0,0,0,.87.67l.23,0a.9.9,0,0,0,.64-1.1l-.71-2.64,2.31-4h7.51l2.3,4-.7,2.64a.89.89,0,0,0,.63,1.1,1,1,0,0,0,.24,0,.88.88,0,0,0,.86-.67l.58-2.13,2.13.57a.9.9,0,1,0,.46-1.73l-2.64-.71-2.31-4,3.76-6.5h4.61l1.94,1.93a.86.86,0,0,0,.63.27.91.91,0,0,0,.64-1.54l-1.56-1.56,1.56-1.56a.9.9,0,1,0-1.27-1.27l-1.94,1.93h-4.61L152.1,37l2.31-4,2.64-.71a.9.9,0,1,0-.46-1.73l-2.13.57L153.88,29a.9.9,0,1,0-1.73.46l.7,2.64-2.3,4H143l-2.31-4,.71-2.64A.9.9,0,0,0,139.7,29l-.57,2.13L137,30.59a.9.9,0,1,0-.47,1.73l2.64.71,2.31,4-3.75,6.5h-4.62l-1.93-1.93a.91.91,0,0,0-1.28,0,.9.9,0,0,0,0,1.27l1.57,1.56Zm12.62-7.16,2.71,4.7H139.8Zm7-.9-2.72,4.7-2.71-4.7Zm4.27,5.6h-5.43l2.71-4.7ZM151.06,50l-2.71-4.7h5.43Zm-7,.9,2.71-4.7,2.72,4.7Zm-4.28-5.6h5.43L142.52,50Z" style="fill:#fff"/><path d="M61.45,417.76A.9.9,0,1,0,62.73,419l1.93-1.93h4.62L73,423.6l-2.31,4-2.64.71a.9.9,0,1,0,.47,1.73l2.13-.57.57,2.13a.89.89,0,0,0,.87.67l.23,0a.9.9,0,0,0,.64-1.1l-.71-2.64,2.31-4H82.1l2.3,4-.7,2.64a.89.89,0,0,0,.63,1.1l.24,0a.88.88,0,0,0,.86-.67l.58-2.13,2.13.57a.9.9,0,1,0,.46-1.73L86,427.6l-2.31-4,3.76-6.5H92L94,419a.86.86,0,0,0,.63.27.91.91,0,0,0,.64-1.54l-1.56-1.56,1.56-1.56A.9.9,0,0,0,94,413.37L92,415.3H87.41l-3.76-6.5,2.31-4,2.64-.71a.9.9,0,1,0-.46-1.73l-2.13.57-.58-2.13a.9.9,0,1,0-1.73.46l.7,2.64-2.3,4H74.59l-2.31-4,.71-2.64a.9.9,0,1,0-1.74-.46l-.57,2.13-2.13-.57a.9.9,0,1,0-.47,1.73l2.64.71,2.31,4-3.75,6.5H64.66l-1.93-1.93a.91.91,0,0,0-1.28,0,.9.9,0,0,0,0,1.27L63,416.2Zm12.62-7.16,2.71,4.7H71.35Zm7-.9-2.72,4.7-2.71-4.7Zm4.27,5.6H79.9l2.71-4.7Zm-2.72,6.5-2.71-4.7h5.43Zm-7,.9,2.71-4.7,2.72,4.7Zm-4.28-5.6h5.43l-2.71,4.7Z" style="fill:#fff"/><path d="M15.55,216a.52.52,0,0,0,0,.73.51.51,0,0,0,.36.15.51.51,0,0,0,.37-.15l1.11-1.11H20l2.15,3.72-1.33,2.29-1.51.4a.52.52,0,0,0,.27,1l1.22-.33.33,1.22a.52.52,0,0,0,.49.39l.14,0a.52.52,0,0,0,.36-.63l-.4-1.51,1.32-2.29h4.3l1.32,2.29-.41,1.51a.52.52,0,0,0,.37.63l.13,0a.52.52,0,0,0,.5-.39l.32-1.22,1.22.33a.52.52,0,1,0,.27-1l-1.51-.4-1.32-2.29,2.15-3.72h2.64l1.11,1.11a.51.51,0,0,0,.72,0,.5.5,0,0,0,0-.73l-.89-.9.89-.89a.5.5,0,0,0,0-.73.51.51,0,0,0-.72,0l-1.11,1.11H30.41l-2.15-3.72,1.32-2.29,1.51-.41a.51.51,0,0,0,.37-.63.52.52,0,0,0-.64-.36l-1.22.33-.32-1.22a.52.52,0,0,0-1,.26l.41,1.51-1.32,2.29h-4.3L21.75,208l.4-1.51a.51.51,0,1,0-1-.26l-.33,1.22-1.22-.33a.52.52,0,0,0-.63.36.51.51,0,0,0,.36.63l1.51.41,1.33,2.29L20,214.57H17.39l-1.11-1.11a.52.52,0,1,0-.73.73l.89.89Zm7.22-4.1,1.55,2.69h-3.1Zm4-.52-1.55,2.69-1.56-2.69Zm2.45,3.21H26.11l1.55-2.69Zm-1.56,3.72-1.55-2.69h3.11Zm-4,.52,1.56-2.69,1.55,2.69Zm-2.44-3.21h3.1l-1.55,2.69Z" style="fill:#fff"/><path d="M278.66,86.23a.38.38,0,0,0,0,.54.39.39,0,0,0,.27.11.38.38,0,0,0,.26-.11L280,86H282l1.58,2.74-1,1.69-1.11.29a.38.38,0,0,0,.2.74l.89-.24.24.89a.39.39,0,0,0,.37.29l.1,0a.38.38,0,0,0,.27-.46l-.3-1.11,1-1.69h3.16l1,1.69L288,91.87a.37.37,0,0,0,.26.46l.1,0a.39.39,0,0,0,.37-.29l.24-.89.9.24a.38.38,0,0,0,.19-.74L289,90.38l-1-1.69L289.59,86h1.94l.82.82a.39.39,0,0,0,.27.11.38.38,0,0,0,.26-.65l-.65-.65.65-.66a.38.38,0,0,0,0-.54.37.37,0,0,0-.53,0l-.82.82h-1.94L288,82.46l1-1.69,1.11-.29a.38.38,0,0,0-.19-.74L289,80l-.24-.89a.38.38,0,0,0-.47-.27.37.37,0,0,0-.26.46l.29,1.12-1,1.68h-3.16l-1-1.68.3-1.12a.38.38,0,0,0-.27-.46.39.39,0,0,0-.47.27l-.24.89-.89-.24a.38.38,0,1,0-.2.74l1.11.29,1,1.69L282,85.2H280l-.82-.82a.37.37,0,0,0-.53,0,.38.38,0,0,0,0,.54l.66.66Zm5.31-3,1.14,2h-2.28Zm2.94-.38-1.14,2-1.14-2Zm1.8,2.36h-2.28l1.14-2Zm-1.14,2.73-1.14-2h2.28Zm-2.94.38,1.14-2,1.14,2ZM282.83,86h2.28l-1.14,2Z" style="fill:#fff"/><path d="M480.64,72.45a.4.4,0,0,0,0,.54.43.43,0,0,0,.27.11.39.39,0,0,0,.27-.11l.82-.82h1.94l1.58,2.74-1,1.68-1.11.3a.38.38,0,0,0-.27.47.37.37,0,0,0,.46.26l.9-.24.24.9a.38.38,0,0,0,.37.28h.09a.36.36,0,0,0,.27-.46L485.21,77l1-1.68h3.16l1,1.68-.3,1.12a.38.38,0,0,0,.27.46h.1a.38.38,0,0,0,.37-.28l.24-.9.89.24a.38.38,0,0,0,.47-.26.39.39,0,0,0-.27-.47l-1.11-.3-1-1.68,1.58-2.74h1.94l.81.82a.43.43,0,0,0,.27.11.39.39,0,0,0,.27-.11.38.38,0,0,0,0-.54l-.66-.66.66-.65a.38.38,0,1,0-.54-.54l-.81.81h-1.94L490,68.68,491,67l1.11-.3a.38.38,0,0,0,.27-.46.39.39,0,0,0-.47-.27l-.89.24-.24-.9a.38.38,0,0,0-.74.2l.3,1.11-1,1.69h-3.16l-1-1.69.29-1.11a.38.38,0,0,0-.73-.2l-.24.9-.9-.24a.38.38,0,0,0-.46.27.36.36,0,0,0,.27.46l1.11.3,1,1.69-1.58,2.73H482l-.82-.81a.38.38,0,0,0-.54,0,.4.4,0,0,0,0,.54l.66.65Zm5.32-3,1.14,2h-2.29Zm2.94-.38-1.14,2-1.15-2Zm1.8,2.36h-2.29l1.15-2Zm-1.14,2.74-1.15-2h2.29Zm-2.95.38,1.15-2,1.14,2Zm-1.8-2.36h2.29l-1.14,2Z" style="fill:#fff"/><path d="M551.44,426.16a.38.38,0,0,0,0,.54.39.39,0,0,0,.27.11.38.38,0,0,0,.26-.11l.82-.82h1.94l1.58,2.74-1,1.68-1.11.3a.39.39,0,0,0-.27.47.37.37,0,0,0,.46.26l.9-.24.24.9a.38.38,0,0,0,.37.28h.1a.39.39,0,0,0,.27-.47l-.3-1.11,1-1.68h3.16l1,1.68-.29,1.11a.38.38,0,0,0,.26.47h.1a.38.38,0,0,0,.37-.28l.24-.9.9.24a.37.37,0,0,0,.46-.26.38.38,0,0,0-.27-.47l-1.11-.3-1-1.68,1.58-2.74h1.94l.82.82a.39.39,0,0,0,.27.11.38.38,0,0,0,.26-.65l-.65-.66.65-.66a.37.37,0,0,0-.53-.53l-.82.81h-1.94l-1.58-2.74,1-1.68,1.11-.3a.36.36,0,0,0,.27-.46.38.38,0,0,0-.46-.27l-.9.24-.24-.9a.38.38,0,0,0-.47-.26.37.37,0,0,0-.26.46l.29,1.11-1,1.69H557l-1-1.69.3-1.11a.38.38,0,0,0-.74-.2l-.24.9-.9-.24a.38.38,0,0,0-.46.27.38.38,0,0,0,.27.46l1.11.3,1,1.68-1.58,2.74h-1.94l-.82-.81a.37.37,0,0,0-.53.53l.66.66Zm5.31-3,1.14,2h-2.28Zm2.94-.38-1.14,2-1.14-2Zm1.8,2.36h-2.28l1.14-2Zm-1.14,2.74-1.14-2h2.28Zm-2.94.38,1.14-2,1.14,2Zm-1.8-2.36h2.28l-1.14,2Z" style="fill:#fff"/><path d="M106.53,278.48a.37.37,0,0,0,0,.53.35.35,0,0,0,.27.11.34.34,0,0,0,.26-.11l.82-.81h1.94l1.58,2.74-1,1.68-1.11.3a.38.38,0,0,0-.27.46.38.38,0,0,0,.46.27l.9-.24.24.9a.38.38,0,0,0,.37.28h.1a.38.38,0,0,0,.26-.47l-.29-1.11,1-1.68h3.16l1,1.68-.29,1.11a.38.38,0,0,0,.26.47h.1a.38.38,0,0,0,.37-.28l.24-.9.9.24a.38.38,0,0,0,.19-.73l-1.11-.3-1-1.68,1.58-2.74h1.94l.82.81a.34.34,0,0,0,.26.11.35.35,0,0,0,.27-.11.37.37,0,0,0,0-.53l-.65-.66.65-.66a.37.37,0,1,0-.53-.53l-.82.81h-1.94l-1.58-2.74,1-1.68,1.11-.3a.38.38,0,0,0,.27-.46.36.36,0,0,0-.46-.27l-.9.24-.24-.9a.4.4,0,0,0-.47-.27.38.38,0,0,0-.26.47l.29,1.11-1,1.68h-3.16l-1-1.68.29-1.11a.38.38,0,0,0-.26-.47.4.4,0,0,0-.47.27l-.24.9-.9-.24a.36.36,0,0,0-.46.27.38.38,0,0,0,.27.46l1.11.3,1,1.68-1.58,2.74h-1.94l-.82-.81a.37.37,0,1,0-.53.53l.65.66Zm5.31-3,1.14,2H110.7Zm2.94-.38-1.14,2-1.14-2Zm1.8,2.36H114.3l1.14-2Zm-1.14,2.74-1.14-2h2.28Zm-2.94.38,1.14-2,1.14,2Zm-1.8-2.36H113l-1.14,2Z" style="fill:#fff"/></g></g><g id="Candy_Cane" data-name="Candy Cane"><path d="M21.58,281.93a1.14,1.14,0,0,1-1.12-1.83l5.11-6.3a1.14,1.14,0,1,1,1.77,1.44l-5.11,6.29A1.12,1.12,0,0,1,21.58,281.93Z" style="fill:#be1e2d"/><path d="M20.47,276.8a1.13,1.13,0,0,1-1-.23,1.14,1.14,0,0,1-.17-1.61l5.12-6.29a1.14,1.14,0,0,1,1.77,1.43l-5.12,6.3A1.19,1.19,0,0,1,20.47,276.8Z" style="fill:#be1e2d"/><path d="M27,253.9a1.13,1.13,0,0,1-1.15-.43A4.6,4.6,0,0,0,24,252a5.45,5.45,0,0,0-4.66.41,1.14,1.14,0,1,1-1.14-2,7.82,7.82,0,0,1,6.72-.52,7,7,0,0,1,2.76,2.21,1.13,1.13,0,0,1-.23,1.59A1.06,1.06,0,0,1,27,253.9Z" style="fill:#be1e2d"/><path d="M30.7,254.71a1.17,1.17,0,0,1-1.38-1.25,5.92,5.92,0,0,0-.37-2.83,6.1,6.1,0,0,0-2.23-2.75A1.14,1.14,0,1,1,28,246a8.44,8.44,0,0,1,3.08,3.8,8.25,8.25,0,0,1,.52,3.94A1.14,1.14,0,0,1,30.7,254.71Z" style="fill:#be1e2d"/><path d="M25.82,286.53a4.3,4.3,0,0,1-5.12-3.29l-5-23a12.06,12.06,0,1,1,23.58-5.12l.4,1.82a4.31,4.31,0,0,1-8.42,1.83l-.4-1.82a3.45,3.45,0,1,0-6.75,1.46l5,23A4.31,4.31,0,0,1,25.82,286.53Zm-.41-38.46a9.82,9.82,0,0,0-7.49,11.65l5,23a2,2,0,0,0,4-.86l-5-23a5.73,5.73,0,0,1,11.2-2.44l.4,1.82a2,2,0,0,0,4-.86l-.4-1.82A9.8,9.8,0,0,0,25.41,248.07Z" style="fill:#f1f2f2"/></g><g id="Bell"><path d="M548.1,178.45a.91.91,0,0,0,1-.74l1.25-7.56A7.91,7.91,0,1,1,566,172.74l-1.25,7.56a.9.9,0,0,0,.74,1,.91.91,0,0,0,1-.74l1.25-7.56a9.72,9.72,0,1,0-19.17-3.17l-1.25,7.56A.9.9,0,0,0,548.1,178.45Z" style="fill:#f9ed32"/><path d="M566.41,184.42a.89.89,0,0,0,.76-.22.9.9,0,0,0,.05-1.28,2.76,2.76,0,0,1-.69-2.33.9.9,0,0,0-1.78-.29,4.54,4.54,0,0,0,1.15,3.84A.84.84,0,0,0,566.41,184.42Z" style="fill:#f9ed32"/><path d="M546.24,181.08a.88.88,0,0,0,.57-.1,4.54,4.54,0,0,0,2.33-3.27.9.9,0,1,0-1.78-.29,2.75,2.75,0,0,1-1.41,2,.89.89,0,0,0-.36,1.22A.93.93,0,0,0,546.24,181.08Z" style="fill:#f9ed32"/><path d="M555.64,186.85a3.25,3.25,0,0,0,3.73-2.67,19.32,19.32,0,0,0,0-4.16.9.9,0,0,0-1.79.19,18.55,18.55,0,0,1,.06,3.68,1.45,1.45,0,0,1-2.85-.48A18.74,18.74,0,0,1,556,180a.9.9,0,1,0-1.64-.76,20,20,0,0,0-1.37,3.92A3.25,3.25,0,0,0,555.64,186.85Z" style="fill:#e0ce2f"/><path d="M542.81,182.43c.61-3.7,7.75-4.57,14.15-3.51s12.87,4.18,12.26,7.89-7.75,4.57-14.15,3.51S542.2,186.14,542.81,182.43Zm1.78.3c-.31,1.85,4.23,4.73,10.77,5.82s11.78-.18,12.08-2-4.23-4.73-10.78-5.82S544.89,180.87,544.59,182.73Z" style="fill:#f9ed32"/><path d="M557.86,163.37h.24a.89.89,0,0,0,.8-1,17.48,17.48,0,0,1,0-3.67,1.44,1.44,0,1,1,2.84.47,18,18,0,0,1-1.23,3.46.89.89,0,0,0,.43,1.19.9.9,0,0,0,1.2-.43,19.74,19.74,0,0,0,1.38-3.93,3.24,3.24,0,0,0-6.4-1.06,19.32,19.32,0,0,0,0,4.16A.91.91,0,0,0,557.86,163.37Z" style="fill:#e0ce2f"/><path d="M563,177.17a.9.9,0,0,0,1-.74l.06-.34a.9.9,0,0,0-.74-1,.91.91,0,0,0-1,.74l0,.34A.89.89,0,0,0,563,177.17Z" style="fill:#f9ed32"/><path d="M563.47,174.09a.9.9,0,0,0,1-.74l.1-.57a6.57,6.57,0,0,0-2.8-6.49.91.91,0,0,0-1.25.25.9.9,0,0,0,.25,1.25,4.73,4.73,0,0,1,2,4.69l-.09.57A.91.91,0,0,0,563.47,174.09Z" style="fill:#f9ed32"/><path d="M570.14,167l-8.44-3.76a.91.91,0,0,1-.53-1l.45-2.68a.88.88,0,0,1,.8-.75l9.3-.84a2.64,2.64,0,0,1,1.87,4.47.84.84,0,0,0-.16.93,2.59,2.59,0,0,1-.41,2.87,2.56,2.56,0,0,1-2.41.84A2.66,2.66,0,0,1,570.14,167Zm1.65-7.21-8.51.78-.22,1.3,7.72,3.45a.83.83,0,0,0,.89-.24.81.81,0,0,0,.13-.91,2.66,2.66,0,0,1,.49-2.95.86.86,0,0,0-.41-1.42Zm-9.74,2.62h0Z" style="fill:#be1e2d"/><path d="M545.83,161.79a2.58,2.58,0,0,1,.53-2.84.84.84,0,0,0,.15-.94,2.64,2.64,0,0,1,3.3-3.6l8.44,3.77a.88.88,0,0,1,.52,1l-.44,2.68a.89.89,0,0,1-.81.74l-9.29.85-.42,0A2.58,2.58,0,0,1,545.83,161.79Zm11.06-2.25-7.73-3.45a.84.84,0,0,0-1,1.16,2.66,2.66,0,0,1-.49,2.95.85.85,0,0,0,.5,1.42l8.51-.77Z" style="fill:#be1e2d"/></g><g id="Wreath"><path d="M503.89,434.55a1.12,1.12,0,0,1-1.07-.42l-2.53-3.23L497,433.36a1.13,1.13,0,0,1-1.8-1.05l1.18-8.94a1.13,1.13,0,0,1,2.24.3l-.83,6.27,2-1.52a1.14,1.14,0,0,1,1.57.21l1.56,2,.74-5.64a1.13,1.13,0,1,1,2.24.3l-1.09,8.3a1.15,1.15,0,0,1-.83.95Z" style="fill:#be1e2d"/><path d="M516,432.7h-.13a1.14,1.14,0,0,1-1.07-.65l-3.53-7.6a1.13,1.13,0,0,1,2-1l2.4,5.16.89-2.36a1.12,1.12,0,0,1,1.43-.67l2.38.84-2.67-5.73a1.13,1.13,0,1,1,2-1L523.6,428a1.13,1.13,0,0,1-1.4,1.54l-3.87-1.36L516.88,432A1.15,1.15,0,0,1,516,432.7Z" style="fill:#be1e2d"/><path d="M508.91,426.89a7.59,7.59,0,0,1-7-2.63,7.58,7.58,0,0,1-10.44-7.66,7.58,7.58,0,0,1-2-12.8,7.59,7.59,0,0,1,7.67-10.44,7.57,7.57,0,0,1,12.79-2,7.57,7.57,0,0,1,10.44,7.67,7.56,7.56,0,0,1,2,12.79,7.58,7.58,0,0,1-7.67,10.44A7.57,7.57,0,0,1,508.91,426.89Z" style="fill:#006838"/><path d="M497.08,404.34a3.45,3.45,0,0,1-2.58-.64,3.41,3.41,0,0,1-1.38-2.27,3.47,3.47,0,0,1,5.48-3.32h0a3.48,3.48,0,0,1,1.37,2.27,3.47,3.47,0,0,1-2.9,4Zm-.71-4.62a1.21,1.21,0,0,0-1,1.37,1.2,1.2,0,0,0,.48.79,1.23,1.23,0,0,0,1.68-.26,1.2,1.2,0,0,0-.26-1.68A1.16,1.16,0,0,0,496.37,399.72Z" style="fill:#be1e2d"/><path d="M494.94,413a3.47,3.47,0,1,1,2.91-4A3.47,3.47,0,0,1,494.94,413Zm-.7-4.63a1.21,1.21,0,1,0,1.37,1A1.21,1.21,0,0,0,494.24,408.41Z" style="fill:#f15a29"/><path d="M499.59,420.69a3.47,3.47,0,0,1-4-2.9,3.46,3.46,0,0,1,2.9-4h0a3.47,3.47,0,0,1,4,2.9,3.46,3.46,0,0,1-2.9,3.95Zm-.71-4.62a1.2,1.2,0,0,0-.79.48h0a1.21,1.21,0,1,0,2.16.53,1.21,1.21,0,0,0-1.37-1Zm-1.7-.19h0Z" style="fill:#f9ed32"/><path d="M508.28,422.83a3.47,3.47,0,1,1,2.91-4A3.47,3.47,0,0,1,508.28,422.83Zm-.7-4.62a1.2,1.2,0,1,0,1.37,1A1.2,1.2,0,0,0,507.58,418.21Z" style="fill:#1b75bc"/><path d="M515.94,418.19a3.51,3.51,0,0,1-2.58-.63h0a3.48,3.48,0,0,1-.74-4.85,3.55,3.55,0,0,1,4.85-.74,3.47,3.47,0,0,1-1.53,6.23Zm-1.24-2.46a1.2,1.2,0,0,0,1.69-.26,1.2,1.2,0,0,0-.26-1.68,1.23,1.23,0,0,0-1.68.25,1.2,1.2,0,0,0,.25,1.69Z" style="fill:#be1e2d"/><path d="M518.08,409.49a3.47,3.47,0,1,1,2.9-4A3.47,3.47,0,0,1,518.08,409.49Zm-.71-4.62a1.2,1.2,0,1,0,1.37,1A1.2,1.2,0,0,0,517.37,404.87Z" style="fill:#f15a29"/><path d="M513.43,401.83a3.42,3.42,0,0,1-2.57-.63,3.47,3.47,0,1,1,2.57.63Zm-.7-4.62a1.21,1.21,0,0,0-1,1.37,1.23,1.23,0,0,0,.47.79,1.24,1.24,0,0,0,1.69-.26h0a1.18,1.18,0,0,0,.22-.89,1.2,1.2,0,0,0-.48-.79A1.17,1.17,0,0,0,512.73,397.21Z" style="fill:#f9ed32"/><path d="M504.74,399.7a3.47,3.47,0,1,1,2.9-4A3.48,3.48,0,0,1,504.74,399.7Zm-.71-4.62a1.2,1.2,0,1,0,1.37,1A1.2,1.2,0,0,0,504,395.08Z" style="fill:#1b75bc"/><path d="M507.09,415.05a7.3,7.3,0,1,1,6.11-8.32A7.31,7.31,0,0,1,507.09,415.05Zm-1.87-12.2a5,5,0,1,0,5.74,4.22A5,5,0,0,0,505.22,402.85Z" style="fill:#009444"/></g><g id="Stocking"><path d="M510.55,57.5a4.72,4.72,0,0,1-3.34-8.06l.74-.75a3.73,3.73,0,0,0,0-5.28l-6.57-6.58a.88.88,0,0,1,0-1.27.9.9,0,0,1,1.27,0l6.58,6.58a5.55,5.55,0,0,1,0,7.82l-.75.75a2.92,2.92,0,0,0,0,4.14,3,3,0,0,0,4.14,0l10.17-10.17a5.05,5.05,0,0,0,0-7.14L511.73,26.48A.9.9,0,1,1,513,25.21l11.06,11.06a6.85,6.85,0,0,1,0,9.68L513.89,56.12A4.7,4.7,0,0,1,510.55,57.5Z" style="fill:#be1e2d"/><path d="M500.06,37.81a3.44,3.44,0,0,1-2.42-1L496,35.15a3.41,3.41,0,0,1-.69-3.83l0,0a5.74,5.74,0,0,1,2.77-2.77A4,4,0,0,0,500,26.6a5.84,5.84,0,0,1,2.77-2.78,4,4,0,0,0,1.92-1.91,5.74,5.74,0,0,1,2.77-2.77,3.42,3.42,0,0,1,3.86.67L513,21.48a3.42,3.42,0,0,1,.67,3.86h0a5.82,5.82,0,0,1-2.77,2.77A4,4,0,0,0,509,30a5.8,5.8,0,0,1-2.77,2.78,3.94,3.94,0,0,0-1.91,1.91,5.86,5.86,0,0,1-2.78,2.78A3.36,3.36,0,0,1,500.06,37.81ZM497,32l0,0a1.62,1.62,0,0,0,.32,1.82l1.67,1.67a1.62,1.62,0,0,0,1.82.31A3.94,3.94,0,0,0,502.65,34a5.82,5.82,0,0,1,2.78-2.78,4,4,0,0,0,1.91-1.91,5.82,5.82,0,0,1,2.78-2.78A3.94,3.94,0,0,0,512,24.57h0a1.6,1.6,0,0,0-.32-1.82l-1.66-1.67a1.62,1.62,0,0,0-1.82-.31,3.94,3.94,0,0,0-1.91,1.91,5.84,5.84,0,0,1-2.78,2.77,4,4,0,0,0-1.91,1.91,5.8,5.8,0,0,1-2.77,2.78A3.94,3.94,0,0,0,497,32Z" style="fill:#f1f2f2"/><path d="M521.82,47.82a.93.93,0,0,1-.64-.26,9.13,9.13,0,0,1,0-12.9.9.9,0,1,1,1.27,1.27,7.35,7.35,0,0,0,0,10.36.9.9,0,0,1-.63,1.53Z" style="fill:#be1e2d"/><path d="M515.34,54.24a.9.9,0,0,1-.87-.71,6.64,6.64,0,0,0-5-5.05.9.9,0,1,1,.4-1.76,8.46,8.46,0,0,1,6.35,6.43.91.91,0,0,1-.69,1.07Z" style="fill:#be1e2d"/><path d="M509.37,37.7a.9.9,0,0,1-.9-.9V33.21a.9.9,0,0,1,.9-.9H513a.9.9,0,0,1,0,1.8h-2.7V36.8A.9.9,0,0,1,509.37,37.7Z" style="fill:#006838"/><path d="M511.64,40a.9.9,0,0,1-.9-.9v-3.6a.9.9,0,0,1,.9-.9h3.6a.9.9,0,0,1,0,1.8h-2.7v2.7A.9.9,0,0,1,511.64,40Z" style="fill:#006838"/><path d="M515.35,40.09a.86.86,0,0,1-.63-.27l-1.36-1.36a.9.9,0,0,1,1.27-1.27L516,38.55a.9.9,0,0,1,0,1.27A.87.87,0,0,1,515.35,40.09Z" style="fill:#754c29"/></g><g id="Holly"><path d="M32.78,382.75a1,1,0,0,1-.44-.19.89.89,0,0,1-.15-1.26,4,4,0,0,0,.89-3.86l-2.18.26a.88.88,0,0,1-.76-.27.92.92,0,0,1-.24-.76,10.57,10.57,0,0,0,.08-3,5.76,5.76,0,0,0-1.4-2.56,5.75,5.75,0,0,0-2,2.1,10.65,10.65,0,0,0-.71,2.88.89.89,0,0,1-1.24.73l-2-.83a4.05,4.05,0,0,0-.16,4,.9.9,0,1,1-1.66.7,5.57,5.57,0,0,1,.95-6.41.9.9,0,0,1,.94-.16l1.59.65A9.11,9.11,0,0,1,25,372.4a7.56,7.56,0,0,1,3.41-3.19.91.91,0,0,1,.91.12,7.63,7.63,0,0,1,2.45,4,9.27,9.27,0,0,1,.07,2.47l1.7-.21a.91.91,0,0,1,.87.41c.08.12,1.9,3-.78,6.43A.89.89,0,0,1,32.78,382.75Z" style="fill:#006838"/><path d="M17.28,399.54a3.48,3.48,0,0,1-.49-.1.9.9,0,0,1-.63-.71l-.28-1.7a9.05,9.05,0,0,1-2.39.62A7.61,7.61,0,0,1,9,396.42a.88.88,0,0,1-.38-.84,7.6,7.6,0,0,1,2.11-4.17,9.13,9.13,0,0,1,2-1.36l-1.06-1.34a.89.89,0,0,1-.11-.95c.06-.13,1.58-3.2,5.88-2.71h0a.9.9,0,0,1-.22,1.79,4.05,4.05,0,0,0-3.76,1.26l1.37,1.72a.9.9,0,0,1-.35,1.39A10.42,10.42,0,0,0,12,392.7a5.77,5.77,0,0,0-1.45,2.53,5.7,5.7,0,0,0,2.85.63A11.08,11.08,0,0,0,16.2,395a.9.9,0,0,1,1.27.67l.36,2.16a4,4,0,0,0,3.45-1.93.9.9,0,0,1,1.47,1A5.67,5.67,0,0,1,17.28,399.54Z" style="fill:#006838"/><path d="M32,401.52a5.67,5.67,0,0,1-4.58-4,.9.9,0,0,1,.54-1.16.89.89,0,0,1,1.15.54,4,4,0,0,0,2.82,2.78l.92-2a.89.89,0,0,1,1.4-.31A10.62,10.62,0,0,0,36.71,399a5.74,5.74,0,0,0,2.91.16,5.55,5.55,0,0,0-.73-2.82,10,10,0,0,0-2.08-2.12.91.91,0,0,1-.34-.73.89.89,0,0,1,.37-.71l1.77-1.29a4,4,0,0,0-3.28-2.22.9.9,0,0,1-.75-1,.89.89,0,0,1,1-.75h0a5.57,5.57,0,0,1,5,4.18.89.89,0,0,1-.36.88l-1.38,1a9,9,0,0,1,1.62,1.86,7.55,7.55,0,0,1,.93,4.57.89.89,0,0,1-.59.72,7.5,7.5,0,0,1-4.67,0A9.08,9.08,0,0,1,34,399.47L33.26,401a.88.88,0,0,1-.8.52A2.78,2.78,0,0,1,32,401.52Z" style="fill:#006838"/><path d="M21.63,390.05a5.26,5.26,0,1,1,5.92-4.51A5.28,5.28,0,0,1,21.63,390.05Zm1.17-8.65a3.47,3.47,0,1,0,3,3.9A3.46,3.46,0,0,0,22.8,381.4Z" style="fill:#be1e2d"/><path d="M20.91,384.73a.9.9,0,0,1-.42-1.61l.18-.14a.9.9,0,0,1,1.26.17.89.89,0,0,1-.17,1.26l-.18.14A.92.92,0,0,1,20.91,384.73Z" style="fill:#be1e2d"/><path d="M30.28,391.22a5.27,5.27,0,0,1-2.49-9.41,5.27,5.27,0,0,1,6.39,8.38h0A5.26,5.26,0,0,1,30.28,391.22Zm1.17-8.65a3.47,3.47,0,1,0,2.29,1.33A3.46,3.46,0,0,0,31.45,382.57Zm2.18,6.9h0Z" style="fill:#be1e2d"/><path d="M30.88,385.3l-.23,0a.9.9,0,0,1,.24-1.79l.23,0a.9.9,0,0,1-.24,1.78Z" style="fill:#be1e2d"/><path d="M25,398.09a5.26,5.26,0,1,1,5.92-4.51A5.28,5.28,0,0,1,25,398.09Zm1.17-8.65a3.47,3.47,0,1,0,3,3.9A3.47,3.47,0,0,0,26.12,389.44Z" style="fill:#be1e2d"/><path d="M26.67,392.65a.89.89,0,0,1-.6-.35l-.14-.18A.9.9,0,0,1,27.37,391l.13.18a.9.9,0,0,1-.83,1.44Z" style="fill:#be1e2d"/></g><g id="Hat"><path d="M50.36,40.9a1,1,0,0,1-1.17-.83c-1.35-7.85-7.93-13.29-14.68-12.14S23.36,36.41,24.7,44.26a1,1,0,0,1-.83,1.18,1,1,0,0,1-1.18-.84c-1.53-9,3.62-17.33,11.47-18.68s15.5,4.85,17,13.81A1,1,0,0,1,50.36,40.9Z" style="fill:#00aeef"/><path d="M34.51,27.93a5,5,0,1,1,4.12-5.83A5.05,5.05,0,0,1,34.51,27.93ZM33.15,20a3,3,0,1,0,3.48,2.46A3,3,0,0,0,33.15,20Z" style="fill:#1b75bc"/><path d="M43.63,42.05a1,1,0,0,1-1.18-.83,30.8,30.8,0,0,0-2.45-8,1,1,0,0,1,1.83-.89,32.87,32.87,0,0,1,2.63,8.54A1,1,0,0,1,43.63,42.05Z" style="fill:#1b75bc"/><path d="M30.44,34.34a1.37,1.37,0,0,1-.35,0,1,1,0,0,1-.83-1.18l0-.21a1,1,0,0,1,2,.36l0,.19A1,1,0,0,1,30.44,34.34Z" style="fill:#00aeef"/><path d="M30.61,44.28a1,1,0,0,1-1.18-.83,35.08,35.08,0,0,1-.51-6.68,1,1,0,0,1,2,0,32.68,32.68,0,0,0,.48,6.29A1,1,0,0,1,30.61,44.28Z" style="fill:#1b75bc"/><path d="M37.12,43.17a1,1,0,0,1-1.18-.83l-.8-4.68a1,1,0,0,1,2-.34L38,42A1,1,0,0,1,37.12,43.17Z" style="fill:#00aeef"/><path d="M28,58.28a9.76,9.76,0,0,1-3.28,0,5.41,5.41,0,0,1-4.38-4.4l-.69-4a5.41,5.41,0,0,1,2.66-5.6,9.53,9.53,0,0,1,6.38-1.1,7.54,7.54,0,0,0,5-.85,9.56,9.56,0,0,1,6.39-1.1h0a7.55,7.55,0,0,0,5-.87,9.58,9.58,0,0,1,6.38-1.09,5.41,5.41,0,0,1,4.37,4.4l.69,4.05a5.39,5.39,0,0,1-2.65,5.6h0a9.58,9.58,0,0,1-6.38,1.09,7.57,7.57,0,0,0-5,.86,9.56,9.56,0,0,1-6.37,1.09,7.55,7.55,0,0,0-5,.86A9.82,9.82,0,0,1,28,58.28ZM52.86,51.5l.5.88-.5-.88A3.39,3.39,0,0,0,54.52,48l-.7-4a3.35,3.35,0,0,0-2.72-2.73,7.49,7.49,0,0,0-5,.86,9.58,9.58,0,0,1-6.38,1.09h0a7.54,7.54,0,0,0-5,.86,9.54,9.54,0,0,1-6.38,1.1,7.53,7.53,0,0,0-5,.86,3.36,3.36,0,0,0-1.66,3.49l.69,4A3.37,3.37,0,0,0,25,56.26a7.57,7.57,0,0,0,5-.86,9.6,9.6,0,0,1,6.38-1.1,7.52,7.52,0,0,0,5-.85,9.58,9.58,0,0,1,6.38-1.1A7.47,7.47,0,0,0,52.86,51.5Z" style="fill:#1b75bc"/></g></g></svg>