<svg xmlns="http://www.w3.org/2000/svg" viewBox="0 0 600 450"><title>bg</title><g style="isolation:isolate"><rect width="600" height="450" style="fill:#016177;opacity:0.9500000000000001"/><g style="opacity:0.30000000000000004"><circle cx="85.25" cy="122.52" r="6.91" style="fill:#fff"/><circle cx="127.77" cy="304.84" r="6.91" style="fill:#fff"/><circle cx="165.98" cy="228.99" r="5.5" style="fill:#fff"/><circle cx="64.83" cy="280.55" r="2.73" style="fill:#fff"/><circle cx="367.38" cy="109" r="5.5" style="fill:#fff"/><circle cx="227.17" cy="266.1" r="6.91" style="fill:#fff"/><circle cx="277.06" cy="167.19" r="6.91" style="fill:#fff"/><circle cx="388.44" cy="167.19" r="3.85" style="fill:#fff"/><circle cx="202.15" cy="121.58" r="2.73" style="fill:#fff"/><circle cx="333.98" cy="235.99" r="5.5" style="fill:#fff"/><circle cx="355.56" cy="273.01" r="3.85" style="fill:#fff"/><circle cx="216.15" cy="340.58" r="2.73" style="fill:#fff"/><circle cx="31.16" cy="196.3" r="5.5" style="fill:#fff"/><circle cx="476.13" cy="136.43" r="6.91" style="fill:#fff"/><circle cx="462.15" cy="159.58" r="2.73" style="fill:#fff"/><circle cx="581.24" cy="87.08" r="5.5" style="fill:#fff"/><circle cx="555.83" cy="116.55" r="2.73" style="fill:#fff"/><circle cx="467.65" cy="24.51" r="5.5" style="fill:#fff"/><circle cx="318.15" cy="32.75" r="6.91" style="fill:#fff"/><circle cx="56.6" cy="16.56" r="5.5" style="fill:#fff"/><circle cx="219.04" cy="38.16" r="2.73" style="fill:#fff"/><circle cx="469.22" cy="313.35" r="5.5" style="fill:#fff"/><circle cx="522.26" cy="234.49" r="6.91" style="fill:#fff"/><circle cx="447.45" cy="223.72" r="3.85" style="fill:#fff"/><circle cx="388.44" cy="354.3" r="3.85" style="fill:#fff"/><circle cx="51.1" cy="391.31" r="6.91" style="fill:#fff"/><circle cx="418.83" cy="306.55" r="2.73" style="fill:#fff"/><circle cx="578.33" cy="401.74" r="5.5" style="fill:#fff"/><circle cx="309.06" cy="365.07" r="6.91" style="fill:#fff"/><circle cx="454.15" cy="405.79" r="2.73" style="fill:#fff"/><circle cx="162.66" cy="389.9" r="5.5" style="fill:#fff"/><circle cx="263.02" cy="408.52" r="5.5" style="fill:#fff"/></g><g style="opacity:0.25"><line x1="31.16" y1="126.42" x2="31.16" y2="126.3" style="fill:none;stroke:#f1f1f2;stroke-linecap:round;stroke-miterlimit:10"/><line x1="31.16" y1="124.29" x2="31.16" y2="1.13" style="fill:none;stroke:#f1f1f2;stroke-linecap:round;stroke-miterlimit:10;stroke-dasharray:0.25084030628204346,2.0067224502563477"/><line x1="31.16" y1="0.13" x2="31.16" style="fill:none;stroke:#f1f1f2;stroke-linecap:round;stroke-miterlimit:10"/></g><g style="opacity:0.25"><line x1="171.74" y1="143.34" x2="171.74" y2="143.21" style="fill:none;stroke:#f1f1f2;stroke-linecap:round;stroke-miterlimit:10"/><line x1="171.74" y1="141.22" x2="171.74" y2="1.12" style="fill:none;stroke:#f1f1f2;stroke-linecap:round;stroke-miterlimit:10;stroke-dasharray:0.2488478571176529,1.9907828569412231"/><line x1="171.74" y1="0.13" x2="171.74" style="fill:none;stroke:#f1f1f2;stroke-linecap:round;stroke-miterlimit:10"/></g><g style="opacity:0.25"><line x1="351.07" y1="126.42" x2="351.07" y2="126.3" style="fill:none;stroke:#f1f1f2;stroke-linecap:round;stroke-miterlimit:10"/><line x1="351.07" y1="124.29" x2="351.07" y2="1.13" style="fill:none;stroke:#f1f1f2;stroke-linecap:round;stroke-miterlimit:10;stroke-dasharray:0.25084030628204346,2.0067224502563477"/><line x1="351.07" y1="0.13" x2="351.07" style="fill:none;stroke:#f1f1f2;stroke-linecap:round;stroke-miterlimit:10"/></g><g style="opacity:0.25"><line x1="101.5" y1="371.98" x2="101.5" y2="371.85" style="fill:none;stroke:#f1f1f2;stroke-linecap:round;stroke-miterlimit:10"/><line x1="101.5" y1="369.85" x2="101.5" y2="1.13" style="fill:none;stroke:#f1f1f2;stroke-linecap:round;stroke-miterlimit:10;stroke-dasharray:0.2504904568195343,2.0039236545562744"/><line x1="101.5" y1="0.12" x2="101.5" style="fill:none;stroke:#f1f1f2;stroke-linecap:round;stroke-miterlimit:10"/></g><line x1="47.67" y1="310.33" x2="47.67" y2="310.21" style="fill:none;stroke:#f1f1f2;stroke-linecap:round;stroke-miterlimit:10"/><line x1="47.67" y1="308.21" x2="47.67" y2="1.12" style="fill:none;stroke:#f1f1f2;stroke-linecap:round;stroke-miterlimit:10;stroke-dasharray:0.24986569583415985,1.9989255666732788"/><line x1="47.67" y1="0.12" x2="47.67" style="fill:none;stroke:#f1f1f2;stroke-linecap:round;stroke-miterlimit:10"/><g style="opacity:0.25"><line x1="562.67" y1="188.8" x2="562.67" y2="188.68" style="fill:none;stroke:#f1f1f2;stroke-linecap:round;stroke-miterlimit:10"/><line x1="562.67" y1="186.68" x2="562.67" y2="1.12" style="fill:none;stroke:#f1f1f2;stroke-linecap:round;stroke-miterlimit:10;stroke-dasharray:0.24973970651626587,1.997917652130127"/><line x1="562.67" y1="0.12" x2="562.67" style="fill:none;stroke:#f1f1f2;stroke-linecap:round;stroke-miterlimit:10"/></g><g style="opacity:0.25"><line x1="492.33" y1="371.98" x2="492.33" y2="371.85" style="fill:none;stroke:#f1f1f2;stroke-linecap:round;stroke-miterlimit:10"/><line x1="492.33" y1="369.85" x2="492.33" y2="1.13" style="fill:none;stroke:#f1f1f2;stroke-linecap:round;stroke-miterlimit:10;stroke-dasharray:0.2504904568195343,2.0039236545562744"/><line x1="492.33" y1="0.12" x2="492.33" style="fill:none;stroke:#f1f1f2;stroke-linecap:round;stroke-miterlimit:10"/></g><line x1="431.07" y1="70.67" x2="431.07" y2="70.54" style="fill:none;stroke:#f1f1f2;stroke-linecap:round;stroke-miterlimit:10"/><line x1="431.07" y1="68.52" x2="431.07" y2="1.14" style="fill:none;stroke:#f1f1f2;stroke-linecap:round;stroke-miterlimit:10;stroke-dasharray:0.253297358751297,2.026378870010376"/><line x1="431.07" y1="0.13" x2="431.07" style="fill:none;stroke:#f1f1f2;stroke-linecap:round;stroke-miterlimit:10"/><line x1="272.6" y1="90.45" x2="272.6" y2="90.32" style="fill:none;stroke:#f1f1f2;stroke-linecap:round;stroke-miterlimit:10"/><line x1="272.6" y1="88.31" x2="272.6" y2="1.13" style="fill:none;stroke:#f1f1f2;stroke-linecap:round;stroke-miterlimit:10;stroke-dasharray:0.25124308466911316,2.0099446773529053"/><line x1="272.6" y1="0.13" x2="272.6" style="fill:none;stroke:#f1f1f2;stroke-linecap:round;stroke-miterlimit:10"/><path d="M351,126.42a7.13,7.13,0,0,1-2.36,2.4c-2.06,1.47-4.35,2.15-6.67,3.1-3.52,1.46-6.87,4.51-6.74,8.61-.13,4.1,3.22,7.16,6.74,8.61,2.32,1,4.61,1.64,6.67,3.1a7.13,7.13,0,0,1,2.36,2.4,7.25,7.25,0,0,1,2.37-2.4c2.06-1.46,4.35-2.14,6.67-3.1,3.52-1.45,6.87-4.51,6.74-8.61.13-4.1-3.22-7.15-6.74-8.61-2.32-.95-4.61-1.63-6.67-3.1A7.25,7.25,0,0,1,351,126.42Z" style="fill:#f4c35e"/><path d="M47.67,357.89c0-.31,0-.61,0-.92.6-8.36,4.51-16,5.57-24.33,1-7.86,0-16.28-5.61-22.31-5.6,6-6.61,14.45-5.61,22.31,1.06,8.32,5,16,5.56,24.33C47.64,357.28,47.66,357.58,47.67,357.89Z" style="fill:#cdeae8"/><path d="M562.67,236.36c0-.31,0-.61.05-.92.6-8.36,4.51-16,5.56-24.33,1-7.86,0-16.28-5.61-22.31-5.6,6-6.61,14.45-5.6,22.31,1,8.32,5,16,5.56,24.33C562.65,235.75,562.67,236.05,562.67,236.36Z" style="fill:#f7941d"/><path d="M503.81,382.24c.09-3-2.35-5.2-4.91-6.26a22.78,22.78,0,0,1-4.85-2.26,5.3,5.3,0,0,1-1.72-1.74,5.17,5.17,0,0,1-1.71,1.74,22.85,22.85,0,0,1-4.86,2.26c-2.56,1.06-5,3.28-4.9,6.26-.1,3,2.34,5.21,4.9,6.26a26.47,26.47,0,0,1,4.56,2.08c-.81.42-1.66.7-2.52,1.06-1.77.73-3.45,2.26-3.39,4.32s1.62,3.59,3.39,4.32a16,16,0,0,1,3.35,1.56,3.56,3.56,0,0,1,1.18,1.2,3.59,3.59,0,0,1,1.19-1.2,16,16,0,0,1,3.35-1.56c1.76-.73,3.45-2.26,3.38-4.32s-1.62-3.59-3.38-4.32c-.86-.36-1.72-.64-2.52-1.06a26.38,26.38,0,0,1,4.55-2.08C501.46,387.45,503.9,385.22,503.81,382.24Z" style="fill:#a5d0bf"/><path d="M431.07,70.67a25.81,25.81,0,1,0,25.81,25.8A25.8,25.8,0,0,0,431.07,70.67Zm9.34,34.23-6.64,6.73,0,0a3.69,3.69,0,0,1-5.23,0l-6.66-6.72a3.8,3.8,0,0,1,0-5.34l0,0a2.29,2.29,0,0,1,3.25,0l3.37,3.4,0,0a3.69,3.69,0,0,0,5.23,0l3.37-3.41,0,0a2.3,2.3,0,0,1,3.25,0A3.8,3.8,0,0,1,440.41,104.9Zm7-10.75,0,0a2.21,2.21,0,0,1-3.13,0L441,90.94l0,0a3.56,3.56,0,0,0-5,.09h0l-3.27,3.32,0,0a2.22,2.22,0,0,1-2,.6,2.15,2.15,0,0,1-1.17-.61l-3.21-3.24,0,0a3.57,3.57,0,0,0-5,.1l-3.27,3.31,0,0a2.2,2.2,0,0,1-3.13,0,3.66,3.66,0,0,1,0-5.15l6.47-6.55,0,0a3.56,3.56,0,0,1,5,0l4.81,4.86,4.89-5,0,0a3.57,3.57,0,0,1,5,0L447.44,89A3.67,3.67,0,0,1,447.39,94.15Z" style="fill:#2bb673"/><path d="M272.24,90.45a9.2,9.2,0,1,1-8.86,9.52A9.2,9.2,0,0,1,272.24,90.45Z" style="fill:#009444"/><path d="M272.92,96.89a3.34,3.34,0,1,1,3.46,3.21A3.34,3.34,0,0,1,272.92,96.89Zm1.6-.06A1.74,1.74,0,1,0,276.19,95,1.73,1.73,0,0,0,274.52,96.83Z" style="fill:#39b54a"/><path d="M274.8,103a2.23,2.23,0,1,1,2.31,2.15A2.23,2.23,0,0,1,274.8,103Zm1.6-.06a.63.63,0,0,0,1.26,0,.64.64,0,0,0-.65-.61A.63.63,0,0,0,276.4,103Z" style="fill:#39b54a"/><polygon points="171.74 143.32 171.74 163.83 162.53 158.43 171.74 143.32" style="fill:#66bd96"/><polygon points="171.74 143.32 171.74 163.83 180.96 158.43 171.74 143.32" style="fill:#a5d1be"/><polygon points="171.74 165.57 171.74 173.1 162.53 160.17 171.74 165.57" style="fill:#569d7c"/><polygon points="171.74 165.57 171.74 173.1 180.96 160.17 171.74 165.57" style="fill:#517d71"/><polygon points="180.96 158.43 171.74 154.26 171.74 163.83 180.96 158.43" style="fill:#569d7c"/><polygon points="162.53 158.43 171.74 154.26 171.74 163.83 162.53 158.43" style="fill:#517d71"/><g style="mix-blend-mode:hard-light"><polygon points="165.92 155.92 165.92 155.92 165.91 155.92 165.92 155.92" style="fill:#d9d98d"/><polygon points="164.06 153.88 164.07 153.88 164.06 153.89 164.06 153.88" style="fill:#d9d98d"/><ellipse cx="164.07" cy="155.92" rx="1.85" ry="2.03" style="fill:#d9d98d"/><polygon points="162.21 155.92 162.21 155.92 162.22 155.92 162.21 155.92" style="fill:#d9d98d"/><polygon points="164.07 157.96 164.06 157.96 164.06 157.95 164.07 157.96" style="fill:#d9d98d"/></g><path d="M112.91,398.63a1,1,0,0,1-.93-1.1c.7-7.94-4.29-14.88-11.11-15.47s-12.94,5.37-13.63,13.3a1,1,0,0,1-1.11.93,1,1,0,0,1-.92-1.11c.79-9.05,7.9-15.85,15.84-15.15s13.76,8.62,13,17.67A1,1,0,0,1,112.91,398.63Z" style="fill:#ed1c24"/><path d="M114.4,397.28l-.36-.14c.5-8.82-5.22-16.43-13-17.11s-14.73,5.82-15.77,14.59l-.38.08a5.41,5.41,0,0,0-4,4.74l-.36,4.09a5.4,5.4,0,0,0,3.12,5.37,9.59,9.59,0,0,0,6.45.56,7.6,7.6,0,0,1,5.08.45,9.53,9.53,0,0,0,6.44.56,7.57,7.57,0,0,1,5.07.45,9.56,9.56,0,0,0,6.45.56,5.4,5.4,0,0,0,4-4.74l.36-4.09A5.4,5.4,0,0,0,114.4,397.28Z" style="fill:#27aae1"/><path d="M100.87,382.06a5,5,0,1,1,5.47-4.59A5.07,5.07,0,0,1,100.87,382.06Zm.7-8a3,3,0,1,0,2.74,3.26A3,3,0,0,0,101.57,374Z" style="fill:#27aae1"/><path d="M106.1,398a1,1,0,0,1-.92-1.1,30.88,30.88,0,0,0-.35-8.36,1,1,0,0,1,.81-1.19,1,1,0,0,1,1.19.81,32.56,32.56,0,0,1,.37,8.92A1,1,0,0,1,106.1,398Z" style="fill:#1b75bc"/><path d="M95.3,387.22a1,1,0,0,1-.84-1.44l.1-.2a1,1,0,0,1,1.35-.49,1,1,0,0,1,.49,1.36l-.08.17A1,1,0,0,1,95.3,387.22Z" style="fill:#45d3ff"/><path d="M92.94,396.88a1,1,0,0,1-.92-1.1,34.68,34.68,0,0,1,1.2-6.59,1,1,0,0,1,2,.56A32.41,32.41,0,0,0,94.05,396,1,1,0,0,1,92.94,396.88Z" style="fill:#1b75bc"/><path d="M99.52,397.46a1,1,0,0,1-.92-1.11l.41-4.72a1,1,0,1,1,2,.18l-.41,4.72A1,1,0,0,1,99.52,397.46Z" style="fill:#45d3ff"/><path d="M86.84,409.74a9.26,9.26,0,0,1-3.17-.84,5.4,5.4,0,0,1-3.12-5.37l.36-4.09a5.41,5.41,0,0,1,4-4.74,9.55,9.55,0,0,1,6.45.56,7.49,7.49,0,0,0,5.08.45,9.56,9.56,0,0,1,6.45.56h0a7.51,7.51,0,0,0,5,.44,9.56,9.56,0,0,1,6.45.56,5.4,5.4,0,0,1,3.11,5.37l-.36,4.09a5.4,5.4,0,0,1-4,4.74h0a9.56,9.56,0,0,1-6.45-.56,7.57,7.57,0,0,0-5.07-.45,9.53,9.53,0,0,1-6.44-.56,7.6,7.6,0,0,0-5.08-.45A9.35,9.35,0,0,1,86.84,409.74Zm25.79-.23.27,1-.26-1a3.35,3.35,0,0,0,2.48-2.95l.36-4.09a3.38,3.38,0,0,0-1.94-3.34,7.48,7.48,0,0,0-5.06-.44,9.56,9.56,0,0,1-6.45-.56h0a7.51,7.51,0,0,0-5.05-.44,9.56,9.56,0,0,1-6.45-.56,7.52,7.52,0,0,0-5.07-.45,3.36,3.36,0,0,0-2.5,2.95l-.36,4.09a3.35,3.35,0,0,0,1.94,3.34,7.57,7.57,0,0,0,5.07.45,9.55,9.55,0,0,1,6.45.56,7.54,7.54,0,0,0,5.08.44,9.63,9.63,0,0,1,6.45.57A7.48,7.48,0,0,0,112.63,409.51Z" style="fill:#1b75bc"/><path d="M562.05,347.41a6.12,6.12,0,0,1-1.48-.44,5.85,5.85,0,0,1-3.09-3.26L552.58,331,544,341.58a5.86,5.86,0,0,1-8.26.87,5.88,5.88,0,0,1-.88-8.26l8.5-10.5,1.45-9.19-10.62-6.77a5.88,5.88,0,0,1,6.32-9.91l7.83,5a10.25,10.25,0,1,1,16.95,2.67l9-2.33a5.88,5.88,0,0,1,7.16,4.2h0a5.88,5.88,0,0,1-4.2,7.17l-12.19,3.17-1.45,9.18,4.84,12.62a5.88,5.88,0,0,1-6.39,7.91Z" style="fill:#8b5e3c"/><path d="M562.05,347.41a6.12,6.12,0,0,1-1.48-.44,5.85,5.85,0,0,1-3.09-3.26L552.58,331,544,341.58a5.86,5.86,0,0,1-8.26.87,5.88,5.88,0,0,1-.88-8.26l8.5-10.5,1.45-9.19-10.62-6.77a5.88,5.88,0,0,1,6.32-9.91l7.83,5a10.25,10.25,0,1,1,16.95,2.67l9-2.33a5.88,5.88,0,0,1,7.16,4.2h0a5.88,5.88,0,0,1-4.2,7.17l-12.19,3.17-1.45,9.18,4.84,12.62a5.88,5.88,0,0,1-6.39,7.91Zm-8.76-20.91a1.5,1.5,0,0,1,1.18.95l5.83,15.17a2.85,2.85,0,0,0,1.5,1.59,2.86,2.86,0,0,0,3.76-1.45,2.84,2.84,0,0,0,.06-2.18l-5-13a1.39,1.39,0,0,1-.08-.78l1.66-10.56a1.51,1.51,0,0,1,1.12-1.23l13.15-3.42a2.86,2.86,0,0,0,2-3.48,2.86,2.86,0,0,0-3.48-2L563.83,309a1.61,1.61,0,0,1-.62,0l-3.29-.52a1.52,1.52,0,0,1-.19-2.95,7.22,7.22,0,1,0-6.11-1,1.51,1.51,0,0,1,.56,1.81,1.53,1.53,0,0,1-1.65.93l-3.29-.52a1.52,1.52,0,0,1-.58-.22l-9.76-6.23a2.85,2.85,0,0,0-3.07,4.81l11.46,7.3A1.55,1.55,0,0,1,548,314l-1.67,10.56a1.44,1.44,0,0,1-.32.71l-8.75,10.82a2.85,2.85,0,0,0,.42,4,2.85,2.85,0,0,0,4-.42L551.88,327A1.5,1.5,0,0,1,553.29,326.5Z" style="fill:#754c29"/><path d="M536.74,309.09a1.49,1.49,0,0,1-1.07-.73,1.52,1.52,0,0,1,.55-2.07,7.46,7.46,0,0,0,2.75-2.74,7.65,7.65,0,0,0,1-3.35,1.51,1.51,0,0,1,1.59-1.43,1.5,1.5,0,0,1,1.42,1.59,10.48,10.48,0,0,1-1.39,4.7,10.65,10.65,0,0,1-3.85,3.85A1.49,1.49,0,0,1,536.74,309.09Z" style="fill:#fff"/><path d="M574.4,315a1.49,1.49,0,0,1-.89-.48,10.52,10.52,0,0,1-2.36-9.75,1.52,1.52,0,0,1,2.93.78,7.39,7.39,0,0,0-.09,3.49,7.48,7.48,0,0,0,1.77,3.46,1.51,1.51,0,0,1-1.36,2.5Z" style="fill:#fff"/><path d="M544.45,339.9a1.52,1.52,0,0,1-1.13-.83,7.45,7.45,0,0,0-5.82-4.15,1.51,1.51,0,0,1,.37-3,10.62,10.62,0,0,1,4.6,1.71,10.48,10.48,0,0,1,3.57,4.12,1.5,1.5,0,0,1-1.59,2.15Z" style="fill:#fff"/><path d="M557.57,342a1.5,1.5,0,0,1-.81-.41,1.52,1.52,0,0,1,0-2.14,10.49,10.49,0,0,1,9.57-3,1.51,1.51,0,1,1-.57,3,7.49,7.49,0,0,0-6.82,2.15A1.54,1.54,0,0,1,557.57,342Z" style="fill:#fff"/><path d="M556.15,313l-1.4-.22a1.51,1.51,0,0,1,.47-3l1.4.23a1.51,1.51,0,0,1-.47,3Z" style="fill:#fff"/><path d="M555.4,317.66l-1.39-.22a1.51,1.51,0,0,1,.47-3l1.4.22a1.51,1.51,0,0,1-.48,3Z" style="fill:#fff"/><path d="M554.66,322.35l-1.39-.22a1.51,1.51,0,0,1,.47-3l1.4.22a1.51,1.51,0,0,1-.48,3Z" style="fill:#fff"/><path d="M556.76,304.54a6,6,0,0,1-3.9-2.38,1.51,1.51,0,0,1,2.45-1.78,3,3,0,0,0,4.12.65,1.51,1.51,0,0,1,1.78,2.44A6,6,0,0,1,556.76,304.54Z" style="fill:#fff"/><path d="M556.88,296.33a1.88,1.88,0,1,1-1.57-2.15A1.89,1.89,0,0,1,556.88,296.33Z" style="fill:#fff"/><path d="M559.18,296.7a1.88,1.88,0,1,0,2.15-1.57A1.89,1.89,0,0,0,559.18,296.7Z" style="fill:#fff"/><path d="M35.65,146.07c-.2,1.19-3.55,2-7.75,1.31s-7.12-2.55-6.92-3.74,3.55-2,7.75-1.31S35.85,144.88,35.65,146.07Z" style="fill:#e0ce2f"/><path d="M28.08,146.29a2.09,2.09,0,0,0,2.39-1.72,12.48,12.48,0,0,0,0-2.67.59.59,0,0,0-.64-.51.57.57,0,0,0-.51.64,12.44,12.44,0,0,1,0,2.35.92.92,0,1,1-1.82-.3,10.83,10.83,0,0,1,.79-2.22.58.58,0,1,0-1.05-.49,12.13,12.13,0,0,0-.88,2.52A2.09,2.09,0,0,0,28.08,146.29Z" style="fill:#fff383"/><path d="M35.5,143.75a1.78,1.78,0,0,1-.44-1.48l.81-4.85a6.24,6.24,0,1,0-12.31-2l-.8,4.85a1.78,1.78,0,0,1-.88,1.26c-1.12.41-1.89,1-2,2-.4,2.38,3.76,4.39,7.87,5.07s8.69.12,9.08-2.26A2.75,2.75,0,0,0,35.5,143.75Zm.15,2.32c-.2,1.19-3.55,2-7.75,1.31s-7.12-2.55-6.92-3.74,3.55-2,7.75-1.31S35.85,144.88,35.65,146.07Z" style="fill:#f9ed32"/><path d="M29.5,131.21h.15a.57.57,0,0,0,.52-.63,12,12,0,0,1,0-2.36.94.94,0,0,1,1.07-.76.93.93,0,0,1,.76,1.06,12.24,12.24,0,0,1-.79,2.22.58.58,0,0,0,.28.77.57.57,0,0,0,.76-.28,12.73,12.73,0,0,0,.89-2.52A2.08,2.08,0,0,0,29,128a13.36,13.36,0,0,0,0,2.67A.57.57,0,0,0,29.5,131.21Z" style="fill:#e0ce2f"/><path d="M32.77,140.07a.59.59,0,0,0,.67-.47l0-.22a.58.58,0,0,0-1.14-.19l0,.22A.57.57,0,0,0,32.77,140.07Z" style="fill:#fff383"/><path d="M33.1,138.09a.58.58,0,0,0,.66-.47l.06-.37A4.19,4.19,0,0,0,32,133.09a.58.58,0,0,0-.64,1,3,3,0,0,1,1.29,3l-.06.37A.58.58,0,0,0,33.1,138.09Z" style="fill:#fff383"/><path d="M37.38,133.56,32,131.15a.58.58,0,0,1-.33-.63l.28-1.72a.59.59,0,0,1,.52-.48l6-.54a1.7,1.7,0,0,1,1.2,2.87.52.52,0,0,0-.1.6,1.66,1.66,0,0,1-.27,1.84,1.69,1.69,0,0,1-1.55.55Zm-5.19-2.94h0Z" style="fill:#be1e2d"/><path d="M21.77,130.2a1.68,1.68,0,0,1,.35-1.83.55.55,0,0,0,.1-.6,1.68,1.68,0,0,1,.26-1.84,1.7,1.7,0,0,1,1.85-.47l5.42,2.42a.58.58,0,0,1,.34.62l-.29,1.72a.56.56,0,0,1-.52.48l-6,.54-.27,0A1.69,1.69,0,0,1,21.77,130.2Z" style="fill:#be1e2d"/></g></svg>