<svg xmlns="http://www.w3.org/2000/svg" viewBox="0 0 600 450"><title>PRO-1320-MyCrypto_Advent_Calendar_Daily_Illustrations_FINAL</title><rect width="600" height="450" style="fill:#016177;opacity:0.9500000000000001"/><g style="opacity:0.30000000000000004"><circle cx="85.25" cy="122.52" r="6.91" style="fill:#fff"/><circle cx="127.77" cy="304.84" r="6.91" style="fill:#fff"/><circle cx="165.98" cy="228.99" r="5.5" style="fill:#fff"/><circle cx="64.83" cy="280.55" r="2.73" style="fill:#fff"/><circle cx="367.38" cy="109" r="5.5" style="fill:#fff"/><circle cx="227.17" cy="266.1" r="6.91" style="fill:#fff"/><circle cx="277.06" cy="167.19" r="6.91" style="fill:#fff"/><circle cx="388.44" cy="167.19" r="3.85" style="fill:#fff"/><circle cx="202.15" cy="121.58" r="2.73" style="fill:#fff"/><circle cx="333.98" cy="235.99" r="5.5" style="fill:#fff"/><circle cx="355.56" cy="273.01" r="3.85" style="fill:#fff"/><circle cx="216.15" cy="340.58" r="2.73" style="fill:#fff"/><circle cx="31.16" cy="196.3" r="5.5" style="fill:#fff"/><circle cx="476.13" cy="136.43" r="6.91" style="fill:#fff"/><circle cx="462.15" cy="159.58" r="2.73" style="fill:#fff"/><circle cx="581.24" cy="87.08" r="5.5" style="fill:#fff"/><circle cx="555.83" cy="116.55" r="2.73" style="fill:#fff"/><circle cx="467.65" cy="24.51" r="5.5" style="fill:#fff"/><circle cx="306.91" cy="32.47" r="6.91" style="fill:#fff"/><circle cx="56.6" cy="16.56" r="5.5" style="fill:#fff"/><circle cx="219.04" cy="38.16" r="2.73" style="fill:#fff"/><circle cx="469.22" cy="313.35" r="5.5" style="fill:#fff"/><circle cx="522.26" cy="234.49" r="6.91" style="fill:#fff"/><circle cx="447.45" cy="223.72" r="3.85" style="fill:#fff"/><circle cx="388.44" cy="354.3" r="3.85" style="fill:#fff"/><circle cx="53.62" cy="422.9" r="6.91" style="fill:#fff"/><circle cx="418.83" cy="306.55" r="2.73" style="fill:#fff"/><circle cx="578.33" cy="401.74" r="5.5" style="fill:#fff"/><circle cx="309.06" cy="365.07" r="6.91" style="fill:#fff"/><circle cx="454.15" cy="405.79" r="2.73" style="fill:#fff"/><circle cx="162.66" cy="389.9" r="5.5" style="fill:#fff"/><circle cx="263.02" cy="408.52" r="5.5" style="fill:#fff"/></g><g style="opacity:0.25"><line x1="562.67" y1="126.42" x2="562.67" y2="126.3" style="fill:none;stroke:#f1f1f2;stroke-linecap:round;stroke-miterlimit:10"/><line x1="562.67" y1="124.29" x2="562.67" y2="1.13" style="fill:none;stroke:#f1f1f2;stroke-linecap:round;stroke-miterlimit:10;stroke-dasharray:0.25084030628204346,2.0067224502563477"/><line x1="562.67" y1="0.13" x2="562.67" style="fill:none;stroke:#f1f1f2;stroke-linecap:round;stroke-miterlimit:10"/></g><g style="opacity:0.25"><line x1="422.09" y1="56.72" x2="422.09" y2="56.59" style="fill:none;stroke:#f1f1f2;stroke-linecap:round;stroke-miterlimit:10"/><line x1="422.09" y1="54.58" x2="422.09" y2="1.13" style="fill:none;stroke:#f1f1f2;stroke-linecap:round;stroke-miterlimit:10;stroke-dasharray:0.25209808349609375,2.01678466796875"/><line x1="422.09" y1="0.13" x2="422.09" style="fill:none;stroke:#f1f1f2;stroke-linecap:round;stroke-miterlimit:10"/></g><g style="opacity:0.25"><line x1="492.33" y1="398.25" x2="492.33" y2="398.12" style="fill:none;stroke:#f1f1f2;stroke-linecap:round;stroke-miterlimit:10"/><line x1="492.33" y1="396.12" x2="492.33" y2="1.13" style="fill:none;stroke:#f1f1f2;stroke-linecap:round;stroke-miterlimit:10;stroke-dasharray:0.24999882280826569,1.9999905824661255"/><line x1="492.33" y1="0.13" x2="492.33" style="fill:none;stroke:#f1f1f2;stroke-linecap:round;stroke-miterlimit:10"/></g><line x1="546.17" y1="279.04" x2="546.17" y2="278.91" style="fill:none;stroke:#f1f1f2;stroke-linecap:round;stroke-miterlimit:10"/><line x1="546.17" y1="276.91" x2="546.17" y2="1.13" style="fill:none;stroke:#f1f1f2;stroke-linecap:round;stroke-miterlimit:10;stroke-dasharray:0.25003471970558167,2.0002777576446533"/><line x1="546.17" y1="0.13" x2="546.17" style="fill:none;stroke:#f1f1f2;stroke-linecap:round;stroke-miterlimit:10"/><g style="opacity:0.25"><line x1="31.16" y1="379.98" x2="31.16" y2="379.85" style="fill:none;stroke:#f1f1f2;stroke-linecap:round;stroke-miterlimit:10"/><line x1="31.16" y1="377.86" x2="31.16" y2="1.12" style="fill:none;stroke:#f1f1f2;stroke-linecap:round;stroke-miterlimit:10;stroke-dasharray:0.24982155859470367,1.9985724687576294"/><line x1="31.16" y1="0.13" x2="31.16" style="fill:none;stroke:#f1f1f2;stroke-linecap:round;stroke-miterlimit:10"/></g><g style="opacity:0.25"><line x1="101.5" y1="297.93" x2="101.5" y2="297.81" style="fill:none;stroke:#f1f1f2;stroke-linecap:round;stroke-miterlimit:10"/><line x1="101.5" y1="295.8" x2="101.5" y2="1.13" style="fill:none;stroke:#f1f1f2;stroke-linecap:round;stroke-miterlimit:10;stroke-dasharray:0.25078660249710083,2.0062928199768066"/><line x1="101.5" y1="0.13" x2="101.5" style="fill:none;stroke:#f1f1f2;stroke-linecap:round;stroke-miterlimit:10"/></g><line x1="47.67" y1="242.5" x2="47.67" y2="242.38" style="fill:none;stroke:#f1f1f2;stroke-linecap:round;stroke-miterlimit:10"/><line x1="47.67" y1="240.38" x2="47.67" y2="1.12" style="fill:none;stroke:#f1f1f2;stroke-linecap:round;stroke-miterlimit:10;stroke-dasharray:0.2494850605726242,1.9958804845809937"/><line x1="47.67" y1="0.13" x2="47.67" style="fill:none;stroke:#f1f1f2;stroke-linecap:round;stroke-miterlimit:10"/><line x1="162.76" y1="108.83" x2="162.76" y2="108.71" style="fill:none;stroke:#f1f1f2;stroke-linecap:round;stroke-miterlimit:10"/><line x1="162.76" y1="106.69" x2="162.76" y2="1.13" style="fill:none;stroke:#f1f1f2;stroke-linecap:round;stroke-miterlimit:10;stroke-dasharray:0.2519310414791107,2.0154483318328857"/><line x1="162.76" y1="0.13" x2="162.76" style="fill:none;stroke:#f1f1f2;stroke-linecap:round;stroke-miterlimit:10"/><path d="M31.16,380.27a7.13,7.13,0,0,1-2.36,2.4c-2.07,1.47-4.36,2.15-6.67,3.1-3.52,1.46-6.88,4.51-6.75,8.61-.13,4.1,3.23,7.16,6.75,8.61,2.31,1,4.6,1.64,6.67,3.11a7.19,7.19,0,0,1,2.36,2.39,7.19,7.19,0,0,1,2.36-2.39c2.07-1.47,4.36-2.15,6.67-3.11,3.52-1.45,6.87-4.51,6.75-8.61.12-4.1-3.23-7.15-6.75-8.61-2.31-.95-4.6-1.63-6.67-3.1A7.13,7.13,0,0,1,31.16,380.27Z" style="fill:#cdeae8"/><path d="M562.67,174c0-.31,0-.61.05-.92.6-8.37,4.51-16,5.56-24.33,1-7.86,0-16.28-5.61-22.31-5.6,6-6.61,14.45-5.6,22.31,1,8.32,5,16,5.56,24.33C562.65,173.37,562.67,173.67,562.67,174Z" style="fill:#fbb040"/><path d="M422.09,56.72a13.75,13.75,0,1,0,13.75,13.75A13.76,13.76,0,0,0,422.09,56.72Zm5,18.24-3.54,3.58,0,0a2,2,0,0,1-2.79,0L417.17,75a2,2,0,0,1,0-2.84l0,0a1.23,1.23,0,0,1,1.73,0l1.79,1.81,0,0a2,2,0,0,0,2.78,0l1.8-1.82h0a1.23,1.23,0,0,1,1.74,0A2,2,0,0,1,427.07,75Zm3.71-5.73v0a1.18,1.18,0,0,1-1.67,0l-1.71-1.73,0,0a1.9,1.9,0,0,0-2.69,0h0l-1.74,1.76,0,0a1.21,1.21,0,0,1-1.7,0l-1.71-1.72,0,0a1.91,1.91,0,0,0-2.69.06l-1.74,1.76v0a1.18,1.18,0,0,1-1.67,0,2,2,0,0,1,0-2.75l3.44-3.48,0,0a1.9,1.9,0,0,1,2.68,0l2.57,2.59,2.6-2.64,0,0a1.91,1.91,0,0,1,2.69,0l3.38,3.42A2,2,0,0,1,430.78,69.23Z" style="fill:#4e2175"/><path d="M47.34,242.51A9.19,9.19,0,1,1,38.48,252,9.19,9.19,0,0,1,47.34,242.51Z" style="fill:#1b75bc"/><path d="M48,248.94a3.34,3.34,0,1,1,3.46,3.22A3.35,3.35,0,0,1,48,248.94Zm1.6-.05a1.74,1.74,0,1,0,1.67-1.8A1.75,1.75,0,0,0,49.62,248.89Z" style="fill:#27aae1"/><path d="M49.9,255.07a2.23,2.23,0,1,1,2.31,2.15A2.23,2.23,0,0,1,49.9,255.07Zm1.6,0a.63.63,0,0,0,.65.6.63.63,0,1,0,0-1.25A.63.63,0,0,0,51.5,255Z" style="fill:#27aae1"/><polygon points="101.49 297.91 101.49 317.31 110.2 312.2 101.49 297.91" style="fill:#d80e2f"/><polygon points="101.49 297.91 101.49 317.31 92.77 312.2 101.49 297.91" style="fill:#f25f5f"/><polygon points="101.49 318.95 101.49 326.07 110.2 313.84 101.49 318.95" style="fill:#d80e2f"/><polygon points="101.49 318.95 101.49 326.07 92.77 313.84 101.49 318.95" style="fill:#be1e2d"/><polygon points="92.77 312.2 101.49 308.26 101.49 317.31 92.77 312.2" style="fill:#d80e2f"/><polygon points="110.2 312.2 101.49 308.26 101.49 317.31 110.2 312.2" style="fill:#be1e2d"/><path d="M162.64,148.89a4.21,4.21,0,0,1-5-3.22l-4.89-22.53a11.8,11.8,0,1,1,23.06-5l.39,1.78A4.21,4.21,0,1,1,168,121.7l-.39-1.78a3.38,3.38,0,0,0-6.6,1.43l4.89,22.53A4.21,4.21,0,0,1,162.64,148.89Z" style="fill:#f1f2f2"/><path d="M158.49,144.39a1.11,1.11,0,0,1-1.1-1.79l5-6.16a1.12,1.12,0,0,1,1.73,1.41l-5,6.15A1.06,1.06,0,0,1,158.49,144.39Z" style="fill:#be1e2d"/><path d="M157.4,139.37a1.11,1.11,0,0,1-1.1-1.79l5-6.16a1.12,1.12,0,0,1,1.73,1.41L158,139A1.09,1.09,0,0,1,157.4,139.37Z" style="fill:#be1e2d"/><path d="M163.75,117a1.12,1.12,0,0,1-1.13-.42,4.55,4.55,0,0,0-1.81-1.46,5.35,5.35,0,0,0-4.56.4,1.11,1.11,0,1,1-1.11-1.93,7.62,7.62,0,0,1,6.57-.51,6.86,6.86,0,0,1,2.7,2.16,1.12,1.12,0,0,1-.22,1.56A1.25,1.25,0,0,1,163.75,117Z" style="fill:#be1e2d"/><path d="M167.41,117.77a1.4,1.4,0,0,1-.36,0,1.13,1.13,0,0,1-1-1.24,5.79,5.79,0,0,0-.36-2.77,5.89,5.89,0,0,0-2.19-2.69,1.12,1.12,0,1,1,1.25-1.85,8.15,8.15,0,0,1,3,3.71,8,8,0,0,1,.51,3.85A1.11,1.11,0,0,1,167.41,117.77Z" style="fill:#be1e2d"/><path d="M560.43,313.8,530,304.37a1.16,1.16,0,0,1-.76-1.44l1.06-3.41a22.31,22.31,0,0,1,2.51-5.64,21,21,0,0,0,2.49-6.15l2.62-9.85a1.14,1.14,0,0,1,1.45-.8l16,5a1.15,1.15,0,0,1,.76,1.44l-2.26,7.3a6.35,6.35,0,0,0,4.18,7.94l1.08.34a9.66,9.66,0,0,1,6.36,12.07A4.05,4.05,0,0,1,560.43,313.8Z" style="fill:#27aae1"/><path d="M538.69,279.28l-.07,0a1.14,1.14,0,0,1-.66-1.48,2.62,2.62,0,0,0-.09-2,2.38,2.38,0,0,0-1.53-1.3h0a1.15,1.15,0,0,1,.67-2.2,4.91,4.91,0,0,1,2.94,2.52,4.84,4.84,0,0,1,.16,3.77A1.15,1.15,0,0,1,538.69,279.28Z" style="fill:#1b75bc"/><path d="M553.08,289.45l-4.23-1.31a1.15,1.15,0,1,1,.68-2.2l4.23,1.31a1.17,1.17,0,0,1,.76,1.44A1.15,1.15,0,0,1,553.08,289.45Z" style="fill:#1b75bc"/><path d="M552,292.79l-3.69-1.15a1.15,1.15,0,1,1,.68-2.19l3.69,1.14a1.15,1.15,0,0,1-.68,2.2Z" style="fill:#1b75bc"/><path d="M552.67,296.65l-4.23-1.31a1.16,1.16,0,0,1-.76-1.44,1.15,1.15,0,0,1,1.44-.76l4.23,1.31a1.15,1.15,0,0,1-.68,2.2Z" style="fill:#1b75bc"/><path d="M541,307.33a1.14,1.14,0,0,1-.79-1.3,13.6,13.6,0,0,0-5.1-13.18,1.16,1.16,0,0,1-.21-1.61,1.17,1.17,0,0,1,1.62-.21,15.91,15.91,0,0,1,6,15.41,1.16,1.16,0,0,1-1.34.93Z" style="fill:#1b75bc"/><path d="M560.15,321.2l-32.26-10a1.15,1.15,0,1,1,.68-2.2l32.26,10a3.5,3.5,0,0,0,4.36-2.3,1.15,1.15,0,1,1,2.2.68A5.79,5.79,0,0,1,560.15,321.2Z" style="fill:#bcbec0"/><path d="M527.89,311.2a1.15,1.15,0,1,1,.68-2.2,2.42,2.42,0,0,0,1.43-4.63,1.16,1.16,0,0,1-.76-1.44,1.15,1.15,0,0,1,1.44-.76,4.73,4.73,0,0,1-2.79,9Z" style="fill:#bcbec0"/><path d="M558.57,320.71a4.73,4.73,0,1,1,2.8-9,1.15,1.15,0,0,1,.75,1.44,1.14,1.14,0,0,1-1.43.76,2.42,2.42,0,1,0-1.44,4.63A1.17,1.17,0,0,1,560,320,1.15,1.15,0,0,1,558.57,320.71Z" style="fill:#bcbec0"/><path d="M534.25,313.07a1.12,1.12,0,0,1-.67-.56,1.15,1.15,0,0,1,.48-1.56l4.35-2.29a1.15,1.15,0,0,1,1.07,2L535.13,313A1.13,1.13,0,0,1,534.25,313.07Z" style="fill:#bcbec0"/><path d="M539.58,314.72a1.15,1.15,0,0,1-.2-2.12l4.35-2.29a1.15,1.15,0,1,1,1.07,2l-4.35,2.29A1.11,1.11,0,0,1,539.58,314.72Z" style="fill:#bcbec0"/><path d="M544.91,316.37a1.15,1.15,0,0,1-.2-2.11l4.35-2.3a1.15,1.15,0,0,1,1.07,2l-4.35,2.29A1.11,1.11,0,0,1,544.91,316.37Z" style="fill:#bcbec0"/><path d="M524.76,310.23l-.45-.14a1.15,1.15,0,1,1,.68-2.2l.45.14a1.15,1.15,0,1,1-.68,2.2Z" style="fill:#bcbec0"/><path d="M503.81,408.51c.09-3-2.35-5.2-4.91-6.26a22.78,22.78,0,0,1-4.85-2.26,5.3,5.3,0,0,1-1.72-1.74,5.17,5.17,0,0,1-1.71,1.74,22.85,22.85,0,0,1-4.86,2.26c-2.56,1.06-5,3.28-4.9,6.26-.1,3,2.34,5.21,4.9,6.27a26.43,26.43,0,0,1,4.56,2.07c-.81.42-1.66.7-2.52,1.06-1.77.73-3.45,2.26-3.39,4.32s1.62,3.59,3.39,4.32a16,16,0,0,1,3.35,1.56,3.66,3.66,0,0,1,1.18,1.2,3.69,3.69,0,0,1,1.19-1.2,16,16,0,0,1,3.35-1.56c1.76-.73,3.45-2.26,3.38-4.32s-1.62-3.59-3.38-4.32c-.86-.36-1.72-.64-2.52-1.06a26.34,26.34,0,0,1,4.55-2.07C501.46,413.72,503.9,411.5,503.81,408.51Z" style="fill:#9d70c4"/></svg>