<svg xmlns="http://www.w3.org/2000/svg" viewBox="0 0 600 450"><title>bg</title><rect width="600" height="450" style="fill:#016177;opacity:0.9500000000000001"/><g style="opacity:0.30000000000000004"><circle cx="85.25" cy="122.52" r="6.91" style="fill:#fff"/><circle cx="127.77" cy="304.84" r="6.91" style="fill:#fff"/><circle cx="165.98" cy="228.99" r="5.5" style="fill:#fff"/><circle cx="64.83" cy="280.55" r="2.73" style="fill:#fff"/><circle cx="367.38" cy="78.81" r="5.5" style="fill:#fff"/><circle cx="227.17" cy="266.1" r="6.91" style="fill:#fff"/><circle cx="277.06" cy="167.19" r="6.91" style="fill:#fff"/><circle cx="388.44" cy="167.19" r="3.85" style="fill:#fff"/><circle cx="202.15" cy="121.58" r="2.73" style="fill:#fff"/><circle cx="333.98" cy="235.99" r="5.5" style="fill:#fff"/><circle cx="355.56" cy="273.01" r="3.85" style="fill:#fff"/><circle cx="216.15" cy="340.58" r="2.73" style="fill:#fff"/><circle cx="31.16" cy="196.3" r="5.5" style="fill:#fff"/><circle cx="538.23" cy="155.17" r="6.91" style="fill:#fff"/><circle cx="462.15" cy="159.58" r="2.73" style="fill:#fff"/><circle cx="581.24" cy="87.08" r="5.5" style="fill:#fff"/><circle cx="555.83" cy="116.55" r="2.73" style="fill:#fff"/><circle cx="467.65" cy="24.51" r="5.5" style="fill:#fff"/><circle cx="318.15" cy="32.75" r="6.91" style="fill:#fff"/><circle cx="56.6" cy="16.56" r="5.5" style="fill:#fff"/><circle cx="219.04" cy="38.16" r="2.73" style="fill:#fff"/><circle cx="469.22" cy="313.35" r="5.5" style="fill:#fff"/><circle cx="540.26" cy="234.49" r="6.91" style="fill:#fff"/><circle cx="447.45" cy="223.72" r="3.85" style="fill:#fff"/><circle cx="388.44" cy="354.3" r="3.85" style="fill:#fff"/><circle cx="51.1" cy="391.31" r="6.91" style="fill:#fff"/><circle cx="418.83" cy="306.55" r="2.73" style="fill:#fff"/><circle cx="547.17" cy="384.4" r="5.5" style="fill:#fff"/><circle cx="309.06" cy="365.07" r="6.91" style="fill:#fff"/><circle cx="454.15" cy="405.79" r="2.73" style="fill:#fff"/><circle cx="162.66" cy="389.9" r="5.5" style="fill:#fff"/><circle cx="263.02" cy="408.52" r="5.5" style="fill:#fff"/></g><path d="M70.64,155.6a.59.59,0,0,1-.39-.16l-1.38-1.38-1.38,1.38a.56.56,0,0,1-.78,0l-1.29-1.29a.56.56,0,0,1,0-.78l2-2v-3l-2.63,1.52-.73,2.71a.56.56,0,0,1-.25.33.52.52,0,0,1-.42.06l-1.76-.47a.54.54,0,0,1-.33-.26.49.49,0,0,1-.06-.41l.51-1.89-1.89-.51a.52.52,0,0,1-.33-.25.62.62,0,0,1-.06-.42l.48-1.76a.55.55,0,0,1,.67-.39l2.71.73L66,145.82l-2.63-1.52-2.71.73a.54.54,0,0,1-.67-.39l-.48-1.76a.58.58,0,0,1,.06-.41.54.54,0,0,1,.33-.26l1.89-.5-.51-1.89a.52.52,0,0,1,.06-.42.56.56,0,0,1,.33-.25l1.76-.47a.53.53,0,0,1,.67.38l.73,2.72,2.63,1.51v-3l-2-2a.55.55,0,0,1,0-.77l1.29-1.29a.54.54,0,0,1,.78,0l1.38,1.38,1.38-1.38a.53.53,0,0,1,.77,0l1.29,1.29a.53.53,0,0,1,0,.77l-2,2v3L73,141.78l.73-2.72a.54.54,0,0,1,.67-.38l1.76.47a.56.56,0,0,1,.33.25.62.62,0,0,1,.06.42L76,141.71l1.89.5a.54.54,0,0,1,.33.26.53.53,0,0,1,0,.41l-.47,1.76a.54.54,0,0,1-.67.39l-2.71-.73-2.63,1.52,2.63,1.52,2.71-.73a.56.56,0,0,1,.67.39l.47,1.76a.56.56,0,0,1,0,.42.52.52,0,0,1-.33.25l-1.89.51.51,1.89a.58.58,0,0,1-.06.41.54.54,0,0,1-.33.26l-1.76.47a.54.54,0,0,1-.67-.39L73,149.87l-2.63-1.52v3l2,2a.54.54,0,0,1,0,.78L71,155.44A.55.55,0,0,1,70.64,155.6Zm-1.77-2.86a.54.54,0,0,1,.39.16l1.38,1.38.51-.52L69.39,152a.55.55,0,0,1-.16-.39V147.4a.56.56,0,0,1,.28-.47.54.54,0,0,1,.55,0L73.7,149a.59.59,0,0,1,.26.34l.64,2.4.71-.19-.51-1.89a.49.49,0,0,1,.06-.41.54.54,0,0,1,.33-.26l1.88-.5-.18-.71-2.41.65a.58.58,0,0,1-.41-.06l-3.65-2.1a.55.55,0,0,1,0-1l3.65-2.11a.53.53,0,0,1,.41-.05l2.41.64.18-.7-1.88-.51a.56.56,0,0,1-.33-.25.52.52,0,0,1-.06-.42l.51-1.89-.71-.19L74,142.28a.54.54,0,0,1-.26.33l-3.64,2.11a.59.59,0,0,1-.55,0,.56.56,0,0,1-.28-.48V140a.57.57,0,0,1,.16-.39l1.76-1.76-.51-.51-1.38,1.38a.56.56,0,0,1-.78,0l-1.38-1.38-.52.51,1.76,1.76a.53.53,0,0,1,.16.39v4.21a.55.55,0,0,1-.27.48.59.59,0,0,1-.55,0L64,142.61a.54.54,0,0,1-.26-.33l-.64-2.41-.71.19.51,1.89a.62.62,0,0,1-.06.42.56.56,0,0,1-.33.25l-1.89.51.19.7,2.4-.64a.56.56,0,0,1,.42.05l3.65,2.11a.55.55,0,0,1,0,1l-3.65,2.1a.61.61,0,0,1-.42.06l-2.4-.65-.19.71,1.89.5a.54.54,0,0,1,.33.26.58.58,0,0,1,.06.41l-.51,1.89.71.19.64-2.4A.59.59,0,0,1,64,149l3.64-2.1a.55.55,0,0,1,.82.47v4.21a.51.51,0,0,1-.16.39l-1.76,1.76.52.52,1.38-1.38A.54.54,0,0,1,68.87,152.74Z" style="fill:#fff"/><path d="M26.59,345a.54.54,0,0,1-.39-.16l-1.38-1.38-1.38,1.38a.53.53,0,0,1-.77,0l-1.29-1.29a.53.53,0,0,1,0-.77l2-2v-3l-2.63,1.51L20,342a.55.55,0,0,1-.67.38l-1.77-.47a.53.53,0,0,1-.38-.67l.5-1.89-1.89-.5a.54.54,0,0,1-.33-.26.53.53,0,0,1-.05-.41l.47-1.76a.54.54,0,0,1,.67-.39l2.71.73,2.63-1.52-2.63-1.52-2.71.73a.56.56,0,0,1-.67-.39l-.47-1.76a.56.56,0,0,1,.05-.42.49.49,0,0,1,.33-.25l1.89-.51-.5-1.89a.53.53,0,0,1,0-.41.54.54,0,0,1,.33-.26l1.77-.47a.5.5,0,0,1,.41.06.54.54,0,0,1,.26.33l.72,2.71,2.63,1.52v-3l-2-2a.54.54,0,0,1,0-.78l1.29-1.29a.55.55,0,0,1,.77,0L24.82,327l1.38-1.38a.56.56,0,0,1,.78,0l1.29,1.29a.56.56,0,0,1,0,.78l-2,2v3l2.63-1.52.73-2.71a.54.54,0,0,1,.67-.39l1.76.47a.59.59,0,0,1,.34.26.53.53,0,0,1,.05.41L32,331.11l1.89.51a.49.49,0,0,1,.33.25.52.52,0,0,1,.06.42l-.48,1.76a.55.55,0,0,1-.67.39l-2.71-.73-2.63,1.52,2.63,1.52,2.71-.73a.53.53,0,0,1,.67.39l.48,1.76a.49.49,0,0,1-.06.41.54.54,0,0,1-.33.26l-1.89.5.51,1.89a.56.56,0,0,1-.05.42.61.61,0,0,1-.34.25l-1.76.47a.54.54,0,0,1-.67-.38l-.73-2.72-2.63-1.51v3l2,2a.55.55,0,0,1,0,.77L27,344.84A.54.54,0,0,1,26.59,345Zm-1.77-2.86a.54.54,0,0,1,.39.16l1.38,1.38.52-.51-1.76-1.76a.54.54,0,0,1-.16-.39v-4.21a.55.55,0,0,1,.27-.48.59.59,0,0,1,.55,0l3.65,2.11a.56.56,0,0,1,.25.33l.64,2.4.71-.18-.51-1.89a.62.62,0,0,1,.06-.42.56.56,0,0,1,.33-.25l1.89-.51-.19-.7-2.4.64a.56.56,0,0,1-.42-.05l-3.65-2.11a.55.55,0,0,1,0-.95l3.65-2.1a.52.52,0,0,1,.42-.06l2.4.65.19-.71-1.89-.5a.54.54,0,0,1-.33-.26.61.61,0,0,1-.06-.42l.51-1.88-.71-.19-.64,2.4a.61.61,0,0,1-.25.34L26,334.12a.55.55,0,0,1-.82-.47v-4.22a.51.51,0,0,1,.16-.38l1.76-1.76-.52-.52-1.38,1.38a.53.53,0,0,1-.77,0l-1.39-1.38-.51.52,1.76,1.76a.55.55,0,0,1,.16.38v4.22a.56.56,0,0,1-.28.47.52.52,0,0,1-.54,0L20,332a.59.59,0,0,1-.26-.34l-.64-2.4-.71.19.51,1.89a.54.54,0,0,1-.05.41.59.59,0,0,1-.34.26l-1.88.5.19.71,2.4-.65a.49.49,0,0,1,.41.06l3.65,2.1a.54.54,0,0,1,0,.95l-3.65,2.11a.53.53,0,0,1-.41.05l-2.4-.64-.19.7,1.88.51a.61.61,0,0,1,.34.25.56.56,0,0,1,.05.42L18.38,341l.71.18.64-2.4a.54.54,0,0,1,.26-.33l3.65-2.11a.57.57,0,0,1,.54,0,.56.56,0,0,1,.28.48V341a.59.59,0,0,1-.16.39l-1.76,1.76.51.51,1.39-1.38A.51.51,0,0,1,24.82,342.14Z" style="fill:#fff"/><path d="M464.2,131a.35.35,0,0,1-.25-.1l-.87-.88-.88.88a.36.36,0,0,1-.49,0l-.82-.82a.34.34,0,0,1,0-.49l1.26-1.26V126.4l-1.67,1-.46,1.72a.34.34,0,0,1-.16.21.34.34,0,0,1-.26,0l-1.12-.3a.31.31,0,0,1-.21-.16.34.34,0,0,1,0-.26l.32-1.2-1.19-.32a.36.36,0,0,1-.22-.16.42.42,0,0,1,0-.27l.3-1.11a.34.34,0,0,1,.42-.25l1.73.46,1.66-1-1.66-1-1.73.46a.34.34,0,0,1-.42-.25l-.3-1.12a.39.39,0,0,1,0-.26.36.36,0,0,1,.22-.16l1.19-.32-.32-1.2a.34.34,0,0,1,0-.26.36.36,0,0,1,.21-.17l1.12-.29a.3.3,0,0,1,.26,0,.34.34,0,0,1,.16.21l.46,1.72,1.67,1v-1.92L460.89,120a.34.34,0,0,1,0-.49l.82-.82a.34.34,0,0,1,.49,0l.88.87.87-.87a.34.34,0,0,1,.49,0l.82.82a.34.34,0,0,1,0,.49L464,121.27v1.92l1.67-1,.46-1.72a.36.36,0,0,1,.43-.25l1.12.3a.43.43,0,0,1,.21.17.39.39,0,0,1,0,.26l-.32,1.2,1.2.32a.34.34,0,0,1,.24.42l-.3,1.12a.34.34,0,0,1-.42.25l-1.72-.46-1.67,1,1.67,1,1.72-.46a.34.34,0,0,1,.42.25l.3,1.11a.36.36,0,0,1,0,.27.34.34,0,0,1-.21.16l-1.2.32.32,1.2a.39.39,0,0,1,0,.26.36.36,0,0,1-.21.16l-1.12.3a.35.35,0,0,1-.43-.24l-.46-1.72-1.67-1v1.93l1.26,1.26a.34.34,0,0,1,0,.49l-.82.82A.31.31,0,0,1,464.2,131Zm-1.12-1.82a.35.35,0,0,1,.24.11l.88.87.33-.33-1.12-1.11a.33.33,0,0,1-.1-.25V125.8a.34.34,0,0,1,.17-.3.36.36,0,0,1,.35,0l2.31,1.34a.31.31,0,0,1,.16.21l.41,1.52.45-.12-.32-1.19a.42.42,0,0,1,0-.27.36.36,0,0,1,.21-.16l1.2-.32-.12-.45-1.52.41a.42.42,0,0,1-.27,0l-2.31-1.34a.34.34,0,0,1-.17-.3.33.33,0,0,1,.17-.3l2.31-1.34a.36.36,0,0,1,.27,0l1.52.41.12-.45-1.2-.32a.41.41,0,0,1-.21-.16.42.42,0,0,1,0-.27l.32-1.19-.45-.12-.41,1.52a.31.31,0,0,1-.16.21l-2.31,1.34a.36.36,0,0,1-.35,0,.35.35,0,0,1-.17-.3v-2.68a.31.31,0,0,1,.1-.24l1.12-1.12-.33-.32-.88.87a.34.34,0,0,1-.49,0l-.88-.87-.32.32,1.11,1.12a.31.31,0,0,1,.1.24v2.68a.35.35,0,0,1-.17.3.36.36,0,0,1-.35,0L460,122.76a.31.31,0,0,1-.16-.21l-.41-1.52-.45.12.32,1.19a.36.36,0,0,1,0,.27.37.37,0,0,1-.21.16l-1.2.32.12.45,1.52-.41a.36.36,0,0,1,.27,0l2.31,1.34a.34.34,0,0,1,.18.3.35.35,0,0,1-.18.3l-2.31,1.34a.42.42,0,0,1-.27,0l-1.52-.41-.12.45,1.2.32a.34.34,0,0,1,.21.16.34.34,0,0,1,0,.26l-.32,1.2.45.12.41-1.52a.31.31,0,0,1,.16-.21l2.31-1.34a.36.36,0,0,1,.35,0,.34.34,0,0,1,.17.3v2.67a.33.33,0,0,1-.1.25l-1.11,1.11.32.33.88-.87A.36.36,0,0,1,463.08,129.18Z" style="fill:#fff"/><path d="M514.42,200.84a.91.91,0,0,1-.65-.27l-2.34-2.34-2.33,2.34a.93.93,0,0,1-1.31,0l-2.18-2.18a.93.93,0,0,1,0-1.31l3.35-3.36v-5.13l-4.44,2.56-1.23,4.59a.92.92,0,0,1-1.13.65l-3-.79a.92.92,0,0,1-.56-.44.9.9,0,0,1-.09-.7l.85-3.19-3.19-.85a.92.92,0,0,1-.65-1.13l.8-3a.92.92,0,0,1,1.13-.66l4.58,1.23,4.45-2.56-4.45-2.57L497.47,183a.92.92,0,0,1-1.13-.66l-.8-3a.92.92,0,0,1,.65-1.13l3.19-.85-.85-3.19a.9.9,0,0,1,.09-.7.87.87,0,0,1,.56-.43l3-.8a.92.92,0,0,1,1.13.65l1.23,4.59L509,180v-5.13l-3.35-3.36a.93.93,0,0,1,0-1.31l2.18-2.18a.93.93,0,0,1,1.31,0l2.33,2.34,2.34-2.34a.93.93,0,0,1,1.31,0l2.18,2.18a.93.93,0,0,1,0,1.31l-3.36,3.36V180l4.44-2.56,1.23-4.59a.92.92,0,0,1,1.14-.65l3,.8a.89.89,0,0,1,.56.43.94.94,0,0,1,.09.7l-.86,3.19,3.19.85a.92.92,0,0,1,.66,1.13l-.8,3a.92.92,0,0,1-1.13.66l-4.59-1.23-4.44,2.57,4.44,2.56,4.59-1.23a.92.92,0,0,1,1.13.66l.8,3a.92.92,0,0,1-.66,1.13l-3.19.85.86,3.19a.94.94,0,0,1-.09.7.89.89,0,0,1-.56.43l-3,.8a.93.93,0,0,1-1.14-.65l-1.23-4.59-4.44-2.56v5.13l3.36,3.36a.93.93,0,0,1,0,1.31l-2.18,2.18A1,1,0,0,1,514.42,200.84Zm-3-4.84a.93.93,0,0,1,.66.27l2.33,2.33.87-.87-3-3a.94.94,0,0,1-.27-.66V187a.93.93,0,0,1,.46-.8.91.91,0,0,1,.93,0l6.16,3.55a1,1,0,0,1,.43.56l1.09,4.07,1.19-.32-.85-3.19a.9.9,0,0,1,.09-.7.87.87,0,0,1,.56-.43l3.19-.86-.32-1.19-4.06,1.09a.94.94,0,0,1-.7-.09l-6.17-3.56a.93.93,0,0,1,0-1.61l6.17-3.56a.94.94,0,0,1,.7-.09L525,181l.32-1.19-3.19-.86a.87.87,0,0,1-.56-.43.9.9,0,0,1-.09-.7l.85-3.19-1.19-.32L520,178.33a1,1,0,0,1-.43.56l-6.16,3.56a1,1,0,0,1-.93,0,.94.94,0,0,1-.46-.81v-7.11a1,1,0,0,1,.27-.66l3-3-.87-.87-2.33,2.33a.93.93,0,0,1-1.31,0L508.44,170l-.87.87,3,3a.92.92,0,0,1,.28.66v7.11a.93.93,0,0,1-1.39.81l-6.17-3.56a1,1,0,0,1-.43-.56l-1.09-4.07-1.19.32.86,3.19a.9.9,0,0,1-.1.7.87.87,0,0,1-.56.43l-3.19.86.32,1.19,4.06-1.09a1,1,0,0,1,.71.09l6.16,3.56a.93.93,0,0,1,0,1.61l-6.16,3.56a1,1,0,0,1-.71.09l-4.06-1.09-.32,1.19,3.19.86a.87.87,0,0,1,.56.43.9.9,0,0,1,.1.7l-.86,3.19,1.19.32,1.09-4.06a1,1,0,0,1,.43-.57l6.17-3.55a.89.89,0,0,1,.92,0,.92.92,0,0,1,.47.8v7.11a.91.91,0,0,1-.28.66l-3,3,.87.87,2.34-2.33A.92.92,0,0,1,511.43,196Z" style="fill:#fff"/><path d="M192,67.3a.91.91,0,0,1-.65-.27L189,64.69,186.7,67a.93.93,0,0,1-1.31,0l-2.18-2.18a.93.93,0,0,1,0-1.31l3.35-3.36V55.05l-4.44,2.56-1.23,4.59a.92.92,0,0,1-1.13.65l-3-.79a.92.92,0,0,1-.56-.44.9.9,0,0,1-.1-.7l.86-3.19-3.19-.85a.92.92,0,0,1-.65-1.13l.79-3a.93.93,0,0,1,1.14-.66l4.58,1.23,4.45-2.57-4.45-2.56-4.58,1.23a.94.94,0,0,1-1.14-.66l-.79-3a.92.92,0,0,1,.65-1.13l3.19-.85-.86-3.19a.9.9,0,0,1,.1-.7.92.92,0,0,1,.56-.44l3-.79a.92.92,0,0,1,1.13.65l1.23,4.59,4.44,2.56V41.37L183.21,38a.93.93,0,0,1,0-1.31l2.18-2.18a.93.93,0,0,1,1.31,0L189,36.86l2.34-2.34a.92.92,0,0,1,1.3,0l2.19,2.18a.93.93,0,0,1,0,1.31l-3.36,3.36V46.5l4.44-2.56,1.23-4.59a.92.92,0,0,1,1.14-.65l3,.8a.92.92,0,0,1,.56.43.94.94,0,0,1,.09.7l-.86,3.19,3.19.85a.94.94,0,0,1,.66,1.13l-.8,3a.93.93,0,0,1-1.14.66l-4.58-1.23L194,50.77l4.45,2.57L203,52.11a.93.93,0,0,1,1.14.66l.8,3a.94.94,0,0,1-.66,1.13l-3.19.85.86,3.19a.94.94,0,0,1-.09.7.92.92,0,0,1-.56.43l-3,.8a.92.92,0,0,1-1.14-.65l-1.23-4.59-4.44-2.56v5.13l3.36,3.36a.93.93,0,0,1,0,1.31L192.67,67A.91.91,0,0,1,192,67.3Zm-3-4.84a.93.93,0,0,1,.66.27L192,65.06l.87-.87-3-3a.9.9,0,0,1-.27-.66V53.45a.94.94,0,0,1,.46-.81,1,1,0,0,1,.93,0l6.16,3.56a1,1,0,0,1,.43.56l1.09,4.07,1.19-.32-.85-3.19a.9.9,0,0,1,.09-.7.87.87,0,0,1,.56-.43l3.19-.86-.32-1.19-4.06,1.09a.94.94,0,0,1-.7-.09l-6.17-3.56a.93.93,0,0,1,0-1.61l6.17-3.56a.94.94,0,0,1,.7-.09l4.06,1.09.32-1.19-3.19-.86a.87.87,0,0,1-.56-.43.9.9,0,0,1-.09-.7l.85-3.19-1.19-.32-1.09,4.07a1,1,0,0,1-.43.56L191,48.91a1,1,0,0,1-.93,0,.94.94,0,0,1-.46-.81V41a.9.9,0,0,1,.27-.66l3-3-.87-.87-2.33,2.33a.93.93,0,0,1-1.31,0L186,36.49l-.87.87,3,3a.9.9,0,0,1,.27.66V48.1a.92.92,0,0,1-1.38.81l-6.17-3.56a1,1,0,0,1-.43-.57l-1.09-4.06-1.19.32.86,3.19a.9.9,0,0,1-.1.7.87.87,0,0,1-.56.43l-3.19.86.32,1.19,4.06-1.09a1,1,0,0,1,.71.09L186.41,50a.93.93,0,0,1,0,1.61l-6.16,3.56a1,1,0,0,1-.71.09l-4.06-1.09-.32,1.19,3.19.86a.87.87,0,0,1,.56.43.9.9,0,0,1,.1.7l-.86,3.19,1.19.32,1.09-4.06a1,1,0,0,1,.43-.57L187,52.64a.92.92,0,0,1,1.38.81v7.11a.9.9,0,0,1-.27.66l-3,3,.87.87,2.34-2.33A.91.91,0,0,1,189,62.46Z" style="fill:#fff"/><path d="M565,83.27l-3.67-1.62L565,80a.9.9,0,0,0-.73-1.65l-5.17,2.29-4.58-2,.54-5,4.57-3.35a.88.88,0,0,0,.19-1.25.91.91,0,0,0-1.26-.2l-3.24,2.37.44-4a.91.91,0,0,0-.8-1,.89.89,0,0,0-1,.8l-.61,5.62-4,3-4-3-.62-5.62a.89.89,0,0,0-1-.8.91.91,0,0,0-.8,1l.44,4-3.24-2.37a.9.9,0,0,0-1.26.2.89.89,0,0,0,.2,1.25l4.56,3.35.54,5-4.57,2-5.18-2.29a.92.92,0,0,0-1.19.46.91.91,0,0,0,.46,1.19l3.68,1.62-3.68,1.62A.9.9,0,0,0,534,85a.94.94,0,0,0,.37-.07l5.18-2.29,4.57,2-.54,5L539.06,93a.89.89,0,0,0-.2,1.25.9.9,0,0,0,1.26.2l3.24-2.37-.44,4a.91.91,0,0,0,.8,1h.1a.91.91,0,0,0,.89-.81l.62-5.62,4-3,4,3,.61,5.62a.91.91,0,0,0,.89.81h.1a.91.91,0,0,0,.8-1l-.44-4,3.24,2.37a.9.9,0,0,0,1.26-.2.88.88,0,0,0-.19-1.25l-4.57-3.35-.54-5,4.58-2,5.17,2.29a.94.94,0,0,0,.37.07.9.9,0,0,0,.36-1.72Zm-11.81,0a.9.9,0,0,0-.53.92l.43,4-3.24-2.37a.91.91,0,0,0-1.06,0l-3.24,2.37.43-4a.89.89,0,0,0-.53-.92l-3.67-1.62L545.49,80a.89.89,0,0,0,.53-.92l-.43-4,3.24,2.37a.9.9,0,0,0,1.06,0l3.24-2.37-.43,4a.9.9,0,0,0,.53.92l3.67,1.62Z" style="fill:#fff"/><path d="M387.8,117.67l-2.89-1.27,2.89-1.27a.71.71,0,0,0-.57-1.3l-4.07,1.8-3.6-1.59.42-3.91,3.59-2.63a.71.71,0,0,0,.16-1,.71.71,0,0,0-1-.15l-2.55,1.86.34-3.14a.7.7,0,0,0-.63-.77.69.69,0,0,0-.78.62l-.48,4.43-3.17,2.32-3.18-2.32-.48-4.43a.69.69,0,0,0-.78-.62.7.7,0,0,0-.62.77l.34,3.14-2.55-1.86a.71.71,0,1,0-.84,1.14l3.6,2.63.42,3.91-3.6,1.59-4.07-1.8a.71.71,0,0,0-.57,1.3L366,116.4l-2.89,1.27a.71.71,0,0,0-.36.94.7.7,0,0,0,.64.42.72.72,0,0,0,.29-.06l4.07-1.8,3.6,1.59-.42,3.91-3.6,2.63a.71.71,0,0,0,.84,1.14l2.55-1.86-.34,3.13a.71.71,0,0,0,.62.78h.08a.7.7,0,0,0,.7-.63l.48-4.43,3.18-2.32,3.17,2.32.48,4.43a.71.71,0,0,0,.71.63h.07a.71.71,0,0,0,.63-.78l-.34-3.13,2.55,1.86a.71.71,0,0,0,1-.15.71.71,0,0,0-.16-1L380,122.67l-.42-3.91,3.6-1.59,4.07,1.8a.71.71,0,0,0,.28.06.72.72,0,0,0,.65-.42A.71.71,0,0,0,387.8,117.67Zm-9.29,0a.73.73,0,0,0-.42.73l.34,3.14-2.54-1.87a.74.74,0,0,0-.84,0l-2.55,1.87.34-3.14a.71.71,0,0,0-.41-.73l-2.89-1.27,2.89-1.27a.71.71,0,0,0,.41-.73l-.34-3.14,2.55,1.87a.72.72,0,0,0,.84,0l2.54-1.87-.34,3.14a.73.73,0,0,0,.42.73l2.89,1.27Z" style="fill:#fff"/><path d="M563.31,336.5l-2.89-1.27,2.89-1.28a.71.71,0,1,0-.57-1.29l-4.07,1.79-3.6-1.58.42-3.91,3.59-2.63a.71.71,0,1,0-.83-1.14l-2.55,1.86.34-3.14a.71.71,0,0,0-.63-.78.71.71,0,0,0-.78.63l-.48,4.42L551,330.51l-3.17-2.33-.48-4.42a.71.71,0,0,0-.78-.63.71.71,0,0,0-.63.78l.34,3.14-2.55-1.86a.7.7,0,0,0-1,.15.71.71,0,0,0,.16,1l3.59,2.63.42,3.91-3.6,1.58-4.07-1.79a.71.71,0,0,0-.57,1.29l2.89,1.28-2.89,1.27a.7.7,0,0,0-.36.93.69.69,0,0,0,.65.43.71.71,0,0,0,.28-.06l4.07-1.8,3.6,1.59-.42,3.91-3.59,2.63a.71.71,0,0,0-.16,1,.71.71,0,0,0,1,.15l2.55-1.87-.34,3.14a.71.71,0,0,0,.63.78h.07a.71.71,0,0,0,.71-.63l.48-4.43L551,340l3.17,2.32.48,4.43a.71.71,0,0,0,.71.63h.07a.71.71,0,0,0,.63-.78l-.34-3.14,2.55,1.87a.71.71,0,0,0,1-.15.71.71,0,0,0-.16-1l-3.59-2.63-.42-3.91,3.6-1.59,4.07,1.8a.71.71,0,0,0,.57-1.3Zm-9.29,0a.73.73,0,0,0-.42.73l.35,3.14-2.55-1.87a.7.7,0,0,0-.84,0L548,340.37l.35-3.14a.73.73,0,0,0-.42-.73l-2.89-1.27,2.89-1.28a.71.71,0,0,0,.42-.72l-.35-3.14,2.55,1.87a.72.72,0,0,0,.84,0l2.55-1.87-.35,3.14a.71.71,0,0,0,.42.72l2.89,1.28Z" style="fill:#fff"/><path d="M51.28,251.62l-2.88-1.27,2.88-1.28a.71.71,0,1,0-.57-1.29l-4.07,1.79L43,248l.43-3.91,3.59-2.63a.71.71,0,0,0,.15-1,.71.71,0,0,0-1-.16l-2.55,1.87L44,239a.71.71,0,1,0-1.41-.15l-.48,4.42L39,245.63l-3.17-2.33-.48-4.42a.71.71,0,0,0-1.41.15l.34,3.14-2.54-1.87a.71.71,0,0,0-1,.16.71.71,0,0,0,.15,1l3.59,2.63.43,3.91-3.6,1.58-4.07-1.79a.71.71,0,1,0-.58,1.29l2.89,1.28-2.89,1.27a.71.71,0,0,0,.29,1.35.61.61,0,0,0,.29-.06l4.07-1.79,3.6,1.59-.43,3.91-3.59,2.62a.72.72,0,0,0-.15,1,.71.71,0,0,0,1,.16l2.54-1.87-.34,3.14a.71.71,0,0,0,.63.78h.08a.7.7,0,0,0,.7-.63l.48-4.42L39,255.07l3.18,2.32.48,4.42a.7.7,0,0,0,.7.63h.08a.71.71,0,0,0,.63-.78l-.35-3.14,2.55,1.87a.71.71,0,0,0,1-.16.72.72,0,0,0-.15-1l-3.59-2.62L43,252.71l3.6-1.59,4.07,1.79A.61.61,0,0,0,51,253a.7.7,0,0,0,.28-1.35Zm-9.28,0a.71.71,0,0,0-.42.72l.34,3.14-2.55-1.86a.69.69,0,0,0-.83,0L36,255.48l.34-3.14a.71.71,0,0,0-.42-.72L33,250.35l2.89-1.28a.71.71,0,0,0,.42-.72L36,245.21l2.55,1.86a.68.68,0,0,0,.83,0l2.55-1.86-.34,3.14a.71.71,0,0,0,.42.72l2.89,1.28Z" style="fill:#fff"/><path d="M130.21,366.94,126,365.07l4.24-1.87a1,1,0,1,0-.84-1.9l-6,2.63-5.27-2.32.62-5.73L124,352a1,1,0,1,0-1.22-1.67l-3.74,2.73.5-4.6a1,1,0,0,0-.92-1.14,1,1,0,0,0-1.14.91l-.71,6.49-4.65,3.41-4.65-3.41-.71-6.49a1,1,0,0,0-1.14-.91,1,1,0,0,0-.92,1.14l.5,4.6-3.74-2.73a1,1,0,0,0-1.45.22,1,1,0,0,0,.23,1.45l5.26,3.86.63,5.73-5.28,2.32-6-2.63a1,1,0,1,0-.84,1.9l4.24,1.87-4.24,1.87a1,1,0,0,0,.42,2,1,1,0,0,0,.42-.08l6-2.64,5.28,2.33-.63,5.73-5.26,3.86a1,1,0,1,0,1.22,1.67l3.74-2.73-.5,4.6a1,1,0,0,0,.92,1.14h.11a1,1,0,0,0,1-.93l.71-6.48,4.65-3.41,4.65,3.41.71,6.48a1,1,0,0,0,1,.93h.11a1,1,0,0,0,.92-1.14l-.5-4.6,3.74,2.73a1,1,0,1,0,1.22-1.67l-5.26-3.86-.62-5.73,5.27-2.33,6,2.64a1,1,0,0,0,.42.08,1,1,0,0,0,.42-2Zm-13.62,0A1,1,0,0,0,116,368l.5,4.6-3.74-2.73a1,1,0,0,0-.61-.2,1,1,0,0,0-.61.2l-3.74,2.73.5-4.6a1,1,0,0,0-.61-1.06l-4.24-1.87,4.24-1.87a1,1,0,0,0,.61-1.06l-.5-4.6,3.74,2.73a1,1,0,0,0,1.22,0l3.74-2.73-.5,4.6a1,1,0,0,0,.61,1.06l4.24,1.87Z" style="fill:#fff"/><path d="M59.33,39.55l-2.89-1.28L59.33,37a.71.71,0,0,0,.36-.94.72.72,0,0,0-.93-.36l-4.07,1.8-3.6-1.59L51.51,32l3.59-2.63a.71.71,0,0,0,.16-1,.71.71,0,0,0-1-.15L51.72,30.1,52.06,27a.71.71,0,0,0-1.41-.16l-.48,4.43L47,33.55l-3.18-2.32-.48-4.43a.7.7,0,0,0-.78-.62.71.71,0,0,0-.62.78l.34,3.14-2.55-1.87a.71.71,0,0,0-.84,1.14L42.49,32l.42,3.91-3.6,1.59-4.07-1.8a.72.72,0,0,0-.93.36.71.71,0,0,0,.36.94l2.89,1.27-2.89,1.28A.71.71,0,0,0,35,40.9a.72.72,0,0,0,.29-.06l4.07-1.79,3.6,1.58-.42,3.91-3.6,2.63a.71.71,0,0,0-.15,1,.71.71,0,0,0,1,.15l2.55-1.86-.34,3.14a.71.71,0,0,0,.62.78h.08a.7.7,0,0,0,.7-.63l.48-4.43L47,43l3.17,2.32.48,4.43a.71.71,0,0,0,.71.63h.07a.71.71,0,0,0,.63-.78l-.34-3.14,2.55,1.86a.71.71,0,0,0,1-.15.71.71,0,0,0-.16-1l-3.59-2.63-.42-3.91,3.6-1.58,4.07,1.79a.71.71,0,0,0,.28.06.72.72,0,0,0,.65-.42A.7.7,0,0,0,59.33,39.55Zm-9.29,0a.71.71,0,0,0-.42.72L50,43.41l-2.54-1.87a.74.74,0,0,0-.84,0L44,43.41l.34-3.14a.68.68,0,0,0-.41-.72l-2.89-1.28L44,37a.71.71,0,0,0,.41-.73L44,33.13,46.58,35a.72.72,0,0,0,.84,0L50,33.13l-.34,3.14A.73.73,0,0,0,50,37l2.89,1.27Z" style="fill:#fff"/><path d="M156.7,158.65l-1.84-.81,1.84-.81a.45.45,0,0,0-.36-.82l-2.59,1.14-2.29-1,.27-2.48,2.28-1.67a.45.45,0,0,0-.53-.73l-1.62,1.18.22-2a.45.45,0,0,0-.4-.5.44.44,0,0,0-.49.4l-.31,2.81-2,1.48-2-1.48-.31-2.81a.46.46,0,0,0-.5-.4.45.45,0,0,0-.39.5l.21,2-1.62-1.18a.45.45,0,0,0-.63.1.46.46,0,0,0,.1.63l2.28,1.67.27,2.48-2.28,1-2.59-1.14a.45.45,0,0,0-.36.82l1.83.81-1.83.81a.45.45,0,0,0,.18.86.39.39,0,0,0,.18,0l2.59-1.14,2.28,1-.27,2.49-2.28,1.67a.46.46,0,0,0-.1.63.45.45,0,0,0,.63.09l1.62-1.18-.21,2a.45.45,0,0,0,.39.5h.05a.45.45,0,0,0,.45-.4l.31-2.81,2-1.48,2,1.48.31,2.81a.44.44,0,0,0,.44.4h.05a.45.45,0,0,0,.4-.5l-.22-2,1.62,1.18a.45.45,0,1,0,.53-.72l-2.28-1.67-.27-2.49,2.29-1,2.59,1.14a.37.37,0,0,0,.18,0,.46.46,0,0,0,.41-.27A.45.45,0,0,0,156.7,158.65Zm-5.9,0a.46.46,0,0,0-.27.46l.22,2-1.62-1.19a.44.44,0,0,0-.27-.09.43.43,0,0,0-.26.09L147,161.11l.21-2a.44.44,0,0,0-.26-.46l-1.84-.81,1.84-.81a.43.43,0,0,0,.26-.46l-.21-2,1.62,1.18a.44.44,0,0,0,.53,0l1.62-1.18-.22,2a.45.45,0,0,0,.27.46l1.83.81Z" style="fill:#fff"/><path d="M122.74,208.17l1.56-1.56a.9.9,0,0,0-1.27-1.27l-1.94,1.93h-4.61l-3.75-6.5,2.3-4,2.64-.71a.9.9,0,1,0-.46-1.74l-2.13.57-.57-2.13a.92.92,0,0,0-1.11-.64.9.9,0,0,0-.63,1.11l.7,2.64-2.3,4h-7.51l-2.31-4,.71-2.64a.9.9,0,1,0-1.74-.47l-.57,2.13-2.13-.57a.9.9,0,0,0-.47,1.74l2.64.71,2.31,4-3.75,6.5H93.73l-1.93-1.93a.9.9,0,0,0-1.27,0,.88.88,0,0,0,0,1.27l1.56,1.56-1.56,1.56a.9.9,0,0,0,.63,1.54.93.93,0,0,0,.64-.26l1.93-1.94h4.62l3.75,6.51-2.31,4-2.64.71a.9.9,0,0,0,.47,1.74l2.13-.57.57,2.13a.91.91,0,0,0,.87.67.59.59,0,0,0,.23,0,.9.9,0,0,0,.64-1.1l-.71-2.64,2.31-4h7.51l2.3,4-.7,2.64a.89.89,0,0,0,.63,1.1.67.67,0,0,0,.24,0,.91.91,0,0,0,.87-.67l.57-2.13,2.13.57a.91.91,0,0,0,1.1-.64.9.9,0,0,0-.64-1.1l-2.64-.71-2.3-4,3.75-6.51h4.61L123,211a.89.89,0,0,0,.63.26.93.93,0,0,0,.64-.26.91.91,0,0,0,0-1.28Zm-8.34-.9H109l2.72-4.7Zm-4.27-5.6-2.72,4.7-2.71-4.7Zm-7,.9,2.71,4.7h-5.42Zm-2.71,6.5h5.42l-2.71,4.71Zm4.27,5.61,2.71-4.71,2.72,4.71Zm7-.9L109,209.07h5.43Z" style="fill:#fff"/><path d="M463.71,44.43l1.56-1.56a.9.9,0,0,0,0-1.27.91.91,0,0,0-1.28,0l-1.93,1.93h-4.61L453.69,37,456,33l2.64-.71a.9.9,0,1,0-.46-1.73l-2.14.57L455.47,29a.9.9,0,0,0-1.74.46l.71,2.64-2.31,4h-7.5l-2.31-4,.71-2.64a.9.9,0,0,0-1.74-.46l-.57,2.13-2.14-.57a.9.9,0,1,0-.46,1.73l2.64.71,2.31,4-3.76,6.5H434.7l-1.93-1.93a.91.91,0,0,0-1.28,0,.9.9,0,0,0,0,1.27l1.56,1.56L431.49,46a.9.9,0,1,0,1.28,1.27l1.93-1.93h4.61l3.76,6.5-2.31,4-2.64.71a.9.9,0,1,0,.46,1.73l2.14-.57.57,2.13a.89.89,0,0,0,.87.67l.23,0a.91.91,0,0,0,.64-1.1l-.71-2.64,2.31-4h7.5l2.31,4-.71,2.64a.9.9,0,0,0,.64,1.1l.23,0a.89.89,0,0,0,.87-.67L456,57.7l2.14.57a.9.9,0,1,0,.46-1.73L456,55.83l-2.31-4,3.76-6.5h4.61L464,47.26A.9.9,0,1,0,465.27,46Zm-8.34-.9h-5.43l2.71-4.7Zm-4.28-5.6-2.71,4.7-2.71-4.7Zm-7,.9,2.71,4.7h-5.43Zm-2.72,6.5h5.43L444.11,50Zm4.28,5.6,2.71-4.7,2.71,4.7Zm7-.9-2.71-4.7h5.43Z" style="fill:#fff"/><path d="M532.16,416.2l1.56-1.56a.9.9,0,0,0,0-1.27.91.91,0,0,0-1.28,0l-1.93,1.93H525.9l-3.76-6.5,2.31-4,2.64-.71a.9.9,0,1,0-.46-1.73l-2.14.57-.57-2.13a.9.9,0,1,0-1.74.46l.71,2.64-2.31,4h-7.5l-2.31-4,.71-2.64a.9.9,0,0,0-1.74-.46l-.57,2.13-2.14-.57a.9.9,0,1,0-.46,1.73l2.64.71,2.31,4-3.76,6.5h-4.61l-1.93-1.93a.91.91,0,0,0-1.28,0,.9.9,0,0,0,0,1.27l1.56,1.56-1.56,1.56a.9.9,0,1,0,1.28,1.27l1.93-1.93h4.61l3.76,6.5-2.31,4-2.64.71A.9.9,0,1,0,507,430l2.14-.57.57,2.13a.89.89,0,0,0,.87.67l.23,0a.91.91,0,0,0,.64-1.1l-.71-2.64,2.31-4h7.5l2.31,4-.71,2.64a.9.9,0,0,0,.64,1.1l.23,0a.89.89,0,0,0,.87-.67l.57-2.13,2.14.57a.9.9,0,1,0,.46-1.73l-2.64-.71-2.31-4,3.76-6.5h4.61l1.93,1.93a.9.9,0,0,0,1.28-1.27Zm-8.34-.9h-5.43l2.71-4.7Zm-4.28-5.6-2.71,4.7-2.71-4.7Zm-7,.9,2.71,4.7h-5.43Zm-2.72,6.5h5.43l-2.71,4.7Zm4.28,5.6,2.71-4.7,2.71,4.7Zm7-.9-2.71-4.7h5.43Z" style="fill:#fff"/><path d="M578.73,215.08l.89-.89a.52.52,0,1,0-.73-.73l-1.1,1.11h-2.65L573,210.85l1.32-2.29,1.51-.41a.51.51,0,0,0,.36-.63.52.52,0,0,0-.63-.36l-1.22.33-.33-1.22a.51.51,0,0,0-.63-.37.52.52,0,0,0-.36.63l.4,1.51-1.32,2.29h-4.29L566.48,208l.41-1.51a.52.52,0,1,0-1-.26l-.32,1.22-1.22-.33a.51.51,0,0,0-.27,1l1.51.41,1.32,2.29-2.15,3.72h-2.64l-1.1-1.11a.52.52,0,1,0-.73.73l.89.89-.89.9a.52.52,0,0,0,0,.73.51.51,0,0,0,.36.15.53.53,0,0,0,.37-.15l1.1-1.11h2.64l2.15,3.72-1.32,2.29-1.51.4a.52.52,0,0,0,.27,1l1.22-.33.32,1.22a.53.53,0,0,0,.5.39l.14,0a.52.52,0,0,0,.36-.63l-.41-1.51,1.33-2.29h4.29l1.32,2.29-.4,1.51a.52.52,0,0,0,.36.63l.14,0a.51.51,0,0,0,.49-.39l.33-1.22,1.22.33a.52.52,0,0,0,.27-1l-1.51-.4L573,219.32l2.14-3.72h2.65l1.1,1.11a.53.53,0,0,0,.37.15.51.51,0,0,0,.36-.15.52.52,0,0,0,0-.73Zm-4.78-.51h-3.1l1.55-2.69Zm-2.44-3.21L570,214.05l-1.55-2.69Zm-4,.52,1.55,2.69H566ZM566,215.6h3.11l-1.55,2.69Zm2.45,3.21,1.55-2.69,1.56,2.69Zm4-.52-1.55-2.69H574Z" style="fill:#fff"/><path d="M315.86,85.58l.65-.66a.38.38,0,0,0,0-.54.37.37,0,0,0-.53,0l-.82.82h-1.94l-1.58-2.74,1-1.69,1.11-.29A.4.4,0,0,0,314,80a.38.38,0,0,0-.46-.27l-.9.24-.24-.89a.39.39,0,0,0-.47-.27.37.37,0,0,0-.26.46L312,80.4l-1,1.68h-3.16l-1-1.68.29-1.12a.37.37,0,0,0-.26-.46.38.38,0,0,0-.47.27l-.24.89-.9-.24a.38.38,0,0,0-.46.27.4.4,0,0,0,.27.47l1.11.29,1,1.69-1.58,2.74h-1.94l-.82-.82a.37.37,0,0,0-.53,0,.38.38,0,0,0,0,.54l.65.66-.65.65a.38.38,0,0,0,0,.54.39.39,0,0,0,.27.11.38.38,0,0,0,.26-.11l.82-.82h1.94l1.58,2.74-1,1.69-1.11.29a.4.4,0,0,0-.27.47.38.38,0,0,0,.46.27l.9-.24.24.89a.39.39,0,0,0,.37.29l.1,0a.37.37,0,0,0,.26-.46l-.29-1.11,1-1.69H311l1,1.69-.29,1.11a.37.37,0,0,0,.26.46l.1,0a.39.39,0,0,0,.37-.29l.24-.89.9.24a.38.38,0,0,0,.46-.27.4.4,0,0,0-.27-.47l-1.11-.29-1-1.69L313.22,86h1.94l.82.82a.38.38,0,0,0,.26.11.39.39,0,0,0,.27-.11.38.38,0,0,0,0-.54Zm-3.52-.38h-2.28l1.14-2Zm-1.8-2.36-1.14,2-1.14-2Zm-2.94.38,1.14,2h-2.28ZM306.46,86h2.28l-1.14,2Zm1.8,2.36,1.14-2,1.14,2Zm2.94-.38-1.14-2h2.28Z" style="fill:#fff"/><path d="M113.87,71.79l.66-.65a.4.4,0,0,0,0-.54.38.38,0,0,0-.54,0l-.81.81h-2l-1.58-2.73,1-1.69,1.12-.3a.37.37,0,0,0,.26-.46.38.38,0,0,0-.46-.27l-.9.24-.24-.9a.38.38,0,0,0-.73.2l.3,1.11-1,1.69h-3.16l-1-1.69.3-1.11a.38.38,0,0,0-.27-.46.37.37,0,0,0-.46.26l-.24.9-.9-.24a.4.4,0,0,0-.47.27.38.38,0,0,0,.27.46l1.11.3,1,1.69-1.59,2.73h-1.94l-.81-.81a.38.38,0,0,0-.54.54l.66.65-.66.66a.38.38,0,0,0,0,.54.39.39,0,0,0,.27.11.4.4,0,0,0,.27-.11l.81-.82h1.94l1.59,2.74-1,1.68-1.11.3a.39.39,0,0,0-.27.47.38.38,0,0,0,.47.26l.9-.24.24.9a.36.36,0,0,0,.36.28h.1a.38.38,0,0,0,.27-.46l-.3-1.12,1-1.68H109L110,77l-.3,1.12a.36.36,0,0,0,.27.46h.1a.37.37,0,0,0,.36-.28l.24-.9.9.24a.37.37,0,0,0,.46-.26.38.38,0,0,0-.26-.47l-1.12-.3-1-1.68,1.58-2.74h2L114,73a.39.39,0,0,0,.27.11.4.4,0,0,0,.27-.11.4.4,0,0,0,0-.54Zm-3.51-.38h-2.29l1.14-2Zm-1.8-2.36-1.15,2-1.14-2Zm-3,.38,1.15,2h-2.29Zm-1.14,2.74h2.29l-1.15,2Zm1.8,2.36,1.14-2,1.15,2Zm2.94-.38-1.14-2h2.29Z" style="fill:#fff"/><path d="M43.08,425.5l.65-.66a.37.37,0,1,0-.53-.53l-.82.81H40.44l-1.58-2.74,1-1.68,1.11-.3a.38.38,0,0,0-.19-.73l-.9.24-.24-.9a.38.38,0,0,0-.47-.26.37.37,0,0,0-.26.46l.29,1.11-1,1.69H35l-1-1.69.3-1.11a.38.38,0,0,0-.74-.2l-.24.9-.9-.24a.38.38,0,0,0-.19.73l1.11.3,1,1.68-1.58,2.74H30.86l-.82-.81a.37.37,0,1,0-.53.53l.66.66-.66.66a.38.38,0,0,0,0,.54.39.39,0,0,0,.27.11.38.38,0,0,0,.26-.11l.82-.82H32.8l1.58,2.74-1,1.68-1.11.3a.39.39,0,0,0-.27.47.37.37,0,0,0,.46.26l.9-.24.24.9a.38.38,0,0,0,.37.28h.1a.39.39,0,0,0,.27-.47l-.3-1.11L35,429H38.2l1,1.68-.29,1.11a.38.38,0,0,0,.26.47h.1a.38.38,0,0,0,.37-.28l.24-.9.9.24a.37.37,0,0,0,.46-.26.39.39,0,0,0-.27-.47l-1.11-.3-1-1.68,1.58-2.74h1.94l.82.82a.39.39,0,0,0,.27.11.38.38,0,0,0,.26-.65Zm-3.52-.38H37.28l1.14-2Zm-1.8-2.36-1.14,2-1.14-2Zm-2.94.38,1.14,2H33.68Zm-1.14,2.74H36l-1.14,2Zm1.8,2.36,1.14-2,1.14,2Zm2.94-.38-1.14-2h2.28Z" style="fill:#fff"/><path d="M488,277.82l.65-.66a.37.37,0,1,0-.53-.53l-.82.81h-1.94l-1.58-2.74,1-1.68,1.11-.3a.38.38,0,1,0-.19-.73l-.9.24-.24-.9a.39.39,0,0,0-.47-.27.38.38,0,0,0-.26.47l.29,1.11-1,1.68H480l-1-1.68.3-1.11a.39.39,0,0,0-.27-.47.4.4,0,0,0-.47.27l-.24.9-.89-.24a.38.38,0,0,0-.47.27.38.38,0,0,0,.27.46l1.11.3,1,1.68-1.58,2.74h-1.94l-.82-.81a.37.37,0,1,0-.53.53l.66.66-.66.66a.37.37,0,0,0,0,.53.35.35,0,0,0,.27.11A.34.34,0,0,0,475,279l.82-.81h1.94l1.58,2.74-1,1.68-1.11.3a.38.38,0,0,0-.27.46.4.4,0,0,0,.47.27l.89-.24.24.9a.38.38,0,0,0,.37.28h.1a.4.4,0,0,0,.27-.47L479,283l1-1.68h3.16l1,1.68-.29,1.11a.38.38,0,0,0,.26.47h.1a.38.38,0,0,0,.37-.28l.24-.9.9.24a.38.38,0,0,0,.46-.27.36.36,0,0,0-.27-.46l-1.11-.3-1-1.68,1.58-2.74h1.94l.82.81a.35.35,0,0,0,.27.11.34.34,0,0,0,.26-.11.37.37,0,0,0,0-.53Zm-3.52-.38h-2.28l1.14-2Zm-1.8-2.36-1.14,2-1.14-2Zm-2.94.38,1.14,2h-2.28Zm-1.14,2.74h2.28l-1.14,2Zm1.8,2.36,1.14-2,1.14,2Zm2.94-.38-1.14-2h2.28Z" style="fill:#fff"/></svg>