<svg xmlns="http://www.w3.org/2000/svg" viewBox="0 0 600 450"><title>bg</title><rect width="600" height="450" style="fill:#016177;opacity:0.9500000000000001"/><g style="opacity:0.30000000000000004"><circle cx="85.25" cy="122.52" r="6.91" style="fill:#fff"/><circle cx="127.77" cy="304.84" r="6.91" style="fill:#fff"/><circle cx="165.98" cy="228.99" r="5.5" style="fill:#fff"/><circle cx="64.83" cy="280.55" r="2.73" style="fill:#fff"/><circle cx="367.38" cy="109" r="5.5" style="fill:#fff"/><circle cx="227.17" cy="266.1" r="6.91" style="fill:#fff"/><circle cx="277.06" cy="167.19" r="6.91" style="fill:#fff"/><circle cx="388.44" cy="167.19" r="3.85" style="fill:#fff"/><circle cx="202.15" cy="121.58" r="2.73" style="fill:#fff"/><circle cx="333.98" cy="235.99" r="5.5" style="fill:#fff"/><circle cx="355.56" cy="273.01" r="3.85" style="fill:#fff"/><circle cx="216.15" cy="340.58" r="2.73" style="fill:#fff"/><circle cx="31.16" cy="196.3" r="5.5" style="fill:#fff"/><circle cx="476.13" cy="136.43" r="6.91" style="fill:#fff"/><circle cx="462.15" cy="159.58" r="2.73" style="fill:#fff"/><circle cx="581.24" cy="87.08" r="5.5" style="fill:#fff"/><circle cx="555.83" cy="116.55" r="2.73" style="fill:#fff"/><circle cx="467.65" cy="24.51" r="5.5" style="fill:#fff"/><circle cx="318.15" cy="32.75" r="6.91" style="fill:#fff"/><circle cx="56.6" cy="16.56" r="5.5" style="fill:#fff"/><circle cx="219.04" cy="38.16" r="2.73" style="fill:#fff"/><circle cx="469.22" cy="313.35" r="5.5" style="fill:#fff"/><circle cx="540.26" cy="234.49" r="6.91" style="fill:#fff"/><circle cx="447.45" cy="223.72" r="3.85" style="fill:#fff"/><circle cx="388.44" cy="354.3" r="3.85" style="fill:#fff"/><circle cx="51.1" cy="391.31" r="6.91" style="fill:#fff"/><circle cx="418.83" cy="306.55" r="2.73" style="fill:#fff"/><circle cx="547.17" cy="384.4" r="5.5" style="fill:#fff"/><circle cx="309.06" cy="365.07" r="6.91" style="fill:#fff"/><circle cx="454.15" cy="405.79" r="2.73" style="fill:#fff"/><circle cx="162.66" cy="389.9" r="5.5" style="fill:#fff"/><circle cx="263.02" cy="408.52" r="5.5" style="fill:#fff"/></g><g style="opacity:0.5"><path d="M524.15,155.44l-1.29-1.29a.54.54,0,0,1,0-.78l2-2v-3l-2.63,1.52-.72,2.71a.55.55,0,0,1-.67.39l-1.77-.47a.54.54,0,0,1-.33-.26.53.53,0,0,1-.05-.41l.5-1.89-1.89-.51a.52.52,0,0,1-.33-.25.56.56,0,0,1-.05-.42l.47-1.76a.56.56,0,0,1,.67-.39l2.71.73,2.63-1.52-2.63-1.52L518,145a.54.54,0,0,1-.67-.39l-.47-1.76a.53.53,0,0,1,.05-.41.54.54,0,0,1,.33-.26l1.89-.5-.5-1.89a.53.53,0,0,1,.38-.67l1.77-.47a.54.54,0,0,1,.67.38l.72,2.72,2.63,1.51v-3l-2-2a.53.53,0,0,1,0-.77l1.29-1.29a.53.53,0,0,1,.77,0l1.38,1.38,1.38-1.38a.54.54,0,0,1,.78,0l1.29,1.29a.55.55,0,0,1,0,.77l-2,2v3l2.63-1.51.73-2.72a.53.53,0,0,1,.67-.38l1.76.47a.61.61,0,0,1,.34.25.56.56,0,0,1,.05.42l-.51,1.89,1.89.5a.54.54,0,0,1,.33.26.49.49,0,0,1,.06.41l-.47,1.76a.55.55,0,0,1-.68.39l-2.71-.73-2.63,1.52,2.63,1.52,2.71-.73a.56.56,0,0,1,.68.39l.47,1.76a.55.55,0,0,1-.39.67l-1.89.51.51,1.89a.53.53,0,0,1-.05.41.59.59,0,0,1-.34.26l-1.76.47a.52.52,0,0,1-.42-.06.56.56,0,0,1-.25-.33l-.73-2.71-2.63-1.52v3l2,2a.56.56,0,0,1,0,.78l-1.29,1.29a.56.56,0,0,1-.78,0l-1.38-1.38-1.38,1.38a.59.59,0,0,1-.39.16A.55.55,0,0,1,524.15,155.44Zm2.54-2.54,1.38,1.38.52-.52L526.83,152a.55.55,0,0,1-.16-.39V147.4a.55.55,0,0,1,.82-.47l3.65,2.1a.61.61,0,0,1,.25.34l.65,2.4.7-.19-.51-1.89a.58.58,0,0,1,.06-.41.54.54,0,0,1,.33-.26l1.89-.5-.19-.71-2.4.65a.62.62,0,0,1-.42-.06l-3.65-2.1a.55.55,0,0,1,0-1l3.65-2.11a.56.56,0,0,1,.42-.05l2.4.64.19-.7-1.89-.51a.56.56,0,0,1-.33-.25.62.62,0,0,1-.06-.42l.51-1.89-.7-.19-.65,2.41a.56.56,0,0,1-.25.33l-3.65,2.11a.59.59,0,0,1-.55,0,.55.55,0,0,1-.27-.48V140a.57.57,0,0,1,.16-.39l1.76-1.76-.52-.51-1.38,1.38a.55.55,0,0,1-.77,0l-1.39-1.38-.51.51,1.76,1.76a.57.57,0,0,1,.16.39v4.21a.56.56,0,0,1-.28.48.57.57,0,0,1-.54,0l-3.65-2.11a.54.54,0,0,1-.26-.33l-.64-2.41-.71.19.51,1.89a.56.56,0,0,1,0,.42.61.61,0,0,1-.34.25l-1.88.51.19.7,2.4-.64a.53.53,0,0,1,.41.05l3.65,2.11a.54.54,0,0,1,0,1l-3.65,2.1a.58.58,0,0,1-.41.06l-2.4-.65-.19.71,1.88.5a.59.59,0,0,1,.34.26.53.53,0,0,1,0,.41l-.51,1.89.71.19.64-2.4a.59.59,0,0,1,.26-.34l3.65-2.1a.52.52,0,0,1,.54,0,.56.56,0,0,1,.28.47v4.21a.55.55,0,0,1-.16.39L524,153.76l.51.52,1.39-1.38a.51.51,0,0,1,.38-.16A.54.54,0,0,1,526.69,152.9Z" style="fill:#fff"/><path d="M568.19,344.84l-1.29-1.29a.55.55,0,0,1,0-.77l2-2v-3l-2.63,1.51-.73,2.72a.54.54,0,0,1-.67.38l-1.76-.47a.56.56,0,0,1-.33-.25.52.52,0,0,1-.06-.42l.51-1.89-1.89-.5a.54.54,0,0,1-.33-.26.58.58,0,0,1-.06-.41l.48-1.76a.54.54,0,0,1,.67-.39l2.71.73,2.63-1.52-2.63-1.52-2.71.73a.55.55,0,0,1-.67-.39l-.48-1.76a.62.62,0,0,1,.06-.42.49.49,0,0,1,.33-.25l1.89-.51-.51-1.89a.49.49,0,0,1,.06-.41.54.54,0,0,1,.33-.26l1.76-.47a.54.54,0,0,1,.67.39l.73,2.71,2.63,1.52v-3l-2-2a.56.56,0,0,1,0-.78l1.29-1.29a.56.56,0,0,1,.78,0l1.38,1.38,1.38-1.38a.55.55,0,0,1,.77,0l1.3,1.29a.56.56,0,0,1,0,.78l-2,2v3l2.63-1.52.73-2.71a.49.49,0,0,1,.25-.33.52.52,0,0,1,.42-.06l1.76.47a.54.54,0,0,1,.33.26.58.58,0,0,1,.06.41l-.51,1.89,1.89.51a.49.49,0,0,1,.33.25.56.56,0,0,1,0,.42l-.47,1.76a.56.56,0,0,1-.67.39l-2.71-.73-2.63,1.52,2.63,1.52,2.71-.73a.54.54,0,0,1,.67.39l.47,1.76a.53.53,0,0,1,0,.41.54.54,0,0,1-.33.26l-1.89.5.51,1.89a.62.62,0,0,1-.06.42.56.56,0,0,1-.33.25l-1.76.47a.56.56,0,0,1-.42-.05.49.49,0,0,1-.25-.33l-.73-2.72-2.63-1.51v3l2,2a.55.55,0,0,1,0,.77l-1.3,1.29a.53.53,0,0,1-.77,0l-1.38-1.38L569,344.84a.56.56,0,0,1-.78,0Zm2.55-2.54,1.38,1.38.51-.51-1.76-1.76a.59.59,0,0,1-.16-.39v-4.21a.56.56,0,0,1,.28-.48.59.59,0,0,1,.55,0l3.64,2.11a.54.54,0,0,1,.26.33l.64,2.4.71-.18-.51-1.89a.52.52,0,0,1,.06-.42.56.56,0,0,1,.33-.25l1.88-.51-.18-.7-2.41.64a.53.53,0,0,1-.41-.05l-3.65-2.11a.55.55,0,0,1,0-.95l3.65-2.1a.49.49,0,0,1,.41-.06l2.41.65.18-.71-1.88-.5a.54.54,0,0,1-.33-.26.5.5,0,0,1-.06-.41l.51-1.89-.71-.19-.64,2.4a.59.59,0,0,1-.26.34l-3.64,2.1a.54.54,0,0,1-.55,0,.56.56,0,0,1-.28-.47v-4.22a.55.55,0,0,1,.16-.38l1.76-1.76-.51-.52-1.38,1.38a.54.54,0,0,1-.78,0l-1.38-1.38-.52.52,1.76,1.76a.51.51,0,0,1,.16.38v4.22a.55.55,0,0,1-.82.47l-3.64-2.1a.59.59,0,0,1-.26-.34l-.64-2.4-.71.19.51,1.88a.61.61,0,0,1-.06.42.54.54,0,0,1-.33.26l-1.89.5.19.71,2.4-.65a.52.52,0,0,1,.42.06l3.65,2.1a.55.55,0,0,1,0,.95l-3.65,2.11a.56.56,0,0,1-.42.05l-2.4-.64-.19.7,1.89.51a.56.56,0,0,1,.33.25.62.62,0,0,1,.06.42l-.51,1.89.71.18.64-2.4a.54.54,0,0,1,.26-.33l3.64-2.11a.59.59,0,0,1,.55,0,.55.55,0,0,1,.27.48V341a.54.54,0,0,1-.16.39l-1.76,1.76.52.51L570,342.3a.56.56,0,0,1,.78,0Z" style="fill:#fff"/><path d="M130.73,130.9l-.82-.82a.34.34,0,0,1,0-.49l1.26-1.26V126.4l-1.67,1-.46,1.72a.35.35,0,0,1-.43.24l-1.11-.3a.31.31,0,0,1-.21-.16.34.34,0,0,1,0-.26l.32-1.2-1.2-.32a.36.36,0,0,1-.21-.16.42.42,0,0,1,0-.27l.3-1.11a.34.34,0,0,1,.42-.25l1.73.46,1.66-1-1.66-1-1.73.46a.34.34,0,0,1-.42-.25l-.3-1.12a.39.39,0,0,1,0-.26.36.36,0,0,1,.21-.16l1.2-.32-.32-1.2a.34.34,0,0,1,0-.26.36.36,0,0,1,.21-.17l1.11-.3a.36.36,0,0,1,.43.25l.46,1.72,1.67,1v-1.92L129.91,120a.34.34,0,0,1,0-.49l.82-.82a.34.34,0,0,1,.49,0l.88.87.87-.87a.34.34,0,0,1,.49,0l.82.82a.34.34,0,0,1,0,.49L133,121.27v1.92l1.67-1,.46-1.72a.34.34,0,0,1,.16-.21.32.32,0,0,1,.27,0l1.11.29a.41.41,0,0,1,.22.17.39.39,0,0,1,0,.26l-.32,1.2,1.2.32a.34.34,0,0,1,.24.42l-.3,1.12a.34.34,0,0,1-.42.25l-1.72-.46-1.67,1,1.67,1,1.72-.46a.34.34,0,0,1,.42.25l.3,1.11a.36.36,0,0,1,0,.27.34.34,0,0,1-.21.16l-1.2.32.32,1.2a.39.39,0,0,1,0,.26.36.36,0,0,1-.22.16l-1.11.3a.36.36,0,0,1-.27,0,.34.34,0,0,1-.16-.21l-.46-1.72-1.67-1v1.93l1.26,1.26a.34.34,0,0,1,0,.49l-.82.82a.36.36,0,0,1-.49,0l-.87-.88-.88.88a.35.35,0,0,1-.25.1A.33.33,0,0,1,130.73,130.9Zm1.61-1.61.88.87.32-.33-1.11-1.11a.33.33,0,0,1-.1-.25V125.8a.34.34,0,0,1,.17-.3.36.36,0,0,1,.35,0l2.31,1.34a.31.31,0,0,1,.16.21l.41,1.52.45-.12-.32-1.2a.39.39,0,0,1,0-.26.36.36,0,0,1,.21-.16l1.2-.32-.12-.45-1.52.41a.42.42,0,0,1-.27,0l-2.31-1.34a.34.34,0,0,1-.17-.3.33.33,0,0,1,.17-.3l2.31-1.34a.36.36,0,0,1,.27,0l1.52.41.12-.45-1.2-.32a.41.41,0,0,1-.21-.16.42.42,0,0,1,0-.27l.32-1.19-.45-.12-.41,1.52a.31.31,0,0,1-.16.21l-2.31,1.34a.36.36,0,0,1-.35,0,.35.35,0,0,1-.17-.3v-2.68a.31.31,0,0,1,.1-.24l1.11-1.12-.32-.32-.88.87a.34.34,0,0,1-.49,0l-.88-.87-.32.32,1.11,1.12a.31.31,0,0,1,.1.24v2.68a.35.35,0,0,1-.17.3.36.36,0,0,1-.35,0L129,122.76a.31.31,0,0,1-.16-.21l-.41-1.52-.45.12.32,1.19a.36.36,0,0,1,0,.27.37.37,0,0,1-.21.16l-1.2.32.12.45,1.52-.41a.36.36,0,0,1,.27,0l2.31,1.34a.34.34,0,0,1,.18.3.35.35,0,0,1-.18.3l-2.31,1.34a.42.42,0,0,1-.27,0l-1.52-.41-.12.45,1.2.32a.34.34,0,0,1,.21.16.36.36,0,0,1,0,.27l-.32,1.19.45.12.41-1.52a.31.31,0,0,1,.16-.21l2.31-1.34a.36.36,0,0,1,.35,0,.34.34,0,0,1,.17.3v2.67a.33.33,0,0,1-.1.25l-1.11,1.11.32.33.88-.87a.36.36,0,0,1,.25-.11A.35.35,0,0,1,132.34,129.29Z" style="fill:#fff"/><path d="M80.1,200.57l-2.18-2.18a.91.91,0,0,1,0-1.31l3.35-3.36v-5.13l-4.44,2.56-1.23,4.59a.92.92,0,0,1-1.14.65l-3-.8a.92.92,0,0,1-.56-.43.94.94,0,0,1-.09-.7l.86-3.19-3.19-.85a.94.94,0,0,1-.66-1.13l.8-3a.93.93,0,0,1,1.14-.66l4.58,1.23,4.45-2.56-4.45-2.57L69.78,183a.93.93,0,0,1-1.14-.66l-.8-3a.94.94,0,0,1,.66-1.13l3.19-.85-.86-3.19a.94.94,0,0,1,.09-.7.92.92,0,0,1,.56-.43l3-.8a.92.92,0,0,1,1.14.65l1.23,4.59L81.27,180v-5.13l-3.35-3.36a.91.91,0,0,1,0-1.31l2.18-2.18a.93.93,0,0,1,1.31,0l2.33,2.34,2.33-2.34a.93.93,0,0,1,1.31,0l2.18,2.18a.93.93,0,0,1,0,1.31l-3.35,3.36V180l4.44-2.56,1.23-4.59a.92.92,0,0,1,1.13-.65l3,.8a.87.87,0,0,1,.56.43.9.9,0,0,1,.1.7l-.86,3.19,3.19.85a.94.94,0,0,1,.66,1.13l-.8,3a.94.94,0,0,1-1.14.66l-4.58-1.23-4.45,2.57,4.45,2.56,4.58-1.23a.93.93,0,0,1,1.14.66l.8,3a.94.94,0,0,1-.66,1.13l-3.19.85.86,3.19a.9.9,0,0,1-.1.7.92.92,0,0,1-.56.44l-3,.79a.92.92,0,0,1-1.13-.65l-1.23-4.59-4.44-2.56v5.13l3.35,3.36a.93.93,0,0,1,0,1.31l-2.18,2.18a.93.93,0,0,1-1.31,0l-2.33-2.34-2.33,2.34a1,1,0,0,1-.66.27A.91.91,0,0,1,80.1,200.57Zm4.29-4.3,2.34,2.33.87-.87-3-3a.9.9,0,0,1-.27-.66V187a.91.91,0,0,1,.46-.8.89.89,0,0,1,.92,0l6.17,3.55a1,1,0,0,1,.43.57l1.09,4.06,1.19-.32-.86-3.19a.9.9,0,0,1,.1-.7.87.87,0,0,1,.56-.43l3.19-.86-.32-1.19-4.06,1.09a.94.94,0,0,1-.7-.09l-6.17-3.56a.93.93,0,0,1,0-1.61L92.53,180a.94.94,0,0,1,.7-.09L97.29,181l.32-1.19-3.19-.86a.87.87,0,0,1-.56-.43.9.9,0,0,1-.1-.7l.86-3.19-1.19-.32-1.09,4.07a1,1,0,0,1-.43.56l-6.17,3.56a.94.94,0,0,1-.92,0,.92.92,0,0,1-.46-.81v-7.11a.91.91,0,0,1,.27-.66l3-3-.87-.87-2.34,2.33a.93.93,0,0,1-1.31,0L80.75,170l-.87.87,3,3a.91.91,0,0,1,.27.66v7.11a.92.92,0,0,1-.46.81,1,1,0,0,1-.93,0l-6.16-3.56a1,1,0,0,1-.43-.56l-1.09-4.07-1.19.32.85,3.19a.9.9,0,0,1-.09.7.87.87,0,0,1-.56.43l-3.19.86.32,1.19,4.06-1.09a.94.94,0,0,1,.7.09l6.17,3.56a.93.93,0,0,1,0,1.61L75,188.68a.94.94,0,0,1-.7.09l-4.06-1.09-.32,1.19,3.19.86a.87.87,0,0,1,.56.43.9.9,0,0,1,.09.7l-.85,3.19,1.19.32,1.09-4.07a1,1,0,0,1,.43-.56l6.16-3.55a.93.93,0,0,1,1.39.8v7.11a.9.9,0,0,1-.27.66l-3,3,.87.87,2.33-2.33a1,1,0,0,1,.66-.27A.91.91,0,0,1,84.39,196.27Z" style="fill:#fff"/><path d="M402.5,67l-2.18-2.18a.93.93,0,0,1,0-1.31l3.35-3.36V55.05l-4.44,2.56L398,62.2a.92.92,0,0,1-1.13.65l-3-.8a.91.91,0,0,1-.57-.43.94.94,0,0,1-.09-.7l.86-3.19-3.19-.85a.94.94,0,0,1-.66-1.13l.8-3a.93.93,0,0,1,1.14-.66l4.58,1.23,4.45-2.57-4.45-2.56-4.58,1.23a.94.94,0,0,1-1.14-.66l-.8-3a.94.94,0,0,1,.66-1.13l3.19-.85-.86-3.19a.94.94,0,0,1,.09-.7.91.91,0,0,1,.57-.43l3-.8a.92.92,0,0,1,1.13.65l1.23,4.59,4.44,2.56V41.37L400.32,38a.93.93,0,0,1,0-1.31l2.18-2.18a.93.93,0,0,1,1.31,0l2.33,2.34,2.33-2.34a.93.93,0,0,1,1.31,0L412,36.7A.91.91,0,0,1,412,38l-3.35,3.36V46.5l4.44-2.56,1.23-4.59a.92.92,0,0,1,1.13-.65l3,.79a1,1,0,0,1,.57.44.94.94,0,0,1,.09.7l-.86,3.19,3.19.85A.94.94,0,0,1,422,45.8l-.8,3a.93.93,0,0,1-1.14.66l-4.58-1.23-4.45,2.56,4.45,2.57,4.58-1.23a.93.93,0,0,1,1.14.66l.8,3a.94.94,0,0,1-.66,1.13l-3.19.85.86,3.19a.94.94,0,0,1-.09.7,1,1,0,0,1-.57.44l-3,.79a.92.92,0,0,1-1.13-.65l-1.23-4.59-4.44-2.56v5.13L412,63.54a.91.91,0,0,1,0,1.31L409.78,67a.93.93,0,0,1-1.31,0l-2.33-2.34L403.81,67a.93.93,0,0,1-.66.27A.91.91,0,0,1,402.5,67Zm4.3-4.3,2.33,2.33.87-.87-3-3a.9.9,0,0,1-.27-.66V53.45a.94.94,0,0,1,.46-.81,1,1,0,0,1,.93,0l6.16,3.56a1,1,0,0,1,.43.57l1.09,4.06,1.19-.32-.85-3.19a.9.9,0,0,1,.09-.7.87.87,0,0,1,.56-.43l3.19-.86-.32-1.19-4.06,1.09a.94.94,0,0,1-.7-.09l-6.17-3.56a.93.93,0,0,1,0-1.61l6.17-3.56a.94.94,0,0,1,.7-.09l4.06,1.09.32-1.19-3.19-.86a.87.87,0,0,1-.56-.43.9.9,0,0,1-.09-.7L417,41l-1.19-.32-1.09,4.06a1,1,0,0,1-.43.57l-6.16,3.56a1,1,0,0,1-.93,0,.94.94,0,0,1-.46-.81V41a.9.9,0,0,1,.27-.66l3-3-.87-.87-2.33,2.33a.93.93,0,0,1-1.31,0l-2.34-2.33-.87.87,3,3a.9.9,0,0,1,.27.66V48.1a.92.92,0,0,1-1.38.81L398,45.35a1,1,0,0,1-.43-.56l-1.09-4.07-1.19.32.85,3.19a.9.9,0,0,1-.09.7.87.87,0,0,1-.56.43l-3.19.86.32,1.19,4.06-1.09a.94.94,0,0,1,.7.09L403.52,50a.93.93,0,0,1,0,1.61l-6.17,3.56a.94.94,0,0,1-.7.09l-4.06-1.09-.32,1.19,3.19.86a.87.87,0,0,1,.56.43.9.9,0,0,1,.09.7l-.85,3.19,1.19.32,1.09-4.07a1,1,0,0,1,.43-.56l6.17-3.56a.92.92,0,0,1,1.38.81v7.11a.9.9,0,0,1-.27.66l-3,3,.87.87,2.34-2.33a.91.91,0,0,1,.65-.27A1,1,0,0,1,406.8,62.73Z" style="fill:#fff"/><path d="M29.67,84.46a.91.91,0,0,0,.82.53.94.94,0,0,0,.37-.07L36,82.63l4.57,2-.54,5L35.5,93a.9.9,0,0,0,1.07,1.45l3.24-2.37-.44,4a.91.91,0,0,0,.8,1h.1a.91.91,0,0,0,.89-.81l.62-5.62,4-3,4,3,.61,5.62a.91.91,0,0,0,.89.81h.1a.91.91,0,0,0,.8-1l-.44-4,3.24,2.37A.9.9,0,0,0,56.12,93l-4.57-3.35-.54-5,4.57-2,5.18,2.29a.94.94,0,0,0,.37.07.9.9,0,0,0,.36-1.72l-3.67-1.62L61.49,80A.9.9,0,0,0,62,78.84a.92.92,0,0,0-1.19-.46l-5.18,2.29-4.57-2,.54-5,4.57-3.35a.9.9,0,0,0-1.07-1.45l-3.24,2.37.44-4a.91.91,0,0,0-.8-1,.89.89,0,0,0-1,.8l-.61,5.62-4,3-4-3-.62-5.62a.89.89,0,0,0-1-.8.91.91,0,0,0-.8,1l.44,4-3.24-2.37a.91.91,0,0,0-1.26.2.89.89,0,0,0,.19,1.25l4.57,3.35.54,5-4.57,2-5.18-2.29a.92.92,0,0,0-1.19.46A.91.91,0,0,0,30.13,80l3.68,1.62-3.68,1.62A.91.91,0,0,0,29.67,84.46Zm8.6-2.81L41.94,80a.89.89,0,0,0,.53-.92l-.43-4,3.24,2.37a.9.9,0,0,0,1.06,0l3.24-2.37-.43,4a.9.9,0,0,0,.53.92l3.67,1.62-3.67,1.62a.9.9,0,0,0-.53.92l.43,4-3.24-2.37a.91.91,0,0,0-1.06,0L42,88.18l.43-4a.89.89,0,0,0-.53-.92Z" style="fill:#fff"/><path d="M207,118.61a.72.72,0,0,0,.65.42.71.71,0,0,0,.28-.06l4.08-1.8,3.59,1.59-.42,3.91-3.59,2.63a.71.71,0,0,0-.16,1,.72.72,0,0,0,1,.15l2.55-1.86-.34,3.13a.71.71,0,0,0,.63.78h.08a.71.71,0,0,0,.7-.63l.48-4.43,3.17-2.32,3.18,2.32.48,4.43a.7.7,0,0,0,.7.63h.08a.69.69,0,0,0,.62-.78l-.34-3.13,2.55,1.86a.71.71,0,1,0,.84-1.14l-3.59-2.63-.43-3.91,3.6-1.59,4.07,1.8a.72.72,0,0,0,.29.06.7.7,0,0,0,.64-.42.71.71,0,0,0-.36-.94l-2.89-1.27,2.89-1.27a.71.71,0,0,0-.57-1.3l-4.07,1.8-3.6-1.59.43-3.91,3.59-2.63a.71.71,0,0,0-.84-1.14l-2.55,1.86.34-3.14a.7.7,0,0,0-1.4-.15l-.48,4.43-3.18,2.32-3.17-2.32-.48-4.43a.69.69,0,0,0-.78-.62.7.7,0,0,0-.63.77l.34,3.14-2.55-1.86a.72.72,0,0,0-1,.15.71.71,0,0,0,.16,1l3.59,2.63.42,3.91L212,115.63l-4.08-1.8a.71.71,0,0,0-.93.36.72.72,0,0,0,.36.94l2.89,1.27-2.89,1.27A.72.72,0,0,0,207,118.61Zm6.76-2.21,2.89-1.27a.73.73,0,0,0,.42-.73l-.34-3.14,2.54,1.87a.72.72,0,0,0,.84,0l2.55-1.87-.34,3.14a.7.7,0,0,0,.42.73l2.88,1.27-2.88,1.27a.7.7,0,0,0-.42.73l.34,3.14-2.55-1.87a.7.7,0,0,0-.42-.13.74.74,0,0,0-.42.13l-2.54,1.87.34-3.14a.73.73,0,0,0-.42-.73Z" style="fill:#fff"/><path d="M31.5,337.43a.71.71,0,0,0,.65.43.71.71,0,0,0,.28-.06l4.08-1.8,3.59,1.59-.42,3.91-3.59,2.63a.71.71,0,0,0-.16,1,.71.71,0,0,0,1,.15l2.55-1.87-.34,3.14a.71.71,0,0,0,.63.78h.07a.71.71,0,0,0,.71-.63l.48-4.43L44.19,340l3.18,2.32.48,4.43a.7.7,0,0,0,.7.63h.08a.69.69,0,0,0,.62-.78l-.34-3.14,2.55,1.87a.71.71,0,0,0,.84-1.14l-3.6-2.63-.42-3.91,3.6-1.59L56,337.8a.72.72,0,0,0,.29.06.69.69,0,0,0,.64-.43.7.7,0,0,0-.36-.93l-2.89-1.27L56.52,334a.71.71,0,1,0-.57-1.29l-4.07,1.79-3.6-1.58L48.7,329l3.6-2.63a.71.71,0,0,0,.15-1,.7.7,0,0,0-1-.15l-2.55,1.86.34-3.14a.7.7,0,1,0-1.4-.15l-.48,4.42-3.18,2.33L41,328.18l-.48-4.42a.7.7,0,0,0-.78-.63.71.71,0,0,0-.63.78l.34,3.14-2.55-1.86a.71.71,0,1,0-.83,1.14L39.68,329l.42,3.91-3.59,1.58-4.08-1.79a.71.71,0,0,0-.57,1.29l2.89,1.28-2.89,1.27A.7.7,0,0,0,31.5,337.43Zm6.76-2.2L41.15,334a.71.71,0,0,0,.42-.72l-.34-3.14L43.77,332a.72.72,0,0,0,.84,0l2.55-1.87-.34,3.14a.68.68,0,0,0,.41.72l2.89,1.28-2.89,1.27a.71.71,0,0,0-.41.73l.34,3.14-2.55-1.87a.7.7,0,0,0-.84,0l-2.54,1.87.34-3.14a.73.73,0,0,0-.42-.73Z" style="fill:#fff"/><path d="M543.53,252.55a.68.68,0,0,0,.64.42.58.58,0,0,0,.29-.06l4.07-1.79,3.6,1.59-.43,3.91-3.59,2.62a.72.72,0,0,0-.15,1,.71.71,0,0,0,1,.16l2.55-1.87-.34,3.14a.69.69,0,0,0,.62.78h.08a.7.7,0,0,0,.7-.63l.48-4.42,3.18-2.32,3.17,2.32.48,4.42a.7.7,0,0,0,.7.63h.08a.71.71,0,0,0,.63-.78l-.34-3.14,2.55,1.87a.7.7,0,0,0,1-.16.71.71,0,0,0-.15-1l-3.59-2.62-.43-3.91,3.6-1.59,4.08,1.79a.57.57,0,0,0,.28.06.71.71,0,0,0,.29-1.35l-2.89-1.27,2.89-1.28a.71.71,0,1,0-.57-1.29l-4.08,1.79L560.3,248l.43-3.91,3.59-2.63a.71.71,0,0,0,.15-1,.7.7,0,0,0-1-.16l-2.55,1.87.34-3.14a.71.71,0,0,0-1.41-.15l-.48,4.42-3.17,2.33L553,243.3l-.48-4.42a.7.7,0,0,0-.78-.63.69.69,0,0,0-.62.78l.34,3.14L549,240.3a.71.71,0,0,0-1,.16.71.71,0,0,0,.15,1l3.59,2.63.43,3.91-3.6,1.58-4.07-1.79a.71.71,0,1,0-.57,1.29l2.89,1.28-2.89,1.27A.7.7,0,0,0,543.53,252.55Zm6.76-2.2,2.88-1.28a.69.69,0,0,0,.42-.72l-.34-3.14,2.55,1.86a.68.68,0,0,0,.83,0l2.55-1.86-.34,3.14a.71.71,0,0,0,.42.72l2.89,1.28-2.89,1.27a.71.71,0,0,0-.42.72l.34,3.14-2.55-1.86a.69.69,0,0,0-.83,0l-2.55,1.86.34-3.14a.69.69,0,0,0-.42-.72Z" style="fill:#fff"/><path d="M464.43,368.3a1,1,0,0,0,.95.62,1,1,0,0,0,.42-.08l6-2.64,5.28,2.33-.63,5.73-5.26,3.86a1,1,0,1,0,1.22,1.67l3.74-2.73-.5,4.6a1,1,0,0,0,.92,1.14h.11a1,1,0,0,0,1-.93l.71-6.48L483,372l4.65,3.41.71,6.48a1,1,0,0,0,1,.93h.11a1,1,0,0,0,.92-1.14l-.5-4.6,3.74,2.73a1,1,0,1,0,1.22-1.67l-5.26-3.86-.63-5.73,5.28-2.33,6,2.64a1,1,0,0,0,.42.08,1,1,0,0,0,.42-2l-4.24-1.87,4.24-1.87a1,1,0,1,0-.84-1.9l-6,2.63L489,361.61l.63-5.73,5.26-3.86a1,1,0,1,0-1.22-1.67L490,353.08l.5-4.6a1,1,0,0,0-.92-1.14,1,1,0,0,0-1.14.91l-.71,6.49L483,358.15l-4.65-3.41-.71-6.49a1,1,0,0,0-1.14-.91,1,1,0,0,0-.92,1.14l.5,4.6-3.74-2.73a1,1,0,1,0-1.22,1.67l5.26,3.86.63,5.73-5.28,2.32-6-2.63a1,1,0,1,0-.84,1.9l4.24,1.87L465,366.94A1,1,0,0,0,464.43,368.3Zm9.91-3.23,4.24-1.87a1,1,0,0,0,.61-1.06l-.5-4.6,3.74,2.73a1,1,0,0,0,1.22,0l3.74-2.73-.5,4.6a1,1,0,0,0,.61,1.06l4.24,1.87-4.24,1.87a1,1,0,0,0-.61,1.06l.5,4.6-3.74-2.73a1,1,0,0,0-.61-.2,1,1,0,0,0-.61.2l-3.74,2.73.5-4.6a1,1,0,0,0-.61-1.06Z" style="fill:#fff"/><path d="M535.48,40.48a.72.72,0,0,0,.65.42.71.71,0,0,0,.28-.06l4.08-1.79,3.59,1.58-.42,3.91-3.59,2.63a.71.71,0,0,0-.16,1,.72.72,0,0,0,1,.15l2.55-1.86-.34,3.14a.71.71,0,0,0,.63.78h.08a.71.71,0,0,0,.7-.63l.48-4.43L548.17,43l3.18,2.32.48,4.43a.7.7,0,0,0,.7.63h.08a.7.7,0,0,0,.62-.78l-.34-3.14,2.55,1.86a.7.7,0,0,0,1-.15.71.71,0,0,0-.15-1l-3.59-2.63-.43-3.91,3.6-1.58,4.07,1.79a.72.72,0,0,0,.29.06.71.71,0,0,0,.28-1.35l-2.89-1.28L560.5,37a.71.71,0,0,0-.57-1.3l-4.07,1.8-3.6-1.59.43-3.91,3.59-2.63a.71.71,0,0,0-.84-1.14l-2.55,1.87.34-3.14a.7.7,0,0,0-1.4-.16l-.48,4.43-3.18,2.32L545,31.23l-.48-4.43a.7.7,0,0,0-.78-.62.71.71,0,0,0-.63.78l.34,3.14-2.55-1.87a.72.72,0,0,0-1,.15.71.71,0,0,0,.16,1L543.66,32l.42,3.91-3.59,1.59-4.08-1.8a.71.71,0,0,0-.57,1.3l2.89,1.27-2.89,1.28A.7.7,0,0,0,535.48,40.48Zm6.76-2.21L545.13,37a.73.73,0,0,0,.42-.73l-.34-3.14L547.75,35a.72.72,0,0,0,.84,0l2.55-1.87-.34,3.14a.7.7,0,0,0,.42.73l2.88,1.27-2.88,1.28a.68.68,0,0,0-.42.72l.34,3.14-2.55-1.87a.7.7,0,0,0-.42-.13.74.74,0,0,0-.42.13l-2.54,1.87.34-3.14a.71.71,0,0,0-.42-.72Z" style="fill:#fff"/><path d="M438.24,159.24a.46.46,0,0,0,.41.27.41.41,0,0,0,.19,0l2.58-1.14,2.29,1-.27,2.49-2.28,1.67a.45.45,0,1,0,.53.72l1.62-1.18-.22,2a.46.46,0,0,0,.4.5h.05a.45.45,0,0,0,.45-.4l.3-2.81,2-1.48,2,1.48.3,2.81a.45.45,0,0,0,.45.4h.05a.47.47,0,0,0,.4-.5l-.22-2,1.62,1.18a.45.45,0,0,0,.63-.09.46.46,0,0,0-.1-.63l-2.28-1.67-.27-2.49,2.28-1,2.59,1.14a.39.39,0,0,0,.18,0,.43.43,0,0,0,.41-.27.44.44,0,0,0-.22-.59l-1.84-.81,1.84-.81a.45.45,0,0,0-.37-.82l-2.59,1.14-2.28-1,.27-2.48,2.28-1.67a.46.46,0,0,0,.1-.63.45.45,0,0,0-.63-.1l-1.62,1.18.22-2a.47.47,0,0,0-.4-.5.46.46,0,0,0-.5.4l-.3,2.81-2,1.48-2-1.48-.3-2.81a.45.45,0,1,0-.9.1l.22,2-1.62-1.18a.45.45,0,0,0-.53.73l2.28,1.67.27,2.48-2.29,1-2.58-1.14a.45.45,0,1,0-.37.82l1.84.81-1.84.81A.46.46,0,0,0,438.24,159.24Zm4.3-1.4,1.84-.81a.46.46,0,0,0,.26-.46l-.22-2,1.62,1.18a.44.44,0,0,0,.53,0l1.62-1.18-.21,2a.44.44,0,0,0,.26.46l1.84.81-1.84.81a.45.45,0,0,0-.26.46l.21,2-1.62-1.19a.41.41,0,0,0-.26-.09.46.46,0,0,0-.27.09l-1.62,1.19.22-2a.47.47,0,0,0-.26-.46Z" style="fill:#fff"/><path d="M470.87,209.73a.91.91,0,0,0,0,1.28.93.93,0,0,0,.64.26.89.89,0,0,0,.63-.26l1.94-1.94h4.61l3.76,6.51-2.31,4-2.64.71a.9.9,0,0,0-.64,1.1.91.91,0,0,0,1.1.64l2.13-.57.58,2.13a.89.89,0,0,0,.86.67.67.67,0,0,0,.24,0,.89.89,0,0,0,.63-1.1l-.7-2.64,2.3-4h7.51l2.31,4-.71,2.64a.9.9,0,0,0,.64,1.1.66.66,0,0,0,.23,0,.91.91,0,0,0,.87-.67l.57-2.13,2.13.57a.9.9,0,1,0,.47-1.74l-2.64-.71-2.31-4,3.75-6.51h4.62l1.93,1.94a.92.92,0,0,0,1.28,0,.91.91,0,0,0,0-1.28l-1.57-1.56,1.57-1.56a.9.9,0,0,0,0-1.27.91.91,0,0,0-1.28,0l-1.93,1.93h-4.62l-3.75-6.5,2.31-4,2.64-.71a.9.9,0,1,0-.47-1.74l-2.13.57-.57-2.13a.9.9,0,0,0-1.1-.64.91.91,0,0,0-.64,1.11l.71,2.64-2.31,4H484l-2.3-4,.7-2.64a.9.9,0,1,0-1.73-.47l-.58,2.13-2.13-.57a.9.9,0,1,0-.46,1.74l2.64.71,2.31,4-3.76,6.5h-4.61l-1.94-1.93a.9.9,0,0,0-1.27,1.27l1.56,1.56Zm12.61-7.16,2.72,4.7h-5.43Zm7-.9-2.71,4.7-2.72-4.7Zm4.28,5.6h-5.43l2.71-4.7ZM492,213.78l-2.71-4.71h5.43Zm-7,.9,2.72-4.71,2.71,4.71Zm-4.27-5.61h5.43l-2.72,4.71Z" style="fill:#fff"/><path d="M129.9,46a.9.9,0,1,0,1.28,1.27l1.93-1.93h4.62l3.75,6.5-2.31,4-2.64.71a.9.9,0,1,0,.47,1.73l2.13-.57.57,2.13a.89.89,0,0,0,.87.67l.23,0a.9.9,0,0,0,.64-1.1l-.71-2.64,2.31-4h7.51l2.3,4-.7,2.64a.89.89,0,0,0,.63,1.1,1,1,0,0,0,.24,0,.88.88,0,0,0,.86-.67l.58-2.13,2.13.57a.9.9,0,1,0,.46-1.73l-2.64-.71-2.31-4,3.76-6.5h4.61l1.94,1.93a.86.86,0,0,0,.63.27.91.91,0,0,0,.64-1.54l-1.56-1.56,1.56-1.56a.9.9,0,1,0-1.27-1.27l-1.94,1.93h-4.61L152.1,37l2.31-4,2.64-.71a.9.9,0,1,0-.46-1.73l-2.13.57L153.88,29a.9.9,0,1,0-1.73.46l.7,2.64-2.3,4H143l-2.31-4,.71-2.64A.9.9,0,0,0,139.7,29l-.57,2.13L137,30.59a.9.9,0,1,0-.47,1.73l2.64.71,2.31,4-3.75,6.5h-4.62l-1.93-1.93a.91.91,0,0,0-1.28,0,.9.9,0,0,0,0,1.27l1.57,1.56Zm12.62-7.16,2.71,4.7H139.8Zm7-.9-2.72,4.7-2.71-4.7Zm4.27,5.6h-5.43l2.71-4.7ZM151.06,50l-2.71-4.7h5.43Zm-7,.9,2.71-4.7,2.72,4.7Zm-4.28-5.6h5.43L142.52,50Z" style="fill:#fff"/><path d="M61.45,417.76A.9.9,0,1,0,62.73,419l1.93-1.93h4.62L73,423.6l-2.31,4-2.64.71a.9.9,0,1,0,.47,1.73l2.13-.57.57,2.13a.89.89,0,0,0,.87.67l.23,0a.9.9,0,0,0,.64-1.1l-.71-2.64,2.31-4H82.1l2.3,4-.7,2.64a.89.89,0,0,0,.63,1.1l.24,0a.88.88,0,0,0,.86-.67l.58-2.13,2.13.57a.9.9,0,1,0,.46-1.73L86,427.6l-2.31-4,3.76-6.5H92L94,419a.86.86,0,0,0,.63.27.91.91,0,0,0,.64-1.54l-1.56-1.56,1.56-1.56A.9.9,0,0,0,94,413.37L92,415.3H87.41l-3.76-6.5,2.31-4,2.64-.71a.9.9,0,1,0-.46-1.73l-2.13.57-.58-2.13a.9.9,0,1,0-1.73.46l.7,2.64-2.3,4H74.59l-2.31-4,.71-2.64a.9.9,0,1,0-1.74-.46l-.57,2.13-2.13-.57a.9.9,0,1,0-.47,1.73l2.64.71,2.31,4-3.75,6.5H64.66l-1.93-1.93a.91.91,0,0,0-1.28,0,.9.9,0,0,0,0,1.27L63,416.2Zm12.62-7.16,2.71,4.7H71.35Zm7-.9-2.72,4.7-2.71-4.7Zm4.27,5.6H79.9l2.71-4.7Zm-2.72,6.5-2.71-4.7h5.43Zm-7,.9,2.71-4.7,2.72,4.7Zm-4.28-5.6h5.43l-2.71,4.7Z" style="fill:#fff"/><path d="M15.55,216a.52.52,0,0,0,0,.73.51.51,0,0,0,.36.15.51.51,0,0,0,.37-.15l1.11-1.11H20l2.15,3.72-1.33,2.29-1.51.4a.52.52,0,0,0,.27,1l1.22-.33.33,1.22a.52.52,0,0,0,.49.39l.14,0a.52.52,0,0,0,.36-.63l-.4-1.51,1.32-2.29h4.3l1.32,2.29-.41,1.51a.52.52,0,0,0,.37.63l.13,0a.52.52,0,0,0,.5-.39l.32-1.22,1.22.33a.52.52,0,1,0,.27-1l-1.51-.4-1.32-2.29,2.15-3.72h2.64l1.11,1.11a.51.51,0,0,0,.72,0,.5.5,0,0,0,0-.73l-.89-.9.89-.89a.5.5,0,0,0,0-.73.51.51,0,0,0-.72,0l-1.11,1.11H30.41l-2.15-3.72,1.32-2.29,1.51-.41a.51.51,0,0,0,.37-.63.52.52,0,0,0-.64-.36l-1.22.33-.32-1.22a.52.52,0,0,0-1,.26l.41,1.51-1.32,2.29h-4.3L21.75,208l.4-1.51a.51.51,0,1,0-1-.26l-.33,1.22-1.22-.33a.52.52,0,0,0-.63.36.51.51,0,0,0,.36.63l1.51.41,1.33,2.29L20,214.57H17.39l-1.11-1.11a.52.52,0,1,0-.73.73l.89.89Zm7.22-4.1,1.55,2.69h-3.1Zm4-.52-1.55,2.69-1.56-2.69Zm2.45,3.21H26.11l1.55-2.69Zm-1.56,3.72-1.55-2.69h3.11Zm-4,.52,1.56-2.69,1.55,2.69Zm-2.44-3.21h3.1l-1.55,2.69Z" style="fill:#fff"/><path d="M278.66,86.23a.38.38,0,0,0,0,.54.39.39,0,0,0,.27.11.38.38,0,0,0,.26-.11L280,86H282l1.58,2.74-1,1.69-1.11.29a.38.38,0,0,0,.2.74l.89-.24.24.89a.39.39,0,0,0,.37.29l.1,0a.38.38,0,0,0,.27-.46l-.3-1.11,1-1.69h3.16l1,1.69L288,91.87a.37.37,0,0,0,.26.46l.1,0a.39.39,0,0,0,.37-.29l.24-.89.9.24a.38.38,0,0,0,.19-.74L289,90.38l-1-1.69L289.59,86h1.94l.82.82a.39.39,0,0,0,.27.11.38.38,0,0,0,.26-.65l-.65-.65.65-.66a.38.38,0,0,0,0-.54.37.37,0,0,0-.53,0l-.82.82h-1.94L288,82.46l1-1.69,1.11-.29a.38.38,0,0,0-.19-.74L289,80l-.24-.89a.38.38,0,0,0-.47-.27.37.37,0,0,0-.26.46l.29,1.12-1,1.68h-3.16l-1-1.68.3-1.12a.38.38,0,0,0-.27-.46.39.39,0,0,0-.47.27l-.24.89-.89-.24a.38.38,0,1,0-.2.74l1.11.29,1,1.69L282,85.2H280l-.82-.82a.37.37,0,0,0-.53,0,.38.38,0,0,0,0,.54l.66.66Zm5.31-3,1.14,2h-2.28Zm2.94-.38-1.14,2-1.14-2Zm1.8,2.36h-2.28l1.14-2Zm-1.14,2.73-1.14-2h2.28Zm-2.94.38,1.14-2,1.14,2ZM282.83,86h2.28l-1.14,2Z" style="fill:#fff"/><path d="M480.64,72.45a.4.4,0,0,0,0,.54.43.43,0,0,0,.27.11.39.39,0,0,0,.27-.11l.82-.82h1.94l1.58,2.74-1,1.68-1.11.3a.38.38,0,0,0-.27.47.37.37,0,0,0,.46.26l.9-.24.24.9a.38.38,0,0,0,.37.28h.09a.36.36,0,0,0,.27-.46L485.21,77l1-1.68h3.16l1,1.68-.3,1.12a.38.38,0,0,0,.27.46h.1a.38.38,0,0,0,.37-.28l.24-.9.89.24a.38.38,0,0,0,.47-.26.39.39,0,0,0-.27-.47l-1.11-.3-1-1.68,1.58-2.74h1.94l.81.82a.43.43,0,0,0,.27.11.39.39,0,0,0,.27-.11.38.38,0,0,0,0-.54l-.66-.66.66-.65a.38.38,0,1,0-.54-.54l-.81.81h-1.94L490,68.68,491,67l1.11-.3a.38.38,0,0,0,.27-.46.39.39,0,0,0-.47-.27l-.89.24-.24-.9a.38.38,0,0,0-.74.2l.3,1.11-1,1.69h-3.16l-1-1.69.29-1.11a.38.38,0,0,0-.73-.2l-.24.9-.9-.24a.38.38,0,0,0-.46.27.36.36,0,0,0,.27.46l1.11.3,1,1.69-1.58,2.73H482l-.82-.81a.38.38,0,0,0-.54,0,.4.4,0,0,0,0,.54l.66.65Zm5.32-3,1.14,2h-2.29Zm2.94-.38-1.14,2-1.15-2Zm1.8,2.36h-2.29l1.15-2Zm-1.14,2.74-1.15-2h2.29Zm-2.95.38,1.15-2,1.14,2Zm-1.8-2.36h2.29l-1.14,2Z" style="fill:#fff"/><path d="M551.44,426.16a.38.38,0,0,0,0,.54.39.39,0,0,0,.27.11.38.38,0,0,0,.26-.11l.82-.82h1.94l1.58,2.74-1,1.68-1.11.3a.39.39,0,0,0-.27.47.37.37,0,0,0,.46.26l.9-.24.24.9a.38.38,0,0,0,.37.28h.1a.39.39,0,0,0,.27-.47l-.3-1.11,1-1.68h3.16l1,1.68-.29,1.11a.38.38,0,0,0,.26.47h.1a.38.38,0,0,0,.37-.28l.24-.9.9.24a.37.37,0,0,0,.46-.26.38.38,0,0,0-.27-.47l-1.11-.3-1-1.68,1.58-2.74h1.94l.82.82a.39.39,0,0,0,.27.11.38.38,0,0,0,.26-.65l-.65-.66.65-.66a.37.37,0,0,0-.53-.53l-.82.81h-1.94l-1.58-2.74,1-1.68,1.11-.3a.36.36,0,0,0,.27-.46.38.38,0,0,0-.46-.27l-.9.24-.24-.9a.38.38,0,0,0-.47-.26.37.37,0,0,0-.26.46l.29,1.11-1,1.69H557l-1-1.69.3-1.11a.38.38,0,0,0-.74-.2l-.24.9-.9-.24a.38.38,0,0,0-.46.27.38.38,0,0,0,.27.46l1.11.3,1,1.68-1.58,2.74h-1.94l-.82-.81a.37.37,0,0,0-.53.53l.66.66Zm5.31-3,1.14,2h-2.28Zm2.94-.38-1.14,2-1.14-2Zm1.8,2.36h-2.28l1.14-2Zm-1.14,2.74-1.14-2h2.28Zm-2.94.38,1.14-2,1.14,2Zm-1.8-2.36h2.28l-1.14,2Z" style="fill:#fff"/><path d="M106.53,278.48a.37.37,0,0,0,0,.53.35.35,0,0,0,.27.11.34.34,0,0,0,.26-.11l.82-.81h1.94l1.58,2.74-1,1.68-1.11.3a.38.38,0,0,0-.27.46.38.38,0,0,0,.46.27l.9-.24.24.9a.38.38,0,0,0,.37.28h.1a.38.38,0,0,0,.26-.47l-.29-1.11,1-1.68h3.16l1,1.68-.29,1.11a.38.38,0,0,0,.26.47h.1a.38.38,0,0,0,.37-.28l.24-.9.9.24a.38.38,0,0,0,.19-.73l-1.11-.3-1-1.68,1.58-2.74h1.94l.82.81a.34.34,0,0,0,.26.11.35.35,0,0,0,.27-.11.37.37,0,0,0,0-.53l-.65-.66.65-.66a.37.37,0,1,0-.53-.53l-.82.81h-1.94l-1.58-2.74,1-1.68,1.11-.3a.38.38,0,0,0,.27-.46.36.36,0,0,0-.46-.27l-.9.24-.24-.9a.4.4,0,0,0-.47-.27.38.38,0,0,0-.26.47l.29,1.11-1,1.68h-3.16l-1-1.68.29-1.11a.38.38,0,0,0-.26-.47.4.4,0,0,0-.47.27l-.24.9-.9-.24a.36.36,0,0,0-.46.27.38.38,0,0,0,.27.46l1.11.3,1,1.68-1.58,2.74h-1.94l-.82-.81a.37.37,0,1,0-.53.53l.65.66Zm5.31-3,1.14,2H110.7Zm2.94-.38-1.14,2-1.14-2Zm1.8,2.36H114.3l1.14-2Zm-1.14,2.74-1.14-2h2.28Zm-2.94.38,1.14-2,1.14,2Zm-1.8-2.36H113l-1.14,2Z" style="fill:#fff"/></g><path d="M116.27,98.58A8.76,8.76,0,0,1,108,95.64L94.8,80.13,88,99.31a8.77,8.77,0,0,1-16.19.82,8.66,8.66,0,0,1-.34-6.7l6.77-19L75.7,60.76,57.38,56.48a8.78,8.78,0,0,1,4-17.09l13.5,3.16a15.31,15.31,0,1,1,25.2-4.63l11.5-7.74a8.77,8.77,0,0,1,12.17,2.38h0a8.75,8.75,0,0,1-2.38,12.17l-15.6,10.51,2.51,13.66,13.08,15.37a8.78,8.78,0,0,1-5.09,14.31Z" style="fill:#8b5e3c"/><path d="M116.27,98.58A8.76,8.76,0,0,1,108,95.64L94.8,80.13,88,99.31a8.77,8.77,0,0,1-16.19.82,8.66,8.66,0,0,1-.34-6.7l6.77-19L75.7,60.76,57.38,56.48a8.78,8.78,0,0,1,4-17.09l13.5,3.16a15.31,15.31,0,1,1,25.2-4.63l11.5-7.74a8.77,8.77,0,0,1,12.17,2.38h0a8.75,8.75,0,0,1-2.38,12.17l-15.6,10.51,2.51,13.66,13.08,15.37a8.78,8.78,0,0,1-5.09,14.31ZM93.57,73.46a2.28,2.28,0,0,1,2.13.76l15.73,18.49a4.27,4.27,0,0,0,2.91,1.49,4.28,4.28,0,0,0,4.58-3.91,4.27,4.27,0,0,0-1-3.1L104.45,71.36a2.18,2.18,0,0,1-.5-1L101.06,54.6a2.27,2.27,0,0,1,1-2.28L118.85,41a4.25,4.25,0,1,0-4.75-7.06L99.75,43.59a2.43,2.43,0,0,1-.85.35l-4.9.9a2.26,2.26,0,0,1-1.73-4.06,10.78,10.78,0,1,0-9.08,1.67,2.26,2.26,0,0,1-.17,4.4l-4.9.9a2.24,2.24,0,0,1-.93,0L60.35,43.79A4.26,4.26,0,0,0,55.24,47a4.26,4.26,0,0,0,3.17,5.11L78.17,56.7a2.28,2.28,0,0,1,1.71,1.79L82.76,74.2a2.18,2.18,0,0,1-.1,1.16l-7,19.58a4.26,4.26,0,1,0,8,2.86l8.15-22.87A2.26,2.26,0,0,1,93.57,73.46Z" style="fill:#754c29"/><path d="M61.64,57.14a2.25,2.25,0,0,1-2.12-3.69A11.17,11.17,0,0,0,61.77,43a2.26,2.26,0,0,1,4.33-1.27,15.6,15.6,0,0,1,.37,7.31A15.78,15.78,0,0,1,63,56.39,2.28,2.28,0,0,1,61.64,57.14Z" style="fill:#fff"/><path d="M117.63,46.87a2.21,2.21,0,0,1-1.48-.24,15.69,15.69,0,0,1-5.9-5.6,15.93,15.93,0,0,1-2.26-7,2.26,2.26,0,1,1,4.5-.35,11.34,11.34,0,0,0,1.61,5,11.15,11.15,0,0,0,4.21,4,2.26,2.26,0,0,1-.68,4.21Z" style="fill:#fff"/><path d="M87.76,96.73a2.26,2.26,0,0,1-2-.61,11.18,11.18,0,0,0-5-2.87,11.37,11.37,0,0,0-5.21-.1,2.26,2.26,0,1,1-1-4.41A15.68,15.68,0,0,1,88.93,92.9a2.26,2.26,0,0,1,0,3.2A2.2,2.2,0,0,1,87.76,96.73Z" style="fill:#fff"/><path d="M107.28,93.15A2.26,2.26,0,0,1,104.82,90a15.72,15.72,0,0,1,12-9,2.26,2.26,0,0,1,.67,4.47,11.51,11.51,0,0,0-4.84,1.94,11.35,11.35,0,0,0-3.7,4.48A2.26,2.26,0,0,1,107.28,93.15Z" style="fill:#fff"/><path d="M90.89,53l-2.08.39A2.26,2.26,0,0,1,88,48.93l2.08-.38A2.26,2.26,0,1,1,90.89,53Z" style="fill:#fff"/><path d="M92.17,60l-2.08.38a2.26,2.26,0,0,1-.81-4.44l2.08-.38A2.26,2.26,0,1,1,92.17,60Z" style="fill:#fff"/><path d="M93.45,66.94l-2.08.38a2.26,2.26,0,1,1-.81-4.44l2.08-.38a2.26,2.26,0,0,1,.81,4.44Z" style="fill:#fff"/><path d="M87.58,40.81a8.86,8.86,0,0,1-6.67-1.42,2.26,2.26,0,1,1,2.56-3.72,4.41,4.41,0,0,0,6.13-1.13,2.26,2.26,0,0,1,3.72,2.57A8.91,8.91,0,0,1,87.58,40.81Z" style="fill:#fff"/><path d="M83.68,29.19a2.81,2.81,0,1,1-3.27-2.25A2.81,2.81,0,0,1,83.68,29.19Z" style="fill:#fff"/><path d="M87.11,28.56a2.81,2.81,0,1,0,2.25-3.27A2.8,2.8,0,0,0,87.11,28.56Z" style="fill:#fff"/><path d="M586.67,438.94c-.27,1.64-4.92,2.77-10.73,1.8s-9.85-3.52-9.57-5.17,4.92-2.77,10.73-1.8S587,437.29,586.67,438.94Z" style="fill:#e0ce2f"/><path d="M576.19,439.23a2.88,2.88,0,0,0,3.31-2.37,17.46,17.46,0,0,0,0-3.69.8.8,0,0,0-1.59.17,15.5,15.5,0,0,1,0,3.26,1.28,1.28,0,1,1-2.52-.42,16.14,16.14,0,0,1,1.09-3.07.79.79,0,0,0-.38-1.06.81.81,0,0,0-1.07.39,17.47,17.47,0,0,0-1.22,3.48A2.88,2.88,0,0,0,576.19,439.23Z" style="fill:#fff383"/><path d="M586.46,435.72a2.47,2.47,0,0,1-.6-2.05L587,427a8.63,8.63,0,1,0-17-2.82l-1.12,6.71a2.45,2.45,0,0,1-1.22,1.74c-1.55.57-2.61,1.46-2.82,2.72-.55,3.29,5.2,6.07,10.89,7s12,.17,12.57-3.12C588.46,437.94,587.74,436.75,586.46,435.72Zm.21,3.22c-.27,1.64-4.92,2.77-10.73,1.8s-9.85-3.52-9.57-5.17,4.92-2.77,10.73-1.8S587,437.29,586.67,438.94Z" style="fill:#f9ed32"/><path d="M578.16,418.37a.74.74,0,0,0,.21,0,.8.8,0,0,0,.71-.88,15.61,15.61,0,0,1,0-3.27,1.28,1.28,0,0,1,2.52.42,15.9,15.9,0,0,1-1.09,3.07.8.8,0,0,0,.38,1.07.82.82,0,0,0,1.07-.39,17.73,17.73,0,0,0,1.22-3.49,2.88,2.88,0,1,0-5.68-.94,17.56,17.56,0,0,0,0,3.7A.81.81,0,0,0,578.16,418.37Z" style="fill:#e0ce2f"/><path d="M582.69,430.64a.81.81,0,0,0,.92-.66l0-.3a.8.8,0,0,0-1.58-.26l-.05.3A.81.81,0,0,0,582.69,430.64Z" style="fill:#fff383"/><path d="M583.14,427.9a.8.8,0,0,0,.92-.66l.08-.51a5.82,5.82,0,0,0-2.48-5.76.8.8,0,1,0-.89,1.33,4.23,4.23,0,0,1,1.8,4.17l-.09.51A.81.81,0,0,0,583.14,427.9Z" style="fill:#fff383"/><path d="M589.07,421.62l-7.5-3.34a.79.79,0,0,1-.47-.86l.4-2.38a.81.81,0,0,1,.71-.67l8.26-.74a2.34,2.34,0,0,1,1.66,4,.75.75,0,0,0-.14.83,2.33,2.33,0,0,1-2.5,3.3A2.17,2.17,0,0,1,589.07,421.62Zm-7.19-4.07h0Z" style="fill:#be1e2d"/><path d="M567.47,417a2.29,2.29,0,0,1,.47-2.52.77.77,0,0,0,.14-.84,2.34,2.34,0,0,1,2.93-3.19l7.5,3.34a.8.8,0,0,1,.46.86l-.39,2.38a.81.81,0,0,1-.72.67l-8.26.75-.37,0A2.29,2.29,0,0,1,567.47,417Z" style="fill:#be1e2d"/><path d="M22.69,433.77c5.81-1,10.46.15,10.73,1.8s-3.76,4.21-9.57,5.17-10.46-.16-10.73-1.8S16.88,434.73,22.69,433.77Z" style="fill:#e0ce2f"/><path d="M23.6,439.23a2.87,2.87,0,0,1-3.31-2.37,16.8,16.8,0,0,1,0-3.69.8.8,0,1,1,1.59.17,16.47,16.47,0,0,0-.05,3.26,1.28,1.28,0,1,0,2.53-.42,16.39,16.39,0,0,0-1.1-3.07.81.81,0,0,1,.39-1.06.79.79,0,0,1,1.06.39A17.65,17.65,0,0,1,26,435.92,2.88,2.88,0,0,1,23.6,439.23Z" style="fill:#fff383"/><path d="M11.54,439.2c.54,3.29,6.88,4.06,12.57,3.12s11.43-3.72,10.89-7c-.21-1.26-1.27-2.15-2.82-2.72A2.42,2.42,0,0,1,31,430.85l-1.12-6.71a8.63,8.63,0,1,0-17,2.82l1.12,6.71a2.47,2.47,0,0,1-.6,2.05C12.05,436.75,11.33,437.94,11.54,439.2Zm11.15-5.43c5.81-1,10.46.15,10.73,1.8s-3.76,4.21-9.57,5.17-10.46-.16-10.73-1.8S16.88,434.73,22.69,433.77Z" style="fill:#f9ed32"/><path d="M21.63,418.37a.79.79,0,0,1-.22,0,.81.81,0,0,1-.71-.88,15.81,15.81,0,0,0,.05-3.27,1.28,1.28,0,1,0-2.52.42,15.23,15.23,0,0,0,1.09,3.07.8.8,0,1,1-1.45.68,17.08,17.08,0,0,1-1.22-3.49,2.88,2.88,0,0,1,5.68-.94,17.71,17.71,0,0,1,0,3.7A.8.8,0,0,1,21.63,418.37Z" style="fill:#e0ce2f"/><path d="M17.1,430.64a.81.81,0,0,1-.92-.66l-.05-.3a.8.8,0,0,1,1.58-.26l.05.3A.81.81,0,0,1,17.1,430.64Z" style="fill:#fff383"/><path d="M16.65,427.9a.8.8,0,0,1-.92-.66l-.09-.51A5.84,5.84,0,0,1,18.12,421a.8.8,0,0,1,.9,1.33,4.21,4.21,0,0,0-1.8,4.17l.08.51A.8.8,0,0,1,16.65,427.9Z" style="fill:#fff383"/><path d="M10.3,421.73A2.28,2.28,0,0,1,8.16,421a2.32,2.32,0,0,1-.37-2.55.73.73,0,0,0-.14-.83,2.35,2.35,0,0,1,1.66-4l8.26.74a.81.81,0,0,1,.72.67l.39,2.38a.8.8,0,0,1-.46.86l-7.5,3.34A2.17,2.17,0,0,1,10.3,421.73Zm7.6-4.18Z" style="fill:#be1e2d"/><path d="M30.55,418.38l-.36,0-8.26-.75a.8.8,0,0,1-.72-.67l-.39-2.38a.8.8,0,0,1,.46-.86l7.5-3.34a2.34,2.34,0,0,1,2.93,3.19.75.75,0,0,0,.14.84,2.34,2.34,0,0,1-1.3,3.93Z" style="fill:#be1e2d"/><path d="M538.53,71.66a2.09,2.09,0,0,0-1.89-1.17l-4,0a21.05,21.05,0,0,0,.49-5.7A17.64,17.64,0,0,0,528.58,55a2.08,2.08,0,0,0-2.08-.54,17.8,17.8,0,0,0-8.72,6.45,21.54,21.54,0,0,0-2.31,5.24L512,64.2a2.09,2.09,0,0,0-2.22.12c-.27.19-6.72,4.87-3.92,14.52a2.06,2.06,0,0,0,2,1.48l.07.52,12.7,8.34,11.85-2.55h0a2.11,2.11,0,0,0,.54.22,2.07,2.07,0,0,0,2-.55C542.09,79.16,538.68,72,538.53,71.66Z" style="fill:#006838;stroke:#39b54a;stroke-miterlimit:10;stroke-width:3px"/><path d="M547.29,118.13a21.33,21.33,0,0,0-3.24-4.71l3.46-2a2.08,2.08,0,0,0,1.06-1.95c0-.33-.62-8.28-10.31-11h0a2.09,2.09,0,0,0-2.53,1.47,2.28,2.28,0,0,0-.06.82L523,105.17l-5.21,10.91.26.91a2.08,2.08,0,0,0-1.47,2.48c1.85,7.68,7.13,9.86,9.48,10.46a7.07,7.07,0,0,0,1.13.21,2.1,2.1,0,0,0,2-1l2.07-3.4a21.19,21.19,0,0,0,4.6,3.41,17.72,17.72,0,0,0,10.77,1.28,2.11,2.11,0,0,0,1.55-1.5A17.76,17.76,0,0,0,547.29,118.13Z" style="fill:#006838;stroke:#39b54a;stroke-miterlimit:10;stroke-width:3px"/><path d="M505.93,113.83a2.08,2.08,0,0,0-.49-.3l1.15-13.83-7.92-9.14a2.1,2.1,0,0,0-1.51-2.51h-.05c-9.78-2.29-14.12,4.4-14.3,4.69a2.1,2.1,0,0,0,0,2.21l2.1,3.38a21.15,21.15,0,0,0-5.11,2.58,17.65,17.65,0,0,0-6,9,2.08,2.08,0,0,0,.64,2,17.64,17.64,0,0,0,10.07,4,21.07,21.07,0,0,0,5.67-.78l.19,4a2.07,2.07,0,0,0,1.26,1.82,7.79,7.79,0,0,0,1.1.35c2.34.6,8,1.22,13.33-4.63A2.09,2.09,0,0,0,505.93,113.83Z" style="fill:#006838;stroke:#39b54a;stroke-miterlimit:10;stroke-width:3px"/><path d="M505.34,100.7a12.22,12.22,0,1,1,14.87-8.82A12.25,12.25,0,0,1,505.34,100.7Z" style="fill:#be1e2d"/><path d="M505.12,88.23a2,2,0,0,1-1.28-1,2.08,2.08,0,0,1,.72-2.86l.46-.27a2.09,2.09,0,0,1,2.14,3.59l-.46.27A2.06,2.06,0,0,1,505.12,88.23Z" style="fill:#ed1c24"/><path d="M525,105.71a12.23,12.23,0,1,1,9.26-1.33h0A12.24,12.24,0,0,1,525,105.71Zm8.2-3.12h0Z" style="fill:#be1e2d"/><path d="M527.94,92.22l-.51-.13a2.09,2.09,0,0,1,1-4l.52.13a2.09,2.09,0,1,1-1,4Z" style="fill:#ed1c24"/><path d="M510.84,120.14a12.22,12.22,0,1,1,14.87-8.82A12.24,12.24,0,0,1,510.84,120.14Z" style="fill:#be1e2d"/><path d="M516.26,108a2,2,0,0,1-1.28-1l-.27-.45a2.09,2.09,0,0,1,3.6-2.13l.27.45a2.09,2.09,0,0,1-2.32,3.09Z" style="fill:#ed1c24"/></svg>