<svg width="492" height="169" viewBox="0 0 492 169" fill="none" xmlns="http://www.w3.org/2000/svg">
<path opacity="0.4" d="M457.008 95.8454C457.008 95.8454 446.462 72.6966 457.807 52.3652C463.479 42.1995 474.253 34.3716 485.185 30.8037C485.185 30.8037 445.705 47.7606 457.008 95.8454Z" fill="white"/>
<path d="M7.83415 22.1985L6.8954 57.2874C10.1363 60.7364 9.55468 59.0508 9.43486 65.1085C4.06585 69.4995 5.22243 68.0594 3.62882 71.6888C4.339 118.536 1.10891 110.741 7.39484 117.025C12.9951 118.834 12.7762 117.601 9.83023 122.056C7.35497 153.036 5.42601 147.675 16.2242 154.412C4.33462 160.133 6.12981 157.272 9.49867 168.788C176.446 138.445 372.177 139.119 482.863 149.267C479.506 105.622 477.226 100.12 477.226 100.12C472.978 97.4844 472.834 98.2658 477.254 96.2384C475.524 77.6775 475.197 82.8117 478.769 71.9688C478.769 71.9688 474.57 52.1031 472.682 52.484C470.795 52.8648 480.101 52.052 480.101 52.052C478.522 42.1774 482.655 41.7128 487.201 38.439L481.623 0.154514L7.83415 22.1985Z" fill="#DE993E"/>
<path d="M478.549 70.7095C478.549 70.7095 476.041 59.111 474.108 53.653C473.377 52.5743 473.008 51.956 472.449 50.8709C463.258 59.4298 458.577 63.7125 449.375 71.9558C449.344 75.749 449.241 77.6489 449.21 81.4421C458.055 86.8002 462.477 89.4792 471.501 94.9887C473.757 95.2205 474.972 95.3332 477.222 95.4072C476.641 89.1088 476.351 85.9597 475.77 79.6613C476.671 75.9936 477.297 74.2323 478.549 70.7095Z" fill="#BC905C"/>
<path d="M66.8424 144.054C63.6521 141.961 62.0569 140.915 58.8667 138.822C50.2886 135.982 45.9132 134.565 37.3352 131.725C27.9664 126.228 23.1928 123.404 13.8123 117.592C12.1445 119.234 11.3107 120.055 9.81557 121.691C9.00719 132.465 8.52256 138.014 7.71417 148.788C11.083 151.032 12.8508 152.072 16.2196 154.317C35.8205 151.373 45.4541 150.066 65.2394 147.432C65.7044 145.993 66.0262 145.349 66.8424 144.054Z" fill="#BC905C"/>
<path d="M480.524 3.16925C481.369 16.5678 481.789 23.1882 482.635 36.5868C482.635 36.5868 479.943 38.5833 478.585 39.2659C477.227 39.9486 478.403 48.2788 478.403 48.2788C425.979 51.9724 373.37 55.3569 320.929 58.5772C370.983 56.236 426.679 56.8443 471.072 51.0803C472.793 50.8581 473.713 70.8899 473.713 70.8899C472.634 74.4062 472.181 76.1612 471.28 79.8288C464.564 80.5533 461.123 80.9977 454.407 81.7222C461.325 81.7802 464.784 81.8091 471.708 82.0249C471.557 87.2445 471.484 89.9333 471.333 95.153C470.666 95.8098 470.338 96.2961 469.499 96.9594C439.95 97.4297 410.581 98.0513 381.044 98.8371C412.503 98.6115 444.153 98.8529 475.642 99.4163C476.258 106.661 476.566 110.284 477.182 117.529C474.086 117.96 472.365 118.183 469.275 118.772C472.919 119.11 474.657 119.361 478.128 119.706C478.642 128.851 478.985 133.42 479.493 142.407C477.975 143.412 477.302 143.911 475.783 144.915C311.892 134.075 167.92 140.799 19.4899 163.201C16.537 162.837 14.9772 162.737 12.0302 162.531C11.5966 160.177 11.3828 159.079 10.9492 156.725C12.9916 155.859 14.0099 155.347 16.0524 154.481C19.1544 154.207 20.881 154.143 23.9889 154.027C40.3151 151.364 48.5674 150.108 65.0781 147.754C47.6747 149.351 38.8926 150.311 21.6737 152.217C18.1675 150.926 16.59 150.353 13.0839 149.062C12.3207 137.872 11.942 132.356 11.1788 121.167C12.1676 119.866 12.8289 119.051 13.8177 117.75C46.3386 113.535 78.8772 109.793 111.612 106.676C77.4724 109.213 43.5172 112.06 9.56795 115.065C8.14547 114.012 7.60394 113.4 6.17558 112.189C5.57128 105.26 5.26913 101.795 4.66483 94.8653C8.27303 94.2567 9.98786 93.8767 13.4234 93.2745C9.619 93.2584 7.8924 93.3229 4.08799 93.3068C3.91339 83.9912 3.91536 79.4091 3.74664 70.2513C4.22342 69.1275 4.5452 68.4835 5.02197 67.3597C46.6448 66.123 88.2617 64.7285 130.051 63.3276C90.471 63.6981 51.0574 63.9044 11.4653 63.9593C11.3712 61.4348 11.3241 60.1725 11.2299 57.648C13.4509 56.9332 14.4751 56.5789 16.702 56.0219C14.4457 55.79 13.2312 55.6773 11.1475 55.4391C11.2005 42.955 11.3104 36.6308 11.3634 24.1467C68.0017 22.1919 475.677 3.03403 480.524 3.16925Z" fill="#FFD261"/>
<mask id="mask0" mask-type="alpha" maskUnits="userSpaceOnUse" x="1" y="4" width="486" height="162">
<path d="M480.582 4.74689C481.428 18.1455 481.848 24.7659 482.693 38.1645C482.693 38.1645 480.001 40.1609 478.644 40.8435C477.286 41.5262 478.461 49.8564 478.461 49.8564C426.037 53.5501 373.429 56.9346 320.987 60.1548C371.041 57.8136 426.738 58.422 471.131 52.6579C472.852 52.4357 473.772 72.4676 473.772 72.4676C472.693 75.9839 472.239 77.7388 471.339 81.4064C464.623 82.131 461.181 82.5753 454.465 83.2999C461.383 83.3578 464.843 83.3868 471.767 83.6025C471.615 88.8222 471.543 91.5109 471.392 96.7306C470.725 97.3875 470.397 97.8737 469.557 98.537C440.009 99.0073 410.639 99.6289 381.102 100.415C412.562 100.189 444.212 100.431 475.7 100.994C476.317 108.239 476.625 111.862 477.241 119.107C474.145 119.538 472.424 119.76 469.334 120.35C472.977 120.688 474.715 120.939 478.186 121.283C478.7 130.428 479.044 134.998 479.552 143.985C478.033 144.989 477.36 145.488 475.842 146.493C312.8 133.608 168.932 140.789 19.5485 164.779C16.5956 164.415 15.0358 164.315 12.0888 164.109C11.6552 161.755 11.4414 160.657 11.0077 158.303C13.0502 157.437 14.0685 156.925 16.111 156.059C19.213 155.785 20.9396 155.721 24.0475 155.605C40.3737 152.942 48.626 151.686 65.1367 149.332C47.7333 150.929 38.9512 151.889 21.7323 153.795C18.2261 152.504 16.6486 151.931 13.1425 150.639C12.3793 139.45 12.0006 133.934 11.2374 122.744C12.2262 121.443 12.8875 120.629 13.8763 119.328C46.3972 115.112 78.9358 111.371 111.671 108.254C77.531 110.791 43.5758 113.638 9.62654 116.642C8.20406 115.589 7.66254 114.977 6.23417 113.767C5.62987 106.837 5.32772 103.372 4.72343 96.4429C8.33163 95.8343 10.0465 95.4543 13.482 94.8522C9.67759 94.8361 7.95099 94.9005 4.14659 94.8844C3.97198 85.5688 3.97395 80.9867 3.80523 71.8289C4.28201 70.7051 4.60379 70.0611 5.08057 68.9373C46.7034 67.7006 88.3203 66.3062 130.11 64.9053C90.5296 65.2757 51.116 65.482 11.5239 65.5369C11.4298 63.0124 11.3827 61.7502 11.2885 59.2256C13.5095 58.5108 14.5337 58.1566 16.7606 57.5995C14.5043 57.3677 13.2898 57.255 11.2061 57.0167C11.2591 44.5326 11.369 38.2084 11.422 25.7243C68.0603 23.7695 475.736 4.61167 480.582 4.74689Z" fill="url(#paint0_linear)"/>
</mask>
<g mask="url(#mask0)">
<g opacity="0.1">
<path d="M-5.9666 148.192C48.904 131.293 106.337 122.831 164.912 117.169C238.722 112.046 313.917 111.611 387.253 116.933C386.586 117.59 386.252 117.919 385.591 118.733C268.263 116 130.708 117.971 21.2509 154.761C21.2509 154.761 -8.5781 156.98 -5.9666 148.192Z" fill="#C17C2B"/>
<path d="M152.325 159.825C217.901 142.527 289.154 129.125 358.634 128.429C388.552 128.577 418.302 128.889 448.058 129.359C392.576 129.849 333.087 129.54 278.648 139.471C262.053 144.198 251.34 149.022 251.34 149.022C218.266 152.309 185.435 157.484 152.325 159.825Z" fill="#C17C2B"/>
<path d="M313.34 151.765C313.34 151.765 357.08 142.391 384.194 141.538C419.756 140.053 455.318 138.568 491.07 137.551C492.573 145.395 493.411 149.314 494.914 157.158C434.611 153.561 373.644 155.361 313.34 151.765Z" fill="#C17C2B"/>
<path d="M207.667 72.1241C180.428 74.2462 158.111 78.5547 157.884 81.7232C157.656 84.8918 179.637 85.4938 206.876 83.3717C233.77 81.2624 255.747 77.1246 255.974 73.9561C256.208 70.9453 234.566 70.1726 207.667 72.1241ZM224.686 78.7573C213.308 79.6557 203.966 79.5302 204.092 78.2615C204.223 77.1506 213.494 75.3827 225.045 74.4778C236.423 73.5794 245.597 73.8692 245.466 74.9801C245.34 76.2488 236.064 77.8588 224.686 78.7573Z" fill="#C17C2B"/>
<path d="M490.851 66.7743C452.628 66.4621 414.256 66.7875 376.171 65.5222C328.007 62.8949 279.331 60.4447 230.956 61.4592C189.893 63.781 147.148 72.0117 109.021 83.546C92.1397 89.8638 95.0415 98.1296 123.215 97.8687C170.72 96.7286 220.887 92.8031 266.883 83.6612C268.253 83.2941 292.92 81.742 301.792 78.5669C310.492 75.3984 322.639 71.9432 326.247 71.3346C355.784 70.5488 385.2 71.1895 414.468 72.4677C443.051 73.9295 488.669 73.1758 488.669 73.1758C489.783 70.6062 490.082 69.331 490.851 66.7743ZM309.893 68.6267C305.791 69.8857 291.448 70.1047 284.381 70.6844C277.314 71.264 281.402 74.2715 283.182 75.6271C284.956 76.825 278.942 77.8393 273.625 78.9857C268.308 80.132 258.853 81.5908 250.624 83.4777C245.825 84.6048 232.226 86.2181 211.173 87.3194C189.953 88.585 126.242 90.9617 133.8 84.9917C141.536 79.173 170.206 73.6795 199.411 68.64C230.884 64.1479 263.379 63.8837 295.231 64.9076C310.133 65.7737 314.002 67.5254 309.893 68.6267Z" fill="#C17C2B"/>
<path d="M516.73 125.533C472.223 118.978 427.084 114.025 381.706 111.926C345.52 110.59 328.178 109.183 328.178 109.183C373.997 109.212 419.703 110.825 465.368 111.333C479.704 110.957 517.55 115.075 525.283 118.42C533.366 121.911 516.73 125.533 516.73 125.533Z" fill="#C17C2B"/>
<path d="M39.5979 173.827C84.5778 160.615 131.367 149.547 178.636 142.096C216.29 136.425 233.807 133.244 233.807 133.244C185.413 138.367 137.614 145.522 89.6419 152.684C74.3222 154.519 35.2736 164.508 27.9964 168.729C20.9036 173.26 39.5979 173.827 39.5979 173.827Z" fill="#C17C2B"/>
<path d="M13.2026 124.409C46.5927 120.319 79.5904 114.98 113.183 111.673C166.744 106.041 220.134 100.415 273.909 95.8812C218.998 97.7716 163.943 100.457 109.298 104.866C76.8318 105.919 38.8642 107.809 13.2026 124.409Z" fill="#C17C2B"/>
<path d="M15.7337 108.83C15.7337 108.83 43.9185 94.9807 71.2969 87.3233C98.3299 79.6788 120.23 73.4898 123.856 73.3545C127.482 73.2193 60.4448 83.7781 43.9087 90.083C27.3726 96.3879 3.20211 106.612 3.20211 106.612C3.20211 106.612 9.37469 109.857 15.7337 108.83Z" fill="#C17C2B"/>
<path d="M489.585 32.8512C469.243 29.818 433.622 29.7248 431.038 29.9792C428.46 30.3914 352.187 29.7606 352.187 29.7606C297.762 35.4249 242.564 38.906 188.555 46.4508C168.983 50.1829 144.632 50.9333 105.69 49.858C64.8477 48.8535 23.8684 48.8022 -16.9558 48.271C-16.9558 48.271 -26.4659 52.8918 -20.8388 64.69C-15.2116 76.4882 -14.317 86.567 -3.64932 89.8031C25.7421 80.4906 55.6869 72.1054 86.3929 65.5879C116.122 60.6869 146.802 58.1204 177.19 56.9868C216.235 56.1623 255.423 54.5424 294.444 53.0868C340.234 52.3267 386.346 50.9225 432.052 52.5356C459.605 54.1938 502.847 54.6347 502.847 54.6347C504.187 53.4787 504.854 52.8218 506.367 51.6594C508.768 46.5137 509.877 43.7864 512.272 38.4829C512.1 38.4894 509.755 35.8908 489.585 32.8512ZM371.125 46.1183C328.235 45.8222 285.075 47.5902 242.238 48.7142C271.847 45.2397 301.445 41.4496 331.072 38.4483C351.065 36.7545 381.392 38.6252 410.446 38.8054C439.155 38.9985 495.98 46.6748 495.98 46.6748C454.31 46.6492 412.652 46.9392 371.125 46.1183Z" fill="#C17C2B"/>
<path d="M207.361 105.632C297.301 97.2207 396.304 86.1014 486.171 94.2831C484.319 95.6162 483.307 96.286 481.454 97.6191C441.815 96.4118 401.491 95.388 361.636 97.6647C310.225 100.689 258.76 102.292 207.361 105.632Z" fill="#C17C2B"/>
<path d="M319.804 88.6392C377.835 86.9484 436.967 86.9545 494.675 90.4899C498.045 88.1521 499.731 86.9832 503.274 84.639C503.274 84.639 462.903 82.353 441.517 83.7828C400.96 85.7697 360.367 86.81 319.804 88.6392Z" fill="#C17C2B"/>
</g>
<g opacity="0.1">
<path d="M474.001 78.621C474.001 78.621 473.248 58.4249 471.36 58.8113C470.676 58.9949 451.522 60.0254 427.016 61.2555C429.642 62.1056 435.726 62.9847 439.191 63.1714C445.948 63.5513 459.378 66.6844 459.508 70.1556C459.637 73.6268 455.907 80.244 455.387 84.8454C454.867 89.4469 450.722 94.1836 453.835 94.2254C456.777 94.2737 464.385 94.3059 455.876 97.9413C447.539 101.57 396.353 106.008 393.246 106.124C423.991 105.293 439.363 104.877 469.781 104.533C470.448 103.876 470.776 103.39 471.615 102.726C471.767 97.5066 471.839 94.8178 471.99 89.5981C465.072 89.5402 461.613 89.5112 454.689 89.2955C461.405 88.571 464.846 88.1266 471.563 87.4021C472.475 84.05 472.928 82.2951 474.001 78.621Z" fill="#D7A456"/>
<path d="M100.318 160.817C140.96 156.457 181.994 153.347 223.069 151.34C308.161 147.376 391.686 147.736 476.244 152.64C477.762 151.635 478.435 151.136 479.954 150.132C479.44 140.987 479.097 136.417 478.589 127.43C474.945 127.092 473.207 126.841 469.736 126.497C472.832 126.065 474.553 125.843 477.643 125.254C477.027 118.009 476.719 114.386 476.103 107.141C445.477 106.545 430.087 106.487 399.312 106.529C414.381 107.231 452.323 109.292 455.531 111.858C459.459 115.188 464.548 131.114 462.052 133.735C450.926 146 360.723 142.729 318.968 145.077C245.813 149.228 172.814 152.899 100.318 160.817Z" fill="#D7A456"/>
<path d="M468.541 11.042C455.115 12.6489 448.232 13.5377 434.8 14.9867C444.278 14.1592 451.53 13.8886 454.31 14.2589C465.955 15.8786 468.712 15.6177 466.995 20.5798C465.278 25.5419 463.667 33.3441 463.803 36.9731C463.938 40.602 464.199 42.9623 462.28 47.1419C461.798 48.108 461.815 48.5813 461.994 48.7326C461.13 48.7649 459.243 49.1513 454.634 50.7452C441.838 55.3306 443.17 58.5989 430.411 59.5489C449.725 58.1964 459.388 57.6779 478.697 56.1676C478.697 56.1676 477.521 47.8374 478.879 47.1548C480.237 46.4721 482.929 44.4757 482.929 44.4757C482.083 31.0771 481.663 24.4567 480.818 11.0581C475.971 10.9229 473.554 11.013 468.541 11.042Z" fill="#D7A456"/>
<path d="M68.1248 164.546C68.2916 164.382 68.2974 164.54 68.1248 164.546V164.546Z" fill="#D7A456"/>
</g>
<path d="M13.8062 117.434C12.0384 116.394 11.1515 115.795 9.55641 114.749C42.2912 111.632 75.0436 108.988 107.808 106.66C76.2816 109.732 44.9517 113.428 13.8062 117.434Z" fill="#BC905C"/>
<path d="M4.83752 67.0504C45.2517 65.8588 85.8327 64.503 126.241 63.1536C87.8693 63.479 49.4917 63.6466 11.1082 63.6564C10.4117 63.5244 9.88783 63.3859 9.19131 63.2539C7.51768 64.7384 6.68381 65.5595 4.83752 67.0504Z" fill="#FFD261"/>
</g>
<path d="M6.16402 111.873C7.59239 113.084 8.12803 113.538 9.55639 114.749C42.2912 111.632 75.0436 108.988 107.808 106.66C75.8774 108.167 43.9648 110.147 12.2366 112.437C12.2366 112.437 9.91546 110.469 8.67741 109.726C7.44524 109.139 5.91487 95.9244 5.91487 95.9244C8.80889 94.7105 10.3452 94.1791 13.2392 92.9652C9.63099 93.5738 7.91616 93.9537 4.48062 94.5559C5.08492 101.485 5.38707 104.95 6.16402 111.873Z" fill="#FFD261"/>
<path d="M461.531 3.87751C467.127 5.56479 469.925 6.40843 475.521 8.0957C475.521 8.0957 478.946 30.4041 478.475 31.6857C478.005 32.9673 476.437 37.2918 475.627 38.744C474.816 40.1963 475.356 45.3902 475.356 45.3902C462.983 47.4318 456.969 48.4461 444.597 50.4877C458.219 49.5055 464.947 49.0965 478.397 48.1208C478.397 48.1208 477.222 39.7905 478.579 39.1079C479.937 38.4252 482.629 36.4288 482.629 36.4288C481.783 23.0302 481.364 16.4098 480.518 3.01124C475.678 3.0338 473.255 2.96619 468.414 2.98875C465.663 3.40737 464.288 3.61668 461.531 3.87751Z" fill="#FFD261"/>
<path d="M6.26805 91.4872C6.26805 91.4872 6.18176 70.6342 6.68797 70.2993C22.9867 62.2653 84.8087 64.8571 123.133 63.2695C124.687 63.2115 85.6603 64.5094 52.331 65.5947C51.813 65.614 51.4677 65.6269 50.9497 65.6462C48.8778 65.7235 46.8059 65.8008 44.9066 65.8716C29.7067 66.2806 22.1096 66.564 6.90968 66.973C5.87961 67.1695 5.54017 67.3401 4.5101 67.5366C4.02743 68.5026 3.87243 68.9824 3.55654 69.7841C3.73115 79.0997 3.72918 83.6818 3.8979 92.8396C7.7023 92.8557 9.4289 92.7913 13.2333 92.8074C10.4531 92.4371 9.05415 92.0153 6.26805 91.4872Z" fill="#FFD261"/>
<path d="M14.895 160.528C14.5203 159.752 14.3359 159.443 13.9611 158.667C14.7891 157.688 15.2894 157.195 16.1233 156.374C16.1233 156.374 18.8741 155.956 21.2913 155.865C23.5359 155.782 65.0724 147.596 65.0724 147.596C48.5618 149.95 40.4821 151.199 23.9832 153.869C20.8812 154.143 19.1546 154.207 16.0468 154.323C14.0043 155.189 12.986 155.701 10.9435 156.567C11.3771 158.921 11.591 160.019 12.0246 162.373C14.9774 162.737 16.5373 162.837 19.4843 163.043C86.9139 153.733 154.104 147.277 222.424 143.306C307.516 139.342 391.041 139.702 475.599 144.606C477.118 143.601 477.791 143.102 479.309 142.098C478.795 132.953 478.452 128.383 477.944 119.396C474.3 119.058 472.562 118.807 469.091 118.463C472.187 118.031 473.908 117.809 476.998 117.22C476.382 109.975 476.074 106.352 475.458 99.1069C443.969 98.5435 412.492 98.2958 380.86 98.5277C411.819 98.7949 442.623 99.5418 473.439 100.604C474.186 106.738 474.477 109.888 475.224 116.022C471.461 117.11 469.579 117.654 465.989 118.736C469.65 119.548 471.567 119.95 475.228 120.762C475.228 120.762 476.37 137.467 476.244 138.736C475.946 140.011 474.159 143.08 474.159 143.08C415.737 138.939 356.546 137.355 297.812 138.756C206.083 140.914 114.518 147.49 24.0637 160.66C20.2593 160.644 18.5268 160.551 14.895 160.528Z" fill="#FFD261"/>
<path d="M16.1155 146.894C15.2855 138.551 14.7813 134.304 13.9455 125.803C13.9455 125.803 14.954 120.393 16.3058 119.553C17.4909 118.877 81.64 109.69 101.782 107.358C72.3281 110.353 43.0583 113.657 13.8121 117.592C12.8232 118.893 12.162 119.708 11.1731 121.009C11.9363 132.198 12.315 137.714 13.0782 148.904C16.4117 150.201 18.1619 150.768 21.668 152.059C39.0596 150.147 47.669 149.193 65.0724 147.596C47.9849 148.392 39.5305 148.865 22.4548 149.976C19.8119 148.653 18.5798 148.066 16.1155 146.894Z" fill="#FFD261"/>
<path d="M471.322 94.8372C471.473 89.6175 471.545 86.9287 471.696 81.7091C464.778 81.6511 461.319 81.6222 454.395 81.4065C461.111 80.6819 464.553 80.2375 471.269 79.513C472.348 75.9967 472.801 74.2418 473.702 70.5741C473.702 70.5741 472.948 50.3781 471.061 50.7645C470.376 50.948 451.223 51.9785 426.717 53.2087C442.964 53.0766 451.085 52.9317 467.506 52.7931C468.961 59.3749 469.782 62.8203 471.243 69.5598C471.243 69.5598 469.43 76.5795 468.591 77.2429C467.751 77.9062 449.031 81.2906 449.031 81.2906C456.836 81.9474 460.825 82.2726 468.808 83.0808C468.808 83.0808 468.714 94.4604 468.375 94.6311C458.204 100.067 410.206 97.275 381.038 98.6791C410.569 97.7355 439.939 97.1139 469.493 96.8014C470.154 95.9867 470.488 95.6583 471.322 94.8372Z" fill="#FFD261"/>
<g clip-path="url(#clip0)">
<path d="M214.121 85.6131L213.062 65.4023L214.997 65.3009C216.574 65.2183 217.919 66.4282 218.001 68.0034L218.472 76.9896C221.429 74.0627 224.008 72.8179 227.52 72.5627C234.255 72.0715 240.369 76.7674 241.277 83.453C242.362 91.4398 236.839 97.784 229.232 98.1827C220.88 98.6204 214.548 93.7643 214.121 85.6131ZM218.915 86.953C219.606 91.1041 223.779 94.3441 227.991 94.1903C233.48 93.9864 237.029 90.2203 236.753 84.9379C236.476 79.6555 232.64 76.3602 227.31 76.6395C221.612 76.9256 217.967 81.262 218.915 86.953Z" fill="black"/>
<path d="M248.688 71.9601L248.877 75.5596C251.715 72.0611 253.453 71.0697 256.981 70.8848C258.007 70.8322 259.036 70.8609 260.058 70.9706L260.308 75.7519C259.212 75.5117 258.087 75.4213 256.966 75.4832C254.412 75.6171 252.312 76.5646 250.823 78.2254C249.516 79.6799 249.163 80.7829 249.277 82.9543L249.974 96.2667L245.009 96.5269L243.735 72.2197L248.688 71.9601Z" fill="black"/>
<path d="M261.679 79.3397C261.81 76.9587 262.202 75.6526 263.158 74.3673C265.07 71.7547 268.681 70.2716 273.889 69.9987C278.028 69.7818 281.075 70.2669 283.241 71.5352C285.04 72.5757 285.842 74.2169 285.997 77.1734L286.563 87.9677C286.687 90.3354 287.345 91.1384 289.027 91.0042C289.403 90.9712 289.777 90.918 290.147 90.845L290.317 94.0979C289.495 94.4277 288.619 94.6069 287.733 94.6269C284.619 94.7901 283.141 93.9297 282.029 91.2663C279.112 94.2371 276.006 95.5849 271.462 95.823C265.384 96.1416 261.511 93.5768 261.276 89.0878C261.115 86.5294 262.501 84.1225 264.795 82.9742C266.593 82.0886 267.704 81.7833 272.934 80.9649C277.404 80.2868 278.168 80.1462 279.422 79.6827C280.779 79.1678 281.354 78.3965 281.29 77.1646C281.153 74.5506 278.896 73.4839 274.298 73.7248C269.951 73.9526 267.756 74.9303 266.972 77.1738C266.586 78.3204 265.541 79.1175 264.332 79.1881L261.679 79.3397ZM281.542 82.4525C278.439 83.533 275.235 84.2971 271.979 84.7332C267.559 85.4087 266.224 86.3203 266.34 88.5377C266.469 91.0014 268.581 92.1888 272.614 91.9774C275.933 91.8034 278.393 90.8371 280.097 89.1148C281.457 87.7078 281.767 86.7535 281.645 84.4276L281.542 82.4525Z" fill="black"/>
<path d="M302.309 93.5196L301.029 93.5866C299.903 93.6528 298.839 93.0669 298.293 92.0802L286.392 69.9839L289.369 69.8279C291.102 69.7232 292.734 70.651 293.529 72.1934L301.53 88.1044L308.059 71.3691C308.701 69.7764 310.214 68.7049 311.931 68.6287L314.636 68.4868L304.861 91.7611C304.416 92.7858 303.426 93.468 302.309 93.5196Z" fill="black"/>
<path d="M318.703 81.8866C319.459 86.5451 323.281 89.2591 328.753 88.9724C331.858 88.8096 334.138 87.7648 335.484 85.8477C336.269 84.7476 337.515 84.0656 338.866 83.9955L341.746 83.8446C339.527 89.4964 335.18 92.4459 328.488 92.7967C320.128 93.2348 314.227 88.4523 313.829 80.8608C313.431 73.2692 318.925 67.6425 327.251 67.2062C333.275 66.8905 338.261 69.3467 340.451 73.7835C341.43 75.8258 341.883 77.6612 342.04 80.6678L318.703 81.8866ZM336.789 77.1702C335.44 72.9406 331.995 70.6968 327.397 70.9378C322.799 71.1787 319.606 73.7705 318.657 78.1205L336.789 77.1702Z" fill="black"/>
<path fill-rule="evenodd" clip-rule="evenodd" d="M199.024 65.1709L197.824 68.6277L199.84 73.5501C199.84 73.5501 195.709 93.3703 195.23 95.7894C194.287 100.553 193.569 102.413 190.313 104.972C187.058 107.531 181.14 111.989 180.171 112.668C179.962 112.815 179.743 112.982 179.516 113.155C178.69 113.786 177.763 114.494 176.879 114.54C175.995 114.586 175 113.979 174.112 113.438C173.868 113.29 173.633 113.146 173.41 113.023C172.376 112.448 166.024 108.633 162.519 106.428C159.014 104.224 158.104 102.449 156.669 97.8103C155.939 95.4545 149.76 76.1747 149.76 76.1747L151.25 71.0686L149.695 67.7561C149.695 67.7561 151.349 65.7839 153.366 63.5413C155.383 61.2987 159.956 62.316 159.956 62.316L164.783 56.216L173.798 55.7436L182.812 55.2712L188.251 60.8331C188.251 60.8331 192.693 59.3434 194.933 61.3629C197.173 63.3824 199.024 65.1709 199.024 65.1709ZM194.117 73.9596C194.028 72.2516 187.007 64.6062 187.007 64.6062C187.007 64.6062 181.491 65.9637 180.74 66.0031C180.14 66.0345 178.962 65.696 177.734 65.3432C177.423 65.2539 177.108 65.1636 176.799 65.0782C175.271 64.6556 174.269 64.7044 174.269 64.7044C174.269 64.7044 173.268 64.7605 171.791 65.3407C171.493 65.4579 171.19 65.5805 170.89 65.7019C169.705 66.1811 168.569 66.6409 167.969 66.6723C167.218 66.7117 161.591 65.9381 161.591 65.9381C161.591 65.9381 155.407 74.2757 155.497 75.9836C155.571 77.3959 156.167 77.9188 156.87 78.5348C157.017 78.6638 157.169 78.7969 157.322 78.943L162.548 83.9472C162.6 83.9967 162.658 84.0488 162.718 84.1039C163.239 84.5755 164.005 85.27 163.555 86.5137C163.525 86.5969 163.494 86.6815 163.463 86.7674C162.969 88.115 162.359 89.7785 163.33 91.381C164.363 93.0857 166.037 94.1719 167.059 93.9242C168.082 93.6764 170.441 92.2801 171.303 91.6535C172.165 91.027 174.869 88.5442 174.823 87.6509C174.784 86.9058 172.685 85.7727 171.665 85.2224C171.463 85.113 171.303 85.0267 171.21 84.971C171.105 84.9075 170.928 84.8102 170.711 84.6905C169.78 84.1767 168.099 83.2495 168.035 82.8027C167.956 82.2517 167.966 82.0883 168.622 80.6823C168.761 80.3832 168.925 80.062 169.096 79.73C169.725 78.5016 170.43 77.1262 170.208 76.179C169.958 75.1097 168.236 74.5793 166.778 74.13C166.596 74.0739 166.417 74.0189 166.247 73.9644C165.82 73.8283 165.285 73.6588 164.725 73.4818C163.269 73.021 161.651 72.509 161.383 72.4019C161.012 72.2535 161.097 72.0893 162.189 71.9276C162.334 71.9062 162.513 71.8775 162.719 71.8446C164.071 71.6288 166.562 71.2309 167.798 71.5071C168.042 71.5614 168.314 71.6202 168.6 71.6818C169.988 71.9812 171.689 72.3481 171.864 72.6018C171.895 72.6462 171.925 72.6842 171.953 72.7201C172.118 72.9314 172.226 73.0693 172.105 74.0105C172.068 74.2897 171.993 74.838 171.9 75.5162C171.625 77.5128 171.196 80.6355 171.158 81.3333C171.153 81.4308 171.146 81.5249 171.14 81.6155C171.086 82.3935 171.05 82.9112 171.957 83.0694C172.032 83.0825 172.111 83.0964 172.193 83.1107C173.217 83.2902 174.719 83.5534 175.255 83.5254C175.791 83.4973 177.257 83.0788 178.256 82.7933C178.337 82.7703 178.414 82.7482 178.488 82.7272C179.373 82.475 179.284 81.9639 179.148 81.1959C179.133 81.1064 179.116 81.0134 179.101 80.917C178.99 80.228 178.239 77.1749 177.757 75.2175C177.593 74.549 177.46 74.0083 177.394 73.7333C177.175 72.8098 177.268 72.6615 177.411 72.434C177.435 72.3954 177.46 72.3545 177.486 72.3072C177.634 72.0365 179.287 71.4938 180.637 71.0509C180.914 70.9598 181.179 70.8729 181.415 70.7935C182.616 70.3896 185.135 70.5249 186.502 70.5983C186.71 70.6094 186.892 70.6192 187.038 70.6254C188.141 70.672 188.243 70.8264 187.889 71.0128C187.634 71.1474 186.077 71.826 184.677 72.4367C184.139 72.671 183.625 72.8953 183.215 73.0751C183.051 73.1472 182.88 73.2204 182.704 73.2953C181.301 73.8945 179.644 74.602 179.507 75.6917C179.385 76.657 180.23 77.9514 180.985 79.1074C181.189 79.4196 181.386 79.7217 181.556 80.0045C182.354 81.3343 182.382 81.4956 182.361 82.052C182.343 82.5032 180.768 83.6013 179.896 84.2095C179.693 84.3511 179.528 84.4661 179.429 84.5402C179.343 84.6054 179.193 84.7081 179.002 84.8382C178.046 85.4921 176.078 86.8381 176.117 87.5831C176.164 88.4764 179.113 90.6628 180.036 91.1959C180.958 91.7289 183.45 92.871 184.493 93.0106C185.537 93.15 187.087 91.8948 187.936 90.0915C188.734 88.3961 187.954 86.8053 187.322 85.5166C187.282 85.4346 187.242 85.3538 187.204 85.2743C186.626 84.0846 187.316 83.3139 187.784 82.7905C187.839 82.7292 187.89 82.6714 187.937 82.6166L192.611 77.0936C192.748 76.9322 192.885 76.784 193.018 76.6403C193.653 75.9543 194.191 75.3718 194.117 73.9596ZM183.499 96.4485C183.857 96.1655 184.081 95.6694 183.659 95.4346C183.333 95.2532 182.475 94.8659 181.265 94.32C180.909 94.1595 180.524 93.9854 180.112 93.7987C178.3 92.9771 176.06 92.3151 175.717 92.3331C175.374 92.3511 173.216 93.2435 171.499 94.2501C171.11 94.4783 170.745 94.6914 170.409 94.8878C169.262 95.5579 168.448 96.0332 168.143 96.2478C167.747 96.5254 168.022 96.9954 168.408 97.2394C168.794 97.4834 174 101.1 174.509 101.503C174.573 101.555 174.642 101.611 174.714 101.669C175.204 102.067 175.829 102.574 176.252 102.552C176.676 102.53 177.244 101.96 177.69 101.513C177.755 101.448 177.818 101.385 177.877 101.327C178.34 100.873 183.14 96.7315 183.499 96.4485Z" fill="black"/>
<mask id="mask1" mask-type="alpha" maskUnits="userSpaceOnUse" x="153" y="55" width="42" height="12">
<path d="M188.25 60.8328L182.811 55.2709L173.797 55.7433L164.782 56.2157L159.955 62.3157C159.955 62.3157 155.382 61.2984 153.365 63.541C153.365 63.541 159.346 62.6829 161.588 65.9383C161.588 65.9383 167.216 66.7118 167.967 66.6725C168.718 66.6331 170.313 65.921 171.789 65.3409C173.265 64.7607 174.267 64.7046 174.267 64.7046C174.267 64.7046 175.268 64.6557 176.797 65.0784C178.326 65.5011 179.986 66.0426 180.737 66.0032C181.489 65.9638 187.004 64.6063 187.004 64.6063C188.894 61.1344 194.932 61.3626 194.932 61.3626C192.692 59.3431 188.25 60.8328 188.25 60.8328Z" fill="white"/>
</mask>
<g mask="url(#mask1)">
<path d="M188.25 60.8328L182.811 55.2709L173.797 55.7433L164.782 56.2157L159.955 62.3157C159.955 62.3157 155.382 61.2984 153.365 63.541C153.365 63.541 159.346 62.6829 161.588 65.9383C161.588 65.9383 167.216 66.7118 167.967 66.6725C168.718 66.6331 170.313 65.921 171.789 65.3409C173.265 64.7607 174.267 64.7046 174.267 64.7046C174.267 64.7046 175.268 64.6557 176.797 65.0784C178.326 65.5011 179.986 66.0426 180.737 66.0032C181.489 65.9638 187.004 64.6063 187.004 64.6063C188.894 61.1344 194.932 61.3626 194.932 61.3626C192.692 59.3431 188.25 60.8328 188.25 60.8328Z" fill="black"/>
</g>
</g>
<defs>
<linearGradient id="paint0_linear" x1="246.711" y1="155.402" x2="241.169" y2="6.85174" gradientUnits="userSpaceOnUse">
<stop stop-color="#EBCB8A"/>
<stop offset="1" stop-color="#D7A456"/>
</linearGradient>
<clipPath id="clip0">
<rect width="192" height="58.9395" fill="white" transform="translate(148.589 57.0647) rotate(-3)"/>
</clipPath>
</defs>
</svg>
