<svg xmlns="http://www.w3.org/2000/svg" viewBox="0 0 1440 900">
  <title>Home Dots</title>
  <g id="dots">
    <circle cy="571.1"  cx="1151.05" r="6.91" style="fill:#bbe4f2" />
    <circle cy="571.1"  cx="812.46"  r="6.91" style="fill:#bbe4f2" />
    <circle cy="586.91" cx="288.56"  r="6.91" style="fill:#bbe4f2" />
    <circle cy="589.6"  cx="663.87"  r="5.5" transform="translate(-31.86 37.96) rotate(-3.2)" style="fill:#bbe4f2" />
    <circle cy="593.82" cx="218.35"  r="3.85" style="fill:#bbe4f2" />
    <circle cy="604.71" cx="1276.67" r="6.91" style="fill:#bbe4f2" />
    <circle cy="604.71" cx="938.07"  r="6.91" style="fill:#bbe4f2" />
    <circle cy="610.9"  cx="111.94"  r="3.85" style="fill:#bbe4f2" />
    <circle cy="613.34" cx="32.43"   r="2.73" style="fill:#bbe4f2" />
    <circle cy="613.68" cx="1218.7"  r="2.73" style="fill:#bbe4f2" />
    <circle cy="613.68" cx="880.11"  r="2.73" style="fill:#bbe4f2" />
    <circle cy="614.69" cx="336.39"  r="3.85" style="fill:#bbe4f2" />
    <circle cy="628.9"  cx="1014.93" r="6.91" style="fill:#bbe4f2" />
    <circle cy="629.87" cx="465.27"  r="3.85" style="fill:#bbe4f2" />
    <circle cy="629.87" cx="539.45"  r="5.5" transform="translate(-34.3 31.08) rotate(-3.2)" style="fill:#bbe4f2" />
    <circle cy="640.21" cx="806.97"  r="3.85" style="fill:#bbe4f2" />
    <circle cy="644.56" cx="635.43"  r="6.91" style="fill:#bbe4f2" />
    <circle cy="645.93" cx="388.66"  r="5.5" transform="translate(-177.63 148.34) rotate(-17.66)" style="fill:#bbe4f2" />
    <circle cy="649.79" cx="723"     r="3.85" style="fill:#bbe4f2" />
    <circle cy="653.61" cx="236.1"   r="6.91" style="fill:#bbe4f2" />
    <circle cy="655.24" cx="446.76"  r="2.73" style="fill:#bbe4f2" />
    <circle cy="661.72" cx="1066.46" r="2.73" style="fill:#bbe4f2" />
    <circle cy="661.72" cx="1405.05" r="2.73" style="fill:#bbe4f2" />
    <circle cy="665.7"  cx="271.65"  r="5.5" transform="translate(-189.14 113.77) rotate(-17.66)" style="fill:#bbe4f2" />
    <circle cy="672.95" cx="1226.91" r="6.91" style="fill:#bbe4f2" />
    <circle cy="672.95" cx="888.32"  r="6.91" style="fill:#bbe4f2" />
    <circle cy="682.47" cx="93.3"    r="5.5" transform="translate(-202.63 60.46) rotate(-17.66)" style="fill:#bbe4f2" />
    <circle cy="704.89" cx="1301.53" r="5.5" transform="matrix(1, -0.06, 0.06, 1, -37.3, 73.71)" style="fill:#bbe4f2" />
    <circle cy="704.89" cx="962.93"  r="5.5" transform="matrix(1, -0.06, 0.06, 1, -37.83, 54.82)" style="fill:#bbe4f2" />
    <circle cy="710.49" cx="1122.48" r="5.5" transform="translate(-37.89 63.73) rotate(-3.2)" style="fill:#bbe4f2" />
    <circle cy="710.49" cx="783.88"  r="5.5" transform="translate(-38.42 44.84) rotate(-3.2)" style="fill:#bbe4f2" />
    <circle cy="713.67" cx="629.94"  r="3.85" style="fill:#bbe4f2" />
    <circle cy="721.88" cx="323.11"  r="6.91" style="fill:#bbe4f2" />
    <circle cy="723.25" cx="545.98"  r="3.85" style="fill:#bbe4f2" />
    <circle cy="725.74" cx="410.79"  r="3.85" style="fill:#bbe4f2" />
    <circle cy="725.74" cx="484.98"  r="5.5" transform="translate(-39.74 28.19) rotate(-3.2)" style="fill:#bbe4f2" />
    <circle cy="728.8"  cx="1088.74" r="5.5" transform="translate(-38.97 61.88) rotate(-3.2)" style="fill:#bbe4f2" />
    <circle cy="728.8"  cx="1427.34" r="5.5" transform="translate(-38.44 80.77) rotate(-3.2)" style="fill:#bbe4f2" />
    <circle cy="749.33" cx="279.47"  r="6.91" style="fill:#bbe4f2" />
    <circle cy="757.89" cx="48.43"   r="3.85" style="fill:#bbe4f2" />
    <circle cy="761.58" cx="1178.49" r="6.91" style="fill:#bbe4f2" />
    <circle cy="761.58" cx="839.9"   r="6.91" style="fill:#bbe4f2" />
    <circle cy="765.53" cx="237.39"  r="2.73" style="fill:#bbe4f2" />
    <circle cy="766.41" cx="360.96"  r="3.85" style="fill:#bbe4f2" />
    <circle cy="782.95" cx="1072.98" r="3.85" style="fill:#bbe4f2" />
    <circle cy="782.95" cx="734.39"  r="3.85" style="fill:#bbe4f2" />
    <circle cy="783.95" cx="606.86"  r="5.5" transform="translate(-42.79 35.08) rotate(-3.2)" style="fill:#bbe4f2" />
    <circle cy="792.99" cx="435.04"  r="3.85" style="fill:#bbe4f2" />
    <circle cy="798.44" cx="158.8"   r="2.73" style="fill:#bbe4f2" />
    <circle cy="799.22" cx="1039.48" r="6.91" style="fill:#bbe4f2" />
    <circle cy="799.22" cx="1378.07" r="6.91" style="fill:#bbe4f2" />
    <circle cy="802.39" cx="1261.1"  r="2.73" style="fill:#bbe4f2" />
    <circle cy="802.39" cx="922.51"  r="2.73" style="fill:#bbe4f2" />
    <circle cy="810.55" cx="523.76"  r="3.85" style="fill:#bbe4f2" />
    <circle cy="814.41" cx="330.96"  r="3.85" style="fill:#bbe4f2" />
    <circle cy="819.15" cx="80.33"   r="5.5" transform="translate(-244.7 62.97) rotate(-17.66)" style="fill:#bbe4f2" />
    <circle cy="825.61" cx="1213.09" r="6.91" style="fill:#bbe4f2" />
    <circle cy="825.61" cx="874.5"   r="6.91" style="fill:#bbe4f2" />
    <circle cy="828.66" cx="1091.91" r="3.85" style="fill:#bbe4f2" />
    <circle cy="828.66" cx="1430.51" r="3.85" style="fill:#bbe4f2" />
    <circle cy="835.04" cx="662.87"  r="6.91" style="fill:#bbe4f2" />
    <circle cy="840.57" cx="454.14"  r="6.91" style="fill:#bbe4f2" />
    <circle cy="846.08" cx="1100.99" r="5.5" transform="translate(-45.49 62.75) rotate(-3.2)" style="fill:#bbe4f2" />
    <circle cy="846.08" cx="762.4"   r="5.5" transform="translate(-46.02 43.85) rotate(-3.2)" style="fill:#bbe4f2" />
    <circle cy="847.95" cx="1332.68" r="5.5" transform="translate(-45.23 75.67) rotate(-3.2)" style="fill:#bbe4f2" />
    <circle cy="847.95" cx="994.09"  r="5.5" transform="translate(-45.76 56.78) rotate(-3.2)" style="fill:#bbe4f2" />
    <circle cy="857.53" cx="209.35"  r="6.91" style="fill:#bbe4f2" />
    <circle cy="857.53" cx="361.39"  r="2.73" style="fill:#bbe4f2" />
    <circle cy="859.53" cx="565.39"  r="2.73" style="fill:#bbe4f2" />
    <circle cy="865.08" cx="35.15"   r="6.91" style="fill:#bbe4f2" />
    <circle cy="868.94" cx="122.83"  r="3.85" style="fill:#bbe4f2" />
    <circle cy="868.94" cx="1258.38" r="3.85" style="fill:#bbe4f2" />
    <circle cy="868.94" cx="919.78"  r="3.85" style="fill:#bbe4f2" />
    <circle cy="884.81" cx="659.3"   r="6.91" style="fill:#bbe4f2" />
  </g>
</svg>
