<svg xmlns="http://www.w3.org/2000/svg" viewBox="0 0 1440 900">
  <title>Home Dots</title>
  <g id="dots">
    <circle cy="300.34" cx="986.45"  r="3.85" style="fill:#bbe4f2" />
    <circle cy="320.58" cx="225"     r="2.73" style="fill:#bbe4f2" />
    <circle cy="321.55" cx="426.01"  r="3.85" style="fill:#bbe4f2" />
    <circle cy="324.84" cx="1220.1"  r="3.85" style="fill:#bbe4f2" />
    <circle cy="324.84" cx="881.5"   r="3.85" style="fill:#bbe4f2" />
    <circle cy="330.35" cx="646.27"  r="5.5" transform="translate(-66.37 192.7) rotate(-16.14)" style="fill:#bbe4f2" />
    <circle cy="336.67" cx="1150.55" r="6.91" transform="translate(-47.01 391.16) rotate(-18.92)" style="fill:#bbe4f2" />
    <circle cy="336.67" cx="811.95"  r="6.91" transform="translate(-65.29 281.4) rotate(-18.92)" style="fill:#bbe4f2" />
    <circle cy="341.4"  cx="1122.96" r="3.85" style="fill:#bbe4f2" />
    <circle cy="341.4"  cx="784.37"  r="3.85" style="fill:#bbe4f2" />
    <circle cy="345.29" cx="47.15"   r="2.73" style="fill:#bbe4f2" />
    <circle cy="352.33" cx="1034.8"  r="5.5" transform="translate(-18.05 58.28) rotate(-3.2)" style="fill:#bbe4f2" />
    <circle cy="352.33" cx="1373.39" r="5.5" transform="translate(-17.52 77.17) rotate(-3.2)" style="fill:#bbe4f2" />
    <circle cy="353.4"  cx="126.29"  r="3.85" style="fill:#bbe4f2" />
    <circle cy="368.1"  cx="527.61"  r="6.91" transform="translate(-90.83 190.92) rotate(-18.92)" style="fill:#bbe4f2" />
    <circle cy="368.1"  cx="955.19"  r="2.73" style="fill:#bbe4f2" />
    <circle cy="371.81" cx="320.27"  r="6.91" style="fill:#bbe4f2" />
    <circle cy="379.42" cx="693.37"  r="5.5" transform="translate(-82.42 228.21) rotate(-17.66)" style="fill:#bbe4f2" />
    <circle cy="380.33" cx="394.98"  r="5.5" transform="translate(-90.17 124.81) rotate(-16.14)" style="fill:#bbe4f2" />
    <circle cy="388.73" cx="751.47"  r="2.73" style="fill:#bbe4f2" />
    <circle cy="391.77" cx="205.14"  r="6.91" style="fill:#bbe4f2" />
    <circle cy="396.03" cx="1213.29" r="2.73" style="fill:#bbe4f2" />
    <circle cy="396.03" cx="874.69"  r="2.73" style="fill:#bbe4f2" />
    <circle cy="400.21" cx="1157.63" r="6.91" style="fill:#bbe4f2" />
    <circle cy="400.21" cx="819.04"  r="6.91" style="fill:#bbe4f2" />
    <circle cy="402.3"  cx="435.85"  r="2.73" style="fill:#bbe4f2" />
    <circle cy="410.13" cx="634.93"  r="6.91" transform="translate(-98.67 227.98) rotate(-18.92)" style="fill:#bbe4f2" />
    <circle cy="412.43" cx="355.33"  r="5.5" style="fill:#bbe4f2" />
    <circle cy="414.86" cx="607.34"  r="3.85" style="fill:#bbe4f2" />
    <circle cy="415.47" cx="1062.81" r="3.85" style="fill:#bbe4f2" />
    <circle cy="415.47" cx="1401.41" r="3.85" style="fill:#bbe4f2" />
    <circle cy="421.88" cx="98.32"   r="5.5" style="fill:#bbe4f2" />
    <circle cy="428.88" cx="277.32"  r="5.5" style="fill:#bbe4f2" />
    <circle cy="433.17" cx="914.35"  r="6.91" style="fill:#bbe4f2" />
    <circle cy="443.46" cx="477.64"  r="3.85" style="fill:#bbe4f2" />
    <circle cy="454.77" cx="560.13"  r="6.91" transform="translate(-117.18 206.14) rotate(-18.92)" style="fill:#bbe4f2" />
    <circle cy="459.23" cx="715.5"   r="3.85" style="fill:#bbe4f2" />
    <circle cy="459.23" cx="789.68"  r="5.5" transform="translate(-24.39 44.77) rotate(-3.2)" style="fill:#bbe4f2" />
    <circle cy="465.78" cx="1327.18" r="5.5" transform="translate(-23.92 74.77) rotate(-3.2)" style="fill:#bbe4f2" />
    <circle cy="465.78" cx="988.59"  r="5.5" transform="translate(-24.45 55.88) rotate(-3.2)" style="fill:#bbe4f2" />
    <circle cy="467.7"  cx="399.9"   r="3.85" style="fill:#bbe4f2" />
    <circle cy="470.14" cx="320.39"  r="2.73" style="fill:#bbe4f2" />
    <circle cy="471.55" cx="1070.63" r="3.85" style="fill:#bbe4f2" />
    <circle cy="473.67" cx="642.01"  r="6.91" style="fill:#bbe4f2" />
    <circle cy="476.78" cx="150.61"  r="6.91" style="fill:#bbe4f2" />
    <circle cy="490.68" cx="43.86"   r="3.85" style="fill:#bbe4f2" />
    <circle cy="502.24" cx="446.61"  r="5.5" transform="translate(-122.03 143.97) rotate(-16.14)" style="fill:#bbe4f2" />
    <circle cy="512.81" cx="274"     r="6.91" style="fill:#bbe4f2" />
    <circle cy="516.13" cx="1179.49" r="5.5" transform="translate(-26.96 66.61) rotate(-3.2)" style="fill:#bbe4f2" />
    <circle cy="516.13" cx="840.89"  r="5.5" transform="translate(-27.49 47.72) rotate(-3.2)" style="fill:#bbe4f2" />
    <circle cy="523.03" cx="1332.68" r="3.85" style="fill:#bbe4f2" />
    <circle cy="523.03" cx="994.09"  r="3.85" style="fill:#bbe4f2" />
    <circle cy="523.29" cx="230.15"  r="2.73" style="fill:#bbe4f2" />
    <circle cy="524.35" cx="739.51"  r="6.91" style="fill:#bbe4f2" />
    <circle cy="525.47" cx="1247.48" r="6.91" style="fill:#bbe4f2" />
    <circle cy="525.47" cx="908.88"  r="6.91" style="fill:#bbe4f2" />
    <circle cy="539.27" cx="381.26"  r="5.5" transform="translate(-145.62 141.06) rotate(-17.66)" style="fill:#bbe4f2" />
    <circle cy="545.5"  cx="147.89"  r="2.73" style="fill:#bbe4f2" />
    <circle cy="550.06" cx="443.14"  r="5.5" transform="translate(-145.98 160.34) rotate(-17.66)" style="fill:#bbe4f2" />
    <circle cy="550.54" cx="563.83"  r="3.85" style="fill:#bbe4f2" />
    <circle cy="555.63" cx="67.37"   r="5.5" style="fill:#bbe4f2" />
    <circle cy="559.37" cx="501.24"  r="2.73" style="fill:#bbe4f2" />
    <circle cy="560.73" cx="1069.75" r="2.73" style="fill:#bbe4f2" />
    <circle cy="560.73" cx="1408.34" r="2.73" style="fill:#bbe4f2" />
  </g>
</svg>
