<svg xmlns="http://www.w3.org/2000/svg" viewBox="0 0 1440 900">
  <title>Home Dots</title>
  <g id="dots">
    <circle cy="12.75"  cx="326.99"  r="6.91" style="fill:#bbe4f2" />
    <circle cy="29.84"  cx="1124.89" r="2.73" style="fill:#bbe4f2" />
    <circle cy="29.84"  cx="786.29"  r="2.73" style="fill:#bbe4f2" />
    <circle cy="33.38"  cx="457.94"  r="5.5" style="fill:#bbe4f2" />
    <circle cy="41.38"  cx="1045.2"  r="6.91" transform="translate(43.03 341.06) rotate(-18.92)" style="fill:#bbe4f2" />
    <circle cy="41.38"  cx="1383.79" r="6.91" transform="translate(61.31 450.82) rotate(-18.92)" style="fill:#bbe4f2" />
    <circle cy="43.69"  cx="1296.06" r="3.85" style="fill:#bbe4f2" />
    <circle cy="43.69"  cx="957.47"  r="3.85" style="fill:#bbe4f2" />
    <circle cy="50.96"  cx="579.23"  r="5.5" style="fill:#bbe4f2" />
    <circle cy="61.15"  cx="1210.55" r="6.91" transform="translate(45.55 395.73) rotate(-18.92)" style="fill:#bbe4f2" />
    <circle cy="61.15"  cx="871.96"  r="6.91" transform="translate(27.26 285.97) rotate(-18.92)" style="fill:#bbe4f2" />
    <circle cy="71.84"  cx="1058.89" r="2.73" style="fill:#bbe4f2" />
    <circle cy="71.84"  cx="720.29"  r="2.73" style="fill:#bbe4f2" />
    <circle cy="82.86"  cx="1148.21" r="6.91" transform="translate(35.15 376.69) rotate(-18.92)" style="fill:#bbe4f2" />
    <circle cy="82.86"  cx="809.61"  r="6.91" transform="translate(16.86 266.93) rotate(-18.92)" style="fill:#bbe4f2" />
    <circle cy="89"     cx="376.23"  r="5.5" style="fill:#bbe4f2" />
    <circle cy="90.38"  cx="1003.36" r="5.5" transform="translate(14.43 282.52) rotate(-16.14)" style="fill:#bbe4f2" />
    <circle cy="90.38"  cx="1341.95" r="5.5" transform="translate(27.78 376.66) rotate(-16.14)" style="fill:#bbe4f2" />
    <circle cy="96.55"  cx="564.67"  r="2.73" style="fill:#bbe4f2" />
    <circle cy="101.58" cx="211"     r="2.73" style="fill:#bbe4f2" />
    <circle cy="102.52" cx="94.1"    r="6.91" style="fill:#bbe4f2" />
    <circle cy="103.3"  cx="609.27"  r="2.73" style="fill:#bbe4f2" />
    <circle cy="112.72" cx="1092.28" r="3.85" style="fill:#bbe4f2" />
    <circle cy="112.72" cx="753.68"  r="3.85" style="fill:#bbe4f2" />
    <circle cy="116.43" cx="484.98"  r="6.91" style="fill:#bbe4f2" />
    <circle cy="116.55" cx="1265.13" r="2.73" style="fill:#bbe4f2" />
    <circle cy="116.55" cx="926.54"  r="2.73" style="fill:#bbe4f2" />
    <circle cy="145.3"  cx="543.27"  r="2.73" style="fill:#bbe4f2" />
    <circle cy="147.19" cx="397.29"  r="3.85" style="fill:#bbe4f2" />
    <circle cy="149.25" cx="1039.49" r="3.85" style="fill:#bbe4f2" />
    <circle cy="149.25" cx="1378.08" r="3.85" style="fill:#bbe4f2" />
    <circle cy="154.9"  cx="1189.04" r="2.73" style="fill:#bbe4f2" />
    <circle cy="154.9"  cx="850.45"  r="2.73" style="fill:#bbe4f2" />
    <circle cy="156.32" cx="632.59"  r="6.91" transform="translate(-16.51 213.51) rotate(-18.92)" style="fill:#bbe4f2" />
    <circle cy="162.7"  cx="1065.72" r="3.85" style="fill:#bbe4f2" />
    <circle cy="162.7"  cx="727.13"  r="3.85" style="fill:#bbe4f2" />
    <circle cy="174.01" cx="1148.21" r="6.91" transform="translate(5.6 381.62) rotate(-18.92)" style="fill:#bbe4f2" />
    <circle cy="174.01" cx="1304.08" r="6.91" transform="translate(14.01 432.15) rotate(-18.92)" style="fill:#bbe4f2" />
    <circle cy="174.01" cx="809.61"  r="6.91" transform="translate(-12.69 271.85) rotate(-18.92)" style="fill:#bbe4f2" />
    <circle cy="174.01" cx="965.48"  r="6.91" transform="translate(-4.27 322.38) rotate(-18.92)" style="fill:#bbe4f2" />
    <circle cy="176.3"  cx="40"      r="5.5" style="fill:#bbe4f2" />
    <circle cy="182.09" cx="290.54"  r="6.91" style="fill:#bbe4f2" />
    <circle cy="186.18" cx="576.66"  r="3.85" style="fill:#bbe4f2" />
    <circle cy="192.43" cx="457.94"  r="2.73" style="fill:#bbe4f2" />
    <circle cy="208.99" cx="174.82"  r="5.5" style="fill:#bbe4f2" />
    <circle cy="215.99" cx="342.82"  r="5.5" style="fill:#bbe4f2" />
    <circle cy="221.49" cx="1034.69" r="5.5" transform="translate(-20.79 296.4) rotate(-16.14)" style="fill:#bbe4f2" />
    <circle cy="221.49" cx="696.1"   r="5.5" transform="translate(-34.13 202.27) rotate(-16.14)" style="fill:#bbe4f2" />
    <circle cy="227.62" cx="1000.02" r="5.5" transform="translate(-23.86 287.01) rotate(-16.14)" style="fill:#bbe4f2" />
    <circle cy="227.62" cx="1338.62" r="5.5" transform="translate(-10.51 381.14) rotate(-16.14)" style="fill:#bbe4f2" />
    <circle cy="236.17" cx="550.1"   r="3.85" style="fill:#bbe4f2" />
    <circle cy="246.1"  cx="236.01"  r="6.91" style="fill:#bbe4f2" />
    <circle cy="247.48" cx="632.59"  r="6.91" transform="translate(-46.06 218.43) rotate(-18.92)" style="fill:#bbe4f2" />
    <circle cy="249.15" cx="428.91"  r="3.85" style="fill:#bbe4f2" />
    <circle cy="256.89" cx="1161.89" r="5.5" transform="translate(-25.61 333.16) rotate(-16.14)" style="fill:#bbe4f2" />
    <circle cy="256.89" cx="823.29"  r="5.5" transform="translate(-38.96 239.02) rotate(-16.14)" style="fill:#bbe4f2" />
    <circle cy="260.55" cx="73.67"   r="2.73" style="fill:#bbe4f2" />
    <circle cy="278.67" cx="901.48"  r="6.91" transform="translate(-41.65 307.29) rotate(-18.92)" style="fill:#bbe4f2" />
    <circle cy="284.84" cx="136.62"  r="6.91" style="fill:#bbe4f2" />
    <circle cy="289.12" cx="738.24"  r="2.73" style="fill:#bbe4f2" />
    <circle cy="292.31" cx="1065.6"  r="2.73" style="fill:#bbe4f2" />
    <circle cy="292.31" cx="1404.19" r="2.73" style="fill:#bbe4f2" />
    <circle cy="294.95" cx="519.08"  r="5.5" transform="translate(-61.54 155.95) rotate(-16.14)" style="fill:#bbe4f2" />
    <circle cy="300.34" cx="1325.04" r="3.85" style="fill:#bbe4f2" />
  </g>
</svg>
