<svg id="Layer_1" data-name="Layer 1" xmlns="http://www.w3.org/2000/svg" viewBox="0 0 511.22 234.89"><title>illustration-bow</title><g id="Bow"><circle cx="255.61" cy="113.32" r="56.48" style="fill:#d61e39"/><path d="M199.13,158.44s-36.86-34.71-8.87-87.95c0,0-106.49-108.53-157.68-46.42s0,186.35,0,186.35S72.85,129.67,199.13,158.44Z" style="fill:#d61e39"/><path d="M199.13,164.68S84.29,140.11,39.24,217.92c0,0-7.68,15.87,10.23,11.78S172.17,183.11,199.13,164.68Z" style="fill:#801834"/><path d="M312.09,158.07S349,123.36,321,70.12c0,0,106.48-108.53,157.67-46.41s0,186.34,0,186.34S438.37,129.3,312.09,158.07Z" style="fill:#d61e39"/><path d="M312.09,164.32S426.94,139.75,472,217.56c0,0,7.68,15.87-10.24,11.77S339.06,182.75,312.09,164.32Z" style="fill:#801834"/></g></svg>