<svg xmlns="http://www.w3.org/2000/svg" viewBox="0 0 263.49 82.78"><title>mycrypto winter logo</title><g id="Layer_2" data-name="Layer 2"><g id="Layer_1-2" data-name="Layer 1"><g id="side_text" data-name="side text"><g id="mycrypto_winter_logo" data-name="mycrypto winter logo"><path d="M2.92,44.44a5.35,5.35,0,0,1,7.2-2.32c5.51,2.82,5.33-7.8,0-5.06a5.35,5.35,0,0,1-7.07-7.43,1.87,1.87,0,0,0-.44-2.53C-3.36,23.65,2,14.39,8,17.84a1.86,1.86,0,0,0,2.4-.89,5.34,5.34,0,0,1,4.37-2.66c3.57-.18,5.49,2.76,5.65,5.95.24,4.83,9.3-.2,5.07-2.94-2.68-1.73-4.26-4.86-2.32-7.87A5.34,5.34,0,0,1,27.62,7a1.86,1.86,0,0,0,2-1.64,5.35,5.35,0,1,1,10.69,0,1.86,1.86,0,0,0,2,1.64,5.35,5.35,0,0,1,2.9,9.84c-5,3.26,4.07,8.71,4.39,2.53a5.35,5.35,0,0,1,10-2.41,1.86,1.86,0,0,0,2.4.89c6-3.45,11.32,5.81,5.35,9.26a1.87,1.87,0,0,0-.44,2.53,5.35,5.35,0,0,1-7.07,7.43c-5.51-2.82-5.33,7.79,0,5.06a5.35,5.35,0,0,1,7.07,7.43,1.87,1.87,0,0,0,.44,2.53c6,3.44.63,12.71-5.35,9.26a1.86,1.86,0,0,0-2.4.88,5.35,5.35,0,0,1-10-2.4c-.32-6.19-9.42-.73-4.39,2.53a5.34,5.34,0,0,1-2.9,9.83,1.88,1.88,0,0,0-2,1.65c0,6.89-10.69,6.89-10.69,0a1.87,1.87,0,0,0-2-1.65,5.34,5.34,0,0,1-2.9-9.83c5-3.26-4.07-8.72-4.38-2.53a5.35,5.35,0,0,1-10,2.4A1.86,1.86,0,0,0,8,61.34c-6,3.45-11.32-5.82-5.35-9.26a1.87,1.87,0,0,0,.44-2.53A5.32,5.32,0,0,1,2.92,44.44Z" style="fill:#fff"/><path d="M38.31,5.35a3.38,3.38,0,1,0-6.75,0v5.51L29.45,9.5a3.38,3.38,0,1,0-3.66,5.68L33.1,19.9a3.35,3.35,0,0,0,3.67,0l7.32-4.72A3.38,3.38,0,0,0,40.42,9.5l-2.11,1.36Z" style="fill:#55b6e2"/><path d="M38.31,73.83a3.38,3.38,0,1,1-6.75,0V68.31l-2.11,1.36A3.37,3.37,0,1,1,25.79,64l7.31-4.73a3.39,3.39,0,0,1,3.67,0L44.09,64a3.38,3.38,0,1,1-3.67,5.67l-2.11-1.36Z" style="fill:#55b6e2"/><path d="M2.36,58.4A3.37,3.37,0,0,0,7,59.63l4.78-2.75-.13,2.5a3.38,3.38,0,0,0,6.75.34l.44-8.7A3.39,3.39,0,0,0,17,47.84l-7.75-4a3.38,3.38,0,1,0-3.08,6L8.37,51,3.59,53.78A3.39,3.39,0,0,0,2.36,58.4Z" style="fill:#55b6e2"/><path d="M66.28,25.39a3.38,3.38,0,0,0-3.38-5.85L58.12,22.3l.13-2.5a3.38,3.38,0,1,0-6.75-.34l-.43,8.7a3.36,3.36,0,0,0,1.83,3.17l7.75,4a3.38,3.38,0,1,0,3.08-6L61.5,28.15Z" style="fill:#55b6e2"/><path d="M2.36,20.78a3.38,3.38,0,0,0,1.23,4.61l4.78,2.76L6.14,29.29a3.38,3.38,0,1,0,3.08,6l7.75-4a3.37,3.37,0,0,0,1.84-3.17l-.44-8.7a3.38,3.38,0,1,0-6.75.34l.13,2.5L7,19.54A3.37,3.37,0,0,0,2.36,20.78Z" style="fill:#55b6e2"/><path d="M62.9,59.63a3.38,3.38,0,0,0,3.38-5.85L61.5,51l2.23-1.14a3.38,3.38,0,1,0-3.08-6l-7.75,4A3.38,3.38,0,0,0,51.07,51l.43,8.7a3.38,3.38,0,0,0,6.75-.34l-.13-2.5Z" style="fill:#55b6e2"/><path d="M17.91,39.5A17.12,17.12,0,1,0,35,22.38,17.12,17.12,0,0,0,17.91,39.5Z" style="fill:#057a97"/><path d="M36.31,32.5c.79-.76,1.57-1.52,2.34-2.3a2.83,2.83,0,0,1,2-1,2.79,2.79,0,0,1,2,1c1.44,1.46,2.88,2.92,4.3,4.4A2.56,2.56,0,0,1,47.14,38a1.55,1.55,0,0,1-2.54.24c-.45-.44-.89-.88-1.32-1.33l-.79-.8a2.5,2.5,0,0,0-3.79,0c-.42.41-.82.83-1.23,1.24l-.88.89a1.61,1.61,0,0,1-2.69,0l-.79-.8L31.9,36.14a2.51,2.51,0,0,0-3.69,0c-.63.6-1.23,1.24-1.82,1.88-.92,1-1.69,1.25-2.45.78a2.49,2.49,0,0,1-.85-3,3.52,3.52,0,0,1,.72-1.08c1.43-1.5,2.88-3,4.34-4.46a2.47,2.47,0,0,1,3.89,0l2.33,2.32.91.9Z" style="fill:#fff"/><path d="M38,44c.5-.49,1-1,1.47-1.49a2.24,2.24,0,0,1,1.5-.92,1.38,1.38,0,0,1,.57.13c2.09,1,1.33,3.16.52,4.09-1.09,1.23-2.26,2.41-3.43,3.59l-.94,1a2.53,2.53,0,0,1-4,0c-1.45-1.48-2.9-3-4.34-4.46a2.58,2.58,0,0,1-.43-3.3,1.62,1.62,0,0,1,2.75-.33l1,1L33.7,44.4a2.58,2.58,0,0,0,3.9,0Z" style="fill:#fff"/><path d="M101.82,30.3V49.83H98V22.7c2-.57,2.66-.39,3.83,1.12l8,10.3,1.12,1.42,5.9-7.62a39.43,39.43,0,0,0,2.9-3.84c1-1.66,2.32-1.85,4-1.46v27.2H120v-20c-.45.49-.69.71-.89,1l-6.87,8.87c-1.07,1.4-1.66,1.4-2.77,0L103,31.37c-.3-.4-.63-.78-1-1.16Z" style="fill:#057a97"/><path d="M212.85,40.3a23.65,23.65,0,0,0,.38,2.36,5.92,5.92,0,0,0,5.1,4.45,5.56,5.56,0,0,0,5.83-3.73,8.18,8.18,0,0,0-.18-6.66,5.6,5.6,0,0,0-9.68-1.06A7.81,7.81,0,0,0,212.85,40.3Zm-3.44-9.57h3v2.56a9.24,9.24,0,0,1,6.67-3.08,8.54,8.54,0,0,1,8.76,5.65,12,12,0,0,1-.08,8.94,8.83,8.83,0,0,1-14.59,2.79v6.48c0,3,0,3-3,2.89-.23,0-.46,0-.76-.07Z" style="fill:#057a97"/><path d="M172.36,25.45l-2,2.67A27.06,27.06,0,0,0,166.26,26c-6.18-2-12.2,2.26-12.74,8.85a11.74,11.74,0,0,0,1.76,7.7c3.36,5.05,9.81,5.79,14.95,1.55l2.1,2.79c-3.6,4.61-13.06,4.81-18,.45-6.22-5.48-6.51-16-.6-21.78C158.62,20.74,168.09,20.62,172.36,25.45Z" style="fill:#057a97"/><path d="M259.77,38.9a6.47,6.47,0,0,0-4.83-5.5,5.69,5.69,0,0,0-6.34,3.07,8.21,8.21,0,0,0,0,7.66,5.89,5.89,0,0,0,9.92.8C260.23,42.73,259.83,39.42,259.77,38.9Zm-6,11.45c-5.79,0-9.81-4.1-9.8-10s4.08-10.13,9.77-10.12,9.73,4.23,9.73,10.15S259.5,50.33,253.79,50.35Z" style="fill:#057a97"/><path d="M197.82,45l3-7.21c.84-2,1.7-4.08,2.49-6.14a1.21,1.21,0,0,1,1.42-.92c.87.07,1.75,0,2.78,0-.19.54-.31.95-.48,1.34q-5.21,12-10.42,23.94c-.33.76-.69,1.16-1.58,1.07s-1.72,0-2.83,0a31.59,31.59,0,0,1,1.95-4.22c1.76-2.73,1.63-5.2.07-8.08-2.23-4.16-4-8.58-5.92-12.9-.14-.31-.24-.65-.42-1.13,1.3,0,2.46-.07,3.6,0,.33,0,.71.55.87.93,1.64,3.92,3.24,7.86,4.85,11.79C197.32,43.94,197.53,44.35,197.82,45Z" style="fill:#057a97"/><path d="M126.6,30.74c1.33,0,2.45-.06,3.56,0,.34,0,.75.51.9.87,1.71,4.07,3.38,8.16,5.06,12.24.13.33.27.65.49,1.16,1.34-3.26,2.6-6.35,3.87-9.43.56-1.38,1.16-2.74,1.67-4.13a1,1,0,0,1,1.16-.76c.95,0,1.91,0,3.05,0-.42,1-.76,1.84-1.13,2.68-3.27,7.5-6.57,15-9.82,22.52-.37.87-.79,1.27-1.76,1.15a26.68,26.68,0,0,0-2.72,0c1.14-2.47,2.1-4.71,3.2-6.88a2.88,2.88,0,0,0,0-2.79c-2.4-5.13-4.71-10.3-7-15.46C126.93,31.62,126.81,31.29,126.6,30.74Z" style="fill:#057a97"/><path d="M232.86,33.66h-3.43v-3h3.4V24.87h3.87v5.74h5.4v3h-5.4v1.61c0,2.78.12,5.57,0,8.34-.18,3.42,2.13,4.11,4.64,3,.18-.09.36-.15.67-.27a17.39,17.39,0,0,1,1,2.2c.08.23-.22.75-.48.88a7.62,7.62,0,0,1-6.65.37c-2.26-1-2.88-3-2.92-5.26-.06-3.14,0-6.28,0-9.43Z" style="fill:#057a97"/><path d="M179.09,49.83h-3.74V30.72h2.77c.08,1,.16,2,.24,3,2.48-2.78,4.37-3.5,7.65-2.92v2.93c-.53,0-1.07.09-1.62.09a4.94,4.94,0,0,0-5.29,5.26c0,3.3,0,6.59,0,9.89Z" style="fill:#057a97"/><text transform="translate(204.41 77.17)" style="font-size:21.7462215423584px;fill:#057a97;font-family:AvenirLTPro-Heavy, Avenir LT Pro;font-weight:800;letter-spacing:-0.0499817432827516em">winter</text></g></g></g></g></svg>