<svg id="Layer_1" data-name="Layer 1" xmlns="http://www.w3.org/2000/svg" viewBox="0 0 342.41 154.47"><title>logo-parity</title><g id="Var3_Black_Transp" data-name="Var3 Black Transp"><g id="Variation-3"><g id="Logotype"><g id="Group-3"><path id="Fill-1" d="M218.27,254.46a28.41,28.41,0,0,0-4.22.29,7.74,7.74,0,0,0-6.84,7.76v16.57c0,4.07,3.34,7.28,7.94,7.64,1.06.08,2.12.12,3.14.12a23.25,23.25,0,0,0,2.82-.11c4.77-.37,7.69-3,8.22-7.42a94,94,0,0,0,0-17.43c-.4-3.05-2.35-6.51-6.66-7.12A32.42,32.42,0,0,0,218.27,254.46ZM206.13,307c-2.12,0-6.13-1.15-6.13-5.51V260.16c0-4.17,3.13-7.78,5.23-9.18a21.69,21.69,0,0,1,8.17-2.65,49.71,49.71,0,0,1,5.46-.35,26.77,26.77,0,0,1,6.18.66c6.05,1.4,9.73,5.3,10.94,11.59a28.12,28.12,0,0,1,.43,4.85v1.56c0,3.54.11,7.19-.06,10.78a22.16,22.16,0,0,1-1.3,6.54c-1.81,4.9-5.54,7.91-11.08,8.93a26.47,26.47,0,0,1-4.78.43A30.36,30.36,0,0,1,215,293a11.18,11.18,0,0,1-8.1-4.61V307Z" transform="translate(-57.64 -152.53)" style="fill:#f1f3f2"/></g><g id="Group-6"><path id="Fill-4" d="M371.48,306.83a5.08,5.08,0,0,1-.87-.05l-1-.16,6.14-14.78c.45-1.09,1-2.67.59-3.68-3.68-9.13-7.2-17.92-10.79-26.9l-3.5-8.74c-.62-1.56-1-2.64-.45-3.42s1.7-.8,3.3-.8c2.34,0,3,1.2,3.58,2.66.84,2.1,10.37,26.15,12.15,30.54l12.18-30.29c.84-2.05,2.26-3.18,4-3.18a5,5,0,0,1,1.9.41,1.76,1.76,0,0,1,1.29,2.13,1.52,1.52,0,0,1-.06.2l-20.47,50.72a8.4,8.4,0,0,1-7.94,5.34" transform="translate(-57.64 -152.53)" style="fill:#f1f3f2"/></g><path id="Fill-7" d="M261.68,272.35c-2.72,0-5.08.08-6.81.24-4.44.4-6.14,2.06-6.27,6.12,0,.84,0,1.67,0,2.51.24,3.41,2.23,5.36,5.61,5.5,1.25,0,2.29.07,3.27.07s2,0,3-.08a11,11,0,0,0,8.92-5.18c1.38-2,1.33-4.29,1.28-6.67v-1.21a6,6,0,0,0-.05-.95,6.65,6.65,0,0,0-1-.11C267.38,272.44,264.45,272.35,261.68,272.35Zm14.93,20.91c-2.06,0-5.94-1.16-5.94-5.55v-.29l-.11.12c-2.17,3.24-6.61,5.52-11.07,5.68h-1.92a37.81,37.81,0,0,1-5.82-.42,11.07,11.07,0,0,1-9.43-8.26,17.15,17.15,0,0,1,0-9.81,10.3,10.3,0,0,1,9.22-7.88,89.85,89.85,0,0,1,10.5-.55c2.65,0,5.35.09,7.6.26h.52a1.67,1.67,0,0,0,.5-.05,6,6,0,0,0,0-1.2,45.9,45.9,0,0,0-.73-6.71c-.4-2-1.77-3.2-4.18-3.76a21.42,21.42,0,0,0-4.85-.56A14.94,14.94,0,0,0,249.46,259a3.6,3.6,0,0,1-2.4,1.51,1.88,1.88,0,0,1-1-.29,15.62,15.62,0,0,1-2.72-2.07c-.46-.44-.66-1.4.28-2.64a19.16,19.16,0,0,1,8.82-6.24,27.24,27.24,0,0,1,8.46-1.22,32.08,32.08,0,0,1,6.63.67,11.14,11.14,0,0,1,9,8.5,29.34,29.34,0,0,1,.88,6.11c.34,8,.06,28.9.05,29.11v.81Z" transform="translate(-57.64 -152.53)" style="fill:#f1f3f2"/><path id="Fill-9" d="M292.51,293.26c-2.08,0-6-1.14-6-5.45V248.13h.83c2.12,0,6.13,1.09,6.13,5.19v.08l.07-.07a21.12,21.12,0,0,1,3.91-3.14,14.35,14.35,0,0,1,7.64-2,20.9,20.9,0,0,1,2.74.18,18,18,0,0,1,4.17.89,2,2,0,0,1,1.47,2.42,2.25,2.25,0,0,1-.08.24,8,8,0,0,1-.88,1.87l-.06.09A1.94,1.94,0,0,1,310.7,255a7.07,7.07,0,0,1-1.38-.2,20.07,20.07,0,0,0-4.37-.51,13.13,13.13,0,0,0-5,.89,23.73,23.73,0,0,0-3.87,2.1,5.89,5.89,0,0,0-2.67,5.51v30.44Z" transform="translate(-57.64 -152.53)" style="fill:#f1f3f2"/><path id="Fill-11" d="M324.88,292.62c-2.09,0-6-1-6-4.91V248h.84a5.85,5.85,0,0,1,6,6v38.62Z" transform="translate(-57.64 -152.53)" style="fill:#f1f3f2"/><path id="Fill-13" d="M345.43,292.62c-2,0-5.78-1-5.78-4.91V255.34h-5c-1,0-1.57-1.16-1.57-2v-3.27c0-.86.52-1.29,1.57-1.29h5V236.52h.83c2,0,5.78.75,5.78,4.91v7.36h9.84c1.43,0,1.73.7,1.73,1.29v3.27c0,.8-.73,2-1.73,2h-9.84v37.27Z" transform="translate(-57.64 -152.53)" style="fill:#f1f3f2"/><path id="Fill-15" d="M322.27,239.4a4.7,4.7,0,1,1,4.75-4.7,4.69,4.69,0,0,1-4.75,4.7" transform="translate(-57.64 -152.53)" style="fill:#f1f3f2"/></g><g id="_11_Line_Logo" data-name=" 11 Line Logo"><g id="Rotated-Red"><g id="Red"><polygon id="Path-2" points="0.49 56.83 0 56.03 89.67 0 90.16 0.8 0.49 56.83" style="fill:#f1f3f2"/><polygon id="Path-2-2" points="5.71 65.17 5.21 64.38 94.88 8.34 95.38 9.14 5.71 65.17" style="fill:#f1f3f2"/><polygon id="Path-2-3" points="10.92 73.51 10.42 72.72 100.09 16.68 100.59 17.48 10.92 73.51" style="fill:#f1f3f2"/><polygon id="Path-2-4" points="16.13 81.85 15.63 81.06 105.3 25.03 105.8 25.82 16.13 81.85" style="fill:#f1f3f2"/><polygon id="Path-2-5" points="21.34 90.19 20.85 89.4 110.52 33.37 111.02 34.16 21.34 90.19" style="fill:#f1f3f2"/><polygon id="Path-2-6" points="26.55 98.54 26.06 97.74 115.73 41.71 116.23 42.5 26.55 98.54" style="fill:#f1f3f2"/><polygon id="Path-2-7" points="31.77 106.88 31.27 106.08 120.94 50.05 121.44 50.85 31.77 106.88" style="fill:#f1f3f2"/><polygon id="Path-2-8" points="36.98 115.22 36.48 114.42 126.15 58.39 126.65 59.19 36.98 115.22" style="fill:#f1f3f2"/><polygon id="Path-2-9" points="42.19 123.56 41.69 122.77 131.37 66.73 131.86 67.53 42.19 123.56" style="fill:#f1f3f2"/><polygon id="Path-2-10" points="47.4 131.9 46.91 131.11 136.58 75.07 137.08 75.87 47.4 131.9" style="fill:#f1f3f2"/><polygon id="Path-2-11" points="52.62 140.24 52.12 139.45 141.79 83.42 142.29 84.21 52.62 140.24" style="fill:#f1f3f2"/></g></g><polygon points="38.16 62.29 66.4 44.64 64.63 44.64 38.16 61.18 38.16 62.29" style="fill:#f1f3f2"/><polygon points="38.16 50.69 47.84 44.64 46.07 44.64 38.16 49.58 38.16 50.69" style="fill:#f1f3f2"/><polygon points="72.04 64.32 103.52 44.64 101.76 44.64 70.27 64.32 72.04 64.32" style="fill:#f1f3f2"/><polygon points="53.48 64.32 84.96 44.64 83.19 44.64 51.71 64.32 53.48 64.32" style="fill:#f1f3f2"/><polygon points="90.6 64.32 104.54 55.61 104.54 54.5 88.83 64.32 90.6 64.32" style="fill:#f1f3f2"/><polygon points="91.18 98.75 104.56 90.39 104.56 89.28 89.41 98.75 91.18 98.75" style="fill:#f1f3f2"/><polygon points="72.62 98.75 104.1 79.08 102.33 79.08 70.85 98.75 72.62 98.75" style="fill:#f1f3f2"/><polygon points="54.06 98.75 85.54 79.08 83.77 79.08 52.29 98.75 54.06 98.75" style="fill:#f1f3f2"/><polygon points="38.16 97.08 66.98 79.08 65.21 79.08 38.16 95.98 38.16 97.08" style="fill:#f1f3f2"/><polygon points="38.16 85.48 48.42 79.08 46.65 79.08 38.16 84.38 38.16 85.48" style="fill:#f1f3f2"/></g></g></g></svg>