<?xml version="1.0" encoding="UTF-8"?>
<svg width="162px" height="186px" viewBox="0 0 162 186" version="1.1" xmlns="http://www.w3.org/2000/svg" xmlns:xlink="http://www.w3.org/1999/xlink">
    <!-- Generator: Sketch 60.1 (88133) - https://sketch.com -->
    <title>popup-right-mobile</title>
    <desc>Created with Sketch.</desc>
    <defs>
        <radialGradient cx="49.9788851%" cy="112.531224%" fx="49.9788851%" fy="112.531224%" r="91.8285473%" id="radialGradient-1">
            <stop stop-color="#087984" offset="1%"></stop>
            <stop stop-color="#09707E" offset="13%"></stop>
            <stop stop-color="#0D576E" offset="33%"></stop>
            <stop stop-color="#143054" offset="59%"></stop>
            <stop stop-color="#142E53" offset="60%"></stop>
            <stop stop-color="#122645" offset="66%"></stop>
            <stop stop-color="#0F192C" offset="79%"></stop>
            <stop stop-color="#0E111D" offset="90%"></stop>
            <stop stop-color="#0D0E18" offset="100%"></stop>
        </radialGradient>
        <radialGradient cx="48.5116726%" cy="112.671082%" fx="48.5116726%" fy="112.671082%" r="300.318456%" gradientTransform="translate(0.485117,1.126711),scale(0.296296,1.000000),translate(-0.485117,-1.126711)" id="radialGradient-2">
            <stop stop-color="#087984" offset="1%"></stop>
            <stop stop-color="#09707E" offset="13%"></stop>
            <stop stop-color="#0D576E" offset="33%"></stop>
            <stop stop-color="#143054" offset="59%"></stop>
            <stop stop-color="#142E53" offset="60%"></stop>
            <stop stop-color="#122645" offset="66%"></stop>
            <stop stop-color="#0F192C" offset="79%"></stop>
            <stop stop-color="#0E111D" offset="90%"></stop>
            <stop stop-color="#0D0E18" offset="100%"></stop>
        </radialGradient>
    </defs>
    <g id="Page-1" stroke="none" stroke-width="1" fill="none" fill-rule="evenodd">
        <g id="Pop-up-Copy" transform="translate(-121.000000, -600.000000)" fill-rule="nonzero">
            <g id="popup-right-mobile" transform="translate(121.000000, 600.000000)">
                <polygon id="Path" fill="url(#radialGradient-1)" points="41.4045608 114.73751 48.6543497 111 72 143.858035 45.786951 146 37 136.266445"></polygon>
                <path d="M68,79.2075055 C68.3633617,78.2679912 68,69 68,69 L118.084592,69 L122,77.5403974 C122,77.5403974 118.084592,85 117.216973,85 C116.349355,85 68,79.2075055 68,79.2075055 Z" id="Path" fill="url(#radialGradient-2)"></path>
                <path d="M59.0715016,29 C53.1662746,26.2814533 51.904964,3.55138259 67.6211809,7.44796614 C67.6211809,7.44796614 78.22049,10.7706343 72.0931004,18.0200921 C68.3501128,22.4041159 63.9514452,26.1131048 59.0715016,29 L59.0715016,29 Z" id="Path" fill="#8B594C"></path>
                <path d="M67.5530544,74.721245 C57.213952,83.5048569 27.9838323,124.69646 52.6278215,141.968931 C77.2718108,159.241403 110.593261,179.00453 126.899503,160.663582 C148.78886,136.044415 145.059398,103.024813 135.082164,88.6851246 C125.10493,74.3454361 124.994154,72.4737604 122.357683,71 C103.717758,83.8290841 74.5984143,79.444647 67.5530544,74.721245 Z" id="Path" fill="#BD816A"></path>
                <path d="M66,75 C56.4206408,75 22.2812784,75.2607109 15.8410016,83.3427486 C9.40072471,91.4247864 10.8671035,102.374644 21.6991482,104.743389 C29.4142167,106.426836 48.4181915,99.3280509 49.4277086,97.9574565 C53.3552459,90.3744939 65.8747315,75 66,75 Z" id="Path" fill="#A86E5D"></path>
                <path d="M108.283536,88.0902024 C103.766548,91.3971951 101.894511,97.2646229 103.654303,102.599371 C105.415741,107.565155 110.030417,110.868353 114.535914,113.585617 C119.194262,116.383448 127.506502,120.22131 127.506502,126.673898 C127.506502,134.532726 128.663811,155.194193 144.574982,150.243058 C151.635292,148.045809 158.608257,143.87836 160.44976,136.173339 C162.393165,128.014221 158.826617,118.888312 155.398364,111.600769 C151.300473,102.906986 145.07721,93.7224846 137.245362,87.98034 C130.25784,82.8387768 116.013483,82.4725686 108.283536,88.0902024 Z" id="Path" fill="#A86E5D"></path>
                <path d="M44.6394844,110.994091 C38.121083,111.884817 31.9852515,117.876971 30.8890418,119.194656 C29.7928321,120.512341 30.8890418,122.264346 30.8890418,122.264346 C30.8890418,122.264346 26.2834896,105.156526 15.3213925,106.032529 C4.35929545,106.908532 1.9608769,113.916555 1.08538056,122.691306 C0.209884212,131.466057 5.89693189,169.649475 26.0627762,163.289253 C45.926979,157.03209 41.0492137,149.302653 49.5246068,146.836594 L58,144.355813 C58,144.355813 49.9071767,143.914131 45.073554,132.202194 C40.2399313,120.490257 44.6394844,110.994091 44.6394844,110.994091 Z" id="Path" fill="#A86E5D"></path>
                <path d="M15.9662441,164.253669 C23.7494036,168.689118 21.9189768,152.034006 21.5498151,148.995723 C20.4500208,139.762596 18.619594,124.600751 11.8439383,117.378361 C6.06040481,111.213086 0,118.331983 0,124.031535 C0,124.068497 1.12286688,155.848492 15.9662441,164.253669 Z" id="Path" fill="#774030"></path>
                <path d="M136,46.2515729 C136,67.7933139 116.294977,79 92.0073912,79 C67.7198051,79 48,67.77134 48,46.229599 C48,24.687858 67.6902402,1 92.0073912,1 C116.324542,1 136,24.7025073 136,46.2515729 Z" id="Path" fill="#BD816A"></path>
                <ellipse id="Oval" fill="#774030" cx="76" cy="49" rx="7" ry="4"></ellipse>
                <path d="M76.7431341,53 C76.1523427,55.0632201 75.7756061,57.1335303 75.4074317,59.2038405 C75.0392573,61.2741507 74.7481427,63.351551 74.5512122,65.4289513 C74.3119725,67.4976812 74.2347512,69.5770683 74.3200329,71.654062 C74.3675937,72.6777689 74.542619,73.6946777 74.8423268,74.6886263 C75.0587511,75.7060308 75.8655065,76.570255 77,77 C76.3469389,76.9358854 75.7413388,76.6851456 75.287561,76.2909897 C74.8303079,75.874363 74.4651304,75.3943744 74.2087244,74.872969 C73.7186729,73.8663655 73.3932831,72.8100427 73.2411963,71.7320532 C72.9478285,69.6130171 72.9220023,67.4744305 73.1641365,65.3509601 C73.3928611,63.2328642 73.7904432,61.129607 74.3542817,59.0549483 C74.8600208,56.9658156 75.6618548,54.9334324 76.7431341,53 Z" id="Path" fill="#774030"></path>
                <path d="M95,0 C91.7481799,3.95151855 88.9199094,8.2319084 86.5614407,12.7711702 C85.380001,15.0253571 84.3229849,17.342327 83.3951271,19.7117018 C82.4737963,22.0991721 81.6743939,24.5317288 81,27 C81.2012356,24.4186846 81.6988449,21.8689628 82.4830508,19.4009318 C83.2614519,16.9224811 84.2538734,14.5160896 85.4491525,12.2088243 C86.6566674,9.9058101 88.055639,7.7079168 89.6313559,5.63825706 C91.2008119,3.56174566 93.0019434,1.67016142 95,0 L95,0 Z" id="Path" fill="#774030"></path>
                <path d="M81,10.4749655 C81.7820515,9.74477201 82.7378773,9.28595587 83.75,9.15490879 C84.7394094,8.97334674 85.7469853,8.9512579 86.742,9.0893159 C87.749735,9.20489097 88.7375102,9.4809891 89.6753333,9.90922692 C90.1467166,10.1193645 90.5926462,10.394821 91.0026667,10.7291379 C91.4256594,11.0519298 91.7687458,11.4891112 92,12 C91.1982629,11.4481825 90.3097023,11.0725026 89.382,10.8931201 C88.48,10.6717442 87.556,10.5241602 86.632,10.4011735 C85.7046311,10.2744074 84.7720903,10.2005197 83.838,10.1797976 C82.8844209,10.1345408 81.9297512,10.2338318 81,10.4749655 L81,10.4749655 Z" id="Path" fill="#774030"></path>
                <path d="M81,13.5903579 C81.546376,12.8259742 82.2523055,12.3316096 83.0129032,12.1807158 C83.7418304,11.9822164 84.4882416,11.9469816 85.2248848,12.0762978 C85.9611748,12.1860839 86.6804504,12.4610043 87.3557604,12.8907577 C87.6982394,13.1125118 88.0201635,13.3930649 88.3142857,13.7261012 C88.6189432,14.0565972 88.8556848,14.4964084 89,15 C88.3891853,14.5769452 87.73453,14.2949369 87.0608295,14.1646565 C86.4046083,14.0080296 85.7483871,13.8827281 85.0847926,13.7678684 C84.4211982,13.6530086 83.7502304,13.5381489 83.0571429,13.5381489 C82.3721994,13.4468545 81.6821937,13.4643664 81,13.5903579 L81,13.5903579 Z" id="Path" fill="#774030"></path>
                <path d="M114,14.5932873 C114.309334,12.2935697 115.473018,9.85145478 117.734102,8.76211487 C123.125349,6.1420032 131.926634,10.6987191 133.635335,16.0243809 C135.182005,20.8730115 131.779332,26.8821806 123.987065,28 C123.987065,28 116.408385,20.3746207 114,14.5932873 Z" id="Path" fill="#A86E5D"></path>
                <path d="M131,20 C130.188379,19.1915214 129.291103,18.4718543 128.323689,17.8534459 C127.400119,17.2456499 126.397655,16.7642707 125.34358,16.4224099 C124.318158,16.0898856 123.228812,15.9968214 122.16094,16.150513 C121.04131,16.3507891 119.969306,16.7560336 119,17.3454281 C119.731028,16.3578694 120.762821,15.6281149 121.943942,15.2632707 C123.167928,14.8981489 124.47567,14.9131329 125.690778,15.3062018 C126.883017,15.6767396 127.980766,16.2965553 128.909584,17.1236175 C129.826971,17.9049978 130.543467,18.8908865 131,20 L131,20 Z" id="Path" fill="#774030"></path>
                <path d="M122.091549,22.1636114 C123.001131,22.9847185 123.968439,23.7385436 124.985915,24.4191965 C125.214066,24.5481343 125.449172,24.6641671 125.690141,24.7667552 C125.881012,24.8423192 126.083689,24.8831468 126.288732,24.8873368 C126.612769,24.8915411 126.918167,24.7350898 127.105634,24.4688477 C127.435785,24.0879761 127.704332,23.6571173 127.901408,23.1921015 C128.147887,22.6743099 128.34507,22.1210532 128.56338,21.5465174 C128.978873,20.3974458 129.359155,19.1916298 129.887324,18 L130,18 C129.895017,19.2685383 129.709188,20.5289682 129.443662,21.7734945 C129.232631,23.0465555 128.717889,24.2489795 127.943662,25.2774537 C127.504291,25.7982523 126.836129,26.0642524 126.161972,25.9867572 C125.523827,25.8695562 124.928251,25.5830875 124.43662,25.1568721 C123.467233,24.3275023 122.643499,23.3395668 122,22.2345418 L122.091549,22.1636114 Z" id="Path" fill="#774030"></path>
                <circle id="Oval" fill="#774030" cx="100.5" cy="35.5" r="1"></circle>
                <circle id="Oval" fill="#774030" cx="107.5" cy="38.5" r="1"></circle>
                <circle id="Oval" fill="#774030" cx="99.5" cy="41.5" r="1"></circle>
                <circle id="Oval" fill="#774030" cx="103.5" cy="42.5" r="1"></circle>
                <path d="M103.000225,46.9999789 C99.0974016,46.9999789 95.7642466,44.1836401 95.1129246,40.3355117 C94.4616026,36.4873832 96.6822651,32.7309601 100.367716,31.4466243 C104.053166,30.1622884 108.127449,31.724998 110.008758,35.1444903 C111.890068,38.5639827 111.029163,42.8419468 107.971583,45.2675091 L107.971583,45.2675091 C106.558856,46.3920186 104.805852,47.0029198 103.000225,46.9999789 L103.000225,46.9999789 Z M103.000225,32.2213381 C99.8394499,32.2264041 97.1016184,34.415151 96.4007337,37.4972716 C95.699849,40.5793923 97.2219296,43.7368759 100.069681,45.1083269 C102.917431,46.479778 106.335045,45.7012063 108.307774,43.2315943 C110.280503,40.7619824 110.284775,37.2567781 108.318072,34.7823647 C107.030678,33.1517256 105.062683,32.2066343 102.985161,32.2213381 L103.000225,32.2213381 Z" id="Shape" fill="#774030"></path>
                <path d="M100.034242,36.0522354 C100.257545,35.9825882 100.495779,35.9825882 100.719082,36.0522354 C100.925682,36.1012099 101.127435,36.1698976 101.321741,36.2574138 C101.668014,36.4204313 101.99069,36.6323516 102.280517,36.8870992 C102.817181,37.3637317 103.247143,37.9551879 103.540623,38.6205028 C103.835304,39.2871694 103.991605,40.0101938 103.999465,40.7430378 C104.012544,41.546595 103.785347,42.3347557 103.348867,43 L103.177657,43 C103.057143,42.3686985 102.901657,41.7450629 102.711966,41.1321692 C102.523919,40.5221953 102.295088,39.9264519 102.027126,39.3492398 C101.776452,38.7594318 101.488186,38.1874503 101.164228,37.6370615 C101.000264,37.3676165 100.821931,37.1077949 100.630053,36.8587987 C100.472124,36.6033024 100.255739,36.3919032 100,36.2432635 L100.034242,36.0522354 Z" id="Path" fill="#8B594C"></path>
                <path d="M106.932375,38.6163928 C106.550403,38.7371856 106.179034,38.9009625 105.823331,39.1054924 C105.498732,39.273871 105.214708,39.4502676 104.930685,39.6186461 C104.362637,39.9473852 103.82164,40.2600883 103.253593,40.5487372 C102.656609,40.851882 102.047228,41.119483 101.427726,41.3505399 C100.678418,41.6636855 99.9031312,41.8813981 99.114962,42 L99,41.8636935 C99.501141,41.2043108 100.056117,40.6053824 100.656805,40.0756736 C101.259764,39.547302 101.908038,39.0957957 102.590871,38.7286452 C103.287069,38.3749724 104.022797,38.1427117 104.775148,38.0390949 C105.15257,37.9869684 105.53382,37.9869684 105.911243,38.0390949 C106.290277,38.0961793 106.658409,38.2290217 107,38.4319782 L106.932375,38.6163928 Z" id="Path" fill="#8B594C"></path>
                <ellipse id="Oval" fill="#774030" transform="translate(59.754976, 33.754555) rotate(-89.070000) translate(-59.754976, -33.754555) " cx="59.7549762" cy="33.7545547" rx="1" ry="1"></ellipse>
                <ellipse id="Oval" fill="#774030" transform="translate(64.725455, 30.190655) rotate(-89.070000) translate(-64.725455, -30.190655) " cx="64.7254555" cy="30.1906554" rx="1" ry="1"></ellipse>
                <ellipse id="Oval" fill="#774030" transform="translate(63.629918, 38.238218) rotate(-88.854237) translate(-63.629918, -38.238218) " cx="63.6299182" cy="38.2382182" rx="1" ry="1"></ellipse>
                <ellipse id="Oval" fill="#774030" transform="translate(65.525843, 35.257483) rotate(-89.070000) translate(-65.525843, -35.257483) " cx="65.5258432" cy="35.2574832" rx="1" ry="1"></ellipse>
                <path d="M62.9784722,40 L62.892361,40 C59.5842551,39.9441161 56.9435111,36.9892531 57.0009185,33.4056959 C57.058326,29.8221386 59.7564775,27 63.0215278,27 L63.107639,27 C66.4157449,27.0488984 69.0564889,30.0107469 68.9990815,33.5943041 C68.941674,37.1778614 66.2435225,40 62.9784722,40 Z M63.0215278,28.1246642 C60.3951357,28.1246642 58.2280034,30.4787749 58.1777718,33.4056959 C58.1275403,36.3326169 60.251617,38.7984954 62.9138888,38.8404084 L62.9784722,38.8404084 C65.6048643,38.8404084 67.7719966,36.4862977 67.8222282,33.5593767 C67.8724597,30.6324557 65.748383,28.1665771 63.0861112,28.1246642 L63.0215278,28.1246642 Z" id="Shape" fill="#774030"></path>
                <path d="M60,32.804389 C60.4114964,32.3274221 60.903721,32.0555869 61.4135802,32.0237273 C61.8703767,31.9585182 62.3308614,32.0280046 62.7716049,32.228651 C63.2140117,32.4174168 63.6319217,32.7279218 64.0061728,33.1459285 C64.418247,33.582848 64.7588536,34.1681137 65,34.8536259 L64.962963,35 C64.1481481,34.5706361 63.345679,34.0924808 62.4938272,33.7606995 C62.0864198,33.5752924 61.6728395,33.4094018 61.2592593,33.272786 C60.8516511,33.1354281 60.4394771,33.034433 60.0246914,32.9702796 L60,32.804389 Z" id="Path" fill="#8B594C"></path>
                <path d="M65,30.1326829 C64.6299752,30.7535872 64.3179691,31.4038609 64.0675355,32.0760976 C63.8612381,32.684878 63.6962001,33.262439 63.539414,33.8712195 C63.382628,34.48 63.2588495,35.12 63.0773077,35.7990244 C62.920674,36.5483894 62.6998963,37.2844719 62.4171559,38 L62.2851255,38 C62.1171677,37.2712778 62.0232192,36.5290425 62.004561,35.7834146 C61.9799798,35.0334689 62.0548297,34.2835646 62.2273622,33.5512195 C62.4105208,32.8161339 62.7319598,32.1181957 63.1763305,31.4907317 C63.6142847,30.8540934 64.22388,30.3394891 64.9422367,30 L65,30.1326829 Z" id="Path" fill="#8B594C"></path>
                <path d="M85.8769271,150.320156 C81.1611675,140.208614 73.4748506,137.75486 72.9995615,137.932775 C98.5240746,128.21413 100.789125,123.966393 107.287219,125.211803 C114.958683,126.694433 120.27598,128.451351 122.340517,137.880883 C124.405055,147.310416 121.746406,166.747706 112.604516,167.629872 C103.462626,168.512037 92.7908991,176.755465 85.8695008,183.827614 C78.9481024,190.899763 53.8023352,180.454629 51.2179504,156.139483 C50.5718542,150.031043 51.076849,142.469626 56.7134813,138.71857 C66.776244,132.031905 80.6561728,141.565221 85.8769271,150.320156 Z" id="Path" fill="#A86E5D"></path>
                <path d="M51,155.723607 C52.0403341,148.248422 54.6299428,138.851465 64.4120772,144.974832 C74.1942117,151.098199 82.8536834,187.180761 71.8964953,182.599197 C50.2964647,173.58221 51.0074844,155.723607 51.0074844,155.723607" id="Path" fill="#774030"></path>
                <g id="Group" opacity="0.1" style="mix-blend-mode: multiply;" fill="#3E62AD">
                    <path d="M155.637818,111.776443 C151.492091,103.049881 145.196182,93.830751 137.272909,88.0669565 C135.798948,87.0343472 134.184714,86.2173894 132.479182,85.6408696 C124.762091,74.3191304 124.467545,72.6208696 122.052273,71.2828458 C103.466455,84.0896443 74.4316364,79.715336 67.4067273,75.0028458 C67.0606364,75.296917 66.6703636,75.627747 66.3095455,75.995336 C66.3095455,75.9585771 66.3610909,75.9365217 66.3684545,75.9365217 C56.7957273,75.9365217 22.68,76.193834 16.2441818,84.1705138 C9.80836364,92.1471937 11.2737273,102.954308 22.0982727,105.292174 C29.808,106.953676 48.7988182,99.9474308 49.8076364,98.5947036 C50.4703636,97.3375494 51.3760909,95.8524901 52.4290909,94.2645059 C43.1214545,110.129644 36.7445455,131.023399 52.5248182,142.095178 L53.5630909,142.830356 C53.4231818,143.072964 53.2832727,143.315573 53.1507273,143.565534 C50.5292727,141.999605 47.2598182,138.96332 44.8519091,133.118656 C39.9845455,121.421976 44.4174545,111.93083 44.4174545,111.93083 C37.8932727,112.820395 31.752,118.804743 30.6548182,120.120711 C30.2949003,120.550725 30.1225156,121.106763 30.1761818,121.664585 C28.7034545,117.496126 24.0275455,106.262609 15.0733636,106.961028 C5.01463636,107.762372 2.16490909,113.70996 1.08245455,121.444032 C0.914174196,122.149827 0.827697731,122.872593 0.824727273,123.598103 C0.0883636364,130.744032 3.77018182,157.453043 16.1116364,163.584427 L16.1116364,163.584427 C16.5983079,163.8856 17.1303969,164.106533 17.6874545,164.238735 C20.3418512,165.082024 23.1978265,165.048509 25.8316364,164.143162 C45.6766364,157.89415 40.824,150.174783 49.3069091,147.711937 L51.9651818,146.932648 C51.3263259,150.030498 51.2019399,153.212136 51.597,156.350277 L51.597,156.350277 C51.597,156.350277 51.273,164.973913 58.1285455,173.259368 C66.7071818,184.867826 81.0220909,188.830435 85.9557273,183.779763 C92.34,177.251383 101.942182,169.71581 110.557636,168.002846 C116.772545,167.73083 122.265818,165.554704 126.580909,160.709881 C129.611323,157.299806 132.267536,153.575759 134.504182,149.601344 C136.956273,151.329012 140.255182,151.909802 144.688091,150.542372 C151.830818,148.336838 158.885182,144.153676 160.748182,136.419605 C162.714273,128.281186 159.106091,119.091462 155.637818,111.776443 Z" id="Path"></path>
                    <path d="M76.1694545,77.2818972 L76.2651818,77.2818972 L76.2651818,77.2818972 C81.3955331,78.4679102 86.6468989,79.0526488 91.9129091,79.0242688 C116.124545,79.0242688 135.756,67.7539921 135.756,46.1324111 C135.644709,39.2284478 133.890544,32.4498794 130.638273,26.3561265 C133.552261,24.0936406 134.808859,20.2979704 133.819364,16.7473518 C132.111,11.2482213 123.311455,6.543083 117.921273,9.24853755 C117.59525,9.41575247 117.286883,9.6152527 117.000818,9.84403162 C110.432455,4.69778656 102.546,1.26450593 94.0115455,0.779288538 L94.0483636,0.71312253 L93.9820909,0.779288538 C93.2972727,0.779288538 92.6050909,0.71312253 91.9129091,0.71312253 C84.0904538,0.792070542 76.4651008,3.17291425 69.9913636,7.55762846 C69.3064253,7.21962608 68.597622,6.93213841 67.8706364,6.69747036 C55.9636364,3.90379447 53.541,15.1520158 55.5070909,22.3420553 C50.8090909,29.693834 48.0698043,38.0528063 48.0698043,46.1324111 C48.0550909,62.8503557 59.7264545,73.3339921 76.1694545,77.2818972 Z" id="Path"></path>
                </g>
            </g>
        </g>
    </g>
</svg>