<?xml version="1.0" encoding="UTF-8"?>
<svg width="197px" height="317px" viewBox="0 0 197 317" version="1.1" xmlns="http://www.w3.org/2000/svg" xmlns:xlink="http://www.w3.org/1999/xlink">
    <!-- Generator: Sketch 60.1 (88133) - https://sketch.com -->
    <title>popup-left-desktop</title>
    <desc>Created with Sketch.</desc>
    <defs>
        <linearGradient x1="4121.97942%" y1="167.298578%" x2="4121.97942%" y2="67.3059834%" id="linearGradient-1">
            <stop stop-color="#456FB6" offset="0%"></stop>
            <stop stop-color="#5DC9DF" offset="100%"></stop>
        </linearGradient>
        <linearGradient x1="50%" y1="100%" x2="50%" y2="0%" id="linearGradient-2">
            <stop stop-color="#327FA5" offset="0%"></stop>
            <stop stop-color="#479CBD" offset="99.3032095%"></stop>
        </linearGradient>
        <linearGradient x1="50%" y1="100%" x2="50%" y2="0%" id="linearGradient-3">
            <stop stop-color="#327FA5" offset="0%"></stop>
            <stop stop-color="#5DC9DF" offset="100%"></stop>
        </linearGradient>
        <linearGradient x1="50%" y1="100%" x2="50%" y2="0%" id="linearGradient-4">
            <stop stop-color="#479CBD" offset="0%"></stop>
            <stop stop-color="#5DC9DF" offset="100%"></stop>
        </linearGradient>
        <linearGradient x1="50%" y1="100%" x2="50%" y2="0%" id="linearGradient-5">
            <stop stop-color="#479CBD" offset="0%"></stop>
            <stop stop-color="#5DC9DF" offset="100%"></stop>
        </linearGradient>
    </defs>
    <g id="Page-1" stroke="none" stroke-width="1" fill="none" fill-rule="evenodd">
        <g id="Pop-up-Copy" transform="translate(-462.000000, -462.000000)" fill-rule="nonzero">
            <g id="Group-4">
                <g id="Group">
                    <g id="popup-left-desktop" transform="translate(462.000000, 462.000000)">
                        <polygon id="Path" fill="url(#linearGradient-1)" points="79 308 82.2720112 238.856635 79 224.438537 86.7183331 174 139.070512 235.363744 151.094651 257.869076 158 307.841232"></polygon>
                        <polygon id="Path" fill="#7BCFDF" points="139.046149 235.623807 151 258 127.251949 255.523622 126.433739 224.76129 87 174.612176 93.0567509 135"></polygon>
                        <polygon id="Path" fill="#48C6E8" points="175.934673 306 177 304.681319 166.698492 296.818071 157.41206 296.818071 129.824121 280.876679 115.653266 286.561661 81.9246231 266 81 267.416361 115.492462 288.446886 129.683417 282.752137 156.939698 298.498168 166.095477 298.498168"></polygon>
                        <polygon id="Path" fill="#794EA0" opacity="0.3" style="mix-blend-mode: multiply;" points="127.582168 255.102244 131 300.738155 125.472028 286.46384 116.922494 306.354115 80 308 83.0611888 242.174564 83.0611888 242.174564 126.769814 224"></polygon>
                        <polygon id="Path" fill="#794EA0" opacity="0.3" style="mix-blend-mode: multiply;" points="172 236.578072 167.157968 305.637719 158.470497 308 151.54468 258.224076 139.4849 235.807119 127.767384 208.942353 107 165.235217 153.427133 135"></polygon>
                        <polygon id="Path" fill="url(#linearGradient-2)" points="17.7837128 290.028641 3.47416813 132.148572 0 73.3495345 6.132662 48 12.9400175 48 38.3467601 87.1828547 46 170.915536 46 299 26.9172504 296.742307"></polygon>
                        <polygon id="Path" fill="url(#linearGradient-3)" points="17 148.056534 36.6885602 46.2053306 53.4958678 48.0124636 63.1600696 0 92.2127012 19.8587134 105.878643 72.8975744 109.320139 140.49225 134.751196 155.472692 155 300.823464 89.6637542 312.196725 26.6842105 296.073567"></polygon>
                        <polygon id="Path" fill="#7BCFDF" points="37 46 55.3050098 71.6182302 72.6232809 95.0355135 78 113 77.828831 90.0883397 71.4150295 81.6018053 53.9155206 47.8142942"></polygon>
                        <polygon id="Path" fill="#77E1F2" points="63 0 77.188993 30.9819832 82.506089 58.3050664 94.0264637 66.9282037 106 73 92.2440281 19.8866161"></polygon>
                        <polygon id="Path" fill="#77E1F2" points="6.5081035 47.8168781 2 66.7402096 10.5285755 77.5620518 29.5760591 82 34.0941143 80.4511859 37 46"></polygon>
                        <polygon id="Path" fill="#479CBD" opacity="0.3" style="mix-blend-mode: multiply;" points="37.6352241 173.157282 50.3284376 205.123458 63.151684 263.08813 78.8556597 275.953774 73.6743479 185.557783 82.526589 161.330786 96 210.012402 89.6637542 312.196725 26.6824513 296.340871 17 148"></polygon>
                        <polygon id="Path" fill="url(#linearGradient-4)" points="136.088526 309.913583 126 194.890269 155.454891 122 162.871159 125.597567 179.965605 194.28738 197 317 161.5 315.517486"></polygon>
                        <polygon id="Path" fill="url(#linearGradient-5)" points="83 239.943301 86.0517193 228.680848 106.993517 191.922412 109.524944 186 126.024239 187.756982 146.45575 252.488943 154 313.939836 136.109921 309.403321 114.207582 315 89.6637542 312.196725"></polygon>
                        <polygon id="Path" fill="#77E1F2" points="88.8910513 182.78197 86 228.260572 112.549654 249 119.162059 226.907572 141 229.732084 125.964533 187.315016 105.136959 171"></polygon>
                        <polygon id="Path" fill="#77E1F2" points="155.524397 121 146 144.55959 149.97766 166.984609 150.767196 171.414365 170.73545 196 180 193.158642 162.930041 124.59116"></polygon>
                        <polygon id="Path" fill="#77E1F2" points="109.096986 126 86.9714941 154.386774 85.8922018 170.829659 74 186 82.8442005 161.470942 117.631389 167.122244 135 155.488978"></polygon>
                        <polygon id="Path" fill="#327FA5" opacity="0.3" style="mix-blend-mode: multiply;" points="53 48.1982652 62.7616842 0 77 31.0582404 65.3789474 72"></polygon>
                        <polygon id="Path" fill="#327FA5" opacity="0.3" style="mix-blend-mode: multiply;" points="150.190454 171.916007 162.256629 243.171242 170 231.690903 160.898317 315 153.026055 311.420428 149.109753 254.176943 127 191.138902 145.461148 145"></polygon>
                        <polygon id="Path" fill="#327FA5" opacity="0.3" style="mix-blend-mode: multiply;" points="112 248.848599 112 307.542371 101.19973 280.260489 89.5272051 312 83 239.327739 85.9891855 228"></polygon>
                        <polygon id="Path" fill="#77E1F2" opacity="0.3" style="mix-blend-mode: multiply;" points="83 59.2572513 81.9666269 96.0441821 80.8015495 149 77.8230036 113.91973 77.6507747 91.1215008 66 72.7428331 77.6507747 32"></polygon>
                        <path d="M88,204 C81.1294299,198.837671 77.7241911,197.551851 75.1702619,197.551851 L75.1702619,197.551851 C73.308206,197.789327 71.4622529,198.129612 69.6417565,198.570982 C61.3189522,200.342557 47.3775039,203.333279 38.7442219,200.704491 C27.2365177,197.247064 22.8798151,197.247064 21.2473035,197.847113 C19.2442219,198.599556 10.5708783,199.752032 10.2303544,199.809179 L10,198.304294 C12.2334361,197.999507 19.0939908,196.999425 20.6563945,196.399375 C23.4306626,195.380244 29.4899846,196.304129 39.2149461,199.256753 C47.4476117,201.723622 61.1186441,198.828146 69.261171,197.094671 C71.1725181,196.627883 73.112588,196.274789 75.0701079,196.037441 L75.1402157,196.037441 C79.0362096,196.037441 84.9553159,199.971097 88,202.266524 L88,204 Z" id="Path" fill="#77E1F2"></path>
                        <path d="M191.324882,286.974525 C186.159097,286.974525 173.099192,284.486838 164.87406,282.808868 L151.954583,277.93105 L112.423795,277.93105 C110.207021,277.93105 89.4536082,267.843721 85.2106436,265.775526 L85,264 C94.5692393,268.67295 110.79883,276.262836 112.433826,276.360392 L152.395932,276.418926 L165.325439,281.296744 C177.442463,283.755165 191.314851,285.881894 192.779326,285.267289 L193,286.857457 C192.453091,286.99223 191.885984,287.031863 191.324882,286.974525 L191.324882,286.974525 Z" id="Path" fill="#77E1F2"></path>
                        <path d="M183,218 C182.908549,218 173.804135,214.296432 170.65417,213.360476 C167.321303,212.354071 156.022074,200.57914 154.528381,199.019213 L154,196 C159.52768,201.786825 168.926769,211.176578 171.121584,211.830741 C174.342677,212.786825 182.298879,215.987191 182.664681,216.138152 L183,218 Z" id="Path" fill="#48C6E8"></path>
                    </g>
                </g>
            </g>
        </g>
    </g>
</svg>