<svg id="Layer_1" data-name="Layer 1" xmlns="http://www.w3.org/2000/svg" viewBox="0 0 872.9 183.79"><title>Untitled-4</title><rect width="872.9" height="183.79" rx="29.43" style="fill:#fff;opacity:0.9"/><path d="M191.05,60.86a42.35,42.35,0,0,1-11.82,3.24,20.38,20.38,0,0,0,9-11.34,40.74,40.74,0,0,1-13,5,20.52,20.52,0,0,0-35.49,14,21,21,0,0,0,.47,4.68A58.08,58.08,0,0,1,97.93,55a20.52,20.52,0,0,0,6.3,27.42A20.23,20.23,0,0,1,95,79.87v.23a20.62,20.62,0,0,0,16.44,20.16,20.34,20.34,0,0,1-5.38.68,18.43,18.43,0,0,1-3.88-.35,20.71,20.71,0,0,0,19.17,14.29,41.22,41.22,0,0,1-25.44,8.75,37.77,37.77,0,0,1-4.91-.28,57.78,57.78,0,0,0,31.48,9.21c37.76,0,58.4-31.28,58.4-58.39,0-.91,0-1.78-.08-2.65A40.76,40.76,0,0,0,191.05,60.86Z" style="fill:#29abe2"/><path d="M283.24,71.73l.39-3c0-3-1.16-4.87-3.49-5.72a15,15,0,0,0-4.15-.86h-.1a12.69,12.69,0,0,0-5,.91,7.23,7.23,0,0,0-3.1,2.28,11.81,11.81,0,0,0-2.31,5.9,7.9,7.9,0,0,0,3.29,6.33,32.68,32.68,0,0,0,8,4.65q4.69,2,9.39,4.31a22.21,22.21,0,0,1,8,6.67,16.84,16.84,0,0,1,3.29,10.45q0,11.89-7.5,17.8a26.82,26.82,0,0,1-17,5.9q-9.52,0-15.76-4.3a13.36,13.36,0,0,1-6.24-11.56v-.1a16.29,16.29,0,0,1,1.1-6.24,9.88,9.88,0,0,1,2.67-3.92,10.7,10.7,0,0,1,5.81-2.8l1.15-.1a9.6,9.6,0,0,1,4.94,1.3,4.05,4.05,0,0,1,2.23,3.63,2.29,2.29,0,0,1-1.26,1.94,6.45,6.45,0,0,0-2.18,2.32,6.57,6.57,0,0,0-1,2.61l-.19,1.06q0,5.91,5.42,7.84a9.69,9.69,0,0,0,3.09.68,11.69,11.69,0,0,0,8.56-3.19,11,11,0,0,0,3.24-8.13,11.35,11.35,0,0,0-5-9.58,41.63,41.63,0,0,0-8.17-4.55q-4.41-1.83-5.95-2.61c-1-.52-2.13-1.13-3.29-1.83a27.3,27.3,0,0,1-3.87-3,13.85,13.85,0,0,1-4.65-11,18.09,18.09,0,0,1,3.78-11.65q6.76-8.61,20.32-8.61a24.45,24.45,0,0,1,12.09,2.75c3.29,1.85,4.93,4.37,4.93,7.6a8.65,8.65,0,0,1-2,5.81A6.4,6.4,0,0,1,287.5,74a7.56,7.56,0,0,1-2.86-.57C283.71,73.07,283.24,72.5,283.24,71.73Z" style="fill:#29abe2"/><path d="M314.3,73.37l-.1,9.38c0,.38.13.59.39.59a1.23,1.23,0,0,0,.77-.3C317,82,319.52,81.39,323,81.39q8.79,0,12.19,6a12.09,12.09,0,0,1,1.26,5.91c0,2.45-.15,5.83-.45,10.16s-.43,7.38-.43,9.18q0,9.48,2.71,12.58a1.38,1.38,0,0,1,.48,1c0,.64-1.38,1-4.15,1q-11.24,0-11.23-10.45a48.51,48.51,0,0,1,1.94-11.42,47.74,47.74,0,0,0,1.93-10.84,7.9,7.9,0,0,0-1.64-5.36,5.71,5.71,0,0,0-4.55-1.89,7.49,7.49,0,0,0-4.59,1.26,5.27,5.27,0,0,0-2.09,2.61l-.29,1.26Q314,94.18,314,104a103.4,103.4,0,0,0,.48,12.82c.33,2,.49,3.09.49,3.34q0,2.81-3.78,5a14.74,14.74,0,0,1-7.45,2.18c-.9,0-1.35-.52-1.35-1.55l.19-1.84a271.52,271.52,0,0,0,2.14-35.21q0-7.35-.59-14.9l-.1-2.12a12.62,12.62,0,0,0-1.11-4.65,7,7,0,0,0-1.69-2.52l-.87-.48c-.45-.26-.68-.55-.68-.87,0-.9,1.51-2,4.55-3.34a19.34,19.34,0,0,1,7-2c1.64,0,2.53.35,2.66,1.06Q314.3,63.89,314.3,73.37Z" style="fill:#29abe2"/><path d="M374,96.29l-.2,12.39q0,12.87,2.81,15.48a1.2,1.2,0,0,1,.39.87c0,1-2.08,1.45-6.24,1.45s-6.37-1.23-6.63-3.68c-.07-.58-.1-1.77-.1-3.58l.4-15.47c0-.45-.27-.68-.78-.68a15.83,15.83,0,0,0-8.71,2.61c-2.71,1.74-4.07,4-4.07,6.67a5.56,5.56,0,0,0,1.17,3.58,3.51,3.51,0,0,0,2.85,1.45,5.28,5.28,0,0,0,2.8-.67l1.31-.78c1.1.14,1.65,1.28,1.65,3.44a6.06,6.06,0,0,1-3,5.23,11.33,11.33,0,0,1-6.29,2,12.68,12.68,0,0,1-5.66-1.17,9,9,0,0,1-3.43-2.61,12.72,12.72,0,0,1-1.74-3.29,13.61,13.61,0,0,1-.68-3.87q0-6.76,4.25-10.83A24.53,24.53,0,0,1,355,99c5.86-1.16,8.93-2.22,9.18-3.19a14.3,14.3,0,0,0,.3-3.58c0-3.42-1.74-5.12-5.23-5.12a6.11,6.11,0,0,0-4,1.4A4.31,4.31,0,0,0,353.58,92l.57,2.32c-.12,1.1-1.29,1.74-3.48,1.93l-1.06.11A6.78,6.78,0,0,1,345,94.94a4.85,4.85,0,0,1-1.7-3.87,7.4,7.4,0,0,1,1-3.43,9.31,9.31,0,0,1,2.57-3,15.28,15.28,0,0,1,4.79-2.08,23,23,0,0,1,6.24-.92,41.65,41.65,0,0,1,4.64.2,37.38,37.38,0,0,1,4.5.91,9.61,9.61,0,0,1,4.74,2.76,6.91,6.91,0,0,1,2,4.3Q374,92,374,96.29Z" style="fill:#29abe2"/><path d="M409.4,99.39l.38,3.38c0,1.23-1.16,1.84-3.48,1.84q-7.07,0-7.07-5.32a13.07,13.07,0,0,1,.69-3.48,13.55,13.55,0,0,0,.67-3.87,4.44,4.44,0,0,0-1-2.85,3.41,3.41,0,0,0-2.81-1.21,4.34,4.34,0,0,0-3.15,1.3,5.53,5.53,0,0,0-1.59,2.67l-.39,1.35a60.78,60.78,0,0,0-.57,10c0,4.67.05,8.35.19,11s.25,4.52.38,5.52.2,1.6.2,1.79c0,1.61-1,2.92-3,3.91a13.11,13.11,0,0,1-6,1.5c-2,0-3-.41-3-1.26l.48-3a142.36,142.36,0,0,0,1.36-22q0-13.53-1-18.38c0-.77.68-1.16,2-1.16,3.48,0,5.8,1.2,7,3.58.06.26.18.39.34.39a4,4,0,0,0,1.3-.87A11.57,11.57,0,0,1,399,81.69a14.76,14.76,0,0,1,5.42,1.06q5.5,2.22,5.51,9.29Z" style="fill:#29abe2"/><path d="M444.51,113.61a13.26,13.26,0,0,1-1.5,6.44,11.63,11.63,0,0,1-3.39,4.06,16.13,16.13,0,0,1-4.4,2.08,21.19,21.19,0,0,1-6.09,1q-8.14,0-12-6.1t-3.87-15.53a30,30,0,0,1,4.79-16.78q4.79-7.35,14.37-7.36,8.7,0,11.8,6.1a9.4,9.4,0,0,1,1.26,4.41,23.2,23.2,0,0,1-.19,3.28,15.69,15.69,0,0,1-1.36,3.63,16,16,0,0,1-3.1,4.36,19.12,19.12,0,0,1-6.09,3.67,34.09,34.09,0,0,1-9.78,2.32c-.51,0-.77.23-.77.68a8.1,8.1,0,0,0,.63,2.56,14.38,14.38,0,0,0,1.4,2.86,7.54,7.54,0,0,0,6.29,2.71,10,10,0,0,0,7.06-2.71,11.16,11.16,0,0,0,2.52-3.58,1.18,1.18,0,0,1,1-.78c.42,0,.77.36,1,1.07A5.19,5.19,0,0,1,444.51,113.61Zm-21.09-12.87.09,2.43c0,.38.26.58.78.58a13.56,13.56,0,0,0,5.41-1.6,10.44,10.44,0,0,0,3.49-3,13.88,13.88,0,0,0,2.52-6.2l.09-1.15c0-3.48-1.39-5.23-4.16-5.23a5.92,5.92,0,0,0-5,2.71Q423.42,93.59,423.42,100.74Z" style="fill:#29abe2"/><path d="M476.72,88.85l-3.63.14c-.74,0-1.1-.14-1.1-.53a1.66,1.66,0,0,1,.57-1.16q6.19-5.7,20.9-5.71a28.63,28.63,0,0,1,7.93.87l1,.29c.77.33,1.16.68,1.16,1.07s-.23.57-.68.77a17.41,17.41,0,0,0-5,2.47c-1.61,1.13-2.41,1.92-2.41,2.36l.57.69a11.38,11.38,0,0,1,4.79,5.51,20,20,0,0,1,1.89,6.67l.19,3q0,9.58-5.32,15.77T483,127.25a18.15,18.15,0,0,1-8-1.64,13.51,13.51,0,0,1-5-3.73,17.68,17.68,0,0,1-2.56-4.69,23.62,23.62,0,0,1-1.17-7.4,23.94,23.94,0,0,1,1.31-7.69,16,16,0,0,1,3-5.7,14.48,14.48,0,0,1,3.82-3,9.89,9.89,0,0,1,4.36-1.46c1.09,0,1.64.23,1.64.68l-.58,1a15.12,15.12,0,0,0-3.05,6.58,33.21,33.21,0,0,0-.92,7.2,25.88,25.88,0,0,0,.77,6.24,16.3,16.3,0,0,0,1.74,4.6,7.22,7.22,0,0,0,2.23,2.27,7.06,7.06,0,0,0,3.87,1.16,6.21,6.21,0,0,0,4-1.59,9,9,0,0,0,2.8-4.21,29,29,0,0,0,1.74-10c0-5.41-1.37-9.61-4.11-12.57S482.08,88.85,476.72,88.85Z" style="fill:#29abe2"/><path d="M507.59,126a155,155,0,0,0,1.74-25q0-14.61-.87-19c0-.84,1-1.26,2.9-1.26,3,0,4.93,1.13,5.91,3.39.06.19.22.28.48.28a.76.76,0,0,0,.57-.19q3-3.09,9.3-3.1t10,3.2q3.67,3.18,3.67,9.29c0,2.45-.2,5.94-.62,10.44s-.64,7.87-.64,10.06q0,7.84,2.62,11.32a1.56,1.56,0,0,1,.38,1c0,.83-.9,1.25-2.7,1.25q-12,0-12-10.64a49.86,49.86,0,0,1,1.84-11.32,49.48,49.48,0,0,0,1.84-11q0-7.74-6.38-7.74a5.87,5.87,0,0,0-4.7,1.84A7.15,7.15,0,0,0,519.1,93c-.13,1.59-.19,4.57-.19,9q0,10.05.67,17.5l.2,2.14c0,1.8-1.18,3.21-3.53,4.2a16.1,16.1,0,0,1-6.1,1.5C508.44,127.25,507.59,126.83,507.59,126Z" style="fill:#29abe2"/><path d="M571.14,56.43l13.93.78q9.28,0,13.35-2.23a2,2,0,0,1,1-.38c.29,0,.44.45.44,1.35a11.64,11.64,0,0,1-1.65,4.46c-1.61,3.16-3.94,4.74-7,4.74l-5.32-.1a.94.94,0,0,0-1,.87q-.69,14.22-.68,30.72t1.35,24.81v.48q0,2.43-4.6,3.87a28.64,28.64,0,0,1-8.65,1.45c-1.29,0-1.94-.35-1.94-1.06a7.24,7.24,0,0,1,.29-1.35q1.07-2.13,1.89-20.61t.83-27.87l-.2-10.54a.62.62,0,0,0-.58-.67,24.8,24.8,0,0,0-4.65-.4c-3.48,0-6.06.72-7.73,2.14a2.28,2.28,0,0,1-1.31.48q-.63,0-.63-.78a7,7,0,0,1,1.21-3.18,20.1,20.1,0,0,1,2.57-3.49A11.78,11.78,0,0,1,571.14,56.43Z" style="fill:#29abe2"/><path d="M631.13,127.25a3.07,3.07,0,0,1-1.46.68,1.44,1.44,0,0,1-1.44-.87,62.21,62.21,0,0,1-4.84-15.67q-.09-.39-.3-.39l-.57.39a52.64,52.64,0,0,1-6,8.61,42.24,42.24,0,0,1-5.56,5.61l-2.13,1.64a2.7,2.7,0,0,1-1.55.88,1.44,1.44,0,0,1-1.45-1q-2.13-4.08-4.93-15.77l-.87-4a105.8,105.8,0,0,0-3.73-13.64c-1.26-3.42-2.21-5.41-2.85-6l-1-.87c-.58-.19-.87-.51-.87-1q0-1.35,4-2.9a18.9,18.9,0,0,1,6.24-1.55,2.86,2.86,0,0,1,2.94,1.8,73.54,73.54,0,0,1,2.28,10q4.05,21.66,5.9,21.67c.39,0,.82-.34,1.31-1l1.74-2.46a42.54,42.54,0,0,0,2.76-5,14.81,14.81,0,0,0,1.74-6.29,31.48,31.48,0,0,0-.68-3.53,28.75,28.75,0,0,0-2-5.91c-.86-1.9-1.56-3-2.07-3.24-1.17-.64-1.75-1.19-1.75-1.64,0-.77,1.33-1.7,4-2.76a19.54,19.54,0,0,1,7.16-1.6c1,0,1.65.59,2,1.75a140,140,0,0,1,3.48,16.34q2.61,15.11,4.84,15.1c.52,0,1.29-.73,2.32-2.18a26.62,26.62,0,0,0,3.05-6.34,21.57,21.57,0,0,0,1.5-7.11,32.82,32.82,0,0,0-.24-4.55,9.43,9.43,0,0,0-1.69-3.72,5.26,5.26,0,0,0-3.29-2.46c-1.23-.23-1.84-.64-1.84-1.21q0-1.36,4-3.49a17.44,17.44,0,0,1,8.27-2.13q4.06,0,4.07,8.13,0,10.17-6,20.9A49.49,49.49,0,0,1,631.13,127.25Z" style="fill:#29abe2"/><path d="M656.85,122.41l1.07-22.53q0-8-1.84-10.94a4.32,4.32,0,0,0-1.35-1.45.76.76,0,0,1-.59-.77q0-1.74,4.94-3.38a26,26,0,0,1,7.21-1.65c1.52,0,2.3.39,2.37,1.16q0,1.94-.53,11t-.53,19c0,6.66.38,10.78,1.15,12.39a1.88,1.88,0,0,1,.29,1c0,.84-1.22,1.25-3.67,1.25a16.75,16.75,0,0,1-7.54-1.93C657.18,125.19,656.85,124.16,656.85,122.41Zm7.75-48.85-2.33-.09c-1.74,0-2.86.41-3.39,1.25a.54.54,0,0,1-.48.3c-.84,0-1.26-1.44-1.26-4.31s.44-4.7,1.31-5.47,2.38-1.16,4.55-1.16,3.63.37,4.4,1.12a5,5,0,0,1,1.16,3.72,5.65,5.65,0,0,1-.87,3.62A3.9,3.9,0,0,1,664.6,73.56Z" style="fill:#29abe2"/><path d="M673.5,87.59l.29-3.87c.06-.59.51-.87,1.36-.87h3.38l-.38-7.74v-.39c0-1.48,1.12-2.9,3.38-4.25a12.2,12.2,0,0,1,6.19-2c.58,0,.87.25.87.77v.09q-.37,2.61-.77,13.45a44.76,44.76,0,0,0,5.42-.19c.77-.13,1.19-.2,1.26-.2.45,0,.67.39.67,1.17a6.15,6.15,0,0,1-1.07,3,3.24,3.24,0,0,1-2.31,1.89h-4.07q-.11,3.28-.1,11.07c0,5.2,0,9.46.15,12.82s.21,5.89.34,7.59.27,3.09.43,4.11.29,1.78.39,2.23a5,5,0,0,1,.14.87c0,.64-.41,1-1.25,1.07a27.13,27.13,0,0,1-7.5-1.07c-2.49-.71-3.72-1.93-3.72-3.68a283,283,0,0,0,2-34.92,32.12,32.12,0,0,0-4,.19h-.09C674,88.65,673.63,88.3,673.5,87.59Z" style="fill:#29abe2"/><path d="M695.17,87.59l.29-3.87c.06-.59.51-.87,1.36-.87h3.38l-.38-7.74v-.39c0-1.48,1.12-2.9,3.38-4.25a12.2,12.2,0,0,1,6.19-2c.58,0,.87.25.87.77v.09q-.37,2.61-.77,13.45a44.76,44.76,0,0,0,5.42-.19c.77-.13,1.18-.2,1.26-.2.45,0,.67.39.67,1.17a6.15,6.15,0,0,1-1.07,3,3.24,3.24,0,0,1-2.31,1.89h-4.07q-.1,3.28-.1,11.07c0,5.2.05,9.46.15,12.82s.21,5.89.34,7.59.27,3.09.43,4.11.29,1.78.39,2.23a5,5,0,0,1,.14.87c0,.64-.41,1-1.25,1.07a27.13,27.13,0,0,1-7.5-1.07c-2.49-.71-3.72-1.93-3.72-3.68a283,283,0,0,0,2-34.92,32.12,32.12,0,0,0-4,.19h-.09C695.65,88.65,695.3,88.3,695.17,87.59Z" style="fill:#29abe2"/><path d="M747.6,113.61a13.26,13.26,0,0,1-1.5,6.44,11.52,11.52,0,0,1-3.39,4.06,16,16,0,0,1-4.4,2.08,21.19,21.19,0,0,1-6.09,1q-8.13,0-12-6.1t-3.88-15.53a30.07,30.07,0,0,1,4.79-16.78q4.79-7.35,14.37-7.36,8.7,0,11.8,6.1a9.29,9.29,0,0,1,1.26,4.41,21.78,21.78,0,0,1-.19,3.28A15.69,15.69,0,0,1,747,98.81a16,16,0,0,1-3.09,4.36,19.3,19.3,0,0,1-6.1,3.67,34,34,0,0,1-9.77,2.32c-.52,0-.77.23-.77.68a8.31,8.31,0,0,0,.62,2.56,13.85,13.85,0,0,0,1.41,2.86,7.52,7.52,0,0,0,6.29,2.71,10,10,0,0,0,7.06-2.71,11.31,11.31,0,0,0,2.52-3.58,1.15,1.15,0,0,1,1-.78c.41,0,.76.36,1,1.07A5.4,5.4,0,0,1,747.6,113.61Zm-21.09-12.87.09,2.43c0,.38.26.58.78.58a13.65,13.65,0,0,0,5.42-1.6,10.39,10.39,0,0,0,3.48-3A13.88,13.88,0,0,0,738.8,93l.1-1.15c0-3.48-1.39-5.23-4.17-5.23a5.92,5.92,0,0,0-5,2.71Q726.52,93.59,726.51,100.74Z" style="fill:#29abe2"/><path d="M781.46,99.39l.39,3.38c0,1.23-1.16,1.84-3.48,1.84q-7.07,0-7.07-5.32a13,13,0,0,1,.68-3.48,13.61,13.61,0,0,0,.68-3.87,4.45,4.45,0,0,0-1-2.85,3.41,3.41,0,0,0-2.81-1.21,4.32,4.32,0,0,0-3.14,1.3,5.55,5.55,0,0,0-1.6,2.67l-.38,1.35a59.39,59.39,0,0,0-.58,10c0,4.67.06,8.35.19,11s.26,4.52.39,5.52.19,1.6.19,1.79c0,1.61-1,2.92-3,3.91a13.18,13.18,0,0,1-6,1.5c-2,0-3-.41-3-1.26l.48-3a143.82,143.82,0,0,0,1.35-22q0-13.53-1-18.38c0-.77.68-1.16,2-1.16,3.48,0,5.8,1.2,7,3.58.07.26.18.39.34.39a4,4,0,0,0,1.31-.87A11.54,11.54,0,0,1,771,81.69a14.72,14.72,0,0,1,5.42,1.06Q782,85,782,92Z" style="fill:#29abe2"/></svg>
