<?xml version="1.0" encoding="UTF-8"?>
<svg width="1116px" height="270px" viewBox="0 0 1116 270" version="1.1" xmlns="http://www.w3.org/2000/svg" xmlns:xlink="http://www.w3.org/1999/xlink">
    <!-- Generator: Sketch 60.1 (88133) - https://sketch.com -->
    <title>Artboard</title>
    <desc>Created with Sketch.</desc>
    <defs>
        <radialGradient cx="49.9788851%" cy="112.531222%" fx="49.9788851%" fy="112.531222%" r="91.8285473%" gradientTransform="translate(0.499789,1.125312),scale(1.000000,0.971429),translate(-0.499789,-1.125312)" id="radialGradient-1">
            <stop stop-color="#087984" offset="1%"></stop>
            <stop stop-color="#09707E" offset="13%"></stop>
            <stop stop-color="#0D576E" offset="33%"></stop>
            <stop stop-color="#143054" offset="59%"></stop>
            <stop stop-color="#142E53" offset="60%"></stop>
            <stop stop-color="#122645" offset="66%"></stop>
            <stop stop-color="#0F192C" offset="79%"></stop>
            <stop stop-color="#0E111D" offset="90%"></stop>
            <stop stop-color="#0D0E18" offset="100%"></stop>
        </radialGradient>
        <radialGradient cx="48.5116975%" cy="112.671082%" fx="48.5116975%" fy="112.671082%" r="294.75741%" gradientTransform="translate(0.485117,1.126711),scale(0.301887,1.000000),translate(-0.485117,-1.126711)" id="radialGradient-2">
            <stop stop-color="#087984" offset="1%"></stop>
            <stop stop-color="#09707E" offset="13%"></stop>
            <stop stop-color="#0D576E" offset="33%"></stop>
            <stop stop-color="#143054" offset="59%"></stop>
            <stop stop-color="#142E53" offset="60%"></stop>
            <stop stop-color="#122645" offset="66%"></stop>
            <stop stop-color="#0F192C" offset="79%"></stop>
            <stop stop-color="#0E111D" offset="90%"></stop>
            <stop stop-color="#0D0E18" offset="100%"></stop>
        </radialGradient>
    </defs>
    <g id="Artboard" stroke="none" stroke-width="1" fill="none" fill-rule="evenodd">
        <g id="twitter-share" transform="translate(27.000000, 23.000000)" fill-rule="nonzero">
            <g id="Path-2" opacity="0.3" transform="translate(0.000000, 142.000000)" fill="#000000">
                <g id="path-1-link">
                    <path d="M16.4341653,73.163594 C16.4341653,73.163594 16.4341653,73.163594 16.4341653,73.163594 C36.0405998,85.687031 69.1687132,85.687031 115.818506,73.163594 L150.298787,45.105 L996.01642,49.580586 C1024.19803,47.263529 1042.87485,45.771667 1052.04688,45.105 C1061.21891,44.438333 1064.14112,34.938333 1060.81352,16.605 C1057.9745,11.271667 1049.89054,8.605 1036.56165,8.605 C1023.23276,8.605 744.722357,5.771667 201.030436,0.105 L54.6877142,6.105 L30.0459333,9.721427 C11.1246204,12.498354 -1.9630229,30.088229 0.8138689,49.009547 C2.2719894,58.944958 7.9713789,67.758063 16.4341653,73.163594 Z" id="path-1"></path>
                </g>
                <g id="path-1-link" fill-opacity="0.29">
                    <path d="M16.4341653,73.163594 C16.4341653,73.163594 16.4341653,73.163594 16.4341653,73.163594 C36.0405998,85.687031 69.1687132,85.687031 115.818506,73.163594 L150.298787,45.105 L996.01642,49.580586 C1024.19803,47.263529 1042.87485,45.771667 1052.04688,45.105 C1061.21891,44.438333 1064.14112,34.938333 1060.81352,16.605 C1057.9745,11.271667 1049.89054,8.605 1036.56165,8.605 C1023.23276,8.605 744.722357,5.771667 201.030436,0.105 L54.6877142,6.105 L30.0459333,9.721427 C11.1246204,12.498354 -1.9630229,30.088229 0.8138689,49.009547 C2.2719894,58.944958 7.9713789,67.758063 16.4341653,73.163594 Z" id="path-1"></path>
                </g>
            </g>
            <rect id="Rectangle" fill="#F9F9F9" x="104" y="0" width="938" height="172"></rect>
            <path d="M299,65.2551159 C295.766249,66.6737824 292.343711,67.6136595 288.83988,68.0452281 C292.524643,65.8483259 295.277164,62.3737922 296.576012,58.2798355 C293.125535,60.347061 289.345498,61.8035858 285.401599,62.5855642 C280.455123,57.2997087 272.789,55.5745964 266.061269,58.2333981 C259.333538,60.8921998 254.90763,67.3960873 254.895452,74.6416043 C254.87905,75.9959094 255.014565,77.3477741 255.29945,78.6717663 C241.11549,77.9758996 227.898556,71.2613666 218.956822,60.208802 C214.244284,68.2757802 216.617561,78.6241198 224.372114,83.8214177 C221.590198,83.7360815 218.86937,82.9830122 216.438281,81.6254961 L216.438281,81.8235597 C216.45126,90.2326587 222.350162,97.4796082 230.569615,99.1842575 C229.061118,99.5853624 227.505803,99.7823053 225.945127,99.7698366 C224.82591,99.787695 223.707955,99.6866637 222.609995,99.4684355 C224.945772,106.653408 231.547742,111.583772 239.087956,111.774208 C232.845098,116.665299 225.145672,119.318344 217.22049,119.309233 C215.809925,119.320801 214.400108,119.240256 213,119.068112 C221.065666,124.274959 230.464157,127.029684 240.05927,127 C272.516642,127 290.258171,100.062626 290.258171,76.7169655 C290.258171,75.9333229 290.258171,75.1841261 290.189405,74.4349293 C293.660421,71.9388042 296.646423,68.8276706 299,65.2551159 Z" id="Path" fill="#2A769D"></path>
            <g id="illust-bear" transform="translate(9.000000, 24.105000)">
                <polygon id="Path" fill="url(#radialGradient-1)" points="40.2787162 112.73751 47.3213682 109 70 141.858035 44.5358953 144 36 134.266445"></polygon>
                <path d="M66,78.2075055 C66.3566328,77.2679912 66,68 66,68 L115.1571,68 L119,76.5403974 C119,76.5403974 115.1571,84 114.305548,84 C113.453996,84 66,78.2075055 66,78.2075055 Z" id="Path" fill="url(#radialGradient-2)"></path>
                <path d="M58.0715016,27 C52.1662746,24.4050236 50.904964,2.70813792 66.6211809,6.42760405 C66.6211809,6.42760405 77.22049,9.59924182 71.0931004,16.5191788 C67.3501128,20.7039288 62.9514452,24.2443273 58.0715016,27 L58.0715016,27 Z" id="Path" fill="#8B594C"></path>
                <path d="M67.0619934,73.6828816 C56.9296729,82.3759408 28.2841556,123.142888 52.4352651,140.237293 C76.5863745,157.331698 109.241396,176.891081 125.221513,158.739215 C146.673082,134.373854 143.01821,101.69466 133.24052,87.5028037 C123.462831,73.310947 123.354271,71.458567 120.770529,70 C102.503403,82.6968255 73.966446,78.3575888 67.0619934,73.6828816 Z" id="Path" fill="#BD816A"></path>
                <path d="M65,75 C55.5980364,75 22.0908844,75.2520205 15.7698719,83.064657 C9.44885944,90.8772935 10.8880831,101.462156 21.5195343,103.751942 C29.0917312,105.379275 47.7437806,98.5171159 48.7346029,97.192208 C52.589408,89.8620108 64.8770512,75 65,75 Z" id="Path" fill="#A86E5D"></path>
                <path d="M106.283536,87.0902024 C101.766548,90.3971951 99.8945111,96.2646229 101.654303,101.599371 C103.415741,106.565155 108.030417,109.868353 112.535914,112.585617 C117.194262,115.383448 125.506502,119.22131 125.506502,125.673898 C125.506502,133.532726 126.663811,154.194193 142.574982,149.243058 C149.635292,147.045809 156.608257,142.87836 158.44976,135.173339 C160.393165,127.014221 156.826617,117.888312 153.398364,110.600769 C149.300473,101.906986 143.07721,92.7224846 135.245362,86.98034 C128.25784,81.8387768 114.013483,81.4725686 106.283536,87.0902024 Z" id="Path" fill="#A86E5D"></path>
                <path d="M43.8738794,110.907986 C37.469836,111.783354 31.4416506,117.672195 30.3646726,118.967162 C29.2876947,120.262128 30.3646726,121.983927 30.3646726,121.983927 C30.3646726,121.983927 25.8399196,105.171069 15.07014,106.031968 C4.30036045,106.892867 1.94401941,113.780062 1.08388265,122.403525 C0.223745893,131.026987 5.8110208,168.55207 25.6230784,162.301507 C45.1387864,156.152226 40.3465959,148.556055 48.6732979,146.132515 L57,143.694506 C57,143.694506 49.049156,143.260439 44.3003337,131.750432 C39.5515115,120.240425 43.8738794,110.907986 43.8738794,110.907986 Z" id="Path" fill="#A86E5D"></path>
                <path d="M16.2405058,161.268595 C23.6698853,165.615336 21.9226597,149.293326 21.570278,146.315808 C20.5204744,137.267344 18.7732488,122.408736 12.3055775,115.330794 C6.78493186,109.288825 1,116.265343 1,121.850904 C1,121.887127 2.07182748,153.031522 16.2405058,161.268595 Z" id="Path" fill="#774030"></path>
                <path d="M134,45.6714245 C134,66.9369894 114.518898,78 90.5073072,78 C66.4957164,78 47,66.9152972 47,45.6497324 C47,24.3841675 66.4664875,1 90.5073072,1 C114.548127,1 134,24.398629 134,45.6714245 Z" id="Path" fill="#BD816A"></path>
                <ellipse id="Oval" fill="#774030" cx="75.5" cy="48" rx="6.5" ry="4"></ellipse>
                <path d="M74.8073506,52 C74.364257,54.1491876 74.0817046,56.3057607 73.8055738,58.4623338 C73.529443,60.6189069 73.311107,62.7828656 73.1634091,64.9468242 C72.9839794,67.1017512 72.9260634,69.2677795 72.9900247,71.4313146 C73.0256953,72.4976759 73.1569642,73.5569559 73.3817451,74.5923191 C73.5440633,75.6521154 74.1491299,76.552349 75,77 C74.5102042,76.933214 74.0560041,76.6720266 73.7156707,76.2614476 C73.3727309,75.8274615 73.0988478,75.3274734 72.9065433,74.7843427 C72.5390046,73.7357974 72.2949623,72.6354612 72.1808972,71.5125554 C71.9608713,69.3052262 71.9415017,67.0775318 72.1231024,64.8655835 C72.2946459,62.6592335 72.5928324,60.4683407 73.0157113,58.3072378 C73.3950156,56.131058 73.9963911,54.013992 74.8073506,52 Z" id="Path" fill="#774030"></path>
                <path d="M93,0 C89.7481799,3.95151855 86.9199094,8.2319084 84.5614407,12.7711702 C83.380001,15.0253571 82.3229849,17.342327 81.3951271,19.7117018 C80.4737963,22.0991721 79.6743939,24.5317288 79,27 C79.2012356,24.4186846 79.6988449,21.8689628 80.4830508,19.4009318 C81.2614519,16.9224811 82.2538734,14.5160896 83.4491525,12.2088243 C84.6566674,9.9058101 86.055639,7.7079168 87.6313559,5.63825706 C89.2008119,3.56174566 91.0019434,1.67016142 93,0 L93,0 Z" id="Path" fill="#774030"></path>
                <path d="M80,10.4749655 C80.7820515,9.74477201 81.7378773,9.28595587 82.75,9.15490879 C83.7394094,8.97334674 84.7469853,8.9512579 85.742,9.0893159 C86.749735,9.20489097 87.7375102,9.4809891 88.6753333,9.90922692 C89.1467166,10.1193645 89.5926462,10.394821 90.0026667,10.7291379 C90.4256594,11.0519298 90.7687458,11.4891112 91,12 C90.1982629,11.4481825 89.3097023,11.0725026 88.382,10.8931201 C87.48,10.6717442 86.556,10.5241602 85.632,10.4011735 C84.7046311,10.2744074 83.7720903,10.2005197 82.838,10.1797976 C81.8844209,10.1345408 80.9297512,10.2338318 80,10.4749655 L80,10.4749655 Z" id="Path" fill="#774030"></path>
                <path d="M80,13.0602386 C80.546376,12.5506495 81.2523055,12.2210731 82.0129032,12.1204772 C82.7418304,11.9881443 83.4882416,11.9646544 84.2248848,12.0508652 C84.9611748,12.1240559 85.6804504,12.3073362 86.3557604,12.5938385 C86.6982394,12.7416745 87.0201635,12.9287099 87.3142857,13.1507341 C87.6189432,13.3710648 87.8556848,13.6642723 88,14 C87.3891853,13.7179635 86.73453,13.529958 86.0608295,13.4431043 C85.4046083,13.3386864 84.7483871,13.2551521 84.0847926,13.1785789 C83.4211982,13.1020058 82.7502304,13.0254326 82.0571429,13.0254326 C81.3721994,12.9645697 80.6821937,12.9762443 80,13.0602386 L80,13.0602386 Z" id="Path" fill="#774030"></path>
                <path d="M113,15.5932873 C113.309334,13.2935697 114.473018,10.8514548 116.734102,9.76211487 C122.125349,7.1420032 130.926634,11.6987191 132.635335,17.0243809 C134.182005,21.8730115 130.779332,27.8821806 122.987065,29 C122.987065,29 115.408385,21.3746207 113,15.5932873 Z" id="Path" fill="#A86E5D"></path>
                <path d="M130,19 C129.188379,18.1915214 128.291103,17.4718543 127.323689,16.8534459 C126.400119,16.2456499 125.397655,15.7642707 124.34358,15.4224099 C123.318158,15.0898856 122.228812,14.9968214 121.16094,15.150513 C120.04131,15.3507891 118.969306,15.7560336 118,16.3454281 C118.731028,15.3578694 119.762821,14.6281149 120.943942,14.2632707 C122.167928,13.8981489 123.47567,13.9131329 124.690778,14.3062018 C125.883017,14.6767396 126.980766,15.2965553 127.909584,16.1236175 C128.826971,16.9049978 129.543467,17.8908865 130,19 L130,19 Z" id="Path" fill="#774030"></path>
                <path d="M120.091549,21.1636114 C121.001131,21.9847185 121.968439,22.7385436 122.985915,23.4191965 C123.214066,23.5481343 123.449172,23.6641671 123.690141,23.7667552 C123.881012,23.8423192 124.083689,23.8831468 124.288732,23.8873368 C124.612769,23.8915411 124.918167,23.7350898 125.105634,23.4688477 C125.435785,23.0879761 125.704332,22.6571173 125.901408,22.1921015 C126.147887,21.6743099 126.34507,21.1210532 126.56338,20.5465174 C126.978873,19.3974458 127.359155,18.1916298 127.887324,17 L128,17 C127.895017,18.2685383 127.709188,19.5289682 127.443662,20.7734945 C127.232631,22.0465555 126.717889,23.2489795 125.943662,24.2774537 C125.504291,24.7982523 124.836129,25.0642524 124.161972,24.9867572 C123.523827,24.8695562 122.928251,24.5830875 122.43662,24.1568721 C121.467233,23.3275023 120.643499,22.3395668 120,21.2345418 L120.091549,21.1636114 Z" id="Path" fill="#774030"></path>
                <circle id="Oval" fill="#774030" cx="99" cy="36" r="1"></circle>
                <circle id="Oval" fill="#774030" cx="106" cy="38" r="1"></circle>
                <circle id="Oval" fill="#774030" cx="98" cy="41" r="1"></circle>
                <circle id="Oval" fill="#774030" cx="102" cy="43" r="1"></circle>
                <path d="M101.500211,46 C97.841314,46 94.7164812,43.3596707 94.1058668,39.7520479 C93.4952524,36.1444251 95.5771235,32.6227761 99.0322335,31.4187105 C102.487343,30.2146449 106.306983,31.6796861 108.070711,34.8854623 C109.834439,38.0912384 109.02734,42.1018324 106.160859,44.3757986 L106.160859,44.3757986 C104.836428,45.4300269 103.192986,46.0027471 101.500211,46 L101.500211,46 Z M101.500211,32.1450052 C98.5369842,32.1497546 95.9702672,34.2017062 95.3131879,37.0911962 C94.6561085,39.9806862 96.083059,42.9408289 98.7528255,44.2265651 C101.422592,45.5123014 104.626605,44.7823899 106.476038,42.4671272 C108.325471,40.1518645 108.329477,36.8657333 106.485692,34.5459693 C105.278761,33.0172441 103.433765,32.1312204 101.486088,32.1450052 L101.500211,32.1450052 Z" id="Shape" fill="#774030"></path>
                <path d="M99.034242,36.0522354 C99.2575447,35.9825882 99.4957792,35.9825882 99.719082,36.0522354 C99.9256825,36.1012099 100.127435,36.1698976 100.321741,36.2574138 C100.668014,36.4204313 100.99069,36.6323516 101.280517,36.8870992 C101.817181,37.3637317 102.247143,37.9551879 102.540623,38.6205028 C102.835304,39.2871694 102.991605,40.0101938 102.999465,40.7430378 C103.012544,41.546595 102.785347,42.3347557 102.348867,43 L102.177657,43 C102.057143,42.3686985 101.901657,41.7450629 101.711966,41.1321692 C101.523919,40.5221953 101.295088,39.9264519 101.027126,39.3492398 C100.776452,38.7594318 100.488186,38.1874503 100.164228,37.6370615 C100.000264,37.3676165 99.8219306,37.1077949 99.6300528,36.8587987 C99.4721245,36.6033024 99.2557394,36.3919032 99,36.2432635 L99.034242,36.0522354 Z" id="Path" fill="#8B594C"></path>
                <path d="M105.923922,38.6163928 C105.494203,38.7371856 105.076414,38.9009625 104.676247,39.1054924 C104.311074,39.273871 103.991547,39.4502676 103.67202,39.6186461 C103.032967,39.9473852 102.424345,40.2600883 101.785292,40.5487372 C101.113685,40.851882 100.428131,41.119483 99.7311919,41.3505399 C98.8882201,41.6636855 98.0160226,41.8813981 97.1293322,42 L97,41.8636935 C97.5637836,41.2043108 98.1881311,40.6053824 98.8639053,40.0756736 C99.5422346,39.547302 100.271542,39.0957957 101.03973,38.7286452 C101.822952,38.3749724 102.650647,38.1427117 103.497041,38.0390949 C103.921641,37.9869684 104.350548,37.9869684 104.775148,38.0390949 C105.201562,38.0961793 105.615711,38.2290217 106,38.4319782 L105.923922,38.6163928 Z" id="Path" fill="#8B594C"></path>
                <circle id="Oval" fill="#774030" transform="translate(59.017260, 33.391602) rotate(-89.070000) translate(-59.017260, -33.391602) " cx="59.0172605" cy="33.3916025" r="1"></circle>
                <circle id="Oval" fill="#774030" transform="translate(63.926376, 29.866025) rotate(-89.070000) translate(-63.926376, -29.866025) " cx="63.9263762" cy="29.8660253" r="1"></circle>
                <circle id="Oval" fill="#774030" transform="translate(62.844363, 37.827055) rotate(-88.854237) translate(-62.844363, -37.827055) " cx="62.8443634" cy="37.8270545" r="1"></circle>
                <circle id="Oval" fill="#774030" transform="translate(64.716883, 34.878370) rotate(-89.070000) translate(-64.716883, -34.878370) " cx="64.7168828" cy="34.8783705" r="1"></circle>
                <path d="M61.9784722,40 L61.892361,40 C58.5842551,39.9398173 55.9435111,36.7576572 56.0009185,32.8984417 C56.058326,29.0392262 58.7564775,26 62.0215278,26 L62.107639,26 C65.4157449,26.0526599 68.0564889,29.2423428 67.9990815,33.1015583 C67.941674,36.9607738 65.2435225,40 61.9784722,40 Z M62.0215278,27.2111768 C59.3951357,27.2111768 57.2280034,29.7463729 57.1777718,32.8984417 C57.1275403,36.0505105 59.251617,38.706072 61.9138888,38.751209 L61.9784722,38.751209 C64.6048643,38.751209 66.7719966,36.2160129 66.8222282,33.0639441 C66.8724597,29.9118753 64.748383,27.2563138 62.0861112,27.2111768 L62.0215278,27.2111768 Z" id="Shape" fill="#774030"></path>
                <path d="M59,33.5362593 C59.4937957,33.2182814 60.0844652,33.0370579 60.6962963,33.0158182 C61.2444521,32.9723455 61.7970337,33.0186697 62.3259259,33.152434 C62.856814,33.2782779 63.3583061,33.4852812 63.8074074,33.7639523 C64.3018964,34.055232 64.7106243,34.4454091 65,34.9024173 L64.9555556,35 C63.9777778,34.7137574 63.0148148,34.3949872 61.9925926,34.1737997 C61.5037037,34.0501949 61.0074074,33.9396012 60.5111111,33.848524 C60.0219813,33.756952 59.5273726,33.689622 59.0296296,33.6468531 L59,33.5362593 Z" id="Path" fill="#8B594C"></path>
                <path d="M64,30.1160976 C63.6299752,30.6593888 63.3179691,31.2283783 63.0675355,31.8165854 C62.8612381,32.3492683 62.6962001,32.8546341 62.539414,33.3873171 C62.382628,33.92 62.2588495,34.48 62.0773077,35.0741463 C61.920674,35.7298408 61.6998963,36.3739129 61.4171559,37 L61.2851255,37 C61.1171677,36.3623681 61.0232192,35.7129122 61.004561,35.0604878 C60.9799798,34.4042853 61.0548297,33.7481191 61.2273622,33.1073171 C61.4105208,32.4641172 61.7319598,31.8534212 62.1763305,31.3043902 C62.6142847,30.7473317 63.22388,30.2970529 63.9422367,30 L64,30.1160976 Z" id="Path" fill="#8B594C"></path>
                <path d="M84.3925254,148.905072 C79.7422624,138.959292 72.1626999,136.545764 71.694012,136.720763 C96.864018,127.161439 99.0976089,122.983337 105.505452,124.20833 C113.070368,125.666656 118.313814,127.394771 120.349677,136.669721 C122.38554,145.944671 119.763817,165.063318 110.748898,165.931021 C101.733978,166.798725 91.21047,174.907015 84.3852021,181.863227 C77.5599343,188.819439 52.7634139,178.545537 50.2149233,154.628999 C49.5778007,148.620698 50.0757816,141.183239 55.6341274,137.493675 C65.5571295,130.916627 79.2442815,140.29366 84.3925254,148.905072 Z" id="Path" fill="#A86E5D"></path>
                <path d="M51,154.723607 C52.0003213,147.248422 54.4903296,137.851465 63.8962281,143.974832 C73.3021266,150.098199 81.6285417,186.180761 71.0927839,181.599197 C50.3235237,172.58221 51.0071966,154.723607 51.0071966,154.723607" id="Path" fill="#774030"></path>
                <g id="Group" opacity="0.1" style="mix-blend-mode: multiply;" fill="#3E62AD">
                    <path d="M153.716364,110.574545 C149.621818,101.941818 143.403636,92.8218182 135.578182,87.12 C134.122418,86.098494 132.528112,85.2903207 130.843636,84.72 C123.221818,73.52 122.930909,71.84 120.545455,70.5163636 C102.189091,83.1854545 73.5127273,78.8581818 66.5745455,74.1963636 C66.2327273,74.4872727 65.8472727,74.8145455 65.4909091,75.1781818 C65.4909091,75.1418182 65.5418182,75.12 65.5490909,75.12 C56.0945455,75.12 22.4,75.3745455 16.0436364,83.2654545 C9.68727273,91.1563636 11.1345455,101.847273 21.8254545,104.16 C29.44,105.803636 48.1963636,98.8727273 49.1927273,97.5345455 C49.8472727,96.2909091 50.7418182,94.8218182 51.7818182,93.2509091 C42.5890909,108.945455 36.2909091,129.614545 51.8763636,140.567273 L52.9018182,141.294545 C52.7636364,141.534545 52.6254545,141.774545 52.4945455,142.021818 C49.9054545,140.472727 46.6763636,137.469091 44.2981818,131.687273 C39.4909091,120.116364 43.8690909,110.727273 43.8690909,110.727273 C37.4254545,111.607273 31.36,117.527273 30.2763636,118.829091 C29.9208892,119.254481 29.7506327,119.80454 29.8036364,120.356364 C28.3490909,116.232727 23.7309091,105.12 14.8872727,105.810909 C4.95272727,106.603636 2.13818182,112.487273 1.06909091,120.138182 C0.902888095,120.836388 0.817479241,121.551382 0.814545455,122.269091 C0.0872727273,129.338182 3.72363636,155.76 15.9127273,161.825455 L15.9127273,161.825455 C16.3933905,162.123389 16.9189105,162.341946 17.4690909,162.472727 C20.0907172,163.306949 22.9114335,163.273794 25.5127273,162.378182 C45.1127273,156.196364 40.32,148.56 48.6981818,146.123636 L51.3236364,145.352727 C50.6926675,148.417267 50.5698171,151.564694 50.96,154.669091 L50.96,154.669091 C50.96,154.669091 50.64,163.2 57.4109091,171.396364 C65.8836364,182.88 80.0218182,186.8 84.8945455,181.803636 C91.2,175.345455 100.683636,167.890909 109.192727,166.196364 C115.330909,165.927273 120.756364,163.774545 125.018182,158.981818 C128.011183,155.608411 130.634603,151.924407 132.843636,147.992727 C135.265455,149.701818 138.523636,150.276364 142.901818,148.923636 C149.956364,146.741818 156.923636,142.603636 158.763636,134.952727 C160.705455,126.901818 157.141818,117.810909 153.716364,110.574545 Z" id="Path"></path>
                    <path d="M75.2290909,76.4509091 L75.3236364,76.4509091 L75.3236364,76.4509091 C80.3906499,77.6241692 85.5771841,78.2026203 90.7781818,78.1745455 C114.690909,78.1745455 134.08,67.0254545 134.08,45.6363636 C133.970083,38.8066365 132.237574,32.100956 129.025455,26.0727273 C131.903467,23.8345692 133.144552,20.0797126 132.167273,16.5672727 C130.48,11.1272727 121.789091,6.47272727 116.465455,9.14909091 C116.143457,9.31450782 115.838897,9.51186288 115.556364,9.73818182 C109.069091,4.64727273 101.28,1.25090909 92.8509091,0.770909091 L92.8872727,0.705454545 L92.8218182,0.770909091 C92.1454545,0.770909091 91.4618182,0.705454545 90.7781818,0.705454545 C83.0523,0.783553654 75.5210872,3.1387969 69.1272727,7.47636364 C68.4507904,7.14199569 67.7507378,6.85759929 67.0327273,6.62545455 C55.2727273,3.86181818 52.88,14.9890909 54.8218182,22.1018182 C50.1818182,29.3745455 47.4763225,37.6436364 47.4763225,45.6363636 C47.4618182,62.1745455 58.9890909,72.5454545 75.2290909,76.4509091 Z" id="Path"></path>
                </g>
            </g>
            <g id="Share-on-Twitter" transform="translate(334.000000, 57.000000)" fill="#2A769D">
                <g id="ShareonTwitter" transform="translate(0.000000, -0.392055)">
                    <g id="path-3-link">
                        <path d="M19.1242554,62.8571429 C25.4073783,62.8571429 30.6433141,61.2275966 34.8320627,57.9685039 C39.0208114,54.7094113 41.1020958,50.0194976 41.0759162,43.8987626 C41.1020958,41.1961005 40.6177718,38.8378953 39.622944,36.824147 C38.6281162,34.8103987 37.3845815,33.2470941 35.8923397,32.1342332 C34.400098,31.0213724 32.7115088,30.0807399 30.8265719,29.3123359 C28.941635,28.543932 27.0566981,27.9080115 25.1717612,27.4045744 C23.2868244,26.9011373 21.5851452,26.3579553 20.0667238,25.7750281 C16.6371859,24.5296838 14.9093271,22.4629421 14.8831475,19.5748032 C14.8831475,17.8790151 15.7601667,16.527684 17.5142052,15.5208099 C19.2682437,14.5139357 21.0877313,14.0104987 22.9726682,14.0104987 C24.8576051,14.0104987 26.6640029,14.3284589 28.3918618,14.9643794 C30.1197205,15.6003 31.4548842,16.5541807 32.3973526,17.8260217 L32.3973526,17.8260217 L40.9973771,8.32695913 C36.4944724,4.29946256 30.6825836,2.28571429 23.561711,2.28571429 C17.6189239,2.28571429 12.5138865,3.94175728 8.24659882,7.25384327 C3.97931119,10.5659292 1.84566736,15.1498563 1.84566736,21.0056243 C1.84566736,23.99975 2.50015933,26.5699288 3.80914328,28.7161605 C5.11812723,30.8623922 6.76744699,32.4521935 8.75710256,33.4855643 C12.8411325,35.5523059 17.1345998,37.1951006 21.6375046,38.4139482 C23.6271602,38.943882 25.2764799,39.7917761 26.5854639,40.9576303 C27.8944479,42.1234846 28.5489398,43.5808024 28.5489398,45.3295838 C28.5489398,47.0783652 27.6588307,48.4826897 25.8786126,49.5425571 C24.0983944,50.6024247 22.1349185,51.1323584 19.9881849,51.1323584 C17.8152715,51.1323584 15.7470768,50.6421697 13.7836009,49.6617922 C11.8201251,48.6814148 10.1969849,47.3565805 8.91418068,45.6872891 L8.91418068,45.6872891 L0,55.6235471 C5.13121707,60.4459443 11.5059688,62.8571429 19.1242554,62.8571429 Z M61.1306273,61.7142857 L61.1306273,41.9401993 C61.1306273,38.8571428 61.6284861,36.3986711 62.6242037,34.5647841 C63.6199212,32.730897 65.3755285,31.8272426 67.8910256,31.8538206 C70.4589288,31.8803987 72.2538407,32.6378738 73.2757613,34.1262458 C74.1928697,35.3222592 74.6514239,38.0465116 74.6514239,42.2990033 L74.6514239,42.2990033 L74.6514239,61.7142857 L86.7179487,61.7142857 L86.7179487,39.8272425 C86.7179487,33.79402 85.7091295,29.1561461 83.6914913,25.9136212 C81.673853,22.6710963 77.8482013,21.0498339 72.214536,21.0498339 C69.4894143,21.0498339 67.1442374,21.6877077 65.1790053,22.9634552 C63.2399764,24.2657807 61.9429233,25.7541528 61.2878459,27.4285715 L61.2878459,27.4285715 L61.1306273,27.4285715 L61.1306273,1.16573418e-15 L49.0641026,1.16573418e-15 L49.0641026,61.7142857 L61.1306273,61.7142857 Z M107.507054,62.8571429 C113.310053,62.8571429 117.445674,60.8885852 119.913917,56.9514696 L119.913917,56.9514696 L120.071465,56.9514696 L120.071465,61.872864 L131.217949,61.872864 L131.217949,41.9510594 C131.191691,35.0217361 129.878795,29.9166097 127.279262,26.63568 C124.679728,23.3547504 119.940175,21.7142857 113.060602,21.7142857 C106.18103,21.7142857 100.509321,23.8140806 96.0454756,28.0136706 L96.0454756,28.0136706 L102.504922,34.6280246 C105.314518,31.5045796 108.596757,29.9428571 112.351639,29.9428571 C114.504788,29.9428571 116.329712,30.5859193 117.826413,31.8720437 C119.323114,33.1581681 120.071465,34.8511278 120.071465,36.9509228 C118.180895,36.9509228 116.61855,36.9640464 115.384428,36.9902939 C106.404222,37.174026 100.272999,38.8669856 96.99076,42.0691729 C94.706322,44.3789474 93.5641026,47.3449078 93.5641026,50.967054 C93.5641026,54.5892003 94.9163856,57.4764184 97.6209499,59.6287082 C100.351773,61.7809979 103.647141,62.8571429 107.507054,62.8571429 Z M111.431899,54.8571429 C109.422886,54.8571429 107.844376,54.462585 106.696369,53.6734694 C105.548362,52.8843537 104.974359,51.7959184 104.974359,50.4081632 C104.974359,46.5170068 108.927156,44.5714286 116.832751,44.5714286 L116.832751,44.5714286 L119.807133,44.5714286 L119.807133,47.2244898 C119.833224,49.6462585 118.946128,51.5238095 117.145844,52.8571429 C115.34556,54.1904762 113.440912,54.8571429 111.431899,54.8571429 Z M150.074212,61.7142857 L150.074212,45.4005602 C150.074212,43.2044818 150.178535,41.4136321 150.387179,40.0280112 C150.934872,36.550887 152.538827,34.2371615 155.199047,33.0868347 C157.859267,31.9626517 161.275824,31.9757236 165.448718,33.1260504 L165.448718,33.1260504 L165.448718,22.1064425 C164.561978,21.8450046 163.231868,21.7142857 161.458388,21.7142857 C156.581318,21.7142857 152.838755,24.1195144 150.230696,28.929972 L150.230696,28.929972 L150.074212,28.929972 L150.074212,22.6946778 L138.064103,22.6946778 L138.064103,61.7142857 L150.074212,61.7142857 Z M190.523315,62.8571429 C193.655543,62.8308955 196.696414,62.1353384 199.645927,60.7704717 C202.595441,59.4056049 205.035968,57.5157895 206.967508,55.1010254 L206.967508,55.1010254 L198.549648,48.8803828 C196.252682,52.0563227 193.381473,53.6442926 189.936023,53.6442926 C187.639056,53.6442926 185.681414,52.9618592 184.063097,51.5969925 C182.44478,50.2321258 181.387653,48.3948052 180.891717,46.0850308 L180.891717,46.0850308 L208.807692,46.0850308 L208.807692,42.2660287 C208.807692,35.9666438 207.163272,30.9665072 203.874434,27.2656185 C200.585596,23.56473 196.004713,21.7142857 190.131787,21.7142857 C184.258861,21.7142857 179.247298,23.6041012 175.097097,27.3837321 C170.946895,31.163363 168.871795,36.1241285 168.871795,42.2660287 C168.871795,48.4079289 170.933845,53.3686945 175.057943,57.1483254 C179.182043,60.9279563 184.337167,62.8308955 190.523315,62.8571429 Z M196.255695,37.7142857 L180.282051,37.7142857 C180.413197,35.5015198 181.239421,33.6008106 182.76072,32.012158 C184.28202,30.4802432 186.209873,29.7142857 188.544281,29.7142857 C190.878689,29.7142857 192.754083,30.4944275 194.170466,32.0547112 C195.586848,33.6149949 196.281924,35.5015198 196.255695,37.7142857 L196.255695,37.7142857 Z M260.114642,62.8571429 C266.282647,62.8571429 271.444429,60.9655172 275.59999,57.182266 C279.755553,53.3990148 281.833333,48.4334975 281.833333,42.2857142 C281.833333,36.137931 279.76862,31.1724138 275.639194,27.3891626 C271.509768,23.6059113 266.347985,21.7142857 260.153846,21.7142857 C253.985843,21.7142857 248.824059,23.6059113 244.668498,27.3891626 C240.539072,31.1986863 238.474359,36.1642036 238.474359,42.2857142 C238.474359,48.4072249 240.539072,53.3727422 244.668498,57.182266 C248.797924,60.9655172 253.946639,62.8571429 260.114642,62.8571429 Z M259.602217,51.4285714 C256.57388,51.4285714 254.19071,50.5419501 252.452708,48.7687075 C250.714706,46.9697657 249.858872,44.6182917 249.885205,41.7142857 C249.858872,38.8359788 250.714706,36.4973545 252.452708,34.6984127 C254.19071,32.8994709 256.560713,32 259.562716,32 C262.56472,32 264.934723,32.8994709 266.672725,34.6984127 C268.410726,36.4973545 269.279728,38.8359788 269.279728,41.7142857 C269.332395,44.5925926 268.489727,46.9312169 266.751725,48.7301588 C265.013723,50.5291005 262.630553,51.4285714 259.602217,51.4285714 Z M300.746012,61.7142857 L300.746012,42.2633053 C300.746012,39.2306255 301.243871,36.8123249 302.239588,35.0084034 C303.235306,33.2044817 304.990913,32.3155929 307.50641,32.3417367 C310.074313,32.3678805 311.869226,33.1129785 312.891146,34.5770308 C313.808255,35.7535014 314.266808,38.4332399 314.266808,42.6162464 L314.266808,42.6162464 L314.266808,61.7142857 L326.333333,61.7142857 L326.333333,40.1848739 C326.333333,34.2502334 325.324514,29.6881419 323.306876,26.4985994 C321.289237,23.3090569 317.463586,21.7142857 311.829921,21.7142857 C309.104799,21.7142857 306.74652,22.3286648 304.755085,23.5574229 C302.789854,24.7861811 301.348683,26.2633053 300.431575,27.9887955 L300.431575,27.9887955 L300.235052,27.9887955 L300.235052,22.6946778 L288.679487,22.6946778 L288.679487,61.7142857 L300.746012,61.7142857 Z M384.066047,61.7142857 L384.066047,15.7241379 L400.5,15.7241379 L400.5,4.57142857 L354.858974,4.57142857 L354.858974,15.7241379 L371.332718,15.7241379 L371.332718,61.7142857 L384.066047,61.7142857 Z M417.660338,61.7142857 L424.837033,35.1012204 L424.993048,35.1012204 L433.066828,61.7142857 L444.884972,61.7142857 L458.692308,21.7142857 L446.562134,21.7142857 L439.307432,46.7997129 L439.112413,46.7997129 L431.935719,21.7142857 L418.830451,21.7142857 L412.19981,46.7997129 L412.043795,46.7997129 L404.126029,21.7142857 L391.371795,21.7142857 L405.569169,61.7142857 L417.660338,61.7142857 Z M468.961538,17.1428571 C470.858974,17.1428571 472.474359,16.4641857 473.807692,15.1068427 C475.141026,13.7751101 475.807692,12.1616647 475.807692,10.2665066 C475.807692,8.37134855 475.141026,6.75790316 473.807692,5.42617047 C472.474359,4.09443777 470.858974,3.42857143 468.961538,3.42857143 C467.064103,3.42857143 465.448718,4.09443777 464.115385,5.42617047 C462.782051,6.75790316 462.115385,8.37134855 462.115385,10.2665066 C462.115385,12.1872749 462.782051,13.8135254 464.115385,15.1452581 C465.448718,16.4769908 467.064103,17.1428571 468.961538,17.1428571 Z M475.807692,61.7142857 L475.807692,21.7142857 L463.25641,21.7142857 L463.25641,61.7142857 L475.807692,61.7142857 Z M501.94514,62.8571429 C505.872392,62.8571429 508.950507,62.4440341 511.179487,61.6178165 L511.179487,61.6178165 L511.179487,51.3833787 C510.383423,52.1296397 508.751491,52.5027702 506.283692,52.5027702 C503.815891,52.5027702 502.223763,51.9030962 501.507305,50.703748 C500.790847,49.5043998 500.432618,47.6520732 500.432618,45.1467681 L500.432618,45.1467681 L500.432618,31.8739816 L511.179487,31.8739816 L511.179487,22.0793048 L500.432618,22.0793048 L500.432618,10.2857143 L488.213029,10.2857143 L488.213029,22.0793048 L480.371795,22.0793048 L480.371795,31.8739816 L488.213029,31.8739816 L488.213029,50.8236829 C488.213029,54.954771 489.526535,57.9931197 492.153548,59.938729 C494.754025,61.8843383 498.017889,62.8571429 501.94514,62.8571429 Z M533.893858,62.8571429 C537.821109,62.8571429 540.899224,62.4440341 543.128205,61.6178165 L543.128205,61.6178165 L543.128205,51.3833787 C542.332141,52.1296397 540.700208,52.5027702 538.232409,52.5027702 C535.764609,52.5027702 534.17248,51.9030962 533.456022,50.703748 C532.739565,49.5043998 532.381336,47.6520732 532.381336,45.1467681 L532.381336,45.1467681 L532.381336,31.8739816 L543.128205,31.8739816 L543.128205,22.0793048 L532.381336,22.0793048 L532.381336,10.2857143 L520.161747,10.2857143 L520.161747,22.0793048 L512.320513,22.0793048 L512.320513,31.8739816 L520.161747,31.8739816 L520.161747,50.8236829 C520.161747,54.954771 521.475254,57.9931197 524.102266,59.938729 C526.702743,61.8843383 529.966607,62.8571429 533.893858,62.8571429 Z M569.343828,62.8571429 C572.476055,62.8308955 575.516926,62.1353384 578.46644,60.7704717 C581.415955,59.4056049 583.856481,57.5157895 585.788021,55.1010254 L585.788021,55.1010254 L577.370161,48.8803828 C575.073194,52.0563227 572.201986,53.6442926 568.756536,53.6442926 C566.459569,53.6442926 564.501928,52.9618592 562.88361,51.5969925 C561.265293,50.2321258 560.208166,48.3948052 559.71223,46.0850308 L559.71223,46.0850308 L587.628205,46.0850308 L587.628205,42.2660287 C587.628205,35.9666438 585.983785,30.9665072 582.694947,27.2656185 C579.406109,23.56473 574.825227,21.7142857 568.9523,21.7142857 C563.079374,21.7142857 558.06781,23.6041012 553.91761,27.3837321 C549.767409,31.163363 547.692308,36.1241285 547.692308,42.2660287 C547.692308,48.4079289 549.754358,53.3686945 553.878457,57.1483254 C558.002556,60.9279563 563.15768,62.8308955 569.343828,62.8571429 Z M576.217233,37.7142857 L560.24359,37.7142857 C560.374736,35.5015198 561.200959,33.6008106 562.722258,32.012158 C564.243558,30.4802432 566.171411,29.7142857 568.50582,29.7142857 C570.840227,29.7142857 572.715622,30.4944275 574.132004,32.0547112 C575.548387,33.6149949 576.243463,35.5015198 576.217233,37.7142857 L576.217233,37.7142857 Z M607.625494,61.7142857 L607.625494,45.4005602 C607.625494,43.2044818 607.729817,41.4136321 607.938462,40.0280112 C608.486154,36.550887 610.09011,34.2371615 612.75033,33.0868347 C615.410549,31.9626517 618.827106,31.9757236 623,33.1260504 L623,33.1260504 L623,22.1064425 C622.113261,21.8450046 620.783151,21.7142857 619.009671,21.7142857 C614.132601,21.7142857 610.390037,24.1195144 607.781978,28.929972 L607.781978,28.929972 L607.625494,28.929972 L607.625494,22.6946778 L595.615385,22.6946778 L595.615385,61.7142857 L607.625494,61.7142857 Z" id="path-3"></path>
                    </g>
                </g>
            </g>
        </g>
    </g>
</svg>