<svg width="492" height="170" viewBox="0 0 492 170" fill="none" xmlns="http://www.w3.org/2000/svg">
<path opacity="0.4" d="M457.616 96.2789C457.616 96.2789 447.07 73.1301 458.414 52.7987C464.087 42.633 474.86 34.805 485.793 31.2372C485.793 31.2372 446.312 48.1941 457.616 96.2789Z" fill="white"/>
<path d="M8.44157 22.6321L7.50282 57.721C10.7437 61.17 10.1621 59.4844 10.0423 65.5421C4.67327 69.9331 5.82985 68.493 4.23624 72.1223C4.94642 118.97 1.71633 111.175 8.00227 117.459C13.6026 119.268 13.3836 118.034 10.4376 122.49C7.96239 153.47 6.03343 148.109 16.8317 154.846C4.94204 160.567 6.73723 157.706 10.1061 169.221C177.053 138.879 372.784 139.553 483.47 149.7C480.113 106.056 477.833 100.553 477.833 100.553C473.585 97.918 473.441 98.6994 477.861 96.672C476.131 78.1111 475.804 83.2453 479.377 72.4024C479.377 72.4024 475.177 52.5367 473.29 52.9176C471.402 53.2984 480.708 52.4856 480.708 52.4856C479.13 42.611 483.262 42.1464 487.808 38.8726L482.23 0.588108L8.44157 22.6321Z" fill="#DE993E"/>
<path d="M479.156 71.1431C479.156 71.1431 476.648 59.5446 474.716 54.0866C473.984 53.0079 473.615 52.3896 473.056 51.3045C463.866 59.8634 459.184 64.1461 449.982 72.3894C449.951 76.1826 449.849 78.0824 449.817 81.8757C458.662 87.2338 463.085 89.9128 472.108 95.4223C474.365 95.6541 475.579 95.7668 477.83 95.8408C477.249 89.5424 476.958 86.3932 476.378 80.0949C477.278 76.4272 477.904 74.6659 479.156 71.1431Z" fill="#BC905C"/>
<path d="M67.4498 144.488C64.2595 142.395 62.6644 141.348 59.4741 139.255C50.896 136.415 46.5207 134.998 37.9426 132.158C28.5739 126.662 23.8002 123.838 14.4197 118.026C12.7519 119.668 11.9181 120.489 10.423 122.125C9.61461 132.899 9.12998 138.447 8.3216 149.221C11.6904 151.466 13.4582 152.506 16.827 154.75C36.4279 151.807 46.0615 150.5 65.8468 147.866C66.3118 146.426 66.6336 145.782 67.4498 144.488Z" fill="#BC905C"/>
<path d="M481.131 3.60272C481.977 17.0013 482.397 23.6217 483.242 37.0203C483.242 37.0203 480.55 39.0167 479.192 39.6994C477.835 40.382 479.01 48.7123 479.01 48.7123C426.586 52.4059 373.978 55.7904 321.536 59.0107C371.59 56.6695 427.287 57.2778 471.68 51.5137C473.401 51.2915 474.321 71.3234 474.321 71.3234C473.242 74.8397 472.788 76.5946 471.888 80.2623C465.172 80.9868 461.73 81.4312 455.014 82.1557C461.932 82.2136 465.391 82.2426 472.315 82.4583C472.164 87.678 472.092 90.3667 471.941 95.5864C471.274 96.2433 470.946 96.7295 470.106 97.3929C440.558 97.8631 411.188 98.4847 381.651 99.2706C413.111 99.045 444.76 99.2864 476.249 99.8497C476.865 107.095 477.173 110.717 477.789 117.962C474.693 118.394 472.973 118.616 469.882 119.205C473.526 119.544 475.264 119.795 478.735 120.139C479.249 129.284 479.593 133.853 480.101 142.84C478.582 143.845 477.909 144.344 476.39 145.349C312.499 134.509 168.527 141.232 20.0973 163.634C17.1445 163.271 15.5846 163.171 12.6377 162.965C12.204 160.611 11.9902 159.513 11.5566 157.159C13.5991 156.293 14.6174 155.781 16.6599 154.915C19.7618 154.641 21.4885 154.576 24.5963 154.46C40.9225 151.797 49.1749 150.542 65.6855 148.188C48.2821 149.785 39.5 150.744 22.2811 152.651C18.7749 151.36 17.1975 150.786 13.6913 149.495C12.9281 138.306 12.5494 132.79 11.7862 121.6C12.7751 120.299 13.4363 119.484 14.4252 118.184C46.9461 113.968 79.4846 110.227 112.219 107.109C78.0798 109.647 44.1246 112.494 10.1754 115.498C8.75289 114.445 8.21137 113.833 6.783 112.623C6.1787 105.693 5.87655 102.228 5.27226 95.2987C8.88046 94.6901 10.5953 94.3102 14.0308 93.708C10.2264 93.6919 8.49982 93.7563 4.69542 93.7402C4.52081 84.4247 4.52278 79.8425 4.35406 70.6848C4.83084 69.561 5.15262 68.9169 5.6294 67.7932C47.2522 66.5565 88.8691 65.162 130.659 63.7611C91.0784 64.1316 51.6649 64.3378 12.0728 64.3928C11.9786 61.8682 11.9315 60.606 11.8373 58.0815C14.0584 57.3666 15.0825 57.0124 17.3095 56.4553C15.0531 56.2235 13.8386 56.1108 11.7549 55.8725C11.8079 43.3884 11.9178 37.0643 11.9708 24.5802C68.6091 22.6254 476.285 3.4675 481.131 3.60272Z" fill="#FFD261"/>
<mask id="mask0" mask-type="alpha" maskUnits="userSpaceOnUse" x="2" y="5" width="486" height="161">
<path d="M481.19 5.1806C482.035 18.5792 482.455 25.1996 483.301 38.5982C483.301 38.5982 480.609 40.5946 479.251 41.2773C477.893 41.9599 479.069 50.2902 479.069 50.2902C426.645 53.9838 374.036 57.3683 321.595 60.5886C371.649 58.2474 427.345 58.8557 471.738 53.0916C473.459 52.8694 474.379 72.9013 474.379 72.9013C473.3 76.4176 472.847 78.1725 471.946 81.8401C465.23 82.5647 461.789 83.0091 455.073 83.7336C461.991 83.7915 465.45 83.8205 472.374 84.0362C472.223 89.2559 472.15 91.9446 471.999 97.1643C471.332 97.8212 471.004 98.3074 470.165 98.9708C440.616 99.441 411.247 100.063 381.71 100.848C413.169 100.623 444.819 100.864 476.308 101.428C476.924 108.673 477.232 112.295 477.848 119.54C474.752 119.972 473.031 120.194 469.941 120.783C473.585 121.121 475.323 121.373 478.794 121.717C479.308 130.862 479.651 135.431 480.159 144.418C478.641 145.423 477.968 145.922 476.449 146.927C313.407 134.041 169.54 141.223 20.1559 165.212C17.2031 164.848 15.6432 164.749 12.6962 164.543C12.2626 162.189 12.0488 161.091 11.6152 158.737C13.6577 157.871 14.676 157.359 16.7185 156.492C19.8204 156.219 21.547 156.154 24.6549 156.038C40.9811 153.375 49.2335 152.119 65.7441 149.766C48.3407 151.363 39.5586 152.322 22.3397 154.229C18.8335 152.937 17.2561 152.364 13.7499 151.073C12.9867 139.883 12.608 134.368 11.8448 123.178C12.8337 121.877 13.4949 121.062 14.4837 119.761C47.0046 115.546 79.5432 111.804 112.278 108.687C78.1384 111.225 44.1832 114.071 10.234 117.076C8.81148 116.023 8.26996 115.411 6.84159 114.2C6.2373 107.271 5.93515 103.806 5.33085 96.8766C8.93905 96.268 10.6539 95.888 14.0894 95.2859C10.285 95.2698 8.55841 95.3342 4.75401 95.3181C4.5794 86.0025 4.58137 81.4204 4.41266 72.2626C4.88943 71.1388 5.21121 70.4948 5.68799 69.371C47.3108 68.1343 88.9277 66.7399 130.717 65.339C91.137 65.7095 51.7235 65.9157 12.1314 65.9706C12.0372 63.4461 11.9901 62.1839 11.8959 59.6594C14.117 58.9445 15.1411 58.5903 17.3681 58.0332C15.1117 57.8014 13.8972 57.6887 11.8135 57.4504C11.8665 44.9663 11.9764 38.6422 12.0294 26.1581C68.6677 24.2032 476.343 5.04538 481.19 5.1806Z" fill="url(#paint0_linear)"/>
</mask>
<g mask="url(#mask0)">
<g opacity="0.1">
<path d="M-5.35918 148.626C49.5114 131.727 106.944 123.264 165.519 117.603C239.329 112.48 314.525 112.045 387.86 117.367C387.193 118.024 386.86 118.352 386.198 119.167C268.87 116.434 131.315 118.405 21.8583 155.195C21.8583 155.195 -7.97068 157.413 -5.35918 148.626Z" fill="#C17C2B"/>
<path d="M152.933 160.259C218.508 142.961 289.762 129.559 359.242 128.863C389.159 129.011 418.91 129.323 448.666 129.793C393.183 130.283 333.694 129.974 279.255 139.905C262.66 144.632 251.947 149.455 251.947 149.455C218.873 152.743 186.042 157.918 152.933 160.259Z" fill="#C17C2B"/>
<path d="M313.948 152.199C313.948 152.199 357.688 142.825 384.801 141.971C420.363 140.487 455.925 139.002 491.678 137.985C493.181 145.829 494.018 149.747 495.521 157.591C435.218 153.995 374.251 155.795 313.948 152.199Z" fill="#C17C2B"/>
<path d="M208.274 72.5578C181.035 74.6799 158.719 78.9884 158.491 82.157C158.264 85.3255 180.244 85.9275 207.484 83.8054C234.377 81.6961 256.354 77.5583 256.582 74.3898C256.815 71.379 235.174 70.6063 208.274 72.5578ZM225.293 79.191C213.915 80.0894 204.574 79.9639 204.699 78.6952C204.831 77.5843 214.102 75.8164 225.652 74.9116C237.03 74.0131 246.205 74.3029 246.073 75.4138C245.947 76.6825 236.671 78.2926 225.293 79.191Z" fill="#C17C2B"/>
<path d="M491.458 67.208C453.236 66.8959 414.864 67.2212 376.779 65.9559C328.614 63.3286 279.938 60.8784 231.564 61.8929C190.5 64.2147 147.755 72.4454 109.629 83.9797C92.7471 90.2975 95.6489 98.5633 123.822 98.3024C171.327 97.1623 221.494 93.2368 267.491 84.0949C268.86 83.7278 293.527 82.1757 302.399 79.0007C311.099 75.8321 323.246 72.3769 326.854 71.7683C356.391 70.9825 385.808 71.6232 415.076 72.9014C443.659 74.3632 489.276 73.6095 489.276 73.6095C490.391 71.0399 490.689 69.7647 491.458 67.208ZM310.501 69.0604C306.398 70.3194 292.056 70.5384 284.988 71.1181C277.921 71.6977 282.01 74.7052 283.789 76.0609C285.563 77.2587 279.549 78.273 274.232 79.4194C268.915 80.5658 259.46 82.0245 251.231 83.9115C246.432 85.0385 232.833 86.6518 211.78 87.7531C190.561 89.0187 126.849 91.3954 134.407 85.4254C142.144 79.6068 170.813 74.1132 200.018 69.0738C231.491 64.5817 263.987 64.3175 295.838 65.3413C310.74 66.2074 314.609 67.9591 310.501 69.0604Z" fill="#C17C2B"/>
<path d="M517.337 125.967C472.83 119.411 427.692 114.459 382.313 112.36C346.127 111.024 328.785 109.617 328.785 109.617C374.605 109.645 420.31 111.258 465.975 111.767C480.312 111.39 518.158 115.509 525.89 118.854C533.974 122.345 517.337 125.967 517.337 125.967Z" fill="#C17C2B"/>
<path d="M40.2053 174.26C85.1852 161.048 131.974 149.981 179.244 142.529C216.897 136.859 234.414 133.677 234.414 133.677C186.021 138.801 138.221 145.956 90.2493 153.117C74.9296 154.953 35.881 164.942 28.6038 169.163C21.511 173.694 40.2053 174.26 40.2053 174.26Z" fill="#C17C2B"/>
<path d="M13.81 124.842C47.2001 120.753 80.1978 115.414 113.79 112.107C167.352 106.475 220.741 100.849 274.517 96.3149C219.605 98.2054 164.55 100.891 109.905 105.3C77.4392 106.353 39.4716 108.243 13.81 124.842Z" fill="#C17C2B"/>
<path d="M16.3411 109.264C16.3411 109.264 44.5259 95.4144 71.9043 87.757C98.9374 80.1125 120.838 73.9235 124.464 73.7882C128.089 73.653 61.0522 84.2118 44.5161 90.5167C27.98 96.8216 3.80953 107.045 3.80953 107.045C3.80953 107.045 9.98212 110.291 16.3411 109.264Z" fill="#C17C2B"/>
<path d="M490.193 33.2849C469.85 30.2517 434.229 30.1585 431.645 30.4129C429.067 30.8251 352.795 30.1943 352.795 30.1943C298.369 35.8586 243.171 39.3397 189.162 46.8845C169.591 50.6166 145.24 51.367 106.297 50.2917C65.4551 49.2872 24.4758 49.2359 -16.3484 48.7048C-16.3484 48.7048 -25.8585 53.3256 -20.2313 65.1238C-14.6042 76.922 -13.7095 87.0007 -3.0419 90.2368C26.3495 80.9243 56.2943 72.5392 87.0003 66.0217C116.729 61.1206 147.41 58.5541 177.798 57.4205C216.843 56.596 256.03 54.9762 295.052 53.5205C340.842 52.7604 386.954 51.3562 432.66 52.9693C460.213 54.6275 503.454 55.0684 503.454 55.0684C504.794 53.9124 505.461 53.2555 506.974 52.0931C509.376 46.9475 510.484 44.2201 512.88 38.9167C512.707 38.9231 510.363 36.3245 490.193 33.2849ZM371.732 46.552C328.842 46.256 285.683 48.024 242.846 49.1479C272.455 45.6734 302.052 41.8833 331.679 38.8821C351.672 37.1882 382 39.0589 411.054 39.2391C439.762 39.4322 496.587 47.1085 496.587 47.1085C454.917 47.0829 413.259 47.3729 371.732 46.552Z" fill="#C17C2B"/>
<path d="M207.968 106.066C297.908 97.6544 396.911 86.5351 486.779 94.7168C484.926 96.05 483.914 96.7197 482.062 98.0528C442.423 96.8455 402.099 95.8217 362.244 98.0984C310.832 101.122 259.368 102.726 207.968 106.066Z" fill="#C17C2B"/>
<path d="M320.411 89.0729C378.442 87.3821 437.574 87.3883 495.282 90.9236C498.653 88.5858 500.338 87.417 503.882 85.0728C503.882 85.0728 463.511 82.7867 442.124 84.2165C401.567 86.2034 360.974 87.2437 320.411 89.0729Z" fill="#C17C2B"/>
</g>
<g opacity="0.1">
<path d="M474.609 79.0547C474.609 79.0547 473.855 58.8586 471.968 59.245C471.283 59.4286 452.13 60.4591 427.624 61.6893C430.249 62.5393 436.333 63.4184 439.798 63.6051C446.556 63.9851 459.986 67.1181 460.115 70.5893C460.245 74.0605 456.515 80.6777 455.995 85.2792C455.475 89.8806 451.329 94.6173 454.443 94.6591C457.384 94.7074 464.993 94.7396 456.483 98.375C448.147 102.004 396.961 106.442 393.853 106.557C424.598 105.727 439.971 105.311 470.388 104.966C471.055 104.31 471.383 103.823 472.223 103.16C472.374 97.9403 472.447 95.2515 472.598 90.0318C465.679 89.9739 462.22 89.945 455.296 89.7292C462.012 89.0047 465.454 88.5603 472.17 87.8358C473.082 84.4837 473.536 82.7288 474.609 79.0547Z" fill="#D7A456"/>
<path d="M100.925 161.251C141.567 156.891 182.601 153.78 223.677 151.774C308.769 147.81 392.293 148.17 476.851 153.074C478.37 152.069 479.043 151.57 480.562 150.565C480.047 141.42 479.704 136.851 479.196 127.864C475.552 127.526 473.814 127.275 470.343 126.93C473.439 126.499 475.16 126.277 478.25 125.687C477.634 118.442 477.326 114.82 476.71 107.575C446.085 106.979 430.694 106.921 399.92 106.963C414.988 107.665 452.93 109.726 456.138 112.292C460.066 115.622 465.156 131.548 462.66 134.169C451.533 146.434 361.33 143.163 319.576 145.511C246.421 149.662 173.421 153.333 100.925 161.251Z" fill="#D7A456"/>
<path d="M469.149 11.4758C455.722 13.0826 448.839 13.9714 435.407 15.4205C444.886 14.5929 452.138 14.3224 454.918 14.6926C466.563 16.3123 469.319 16.0514 467.602 21.0135C465.886 25.9756 464.275 33.7778 464.41 37.4068C464.545 41.0358 464.806 43.396 462.888 47.5757C462.405 48.5417 462.423 49.015 462.601 49.1664C461.738 49.1986 459.85 49.585 455.242 51.1789C442.445 55.7643 443.777 59.0327 431.018 59.9826C450.332 58.6301 459.995 58.1116 479.304 56.6014C479.304 56.6014 478.129 48.2711 479.486 47.5885C480.844 46.9058 483.536 44.9094 483.536 44.9094C482.691 31.5108 482.271 24.8904 481.425 11.4918C476.579 11.3566 474.162 11.4468 469.149 11.4758Z" fill="#D7A456"/>
<path d="M68.7322 164.98C68.899 164.816 68.9049 164.974 68.7322 164.98V164.98Z" fill="#D7A456"/>
</g>
<path d="M14.4136 117.868C12.6458 116.828 11.759 116.229 10.1638 115.182C42.8986 112.065 75.651 109.421 108.415 107.093C76.889 110.165 45.5591 113.862 14.4136 117.868Z" fill="#BC905C"/>
<path d="M5.44494 67.4841C45.8591 66.2925 86.4401 64.9367 126.848 63.5873C88.4767 63.9127 50.0991 64.0803 11.7156 64.0901C11.0191 63.9581 10.4953 63.8197 9.79873 63.6876C8.1251 65.1721 7.29123 65.9932 5.44494 67.4841Z" fill="#FFD261"/>
</g>
<path d="M6.77145 112.307C8.19981 113.518 8.73545 113.972 10.1638 115.182C42.8986 112.065 75.651 109.422 108.415 107.093C76.4849 108.6 44.5722 110.581 12.844 112.87C12.844 112.87 10.5229 110.903 9.28483 110.159C8.05267 109.573 6.52229 96.3581 6.52229 96.3581C9.41631 95.1442 10.9526 94.6129 13.8466 93.3989C10.2384 94.0075 8.52358 94.3875 5.08804 94.9896C5.69234 101.919 5.99449 105.384 6.77145 112.307Z" fill="#FFD261"/>
<path d="M462.139 4.31123C467.734 5.99851 470.532 6.84214 476.128 8.52942C476.128 8.52942 479.554 30.8378 479.083 32.1194C478.612 33.401 477.044 37.7255 476.234 39.1778C475.424 40.63 475.963 45.8239 475.963 45.8239C463.591 47.8655 457.577 48.8798 445.204 50.9214C458.827 49.9392 465.555 49.5302 479.004 48.5545C479.004 48.5545 477.829 40.2243 479.187 39.5416C480.545 38.859 483.237 36.8625 483.237 36.8625C482.391 23.4639 481.971 16.8435 481.125 3.44495C476.285 3.46752 473.862 3.39991 469.022 3.42247C466.271 3.84109 464.895 4.05039 462.139 4.31123Z" fill="#FFD261"/>
<path d="M6.87547 91.9209C6.87547 91.9209 6.78918 71.0679 7.29539 70.7331C23.5941 62.699 85.4162 65.2908 123.741 63.7032C125.295 63.6452 86.2677 64.9431 52.9384 66.0284C52.4205 66.0477 52.0751 66.0606 51.5572 66.0799C49.4852 66.1572 47.4133 66.2345 45.5141 66.3053C30.3141 66.7143 22.7171 66.9977 7.5171 67.4068C6.48703 67.6032 6.14759 67.7738 5.11752 67.9703C4.63486 68.9363 4.47985 69.4161 4.16396 70.2179C4.33857 79.5334 4.3366 84.1156 4.50532 93.2734C8.30972 93.2894 10.0363 93.225 13.8407 93.2411C11.0605 92.8708 9.66157 92.449 6.87547 91.9209Z" fill="#FFD261"/>
<path d="M15.5025 160.962C15.1277 160.186 14.9433 159.877 14.5685 159.101C15.3965 158.122 15.8968 157.629 16.7307 156.808C16.7307 156.808 19.4815 156.389 21.8987 156.299C24.1433 156.215 65.6798 148.03 65.6798 148.03C49.1692 150.384 41.0895 151.633 24.5907 154.303C21.4887 154.576 19.7621 154.641 16.6542 154.757C14.6117 155.623 13.5934 156.135 11.5509 157.001C11.9845 159.355 12.1984 160.453 12.632 162.807C15.5849 163.171 17.1447 163.271 20.0917 163.477C87.5213 154.167 154.712 147.711 223.032 143.74C308.124 139.776 391.648 140.136 476.206 145.04C477.725 144.035 478.398 143.536 479.917 142.531C479.403 133.386 479.059 128.817 478.551 119.83C474.908 119.492 473.169 119.241 469.698 118.896C472.794 118.465 474.515 118.243 477.605 117.653C476.989 110.408 476.681 106.786 476.065 99.5406C444.576 98.9773 413.099 98.7295 381.467 98.9615C412.426 99.2286 443.23 99.9755 474.046 101.038C474.794 107.172 475.084 110.321 475.832 116.455C472.068 117.544 470.187 118.088 466.596 119.17C470.257 119.981 472.174 120.384 475.836 121.195C475.836 121.195 476.977 137.901 476.852 139.17C476.554 140.445 474.766 143.514 474.766 143.514C416.344 139.373 357.153 137.789 298.42 139.19C206.69 141.348 115.125 147.923 24.6711 161.094C20.8667 161.078 19.1342 160.984 15.5025 160.962Z" fill="#FFD261"/>
<path d="M16.7229 147.328C15.8929 138.985 15.3887 134.738 14.5529 126.237C14.5529 126.237 15.5614 120.827 16.9132 119.987C18.0983 119.311 82.2474 110.123 102.39 107.792C72.9355 110.787 43.6657 114.091 14.4195 118.026C13.4306 119.327 12.7694 120.141 11.7805 121.442C12.5437 132.632 12.9224 138.148 13.6856 149.337C17.0191 150.635 18.7693 151.202 22.2755 152.493C39.667 150.58 48.2765 149.627 65.6798 148.03C48.5924 148.825 40.1379 149.299 23.0622 150.41C20.4194 149.086 19.1872 148.5 16.7229 147.328Z" fill="#FFD261"/>
<path d="M471.929 95.2709C472.08 90.0512 472.153 87.3625 472.304 82.1428C465.386 82.0848 461.927 82.0559 455.003 81.8402C461.719 81.1156 465.16 80.6712 471.876 79.9467C472.955 76.4304 473.409 74.6755 474.309 71.0079C474.309 71.0079 473.556 50.8118 471.668 51.1982C470.984 51.3817 451.83 52.4122 427.324 53.6424C443.572 53.5103 451.693 53.3654 468.113 53.2268C469.569 59.8086 470.389 63.254 471.851 69.9936C471.851 69.9936 470.038 77.0133 469.198 77.6766C468.358 78.3399 449.638 81.7243 449.638 81.7243C457.443 82.3811 461.432 82.7063 469.416 83.5145C469.416 83.5145 469.322 94.8941 468.982 95.0648C458.811 100.5 410.813 97.7087 381.646 99.1128C411.176 98.1692 440.546 97.5476 470.1 97.2351C470.762 96.4204 471.095 96.092 471.929 95.2709Z" fill="#FFD261"/>
<path fill-rule="evenodd" clip-rule="evenodd" d="M92.0626 50.5566C99.7369 59.1428 108.227 69.9815 109.6 71.7348C109.673 71.8283 109.727 71.896 109.758 71.9361C110.49 72.8661 111.09 73.5548 111.546 74.0779L111.547 74.078L111.547 74.078C112.559 75.2392 112.86 75.5837 112.303 75.9378C111.853 76.2234 111.382 76.3322 110.907 76.3536C110.37 76.3779 109.753 76.1441 109.294 75.742C108.969 75.4578 106.698 72.4291 103.592 68.0141C101.215 64.6358 99.2277 61.8341 99.1748 61.7881C99.0526 61.6816 99.0548 61.6853 103.399 68.7625C106.127 73.2065 108.004 76.4967 108.014 76.7122C108.033 77.1505 107.925 77.3863 107.417 78.0136C106.57 79.0596 106.222 80.2075 106.04 82.5589C105.836 85.1947 105.012 87.0876 102.639 90.3701C101.25 92.2919 101.025 92.6427 100.687 93.4073C100.261 94.37 100.156 94.9032 100.158 96.0946C100.159 97.3543 100.304 98.1615 100.738 99.3461C101.119 100.383 101.497 101.063 102.448 102.412C103.269 103.577 103.751 104.448 103.767 104.797C103.779 105.074 103.832 105.072 105.007 104.748C107.821 103.971 110.078 102.726 111.313 101.27C112.077 100.368 112.244 99.8823 112.197 98.6967C112.166 97.9211 112.131 97.7601 111.904 97.3234C111.533 96.6124 110.891 96.0367 109.493 95.1621C107.662 94.016 106.859 93.0632 106.588 91.715C106.366 90.609 106.53 89.814 107.418 87.6899C108.338 85.4913 108.549 84.5626 108.621 82.3849C108.668 80.978 108.795 80.4183 109.174 79.9566C109.569 79.4751 109.936 79.3014 110.959 79.1127C112.627 78.8055 113.675 78.3187 114.517 77.4616C115.246 76.7181 115.534 76.0203 115.537 74.9895L115.539 74.2081L115.09 73.726C113.466 71.9798 90.9656 49.1759 90.8707 49.1801C90.8504 49.1811 91.3868 49.8005 92.0626 50.5566ZM104.297 97.333C104.617 96.6935 104.396 95.9004 103.795 95.535C103.227 95.1899 102.379 95.4029 102.401 95.8851C102.408 96.0321 102.493 96.1355 102.679 96.222C102.992 96.367 103.022 96.5447 102.798 96.9206C102.571 97.3016 102.605 97.6258 102.895 97.8339C103.361 98.1699 103.99 97.9452 104.297 97.333ZM113.253 62.8531C112.561 62.7764 112.531 62.7651 112.853 62.7002C113.469 62.5758 114.939 62.641 115.96 62.8379C118.342 63.2972 120.551 64.6497 122.956 67.1204L123.595 67.7768L124.459 67.5963C128.097 66.8359 131.846 67.1402 135.03 68.4544C135.906 68.8159 137.295 69.5516 137.473 69.7488C137.529 69.8116 137.648 70.2272 137.735 70.6724C138.036 72.2127 137.974 73.4066 137.544 74.3156C137.311 74.8103 137.304 74.9641 137.494 75.3698C137.646 75.6935 138.039 75.9204 138.418 75.9028C139.193 75.8667 139.97 74.5638 140.277 72.7858L140.399 72.0796L140.718 72.4138C142.472 74.2474 143.9 76.7914 144.209 78.6342L144.289 79.1146L143.989 78.6882C143.472 77.9543 142.965 77.4616 142.325 77.0747C141.172 76.3773 139.977 76.1762 136.836 76.1509C133.999 76.1281 132.386 75.9563 130.774 75.5048C128.031 74.7369 126.615 73.6131 123.212 69.5038C121.701 67.6786 120.773 66.6729 119.858 65.8706C117.779 64.0474 115.777 63.1325 113.253 62.8531ZM137.942 65.9657C137.956 64.6962 138.088 63.8534 138.395 63.0752C138.517 62.7672 138.633 62.5143 138.652 62.5135C138.672 62.5126 138.623 62.7381 138.544 63.0145C138.329 63.766 138.333 64.7803 138.558 65.9505C138.843 67.4353 138.976 67.6454 140.613 69.1893C141.381 69.9134 142.277 70.83 142.605 71.226L143.201 71.9462L142.615 71.4388C141.897 70.8183 140.258 69.6189 139.901 69.453C139.661 69.3418 139.626 69.3454 139.488 69.4973C139.361 69.6371 139.342 69.8396 139.366 70.7914C139.405 72.2748 139.248 73.2352 138.808 74.2082C138.57 74.7345 138.524 74.6266 138.734 74.0352C138.891 73.5936 138.9 73.4022 138.834 71.9675C138.701 69.0847 138.331 68.4069 136.29 67.3094C135.773 67.0314 134.924 66.6351 134.403 66.4288C133.883 66.2223 133.468 66.0408 133.482 66.0252C133.536 65.9661 135.5 66.4499 136.294 66.7177C137.474 67.1161 137.668 67.1659 137.807 67.1051C137.899 67.0644 137.933 66.7845 137.942 65.9657ZM112.607 64.8923C112.52 67.1265 113.519 70.0648 115.003 71.9437C116.153 73.4001 117.884 74.4941 119.128 74.5511C119.943 74.5884 120.175 74.3209 119.784 73.7962C119.24 73.0676 118.561 71.9387 118.373 71.4508C118.256 71.1476 117.991 70.2486 117.784 69.4529C117.078 66.7364 116.457 65.6941 115.098 64.9425C114.603 64.6686 113.556 64.3282 112.954 64.2452L112.634 64.2009L112.607 64.8923ZM137.124 85.4265C130.478 83.0673 128.075 80.8674 127.899 76.9803C127.873 76.4083 127.872 75.9394 127.896 75.9383C127.92 75.9373 128.18 76.1146 128.476 76.3325C129.847 77.3449 131.35 77.7358 135.48 78.1552C137.91 78.4019 139.281 78.6277 140.554 78.9911C144.597 80.1454 147.184 82.7418 147.938 86.4036C148.157 87.4675 148.148 89.4816 147.919 90.5534C147.738 91.3999 147.139 92.9378 146.965 93.0037C146.916 93.022 146.86 92.8343 146.836 92.5765C146.706 91.1946 145.952 89.8777 144.743 88.9201C143.368 87.8315 141.549 86.9978 137.124 85.4265ZM132.214 85.3557C132.318 85.6272 132.488 86.2482 132.592 86.7361C133.256 89.8547 131.738 92.4672 128.606 93.5944C128.274 93.7136 126.962 94.0354 125.689 94.309C123.112 94.863 121.967 95.2246 120.828 95.8437C120.021 96.2828 119.048 96.9295 119.11 96.9866C119.13 97.0051 119.317 96.9511 119.525 96.8667C120.969 96.2797 122.591 95.9363 125.068 95.6938C126.05 95.5977 127.167 95.4646 127.55 95.3985C129.748 95.0171 131.251 94.2693 132.387 92.99C133.02 92.278 133.386 91.6249 133.665 90.7147C133.841 90.1376 133.859 89.925 133.815 88.9182C133.77 87.8922 133.737 87.7056 133.49 87.0845C133.166 86.2702 132.8 85.6647 132.35 85.1985L132.024 84.862L132.214 85.3557ZM135.826 91.9675C134.873 90.1238 134.592 88.3151 134.991 86.5985C135.034 86.4149 135.108 86.2629 135.158 86.2607C135.207 86.2585 135.416 86.3611 135.624 86.4885C136.035 86.7422 136.857 87.1636 139.045 88.2428C141.776 89.5896 143.346 90.6569 144.438 91.9085C145.394 93.0041 146.012 94.2734 146.352 95.8399C146.546 96.7273 146.553 98.8832 146.367 99.7938C145.779 102.665 144.215 104.971 141.899 106.379C141.56 106.586 141.255 106.756 141.221 106.759C141.187 106.761 141.299 106.43 141.47 106.022C142.192 104.3 142.209 102.655 141.523 100.856C141.103 99.755 140.287 98.4248 138.661 96.1877C136.77 93.5869 136.304 92.893 135.826 91.9675ZM119.772 98.8805C117.048 99.4548 114.101 101.058 111.772 103.233L111.079 103.88L111.717 103.952C115.047 104.324 115.959 104.746 118.36 107.029C119.742 108.342 120.202 108.628 121.309 108.861C122.936 109.203 124.486 108.369 124.965 106.896C125.178 106.237 125.097 105.167 124.794 104.641C124.074 103.389 122.124 103.062 121.232 104.043C120.49 104.861 120.769 106.028 121.746 106.187C121.97 106.224 121.963 106.214 121.686 106.103C121.254 105.928 121.057 105.668 121.036 105.242C120.985 104.242 122.093 103.629 123.169 104.062C123.957 104.379 124.285 104.825 124.321 105.631C124.377 106.872 123.374 107.854 122.149 107.756C121.495 107.704 120.681 107.32 120.232 106.852C119.103 105.674 119.434 103.721 120.899 102.911C122.015 102.294 123.538 102.365 124.749 103.09C126.141 103.923 126.752 104.714 128.037 107.342C128.456 108.198 128.988 109.159 129.219 109.477C130.397 111.094 131.755 111.852 133.346 111.78C134.224 111.741 134.877 111.549 135.688 111.093C136.291 110.753 137.139 110.122 137.073 110.062C137.055 110.045 136.802 110.137 136.513 110.266C134.806 111.029 133.038 111.062 131.978 110.35C131.311 109.901 130.747 108.974 130.425 107.797C130.37 107.593 130.176 106.691 129.994 105.792C129.534 103.513 129.145 102.497 128.293 101.349C127.421 100.175 125.805 99.2291 124.029 98.8544C122.92 98.6207 120.946 98.6326 119.772 98.8805ZM115.127 81.3104C115.324 80.4154 116.051 79.5375 116.828 79.2575C117.322 79.0796 118.362 79.132 118.86 79.3599C119.825 79.8019 120.56 80.8744 120.447 81.6778C120.31 82.6573 118.785 83.5049 116.992 83.5987C116.076 83.6464 115.732 83.5374 115.361 83.0813C115.131 82.7988 115.006 81.8564 115.127 81.3104ZM118.635 79.7171C119.118 79.986 119.259 80.4097 119 80.8191C118.822 81.1012 118.243 81.3878 117.812 81.4072C117.165 81.4365 116.437 81.0038 116.418 80.5784C116.379 79.7235 117.714 79.2047 118.635 79.7171ZM259.36 75.813C257.676 71.0113 259.907 66.8645 264.998 65.3345C266.458 64.8954 273.153 64.7614 274.319 65.1479C274.747 65.2895 274.958 65.8978 275.019 67.1646C275.067 68.1623 275.231 69.3692 275.382 69.8467C275.612 70.5703 275.504 70.7196 274.73 70.7429C274.03 70.7635 273.589 70.3728 272.943 69.1598C271.91 67.2224 270.74 66.6442 268.08 66.7569C264.683 66.9006 262.301 69.2995 262.831 72.0442C263.175 73.8302 265.052 75.5182 269.193 77.7681C273.133 79.9083 275.457 81.7098 276.427 83.374C279.018 87.8234 277.201 92.7922 271.998 95.4894C269.326 96.8738 264.76 97.2108 261.497 96.2643L259.407 95.658L259.258 92.369C259.124 89.3905 259.181 89.0762 259.859 89.0455C260.427 89.0199 260.69 89.3842 260.942 90.5512C261.57 93.453 263.873 95.1278 267.038 94.9848C270.138 94.8448 272.229 93.0529 272.92 89.9439C273.215 88.6194 273.132 88.1397 272.366 86.7279C271.447 85.0353 269.947 83.9523 264.903 81.3384C262.105 79.8878 260.081 77.8707 259.36 75.813ZM162.621 71.9061C161.951 71.9364 161.679 71.729 161.654 71.1668C161.62 70.4225 161.88 70.3737 167.136 70.1362C172.015 69.9159 172.643 69.9611 172.556 70.526C172.502 70.8777 171.849 71.3914 171.105 71.6681L169.753 72.1712L170.086 82.1391C170.308 88.7903 170.591 92.6202 170.938 93.6492C171.968 96.7097 174.763 98.3701 178.594 98.1971C181.26 98.0766 182.79 97.3828 184.664 95.4428C186.679 93.3572 186.929 91.4507 186.478 81.621C186.034 71.9252 185.829 71.1326 183.737 71.0255C182.786 70.9765 182.458 70.7701 182.433 70.2036C182.401 69.4972 182.711 69.4327 187.103 69.2343C191.547 69.0336 191.81 69.0652 191.843 69.8032C191.865 70.2845 191.615 70.5987 191.193 70.6213C189.378 70.7194 189.352 70.8937 189.588 81.5368C189.833 92.5897 189.655 93.9073 187.54 96.713C186.93 97.5224 185.442 98.7249 184.234 99.3854C182.265 100.462 181.63 100.604 178.116 100.756C174.877 100.896 173.847 100.785 172.194 100.121C169.781 99.1518 168.181 97.8284 166.953 95.7867C166.096 94.3614 165.992 93.5739 165.362 83.6834C164.641 72.3622 164.514 71.8206 162.621 71.9061ZM199.31 70.2489C198.413 70.2894 198.144 70.1246 198.116 69.5198C198.083 68.7873 198.332 68.7291 202.102 68.5889L206.122 68.4395L208.144 70.567C209.257 71.737 212.874 75.391 216.184 78.6867C219.494 81.9821 223.295 85.818 224.632 87.211C225.97 88.6043 227.221 89.7368 227.412 89.7281C227.608 89.7193 227.521 85.6174 227.211 80.3071L226.662 70.9019L225.52 70.0093C224.891 69.5181 223.946 69.136 223.419 69.1599C222.717 69.1916 222.451 68.9906 222.425 68.4108C222.39 67.6478 222.589 67.6133 227.785 67.4836C232.202 67.3733 233.185 67.4523 233.207 67.9187C233.222 68.2512 232.692 68.6248 231.933 68.8152C231.22 68.9947 230.44 69.354 230.202 69.6138C229.894 69.9491 229.917 74.1037 230.282 83.9412L230.795 97.7963L229.659 97.8476C228.681 97.8918 227.467 96.8436 220.933 90.3143C216.759 86.1424 211.883 81.1806 210.097 79.288C208.31 77.3951 206.716 75.8375 206.554 75.8269C206.096 75.7965 207.001 93.3876 207.542 95.0368C207.964 96.322 208.223 96.5348 209.784 96.8763C211.041 97.1511 211.558 97.4641 211.58 97.9626C211.609 98.6028 211.139 98.6842 206.123 98.9108C201.018 99.1414 200.632 99.1077 200.601 98.4264C200.578 97.9275 200.934 97.6037 201.716 97.4106C204.088 96.8255 204.213 96.0611 203.825 84.4802C203.607 77.9941 203.292 73.4632 202.992 72.5251C202.465 70.8752 201.306 70.1587 199.31 70.2489ZM240.421 68.3919C239.581 68.4298 239.311 68.256 239.284 67.6603C239.251 66.9136 239.511 66.8671 245.13 66.6132C250.75 66.3594 251.013 66.3823 251.047 67.129C251.072 67.7021 250.82 67.9221 250.102 67.9546C249.563 67.9789 248.778 68.3738 248.358 68.832C247.616 69.6411 247.613 70.0268 248.264 81.983C248.899 93.6546 248.976 94.3281 249.721 94.8205C250.153 95.1063 250.914 95.3217 251.412 95.2992C252.056 95.2702 252.327 95.484 252.352 96.0398C252.386 96.7864 252.126 96.8328 246.507 97.0866C241.021 97.3344 240.623 97.3031 240.592 96.6212C240.568 96.0711 240.942 95.8111 242.102 95.5718C244.405 95.0974 244.49 94.3351 243.735 80.8354C243.13 70.0245 243.05 69.3524 242.308 68.8617C241.876 68.5759 241.027 68.3645 240.421 68.3919ZM281.445 66.5388C280.909 66.563 280.487 66.2841 280.338 65.8058C280.106 65.0592 280.291 65.025 285.943 64.7697C291.526 64.5175 291.788 64.5405 291.822 65.2871C291.849 65.8876 291.596 66.0803 290.729 66.1194C288.261 66.2309 288.336 66.6754 292.534 76.7239C294.67 81.8389 296.739 86.696 297.132 87.5172L297.846 89.0107L300.48 80.9064C303.582 71.367 303.961 69.6116 303.285 67.9278C302.814 66.7543 301.139 65.6493 299.915 65.7045C299.568 65.7202 299.292 65.396 299.272 64.9506C299.238 64.2028 299.498 64.1574 305.313 63.8947C311.129 63.6321 311.392 63.6538 311.426 64.4016C311.451 64.9575 311.2 65.1948 310.556 65.2239C308.908 65.2983 308.22 66.2071 308.534 67.8982C308.857 69.6391 316.451 88.1627 316.721 87.8682C317.16 87.3892 323.712 66.7831 323.677 65.9932C323.634 65.0465 322.951 64.664 321.427 64.7328C320.74 64.7638 320.469 64.5604 320.444 63.9943C320.41 63.2563 320.67 63.2011 325.113 63.0004C329.104 62.8201 329.822 62.8801 329.845 63.3942C329.86 63.7279 329.392 64.1926 328.804 64.427C327.48 64.9546 327.167 65.5028 325.676 69.8955C325.022 71.8245 322.972 77.8619 321.122 83.3111C319.272 88.7608 317.679 93.4573 317.582 93.7476C317.485 94.0382 316.847 94.301 316.165 94.3318L314.923 94.3879L311.776 87.1897C310.045 83.231 308 78.5406 307.231 76.7668C305.913 73.7272 305.808 73.5973 305.404 74.5001C305.169 75.0276 303.524 79.8932 301.749 85.3129L298.521 95.1671L297.148 95.1121L295.775 95.0572L289.941 81.6493C286.682 74.1583 283.712 67.8568 283.209 67.3705C282.715 66.8913 281.921 66.5173 281.445 66.5388ZM359.848 63.1633C359.776 63.0179 359.752 62.4845 359.752 62.4845C359.752 62.4845 359.729 62.2929 359.805 62.1865C359.881 62.0806 359.909 62.0766 360.196 62.0362L360.199 62.0358C361.253 61.8873 363.369 61.6219 365.138 61.4645C365.301 61.45 365.483 61.4335 365.68 61.4156L365.682 61.4155L365.684 61.4153C367.63 61.2387 371.116 60.9626 373.521 60.9741C378.134 60.9962 381.509 63.0734 382.791 66.7C384.072 70.3265 383.638 73.8046 382.217 76.0704C380.795 78.336 378.323 80.3432 374.066 80.4121C370.553 80.469 369.584 79.8543 368.81 79.3633C368.647 79.2595 368.492 79.161 368.323 79.0759L368.535 83.765C368.717 86.9613 368.813 88.4961 369.086 89.0535C369.454 89.8038 370.23 90.2413 371.716 90.5363C371.716 90.5363 372.388 90.6622 372.566 90.8206C372.745 90.979 372.762 91.3481 372.762 91.3481C372.762 91.3481 372.813 91.6916 372.683 91.8737C372.553 92.0558 372.285 92.0327 372.285 92.0327L365.775 92.2742L361.851 92.4411C361.851 92.4411 361.443 92.5388 361.281 92.3799C361.119 92.221 361.118 91.875 361.118 91.875C361.118 91.875 361.135 91.5014 361.308 91.3267C361.481 91.1521 362.142 90.9354 362.142 90.9354C363.636 90.4422 364.272 89.9631 364.576 89.101C364.822 88.4062 364.767 87.1401 364.297 76.8108C363.852 67.0152 363.755 65.1886 363.507 64.6732C363.139 63.9103 362.298 63.7418 361.099 63.5019L361.099 63.5018C360.861 63.4542 360.61 63.4038 360.345 63.3455C360.345 63.3455 359.921 63.3088 359.848 63.1633ZM379.158 70.3005C379.231 71.9068 379.316 74.4229 377.678 76.1076C376.041 77.7924 372.694 78.3844 370.388 78.0401C369.661 77.9316 369.239 77.7328 368.914 77.5795L368.882 77.5642L368.283 77.2825L367.994 71.6404C367.813 68.1052 367.746 65.7997 367.815 65.4666C367.806 63.5986 370.546 63.2424 371.894 63.2507C377.642 62.9911 378.876 67.7894 379.158 70.3005ZM341.516 62.5609C341.396 62.613 341.23 62.6849 341.032 62.7703L339.533 63.6326L338.552 66.4422C338.013 67.9875 337.026 70.8241 336.361 72.7457C335.148 76.2457 334.346 78.5454 333.501 80.946C333.253 81.6522 332.504 83.8021 331.837 85.7238C331.169 87.6452 330.498 89.4756 330.346 89.7912C330.32 89.8437 330.293 89.9002 330.265 89.9602C329.88 90.7697 329.211 92.1764 327.93 92.4425C327.93 92.4425 327.223 92.5443 326.972 92.8157C326.72 93.0875 326.756 93.2986 326.756 93.2986L326.77 93.6258C326.77 93.6258 326.801 93.7833 326.954 93.8554C327.106 93.9279 327.308 93.9233 327.308 93.9233L332.028 93.6563L336.908 93.4359C336.908 93.4359 337.255 93.4606 337.383 93.3442C337.511 93.2278 337.541 93.0624 337.541 93.0624L337.525 92.7179C337.525 92.7179 337.44 92.3474 337.241 92.2103C337.041 92.0734 336.312 92.0064 336.312 92.0064C334.347 91.8378 333.944 90.3753 334.125 89.0356C334.213 88.3773 334.89 85.9268 335.664 83.4555L335.932 82.6014L341.044 82.3313C343.855 82.1827 346.284 82.0876 346.442 82.12C346.666 82.166 347.005 82.7831 348.019 84.9895C349.555 88.3325 349.685 88.7423 349.407 89.3933C349.391 89.4329 349.373 89.4766 349.353 89.5236C349.094 90.1528 348.59 91.3752 347.191 91.5606C347.191 91.5606 346.446 91.62 346.271 91.8513C346.096 92.0829 346.147 92.3376 346.147 92.3376L346.163 92.6784C346.163 92.6784 346.221 92.876 346.321 92.9508C346.42 93.0257 346.581 92.9983 346.581 92.9983L351.221 92.7553L357.746 92.4603C357.746 92.4603 358.003 92.476 358.068 92.3746C358.134 92.2729 358.143 92.1564 358.143 92.1564L358.122 91.7037C358.122 91.7037 358.083 91.4642 357.952 91.337C357.82 91.2102 356.968 91.1083 356.968 91.1083C355.879 90.9828 355.301 90.1149 354.869 89.4686C354.76 89.3037 354.659 89.1533 354.563 89.0334C354.366 88.7886 353.639 87.4309 353.059 86.1198C352.48 84.8087 351.171 81.8468 350.152 79.5382C349.132 77.2296 347.71 74.0091 346.991 72.3819C346.271 70.7544 344.904 67.6578 343.953 65.5005C343.797 65.1464 343.657 64.8284 343.531 64.5436L343.531 64.5429C342.893 63.0937 342.635 62.5089 342.568 62.4312C342.351 62.1789 341.726 62.4692 341.726 62.4692C341.726 62.4692 341.65 62.5027 341.516 62.5609ZM341.828 71.4562C341.599 70.9648 341.196 70.083 340.932 69.4966C340.453 68.4307 340.278 68.1881 340.155 68.4184C340.119 68.4856 339.881 69.2396 339.627 70.094C337.98 75.6257 337.234 78.1168 337.084 78.5867C336.989 78.8821 336.914 79.1854 336.917 79.2609C336.921 79.3476 338.463 79.3287 341.1 79.2096C343.397 79.1058 345.275 78.9925 345.273 78.9576C345.271 78.9227 345.043 78.4122 344.765 77.8225C344.488 77.2331 343.807 75.7603 343.253 74.5502C342.698 73.34 342.057 71.9478 341.828 71.4562Z" fill="black"/>
<defs>
<linearGradient id="paint0_linear" x1="247.318" y1="155.836" x2="241.777" y2="7.28546" gradientUnits="userSpaceOnUse">
<stop stop-color="#EBCB8A"/>
<stop offset="1" stop-color="#D7A456"/>
</linearGradient>
</defs>
</svg>
