<svg width="369" height="90" viewBox="0 0 369 90" fill="none" xmlns="http://www.w3.org/2000/svg">
  <path d="M0.890611 71.6474C0.110739 75.0379 0.624357 78.5974 2.33092 81.6292C4.0331 84.5185 6.59511 86.1814 9.40153 86.2076C42.485 86.5306 75.6121 87.3948 108.783 88.8002C110.09 88.8325 111.385 88.5438 112.554 87.9594C113.724 87.375 114.732 86.5128 115.491 85.4482C117.22 83.0405 117.962 80.0623 117.564 77.1249C116.399 67.4225 109.979 11.8266 109.979 11.8309C109.35 6.65017 105.575 2.58676 101.193 2.38162C75.6543 1.35158 50.1128 0.624153 24.5684 0.199334C20.6185 0.129501 17.1268 3.41602 16.04 8.19523C10.9917 29.3256 5.94188 50.4763 0.890611 71.6474Z" fill="url(#paint0_linear_607_1716)"/>
  <path d="M42.0273 56.8212C65.2905 58.8115 88.5493 59.7237 111.804 59.5578C110.04 43.8454 108.277 28.1489 106.514 12.4684C106.427 11.7482 106.238 11.0442 105.951 10.3778C88.4228 9.61838 70.8815 9.57909 53.3534 9.64893C52.7773 10.9321 45.8027 40.9778 42.0273 56.8212Z" fill="#1B2026"/>
  <path d="M22.832 5.49272C22.832 5.49272 53.3535 9.69144 53.3535 9.6478C70.838 9.90967 88.3312 9.82675 105.816 10.6255L105.951 10.5469C105.043 8.44318 103.236 6.98104 101.194 6.88939C75.655 5.7546 50.1135 5.17266 24.5691 5.14356C23.9726 5.14274 23.3819 5.26146 22.832 5.49272Z" fill="url(#paint1_radial_607_1716)"/>
  <path d="M42.0265 56.8203L23.0087 64.2566L5.47754 79.6732C6.33545 81.0201 7.81291 81.9017 9.40566 82.017C42.4862 83.3526 75.6119 84.3113 108.783 84.8933C112.056 84.9544 114.57 81.5325 114.103 77.6699C113.37 71.6322 112.532 65.5823 111.811 59.533C88.5423 59.533 65.2582 58.0213 42.0265 56.8203Z" fill="url(#paint2_radial_607_1716)"/>
  <path d="M4.25286 73.048C3.98796 74.1707 3.96022 75.3364 4.1714 76.4704C4.38258 77.6045 4.82804 78.682 5.4793 79.6341C17.6608 71.6557 29.8467 64.2359 42.0282 56.8249C45.8036 41.1648 49.579 25.2559 53.3761 9.65256C43.1776 7.94164 32.9965 6.43441 22.8328 5.13086C22.2698 5.34909 20.1443 6.37476 19.4067 9.60455C17.1284 19.6038 6.55735 62.7825 4.25286 73.048Z" fill="url(#paint3_linear_607_1716)"/>
  <path d="M98.8069 42.2083C99.6798 41.8984 99.7715 41.8984 100.614 42.265C100.339 41.5056 100.256 41.3921 100.666 40.4581C99.7933 40.7679 99.706 40.768 98.8593 40.4057C99.1823 41.2655 99.1823 41.3659 98.8069 42.2083ZM50.334 51.4699C51.5168 51.0334 51.6434 51.0334 52.8262 51.5441C52.3897 50.3526 52.3897 50.2347 52.896 49.0563C51.7088 49.4927 51.5866 49.4927 50.4082 48.9821C50.8403 50.1692 50.8359 50.3089 50.334 51.4699ZM82.9504 25.9022C83.0681 25.9917 83.2151 26.0336 83.3623 26.0197C83.5095 26.0058 83.6461 25.9372 83.7449 25.8273C83.8438 25.7174 83.8978 25.5744 83.8962 25.4266C83.8945 25.2787 83.8374 25.1369 83.7361 25.0293C83.6184 24.9398 83.4714 24.8979 83.3242 24.9118C83.177 24.9257 83.0405 24.9944 82.9416 25.1042C82.8427 25.2141 82.7887 25.3571 82.7903 25.505C82.792 25.6528 82.8491 25.7946 82.9504 25.9022V25.9022ZM72.1219 28.3158C73.1563 27.1548 74.9153 28.7217 73.8678 29.8827C72.8203 31.0437 71.0701 29.4768 72.1219 28.3158ZM96.8254 27.7746C97.8642 26.6136 99.6187 28.1805 98.5713 29.3415C97.5238 30.5025 95.7736 28.9356 96.8123 27.7746H96.8254Z" fill="#1F5B78"/>
  <path d="M84.4688 52.6045C85.6254 52.168 85.7258 52.168 86.9566 52.6787C86.5201 51.4871 86.5201 51.3693 87.0308 50.1865C85.8392 50.623 85.7214 50.623 84.5386 50.1123C84.9707 51.3038 84.9663 51.4391 84.4688 52.6045Z" fill="#82CDFF"/>
  <path d="M78.1096 16.309C80.1828 13.987 83.6963 17.1252 81.6013 19.4471C79.5063 21.7691 76.0495 18.6309 78.1096 16.309Z" fill="#82CDFF"/>
  <path d="M100.962 82.7499L20.9766 80.8251L23.1807 78.8916L101.608 80.8862L100.962 82.7499Z" fill="url(#paint4_radial_607_1716)"/>
  <path opacity="0.4" d="M109.196 69.2862C89.3169 81.6088 38.3461 83.0586 50.8703 69.2862C55.1919 64.534 65.8774 61.2524 77.1578 59.9463L105.708 60.8432C108.782 61.4934 110.998 62.3002 112.105 63.4313L112.459 66.2767C111.943 67.193 110.953 68.1971 109.196 69.2862Z" fill="#5A0EA7"/>
  <ellipse cx="64.563" cy="74.4739" rx="14.9077" ry="4.42803" fill="#5A0EA7"/>
  <path d="M64.268 67.1396C56.6054 67.1396 50.3936 68.99 50.3936 71.2725V73.7695C50.3936 76.052 56.6054 77.9023 64.268 77.9023C71.9307 77.9023 78.1425 76.052 78.1425 73.7695V71.2725C78.1425 68.99 71.9307 67.1396 64.268 67.1396Z" fill="url(#paint5_linear_607_1716)"/>
  <path opacity="0.4" fill-rule="evenodd" clip-rule="evenodd" d="M56.808 77.2546V72.3183H55.7046V77.0213C56.0589 77.1042 56.4271 77.1821 56.808 77.2546ZM55.0155 76.8491V71.7666H52.8086V76.1C53.4413 76.3755 54.1831 76.627 55.0155 76.8491Z" fill="white"/>
  <ellipse cx="64.268" cy="71.2725" rx="13.8745" ry="4.13282" fill="#2D86DF"/>
  <path opacity="0.45" fill-rule="evenodd" clip-rule="evenodd" d="M78.1428 71.2738C66.9447 74.041 53.4909 73.4552 53.6757 68.6031C56.2207 67.7079 60.0217 67.1396 64.2683 67.1396C71.931 67.1396 78.1428 68.99 78.1428 71.2725C78.1428 71.2729 78.1428 71.2733 78.1428 71.2738Z" fill="#104BF5"/>
  <circle cx="63.7361" cy="44.5428" r="27.8084" fill="url(#paint6_linear_607_1716)"/>
  <circle cx="63.7361" cy="44.5428" r="27.8084" fill="url(#paint7_linear_607_1716)"/>
  <path fill-rule="evenodd" clip-rule="evenodd" d="M63.7351 72.3511C79.0933 72.3511 91.5435 59.9009 91.5435 44.5428C91.5435 29.1846 79.0933 16.7344 63.7351 16.7344C48.377 16.7344 35.9268 29.1846 35.9268 44.5428C35.9268 59.9009 48.377 72.3511 63.7351 72.3511ZM63.7354 70.2324C77.4114 70.2324 88.4981 59.1457 88.4981 45.4697C88.4981 31.7936 77.4114 20.707 63.7354 20.707C50.0593 20.707 38.9727 31.7936 38.9727 45.4697C38.9727 59.1457 50.0593 70.2324 63.7354 70.2324Z" fill="#004DB2"/>
  <path opacity="0.2" fill-rule="evenodd" clip-rule="evenodd" d="M74.8817 19.0582C72.2438 17.9028 69.3922 17.1449 66.4025 16.8604L36.0527 47.2102C36.3373 50.1998 37.0952 53.0515 38.2506 55.6893L74.8817 19.0582ZM46.4236 66.3068C43.5173 63.992 41.0851 61.1074 39.296 57.822L77.0144 20.1037C80.2998 21.8927 83.1844 24.3249 85.4991 27.2312L46.4236 66.3068ZM58.4238 71.8442C57.3392 71.6345 56.277 71.3617 55.2413 71.0298L90.2222 36.0489C90.5541 37.0847 90.8268 38.1468 91.0366 39.2314L58.4238 71.8442Z" fill="#EAFDFF"/>
  <path fill-rule="evenodd" clip-rule="evenodd" d="M78.0909 45.6652C78.8735 46.3199 79.4569 47.3748 79.5714 48.81C80.1323 51.1861 78.7995 54.4181 76.6283 55.1381C75.9245 55.5518 75.1128 55.7614 74.2983 55.6718C73.3258 56.7061 72.2536 57.5596 71.1161 58.239C74.4231 59.38 78.8094 61.5248 79.434 64.7877C80.1576 65.3534 80.5897 65.9293 80.83 66.4763C76.1138 70.1577 70.1797 72.3512 63.7333 72.3512C58.2257 72.3512 53.092 70.7501 48.7724 67.9879C49.5934 67.5447 50.5407 67.2367 51.5666 67.0698L52.0025 66.1392C50.8117 65.0604 51.7259 63.0829 53.3148 63.2939C53.343 63.2318 53.3707 63.1695 53.3978 63.107C50.4897 62.9949 47.0925 61.634 44.0445 60.3112C43.1002 59.9015 42.2005 59.7926 41.4625 59.7032C40.9897 59.6459 40.5833 59.5967 40.2742 59.4816C40.0541 59.1367 39.8413 58.7866 39.6363 58.4316C39.7148 57.9487 40.1857 57.6005 40.7685 57.4075C40.4944 57.2139 39.9857 56.9226 39.0482 56.5395C38.8541 56.4601 38.6775 56.3747 38.518 56.2844C38.1888 55.5786 37.8884 54.8567 37.6182 54.1202C37.9403 53.6925 38.5878 53.3572 39.5364 53.2405C43.275 52.7809 46.7252 54.1636 49.8446 55.4136L49.8446 55.4136C51.4783 56.0683 53.0213 56.6867 54.4675 56.9849C50.456 53.7203 48.1629 48.4431 49.2144 43.0862C50.8324 34.8437 59.9584 29.0965 68.4668 32.1164C73.0866 33.7557 77.876 38.6299 78.0909 45.6652Z" fill="#004DB2"/>
  <path d="M44.1455 39.6451L44.7175 39.854L44.8503 39.2886L45.5515 39.4536L45.3973 40.1079L46.0182 40.3379L45.8426 41.085L45.2217 40.855L45.1131 41.3137L45.734 41.5437L45.5576 42.2906L44.9367 42.0606L44.8038 42.626L44.1027 42.461L44.2568 41.8067L43.6846 41.5987L43.5518 42.1641L42.8518 41.9985L43.0057 41.3451L42.3848 41.1151L42.5612 40.3682L43.1821 40.5982L43.2898 40.1393L42.6689 39.9092L42.8445 39.1621L43.4657 39.3912L43.5991 38.827L44.2994 38.9918L44.1455 39.6451ZM43.9697 40.3932L43.862 40.8521L44.434 41.061L44.5417 40.602L43.9697 40.3932ZM47.6852 36.3235L46.307 35.6475L47.081 36.8482L46.8611 37.296L45.4842 37.4242L46.8063 38.0839L46.3456 39.0062L43.3365 37.5061L43.7523 36.6732L45.8417 36.4933L44.7161 34.7416L45.131 33.9084L48.1425 35.3994L47.6852 36.3235ZM48.3609 30.9847L49.7558 33.5142C49.9339 33.8375 50.0119 34.1219 49.9899 34.3672C49.9352 34.9539 49.3765 35.4695 48.9889 35.5512L48.6395 34.8025C48.8683 34.7477 49.1186 34.5426 49.0775 34.3175L46.3191 33.4953L47.0215 32.6322L48.4568 33.0991L47.7149 31.7842L48.3609 30.9847ZM51.147 31.7949C50.8394 31.8649 50.5183 31.8466 50.2206 31.7422C49.9229 31.6378 49.6606 31.4515 49.4641 31.2047C48.2591 29.7654 49.8848 27.8738 51.3571 28.2053L51.2192 29.1541C50.8908 29.086 50.6189 29.142 50.4037 29.3222C50.0509 29.6166 49.9996 30.0656 50.3393 30.4708C50.6789 30.8761 51.1288 30.9061 51.4822 30.6099C51.6974 30.4296 51.8003 30.1719 51.7909 29.8366L52.7493 29.8677C52.7608 30.1403 52.7039 30.4115 52.5838 30.6566C52.4397 30.9373 52.2374 31.1842 51.9904 31.3807C51.7435 31.5772 51.4575 31.7188 51.1516 31.7962L51.147 31.7949ZM53.8092 26.8645L54.2964 27.6919C53.844 27.8751 53.6351 28.1394 53.8877 28.5668L54.4787 29.572L53.5471 30.1225L52.2114 27.8593L53.1003 27.3362L53.2437 27.5804C53.3024 27.2936 53.4924 27.0554 53.8138 26.8657L53.8092 26.8645ZM57.4011 25.3952L57.3789 28.2822C57.3765 28.6513 57.3053 28.9373 57.1653 29.14C56.8308 29.6249 56.0909 29.802 55.7134 29.6824L55.7752 28.8583C56.0015 28.92 56.3171 28.8695 56.3945 28.6503L54.3922 26.5821L55.4278 26.1733L56.4483 27.283L56.4455 25.7722L57.4011 25.3952ZM60.9913 27.1955C60.6509 27.4874 60.0578 27.6244 59.7004 27.3843L59.9114 28.4723L58.8472 28.678L58.1717 25.1875L59.1844 24.9912L59.2242 25.2033C59.3445 25.001 59.5635 24.8691 59.8812 24.8073C61.2716 24.5402 61.9055 26.4156 60.9959 27.1968L60.9913 27.1955ZM60.26 26.5076C60.3239 26.3863 60.3403 26.2456 60.3062 26.1129C60.2876 25.9762 60.2196 25.851 60.1151 25.7609C59.8476 25.5531 59.362 25.7292 59.4671 26.2746C59.4846 26.4107 59.5522 26.5354 59.6568 26.6242C59.7032 26.6597 59.7564 26.6849 59.8131 26.6984C59.8699 26.7119 59.9288 26.7132 59.9861 26.7024C60.0434 26.6916 60.0978 26.6689 60.1457 26.6357C60.1937 26.6025 60.2341 26.5596 60.2643 26.5097L60.26 26.5076ZM64.067 27.0485C63.8631 27.1569 63.6347 27.2113 63.4037 27.2064C62.6737 27.2259 62.2475 26.8908 62.2286 26.1727L62.2097 25.5014L61.8503 25.5117L61.8283 24.7195L62.1882 24.7103L62.1679 23.9761L63.2504 23.9463L63.2701 24.6793L63.8073 24.6648L63.8306 25.4525L63.2934 25.467L63.3082 26.1284C63.3122 26.275 63.3947 26.3806 63.5404 26.3764C63.6273 26.3756 63.7118 26.3482 63.7826 26.2979L64.067 27.0485ZM65.05 27.0863C64.8412 26.952 64.6754 26.7605 64.5724 26.5346C64.4693 26.3087 64.4334 26.058 64.4689 25.8123C64.4975 25.5659 64.5967 25.3331 64.7544 25.1417C64.9121 24.9504 65.1218 24.8086 65.3581 24.7335C65.6187 24.6523 65.8938 24.6291 66.1643 24.6655C66.4348 24.7019 66.694 24.7969 66.9239 24.944C67.1322 25.0779 67.2974 25.2692 67.3996 25.4948C67.5018 25.7204 67.5366 25.9707 67.4998 26.2156C67.4724 26.4615 67.3747 26.6944 67.2184 26.8862C67.0621 27.0781 66.8539 27.2209 66.6186 27.2975C66.3586 27.3806 66.0834 27.4049 65.8129 27.3688C65.5424 27.3326 65.2833 27.2368 65.0543 27.0884L65.05 27.0863ZM66.2353 26.433C66.3339 26.337 66.394 26.2082 66.4044 26.0709C66.4306 25.9361 66.4057 25.7964 66.3347 25.6788C66.1469 25.4039 65.6271 25.4085 65.5589 25.9554C65.4907 26.5023 65.985 26.6558 66.2408 26.4306L66.2353 26.433ZM73.9568 26.3477L71.7218 29.0761L70.5935 28.6295L70.749 26.7605L69.5577 28.2198L68.4294 27.7732L68.676 24.2502L69.7601 24.6798L69.6026 26.6703L70.8807 25.1224L71.8503 25.5062L71.6836 27.5196L72.9697 25.9494L73.9568 26.3477ZM74.4558 27.7116L75.3565 28.3159L73.895 30.4965L72.9944 29.8922L74.4558 27.7116ZM75.6383 26.9219C76.3914 27.4263 75.724 28.3078 75.0239 27.8383C74.3047 27.3491 74.9171 26.433 75.6438 26.9195L75.6383 26.9219ZM77.9764 30.8339C77.9915 31.1102 77.8667 31.3942 77.6022 31.686L76.5955 32.7943L75.7933 32.0655L76.6733 31.0955C76.8759 30.8734 76.8976 30.6902 76.7384 30.5458C76.6986 30.5071 76.6507 30.4777 76.5983 30.4597C76.5458 30.4417 76.49 30.4354 76.4348 30.4415C76.2942 30.47 76.1687 30.5485 76.0815 30.6625L75.2532 31.5752L74.4501 30.8462L76.2138 28.9034L76.977 29.6001L76.8026 29.7917C76.9489 29.7869 77.0947 29.8114 77.2314 29.864C77.368 29.9166 77.4927 29.996 77.5981 30.0977C77.7081 30.1879 77.7988 30.2994 77.8647 30.4255C77.9307 30.5516 77.9705 30.6896 77.9819 30.8315L77.9764 30.8339ZM78.2684 34.7452C78.0596 34.6468 77.8794 34.4967 77.7448 34.3092C77.2896 33.7367 77.3052 33.193 77.864 32.7488L78.3893 32.3306L78.1654 32.0487L78.7881 31.5565L79.012 31.8383L79.5861 31.3807L80.2619 32.2292L79.6868 32.6866L80.0223 33.1073L79.3996 33.5996L79.065 33.1791L78.5471 33.5916C78.5193 33.6079 78.4954 33.6302 78.477 33.6567C78.4585 33.6832 78.4461 33.7134 78.4405 33.7452C78.4349 33.777 78.4362 33.8096 78.4444 33.8409C78.4526 33.8721 78.4675 33.9012 78.4881 33.9261C78.5411 33.9953 78.614 34.0465 78.697 34.073L78.2684 34.7452ZM80.7248 36.9783L79.8161 35.398C79.7508 35.4767 79.7148 35.5757 79.7143 35.6779C79.7323 35.8938 79.8329 36.0944 79.9951 36.238C80.0718 36.2991 80.1569 36.3489 80.2477 36.3861L80.0361 37.1614C79.6675 37.0804 79.3546 36.8192 79.0974 36.3779C78.1883 34.7956 79.7778 33.6452 80.8774 34.3613C81.0894 34.5063 81.2669 34.6961 81.3973 34.9174C81.5277 35.1386 81.6077 35.3859 81.6317 35.6416C81.6669 36.121 81.4473 36.5748 80.9493 36.8608C80.9443 36.8682 80.8683 36.9071 80.7324 36.9755L80.7248 36.9783ZM80.26 35.1207L80.6804 35.8527C80.7605 35.7904 80.8145 35.7004 80.8319 35.6004C80.8493 35.5004 80.8287 35.3975 80.7743 35.3119C80.7294 35.2208 80.6518 35.1502 80.557 35.114C80.4622 35.0778 80.3572 35.0787 80.263 35.1166L80.26 35.1207ZM83.1603 38.7906L82.2661 39.1325C82.1581 38.6548 81.9305 38.4081 81.4686 38.5867L80.3778 39.0049L79.9876 37.994L82.4363 37.0488L82.8074 38.0115L82.5433 38.1133C82.8238 38.214 83.032 38.4388 83.1679 38.7878L83.1603 38.7906ZM82.4132 44.2691L81.5429 44.3802L81.1975 41.7094L81.8876 41.6214L83.1604 42.6837C83.3071 42.8048 83.4637 42.911 83.6509 42.8869C83.7997 42.8679 83.9005 42.7597 83.8714 42.53C83.8584 42.4274 83.8165 42.3306 83.7506 42.2509C83.6847 42.1711 83.5975 42.1118 83.4991 42.0797L83.8135 41.1781C84.068 41.2742 84.2889 41.4424 84.4491 41.6622C84.7662 42.0857 84.8613 42.768 84.7312 43.2374C84.6166 43.6574 84.3214 43.948 83.9004 44.002C83.439 44.0607 83.1212 43.8724 82.7662 43.5665L82.2714 43.1462L82.4132 44.2691ZM81.6626 45.4951C82.0111 44.9876 82.6294 44.8154 83.2471 44.8532C84.0391 44.8964 84.5245 45.2438 84.7515 45.6681C84.8757 45.9156 84.9331 46.1912 84.918 46.4677C84.9028 46.7442 84.8156 47.0119 84.6651 47.2443C84.3164 47.7528 83.6983 47.924 83.0815 47.8865C82.4647 47.849 81.8674 47.6147 81.5762 47.0713C81.4525 46.8229 81.3959 46.5463 81.4121 46.2693C81.4282 45.9922 81.5166 45.7241 81.6683 45.4918L81.6626 45.4951ZM83.1433 46.7509C83.7091 46.7822 84 46.6705 84.0161 46.4158C84.0323 46.161 83.7566 46.0177 83.189 45.9859C82.6239 45.9547 82.3329 46.0664 82.3162 46.321C82.2994 46.5756 82.5771 46.7178 83.1491 46.7476L83.1433 46.7509ZM81.5608 50.9856L80.7061 50.7817L81.3319 48.163L82.0085 48.3252L82.8194 49.7664C82.9124 49.9305 83.0249 50.0872 83.2082 50.1313C83.3527 50.1708 83.4872 50.1001 83.5408 49.8754C83.5651 49.7747 83.5602 49.6692 83.5268 49.5711C83.4933 49.4731 83.4327 49.3866 83.3519 49.3218L83.9665 48.591C84.1702 48.7711 84.317 49.0067 84.389 49.2689C84.5347 49.7765 84.3824 50.4489 84.0947 50.8411C83.8371 51.1908 83.4643 51.3615 83.047 51.2623C82.5942 51.1534 82.3643 50.865 82.1398 50.4531L81.8269 49.8852L81.5608 50.9856ZM83.0763 53.882L79.9568 52.6399L80.3766 51.5883L82.7028 52.5162L82.9173 51.9809L83.7106 52.2951L83.0763 53.882Z" fill="white"/>
  <path fill-rule="evenodd" clip-rule="evenodd" d="M91.5435 44.5428C91.5435 59.9009 79.0933 72.3511 63.7351 72.3511C48.377 72.3511 35.9268 59.9009 35.9268 44.5428C35.9268 29.1846 48.377 16.7344 63.7351 16.7344C79.0933 16.7344 91.5435 29.1846 91.5435 44.5428ZM51.5783 66.1207L52.004 65.212C50.8132 64.1332 51.7274 62.1557 53.3163 62.3667C53.3445 62.3046 53.3722 62.2422 53.3993 62.1797C50.4912 62.0677 47.094 60.7067 44.046 59.3839C43.9807 59.3556 43.9157 59.3288 43.8509 59.3033C45.9159 62.0805 48.5491 64.4103 51.5783 66.1207ZM40.1959 52.2508C43.682 52.0162 46.9105 53.31 49.8461 54.4864C51.6796 55.2212 53.3989 55.9102 54.9953 56.1523C60.1405 58.7947 66.1186 58.7779 70.3448 57.0564C73.6508 58.1014 78.6234 60.2756 79.4055 63.7174C84.9557 59.1763 88.4981 52.2732 88.4981 44.5426C88.4981 30.8665 77.4114 19.7799 63.7354 19.7799C50.0593 19.7799 38.9727 30.8665 38.9727 44.5426C38.9727 47.2339 39.402 49.8249 40.1959 52.2508Z" fill="url(#paint8_linear_607_1716)"/>
  <path fill-rule="evenodd" clip-rule="evenodd" d="M53.9459 67.2949C53.6254 67.1568 53.3083 67.0121 52.9949 66.861C52.4133 66.3314 52.8589 65.3484 52.9853 65.0695L52.9853 65.0695L52.9853 65.0694C52.9979 65.0417 53.0073 65.0209 53.0122 65.0083C53.1604 64.6286 53.292 64.2848 53.4109 63.9743L53.4109 63.9742C54.4688 61.2109 54.5181 61.0819 56.268 61.7442L60.6276 63.3945C61.51 63.9587 61.1916 64.7556 60.4019 66.7325C60.2264 67.1719 60.0275 67.6695 59.8135 68.2358C59.7032 68.5247 59.486 68.7596 59.2073 68.8921C58.1142 68.6902 57.0462 68.4164 56.0085 68.0759L53.9459 67.2949ZM61.2714 69.1841C60.8317 69.1407 60.3954 69.0858 59.9627 69.0196C60.2411 68.7194 60.3808 68.3327 60.5462 67.8748L60.5463 67.8745C60.5847 67.7683 60.6245 67.6583 60.6677 67.5446C60.63 68.2019 60.806 68.6951 61.4145 68.9488C61.3958 68.9417 61.3747 68.984 61.3412 69.0514C61.3225 69.0892 61.2998 69.1348 61.2714 69.1841ZM62.1819 69.2572C62.0835 69.2511 61.9852 69.2445 61.8872 69.2372C61.9008 69.2118 61.9143 69.1857 61.9277 69.159C62.0122 69.1923 62.097 69.225 62.1819 69.2572ZM69.3587 68.6639C67.8557 69.0129 66.3002 69.225 64.706 69.2865C63.2933 68.9693 62.0276 68.4943 61.6616 68.3025C60.9329 67.9913 61.5647 66.3358 62.3188 66.5662C63.2209 67.0406 66.0283 68.3103 68.5427 67.8055C68.551 67.8038 68.565 67.8002 68.5838 67.7954C68.8201 67.7351 69.8043 67.4838 69.4321 68.4976C69.4107 68.5557 69.3862 68.6111 69.3587 68.6639ZM70.8784 68.2593C70.6394 68.3312 70.399 68.3995 70.1571 68.4643C70.1772 68.3659 70.1895 68.2665 70.1931 68.167L70.8784 68.2593ZM73.7813 67.1826C73.2692 67.4102 72.7479 67.6209 72.2182 67.814C72.2188 67.3303 72.6261 66.6834 73.6035 65.9648C74.3674 65.4001 74.6842 64.821 74.9426 64.3486C75.1951 63.8872 75.3918 63.5275 75.8953 63.3823C76.328 63.258 77.584 63.6142 78.6134 64.339C77.8684 64.8998 77.0907 65.4195 76.2837 65.8948C75.7184 65.6879 75.1666 65.4801 75.7149 64.0412C75.8325 63.7322 75.266 63.5074 74.9573 64.8351C74.7969 65.612 75.0814 66.0111 75.5592 66.3053C75.2078 66.4965 74.8513 66.6796 74.4899 66.8541C74.3452 66.7832 74.1756 66.7339 73.9778 66.7142C73.2942 66.647 73.445 67.1507 73.7011 67.1726C73.7284 67.1749 73.7551 67.1782 73.7813 67.1826ZM39.6029 53.0846C37.8698 53.2984 37.6754 54.1167 39.3262 54.7919C39.6357 54.9184 39.9879 55.1619 40.3546 55.4153C41.0458 55.8931 41.7882 56.4062 42.3909 56.237C42.6744 56.1573 43.0645 56.6931 41.4462 57.1053C41.1982 57.1449 40.3536 57.299 40.4374 57.6812C40.5413 57.7783 41.0015 57.835 41.5307 57.9001H41.5307H41.5307C41.785 57.9315 42.0552 57.9647 42.3096 58.0054C43.5022 58.1956 44.2731 58.5287 45.3571 58.9972L45.3571 58.9972L45.3571 58.9972L45.3572 58.9972C46.193 59.3584 47.2151 59.8001 48.7603 60.3187C49.4148 58.8803 49.6502 56.8566 49.6593 55.2696L49.4674 55.1929C46.2707 53.9147 43.1134 52.6523 39.6029 53.0846ZM49.4237 60.5323C50.0718 59.0668 50.3188 57.1352 50.3506 55.5449C53.523 56.801 54.9053 57.3009 55.9225 57.2548C60.6276 60.1681 65.6554 59.4398 70.1577 57.8507C71.4371 58.2212 72.3185 58.5371 73.819 59.1943C71.7258 60.0322 71.3297 62.4725 71.6304 64.7054C70.6666 64.2899 69.6232 64.1347 68.5615 64.1624C68.0216 64.1765 68.0241 64.9961 68.5828 64.9922C68.7095 64.9899 68.8333 64.9899 68.9541 64.9922C68.9674 65.666 68.9461 66.34 68.8902 67.0116C68.8623 67.0166 68.8213 67.027 68.7675 67.0408C68.2121 67.183 66.2814 67.677 63.0654 66.1576L63.0658 66.1569C63.0876 66.1123 64.0667 64.1124 62.2328 63.4111C60.8723 62.8907 59.7845 62.4673 58.9075 62.126L58.9072 62.1259L58.907 62.1258C55.3995 60.7607 55.2647 60.7083 54.5411 61.007C54.9879 59.5365 55.0094 59.3689 54.7942 59.3008C54.6033 59.2387 54.5758 59.304 54.2237 60.1411C54.1025 60.4294 53.9427 60.8092 53.7245 61.3069C52.3027 61.3069 50.7713 60.9486 49.4237 60.5323ZM72.3969 65.1037C72.5431 65.1939 72.682 65.2879 72.8135 65.3858C73.3666 64.9949 73.7392 64.445 74.093 63.9229C74.9157 62.7087 75.6365 61.6449 78.2891 63.0808C77.5649 61.4128 76.0707 60.3359 74.7622 59.6471C72.3075 60.0687 71.9396 62.6783 72.3969 65.1037ZM71.2937 67.7581L70.0708 67.5922C69.9845 67.428 69.8584 67.2882 69.704 67.1855C69.7375 66.8738 69.7972 65.9637 69.7823 65.0556C70.7814 65.1895 71.5634 65.5225 72.172 65.9325C71.6257 66.494 71.3111 67.1393 71.2937 67.7581ZM61.6965 63.7969C62.1206 63.9419 63.3244 64.3535 62.5642 65.9189C61.9941 65.72 61.4248 66.0379 61.0823 66.4467C61.1674 66.2219 61.2465 66.021 61.3182 65.8388L61.3183 65.8387C61.7009 64.8669 61.8726 64.4309 61.6143 63.7679C61.6363 63.7763 61.6641 63.7858 61.6965 63.7969Z" fill="white"/>
  <path fill-rule="evenodd" clip-rule="evenodd" d="M74.1374 18.7443C71.4185 17.6471 68.4864 16.9673 65.4205 16.7842L62.3889 19.8158C62.8351 19.7919 63.2845 19.7798 63.7367 19.7798C66.5485 19.7798 69.2509 20.2484 71.7699 21.1119L74.1374 18.7443ZM40.6533 52.2285C40.5018 52.2331 40.3498 52.2404 40.1973 52.2507C39.4034 49.8247 38.974 47.2337 38.974 44.5425C38.974 44.0903 38.9862 43.6409 39.0101 43.1946L35.9785 46.2262C36.1312 48.7834 36.6295 51.2476 37.4273 53.5725C37.5857 54.0341 37.7559 54.4903 37.9376 54.9406L37.9377 54.9407C37.938 54.9415 37.9383 54.9423 37.9387 54.9431L40.6533 52.2285ZM38.9324 57.1274L43.5955 52.4644C45.8028 52.8653 47.8903 53.7019 49.8476 54.4862L49.8477 54.4862C51.6812 55.221 53.4005 55.91 54.9969 56.1521C55.1127 56.2116 55.2289 56.2697 55.3456 56.3265L50.0539 61.6182C48.0539 61.0769 45.9805 60.2226 44.0475 59.3838C43.9822 59.3554 43.9171 59.3285 43.8522 59.303C45.0551 60.9208 46.4507 62.3868 48.0052 63.6669L45.8426 65.8296C42.9947 63.4331 40.6346 60.4756 38.9324 57.1274ZM56.2713 71.3373C55.2528 71.0542 54.2578 70.7145 53.2899 70.3219L65.4189 58.1929C67.2005 58.0461 68.879 57.6539 70.3463 57.0562C70.398 57.0726 70.4501 57.0892 70.5026 57.1061L56.2713 71.3373ZM89.5162 34.0956C89.9088 35.0635 90.2485 36.0585 90.5317 37.077L88.0066 39.6021C87.7891 38.5283 87.5022 37.4796 87.1507 36.461L89.5162 34.0956ZM76.3218 19.7381C79.67 21.4403 82.6274 23.8004 85.0239 26.6483L82.8612 28.8109C80.4877 25.9289 77.4755 23.5927 74.041 22.0189L76.3218 19.7381Z" fill="url(#paint9_linear_607_1716)"/>
  <path d="M79.4372 48.1372C79.3227 46.7019 78.7393 45.647 77.9567 44.9923C77.7418 37.957 72.9524 33.0829 68.3326 31.4435C59.8242 28.4236 50.6982 34.1708 49.0802 42.4134C47.4653 50.6407 53.3456 59.1256 61.6177 59.9747C65.9154 60.4158 70.8314 59.4366 74.5976 55.4687C75.4121 55.5583 75.7903 54.8789 76.4941 54.4653C78.6653 53.7452 79.9981 50.5132 79.4372 48.1372Z" fill="url(#paint10_linear_607_1716)"/>
  <path opacity="0.6" d="M56.0649 43.0613C56.6058 44.8219 56.7588 45.6541 57.53 45.9794C58.4808 46.3917 59.7362 45.1268 60.5687 45.0535C61.9139 44.9171 62.257 47.2241 60.7648 48.1077C55.7142 50.8293 56.4592 51.3245 54.2079 44.6459C53.6458 42.8368 55.5607 41.4166 56.0649 43.0613ZM54.6207 39.4677C55.7051 38.9181 57.1758 37.9424 57.6721 39.6212C58.1832 41.3617 58.2698 42.4379 59.5173 41.8586C63.0089 40.2879 62.7833 40.6415 63.933 43.9085C64.5971 45.6505 66.9083 44.0878 66.2771 42.2536C64.3561 36.6234 65.1386 36.871 60.0833 38.8773C59.3614 36.5421 59.3386 34.9708 57.4927 35.7537C54.012 37.3025 54.0072 37.3707 53.6958 37.6601C52.9265 38.4361 52.9921 40.3454 54.6207 39.4677V39.4677Z" fill="url(#paint11_linear_607_1716)"/>
  <path d="M72.2637 53.7144C72.5286 53.982 72.8354 54.2047 73.1721 54.3739C71.0446 56.4517 68.3192 57.8144 65.377 58.2715C68.0706 57.5265 70.5162 55.8988 72.2637 53.7144ZM71.4845 52.5789C68.2044 56.9518 62.3013 58.8289 56.4915 56.4765C61.2953 59.5464 68.0827 57.9525 71.8141 53.1652C71.6884 52.9791 71.5781 52.783 71.4845 52.5789V52.5789ZM74.0523 49.7159C74.9894 51.7934 77.5758 51.0874 78.8246 49.332C79.0722 45.5192 75.1862 45.1515 74.0523 49.7173V49.7159ZM60.3146 31.9349C68.7574 29.7432 76.3928 35.8274 77.0318 44.1233C76.3782 43.8946 75.6596 43.8791 74.9569 44.076C74.1155 37.1012 67.3503 31.8307 60.3146 31.9349ZM73.2067 49.5355C72.5275 49.7373 72.2211 49.3838 72.1271 49.2924C72.5735 46.1328 75.5057 43.7656 77.5046 45.5841C76.6234 45.3902 75.7385 45.7137 75.0468 46.2856C74.0789 47.0866 73.5045 48.3217 73.2067 49.5355V49.5355ZM54.5176 35.0034C55.4413 34.199 56.4639 33.5151 57.5608 32.9683C65.0582 31.1692 73.4491 36.5932 74.2895 44.3289C74.1027 44.4191 73.9227 44.5229 73.751 44.6393C72.9041 36.2306 62.5482 29.8557 54.5176 35.0034Z" fill="white"/>
  <path opacity="0.2" d="M71.0596 51.3599C67.7657 56.5116 60.2476 58.9239 53.0845 53.3537C52.533 52.7836 49.4515 48.4848 50.187 43.457C52.9335 50.4921 63.2695 55.2856 70.9854 50.6662C70.9971 50.8987 71.0218 51.1303 71.0596 51.3599V51.3599Z" fill="#001D42"/>
  <g opacity="0.2">
  <path d="M70.6625 46.0004C69.5899 48.5054 66.7421 47.323 67.3066 45.0005C68.1827 42.1117 71.5616 43.4505 70.6625 46.0004Z" fill="#94E2EE"/>
  <path d="M68.5544 49.877C68.0896 50.8106 66.8339 50.3182 67.2458 49.2547C67.7113 48.3222 68.9663 48.8149 68.5544 49.877Z" fill="#94E2EE"/>
  </g>
  <path d="M241.933 79.6342C241.584 84.9939 237.756 89.1359 233.204 89.0661C200.496 88.5889 167.782 88.5889 135.062 89.0661C130.523 89.1359 126.691 85.0027 126.333 79.6386C125.652 69.2247 122.88 23.7371 122.182 13.0396C121.868 8.23854 124.958 3.15382 129.846 3.07089C166.029 2.48895 202.217 2.48167 238.411 3.04907C243.456 3.12763 246.385 8.40876 246.084 13.0221" fill="url(#paint12_linear_607_1716)"/>
  <path d="M235.513 9.63086V62.7914H132.788V9.63086H235.513Z" fill="#1B2026"/>
  <path d="M196.174 19.2423C198.408 19.705 198.614 19.8403 199.927 21.704C200.386 19.4693 200.521 19.2642 202.385 17.9504C200.154 17.514 199.945 17.3568 198.631 15.4932C198.177 17.7235 198.042 17.933 196.174 19.2423ZM161.694 22.2975C163.309 22.6292 163.461 22.734 164.413 24.0783C164.762 22.3761 164.875 22.2888 166.198 21.3592C164.579 21.0231 164.43 20.9227 163.474 19.574C163.143 21.1889 163.047 21.3199 161.694 22.2757V22.2975ZM220.48 36.5522C220.733 35.3127 220.807 35.1992 221.842 34.4703C220.602 34.2172 220.489 34.1386 219.76 33.1042C219.507 34.3438 219.428 34.4616 218.394 35.1905C219.633 35.4436 219.743 35.5178 220.48 36.5522ZM174.888 30.791C176.551 30.4462 176.027 27.9322 174.364 28.277C172.701 28.6218 173.225 31.114 174.888 30.791ZM204.13 48.3715C203.974 48.3802 203.828 48.4506 203.723 48.5672C203.619 48.6839 203.565 48.8372 203.574 48.9935C203.583 49.1497 203.653 49.2961 203.77 49.4005C203.886 49.5049 204.04 49.5586 204.196 49.5499C204.355 49.5407 204.504 49.4686 204.61 49.3495C204.716 49.2304 204.77 49.0741 204.761 48.9149C204.752 48.7557 204.68 48.6068 204.561 48.5008C204.442 48.3948 204.285 48.3404 204.126 48.3497L204.13 48.3715ZM216.884 22.0007C216.971 23.5545 214.623 23.6898 214.536 22.1317C214.448 20.5735 216.796 20.4251 216.879 21.9789L216.884 22.0007ZM224.98 46.0932C225.15 49.2008 220.45 49.467 220.275 46.3551C220.1 43.2431 224.792 42.9813 224.98 46.0932ZM211.013 52.4306C211.101 53.9843 208.753 54.1196 208.665 52.5615C208.578 51.0033 210.926 50.868 211.013 52.4306ZM144.977 52.3825C146.143 53.6177 148.011 51.8544 146.845 50.6367C145.68 49.419 143.799 51.143 144.973 52.3825H144.977ZM176.18 53.2555C177.053 52.9412 177.14 52.9456 177.987 53.3078C177.672 52.4349 177.672 52.3433 178.039 51.5009C177.166 51.8108 177.083 51.8152 176.232 51.4485C176.533 52.3214 176.533 52.4218 176.175 53.2686L176.18 53.2555ZM144.03 36.3646C144.903 36.0503 144.995 36.0503 145.837 36.4169C145.527 35.544 145.527 35.4524 145.89 34.61C145.017 34.9199 144.929 34.9199 144.087 34.5576C144.397 35.4218 144.397 35.5178 144.03 36.3646ZM168.428 15.9253C168.59 15.8059 168.787 15.7459 168.988 15.7552C169.188 15.7645 169.379 15.8426 169.529 15.9763C169.679 16.1101 169.778 16.2913 169.809 16.4895C169.841 16.6877 169.803 16.8907 169.703 17.0644C169.541 17.1837 169.344 17.2438 169.143 17.2345C168.943 17.2252 168.752 17.1471 168.602 17.0133C168.452 16.8796 168.353 16.6984 168.322 16.5002C168.29 16.302 168.328 16.099 168.428 15.9253V15.9253Z" fill="#1F5B78"/>
  <path d="M161.847 46.8834C164.544 47.4421 164.797 47.6036 166.386 49.8601C166.94 47.1584 167.102 46.9096 169.358 45.3209C166.656 44.7666 166.408 44.6008 164.819 42.3486C164.265 45.0459 164.099 45.2991 161.847 46.8834Z" fill="#82CDFF"/>
  <path d="M202.311 30.2109C201.774 31.3588 201.674 31.4505 200.5 31.9218C201.644 32.4543 201.74 32.5547 202.207 33.7331C202.743 32.5853 202.844 32.4892 204.018 32.0222C202.874 31.4854 202.778 31.385 202.311 30.2109Z" fill="#82CDFF"/>
  <path d="M229.879 60.1416L234.173 68.8469L237.298 82.9029C236.419 84.3164 234.859 85.2225 233.196 85.2859C200.488 85.6613 167.775 85.6685 135.058 85.3077C134.232 85.2763 133.427 85.0425 132.712 84.627C131.998 84.2115 131.396 83.627 130.96 82.9247L133.71 66.8126L138.38 60.1722C168.888 60.6639 199.388 60.6537 229.879 60.1416Z" fill="url(#paint13_radial_607_1716)"/>
  <path d="M240.781 8.25988L234.046 10.7695C200.797 10.1468 167.542 10.1468 134.281 10.7695L127.533 8.26861C128.19 7.70814 129.018 7.38932 129.881 7.36514C166.049 6.66099 202.226 6.65954 238.411 7.36078C239.28 7.38123 240.117 7.69849 240.781 8.25988V8.25988Z" fill="url(#paint14_radial_607_1716)"/>
  <path d="M138.405 60.1723C135.932 67.6794 133.459 75.2315 130.985 82.8288C130.315 81.8135 129.925 80.639 129.855 79.4244C129.183 69.1109 126.403 23.5579 125.696 12.7686C125.623 11.9212 125.751 11.0686 126.07 10.28C126.388 9.49132 126.888 8.78883 127.529 8.22949C129.776 9.10241 132.024 9.85748 134.276 10.7828C135.642 27.1936 137.026 43.7309 138.405 60.1723Z" fill="url(#paint15_linear_607_1716)"/>
  <path d="M229.936 60.1723C232.415 67.6794 234.888 75.2315 237.355 82.8288C238.026 81.8135 238.416 80.639 238.486 79.4244C239.158 69.1109 241.942 23.5579 242.645 12.7686C242.719 11.9215 242.591 11.0691 242.274 10.2804C241.956 9.49169 241.457 8.78905 240.816 8.22949C238.564 9.10241 236.264 9.84438 234.016 10.7697C232.646 27.1805 231.315 43.7309 229.936 60.1723Z" fill="url(#paint16_linear_607_1716)"/>
  <path d="M141.537 83.1218H225.418L225.084 80.9717H142.199L141.537 83.1218Z" fill="url(#paint17_radial_607_1716)"/>
  <path opacity="0.4" d="M213.848 66.8673C206.501 85.3257 158.617 85.3257 151.377 66.8673C144.137 48.4088 221.196 48.4088 213.848 66.8673Z" fill="#5A0EA7"/>
  <ellipse cx="183.542" cy="75.6521" rx="15.7543" ry="4.67949" fill="#5A0EA7"/>
  <path d="M183.231 66.293C175.133 66.293 168.568 68.2484 168.568 70.6605V75.34C168.568 77.7521 175.133 79.7075 183.231 79.7075C191.329 79.7075 197.893 77.7521 197.893 75.34V70.6605C197.893 68.2484 191.329 66.293 183.231 66.293Z" fill="url(#paint18_linear_607_1716)"/>
  <path opacity="0.4" fill-rule="evenodd" clip-rule="evenodd" d="M175.348 79.0234V71.7657H174.182V78.7769C174.556 78.8645 174.945 78.9468 175.348 79.0234ZM173.451 78.5944V71.1826H171.119V77.8025C171.788 78.0938 172.572 78.3597 173.451 78.5944Z" fill="white"/>
  <ellipse cx="183.231" cy="70.6605" rx="14.6624" ry="4.36753" fill="url(#paint19_linear_607_1716)"/>
  <path opacity="0.45" d="M180.482 66.3695C181.42 66.3228 182.301 66.2962 183.082 66.2932C183.131 66.293 183.18 66.293 183.23 66.293C191.328 66.293 197.892 68.2484 197.892 70.6605C197.892 70.6609 197.892 70.6613 197.892 70.6618C187.608 73.2031 172.49 73.2291 168.834 69.8272C169.968 68.0785 174.604 66.7015 180.482 66.3695Z" fill="#A6008B"/>
  <circle cx="183.896" cy="43.0263" r="29.3876" fill="url(#paint20_linear_607_1716)"/>
  <path fill-rule="evenodd" clip-rule="evenodd" d="M183.896 72.4139C200.127 72.4139 213.284 59.2566 213.284 43.0263C213.284 26.7959 200.127 13.6387 183.896 13.6387C167.666 13.6387 154.509 26.7959 154.509 43.0263C154.509 59.2566 167.666 72.4139 183.896 72.4139ZM183.896 70.0482C198.349 70.0482 210.065 58.3319 210.065 43.8792C210.065 29.4265 198.349 17.7103 183.896 17.7103C169.443 17.7103 157.727 29.4265 157.727 43.8792C157.727 58.3319 169.443 70.0482 183.896 70.0482Z" fill="#5D006C"/>
  <path opacity="0.15" fill-rule="evenodd" clip-rule="evenodd" d="M195.623 16.1089C192.835 14.8878 189.822 14.0869 186.662 13.7861L154.589 45.8597C154.89 49.0192 155.691 52.0327 156.912 54.8204L195.623 16.1089ZM165.549 66.0407C162.477 63.5945 159.907 60.5461 158.016 57.0741L197.877 17.2137C201.349 19.1043 204.397 21.6747 206.843 24.746L165.549 66.0407ZM178.231 71.8925C177.084 71.6709 175.962 71.3826 174.867 71.0319L211.835 34.0646C212.185 35.1592 212.474 36.2817 212.695 37.4279L178.231 71.8925Z" fill="#EAFDFF"/>
  <path fill-rule="evenodd" clip-rule="evenodd" d="M163.064 63.7544C163.083 63.7036 163.101 63.6529 163.12 63.6023C163.87 61.6146 165.225 59.9137 166.993 58.7409C168.761 57.5682 170.854 56.9831 172.973 57.0687C173.415 57.0866 173.854 57.1336 174.287 57.2086C174.351 56.7003 174.374 56.1814 174.37 55.5951C173.978 55.678 173.459 55.8629 172.897 56.063C170.864 56.7874 168.272 57.7111 169.114 54.7151C169.539 53.205 170.655 51.0544 172.343 49.362C170.444 47.2078 169.292 44.3796 169.292 41.2824C169.292 34.5311 174.765 29.058 181.517 29.058C183.611 29.058 185.582 29.5845 187.304 30.5122C191.191 27.8209 195.862 25.969 201.198 25.2426C202.707 25.0582 204.159 26.0559 204.528 27.5302C207.197 36.0773 206.276 43.864 203.323 50.1873L204.689 51.5743C204.791 51.6795 204.919 51.7576 205.059 51.8019L208.538 52.8984C208.664 52.9379 208.779 53.0044 208.876 53.0932C208.973 53.182 209.05 53.291 209.1 53.4125C209.15 53.534 209.173 53.6651 209.168 53.7965C209.162 53.9279 209.127 54.0564 209.067 54.1731L207.384 57.4116C207.316 57.5421 207.281 57.6873 207.282 57.8345L207.305 60.7957C206.901 61.3278 206.479 61.8457 206.039 62.3484L202.66 61.7857C202.515 61.7618 202.366 61.7734 202.226 61.8197L198.764 62.9756C198.639 63.0173 198.507 63.0311 198.376 63.0162C198.246 63.0013 198.12 62.958 198.008 62.8893C197.896 62.8206 197.8 62.7282 197.727 62.6186C197.655 62.509 197.607 62.3849 197.588 62.2548L197.091 58.9589C196.639 59.3997 196.175 59.8233 195.702 60.2291C195.783 62.4433 195.517 66.381 191.55 69.2956C191.308 69.4743 191.017 69.5085 190.757 69.4357C190.944 70.0839 191.04 70.757 191.04 71.4356C191.04 71.4703 191.04 71.505 191.04 71.5397C188.753 72.1107 186.36 72.4139 183.897 72.4139C175.755 72.4139 168.387 69.1031 163.064 63.7544Z" fill="url(#paint21_linear_607_1716)"/>
  <path fill-rule="evenodd" clip-rule="evenodd" d="M187.639 72.1778C186.414 72.3336 185.164 72.4139 183.896 72.4139C183.896 72.4139 183.896 72.4139 183.896 72.4139C175.574 72.4139 168.061 68.955 162.714 63.3965C162.714 63.3964 162.714 63.3963 162.714 63.3962C157.633 58.1136 154.509 50.9348 154.509 43.0263C154.509 26.7959 167.666 13.6387 183.896 13.6387C200.127 13.6387 213.284 26.7959 213.284 43.0263C213.284 57.9886 202.102 70.3393 187.639 72.1778ZM164.084 60.1237C164.836 58.9575 165.824 57.9521 166.992 57.1773C168.761 56.0046 170.853 55.4195 172.972 55.5052C173.414 55.523 173.853 55.57 174.286 55.645C174.35 55.1367 174.374 54.6179 174.369 54.0315C173.977 54.1144 173.458 54.2993 172.897 54.4994L172.897 54.4994C170.863 55.2238 168.271 56.1475 169.114 53.1516C169.539 51.6414 170.655 49.4908 172.342 47.7984C170.443 45.6442 169.292 42.8161 169.292 39.7189C169.292 32.9675 174.765 27.4944 181.516 27.4944C183.61 27.4944 185.581 28.0209 187.304 28.9487C191.191 26.2573 195.861 24.4054 201.198 23.679C201.297 23.6669 201.396 23.6599 201.494 23.6578C196.846 19.4326 190.672 16.8573 183.896 16.8573C169.443 16.8573 157.727 28.5736 157.727 43.0263C157.727 49.5618 160.123 55.5377 164.084 60.1237ZM204.974 27.5138C207.077 35.4532 206.096 42.6841 203.323 48.6237L204.688 50.0108C204.791 50.1159 204.918 50.194 205.058 50.2383L208.538 51.3348C208.593 51.3521 208.646 51.3746 208.696 51.4019C209.584 48.7722 210.065 45.9555 210.065 43.0263C210.065 37.2196 208.174 31.8547 204.974 27.5138ZM203.5 60.3621L202.659 60.2222C202.514 60.1982 202.365 60.2098 202.225 60.2562L198.763 61.412C198.639 61.4537 198.506 61.4675 198.376 61.4526C198.245 61.4377 198.119 61.3944 198.007 61.3257C197.895 61.257 197.799 61.1647 197.727 61.055C197.654 60.9454 197.606 60.8213 197.587 60.6913L197.091 57.3954C196.638 57.8361 196.175 58.2597 195.701 58.6655C195.782 60.8798 195.517 64.8174 191.549 67.7321C191.307 67.9107 191.017 67.9449 190.757 67.8722C190.794 68.0003 190.827 68.1294 190.857 68.2594C195.816 66.8944 200.186 64.1064 203.5 60.3621ZM189.415 63.1108C189.593 63.7435 189.78 64.9211 189.929 66.0224C189.503 65.3449 188.967 64.7413 188.341 64.2375C188.097 64.0413 187.841 63.8617 187.576 63.6995C188.624 63.444 189.415 63.1108 189.415 63.1108Z" fill="url(#paint22_linear_607_1716)"/>
  <path d="M172.226 60.5246C172.982 59.4084 172.708 57.5179 171.381 57.7582C169.368 58.1228 167.509 59.2422 166.272 60.917C165.893 61.4301 166.008 62.1366 166.484 62.5612C167.621 63.5759 168.848 64.4926 170.151 65.2983C170.605 65.5796 171.187 65.1203 171.143 64.5874C171.024 63.1241 171.434 61.6951 172.226 60.5246Z" fill="#FFC83C"/>
  <path d="M183.896 69.1949C185.064 69.1949 186.214 69.1184 187.342 68.9702C188.103 68.87 188.626 68.1394 188.326 67.4326C187.766 66.1157 186.708 65.0247 185.352 64.4625C182.485 63.2729 179.593 64.7884 178.352 67.171C177.99 67.8654 178.476 68.6448 179.246 68.7831C180.756 69.0537 182.309 69.1949 183.896 69.1949Z" fill="#FFC83C"/>
  <path d="M174.628 60.663C172.49 62.5659 173.03 65.9575 175.255 67.3305C175.839 67.6914 176.515 67.2379 176.762 66.5966C176.856 66.3534 176.883 66.092 176.837 65.8356C176.645 64.7684 176.524 63.1926 176.637 61.6916C176.713 60.6981 175.876 59.7752 175.051 60.3338C174.905 60.4324 174.764 60.5421 174.628 60.663Z" fill="#FFC83C"/>
  <path d="M207.265 39.1792C207.883 42.6503 206.521 45.3591 206.106 46.9535C205.602 48.8902 207.02 48.7101 207.452 47.458C207.738 46.6292 208.758 43.3509 207.265 39.1792Z" fill="white"/>
  <path fill-rule="evenodd" clip-rule="evenodd" d="M175.535 45.6382C177.263 39.5169 180.723 34.1397 185.627 30.1997C184.424 29.6724 183.095 29.3799 181.698 29.3799C176.287 29.3799 171.901 33.7658 171.901 39.1761C171.901 41.8479 172.971 44.2699 174.705 46.0372C174.972 45.884 175.248 45.7499 175.535 45.6382ZM181.407 32.2051C181.567 32.6028 181.222 33.1164 180.636 33.352C180.049 33.5877 179.444 33.4562 179.285 33.0584C179.125 32.6607 179.47 32.1472 180.056 31.9115C180.643 31.6758 181.248 31.8073 181.407 32.2051ZM176.314 37.134C176.314 38.1733 175.742 39.0157 175.037 39.0157C174.332 39.0157 173.761 38.1733 173.761 37.134C173.761 36.0948 174.332 35.2524 175.037 35.2524C175.742 35.2524 176.314 36.0948 176.314 37.134Z" fill="#FFC83C"/>
  <path d="M187.397 31.6063C177.243 39.7453 175.213 53.916 178.039 57.7063C178.98 56.539 180.399 55.4928 181.726 54.9646C183.261 54.3529 185.02 55.4078 185.232 57.0211C185.407 58.3684 185.19 59.9413 184.556 61.3571C189.252 61.9945 199.942 54.3678 203.006 42.1285C197.055 42.4337 189.044 36.8674 187.397 31.6063ZM192.561 52.9487C188.04 56.1948 181.24 52.391 181.566 46.808C181.843 42.511 187.13 39.6226 191.452 41.9389C195.773 44.2551 196.55 50.0389 192.561 52.9487Z" fill="white"/>
  <path d="M203.658 38.5908C203.59 39.1553 203.12 39.6062 202.553 39.6505C195.106 40.2083 187.661 31.1617 190.362 29.5315C193.427 27.6853 196.858 26.4607 200.388 25.8663C202.355 25.5364 202.32 25.6719 202.784 27.4319C203.763 31.1457 204.115 34.783 203.658 38.5908Z" fill="white"/>
  <g opacity="0.4">
  <path d="M203.008 42.1289C199.943 54.3682 189.254 61.995 184.558 61.3567C185.058 60.2383 185.308 59.0242 185.29 57.7991C190.106 58.8923 193.989 55.4088 196.332 51.6855C200.576 44.928 192.58 41.5361 189.471 35.2448C192.655 39.137 198.438 42.3632 203.008 42.1289Z" fill="#FEBEFF"/>
  <path d="M203.664 38.5347C203.594 39.1238 203.147 39.6044 202.555 39.6491C197.392 40.0399 191.21 35.49 189.926 31.2744C194.084 34.7316 205.687 43.1527 202.105 25.834C202.437 26.0284 202.543 26.5065 202.787 27.4331C203.76 31.1259 204.111 34.7484 203.664 38.5347Z" fill="#FEBEFF"/>
  </g>
  <path d="M193.648 60.8561C193.409 62.4186 192.664 64.0042 191.736 65.2846C191.34 62.689 191.52 62.4423 193.648 60.8561ZM171.719 52.6469C172.436 51.239 173.508 49.8534 174.789 48.9268C174.364 51.4486 174.046 51.8667 171.719 52.6469ZM178.278 64.1149C178.178 62.9885 180.127 56.2337 182.298 58.2084C184.463 60.1767 179.773 63.6839 178.279 64.1149H178.278Z" fill="white"/>
  <path d="M162.485 51.8975L162.864 52.929L161.943 53.267L160.751 50.0168L161.671 49.6788L162.05 50.7103L164.651 49.7555L165.087 50.9433L162.485 51.8975ZM163.847 47.4736C163.732 47.8062 163.529 48.1012 163.258 48.3265C162.988 48.5518 162.661 48.6989 162.313 48.7519C161.965 48.8049 161.609 48.7618 161.284 48.6273C160.959 48.4927 160.676 48.2719 160.468 47.9885C159.568 46.7622 160.025 44.8142 161.675 44.5631C163.325 44.3121 164.343 46.0296 163.847 47.4736V47.4736ZM162.743 46.1104C162.327 45.6127 161.366 45.7565 161.112 46.355C160.874 46.9302 161.32 47.6061 162.116 47.4851C162.912 47.3641 163.133 46.5787 162.743 46.1104V46.1104ZM160.988 40.6185L160.83 41.7054L159.859 41.5664L160.351 38.1393L161.322 38.2783L161.164 39.3652L163.907 39.7581L163.727 41.0097L160.988 40.6185ZM161.886 33.4608L165.418 34.7251L164.992 35.9156L163.69 35.4503L163.296 36.5497L164.598 37.0159L164.172 38.2065L160.644 36.946L161.069 35.7548L162.322 36.2024L162.715 35.103L161.464 34.6545L161.886 33.4608ZM166.591 30.9002L167.403 31.3962L165.775 34.0571L162.575 32.0981L164.167 29.4981L164.979 29.9942L164.037 31.5342L164.411 31.7642L165.239 30.4119L166.016 30.8882L165.188 32.2405L165.608 32.4978L166.591 30.9002ZM171.485 27.2807L170.369 25.986L170.636 27.558L170.212 27.9184L168.741 27.4472L169.81 28.7041L168.934 29.4514L166.501 26.5954L167.292 25.921L169.519 26.6507L169.132 24.3606L169.923 23.6863L172.364 26.5351L171.485 27.2807ZM173.706 25.6237C173.354 25.6151 173.012 25.5106 172.715 25.3213C172.418 25.1319 172.179 24.8651 172.023 24.5496C171.867 24.2341 171.8 23.882 171.829 23.5312C171.859 23.1805 171.983 22.8445 172.19 22.5595C173.085 21.3323 175.079 21.175 175.82 22.6704C176.561 24.1659 175.228 25.6548 173.705 25.6231L173.706 25.6237ZM174.673 24.1599C175.022 23.6134 174.594 22.7414 173.937 22.6863C173.318 22.6348 172.811 23.2663 173.166 23.9854C173.521 24.7045 174.339 24.6706 174.667 24.1548L174.673 24.1599ZM178.036 23.8083C177.695 23.7202 177.385 23.5407 177.139 23.2891C176.892 23.0375 176.72 22.7233 176.639 22.3807C176.559 22.038 176.573 21.6798 176.681 21.3448C176.79 21.0099 176.987 20.7109 177.253 20.4802C178.404 19.4862 180.383 19.7897 180.768 21.4073C181.153 23.0249 179.516 24.1813 178.029 23.8033L178.036 23.8083ZM179.307 22.5988C179.77 22.1441 179.549 21.2015 178.928 20.999C178.337 20.8082 177.698 21.306 177.883 22.0907C178.067 22.8754 178.865 23.0203 179.3 22.5938L179.307 22.5988ZM185.452 19.4067L185.488 23.1585L184.449 23.1683L183.007 21.4782L183.023 23.1823L181.79 23.1941L181.754 19.4423L182.794 19.4331L184.236 21.1232L184.219 19.4186L185.452 19.4067ZM186.321 23.1855C186.268 23.1192 186.228 23.0425 186.206 22.9602C186.183 22.8779 186.178 22.7918 186.19 22.7074C186.203 22.623 186.233 22.542 186.278 22.4697C186.323 22.3974 186.383 22.3352 186.453 22.2872C186.613 22.1922 186.8 22.1552 186.983 22.1821C187.167 22.2091 187.336 22.2985 187.461 22.4352C187.515 22.5015 187.554 22.5782 187.577 22.6605C187.6 22.7428 187.605 22.829 187.592 22.9135C187.58 22.998 187.55 23.0789 187.505 23.1512C187.459 23.2235 187.399 23.2856 187.329 23.3335C187.17 23.4349 186.979 23.4753 186.793 23.4471C186.607 23.419 186.437 23.3243 186.315 23.1805L186.321 23.1855ZM186.636 19.5754L188.068 19.7855L187.492 22.0415L186.542 21.904L186.636 19.5754Z" fill="white"/>
  <path d="M198.68 55.7223C200.056 54.157 201.295 52.418 202.349 50.5273C202.978 51.165 203.561 51.8877 204.445 52.1677L205.97 52.6504C206.311 52.7575 206.485 53.1671 206.318 53.4883C205.861 54.3668 205.241 55.2573 205.248 56.2836L205.261 57.8844C205.269 58.2449 204.932 58.5421 204.572 58.4821C203.907 58.3717 203.221 58.1871 202.544 58.1802C201.693 58.1695 200.858 58.572 200.065 58.8368C199.726 58.9495 199.346 58.7209 199.292 58.3626C199.161 57.4855 199.142 56.504 198.68 55.7223Z" fill="#FFC83C"/>
  <path opacity="0.7" fill-rule="evenodd" clip-rule="evenodd" d="M193.839 15.363C190.847 14.2874 187.63 13.6834 184.278 13.6406L180.891 17.0275C181.877 16.9148 182.88 16.8569 183.896 16.8569C186.463 16.8569 188.943 17.2264 191.287 17.9152L193.839 15.363ZM184.659 27.9018C185.589 28.1484 186.475 28.5019 187.304 28.9482C191.191 26.2568 195.861 24.4049 201.197 23.6785C201.297 23.6664 201.395 23.6594 201.494 23.6573C199.244 21.6118 196.636 19.9529 193.775 18.7858L196.221 16.3399C199.847 18.0173 203.073 20.4121 205.718 23.342L174.36 54.6994C174.368 54.4848 174.371 54.2632 174.369 54.031C173.977 54.1139 173.458 54.2988 172.896 54.4989C170.863 55.2233 168.271 56.147 169.113 53.1511C169.538 51.6409 170.654 49.4903 172.342 47.7979C171.109 46.3995 170.192 44.7172 169.699 42.8616L184.659 27.9018ZM181.707 27.4954C181.643 27.4944 181.58 27.4939 181.516 27.4939C174.764 27.4939 169.291 32.967 169.291 39.7184C169.291 39.7822 169.292 39.8459 169.293 39.9094L181.707 27.4954ZM158.785 50.417C158.096 48.0731 157.727 45.5926 157.727 43.0258C157.727 42.0098 157.785 41.0072 157.898 40.0214L154.511 43.4081C154.553 46.7603 155.157 49.9772 156.233 52.9692L158.785 50.417ZM164.212 64.8476C164.041 64.6936 163.873 64.5376 163.706 64.3797L163.631 64.3089C163.558 64.2394 163.486 64.1696 163.413 64.0994C163.229 63.9204 163.047 63.7389 162.868 63.5552C162.824 63.5105 162.781 63.4657 162.738 63.4208C160.473 61.0725 158.597 58.3482 157.21 55.3509L159.656 52.905C160.737 55.5561 162.241 57.9901 164.084 60.1233C164.836 58.957 165.824 57.9517 166.992 57.1768C168.761 56.0041 170.853 55.419 172.972 55.5047C173.155 55.512 173.337 55.5244 173.518 55.5416L164.212 64.8476ZM174.893 71.0086C173.849 70.6731 172.831 70.2809 171.842 69.8355L206.104 35.5734C206.125 37.1128 206.031 38.6124 205.834 40.0669L174.893 71.0086ZM210.706 30.9718C211.151 31.9609 211.543 32.979 211.879 34.0226L209.276 36.625C209.001 35.5305 208.657 34.4633 208.249 33.4285L210.706 30.9718Z" fill="url(#paint23_linear_607_1716)"/>
  <path d="M186.508 47.5992C186.825 48.8335 186.879 49.3806 187.384 49.7264C188.007 50.1594 188.893 49.5707 189.439 49.6611C190.333 49.7997 190.517 51.3647 189.456 51.6425C185.797 52.3843 186.293 52.8374 185.218 48.2873C184.931 47.0509 186.206 46.4431 186.508 47.5992ZM185.583 44.9851C186.281 44.7933 187.189 44.3468 187.55 45.5737C187.914 46.8374 187.962 47.5594 188.772 47.378C190.99 46.8662 190.857 47.0742 191.649 49.4646C192.084 50.7328 193.594 50.0791 193.12 48.7097C191.631 44.4677 192.111 44.7374 189.063 45.4334C188.507 43.6973 188.364 42.5511 187.274 42.852C185.174 43.4412 185.137 43.4565 184.956 43.615C184.488 44.0289 184.535 45.3107 185.583 44.9851Z" fill="white"/>
  <path d="M368.109 71.6474C368.889 75.0379 368.376 78.5974 366.669 81.6292C364.976 84.5185 362.4 86.1858 359.598 86.2076C326.512 86.5306 293.391 87.3948 260.235 88.8002C258.927 88.8332 257.631 88.5448 256.461 87.9604C255.29 87.376 254.281 86.5134 253.522 85.4482C251.795 83.0396 251.053 80.0622 251.449 77.1249C252.618 67.4225 259.034 11.8266 259.034 11.8309C259.645 6.65017 263.421 2.58676 267.803 2.38162C293.344 1.35158 318.886 0.624153 344.427 0.199334C348.355 0.129501 351.873 3.41602 352.956 8.19523C358.01 29.3256 363.061 50.4763 368.109 71.6474Z" fill="url(#paint24_linear_607_1716)"/>
  <path d="M326.974 56.8212C303.722 58.8115 280.457 59.7237 257.18 59.5578L262.487 12.4684C262.573 11.7485 262.761 11.0445 263.046 10.3778C280.578 9.61838 298.115 9.57909 315.648 9.64893C316.219 10.9321 323.198 40.9778 326.974 56.8212Z" fill="#1B2026"/>
  <path d="M297.683 17.6273C297.423 17.8025 297.145 17.9489 296.853 18.0638C296.539 18.0732 296.224 18.0483 295.915 17.9896C296.089 18.2499 296.235 18.5279 296.351 18.8189C296.361 19.1334 296.336 19.4481 296.277 19.7572C296.538 19.5821 296.818 19.4358 297.111 19.3208C297.425 19.3116 297.74 19.3365 298.049 19.395C297.875 19.1349 297.728 18.8569 297.613 18.5657C297.602 18.2513 297.625 17.9367 297.683 17.6273ZM270.5 46.7259C270.595 46.7851 270.709 46.8054 270.819 46.7826C270.929 46.7599 271.025 46.6958 271.089 46.6037C271.136 46.5583 271.173 46.5028 271.196 46.4414C271.219 46.3799 271.227 46.3141 271.221 46.2488C271.215 46.1835 271.195 46.1204 271.161 46.0642C271.127 46.008 271.081 45.9601 271.026 45.9241C270.971 45.8882 270.909 45.865 270.844 45.8564C270.779 45.8477 270.713 45.8538 270.651 45.8743C270.589 45.8947 270.532 45.9289 270.484 45.9743C270.437 46.0198 270.401 46.0753 270.378 46.1367C270.319 46.2319 270.298 46.3461 270.321 46.4558C270.344 46.5654 270.408 46.6622 270.5 46.7259V46.7259ZM262.98 49.6284C263.072 49.4806 263.206 49.3637 263.365 49.2928C263.524 49.2219 263.701 49.2002 263.873 49.2306C264.044 49.2609 264.203 49.3418 264.328 49.463C264.453 49.5842 264.539 49.74 264.575 49.9105C264.611 50.0809 264.595 50.2582 264.529 50.4195C264.463 50.5808 264.351 50.7188 264.206 50.8156C264.061 50.9125 263.891 50.9638 263.717 50.963C263.542 50.9622 263.372 50.9094 263.229 50.8112C263.042 50.6842 262.913 50.4902 262.866 50.2698C262.82 50.0494 262.861 49.8195 262.98 49.6284V49.6284ZM266.908 38.9352C267.093 38.6532 267.358 38.4325 267.668 38.3008C267.979 38.1691 268.321 38.1325 268.653 38.1955C268.984 38.2584 269.29 38.4182 269.53 38.6546C269.771 38.891 269.936 39.1935 270.005 39.5237C270.074 39.8539 270.043 40.1972 269.917 40.5101C269.791 40.8229 269.575 41.0914 269.296 41.2816C269.018 41.4717 268.689 41.575 268.352 41.5785C268.014 41.5819 267.684 41.4853 267.401 41.3008C267.025 41.05 266.763 40.6604 266.673 40.2171C266.583 39.7738 266.672 39.3129 266.921 38.9352H266.908ZM270.871 15.1221C270.513 15.3673 270.13 15.5722 269.727 15.7331C269.288 15.7465 268.849 15.7113 268.418 15.6284C268.662 15.9864 268.867 16.3698 269.029 16.7719C269.042 17.2109 269.007 17.6499 268.924 18.0813C269.282 17.837 269.666 17.6322 270.068 17.4702C270.507 17.4563 270.946 17.49 271.377 17.5706C271.132 17.2131 270.927 16.8296 270.766 16.4271C270.758 15.9891 270.798 15.5515 270.884 15.1221H270.871ZM314.582 40.3144C314.48 40.2593 314.363 40.2359 314.247 40.2471C314.131 40.2583 314.021 40.3036 313.931 40.3773C313.84 40.451 313.774 40.5498 313.74 40.6612C313.706 40.7726 313.706 40.8916 313.739 41.0032C313.773 41.1147 313.839 41.2138 313.928 41.288C314.018 41.3621 314.128 41.408 314.244 41.4198C314.36 41.4315 314.477 41.4087 314.58 41.3541C314.683 41.2995 314.767 41.2156 314.822 41.1131C314.895 40.9751 314.911 40.814 314.866 40.6645C314.821 40.515 314.719 40.3892 314.582 40.3144V40.3144ZM311.339 19.862C311.229 20.066 311.06 20.2328 310.855 20.3411C310.65 20.4494 310.417 20.4944 310.186 20.4705C309.955 20.4466 309.737 20.3549 309.558 20.2068C309.379 20.0587 309.248 19.861 309.182 19.6387C309.116 19.4163 309.117 19.1792 309.185 18.9574C309.253 18.7356 309.386 18.539 309.565 18.3924C309.745 18.2458 309.965 18.1559 310.196 18.1339C310.427 18.1119 310.659 18.1589 310.864 18.2689C311 18.3421 311.12 18.4415 311.217 18.5612C311.315 18.681 311.388 18.8188 311.432 18.9667C311.476 19.1147 311.491 19.27 311.475 19.4236C311.459 19.5772 311.413 19.7262 311.339 19.862ZM304.317 37.0148C304.19 37.304 304.03 37.5779 303.841 37.8309C303.579 38.0072 303.298 38.1536 303.003 38.2674C303.291 38.3966 303.563 38.5577 303.815 38.7475C303.99 39.01 304.137 39.291 304.251 39.5855C304.38 39.2986 304.54 39.0265 304.727 38.7737C304.989 38.5979 305.27 38.4516 305.565 38.3372C305.278 38.2068 305.006 38.0458 304.753 37.8571C304.578 37.5927 304.432 37.3103 304.317 37.0148V37.0148ZM312.889 18.7054C312.976 18.7097 313.062 18.6879 313.137 18.6427C313.211 18.5974 313.271 18.5309 313.307 18.4516C313.344 18.3724 313.355 18.284 313.341 18.198C313.327 18.1119 313.287 18.0321 313.227 17.9689C313.167 17.9056 313.089 17.8618 313.004 17.8431C312.919 17.8245 312.83 17.8317 312.749 17.864C312.668 17.8963 312.598 17.9522 312.549 18.0243C312.5 18.0965 312.474 18.1817 312.474 18.2689C312.474 18.381 312.517 18.4888 312.594 18.5701C312.671 18.6513 312.777 18.6998 312.889 18.7054V18.7054ZM308 25.1126C308.001 24.9381 308.053 24.7677 308.151 24.6234C308.249 24.479 308.388 24.3674 308.55 24.3028C308.712 24.2382 308.89 24.2236 309.06 24.261C309.231 24.2984 309.386 24.386 309.506 24.5125C309.626 24.6389 309.706 24.7985 309.734 24.9706C309.763 25.1427 309.739 25.3194 309.667 25.478C309.594 25.6365 309.475 25.7696 309.326 25.8601C309.177 25.9505 309.004 25.9942 308.83 25.9855C308.606 25.9743 308.395 25.8774 308.24 25.7149C308.086 25.5524 308 25.3367 308 25.1126V25.1126Z" fill="#1F5B78"/>
  <path d="M279.774 27.334C280.34 27.3171 280.906 27.3625 281.463 27.4693C281.143 27.0011 280.875 26.4991 280.664 25.9723C280.647 25.406 280.693 24.8396 280.799 24.2832C280.33 24.601 279.828 24.8673 279.302 25.0776C278.736 25.0945 278.17 25.0491 277.613 24.9423C277.933 25.4111 278.2 25.913 278.412 26.4393C278.429 27.0056 278.384 27.572 278.277 28.1284C278.746 27.8106 279.248 27.5443 279.774 27.334ZM280.647 46.5644C280.739 46.4167 280.874 46.3002 281.033 46.2298C281.193 46.1594 281.369 46.1382 281.541 46.1691C281.712 46.2 281.871 46.2815 281.995 46.4031C282.12 46.5247 282.206 46.6809 282.241 46.8515C282.276 47.0222 282.26 47.1995 282.193 47.3606C282.127 47.5217 282.014 47.6593 281.869 47.7556C281.724 47.8519 281.553 47.9026 281.379 47.9011C281.204 47.8996 281.035 47.846 280.891 47.7472C280.706 47.6195 280.577 47.4252 280.531 47.2048C280.486 46.9845 280.527 46.755 280.647 46.5644V46.5644ZM320.404 50.5929C320.183 51.0025 319.845 51.3373 319.434 51.5551C319.023 51.7729 318.556 51.8637 318.093 51.8162C317.63 51.7688 317.192 51.585 316.833 51.2883C316.475 50.9915 316.212 50.5951 316.079 50.1492C315.946 49.7033 315.948 49.2278 316.085 48.7831C316.222 48.3384 316.488 47.9443 316.849 47.6507C317.21 47.3571 317.65 47.1772 318.114 47.1338C318.577 47.0904 319.043 47.1853 319.452 47.4067C320.001 47.7033 320.409 48.2055 320.587 48.8029C320.766 49.4003 320.7 50.0441 320.404 50.5929V50.5929Z" fill="#82CDFF"/>
  <path d="M346.163 5.49272C346.163 5.49272 315.663 9.69144 315.663 9.64779C298.175 9.90967 280.686 9.82674 263.201 10.6255L263.062 10.5469C263.969 8.44317 265.781 6.98104 267.819 6.88938C293.355 5.75459 318.896 5.17265 344.443 5.14355C345.034 5.1447 345.619 5.2634 346.163 5.49272V5.49272Z" fill="url(#paint25_radial_607_1716)"/>
  <path d="M326.973 56.8203L346.781 64.0045L363.522 79.6732C362.663 81.0196 361.186 81.901 359.593 82.017L260.234 84.8933C256.956 84.9544 254.446 81.5325 254.913 77.6699L257.184 59.5394L326.973 56.8203Z" fill="url(#paint26_radial_607_1716)"/>
  <path d="M364.748 73.048C365.012 74.171 365.039 75.3368 364.827 76.4709C364.615 77.605 364.169 78.6823 363.517 79.6341C351.34 71.6557 339.154 64.2359 326.973 56.8249C323.197 41.1604 319.422 25.2515 315.664 9.64819C325.834 7.9431 336.007 6.43732 346.186 5.13086C346.744 5.34909 348.874 6.37476 349.612 9.60455C351.89 19.6038 362.444 62.7825 364.748 73.048Z" fill="url(#paint27_linear_607_1716)"/>
  <path d="M267.37 82.2526L349.396 80.2787L347.14 78.2959L267.155 80.3414L267.37 82.2526Z" fill="url(#paint28_radial_607_1716)"/>
  <path d="M267.371 82.2526L349.397 80.2787L347.141 78.2959L267.156 80.3414L267.371 82.2526Z" fill="#1B2026"/>
  <path opacity="0.7" d="M273.114 42.7654C275.294 39.8247 278.736 38.473 281.865 37.6405C288.212 36.0963 294.558 35.8501 300.834 35.5681C307.109 35.2861 313.326 35.2056 319.548 35.1877C325.769 35.1698 332.018 35.1877 338.136 36.4454C341.144 37.1347 344.367 38.3253 346.331 41.0601C345.298 39.8185 344.004 38.8205 342.54 38.1373C338.208 36.2216 333.441 36.0471 328.84 35.8143C322.641 35.6129 316.415 35.7382 310.18 35.868C303.945 35.9978 297.669 36.1142 291.381 36.5797C285.839 37.1437 277.344 37.5375 273.119 42.7654H273.114Z" fill="#FF8DFA"/>
  <path opacity="0.6" d="M346.169 40.8815C345.167 39.7208 343.929 38.7857 342.539 38.1378C338.207 36.222 333.44 36.0475 328.838 35.8147C322.639 35.6133 316.413 35.7386 310.178 35.8685C303.943 35.9983 297.668 36.1146 291.379 36.5801C285.838 37.1441 277.343 37.538 273.117 42.7659C269.505 47.4567 269.147 55.3209 268.771 70.002C268.704 72.4995 268.615 79.2269 268.565 82.2034L347.458 80.319C347.458 80.319 348.304 70.3824 348.461 68.0415C349.459 53.065 349.638 45.2903 346.169 40.8815Z" fill="url(#paint29_radial_607_1716)"/>
  <path d="M276.835 60.1757L282.782 60.0378C284.126 60.0066 285.315 60.2262 286.349 60.6966C287.395 61.1552 288.209 61.8318 288.793 62.7265C289.389 63.6209 289.701 64.6829 289.729 65.9123C289.758 67.1418 289.496 68.2171 288.942 69.1382C288.4 70.059 287.618 70.7784 286.595 71.2965C285.584 71.8028 284.406 72.0715 283.061 72.1027L277.115 72.2406L276.835 60.1757ZM282.815 68.9353C283.689 68.9151 284.378 68.6519 284.884 68.1458C285.401 67.628 285.648 66.9152 285.627 66.0075C285.606 65.0997 285.326 64.4049 284.786 63.9231C284.257 63.4295 283.556 63.1929 282.683 63.2131L280.976 63.2527L281.109 68.9749L282.815 68.9353ZM299.359 69.6209L294.774 69.7272L294.013 71.8487L289.876 71.9446L294.871 59.7574L298.869 59.6647L304.423 71.6073L300.218 71.7048L299.359 69.6209ZM298.171 66.7168L296.928 63.7105L295.827 66.7711L298.171 66.7168ZM311.367 67.0661L311.468 71.4439L307.401 71.5382L307.298 67.1087L302.571 59.5788L306.862 59.4793L309.424 63.5932L311.809 59.3646L315.739 59.2734L311.367 67.0661ZM330.798 67.8398L330.871 70.9939L321.202 71.2182L321.144 68.719L325.411 64.5847C325.782 64.2197 326.028 63.9094 326.149 63.6537C326.269 63.3979 326.327 63.1494 326.321 62.9081C326.314 62.6094 326.205 62.382 325.995 62.2259C325.795 62.0581 325.506 61.9786 325.127 61.9873C324.759 61.9959 324.417 62.1015 324.1 62.3043C323.782 62.5071 323.542 62.7886 323.378 63.1488L320.274 61.686C320.714 60.8136 321.37 60.12 322.244 59.6054C323.117 59.0793 324.179 58.8018 325.432 58.7727C326.385 58.7506 327.234 58.8861 327.976 59.1793C328.719 59.4725 329.304 59.9016 329.731 60.4665C330.158 61.0314 330.38 61.6873 330.397 62.4342C330.412 63.1007 330.283 63.7302 330.01 64.3229C329.747 64.9038 329.217 65.5714 328.418 66.3257L326.731 67.9341L330.798 67.8398ZM336.454 63.0525C338.143 63.0133 339.392 63.3408 340.202 64.0348C341.022 64.717 341.446 65.6327 341.472 66.7817C341.49 67.5401 341.305 68.2457 340.918 68.8985C340.542 69.5395 339.945 70.0707 339.127 70.492C338.309 70.9019 337.285 71.1211 336.055 71.1496C335.205 71.1693 334.353 71.0971 333.498 70.933C332.655 70.7686 331.913 70.5156 331.273 70.1741L332.582 67.1431C333.095 67.4186 333.628 67.6247 334.183 67.7613C334.75 67.8976 335.297 67.9596 335.826 67.9474C336.297 67.9365 336.674 67.8472 336.958 67.6797C337.253 67.5004 337.397 67.2614 337.39 66.9626C337.383 66.6754 337.246 66.4659 336.978 66.3341C336.711 66.1909 336.232 66.1272 335.543 66.1432L332.044 66.2244L332.477 58.8853L340.492 58.6994L340.563 61.7673L335.892 61.8756L335.833 63.0669L336.454 63.0525Z" fill="white"/>
  <path d="M285.034 52.3427C284.487 52.3554 283.992 52.2536 283.548 52.0372C283.105 51.8159 282.753 51.5038 282.492 51.1009C282.236 50.693 282.102 50.228 282.09 49.706C282.078 49.184 282.19 48.7158 282.427 48.3014C282.669 47.8819 283.006 47.5538 283.439 47.3171C283.872 47.0755 284.362 46.9483 284.908 46.9357C285.41 46.924 285.861 47.0023 286.259 47.1704C286.657 47.3386 286.988 47.5871 287.252 47.916L286.174 48.924C285.844 48.5276 285.463 48.3344 285.03 48.3445C284.665 48.3529 284.375 48.4779 284.159 48.7194C283.943 48.956 283.839 49.2713 283.848 49.6652C283.857 50.0592 283.975 50.3718 284.202 50.603C284.429 50.8293 284.725 50.9383 285.089 50.9298C285.523 50.9198 285.895 50.7091 286.206 50.2979L287.329 51.2548C287.081 51.5956 286.762 51.8592 286.372 52.0456C285.982 52.232 285.536 52.3311 285.034 52.3427ZM291.198 52.1998C290.641 52.2127 290.139 52.1085 289.69 51.8874C289.242 51.6662 288.887 51.3542 288.626 50.9513C288.366 50.5434 288.229 50.081 288.217 49.5639C288.205 49.0468 288.32 48.581 288.562 48.1665C288.803 47.747 289.143 47.4164 289.581 47.1747C290.019 46.9329 290.516 46.8056 291.072 46.7927C291.629 46.7798 292.131 46.8839 292.58 47.1051C293.028 47.3263 293.383 47.6408 293.644 48.0486C293.904 48.4515 294.041 48.9115 294.053 49.4286C294.065 49.9456 293.95 50.4139 293.708 50.8334C293.467 51.248 293.127 51.5761 292.689 51.8178C292.251 52.0596 291.754 52.1869 291.198 52.1998ZM291.165 50.7889C291.382 50.7839 291.575 50.7277 291.745 50.6203C291.92 50.5078 292.057 50.3544 292.156 50.1599C292.254 49.9605 292.301 49.7303 292.295 49.4693C292.289 49.2084 292.232 48.983 292.124 48.7934C292.016 48.5988 291.872 48.4519 291.692 48.3525C291.517 48.2482 291.322 48.1985 291.105 48.2036C290.888 48.2086 290.693 48.2673 290.518 48.3798C290.348 48.4872 290.214 48.6406 290.115 48.84C290.016 49.0344 289.969 49.2621 289.975 49.5231C289.981 49.7841 290.038 50.0119 290.146 50.2065C290.254 50.3962 290.396 50.5432 290.57 50.6475C290.75 50.7468 290.948 50.7939 291.165 50.7889ZM300.101 51.875L300.031 49.519L298.952 51.4361L298.184 51.4539L297.019 49.6702L297.072 51.9453L295.484 51.9821L295.364 46.8114L296.797 46.7782L298.545 49.4944L300.121 46.7011L301.554 46.6679L301.689 51.8382L300.101 51.875ZM303.151 46.6309L304.894 46.5904L305.014 51.7611L303.27 51.8015L303.151 46.6309ZM311.568 46.4356L311.688 51.6063L310.255 51.6395L308.236 49.3362L308.29 51.6851L306.592 51.7245L306.472 46.5538L307.905 46.5206L309.924 48.824L309.87 46.475L311.568 46.4356ZM316.624 48.7647L318.138 48.7296L318.189 50.916C317.888 51.1349 317.538 51.3056 317.136 51.4282C316.735 51.5509 316.34 51.6167 315.951 51.6257C315.4 51.6385 314.902 51.5367 314.458 51.3204C314.015 51.0991 313.663 50.787 313.402 50.3841C313.146 49.9761 313.012 49.5112 313 48.9892C312.988 48.4672 313.1 47.999 313.337 47.5845C313.579 47.165 313.918 46.8369 314.356 46.6001C314.799 46.3582 315.301 46.2308 315.863 46.2178C316.37 46.206 316.825 46.2817 317.228 46.4448C317.635 46.6029 317.976 46.8413 318.249 47.1602L317.157 48.1685C316.823 47.7968 316.432 47.6162 315.984 47.6266C315.6 47.6355 315.297 47.7583 315.076 47.995C314.855 48.2317 314.749 48.5495 314.758 48.9484C314.767 49.3374 314.885 49.6476 315.112 49.8788C315.344 50.1099 315.648 50.2211 316.022 50.2125C316.243 50.2073 316.454 50.1605 316.654 50.0721L316.624 48.7647ZM325.35 51.4077C324.793 51.4206 324.291 51.3165 323.842 51.0953C323.393 50.8742 323.039 50.5621 322.778 50.1592C322.518 49.7514 322.381 49.2889 322.369 48.7719C322.357 48.2548 322.472 47.789 322.714 47.3744C322.955 46.955 323.295 46.6244 323.733 46.3826C324.171 46.1409 324.668 46.0136 325.224 46.0007C325.781 45.9878 326.283 46.0919 326.732 46.3131C327.18 46.5343 327.535 46.8488 327.796 47.2566C328.056 47.6595 328.193 48.1195 328.205 48.6365C328.217 49.1536 328.102 49.6219 327.86 50.0414C327.619 50.4559 327.279 50.7841 326.841 51.0258C326.403 51.2675 325.906 51.3948 325.35 51.4077ZM325.317 49.9969C325.534 49.9919 325.727 49.9356 325.897 49.8282C326.072 49.7158 326.208 49.5623 326.307 49.3679C326.406 49.1685 326.453 48.9383 326.447 48.6773C326.441 48.4163 326.384 48.191 326.276 48.0013C326.168 47.8068 326.024 47.6598 325.844 47.5605C325.669 47.4562 325.474 47.4065 325.257 47.4115C325.04 47.4166 324.845 47.4753 324.67 47.5878C324.5 47.6952 324.365 47.8486 324.267 48.0479C324.168 48.2424 324.121 48.4701 324.127 48.7311C324.133 48.9921 324.19 49.2199 324.298 49.4145C324.406 49.6041 324.547 49.7511 324.722 49.8555C324.902 49.9548 325.1 50.0019 325.317 49.9969ZM334.613 45.9012L334.733 51.0719L333.3 51.1051L331.28 48.8017L331.335 51.1507L329.636 51.1901L329.516 46.0194L330.949 45.9862L332.968 48.2896L332.914 45.9406L334.613 45.9012Z" fill="white"/>
  <defs>
  <linearGradient id="paint0_linear_607_1716" x1="-14771.3" y1="-218.655" x2="-16295.7" y2="50613.2" gradientUnits="userSpaceOnUse">
  <stop stop-color="#CB10DC"/>
  <stop offset="1" stop-color="#6013A7"/>
  </linearGradient>
  <radialGradient id="paint1_radial_607_1716" cx="0" cy="0" r="1" gradientUnits="userSpaceOnUse" gradientTransform="translate(64.3914 -53.4376) rotate(81.7178) scale(174.608 92.6569)">
  <stop stop-color="#DA13EC"/>
  <stop offset="1" stop-color="#B000B8"/>
  </radialGradient>
  <radialGradient id="paint2_radial_607_1716" cx="0" cy="0" r="1" gradientUnits="userSpaceOnUse" gradientTransform="translate(46.3894 159.979) rotate(-32.4712) scale(115.412 124.466)">
  <stop stop-color="#A706C6"/>
  <stop offset="1" stop-color="#6A01AE"/>
  </radialGradient>
  <linearGradient id="paint3_linear_607_1716" x1="-9.98511" y1="-8.74105" x2="56.3673" y2="64.0884" gradientUnits="userSpaceOnUse">
  <stop stop-color="#E102E0"/>
  <stop offset="1" stop-color="#6909A9"/>
  </linearGradient>
  <radialGradient id="paint4_radial_607_1716" cx="0" cy="0" r="1" gradientUnits="userSpaceOnUse" gradientTransform="translate(36.1882 143.259) rotate(-71.7447) scale(80.1404 115.835)">
  <stop stop-color="#A706C6"/>
  <stop offset="1" stop-color="#6A01AE"/>
  </radialGradient>
  <linearGradient id="paint5_linear_607_1716" x1="55.8548" y1="76.2171" x2="78.1425" y2="76.2171" gradientUnits="userSpaceOnUse">
  <stop stop-color="#88D4FF"/>
  <stop offset="1" stop-color="#4DB7F9"/>
  </linearGradient>
  <linearGradient id="paint6_linear_607_1716" x1="49.236" y1="20.5746" x2="78.2362" y2="68.842" gradientUnits="userSpaceOnUse">
  <stop stop-color="#289DFD"/>
  <stop offset="1" stop-color="#0B3DF3"/>
  </linearGradient>
  <linearGradient id="paint7_linear_607_1716" x1="49.236" y1="20.5746" x2="78.2362" y2="68.842" gradientUnits="userSpaceOnUse">
  <stop stop-color="#3086CD"/>
  <stop offset="1" stop-color="#2440A4"/>
  </linearGradient>
  <linearGradient id="paint8_linear_607_1716" x1="49.0364" y1="26.7984" x2="61.4046" y2="75.1491" gradientUnits="userSpaceOnUse">
  <stop stop-color="#C9EEF2"/>
  <stop offset="1" stop-color="#1FC5E4"/>
  </linearGradient>
  <linearGradient id="paint9_linear_607_1716" x1="54.4243" y1="30.3592" x2="83.5694" y2="60.2551" gradientUnits="userSpaceOnUse">
  <stop stop-color="white" stop-opacity="0.69"/>
  <stop offset="1" stop-color="white" stop-opacity="0"/>
  </linearGradient>
  <linearGradient id="paint10_linear_607_1716" x1="53.5473" y1="23.4562" x2="70.7642" y2="58.0916" gradientUnits="userSpaceOnUse">
  <stop stop-color="#0065EA"/>
  <stop offset="1" stop-color="#004DB2"/>
  </linearGradient>
  <linearGradient id="paint11_linear_607_1716" x1="58.2727" y1="49.7495" x2="60.524" y2="33.099" gradientUnits="userSpaceOnUse">
  <stop stop-color="#0159CC"/>
  <stop offset="1" stop-color="white"/>
  </linearGradient>
  <linearGradient id="paint12_linear_607_1716" x1="50043.3" y1="-9030.15" x2="54884.5" y2="54923.2" gradientUnits="userSpaceOnUse">
  <stop stop-color="#CB10DC"/>
  <stop offset="1" stop-color="#6013A7"/>
  </linearGradient>
  <radialGradient id="paint13_radial_607_1716" cx="0" cy="0" r="1" gradientUnits="userSpaceOnUse" gradientTransform="translate(180.918 140.449) rotate(-32.3764) scale(88.0631 89.1449)">
  <stop stop-color="#A706C6"/>
  <stop offset="1" stop-color="#6A01AE"/>
  </radialGradient>
  <radialGradient id="paint14_radial_607_1716" cx="0" cy="0" r="1" gradientUnits="userSpaceOnUse" gradientTransform="translate(184.157 -35.1993) rotate(74.5493) scale(128.633 122.963)">
  <stop stop-color="#DA13EC"/>
  <stop offset="1" stop-color="#B000B8"/>
  </radialGradient>
  <linearGradient id="paint15_linear_607_1716" x1="119.334" y1="3.18725" x2="150.529" y2="8.92655" gradientUnits="userSpaceOnUse">
  <stop stop-color="#E102E0"/>
  <stop offset="1" stop-color="#6909A9"/>
  </linearGradient>
  <linearGradient id="paint16_linear_607_1716" x1="246.115" y1="-7.89165" x2="206.86" y2="5.09405" gradientUnits="userSpaceOnUse">
  <stop stop-color="#E102E0"/>
  <stop offset="1" stop-color="#6909A9"/>
  </linearGradient>
  <radialGradient id="paint17_radial_607_1716" cx="0" cy="0" r="1" gradientUnits="userSpaceOnUse" gradientTransform="translate(164.305 142.967) rotate(-91.2734) scale(71.526 148.924)">
  <stop stop-color="#A706C6"/>
  <stop offset="1" stop-color="#6A01AE"/>
  </radialGradient>
  <linearGradient id="paint18_linear_607_1716" x1="170.059" y1="76.9438" x2="195.787" y2="76.9438" gradientUnits="userSpaceOnUse">
  <stop stop-color="#FF82A8"/>
  <stop offset="1" stop-color="#FF33A4"/>
  </linearGradient>
  <linearGradient id="paint19_linear_607_1716" x1="165.541" y1="71.4048" x2="193.746" y2="71.4048" gradientUnits="userSpaceOnUse">
  <stop stop-color="#E60086"/>
  <stop offset="1" stop-color="#D10092"/>
  </linearGradient>
  <linearGradient id="paint20_linear_607_1716" x1="171.566" y1="17.6864" x2="195.944" y2="67.2239" gradientUnits="userSpaceOnUse">
  <stop stop-color="#A000A8"/>
  <stop offset="0.701009" stop-color="#4D0073"/>
  </linearGradient>
  <linearGradient id="paint21_linear_607_1716" x1="185.941" y1="31.7587" x2="189.619" y2="66.2999" gradientUnits="userSpaceOnUse">
  <stop stop-color="#5D006C"/>
  <stop offset="1" stop-color="#380054"/>
  </linearGradient>
  <linearGradient id="paint22_linear_607_1716" x1="180.476" y1="25.9019" x2="198.638" y2="61.4415" gradientUnits="userSpaceOnUse">
  <stop stop-color="#FF6996"/>
  <stop offset="1" stop-color="#E82C94"/>
  </linearGradient>
  <linearGradient id="paint23_linear_607_1716" x1="157.686" y1="10.7043" x2="204.84" y2="59.6313" gradientUnits="userSpaceOnUse">
  <stop stop-color="white" stop-opacity="0.69"/>
  <stop offset="1" stop-color="white" stop-opacity="0"/>
  </linearGradient>
  <linearGradient id="paint24_linear_607_1716" x1="82440.4" y1="-218.655" x2="83965" y2="50613.3" gradientUnits="userSpaceOnUse">
  <stop stop-color="#CB10DC"/>
  <stop offset="1" stop-color="#6013A7"/>
  </linearGradient>
  <radialGradient id="paint25_radial_607_1716" cx="0" cy="0" r="1" gradientUnits="userSpaceOnUse" gradientTransform="translate(304.612 -53.4375) rotate(81.7195) scale(174.607 92.6378)">
  <stop stop-color="#DA13EC"/>
  <stop offset="1" stop-color="#B000B8"/>
  </radialGradient>
  <radialGradient id="paint26_radial_607_1716" cx="0" cy="0" r="1" gradientUnits="userSpaceOnUse" gradientTransform="translate(300.232 123.042) rotate(-122.829) scale(78.8087 85.9659)">
  <stop stop-color="#A706C6"/>
  <stop offset="1" stop-color="#6A01AE"/>
  </radialGradient>
  <linearGradient id="paint27_linear_607_1716" x1="378.329" y1="-10.9695" x2="321.47" y2="69.8719" gradientUnits="userSpaceOnUse">
  <stop stop-color="#E102E0"/>
  <stop offset="1" stop-color="#6909A9"/>
  </linearGradient>
  <radialGradient id="paint28_radial_607_1716" cx="0" cy="0" r="1" gradientUnits="userSpaceOnUse" gradientTransform="translate(306.227 135.323) rotate(-84.4328) scale(68.749 96.2534)">
  <stop stop-color="#A706C6"/>
  <stop offset="1" stop-color="#6A01AE"/>
  </radialGradient>
  <radialGradient id="paint29_radial_607_1716" cx="0" cy="0" r="1" gradientUnits="userSpaceOnUse" gradientTransform="translate(275.309 -9.38259) scale(180.08 202.583)">
  <stop stop-color="#FF6BCB"/>
  <stop offset="1" stop-color="#6D65FF"/>
  </radialGradient>
  </defs>
  </svg>