<?xml version="1.0" encoding="UTF-8"?>
<svg width="423px" height="256px" viewBox="0 0 423 256" version="1.1" xmlns="http://www.w3.org/2000/svg" xmlns:xlink="http://www.w3.org/1999/xlink">
    <!-- Generator: Sketch 63.1 (92452) - https://sketch.com -->
    <title>sponsor-coingecko</title>
    <desc>Created with Sketch.</desc>
    <defs>
        <radialGradient cx="60.3750666%" cy="48.0760777%" fx="60.3750666%" fy="48.0760777%" r="0.11258241%" gradientTransform="translate(0.603751,0.480761),scale(0.984085,1.000000),rotate(1.369050),translate(-0.603751,-0.480761)" id="radialGradient-1">
            <stop stop-color="#57327A" offset="0%"></stop>
            <stop stop-color="#361D4F" offset="100%"></stop>
        </radialGradient>
        <linearGradient x1="-2.22045048%" y1="49.4384635%" x2="75.540919%" y2="50.0068496%" id="linearGradient-2">
            <stop stop-color="#FFB000" offset="0%"></stop>
            <stop stop-color="#FFBB2A" offset="33.7965%"></stop>
            <stop stop-color="#F19D00" offset="100%"></stop>
        </linearGradient>
        <linearGradient x1="-2.28018856%" y1="49.2505974%" x2="53.6264577%" y2="51.6074904%" id="linearGradient-3">
            <stop stop-color="#FFB000" offset="0%"></stop>
            <stop stop-color="#FFBB2A" offset="33.7965%"></stop>
            <stop stop-color="#F19D00" offset="100%"></stop>
        </linearGradient>
        <linearGradient x1="-6.88874023%" y1="47.4094879%" x2="81.2992971%" y2="47.4094879%" id="linearGradient-4">
            <stop stop-color="#F39F20" offset="0%"></stop>
            <stop stop-color="#FFBC2B" offset="28.4206%"></stop>
            <stop stop-color="#CB7B00" offset="100%"></stop>
        </linearGradient>
        <linearGradient x1="-6.96170646%" y1="49.2173806%" x2="90.93211%" y2="49.3299802%" id="linearGradient-5">
            <stop stop-color="#E48A00" offset="0%"></stop>
            <stop stop-color="#FC9700" offset="33.9678%"></stop>
            <stop stop-color="#CB7B00" offset="100%"></stop>
        </linearGradient>
        <linearGradient x1="50.0504785%" y1="2.19015398%" x2="49.8337629%" y2="84.5363506%" id="linearGradient-6">
            <stop stop-color="#F2BE24" offset="2%"></stop>
            <stop stop-color="#D75311" offset="98%"></stop>
        </linearGradient>
        <radialGradient cx="76340.2747%" cy="209874.042%" fx="76340.2747%" fy="209874.042%" r="0.974057219%" gradientTransform="translate(763.402747,2098.740415),scale(1.000000,0.585708),rotate(1.369050),translate(-763.402747,-2098.740415)" id="radialGradient-7">
            <stop stop-color="#57327A" offset="0%"></stop>
            <stop stop-color="#361D4F" offset="100%"></stop>
        </radialGradient>
        <radialGradient cx="87612.7338%" cy="224011.436%" fx="87612.7338%" fy="224011.436%" r="9.74384148%" gradientTransform="translate(876.127338,2240.114364),scale(0.307833,1.000000),rotate(1.369050),translate(-876.127338,-2240.114364)" id="radialGradient-8">
            <stop stop-color="#57327A" offset="0%"></stop>
            <stop stop-color="#361D4F" offset="100%"></stop>
        </radialGradient>
        <linearGradient x1="47.6240336%" y1="51.0951541%" x2="50.2169825%" y2="48.7625606%" id="linearGradient-9">
            <stop stop-color="#FFAA00" offset="0%"></stop>
            <stop stop-color="#FFCA44" offset="100%"></stop>
        </linearGradient>
        <linearGradient x1="-1.00890845%" y1="71.4543927%" x2="76.9258213%" y2="13.3519119%" id="linearGradient-10">
            <stop stop-color="#F2A840" offset="36%"></stop>
            <stop stop-color="#FFCA44" offset="100%"></stop>
        </linearGradient>
        <radialGradient cx="26.8459217%" cy="67.1643778%" fx="26.8459217%" fy="67.1643778%" r="143.471675%" gradientTransform="translate(0.268459,0.671644),scale(1.000000,0.298205),rotate(1.369050),translate(-0.268459,-0.671644)" id="radialGradient-11">
            <stop stop-color="#6C5099" offset="2%"></stop>
            <stop stop-color="#35214A" offset="100%"></stop>
        </radialGradient>
        <linearGradient x1="47.8503217%" y1="59.8190267%" x2="44.4856828%" y2="96.7065169%" id="linearGradient-12">
            <stop stop-color="#9A00EC" offset="0%"></stop>
            <stop stop-color="#2F00BA" offset="100%"></stop>
        </linearGradient>
        <linearGradient x1="51.734398%" y1="100.50978%" x2="49.0999861%" y2="35.4989137%" id="linearGradient-13">
            <stop stop-color="#FC0585" offset="0%"></stop>
            <stop stop-color="#6C00BA" offset="100%"></stop>
        </linearGradient>
        <linearGradient x1="37.3864%" y1="34.9343065%" x2="66.5448483%" y2="53.8774781%" id="linearGradient-14">
            <stop stop-color="#361D4F" offset="0%"></stop>
            <stop stop-color="#4E306B" offset="52%"></stop>
            <stop stop-color="#361D4F" offset="100%"></stop>
        </linearGradient>
        <linearGradient x1="44.8948947%" y1="341.851311%" x2="48.629147%" y2="97.8985461%" id="linearGradient-15">
            <stop stop-color="#FFC926" offset="0%"></stop>
            <stop stop-color="#EB6A00" offset="100%"></stop>
        </linearGradient>
        <linearGradient x1="119633.28%" y1="106307.882%" x2="120526.497%" y2="106967.864%" id="linearGradient-16">
            <stop stop-color="#FFBC0F" offset="0%"></stop>
            <stop stop-color="#FFCA44" offset="100%"></stop>
        </linearGradient>
        <linearGradient x1="71.2261206%" y1="110.490215%" x2="40.2784389%" y2="18.2367378%" id="linearGradient-17">
            <stop stop-color="#FFC926" offset="0%"></stop>
            <stop stop-color="#EB7D00" offset="100%"></stop>
        </linearGradient>
        <linearGradient x1="105257.35%" y1="108774.101%" x2="106540.182%" y2="109708.893%" id="linearGradient-18">
            <stop stop-color="#FFBC0F" offset="0%"></stop>
            <stop stop-color="#FFCA44" offset="100%"></stop>
        </linearGradient>
        <linearGradient x1="167971.123%" y1="94463.7585%" x2="170644.549%" y2="97066.0188%" id="linearGradient-19">
            <stop stop-color="#FFB413" offset="0%"></stop>
            <stop stop-color="#E74100" offset="100%"></stop>
        </linearGradient>
        <linearGradient x1="36.4526224%" y1="329.951269%" x2="93.971423%" y2="44.005149%" id="linearGradient-20">
            <stop stop-color="#FFC926" offset="0%"></stop>
            <stop stop-color="#EB7D00" offset="100%"></stop>
        </linearGradient>
        <linearGradient x1="-9.41602426%" y1="286.627229%" x2="45.0713118%" y2="27.5079153%" id="linearGradient-21">
            <stop stop-color="#FFC926" offset="0%"></stop>
            <stop stop-color="#EB7D00" offset="100%"></stop>
        </linearGradient>
        <linearGradient x1="128.307417%" y1="109.506044%" x2="31.0174537%" y2="-61.6773616%" id="linearGradient-22">
            <stop stop-color="#FFC926" offset="0%"></stop>
            <stop stop-color="#EB7D00" offset="100%"></stop>
        </linearGradient>
        <linearGradient x1="6.94714252%" y1="53.3323499%" x2="81.8658984%" y2="47.1328423%" id="linearGradient-23">
            <stop stop-color="#FFC71D" offset="0%"></stop>
            <stop stop-color="#FFD34F" offset="100%"></stop>
        </linearGradient>
        <linearGradient x1="50.955551%" y1="-0.0843233927%" x2="48.7464732%" y2="100.160804%" id="linearGradient-24">
            <stop stop-color="#30203F" offset="0%"></stop>
            <stop stop-color="#514062" offset="100%"></stop>
        </linearGradient>
        <linearGradient x1="51.1842773%" y1="-0.315765747%" x2="49.1660403%" y2="100.421985%" id="linearGradient-25">
            <stop stop-color="#21162D" offset="0%"></stop>
            <stop stop-color="#3C2C4D" offset="100%"></stop>
        </linearGradient>
        <linearGradient x1="58.5210657%" y1="81.2215043%" x2="37.9797984%" y2="-25.2479503%" id="linearGradient-26">
            <stop stop-color="#F88A00" offset="0%"></stop>
            <stop stop-color="#FF9F2A" offset="100%"></stop>
        </linearGradient>
        <radialGradient cx="76.0484715%" cy="17.2668857%" fx="76.0484715%" fy="17.2668857%" r="76.7082594%" gradientTransform="translate(0.760485,0.172669),scale(0.964829,1.000000),rotate(0.259049),translate(-0.760485,-0.172669)" id="radialGradient-27">
            <stop stop-color="#FFC926" offset="0%"></stop>
            <stop stop-color="#EB7D00" offset="100%"></stop>
        </radialGradient>
        <radialGradient cx="116792.52%" cy="196333.584%" fx="116792.52%" fy="196333.584%" r="5629.54911%" gradientTransform="translate(1167.925201,1963.335840),scale(1.000000,0.854666),rotate(0.259052),translate(-1167.925201,-1963.335840)" id="radialGradient-28">
            <stop stop-color="#57327A" offset="0%"></stop>
            <stop stop-color="#361D4F" offset="100%"></stop>
        </radialGradient>
        <radialGradient cx="819684.655%" cy="136004.819%" fx="819684.655%" fy="136004.819%" r="3439.91763%" gradientTransform="translate(8196.846552,1360.048190),scale(1.000000,0.191844),rotate(-44.989500),translate(-8196.846552,-1360.048190)" id="radialGradient-29">
            <stop stop-color="#57327A" offset="0%"></stop>
            <stop stop-color="#361D4F" offset="100%"></stop>
        </radialGradient>
        <linearGradient x1="74.762319%" y1="71.6812362%" x2="35.6176032%" y2="37.527354%" id="linearGradient-30">
            <stop stop-color="#EE9000" offset="0%"></stop>
            <stop stop-color="#FCC921" offset="100%"></stop>
        </linearGradient>
        <linearGradient x1="114349.974%" y1="195858.063%" x2="115297.377%" y2="196624.636%" id="linearGradient-31">
            <stop stop-color="#9A00EC" offset="0%"></stop>
            <stop stop-color="#2F00BA" offset="100%"></stop>
        </linearGradient>
        <radialGradient cx="118603.457%" cy="199364.705%" fx="118603.457%" fy="199364.705%" r="2481.30844%" gradientTransform="translate(1186.034573,1993.647050),scale(0.419207,1.000000),rotate(0.259042),translate(-1186.034573,-1993.647050)" id="radialGradient-32">
            <stop stop-color="#57327A" offset="0%"></stop>
            <stop stop-color="#361D4F" offset="100%"></stop>
        </radialGradient>
    </defs>
    <g id="Page-1" stroke="none" stroke-width="1" fill="none" fill-rule="evenodd">
        <g id="sponsor-coingecko">
            <g id="sponsor-2">
                <g id="sponsor">
                    <path d="M406.513,178.505 C406.09,174.809 405.668,171.113 400.887,171.274 C389.881,171.664 377.943,179.604 377.188,189.108 C377.048,190.398 376.539,191.62 375.722,192.629 C374.905,193.637 373.814,194.388 372.582,194.792 C360.915,198.841 342.045,198.273 346.23,187.421 C351.28,174.294 350.741,163.91 350.362,156.604 C350.107,151.691 349.924,148.17 351.561,146.142 C354.263,142.792 356.133,138.822 357.044,134.461 C346.949,132.9 330.643,131.616 285.684,131.616 C266.766,131.616 249.703,132.214 232.845,132.804 C216.385,133.38 200.121,133.949 182.515,133.949 C171.601,133.945 160.756,132.601 149.925,131.26 C139.106,129.919 128.301,128.581 117.454,128.581 C103.283,128.581 91.6519,131.251 80.4916,134.566 C78.2653,142.597 77.9222,149.03 77.6591,153.962 C77.3025,160.648 77.0931,164.575 72.5387,165.984 C20.8089,181.95 40.1325,258.554 137.579,255.616 C166.99,254.737 184.797,245.139 192.83,231.517 C195.215,227.479 202.599,227.182 205.553,229.649 C241.135,259.343 330.27,260.382 332.391,209.022 C332.429,208.08 332.663,207.156 333.079,206.31 C333.495,205.464 334.083,204.714 334.807,204.109 C337.513,201.664 340.703,202.589 345.237,203.905 C352.156,205.912 362.206,208.827 378.443,202.058 C379.427,201.648 380.494,201.477 381.557,201.56 C382.62,201.643 383.648,201.977 384.556,202.535 C393.895,208.319 412.779,203.075 419.424,195.894 C428.308,186.298 418.378,181.652 413.033,184.207 C411.532,184.913 410.132,185.497 408.15,184.251 C407.01,182.862 406.761,180.683 406.513,178.505 Z" id="Path" fill="#7451FB"></path>
                    <path d="M103.061,130.204 C112.217,127.819 121.938,126.105 133.289,126.105 C144.136,126.105 154.941,127.444 165.76,128.784 C176.591,130.126 187.436,131.47 198.351,131.474 C215.956,131.474 232.221,130.905 248.68,130.328 C265.538,129.738 282.601,129.141 301.519,129.141 C358.909,129.141 369.611,131.233 380.303,133.323 C383.814,134.01 387.325,134.696 392.487,135.308 C391.483,132.966 390.173,130.603 388.54,128.248 C387.962,127.409 387.613,126.459 387.522,125.477 C387.43,124.495 387.599,123.509 388.013,122.599 C390.047,118.307 385.23,114.472 380.273,115.754 C379.329,115.988 378.337,116.02 377.374,115.849 C376.412,115.678 375.505,115.308 374.727,114.768 C374.212,114.418 373.69,114.093 373.18,113.775 C370.833,112.313 368.722,110.999 368.682,108.029 C367.967,53.8008 259.914,58.6833 244.663,66.8225 C237.781,70.4428 232.672,74.7335 229.225,79.4183 C228.709,80.1307 228.027,80.7325 227.225,81.1817 C226.424,81.6309 225.522,81.9168 224.583,82.0193 C223.644,82.1218 222.691,82.0386 221.79,81.7754 C220.888,81.5122 220.06,81.0753 219.364,80.4953 C188.12,54.4792 113.596,58.9953 100.803,65.6391 C68.914,81.9358 73.1337,111.471 103.061,130.204 Z" id="Path" fill="#9073FF"></path>
                    <path d="M64.5152,158.748 C64.3203,159.423 64.0964,159.811 63.8462,159.805 C61.3977,159.746 57.3095,162.456 56.4473,152.145 C57.3495,155.546 63.599,152.566 64.5152,158.748 Z" id="Path" fill="url(#radialGradient-1)" fill-rule="nonzero"></path>
                    <path d="M172.926,73.5203 C172.138,74.2322 171.275,74.8561 170.352,75.3811 L170.352,75.3811 C169.826,75.6747 169.279,75.9276 168.715,76.1378 L168.715,76.1378 C168.218,76.3314 167.706,76.4865 167.184,76.6018 C165.616,77.1187 165.083,76.9629 114.424,76.9503 C84.257,76.9447 77.0007,80.5265 70.1435,65.1628 C63.7587,49.4886 68.2337,22.3612 84.9533,22.3674 C170.411,22.407 166.744,21.6935 170.823,24.2319 C183.716,32.0952 184.487,63.0495 172.926,73.5203 Z" id="Path" fill="url(#linearGradient-2)" fill-rule="nonzero"></path>
                    <path d="M110.147,57.4352 C109.406,57.5365 108.653,57.6413 107.888,57.7497 C98.471,59.0881 89.6969,59.8304 82.5896,58.6071 C82.6116,56.2464 82.596,53.1805 82.5766,49.3551 C82.5583,45.7526 82.5366,41.4764 82.5396,36.4812 C82.5375,31.7514 75.4514,44.5035 78.7604,57.6983 C73.52,56.0621 69.5092,52.9554 67.2783,47.6415 C66.705,60.78 71.6956,76.8053 84.835,76.9673 C162.921,77.9126 165.524,77.1433 167.101,76.6266 C169.262,76.0841 171.256,75.017 172.906,73.5198 C184.621,62.9275 183.905,30.7853 169.625,23.7383 C164.335,27.6328 164.433,33.2194 164.525,38.438 C164.598,42.5838 164.666,46.4975 162.026,49.1459 C161.598,49.5751 161.163,49.9632 160.715,50.3149 C160.823,45.5486 160.366,40.373 158.746,36.0313 C158.094,34.2839 157.964,43.5822 157.974,51.9586 C154.443,53.5185 149.728,53.8267 141.767,54.3473 C134.683,54.8105 125.029,55.4417 111.352,57.2722 C111.594,50.7755 111.64,41.7083 111.145,36.7178 C110.627,31.8784 109.879,46.6268 110.147,57.4352 Z" id="Path" fill="#C9431D" fill-rule="nonzero" opacity="0.2"></path>
                    <path d="M307.921,79.2763 C299.323,89.6033 295.008,86.1205 261.465,77.719 C214.181,65.9134 206.157,67.9569 204.06,50.5523 C201.973,33.8721 212.912,9.3848 228.857,13.3601 L305.721,32.5427 C323.408,36.9531 317.345,70.2923 307.921,79.2763 Z" id="Path" fill="url(#linearGradient-3)" fill-rule="nonzero"></path>
                    <path d="M307.921,79.2764 C305.454,82.2395 302.139,84.3956 301.33,84.573 C300.302,85.0672 299.214,85.4258 298.094,85.64 L298.023,85.6383 L297.215,85.7621 C294.148,86.1448 294.973,86.0573 261.527,77.7028 C214.243,65.8972 206.219,67.9406 204.123,50.5359 C210.715,49.2808 227.999,49.2648 236.172,49.5853 C280.835,51.359 261.678,24.2659 285.406,30.3138 C306.646,35.73 324.747,63.2181 307.921,79.2764 Z" id="Path" fill="#C9431D" fill-rule="nonzero" opacity="0.2"></path>
                    <path d="M180.718,203.896 C180.718,203.896 180.717,203.95 180.716,203.977 C179.049,213.888 174.167,223.973 164.216,223.968 C77.9005,223.926 83.4983,224.265 80.3777,223.153 C61.5998,216.491 63.2087,169.374 85.0067,169.385 C170.259,169.411 165.789,169.018 168.959,170.292 C168.982,170.285 169.007,170.286 169.03,170.294 C171.797,171.486 174.155,173.46 175.815,175.972 C176.04,176.3 176.385,176.835 176.385,176.835 C180.009,182.68 182.389,192.706 180.718,203.896 Z" id="Path" fill="url(#linearGradient-4)" fill-rule="nonzero"></path>
                    <path d="M82.7146,183.386 C82.7329,180.373 78.1808,186.031 78.1764968,196.689 C78.1721,207.347 82.7406,214.099 82.7121,210.799 L82.7146,183.386 Z M94.0862,183.067 C94.0988,180.672 91.5241,185.894 91.5169848,196.668 C91.5098,207.442 94.0613,213.663 94.0775,211.115 L94.0862,183.067 Z M160.729,192.555 C160.185,184.281 158.316,181.312 158.273,183.082 C158.397,194.761 158.318,188.34 158.265,211.138 C158.28,214.214 161.556,205.495 160.729,192.555 Z M111.692,197.249 C111.735,179.368 110.671,181.229 110.452,187.768 C109.57,213.095 111.702,221.148 111.692,197.249 L111.692,197.249 Z" id="Shape" fill="#B55A40" fill-rule="nonzero" opacity="0.2"></path>
                    <path d="M181.242,195.486 C181.289,184.168 175.981,169.432 164.224,169.41 L93.1259,169.392 C81.0156,189.765 154.013,190.776 153.705,209.286 C153.476,222.951 87.7389,220.084 74.5091,219.213 C80.479,225.686 77.2746,223.964 164.207,223.994 C174.15,224 179.15,213.792 180.708,204.003 C180.708,204.003 180.709,203.949 180.709,203.923 C181.132,201.131 181.31,198.308 181.242,195.486 L181.242,195.486 Z" id="Path" fill="#B55A40" fill-rule="nonzero" opacity="0.4"></path>
                    <path d="M176.376,176.862 C176.376,176.862 176.031,176.326 175.806,175.999 C175.16,174.625 172.061,171.484 169.022,170.32 C168.999,170.312 168.974,170.312 168.95,170.319 C165.824,169.064 168.57,169.415 107.547,169.423 C107.733,173.816 109.153,178.067 111.644,181.69 C123.369,186.021 148.402,190.615 160.729,192.582 C174.345,196.368 179.435,199.994 178.593,212.035 C179.586,209.455 180.295,206.773 180.707,204.039 C180.707,204.039 180.708,203.985 180.709,203.958 C182.327,193.116 180.27,183.044 176.376,176.862 Z" id="Path" fill="#B55A40" fill-rule="nonzero" opacity="0.4"></path>
                    <path d="M292.737,232.404 L215.865,213.212 C193.094,207.536 206.286,154.599 229.084,160.284 L305.947,179.476 C327.998,185.001 314.762,237.893 292.737,232.404 Z" id="Path" fill="url(#linearGradient-5)" fill-rule="nonzero"></path>
                    <path d="M222.149,172.601 C211.032,182.832 215.104,205.514 216.581,199.827 C222.35,176.906 224.498,170.466 222.149,172.601 Z M285.111,199.551 C286.896,191.073 285.863,186.784 285.371,188.668 C281.889,201.558 283.553,195.527 278.357,215.815 C277.61,218.64 282.529,211.819 285.111,199.551 Z M296.276,203.037 C298.281,193.947 297.124,189.235 296.611,191.252 C293.173,204.921 294.767,198.825 289.827,218.458 C289.106,221.329 293.968,214.301 296.276,203.037 Z" id="Shape" fill="#B55A40" fill-rule="nonzero" opacity="0.2"></path>
                    <path d="M292.739,232.404 C207.147,211.046 211.936,213.431 207.941,207.775 C198.552,194.72 207.05,163.844 222.749,160.187 C227.198,159.185 222.873,158.706 305.949,179.476 C328.018,184.993 314.737,237.892 292.739,232.404 Z" id="Path" fill="#B55A40" fill-rule="nonzero" opacity="0.4"></path>
                    <path d="M292.739,232.404 C207.147,211.046 211.936,213.432 207.941,207.775 C331.371,250.065 317.784,197.534 238.925,195.649 C208.445,194.921 208.727,201.052 205.366,202.536 C202.035,192.273 205.074,177.334 211.911,168.082 C221.971,154.58 223.3,158.814 305.949,179.476 C328.018,184.993 314.737,237.892 292.739,232.404 Z" id="Path" fill="#B55A40" fill-rule="nonzero" opacity="0.4"></path>
                    <path d="M56.4734,144.724 C57.4866,133.009 62.2353,136.332 64.335,136.391 C66.2384,136.436 65.7588,159.868 63.8465,159.823 C61.2909,159.762 56.8856,162.643 56.3216,150.702 L56.4734,144.724 Z" id="Path" fill="#4E2C6E" fill-rule="nonzero"></path>
                    <path d="M80.4297,130.401 L79.594,165.367 C79.4548,166.329 69.3803,165.123 64.3671,163.885 C61.1224,163.101 59.4692,163.438 59.7789,147.485 C60.098,131.14 61.7926,132.065 65.0245,131.517 C70.0789,130.654 80.3649,129.747 80.4297,130.401 Z" id="Path" fill="url(#linearGradient-6)" fill-rule="nonzero"></path>
                    <path d="M56.3319,150.666 C46.2988,150.346 38.0839,159.618 25.9578,155.216 C15.1346,151.291 17.8583,139.456 19.7226,126.545 C20.2804,122.66 26.3472,123.207 26.0826,127.171 C25.5558,134.248 24.4968,139.65 24.4959,143.432 C24.4179,158.29 47.3329,144.488 56.4743,144.706 L56.3319,150.666 Z" id="Path" fill="#4E2C6E" fill-rule="nonzero"></path>
                    <path d="M24.5973,142.174 L24.5063,142.244 C22.7568,143.99 19.611,143.182 18.1397,141.144 C18.1538,138.381 18.3602,135.622 18.7573,132.888 C21.0553,130.261 23.7723,129.557 25.5009,132.799 C25.0397,135.906 24.7381,139.036 24.5973,142.174 L24.5973,142.174 Z" id="Path" fill="url(#radialGradient-7)" fill-rule="nonzero"></path>
                    <path d="M56.3331,150.666 C46.3,150.346 38.0851,159.618 25.959,155.216 C20.6401,153.3 18.6077,149.675 18.1659,144.595 C18.2721,144.776 18.3662,144.963 18.4475,145.156 C19.0915,150.009 23.3006,154.213 29.6183,154.364 C38.4202,154.575 42.663,151.01 50.3053,149.235 C51.5042,148.954 52.6239,148.405 53.5795,147.629 C54.5352,146.853 55.3019,145.869 55.8217,144.753 C56.2148,144.762 56.1166,144.76 56.5276,144.77 C56.3595,146.731 56.2945,148.699 56.3331,150.666 L56.3331,150.666 Z" id="Path" fill="url(#radialGradient-8)" fill-rule="nonzero"></path>
                    <path d="M335.68,139.648 C334.264,152.901 310.303,179.786 301.26,180.669 C238.244,186.946 174.793,187.563 111.667,182.513 C96.2109,181.25 74.8258,163.965 73.1676,162.638 C69.8348,159.93 68.7647,156.069 68.3763,152.867 C66.4269,131.836 66.418,110.669 68.3496,89.6358 C68.8044,85.9451 70.0613,82.3629 73.1508,79.9154 C74.8009,78.5868 96.19,61.2876 111.643,60.0297 C195.448,53.2703 299.878,58.5377 307.347,64.4027 C317.941,72.7028 334.079,91.051 335.731,102.723 C336.352,107.405 336.806,129.187 335.68,139.648 Z" id="Path" fill="url(#linearGradient-9)" fill-rule="nonzero"></path>
                    <path d="M328.322,155.704 C332.321,149.818 335.215,143.998 335.68,139.648 C336.366,133.271 336.466,122.687 336.298,114.335 C336.192,110.076 335.989,106.101 335.689,103.008 C335.321,99.412 333.401,95.028 330.642,90.4856 C325.287,81.7376 316.785,72.417 309.816,66.4333 C308.548,65.392 307.364,64.5121 306.307,63.8296 C305.502,63.4876 304.375,63.149 302.95,62.8161 C302.747,63.0254 302.543,63.2363 302.336,63.4487 C298.185,67.7278 293.443,72.6159 293.42,77.3742 C293.406,82.8171 294.672,87.1598 296.069,91.952 C297.798,97.881 299.727,104.497 299.68,114.736 C299.431,170.048 267.185,170.234 177.068,169.869 C139.787,169.702 100.597,165.648 68.9954,156.032 C69.6631,158.387 70.8843,160.783 73.1674,162.638 L73.2406,162.697 C75.3711,164.405 96.4082,181.266 111.666,182.513 C170.246,187.199 229.107,187.005 287.639,181.937 C292.238,181.532 296.761,181.111 301.187,180.677 C301.211,180.674 301.236,180.672 301.26,180.669 C302.39,180.559 303.754,180.042 305.277,179.197 C311.94,175.498 321.663,165.508 328.322,155.704 Z" id="Path" fill="#B55A40" fill-rule="nonzero" opacity="0.3"></path>
                    <path d="M151.419,57.5828 C114.456,65.1129 93.9875,73.4306 66.8793,122.396 C66.7689,89.6071 68.4675,83.6304 73.1166,79.8969 C101.579,56.946 111.61,59.2332 151.419,57.5828 Z" id="Path" fill="url(#linearGradient-10)" fill-rule="nonzero"></path>
                    <path d="M298.615,146.935 C292.434,190.786 103.969,163.741 103.516,163.614 C79.6442,159.11 79.4407,155.278 78.669,151.281 L78.67,151.236 C76.964,136.201 76.8924,106.274 78.682,90.8756 C79.4378,86.9328 79.6446,83.1466 102.657,78.7164 C103.978,78.4619 294.866,53.8851 298.667,95.373 C299.817,108.222 299.875,137.97 298.615,146.935 Z" id="Path" fill="#FFFFFF" fill-rule="nonzero"></path>
                    <path d="M327.179008,101.759 C327.192,92.621 310.42,76.8421 303.362,70.9869 C303.054,70.7164 302.692,70.5125 302.301,70.3884 C301.909,70.2643 301.497,70.2226 301.088,70.2657 C300.68,70.3088 300.285,70.436 299.928,70.6392 C299.571,70.8423 299.26,71.1172 299.015,71.4463 L299.015,71.4463 C292.595,78.2043 304.836,78.1839 306.491,95.319 C307.127,101.646 307.115,140.682 306.456,147.292 C305.798,153.901 302.009,161.295 297.515,166.015 C295.524,168.132 297.832,169.975 298.913,171.118 C300.387,172.682 302.041,172.65 303.282,171.616 C310.288,165.793 327.125,150.03 327.129,140.892 L327.179008,101.759 Z" id="Path" fill="url(#radialGradient-11)" fill-rule="nonzero"></path>
                    <path d="M327.149,140.866 C327.144,150.031 310.307,165.794 303.302,171.59 C302.089,172.598 300.433,172.684 298.933,171.092 C293.09,164.899 300.363,168.122 305.309,152.719 C318.319,145.179 324.004,140.38 327.132,137.442 L327.149,140.866 Z" id="Path" fill="#000000" fill-rule="nonzero" opacity="0.2"></path>
                    <path d="M327.882,104.556 C327.885,101.436 328.139,98.643 326.065,95.25 C319.387,84.3608 307.948,74.8157 303.327,70.9858 C303.018,70.7152 302.657,70.5114 302.266,70.3873 C301.874,70.2632 301.461,70.2214 301.053,70.2646 C300.645,70.3077 300.25,70.4349 299.893,70.638 C299.536,70.8412 299.225,71.116 298.98,71.4452 C301.574,71.7575 324.562,92.317 324.558,102.206 C324.551,106.229 324.544,100.158 324.539,140.419 C324.535,149.95 301.717,170.899 298.914,171.1 C300.378,172.673 302.042,172.632 303.283,171.598 C307.899,167.765 319.356,158.24 326.054,147.358 C328.51,143.375 327.875,144.12 327.882,104.556 Z" id="Path" fill="url(#linearGradient-12)" fill-rule="nonzero"></path>
                    <path d="M328.777,104.577 C328.78,101.457 329.034,98.665 326.961,95.271 C320.283,84.3824 307.949,74.8159 303.329,70.986 C302.761,70.4797 302.02,70.2135 301.26,70.2437 C300.5,70.2739 299.782,70.5981 299.257,71.1479 C299.174,71.2353 323.674,90.6149 323.666,102.184 C323.659,106.208 323.652,100.137 323.647,140.398 C323.642,151.807 299.133,171.347 299.219769,171.447 C299.745,171.994 300.461,172.316 301.218,172.348 C301.975,172.379 302.716,172.117 303.284,171.616 C334.955,145.353 328.772,148.549 328.777,104.577 Z" id="Path" fill="url(#linearGradient-13)" fill-rule="nonzero"></path>
                    <path d="M102.629,78.7696 C94.1428,85.5587 86.0441,94.834 77.5393,108.006 C78.2803,85.2333 76.4017,83.7756 102.629,78.7696 Z" id="Path" fill="#DDDDDD" fill-rule="nonzero" opacity="0.4"></path>
                    <path d="M297.869,91.759 C294.631,87.7202 291.914,83.2907 289.779,78.5747 C293.447,82.2721 296.213,86.7654 297.861,91.705 C297.861,91.705 297.869,91.741 297.869,91.759 Z" id="Path" fill="#000000" fill-rule="nonzero" opacity="0.1"></path>
                    <path d="M335.314,100.746 C333.773,102.739 332.035,104.396 328.812,104.534 C328.753,101.394 328.955,98.565 326.942,95.235 C320.678,85.0178 309.522,75.9263 304.257,71.7592 C304.099,71.6302 301.413,68.7943 299.247,71.1476 C298.063,72.4247 295.424,74.3376 297.534,76.5786 C303.051,82.4339 306.282,90.075 306.64,98.112 C303.265,97.933 300.109,96.427 297.851,91.759 C295.554,84.2475 289.269,76.7209 283.562,73.8575 C281.316,69.5044 279.794,64.8143 279.057,59.9717 C281.163,60.1382 301.368,61.7119 303.409,62.3419 C310.432,64.4231 331.88,86.9306 335.314,100.746 Z" id="Path" fill="#B55A40" fill-rule="nonzero" opacity="0.4"></path>
                    <path d="M323.602,103.301 C317.794,102.945 312.103,101.509 306.822,99.064 C305.15,75.1246 291.898,78.9387 299.006,71.4461 C301.922,71.8019 323.934,92.785 323.602,103.301 Z" id="Path" fill="#000000" fill-rule="nonzero" opacity="0.2"></path>
                    <path d="M328.775,104.613 L323.691,104.841 C323.701,90.1955 300.799,71.6589 299.025,71.4466 C299.27,71.1175 299.581,70.8427 299.938,70.6395 C300.295,70.4363 300.69,70.3092 301.098,70.266 C301.506,70.2229 301.919,70.2647 302.31,70.3888 C302.702,70.5129 303.063,70.7167 303.372,70.9872 C307.992,74.8171 320.179,84.1745 326.866,95.064 C329.025,98.62 328.77,101.073 328.775,104.613 Z" id="Path" fill="#000000" fill-rule="nonzero" opacity="0.2"></path>
                    <path d="M365.826,160.727 C362.2,167.641 372.682,173.149 376.334,166.236 L382.479,150.763 C384.893,146.296 376.057,141.516 373.652,145.983 L365.826,160.727 Z" id="Path" fill="url(#linearGradient-14)" fill-rule="nonzero"></path>
                    <polygon id="Path" fill="url(#linearGradient-15)" fill-rule="nonzero" points="370.875 158.301 377.017 145.233 375.857 142.55 369.509 142.881 366.925 147.755"></polygon>
                    <polygon id="Path" fill="url(#linearGradient-16)" fill-rule="nonzero" points="366.565 138.51 372.494 126.849 382.944 126.563 377.925 137.932"></polygon>
                    <polygon id="Path" fill="url(#linearGradient-17)" fill-rule="nonzero" points="382.944 126.563 383.188 131.71 378.577 142.454 377.925 137.932"></polygon>
                    <polygon id="Path" fill="url(#linearGradient-18)" fill-rule="nonzero" points="390.627 129.482 387.039 132.186 382.225 143.56 386.169 140.901"></polygon>
                    <polygon id="Path" fill="url(#linearGradient-19)" fill-rule="nonzero" points="374.426 160.496 380.466 146.853 391.938 139.349 386.077 154.873"></polygon>
                    <path d="M366.621,159.684 L361.819,147.74 L366.564,138.501 L377.924,137.932 L378.577,142.418 L369.5,142.845 L366.916,147.719 L370.866,158.265 C369.309,157.96 367.355,158.53 366.621,159.684 Z" id="Path" fill="url(#linearGradient-20)" fill-rule="nonzero"></path>
                    <path d="M376.725,164.905 L390.065,158.51 L393.748,149.585 L386.159,140.901 L382.224,143.561 L387.847,149.551 L385.823,154.966 L374.416,160.496 C375.235,160.871 375.906,161.508 376.323,162.306 C376.741,163.104 376.882,164.019 376.725,164.905 Z" id="Path" fill="url(#linearGradient-21)" fill-rule="nonzero"></path>
                    <polygon id="Path" fill="url(#linearGradient-22)" fill-rule="nonzero" points="393.748 149.585 398.058 138.342 390.625 129.482 386.168 140.901"></polygon>
                    <path d="M372.65,166.211 C365.862,176.375 355.877,179.293 347.439,176.561 C337.564,173.365 335.708,166.088 329.179,161.345 C322.879,168.66 320.685,165.8 319.043,164.572 C317.795,163.648 330.782,146.255 331.976,147.16 C333.54,148.315 336.956,149.433 331.98,157.478 C334.261,159.208 336.316,161.219 338.096,163.462 C349.659,177.579 361.747,173.863 368.609,163.557 C370.461,160.91 374.42,163.597 372.65,166.211 Z" id="Path" fill="#4E2C6E" fill-rule="nonzero"></path>
                    <path d="M91.7438,71.1239 L46.1554,145.496 C43.7583,149.275 40.4696,152.201 36.2347,149.077 C-1.65628,121.349 -2.095143,122.876 2.23935,116.596 C47.3725,51.1711 44.302,52.8233 48.7784,54.0747 C89.3233,65.4063 94.9255,65.9426 91.7438,71.1239 Z" id="Path" fill="url(#linearGradient-23)" fill-rule="nonzero"></path>
                    <path d="M85.0369,68.9163 C84.9553,69.3346 39.0692,144.192 37.2107,144.89 C35.7041,145.453 38.0637,146.609 5.14493,123.326 C2.58729,121.477 1.43165,120.824 3.85743,117.341 C51.2306,49.0998 44.4407,54.4899 50.8214,56.4932 C86.16,67.5662 85.5092,66.737 85.0369,68.9163 Z" id="Path" fill="url(#linearGradient-24)" fill-rule="nonzero"></path>
                    <path d="M49.1888,55.9803 C44.8301,54.6691 49.7703,51.1035 3.8045,117.322 C1.45277,120.699 2.41905,121.419 5.092,123.307 C2.11337,120.742 1.23613,123.403 44.8364,59.6405 C47.7267,55.4268 44.56,55.8697 85.0014,68.9155 C85.4663,66.6735 86.9264,67.3074 49.1888,55.9803 Z" id="Path" fill="#D87500" fill-rule="nonzero"></path>
                    <path d="M27.5188,135.18 C24.5419,135.163 27.4327,132.049 37.3143,116.638 L30.2636,112.366 C18.7779,129.804 19.5379,129.053 18.6521,129.076 C15.6214,129.067 18.9363,125.417 28.2973,111.21 L22.7533,107.868 C12.185,123.584 12.2755,124.284 10.9378,123.393 C9.6,122.503 10.3677,122.182 20.7888,106.641 C18.1441,105.067 16.0338,104.328 16.862,102.971 C17.6901,101.613 18.9209,102.868 22.0674,104.767 L31.0122,91.515 C27.1321,89.6346 27.0397,89.7575 26.8304,89.1624 C26.7684,88.9893 26.749,88.8038 26.774,88.6216 C26.7989,88.4394 26.8674,88.2659 26.9736,88.1158 C27.0799,87.9656 27.2207,87.8433 27.3842,87.7592 C27.5478,87.6751 27.7292,87.6317 27.9131,87.6325 C28.2705,87.6411 28.0309,87.5638 32.3366,89.598 L41.2712,76.4 C37.7986,75.0473 36.088,74.7919 36.6494,73.3747 C37.2108,71.9576 38.5211,72.874 42.5883,74.4108 C50.6798,62.4443 51.883,59.612 53.089,61.9029 C53.534,62.7361 53.5909,62.2278 44.7763,75.2678 L50.5876,77.5257 C58.5849,65.3871 59.9513,62.0848 61.2264,64.4757 C61.6714,65.3089 61.7566,64.7387 52.7756,78.3827 L60.1909,81.2422 C68.4003,68.456 69.704,65.1611 71.0057,67.5616 C71.4511,68.377 71.592,67.7187 62.3701,82.09 C71.8489,85.7767 72.9314,85.7489 72.36,87.2105 C71.7886,88.6722 71.3557,88.0807 61.1072,84.0537 L51.6457,98.723 C61.6544,103.433 61.3034,103.156 61.521,103.779 C61.5828,103.951 61.6022,104.136 61.5778,104.317 C61.5533,104.499 61.4857,104.672 61.3805,104.822 C61.2752,104.972 61.1356,105.094 60.9732,105.179 C60.8108,105.264 60.6304,105.308 60.4472,105.309 C60.0451,105.299 60.6653,105.537 50.3921,100.669 L40.5687,115.893 L49.6737,121.377 C49.8853,121.509 50.0485,121.706 50.1388,121.939 C50.229,122.171 50.2415,122.426 50.1743,122.667 C50.1071,122.907 49.9639,123.119 49.7662,123.27 C49.5684,123.422 49.3267,123.506 49.0774,123.509 C48.6306,123.498 49.302,123.836 39.3781,117.823 C27.6805,135.9 28.4128,135.184687 27.5188,135.18 Z M38.558,114.728 L48.2517,99.697 L40.9226,96.223 L31.4979,110.473 L38.558,114.728 Z M29.5324,109.291 L38.81,95.207 L33.0634,92.485 L23.9888,105.93 L29.5324,109.291 Z M49.4782,97.76 L58.8469,83.2307 L51.4048,80.3706 L42.1302,94.329 L49.4782,97.76 Z M40.0803,93.306 L49.2177,79.4778 L43.3798,77.2103 L34.3516,90.585 L40.0803,93.306 Z" id="Shape" fill="url(#linearGradient-25)" fill-rule="nonzero" opacity="0.4"></path>
                    <path d="M91.7431,71.1237 L46.1547,145.496 C43.7576,149.275 40.4689,152.2 36.234,149.077 C-1.65697,121.348 -2.113283,122.858 2.23865,116.596 C-2.200327,123.133 2.555,121.691 36.1576,147.037 C37.7383,148.237 39.8005,147.249 42.9994,142.095 C92.8737,61.9772 90.7959,67.3638 87.7497,65.3776 C92.1437,66.7075 93.1848,68.7888 91.7431,71.1237 Z" id="Path" fill="url(#linearGradient-26)" fill-rule="nonzero" opacity="0.2"></path>
                    <path d="M349.163,77.9108 C340.274,100.802 308.536,99.918 286.909,80.7773 C254.512,52.1517 266.519,9.5129 304.562,15.5453 C334.47,20.4176 358.601,53.7274 349.163,77.9108 Z" id="Path" fill="url(#radialGradient-27)" fill-rule="nonzero"></path>
                    <path d="M349.688,55.8925 C341.902,63.2706 332.634,64.2381 322.09,62.8685 C318.615,67.6047 303.657,64.5828 303.65,56.6699 C303.651,47.2729 320.305,49.9866 322.616,59.1974 C332.417,60.6029 339.852,60.0296 348.353,51.8818 C348.863,53.2173 349.308,54.5542 349.688,55.8925 Z" id="Path" fill="#B55A40" fill-rule="nonzero" opacity="0.2"></path>
                    <path d="M308.335,55.5299 L345.959,10.6511 C347.921,8.2213 351.614,11.1975 349.634,13.6358 L311.993,58.5052 C310.076,60.9093 306.327,58.0033 308.335,55.5299 Z" id="Path" fill="url(#radialGradient-28)" fill-rule="nonzero"></path>
                    <path d="M346.289,65.7995 L341.159,19.0497 C340.808,15.9474 345.52,15.4262 345.863,18.5381 L350.993,65.2879 C351.331,68.3462 346.653,68.9635 346.289,65.7995 Z" id="Path" fill="url(#radialGradient-29)" fill-rule="nonzero"></path>
                    <path d="M353.91,11.6726 L344.572,22.3128 C339.976,27.5676 333.375,24.3073 332.591,19.3441 C331.912,15.1972 334.675,13.3051 343.894,2.7872 C350.245,-4.43734 360.352,4.4055 353.91,11.6726 Z" id="Path" fill="url(#linearGradient-30)" fill-rule="nonzero"></path>
                    <path d="M353.911,11.6728 L344.572,22.313 C339.976,27.5677 333.375,24.3074 332.591,19.3443 C337.333,27.7907 347.698,13.1158 349.741,8.4438 C352.692,1.6833 348.339,-0.23572 345.649,1.1932 C351.907,-2.89533 359.764,5.0622 353.911,11.6728 Z" id="Path" fill="#B55A40" fill-rule="nonzero" opacity="0.2"></path>
                    <path d="M317.717,56.532 C312.801,62.092 301.48,52.0757 306.396,46.5157 C311.312,40.9556 322.634,50.9451 317.717,56.532 Z" id="Path" fill="#7D0ABE" fill-rule="nonzero"></path>
                    <path d="M317.716,56.5323 C315.408,59.2221 311.653,65.9453 304.789,59.8623 C298.361,54.2279 303.479,49.9244 306.396,46.4892 C301.8,51.735 313.113,61.7333 317.716,56.5323 Z" id="Path" fill="url(#linearGradient-31)" fill-rule="nonzero"></path>
                    <path d="M317.718,56.5319 C315.409,59.2216 311.654,65.9449 304.79,59.8619 C303.82,59.0261 303.032,58 302.475,56.8471 C303.566,57.3636 304.784,57.5531 305.981,57.3929 C307.178,57.2327 308.302,56.7296 309.22,55.9443 C312.003,58.0851 315.558,58.9569 317.718,56.5319 Z" id="Path" fill="url(#radialGradient-32)" fill-rule="nonzero" opacity="0.3"></path>
                </g>
            </g>
            <g id="logo-coingecko" transform="translate(93.000000, 96.000000)" fill="#000000">
                <path d="M31.5533742,3.20061479 C30.0528304,2.9331284 28.5005438,2.9331284 27,3.20061479 L27,3.35420374 C28.4832961,3.64585019 29.8976018,3.94785094 31.2946597,4.34821766 C32.5192414,4.70198997 33.6920802,5.16965971 34.8821667,5.63560373 L34.8821667,5.63732945 C35.0373953,5.69945532 35.192624,5.76158119 35.3478527,5.82370706 C36.6931678,6.35005123 38.0729781,6.90573262 39.2630646,7.76341477 C40.453151,8.62627407 41.5052564,9.68068813 42.3503902,10.883514 C43.1955241,12.0725341 43.9544198,13.3081486 44.6615726,14.5851804 C45.3169825,15.8604864 45.9034019,17.1789354 46.4035832,18.5301731 C47.4556886,21.2153913 48.1283461,24.0386669 48.6285274,27 L48.783756,27 C49.2666896,24.0127811 48.9217371,20.8806018 47.9386222,17.9710403 C47.4211933,16.5248881 46.7312881,15.1443132 45.9034019,13.8552014 C45.0927633,12.5540096 44.1096484,11.3684409 42.9885525,10.3261069 C41.8847042,9.26824138 40.7291131,8.30011325 39.5735219,7.35441946 C39.4355408,7.23879631 39.2803122,7.12144745 39.1423311,7.00409858 L39.1423311,7.00237286 C38.124721,6.16539934 37.0726156,5.30944292 35.8997768,4.658847 C34.5372141,3.93404519 33.0711656,3.44221539 31.5533742,3.20061479 Z" id="Path" fill-rule="nonzero"></path>
                <path d="M51.9994021,25.3883926 C52.0344612,30.4316339 50.5269185,35.3684125 47.6871286,39.5736893 C44.8473387,43.7789661 40.7980087,47.0655728 36.0650256,49.0162443 C31.3145129,50.9669158 26.0907019,51.4940779 21.0421866,50.5307621 C15.9936713,49.5691635 11.348336,47.1600156 7.70218604,43.6106864 C4.04376539,40.0596401 1.54755504,35.5263894 0.52207536,30.5844594 C-0.503404315,25.6425294 -0.0108234793,20.513431 1.93495847,15.8445263 C3.88249337,11.1773388 7.1938286,7.17983594 11.4535134,4.36029143 C15.7307278,1.53902977 20.744184,0.0227948123 25.8978767,0.000234072484 C32.7869966,-0.0287193993 39.4131729,2.62941392 44.3039221,7.39104421 C49.2122009,12.1509574 51.9818725,18.6245766 51.9994021,25.3883926 Z M50.0537845,25.3969783 C50.0711497,30.0607316 48.6863139,34.6266079 46.0568788,38.517648 C43.4449733,42.406971 39.693646,45.4463094 35.3112542,47.251024 C33.6810045,47.9224259 31.9806365,48.4100938 30.2627389,48.7140276 L30.2627389,48.7140276 L30.2802685,48.7123105 C29.2635536,41.8111233 35.4164316,35.0524587 38.8872859,31.5924208 C39.2028181,31.2678813 39.6059982,30.8935447 40.0442373,30.4831481 C40.622713,29.9319461 41.2888366,29.3189269 41.919901,28.6818679 C46.495118,24.5315395 47.4767738,19.5501153 38.2036328,17.0722817 C36.4682056,16.5811796 34.6801898,15.8857377 32.8571148,15.1817101 L32.8220557,15.1662559 L32.8220557,15.1576702 L32.8220557,15.1576702 L32.8045261,15.1422159 C32.769467,15.0151475 32.7168783,14.8794934 32.64676,14.7352536 C31.5248677,12.4428712 28.5623709,12.1664116 26.0907019,12.9185191 C26.1082315,12.9185191 26.1082315,12.9202363 26.1082315,12.9202363 L26.0907019,12.9253877 C23.9520947,12.4308512 21.8310171,12.2557029 19.7975873,12.7416537 C10.9626855,15.1284788 9.49020189,19.3457756 9.12208098,24.4250768 C9.10455141,24.6826479 9.06949228,24.9350675 9.05196271,25.18577 L9.05196271,25.1892043 C8.61372353,30.4024425 8.28066176,34.3879254 6.22970241,38.9177417 C4.38559195,36.3076883 3.0919099,33.3473383 2.44156296,30.2084057 C1.49146042,25.637378 1.94722917,20.8946362 3.74751571,16.5760281 C5.54604929,12.2591372 8.61372353,8.56213395 12.5578761,5.95379771 C16.5020287,3.34546146 21.147364,1.94084062 25.8978767,1.920007 C32.2786391,1.89276069 38.396458,4.34998859 42.9366159,8.75273654 C47.4592442,13.1554845 50.018561,19.143153 50.0537845,25.3969783 Z M25.319401,21.5179582 C25.6699923,20.9890789 25.8628176,20.3691912 25.8628176,19.7355664 C25.8628176,18.8838648 25.5297558,18.0682231 24.9162209,17.467224 C24.3026861,16.8662249 23.4612669,16.5279482 22.6023181,16.5279482 C21.9537241,16.5279482 21.3226597,16.7151165 20.7792431,17.0688474 C20.2358265,17.4208612 19.8151169,17.9222662 19.569703,18.5078111 C19.324289,19.0933559 19.2541708,19.7390007 19.3944073,20.3606055 C19.5171143,20.9839275 19.8326465,21.5540181 20.2884152,22.0039089 C20.744184,22.4520825 21.3226597,22.7577335 21.9537241,22.8813676 C22.5847885,23.0050017 23.2509121,22.9414675 23.8469173,22.6993508 C24.4429226,22.4555168 24.9512801,22.0451203 25.319401,21.5179582 Z M43.8832125,26.4238283 C42.7087315,27.4695667 41.3063662,28.2439971 39.8864712,28.9274189 C38.4665763,29.5953865 36.9590335,30.1294172 35.4339612,30.5226424 C33.8913593,30.9124332 32.2961687,31.2060642 30.6659189,31.0618244 C29.0356692,30.9175846 27.3878899,30.3766854 26.3010567,29.1832729 L26.3536454,29.1266072 C27.668363,29.9645717 29.1934353,30.2599199 30.7185076,30.3028484 C32.24358,30.3492112 33.7861819,30.2238599 35.2937247,29.9336632 C36.818797,29.6211436 38.3088102,29.1695357 39.7462347,28.5839909 C41.1836592,28.0018803 42.6035541,27.3270441 43.8306238,26.3671626 L43.8832125,26.4238283 Z M40.096826,24.794262 C40.2020034,24.6311337 40.2545921,24.438814 40.2545921,24.24306 C40.2545921,23.9820546 40.1494147,23.7313521 39.9565895,23.5476181 C39.7637643,23.3621669 39.5008208,23.2591385 39.2378772,23.2608557 C39.045052,23.2625728 38.8522268,23.3209556 38.6769311,23.4308526 C38.519165,23.5407495 38.396458,23.6952922 38.3088102,23.8755919 C38.2386919,24.0576088 38.2211624,24.2567971 38.2562215,24.4473997 C38.2912806,24.6397194 38.396458,24.8148677 38.5366946,24.9522389 C38.6769311,25.0896102 38.8522268,25.1823358 39.0625816,25.2201128 C39.2554068,25.2578899 39.4482321,25.2355671 39.6410573,25.1600129 C39.816353,25.0844587 39.9741191,24.9573904 40.096826,24.794262 Z" id="Shape"></path>
                <path d="M72.4695838,17.60092 C75.0309498,17.60092 76.3457844,19.125115 76.8751334,21.2068997 L79.9658485,21.1946642 C79.5901814,17.2845446 76.4482391,15.024471 72.452508,15 C67.1590181,15 64,19.324379 64,24.5034959 C64,29.6843606 67.1590181,34 72.4695838,34 C76.755603,34 79.7438634,31.0057958 80,26.6656854 L76.977588,26.6656854 C76.7214514,29.3050598 75.2187834,31.4130635 72.4695838,31.4130635 C68.678762,31.4130635 67.090715,27.9836247 67.090715,24.5052438 C67.090715,21.0286109 68.678762,17.60092 72.4695838,17.60092 Z" id="Path" fill-rule="nonzero"></path>
                <path d="M88.4914135,20 C84.3698811,20 82,22.9266136 82,26.9867374 C82,31.071618 84.3698811,34 88.4914135,34 C92.6301189,34 95,31.0450928 95,26.9867374 C95,22.9266136 92.6301189,20 88.4914135,20 Z M88.4914135,22.3129973 C91.0330251,22.3129973 92.1664465,24.7020336 92.1664465,26.9867374 C92.1664465,29.2979664 91.0330251,31.688771 88.4914135,31.688771 C85.9498018,31.688771 84.8335535,29.2714412 84.8335535,26.9867374 C84.8335535,24.7002653 85.9498018,22.3129973 88.4914135,22.3129973 Z" id="Shape"></path>
                <polygon id="Path" fill-rule="nonzero" points="101 16 98 16 98 19 101 19"></polygon>
                <polygon id="Path" fill-rule="nonzero" points="98 20 101 20 101 33 98 33"></polygon>
                <path d="M103,20.3720453 L105.840668,20.3720453 L105.840668,22.3754091 L105.895296,22.4280337 C106.332322,21.6858455 106.951442,21.0706822 107.698027,20.6442415 C108.444613,20.2178008 109.300455,19.9964146 110.156297,20 C113.124431,20 115,21.582411 115,24.6382666 L115,33.9981854 L111.977238,33.9981854 L111.977238,25.4312647 C111.92261,23.2972468 111.084977,22.3754091 109.318665,22.3754091 C107.29742,22.3754091 106.004552,23.9541469 106.004552,25.9575106 L106.004552,34 L103,34 L103,20.3720453 Z" id="Path" fill-rule="nonzero"></path>
                <path d="M134,33.5698488 L132.05042,33.5698488 L131.579832,31.4348408 C129.966387,33.3652658 128.470588,34 126.352941,34 C121.12605,34.003495 118,29.675776 118,24.5 C118,19.3224733 121.12605,15 126.336134,15 C130.134454,15 133.344538,17.1070309 133.798319,21.1969439 L130.823529,21.1969439 C130.537815,18.8101413 128.537815,17.5896371 126.336134,17.5896371 C122.605042,17.5896371 121.042017,21.0185894 121.042017,24.4982504 C121.042017,27.9761627 122.605042,31.4068636 126.336134,31.4068636 C129.462185,31.4575722 131.176471,29.5026673 131.226891,26.4286753 L126.588235,26.4286753 L126.588235,24.0173927 L134,24.0173927 L134,33.5698488 Z" id="Path" fill-rule="nonzero"></path>
                <path d="M139.749164,27.7559682 C139.749164,29.8390805 140.815506,31.688771 143.114806,31.688771 C144.714319,31.688771 145.680692,30.9425287 146.163878,29.4783378 L148.763088,29.4783378 C148.16327,32.3801945 145.847308,34 143.114806,34 C139.199331,34 137,31.0963749 137,27.0132626 C137,23.2360743 139.332624,20 143.04816,20 C146.980297,20 149.396228,23.77542 148.946365,27.7559682 L139.749164,27.7559682 Z M146.18054,25.8302387 C146.08057,23.9805482 144.897597,22.3129973 143.04816,22.3129973 C141.132076,22.3129973 139.832472,23.8514589 139.749164,25.8302387 L146.18054,25.8302387 Z" id="Shape"></path>
                <path d="M159.186441,24.8028294 C158.966102,23.1830239 157.847458,22.3129973 156.288136,22.3129973 C154.830508,22.3129973 152.79661,23.106985 152.79661,27.1405836 C152.79661,29.3492485 153.728814,31.688771 156.169492,31.688771 C157.79661,31.688771 158.915254,30.5570292 159.186441,28.6560566 L162,28.6560566 C161.474576,32.0990274 159.440678,34 156.169492,34 C152.186441,34 150,31.0450928 150,27.1405836 C150,23.1317418 152.084746,20 156.271186,20 C159.220339,20 161.728814,21.5419982 162,24.8028294 L159.186441,24.8028294 Z" id="Path" fill-rule="nonzero"></path>
                <polygon id="Path" fill-rule="nonzero" points="165 15 167.848921 15 167.848921 25.2326747 173.011511 19.9671325 176.516547 19.9671325 171.561151 24.7538313 177 32.9965301 173.51223 32.9965301 169.541007 26.6692048 167.848921 28.333012 167.848921 33 165 33"></polygon>
                <path d="M178,26.9867374 C178,22.9266136 180.366755,20 184.5,20 C188.633245,20 191,22.9266136 191,26.9867374 C191,31.0450928 188.633245,34 184.5,34 C180.366755,34 178,31.071618 178,26.9867374 Z M188.153034,26.9867374 C188.153034,24.7020336 187.038259,22.3129973 184.5,22.3129973 C181.961741,22.3129973 180.846966,24.7002653 180.846966,26.9867374 C180.846966,29.2714412 181.961741,31.688771 184.5,31.688771 C187.038259,31.688771 188.153034,29.2979664 188.153034,26.9867374 Z" id="Shape"></path>
            </g>
        </g>
    </g>
</svg>