<?xml version="1.0" standalone="no"?>
<!DOCTYPE svg PUBLIC "-//W3C//DTD SVG 20010904//EN"
 "http://www.w3.org/TR/2001/REC-SVG-20010904/DTD/svg10.dtd">
<svg version="1.0" xmlns="http://www.w3.org/2000/svg"
 width="2048.000000pt" height="2048.000000pt" viewBox="0 0 2048.000000 2048.000000"
 preserveAspectRatio="xMidYMid meet">
<metadata>
Created by potrace 1.14, written by Peter Selinger 2001-2017
</metadata>
<g transform="translate(0.000000,2048.000000) scale(0.100000,-0.100000)"
fill="#000000" stroke="none">
<path d="M14593 18734 c-7 -3 -44 -44 -84 -92 -152 -183 -167 -194 -317 -235
-106 -29 -139 -47 -148 -82 -16 -63 22 -111 175 -225 125 -93 145 -122 196
-275 39 -118 73 -165 120 -165 32 0 83 46 139 124 60 84 111 128 192 166 164
76 176 83 195 114 40 65 24 109 -76 217 -115 123 -146 165 -214 297 -74 142
-117 180 -178 156z"/>
<path d="M10185 18393 c-1726 -69 -3438 -746 -4710 -1862 -788 -693 -1382
-1530 -1730 -2441 -639 -1672 -745 -3453 -300 -5020 458 -1612 1463 -2961
2873 -3857 373 -236 841 -482 1235 -648 76 -32 136 -59 135 -60 -7 -6 -539
-138 -703 -174 -453 -100 -925 -174 -1365 -213 -227 -20 -868 -17 -1050 5
-639 78 -1052 278 -1215 589 -124 236 -95 548 83 878 54 100 167 270 246 368
31 39 56 73 56 76 0 3 -30 -11 -68 -31 -886 -479 -1447 -1556 -1266 -2429 137
-667 686 -1113 1544 -1253 233 -38 339 -45 665 -46 322 0 452 8 760 46 1729
213 4223 1174 6495 2502 313 183 850 516 1068 662 36 25 68 43 70 40 6 -6
-107 -218 -175 -329 -242 -393 -573 -751 -938 -1016 -116 -84 -130 -83 170
-10 1125 273 2153 815 3070 1619 153 134 461 442 591 591 584 669 995 1377
1286 2215 l69 199 342 346 c929 937 1482 1659 1913 2495 109 212 154 307 375
797 128 284 302 640 399 818 49 88 81 125 -258 -290 -1282 -1567 -2493 -2853
-3607 -3829 -1255 -1100 -2488 -1934 -4130 -2793 -279 -147 -1046 -530 -1050
-526 -2 2 51 37 118 77 910 552 1844 1224 2542 1830 485 421 957 891 1324
1319 635 738 1114 1508 1415 2269 361 916 481 1775 380 2723 -16 148 -19 162
-74 300 -261 655 -596 1235 -1004 1740 -201 250 -552 604 -811 822 -852 713
-1922 1187 -3145 1393 -501 84 -1150 127 -1625 108z m2323 -3409 c148 -30 277
-93 427 -209 91 -71 855 -846 1711 -1736 237 -246 331 -428 353 -678 34 -392
-202 -817 -524 -941 -85 -33 -262 -34 -350 -2 -149 56 -169 73 -695 601 -361
362 -514 510 -565 543 -101 66 -202 114 -302 145 -78 24 -104 27 -233 27 -118
0 -160 -5 -225 -22 -109 -30 -247 -99 -342 -171 -43 -32 -292 -274 -553 -536
-261 -263 -504 -500 -539 -527 -115 -86 -247 -138 -356 -138 -106 0 -234 51
-355 141 -36 26 -270 253 -520 505 -262 263 -489 482 -534 516 -128 96 -267
156 -423 183 -109 19 -178 19 -288 0 -210 -37 -367 -124 -575 -320 -131 -123
-216 -210 -628 -643 -290 -305 -466 -412 -672 -412 -262 1 -521 230 -623 555
-98 311 -40 627 167 906 89 120 395 440 1359 1421 285 290 530 531 573 564
101 76 239 147 349 180 76 22 109 26 215 27 106 0 138 -4 211 -26 123 -37 189
-69 304 -144 87 -57 166 -132 600 -562 275 -273 580 -574 677 -670 l177 -175
358 350 c197 192 509 498 693 679 184 182 366 354 404 382 122 91 288 167 417
192 73 14 225 12 307 -5z m75 -4689 c31 -8 96 -34 144 -59 226 -113 372 -281
435 -502 30 -105 32 -309 4 -429 -40 -175 -120 -356 -215 -492 -128 -182 -859
-952 -1577 -1663 -319 -315 -384 -368 -547 -445 -120 -56 -189 -74 -317 -82
-224 -13 -429 63 -658 244 -72 58 -624 617 -1506 1527 -295 304 -369 386 -425
472 -121 183 -173 349 -172 551 2 277 107 523 304 710 241 227 527 230 807 8
28 -22 150 -143 272 -270 412 -429 673 -687 753 -747 95 -71 230 -138 340
-170 68 -19 103 -23 235 -23 174 0 247 15 388 80 162 75 229 130 558 459 170
171 386 390 480 487 270 280 390 355 574 358 36 1 91 -6 123 -14z"/>
<path d="M2208 9521 c-73 -24 -101 -42 -296 -188 -205 -155 -300 -204 -452
-233 -30 -6 -163 -15 -295 -20 -262 -9 -332 -21 -400 -68 -22 -15 -50 -43 -63
-62 -50 -73 -14 -196 138 -480 130 -244 148 -281 187 -398 31 -92 36 -120 36
-197 0 -115 -23 -197 -113 -414 -37 -91 -74 -194 -81 -229 -31 -163 34 -304
170 -365 37 -17 65 -21 141 -20 101 1 147 10 390 73 188 49 309 61 390 37 76
-23 175 -83 385 -235 283 -206 400 -269 514 -279 77 -6 136 24 169 87 22 42
24 53 19 165 -4 102 -12 147 -52 300 -81 306 -96 376 -98 465 -3 139 18 170
299 426 127 117 159 173 159 284 0 62 -5 85 -28 132 -49 99 -113 149 -417 324
-47 27 -110 73 -141 104 -69 67 -85 107 -144 360 -49 210 -73 280 -118 347
-61 91 -178 124 -299 84z"/>
<path d="M16813 7141 c-74 -34 -77 -46 -84 -366 -7 -341 -6 -338 -161 -568
-113 -169 -128 -214 -90 -279 44 -76 149 -86 387 -38 81 17 170 30 197 30 79
0 183 -28 338 -92 219 -90 286 -110 348 -106 61 5 99 29 124 79 23 44 23 105
-2 231 -11 57 -23 135 -26 173 -11 122 28 225 170 459 74 122 92 168 82 219
-9 49 -39 83 -91 103 -51 19 -102 17 -335 -11 -244 -30 -361 -9 -587 106 -170
86 -198 92 -270 60z"/>
</g>
</svg>
