<svg width="180" height="183" viewBox="0 0 180 183" fill="none" xmlns="http://www.w3.org/2000/svg"><path d="M176.985 85.6245C178.713 114.464 165.158 141.279 157.655 148.2C151.629 153.769 142.604 161.398 134.653 165.212L134.304 165.391C134.009 165.543 133.722 165.695 133.409 165.865L133.275 165.946C133.051 166.08 132.827 166.215 132.612 166.367C132.397 166.519 132.021 166.779 131.717 167.003C130.581 167.875 129.605 168.939 128.834 170.145C128.782 170.245 128.722 170.341 128.655 170.432C128.538 170.629 128.431 170.817 128.332 171.014C127.493 172.495 126.28 173.73 124.814 174.595C121.537 176.735 116.496 178.382 110.049 180.155C106.149 181.331 102.098 181.934 98.0247 181.946C96.8212 181.92 95.6225 181.785 94.4434 181.543C92.7327 181.203 91.1053 180.531 89.6533 179.564C89.0813 179.179 88.4829 178.835 87.8626 178.535L87.6208 178.418C87.4238 178.32 87.2179 178.23 87.0119 178.15L86.5554 177.971C86.1987 177.83 85.8339 177.71 85.463 177.612C84.449 177.322 83.4016 177.166 82.3472 177.147C81.9657 177.12 81.5827 177.12 81.2011 177.147C80.1984 177.209 79.2135 177.263 78.2376 177.299L76.1336 177.353H74.3429H73.4475C72.3462 177.353 71.2629 177.299 70.1884 177.245C68.2903 177.144 66.434 176.974 64.6194 176.735L63.5808 176.583C61.9602 176.341 60.3665 176.046 58.7997 175.687L57.9043 175.464C56.2211 175.043 54.5557 174.568 52.9261 173.968L52.1562 173.691L51.2608 173.351C50.6072 173.091 49.9625 172.822 49.3089 172.536C49.0343 172.422 48.7568 172.297 48.4763 172.16C47.8316 171.873 47.187 171.56 46.5513 171.264C46.2827 171.13 46.0141 170.996 45.7544 170.853C45.1456 170.539 44.5546 170.208 43.9637 169.868C43.3728 169.527 42.7819 169.169 42.173 168.802C41.8776 168.623 41.5821 168.435 41.2777 168.238C40.9733 168.041 40.7137 167.88 40.4361 167.692C39.5408 167.092 38.6454 166.465 37.8037 165.803L36.9084 165.14C34.837 163.519 32.861 161.779 30.9902 159.929L30.1574 159.106L29.3248 158.255C28.7697 157.682 28.2146 157.091 27.6685 156.464L26.8447 155.569L26.0209 154.629L25.1973 153.662C24.9197 153.34 24.6511 153.008 24.3735 152.677C23.317 151.388 22.2635 150.042 21.2129 148.639C20.9264 148.272 20.6489 147.887 20.3714 147.502C19.8073 146.741 19.2432 145.953 18.6881 145.156C17.5958 143.598 16.5034 141.972 15.4111 140.276L15.3216 140.133C14.7575 139.238 14.2024 138.342 13.6383 137.447C4.77886 123.145 0.124596 106.638 0.208136 89.8147C0.208136 89.7162 0.208136 89.6267 0.208136 89.5282C0.208136 88.9462 0.208136 88.3732 0.208136 87.8001C0.383779 81.9445 1.13654 76.1204 2.45546 70.4125C2.7957 68.9442 3.16281 67.4758 3.59257 65.9985C3.70001 65.5866 3.82538 65.1748 3.95073 64.7629C6.52907 56.2274 10.2453 48.0781 14.9993 40.5348C17.4858 36.5765 20.4046 32.9069 23.702 29.5937C23.7736 29.5131 23.8542 29.4415 23.9259 29.3698C25.6623 28.0744 27.2668 26.6109 28.7159 25.0006C35.5832 17.2379 32.3779 11.7942 49.8909 4.48817C70.6629 -4.16088 71.236 4.78363 84.505 3.91515C85.8791 3.81699 87.2585 3.81699 88.6326 3.91515C103.173 3.46747 117.534 5.92968 129.756 11.4361C150.232 20.6581 159.75 31.9126 159.75 31.9126C170.906 30.2294 185.563 76.5546 177.657 84.8455C177.47 85.1348 177.244 85.3969 176.985 85.6245Z" fill="#2971DE" /><path d="M155.343 81.1476C154.922 81.8997 154.385 83.0368 153.113 83.0368C151.842 83.0368 151.537 81.8638 151.537 80.5835C151.537 75.5785 156.229 70.6272 158.047 70.6272C158.389 70.6547 158.707 70.8138 158.934 71.0709C159.161 71.3281 159.279 71.6633 159.264 72.0061C159.264 73.2596 157.196 74.6115 156.363 76.7425C155.808 78.1571 155.916 79.715 155.343 81.1476ZM16.4923 58.9519C13.3855 65.7297 13.1348 68.2098 13.1348 72.5164C13.1348 88.964 17.6115 104.561 33.6203 108.133C37.6105 109.253 41.7428 109.784 45.8865 109.709C88.4423 109.709 106.698 98.7232 118.678 86.8062C134.794 73.2059 142.351 63.1063 153.892 62.7392C154.73 62.7561 155.563 62.6102 156.345 62.3095C161.225 64.3867 163.052 67.789 164.18 67.0369C165.308 66.2848 161.879 61.047 160.545 55.7287C157.384 44.5995 155.763 32.6108 160.249 31.9751C155.71 30.0322 147.562 22.4576 146.523 25.3317C146.692 26.1964 146.978 27.034 147.374 27.8207C149.353 31.6976 140.39 26.5672 139.316 26.5672C138.573 26.5672 138.304 27.1045 138.304 27.7939C138.304 32.7004 147.105 34.2762 147.105 39.6751C147.105 43.1132 140.999 41.8956 140.274 45.6292C140.274 48.163 142.441 49.121 142.297 50.4461C141.286 59.7309 119.018 45.0203 132.019 35.7356C134.562 33.9449 126.647 30.2113 123.065 27.6775C114.882 19.3239 108.068 15.8141 96.0707 15.1426C93.2951 14.9904 91.1552 14.9188 90.2598 14.9009C76.3372 15.5276 62.2892 18.2942 48.868 25.0631C32.9398 33.1749 21.9987 45.8441 16.4923 58.9519Z" fill="#3B82F1" /><path d="M176.985 85.633C176.681 85.8569 173.932 87.6386 171.792 87.6386C168.909 87.6386 166.724 79.2045 165.301 79.2045C153.581 79.2045 144.762 144.233 67.8603 146.051C42.2176 146.651 29.5125 138.888 17.2911 122.772C6.5469 112.807 2.7686 93.8971 2.69698 79.7954V79.67C2.69698 74.9158 4.11159 69.7406 4.12055 64.8789C3.54752 66.7681 3.05504 68.6483 2.62528 70.5285C1.30635 76.2364 0.553701 82.0605 0.378058 87.9162C0.378058 88.4892 0.378058 89.0622 0.378058 89.6442C0.378058 89.7427 0.378058 89.8322 0.378058 89.9307C0.294518 106.754 4.94878 123.261 13.8083 137.563C14.3723 138.458 14.9274 139.354 15.4915 140.249L15.581 140.392C16.6733 142.082 17.7656 143.708 18.8579 145.272C19.413 146.069 19.9771 146.857 20.5412 147.618C20.8187 148.003 21.0963 148.388 21.3829 148.755C22.4334 150.158 23.4869 151.504 24.5435 152.793C24.821 153.124 25.0895 153.456 25.3671 153.778L26.1909 154.745L27.0146 155.685L27.8383 156.58C28.3844 157.189 28.9395 157.78 29.4946 158.371L30.3274 159.222L31.1601 160.045C33.0309 161.895 35.0069 163.635 37.0783 165.256L37.9737 165.919C38.869 166.581 39.7643 167.208 40.6059 167.808L41.4476 168.354C41.7341 168.551 42.0296 168.739 42.3429 168.918C42.9339 169.285 43.5159 169.643 44.1336 169.984C44.7514 170.324 45.3155 170.655 45.9243 170.969C46.184 171.112 46.4525 171.246 46.7211 171.38C47.3568 171.703 48.0015 172.016 48.6461 172.276C48.9207 172.413 49.1983 172.538 49.4788 172.652C50.1324 172.938 50.777 173.207 51.4306 173.467L52.326 173.807L53.0961 174.084C54.7256 174.666 56.3909 175.159 58.0741 175.58L58.9695 175.803C60.5363 176.171 62.13 176.466 63.7506 176.699L64.7892 176.851C66.5799 177.09 68.4363 177.26 70.3583 177.361C71.4327 177.415 72.5161 177.451 73.6173 177.469H74.5127H76.3034L78.4074 177.415C79.3834 177.415 80.3683 177.326 81.3711 177.263C82.8073 177.171 84.2488 177.325 85.6329 177.719C86.0038 177.817 86.3685 177.937 86.7252 178.078L87.1819 178.257C87.3878 178.337 87.5938 178.427 87.7907 178.525L88.0324 178.642C88.6527 178.942 89.2511 179.287 89.8231 179.671C91.2751 180.638 92.9026 181.31 94.6133 181.65C95.7924 181.893 96.9911 182.027 98.1947 182.053C102.268 182.041 106.319 181.438 110.219 180.262C116.666 178.472 121.706 176.842 124.983 174.702C126.45 173.837 127.663 172.602 128.502 171.121C128.601 170.924 128.708 170.736 128.824 170.539C128.892 170.448 128.952 170.352 129.003 170.252C129.775 169.046 130.751 167.982 131.887 167.11C132.173 166.886 132.46 166.671 132.782 166.474C133.104 166.277 133.221 166.187 133.444 166.053L133.579 165.972C133.856 165.802 134.143 165.65 134.474 165.498L134.823 165.319C142.774 161.505 151.835 153.876 157.825 148.307C165.158 141.288 178.713 114.472 176.985 85.633ZM123.479 169.581C121.993 169.581 120.247 169.706 117.409 169.706C113.093 169.706 102.537 171.783 94.846 176.654C94.846 176.6 94.846 176.556 94.846 176.502C94.846 174.863 98.0783 173.01 98.8572 171.801C100.648 168.999 100.478 163.994 105.187 163.994C106.906 163.994 108.428 164.782 110.13 164.782C113.442 164.782 114.382 161.738 117.167 161.738H117.283C119.191 161.8 119.969 164.218 122.047 164.218C124.661 164.218 126.926 161.156 129.397 161.156C129.841 161.157 130.278 161.258 130.678 161.451C130.66 161.541 124.849 169.581 123.479 169.581ZM177.048 73.5369C177.048 75.0769 176.681 76.223 175.812 76.223C173.672 76.1692 169.804 68.0484 166.957 59.5964C164.88 53.4095 163.376 47.0615 163.448 43.5428C163.448 42.0565 163.752 40.3285 165.238 40.3643C167.029 40.3643 170.378 47.8852 173.073 55.9523C175.329 62.7122 177.119 69.9555 177.048 73.5369Z" fill="#1363DF" /><path d="M98.8573 180.442C97.8366 180.442 97.0666 180.343 97.1741 179.922C97.389 178.884 103.137 176.798 109.028 175.195C112.627 174.124 116.321 173.411 120.059 173.064C121.053 173.064 122.19 173.127 122.047 173.843C121.868 174.738 116.594 176.529 110.971 178.051C106.226 179.331 101.239 180.397 98.8573 180.442ZM165.22 40.3198C163.725 40.3198 163.43 42.012 163.43 43.4983C163.331 46.9991 164.862 53.3471 166.939 59.5519C166.802 58.9223 166.73 58.2802 166.725 57.6358C166.725 55.8451 167.539 53.553 169.411 53.553C170.7 53.553 172.097 54.6275 173.09 55.9078C170.36 47.8407 166.966 40.4094 165.22 40.3198Z" fill="#0052D3" /><path d="M136.426 71.1208L136.508 71.2026C136.512 71.1391 136.512 71.0753 136.508 71.0117L136.426 71.1208Z" fill="#BE306C" /><path d="M78.8644 112.157C93.9851 117.196 102.317 138.48 85.5354 156.727C84.4231 157.936 86.266 160.981 87.7262 160.227C155.52 125.243 144.066 65.7818 94.3957 52.9753C93.3863 52.715 92.7271 51.7051 92.9493 50.6866L95.3908 39.4965C96.1035 36.2301 92.5601 33.6978 89.7005 35.43L39.8463 65.6291C35.4298 68.3044 33.9532 74.0139 36.5188 78.4949L65.031 128.293C66.6692 131.154 70.9228 130.721 71.9502 127.588L76.6218 113.343C76.9316 112.398 77.9211 111.843 78.8644 112.157Z" fill="#FF4C43" /><path d="M53.7628 108.613L36.5188 78.4949C33.9532 74.0139 35.4298 68.3044 39.8463 65.6291L89.7005 35.43C92.5601 33.6978 96.1035 36.2301 95.3908 39.4965L92.9493 50.6866C92.7271 51.7051 93.3863 52.715 94.3957 52.9753C110.531 57.1355 122.634 66.2192 129.297 77.7878C121.625 84.8107 83.7751 106.65 54.7704 109.716L53.7628 108.613Z" fill="#FF705D" /><path d="M127.223 126.175C120.205 130.97 104.315 140.631 94.5365 142.464L93.6988 142.777C92.3559 147.416 89.7304 152.166 85.5361 156.727C84.4238 157.936 86.2667 160.981 87.7269 160.227C106.955 150.305 119.809 138.413 127.223 126.175Z" fill="#FF3328" /><path d="M85.5354 156.727C84.4231 157.936 86.266 160.981 87.7262 160.227C90.0666 159.02 92.3126 157.783 94.4658 156.52C97.2595 150.442 97.4834 140.289 96.2821 134.938C96.0598 133.947 93.6749 125.921 91.2032 122.161C97.301 134.938 94.7463 146.712 85.5354 156.727Z" fill="#E3150A" /><path d="M134.756 93.8449C132.355 75.5619 118.451 60.0192 96.7375 53.6218C93.9504 52.8163 93.1969 52.3757 92.9728 51.6043L95.3094 60.1673C95.0872 61.1858 95.7464 62.1957 96.7558 62.4559C115.84 67.3764 129.283 79.1843 134.756 93.8449Z" fill="#E3150A" /><path d="M94.3294 44.3611L95.3908 39.4965C96.1035 36.2301 92.5601 33.6978 89.7005 35.43L39.8463 65.6291C35.4298 68.3044 33.9532 74.0139 36.5188 78.4949L37.9095 80.9238C38.5003 78.5787 39.9797 76.4586 42.2064 75.1098L92.0606 44.9106C92.7996 44.4629 93.5843 44.3001 94.3294 44.3611Z" fill="#E3150A" /></svg>