<svg class="logo-mobile" width="256" height="62" viewBox="0 0 256 62" fill="none" xmlns="http://www.w3.org/2000/svg"><path d="M156.433 56.1824C155.656 56.1824 155.056 55.9653 154.635 55.531C154.22 55.0968 154.013 54.4713 154.013 53.6547V47.6271H152.826C152.723 47.6271 152.635 47.598 152.564 47.5396C152.493 47.4748 152.457 47.3776 152.457 47.248V46.5577L154.071 46.3535L154.469 43.3106C154.482 43.2134 154.525 43.1356 154.596 43.0773C154.667 43.0125 154.758 42.98 154.868 42.98H155.743V46.373H158.562V47.6271H155.743V53.538C155.743 53.9528 155.844 54.2607 156.044 54.4616C156.245 54.6625 156.505 54.763 156.822 54.763C157.004 54.763 157.159 54.7403 157.289 54.695C157.425 54.6431 157.542 54.588 157.639 54.5297C157.736 54.4713 157.817 54.4195 157.882 54.3741C157.953 54.3223 158.015 54.2964 158.067 54.2964C158.157 54.2964 158.238 54.3514 158.31 54.4616L158.815 55.288C158.517 55.5667 158.157 55.787 157.736 55.9491C157.315 56.1046 156.881 56.1824 156.433 56.1824ZM164.688 46.023C165.408 46.023 166.056 46.1429 166.633 46.3827C167.216 46.6225 167.708 46.9628 168.11 47.4035C168.519 47.8442 168.83 48.3789 169.044 49.0076C169.264 49.6298 169.374 50.3266 169.374 51.0978C169.374 51.8756 169.264 52.5756 169.044 53.1978C168.83 53.82 168.519 54.3514 168.11 54.7922C167.708 55.2329 167.216 55.5732 166.633 55.813C166.056 56.0463 165.408 56.163 164.688 56.163C163.969 56.163 163.317 56.0463 162.734 55.813C162.157 55.5732 161.665 55.2329 161.256 54.7922C160.848 54.3514 160.534 53.82 160.313 53.1978C160.093 52.5756 159.983 51.8756 159.983 51.0978C159.983 50.3266 160.093 49.6298 160.313 49.0076C160.534 48.3789 160.848 47.8442 161.256 47.4035C161.665 46.9628 162.157 46.6225 162.734 46.3827C163.317 46.1429 163.969 46.023 164.688 46.023ZM164.688 54.8116C165.66 54.8116 166.386 54.4876 166.866 53.8394C167.345 53.1848 167.585 52.2742 167.585 51.1076C167.585 49.9345 167.345 49.0206 166.866 48.366C166.386 47.7114 165.66 47.3841 164.688 47.3841C164.196 47.3841 163.768 47.4683 163.405 47.6368C163.042 47.8054 162.737 48.0484 162.491 48.366C162.251 48.6836 162.07 49.0757 161.947 49.5423C161.83 50.0025 161.772 50.5243 161.772 51.1076C161.772 51.6909 161.83 52.2126 161.947 52.6728C162.07 53.133 162.251 53.5218 162.491 53.8394C162.737 54.1505 163.042 54.3903 163.405 54.5588C163.768 54.7274 164.196 54.8116 164.688 54.8116ZM178.251 56.1824C177.473 56.1824 176.873 55.9653 176.452 55.531C176.037 55.0968 175.83 54.4713 175.83 53.6547V47.6271H174.644C174.54 47.6271 174.453 47.598 174.381 47.5396C174.31 47.4748 174.274 47.3776 174.274 47.248V46.5577L175.888 46.3535L176.287 43.3106C176.3 43.2134 176.342 43.1356 176.413 43.0773C176.485 43.0125 176.575 42.98 176.685 42.98H177.56V46.373H180.38V47.6271H177.56V53.538C177.56 53.9528 177.661 54.2607 177.862 54.4616C178.063 54.6625 178.322 54.763 178.64 54.763C178.821 54.763 178.977 54.7403 179.106 54.695C179.242 54.6431 179.359 54.588 179.456 54.5297C179.553 54.4713 179.634 54.4195 179.699 54.3741C179.771 54.3223 179.832 54.2964 179.884 54.2964C179.975 54.2964 180.056 54.3514 180.127 54.4616L180.633 55.288C180.334 55.5667 179.975 55.787 179.553 55.9491C179.132 56.1046 178.698 56.1824 178.251 56.1824ZM182.52 56.0269V41.7065H184.25V47.5007C184.671 47.0535 185.138 46.6971 185.65 46.4313C186.162 46.1591 186.752 46.023 187.419 46.023C187.957 46.023 188.43 46.1137 188.839 46.2952C189.254 46.4702 189.597 46.723 189.869 47.0535C190.148 47.3776 190.359 47.7697 190.501 48.2299C190.644 48.69 190.715 49.1988 190.715 49.7562V56.0269H188.985V49.7562C188.985 49.0109 188.813 48.434 188.469 48.0257C188.132 47.6109 187.614 47.4035 186.914 47.4035C186.402 47.4035 185.922 47.5267 185.475 47.7729C185.034 48.0192 184.626 48.353 184.25 48.7743V56.0269H182.52ZM197.222 46.023C197.812 46.023 198.356 46.1235 198.856 46.3244C199.355 46.5188 199.786 46.804 200.149 47.1799C200.511 47.5493 200.793 48.0095 200.994 48.5604C201.202 49.1049 201.305 49.7271 201.305 50.427C201.305 50.6992 201.276 50.8807 201.218 50.9715C201.16 51.0622 201.049 51.1076 200.887 51.1076H194.335C194.348 51.7298 194.432 52.271 194.588 52.7311C194.743 53.1913 194.957 53.5769 195.229 53.888C195.501 54.1927 195.826 54.4227 196.201 54.5783C196.577 54.7274 196.999 54.8019 197.465 54.8019C197.9 54.8019 198.272 54.7533 198.583 54.6561C198.901 54.5524 199.173 54.4422 199.4 54.3255C199.627 54.2089 199.815 54.1019 199.964 54.0047C200.119 53.901 200.252 53.8491 200.362 53.8491C200.505 53.8491 200.615 53.9042 200.693 54.0144L201.179 54.6463C200.965 54.9056 200.709 55.1324 200.411 55.3269C200.113 55.5148 199.792 55.6704 199.449 55.7935C199.112 55.9167 198.762 56.0074 198.399 56.0657C198.036 56.1306 197.676 56.163 197.319 56.163C196.639 56.163 196.01 56.0495 195.433 55.8227C194.863 55.5894 194.367 55.2523 193.946 54.8116C193.531 54.3644 193.207 53.8135 192.974 53.1589C192.74 52.5043 192.624 51.7525 192.624 50.9034C192.624 50.2164 192.727 49.5747 192.935 48.9785C193.149 48.3822 193.453 47.8669 193.849 47.4327C194.244 46.992 194.727 46.6484 195.297 46.4022C195.868 46.1494 196.509 46.023 197.222 46.023ZM197.261 47.2966C196.425 47.2966 195.767 47.5396 195.288 48.0257C194.808 48.5053 194.51 49.1729 194.393 50.0284H199.75C199.75 49.6266 199.695 49.2604 199.585 48.9299C199.474 48.5928 199.312 48.3044 199.099 48.0646C198.885 47.8183 198.622 47.6304 198.311 47.5007C198.006 47.3646 197.656 47.2966 197.261 47.2966ZM207.28 56.0269V46.1786H208.311C208.557 46.1786 208.712 46.2985 208.777 46.5383L208.904 47.5493C209.267 47.1021 209.672 46.7359 210.119 46.4508C210.572 46.1656 211.097 46.023 211.694 46.023C212.361 46.023 212.899 46.2077 213.308 46.5772C213.722 46.9466 214.021 47.4456 214.202 48.0743C214.338 47.7179 214.516 47.41 214.737 47.1507C214.964 46.8915 215.216 46.6776 215.495 46.5091C215.774 46.3406 216.069 46.2174 216.38 46.1397C216.697 46.0619 217.018 46.023 217.342 46.023C217.861 46.023 218.321 46.1073 218.723 46.2758C219.131 46.4378 219.475 46.6776 219.753 46.9952C220.038 47.3128 220.256 47.7049 220.405 48.1715C220.554 48.6317 220.628 49.1599 220.628 49.7562V56.0269H218.898V49.7562C218.898 48.9849 218.729 48.4016 218.392 48.0063C218.055 47.6044 217.566 47.4035 216.924 47.4035C216.639 47.4035 216.367 47.4554 216.108 47.5591C215.855 47.6563 215.631 47.8021 215.437 47.9966C215.242 48.191 215.087 48.4373 214.97 48.7354C214.86 49.0271 214.805 49.3673 214.805 49.7562V56.0269H213.074V49.7562C213.074 48.9655 212.915 48.3757 212.598 47.9868C212.28 47.598 211.817 47.4035 211.208 47.4035C210.78 47.4035 210.381 47.5202 210.012 47.7535C209.649 47.9803 209.315 48.2915 209.011 48.6868V56.0269H207.28ZM227.235 46.023C227.954 46.023 228.603 46.1429 229.179 46.3827C229.763 46.6225 230.255 46.9628 230.657 47.4035C231.065 47.8442 231.377 48.3789 231.59 49.0076C231.811 49.6298 231.921 50.3266 231.921 51.0978C231.921 51.8756 231.811 52.5756 231.59 53.1978C231.377 53.82 231.065 54.3514 230.657 54.7922C230.255 55.2329 229.763 55.5732 229.179 55.813C228.603 56.0463 227.954 56.163 227.235 56.163C226.516 56.163 225.864 56.0463 225.281 55.813C224.704 55.5732 224.211 55.2329 223.803 54.7922C223.395 54.3514 223.081 53.82 222.86 53.1978C222.64 52.5756 222.53 51.8756 222.53 51.0978C222.53 50.3266 222.64 49.6298 222.86 49.0076C223.081 48.3789 223.395 47.8442 223.803 47.4035C224.211 46.9628 224.704 46.6225 225.281 46.3827C225.864 46.1429 226.516 46.023 227.235 46.023ZM227.235 54.8116C228.207 54.8116 228.933 54.4876 229.413 53.8394C229.892 53.1848 230.132 52.2742 230.132 51.1076C230.132 49.9345 229.892 49.0206 229.413 48.366C228.933 47.7114 228.207 47.3841 227.235 47.3841C226.742 47.3841 226.315 47.4683 225.952 47.6368C225.589 47.8054 225.284 48.0484 225.038 48.366C224.798 48.6836 224.617 49.0757 224.493 49.5423C224.377 50.0025 224.318 50.5243 224.318 51.1076C224.318 51.6909 224.377 52.2126 224.493 52.6728C224.617 53.133 224.798 53.5218 225.038 53.8394C225.284 54.1505 225.589 54.3903 225.952 54.5588C226.315 54.7274 226.742 54.8116 227.235 54.8116ZM238.039 46.023C238.759 46.023 239.407 46.1429 239.984 46.3827C240.567 46.6225 241.06 46.9628 241.461 47.4035C241.87 47.8442 242.181 48.3789 242.395 49.0076C242.615 49.6298 242.725 50.3266 242.725 51.0978C242.725 51.8756 242.615 52.5756 242.395 53.1978C242.181 53.82 241.87 54.3514 241.461 54.7922C241.06 55.2329 240.567 55.5732 239.984 55.813C239.407 56.0463 238.759 56.163 238.039 56.163C237.32 56.163 236.668 56.0463 236.085 55.813C235.508 55.5732 235.016 55.2329 234.607 54.7922C234.199 54.3514 233.885 53.82 233.664 53.1978C233.444 52.5756 233.334 51.8756 233.334 51.0978C233.334 50.3266 233.444 49.6298 233.664 49.0076C233.885 48.3789 234.199 47.8442 234.607 47.4035C235.016 46.9628 235.508 46.6225 236.085 46.3827C236.668 46.1429 237.32 46.023 238.039 46.023ZM238.039 54.8116C239.011 54.8116 239.737 54.4876 240.217 53.8394C240.697 53.1848 240.936 52.2742 240.936 51.1076C240.936 49.9345 240.697 49.0206 240.217 48.366C239.737 47.7114 239.011 47.3841 238.039 47.3841C237.547 47.3841 237.119 47.4683 236.756 47.6368C236.393 47.8054 236.088 48.0484 235.842 48.366C235.602 48.6836 235.421 49.0757 235.298 49.5423C235.181 50.0025 235.123 50.5243 235.123 51.1076C235.123 51.6909 235.181 52.2126 235.298 52.6728C235.421 53.133 235.602 53.5218 235.842 53.8394C236.088 54.1505 236.393 54.3903 236.756 54.5588C237.119 54.7274 237.547 54.8116 238.039 54.8116ZM244.857 56.0269V46.1786H245.888C246.134 46.1786 246.29 46.2985 246.355 46.5383L246.491 47.6077C246.919 47.1345 247.395 46.7521 247.92 46.4605C248.451 46.1688 249.064 46.023 249.757 46.023C250.295 46.023 250.768 46.1137 251.177 46.2952C251.592 46.4702 251.935 46.723 252.207 47.0535C252.486 47.3776 252.697 47.7697 252.839 48.2299C252.982 48.69 253.053 49.1988 253.053 49.7562V56.0269H251.323V49.7562C251.323 49.0109 251.151 48.434 250.807 48.0257C250.47 47.6109 249.952 47.4035 249.252 47.4035C248.74 47.4035 248.26 47.5267 247.813 47.7729C247.372 48.0192 246.964 48.353 246.588 48.7743V56.0269H244.857Z" fill="#989898" /><path fill-rule="evenodd" clip-rule="evenodd" d="M166.7 6.4661L165.953 7.4622L165.926 7.49824C165.524 8.03467 165.132 8.55598 164.752 9.06382C164.308 8.82992 163.881 8.57971 163.461 8.33323C162.567 7.80937 161.702 7.30242 160.771 7.00513C154.762 5.08787 148.909 9.20104 148.387 15.607C148.169 18.2795 148.581 20.8125 150.097 23.0899C153.368 28.0042 159.638 28.7221 164.635 24.6045L165.615 25.9044L166.679 27.3157C163.176 31.7956 153.982 31.985 149.172 27.7468C143.129 22.4228 142.85 12.2458 148.59 6.57873C153.345 1.88463 162.551 1.76849 166.7 6.4661ZM98.1253 30.1728V11.1862L98.3897 11.0924C98.487 11.2107 98.5852 11.3282 98.6833 11.4458L98.6834 11.4458L98.6834 11.4458L98.6834 11.4459L98.6834 11.4459L98.6835 11.4459L98.6835 11.446L98.6835 11.446L98.6836 11.446L98.6836 11.4461L98.6836 11.4461L98.6836 11.4461L98.6837 11.4462C98.8971 11.7019 99.1106 11.9575 99.3152 12.2199C100.671 13.9568 102.024 15.6951 103.378 17.4334L103.378 17.4343C104.114 18.3785 104.849 19.3226 105.584 20.2665C106.662 21.6502 107.233 21.6523 108.281 20.2957C110.503 17.4192 112.727 14.5449 114.957 11.6741C115.081 11.5142 115.221 11.367 115.419 11.1592L115.419 11.159L115.419 11.159L115.419 11.1589L115.419 11.1588L115.419 11.1588C115.533 11.04 115.665 10.9013 115.823 10.729V30.1594H119.432V3.71378C117.779 3.33348 116.482 3.52692 115.529 5.1353C114.972 6.07409 114.275 6.92906 113.578 7.78384L113.578 7.7839L113.578 7.78394L113.578 7.78397L113.578 7.78401L113.578 7.78404L113.578 7.78408C113.283 8.14542 112.988 8.50673 112.705 8.87433C111.367 10.6059 110.027 12.3363 108.659 14.1036L106.972 16.2828C106.833 16.1061 106.703 15.9416 106.579 15.785L106.579 15.7846L106.578 15.7833L106.578 15.783L106.578 15.7829L106.577 15.7822L106.577 15.7815L106.576 15.781C106.328 15.4677 106.106 15.186 105.886 14.9019C104.918 13.6523 103.951 12.4023 102.984 11.1523L102.983 11.1516C101.368 9.06352 99.7522 6.97542 98.1346 4.88898C96.9952 3.41974 96.3772 3.23876 94.4082 3.79722V30.1728H98.1253ZM206.166 21.6286C206.134 21.386 206.102 21.1434 206.064 20.9025C206.119 19.2541 206.475 17.7252 207.482 16.394C210.057 12.9924 215.068 13.5202 216.889 17.4235C217.872 19.5306 217.921 21.7326 217.064 23.899C216.069 26.4138 214 27.7021 211.395 27.527C209.136 27.3751 207.067 25.5966 206.438 23.2008C206.304 22.688 206.235 22.1583 206.166 21.6286ZM205.619 11.6017H202.72V37.0356C202.818 37.0449 202.909 37.055 202.995 37.0645C203.164 37.0831 203.313 37.0997 203.463 37.1038C206.362 37.1812 206.362 37.18 206.362 34.2879V27.9898C210.029 32.0017 217.904 31.7568 220.54 25.2809C221.705 22.4193 221.707 19.472 220.621 16.5925C219.242 12.9317 216.028 10.9167 212.108 11.1002C209.586 11.2183 207.432 12.1166 205.619 14.0908V11.6017ZM246.99 14.194C249.289 14.6455 251.371 16.9084 251.683 19.55L251.684 19.5539C251.745 20.0689 252.124 23.2713 250.446 25.4118C247.865 28.7036 242.723 28.3942 240.805 24.6276C239.564 22.1893 239.61 19.6263 240.822 17.1812C241.99 14.8243 244.464 13.6978 246.99 14.194ZM236.339 20.926C236.329 26.6942 240.237 30.6952 245.866 30.6784C251.426 30.6616 255.297 26.6714 255.296 20.958C255.296 15.2027 251.365 11.1 245.84 11.0886C240.305 11.0772 236.348 15.1738 236.339 20.926ZM191.456 25.4731L192.336 23.3256C193.021 21.6527 193.675 20.0576 194.327 18.4618C194.541 17.9381 194.757 17.415 194.973 16.892C195.575 15.4323 196.177 13.9727 196.742 12.4986C197.009 11.7993 197.39 11.5447 198.127 11.602C198.709 11.6472 199.294 11.6375 199.927 11.627C200.215 11.6222 200.513 11.6173 200.824 11.6173C200.762 11.7957 200.708 11.9596 200.658 12.113L200.657 12.1137L200.657 12.1138C200.558 12.415 200.472 12.6755 200.363 12.9258C199.319 15.3231 198.274 17.7197 197.228 20.1163L197.228 20.1172C194.89 25.4756 192.553 30.834 190.231 36.1996C189.912 36.9363 189.556 37.3272 188.695 37.2378C188.132 37.1788 187.561 37.1912 186.915 37.2053H186.915L186.914 37.2053C186.609 37.212 186.286 37.219 185.94 37.219C186.164 36.7238 186.362 36.2432 186.553 35.7794L186.553 35.7793L186.553 35.7792C186.952 34.8084 187.321 33.9118 187.839 33.1118C189.556 30.4585 189.423 28.0652 187.911 25.2582C186.376 22.4075 185.082 19.4256 183.789 16.4438L183.789 16.4432C183.249 15.2002 182.71 13.9573 182.153 12.7238C182.062 12.5223 181.988 12.3131 181.899 12.0612L181.899 12.0611L181.899 12.0607L181.898 12.059C181.851 11.9261 181.8 11.7812 181.74 11.6194C182.097 11.6194 182.444 11.6141 182.781 11.6089L182.781 11.6089C183.643 11.5956 184.449 11.5831 185.246 11.6624C185.56 11.6939 185.938 12.1964 186.091 12.5648C187.246 15.3289 188.38 18.102 189.513 20.8752L189.517 20.8841L189.52 20.8912L189.522 20.8965C189.949 21.9405 190.376 22.9845 190.803 24.028C190.915 24.2989 191.038 24.565 191.189 24.893L191.19 24.8941L191.19 24.8942L191.19 24.8944C191.27 25.0669 191.358 25.2566 191.456 25.4731ZM123.28 11.6037H123.28H123.28C122.938 11.6089 122.584 11.6143 122.213 11.6143C122.288 11.8022 122.351 11.9641 122.407 12.1085L122.407 12.1086C122.51 12.3734 122.591 12.5798 122.682 12.7811C123.219 13.9664 123.755 15.1525 124.29 16.3385L124.291 16.3398L124.291 16.3399C126.02 20.1688 127.75 23.9977 129.525 27.8051C129.979 28.7787 130.027 29.5496 129.535 30.5219C128.784 32.0057 128.1 33.5229 127.375 35.1315C127.069 35.808 126.757 36.5006 126.429 37.2137C126.768 37.2137 127.082 37.2061 127.378 37.1989C127.995 37.1838 128.536 37.1706 129.069 37.2323C130.01 37.3415 130.422 36.955 130.788 36.1087C133.092 30.7655 135.425 25.4346 137.759 20.1037C138.618 18.1406 139.477 16.1776 140.335 14.2139C140.573 13.6683 140.8 13.1179 141.047 12.5211L141.047 12.52L141.048 12.5198L141.048 12.5178C141.168 12.2287 141.292 11.9287 141.424 11.6131C141.086 11.6131 140.764 11.6162 140.453 11.6192C139.751 11.626 139.106 11.6322 138.462 11.6011C137.869 11.5725 137.553 11.7599 137.338 12.338C136.982 13.2959 136.588 14.2398 136.195 15.1836L136.195 15.1838L136.195 15.1839L136.194 15.1843L136.194 15.1846C136.032 15.5737 135.87 15.9629 135.71 16.3531L134.555 19.1752L131.954 25.5267C131.878 25.3493 131.811 25.1958 131.751 25.0574L131.749 25.0527L131.749 25.0523C131.64 24.8014 131.552 24.6005 131.469 24.3979C131.092 23.4796 130.715 22.5609 130.338 21.6423L130.336 21.6373C129.085 18.5863 127.834 15.5351 126.557 12.4948C126.408 12.1417 126.005 11.6856 125.683 11.6542C124.912 11.5791 124.133 11.5909 123.28 11.6037H123.28ZM225.526 14.4488H222.184V11.5382H225.49V5.90686H229.26V11.4858H234.507V14.4138H229.259V15.9803C229.259 16.8104 229.27 17.641 229.28 18.4716C229.304 20.344 229.328 22.2164 229.231 24.0825C229.057 27.4115 231.294 28.0803 233.737 26.9967C233.85 26.9464 233.965 26.902 234.114 26.8451C234.194 26.8142 234.284 26.7796 234.389 26.7384C234.481 26.9427 234.578 27.1431 234.674 27.3418L234.674 27.3422L234.674 27.3424C234.92 27.8527 235.16 28.3514 235.318 28.8749C235.386 29.1026 235.101 29.6083 234.851 29.7331C232.759 30.777 230.564 31.0402 228.386 30.0955C226.183 29.1404 225.578 27.1572 225.54 24.9758C225.504 22.8375 225.512 20.6984 225.52 18.5592L225.52 18.5473C225.523 17.6366 225.526 16.726 225.526 15.8154V14.4488ZM169.608 30.1728H173.251C173.251 30.058 173.251 29.9512 173.251 29.8495C173.251 29.6602 173.251 29.4887 173.251 29.3174C173.251 28.3422 173.248 27.3669 173.245 26.3916C173.238 24.1617 173.231 21.9319 173.261 19.7027C173.304 16.5239 175.278 14.6038 178.404 14.5866C178.766 14.5847 179.128 14.5596 179.484 14.5348C179.648 14.5234 179.81 14.5122 179.971 14.5032V11.6477C176.792 11.0871 174.954 11.7839 172.541 14.4873C172.459 13.493 172.385 12.5902 172.304 11.5953H170.961H169.608V30.1728Z" fill="white" /><path d="M32.2455 3.56115C18.922 6.12527 14.0137 15.4709 11.7237 25.967C10.9513 29.5071 9.95096 31.0766 6.95276 32.2646C3.95456 33.4525 1.0368 34.7455 0.311242 37.58C-0.740761 41.6897 0.924402 45.1546 4.54487 47.1912C8.16534 49.2277 6.82514 52.7557 8.73761 58.6297C10.6501 64.5037 25.4034 61.4984 31.7555 58.6297C38.1077 55.761 47.4995 54.7692 52.7588 52.6518C58.0181 50.5344 64.8822 52.6191 68.0241 51.3896C71.1661 50.1602 68.0712 42.4102 68.5915 38.1827C69.1976 33.2586 77.245 26.5276 79.0208 21.3366C80.7967 16.1456 80.4145 13.9675 73.4883 15.7358C66.6278 17.4873 61.2586 15.4079 58.7651 11.8235C56.2717 8.23916 59.4863 5.01229 57.7788 2.00698C56.2537 -0.677144 52.3018 -0.436787 48.3039 1.36229C44.4997 3.07416 38.9887 2.2634 32.2455 3.56115Z" fill="white" /><mask id="mask0_451_35" style="mask-type:alpha" maskUnits="userSpaceOnUse" x="11" y="5" width="67" height="55"><path fill-rule="evenodd" clip-rule="evenodd" d="M54.6019 47.3805C51.3708 50.2801 47.4573 52.2974 43.2089 53.1549C45.6994 51.502 46.918 49.2477 47.3259 48.3575C42.987 51.2081 38.2205 53.7928 33.0404 55.8849C7.32172 66.2723 8.82342 50.1645 16.1304 46.6587C11.3122 52.3858 17.8154 55.0115 29.4119 51.8165C28.0232 51.2626 26.6367 50.5752 25.2621 49.7465C15.1783 43.6676 11.6371 31.5707 16.0503 19.7744C19.4755 10.6188 29.5632 5.03894 38.9639 5.17024C49.2337 5.31367 56.8241 10.4178 60.1404 19.2975C61.6256 29.5943 54.2851 39.3424 40.5062 47.5638C51.6358 42.1927 64.8528 32.654 77.0327 17.5833C74.4828 21.9583 69.0709 29.6709 61.0012 37.4077C59.8724 41.0468 57.8215 44.4912 54.6019 47.3805Z" fill="#057A97" /></mask><g mask="url(#mask0_451_35)"><path d="M54.6018 47.3806C47.0646 54.1447 35.813 56.1072 25.262 49.7466C15.1783 43.6677 11.6371 31.5708 16.0502 19.7745C19.4755 10.6189 29.5632 5.03903 38.9638 5.17033C49.8714 5.32267 57.7563 11.0708 60.7082 20.995C63.392 29.5157 62.6316 40.1744 54.6018 47.3806Z" fill="#119FC3" /><path d="M25.6277 48.8086C39.0858 56.0916 55.6081 48.7596 60.7794 33.2568C64.2282 22.9175 58.6594 12.3127 50.0843 7.80611C57.7009 18.0586 49.0794 28.2122 38.6753 32.5882C27.7872 37.1887 14.7394 33.0516 16.0688 19.7988C11.5734 31.8149 15.0925 43.1073 25.6277 48.8086Z" fill="#078FB2" /><path d="M14.253 31.4808C25.0071 50.8304 62.542 36.1203 55.398 11.7209C82.7271 -3.91235 113.32 38.5916 55.398 67.761C-2.52397 96.9303 -5.61437 38.5916 14.253 31.4808Z" fill="#057A97" /><path d="M28.0856 13.9584C25.0501 14.3164 22.0881 17.303 23.7068 19.8479C26.7252 24.6345 33.4117 21.0973 32.7602 17.1862C32.5449 16.1506 31.9395 15.2376 31.0691 14.6366C30.1988 14.0357 29.1303 13.7928 28.0856 13.9584Z" fill="#078FB2" /><path d="M34.9106 9.67173C34.0478 10.8357 34.1161 12.8284 35.5204 13.0967C38.1532 13.6103 39.1051 10.1532 37.5435 9.10718C37.1161 8.84499 36.6043 8.75727 36.1141 8.86239C35.6238 8.96751 35.1928 9.25737 34.9106 9.67173Z" fill="#078FB2" /><path d="M39.5707 20.7395C40.5759 19.7662 41.5742 18.7995 42.5505 17.8101C43.3591 16.9914 44.2155 16.5767 45.073 16.5767C45.9187 16.5767 46.7656 16.9799 47.5692 17.7961C49.3993 19.6558 51.2275 21.5193 53.0393 23.3987C54.2347 24.6385 54.342 26.3078 53.357 27.7017C52.4981 28.9173 51.1797 29.0518 50.1194 28.0082C49.5536 27.4512 48.998 26.8838 48.4421 26.3161C48.1071 25.9742 47.7722 25.6321 47.4349 25.2922C45.9639 23.809 44.0918 23.7918 42.6139 25.2578C42.0877 25.78 41.5678 26.3086 41.048 26.8372C40.6755 27.2161 40.303 27.5949 39.9282 27.9712C38.7221 29.1824 37.7289 29.1728 36.5066 27.9413C36.1721 27.6046 35.8393 27.2664 35.5066 26.9282C34.9923 26.4056 34.4782 25.8831 33.9583 25.3668C32.5646 23.9817 30.6962 23.9479 29.268 25.3107C28.4663 26.0758 27.7028 26.8831 26.9507 27.6985C25.7811 28.9677 24.8061 29.2913 23.8374 28.688C22.7162 27.9903 22.1875 26.2899 22.7457 24.9367C22.9516 24.4366 23.2875 23.9581 23.661 23.5663C25.4873 21.6556 27.3381 19.7685 29.1951 17.8897C30.786 16.2817 32.5326 16.3014 34.136 17.9025C35.1282 18.8943 36.1256 19.8815 37.1116 20.8575C37.4995 21.2414 37.8855 21.6235 38.2689 22.0035C38.7033 21.5794 39.1376 21.1588 39.5707 20.7395Z" fill="white" /><path d="M41.6902 35.3899C42.3189 34.7629 42.9477 34.1358 43.5538 33.4873C44.1125 32.889 44.7171 32.322 45.4692 32.322C45.6946 32.322 45.9325 32.373 46.1868 32.4883C48.8531 33.7039 47.8907 36.5046 46.8548 37.6845C45.4726 39.2579 43.9816 40.7576 42.4937 42.2543C42.094 42.6563 41.6945 43.0581 41.2974 43.4611C39.623 45.1609 37.8457 45.1449 36.1695 43.4407C34.3187 41.5581 32.4717 39.671 30.6353 37.7718C29.4368 36.5307 29.2472 34.9399 30.0992 33.5631C30.9831 32.1341 32.4145 31.9601 33.5911 33.1502C34.0053 33.5682 34.4136 33.992 34.8219 34.4157C35.2967 34.9084 35.7715 35.401 36.2555 35.8847C37.7628 37.3927 39.7009 37.3812 41.2108 35.8687C41.3703 35.7089 41.5303 35.5494 41.6902 35.3899Z" fill="white" /></g><path d="M7.60566 43.5227C8.56525 43.7155 10.2156 45.6893 11.0898 45.2206C11.9639 44.752 10.6418 42.3998 10.8743 41.5633C11.1068 40.7267 12.4854 40.4086 12.4165 39.4072C12.3477 38.4057 10.9281 38.1438 10.3735 37.5563C9.8189 36.9689 10.0344 35.086 9.1017 34.8899C8.16896 34.6937 7.57002 35.8153 6.50022 36.2212C5.43041 36.6271 4.09124 36.146 3.52271 36.7732C2.95417 37.4003 4.67725 39.1829 4.70679 40.4161C4.73632 41.6493 3.52978 42.5947 4.22738 43.5575C4.92498 44.5203 6.64606 43.3299 7.60566 43.5227Z" fill="#119FC3" /><path d="M64.7037 44.8485C63.6333 44.6955 63.2948 43.9526 62.7399 44.2769C62.3707 44.4926 62.5774 44.9489 62.4937 46.2883C62.4356 47.2184 61.3092 47.9101 61.6621 48.4394C62.0149 48.9687 63.172 48.386 63.7062 48.4394C64.7037 48.5392 65.639 49.3955 66.1777 49.0527C66.7164 48.7099 66.0424 47.7131 66.2775 46.958C66.5957 45.9367 67.3488 45.4667 67.0139 44.9644C66.6791 44.4622 65.7742 45.0014 64.7037 44.8485Z" fill="#057A97" /><path d="M54.7149 2.54468C54.3346 2.01539 54.3344 1.5798 53.9832 1.49109C53.7496 1.43209 53.656 1.73798 53.1102 2.31836C52.7313 2.72137 52.0095 2.54941 51.952 2.94424C51.8945 3.33908 52.7372 3.71968 52.9357 3.97326C53.3064 4.44686 53.2168 5.0891 53.5684 5.16232C53.9201 5.23553 54.098 4.56863 54.4827 4.32205C55.0031 3.98852 55.4176 4.01445 55.4722 3.63979C55.5268 3.26513 55.0952 3.07397 54.7149 2.54468Z" fill="#078FB2" /></svg>