<svg width="1117" height="242" viewBox="0 0 1117 242" fill="none" xmlns="http://www.w3.org/2000/svg"><path d="M14.7129 125.972L16.0795 135.395C367.197 118.222 728.097 119.067 1097.4 135.395L1098.9 126.79C731.37 106.192 366.577 107.613 14.7129 125.972Z" fill="url(#paint0_linear_303_13234)" /><path d="M737.843 39.8662H321.209V75.7409H737.843V39.8662Z" fill="url(#paint1_linear_303_13234)" /><path d="M718.629 37.3503L718.444 40.3748C584.797 38.6975 451.094 41.0172 334.478 44.693L334.062 37.3503H718.629Z" fill="url(#paint2_linear_303_13234)" /><path d="M91.7461 66.5972C396.687 43.293 701.916 33.8527 1029.18 56.2218C1062.05 82.4332 1076.53 98.0724 1098.9 126.791C753.253 106.561 347.328 110.068 14.7129 125.972C41.6351 101.622 58.0732 88.4617 91.7461 66.5972Z" fill="url(#paint3_linear_303_13234)" /><path d="M777.309 81.7913L789.293 104.763L836.126 104.952L824.888 82.9331L777.309 81.7913Z" fill="url(#paint4_linear_303_13234)" /><path opacity="0.5" d="M791.818 89.2825C790.241 90.8351 794.359 93.6042 795.877 92.2113C796.575 91.5712 797.015 91.1105 797.536 90.6347C800.444 87.8714 806.027 94.8418 808.358 92.624C810.836 90.3128 810.775 89.2849 817.07 92.7995C820.481 94.724 821.783 92.8105 820.104 91.2464C819.504 90.6846 819.09 90.4445 812.084 86.7058C808.554 84.8399 807.745 86.2858 804.976 88.9283C795.48 83.9017 796.914 84.2782 791.818 89.2825ZM801.456 97.5621C799.21 96.5081 798.737 94.1966 801.082 94.2825C803.427 94.3685 808.102 99.1104 810.608 96.7821C810.859 96.5484 811.187 96.2095 812.24 95.1956C813.815 93.7059 817.977 96.5035 816.334 98.1257C815.541 98.9153 815.214 99.2272 814.113 100.302C813.356 100.98 812.412 101.415 811.404 101.549C810.397 101.684 809.372 101.513 808.463 101.058L801.456 97.5621Z" fill="url(#paint5_linear_303_13234)" /><path d="M843.302 83.8323L848.903 93.911L939.216 94.2976L930.252 85.3517L843.302 83.8323Z" fill="url(#paint6_linear_303_13234)" /><path d="M924.767 88.4895L925.433 90.3955L855.628 89.2537L854.055 87.4465L924.767 88.4895Z" fill="url(#paint7_linear_303_13234)" /><path d="M843.3 83.8313L842.851 86.8702L848.677 98.4773L848.901 93.91L843.3 83.8313Z" fill="url(#paint8_linear_303_13234)" /><path d="M848.902 93.9109C871.972 93.803 904.905 94.0278 939.214 94.2975V99.0537L848.677 98.4783L848.902 93.9109Z" fill="url(#paint9_linear_303_13234)" /><path d="M855.628 89.2358L854.055 87.4376C866.948 78.7795 882.825 86.1969 885.1 88.004C885.883 88.5555 886.631 89.1561 887.339 89.8022L855.628 89.2358Z" fill="url(#paint10_linear_303_13234)" /><path d="M855.628 89.2357C863.243 84.003 875.012 84.1019 887.338 89.8021C874.23 89.6313 855.628 89.2357 855.628 89.2357Z" fill="url(#paint11_linear_303_13234)" /><path d="M907.397 109.42C907.397 110.616 903.72 111.578 899.18 111.578C894.639 111.578 890.962 110.616 890.962 109.42V106.597H907.397V109.42Z" fill="url(#paint12_linear_303_13234)" /><path d="M899.18 108.755C903.718 108.755 907.397 107.789 907.397 106.597C907.397 105.405 903.718 104.439 899.18 104.439C894.641 104.439 890.962 105.405 890.962 106.597C890.962 107.789 894.641 108.755 899.18 108.755Z" fill="url(#paint13_linear_303_13234)" /><path d="M271.41 83.6389C263.022 93.3752 259.578 100.546 256.983 107.299C269.315 107.233 301.582 106.617 301.582 106.617L316.802 81.0207L271.41 83.6389Z" fill="url(#paint14_linear_303_13234)" /><path opacity="0.5" d="M300.446 89.8347C302.024 91.3873 297.906 94.1564 296.388 92.7636C295.69 92.1234 295.25 91.6627 294.729 91.187C291.82 88.4237 286.237 95.394 283.907 93.1763C281.429 90.865 281.49 89.8371 275.195 93.3518C271.784 95.2762 270.481 93.3627 272.16 91.7987C272.76 91.2368 273.174 90.9967 280.181 87.258C283.711 85.3922 284.52 86.838 287.289 89.4805C296.785 84.4539 295.35 84.8304 300.446 89.8347ZM290.808 98.1144C293.055 97.0603 293.528 94.7488 291.183 94.8348C288.838 94.9208 284.162 99.6626 281.657 97.3344C281.405 97.1007 281.078 96.7618 280.024 95.7478C278.449 94.2581 274.287 97.0558 275.93 98.678C276.724 99.4676 277.05 99.7795 278.151 100.855C278.909 101.533 279.853 101.967 280.86 102.102C281.868 102.236 282.893 102.065 283.802 101.61L290.808 98.1144Z" fill="url(#paint15_linear_303_13234)" /><path d="M205.303 106.166L205.528 109.061C205.662 111.479 221.954 110.859 221.81 108.395L221.711 105.698L205.303 106.166Z" fill="url(#paint16_linear_303_13234)" /><path d="M213.574 107.969C218.105 107.813 221.746 106.758 221.706 105.611C221.667 104.465 217.962 103.662 213.431 103.818C208.9 103.974 205.26 105.029 205.299 106.176C205.338 107.322 209.043 108.125 213.574 107.969Z" fill="url(#paint17_linear_303_13234)" /><path d="M225.766 105.707L225.954 108.404C226.053 111.101 242.372 110.508 242.282 107.739L242.183 105.194L225.766 105.707Z" fill="url(#paint18_linear_303_13234)" /><path d="M233.938 107.27C238.471 107.134 242.118 106.094 242.084 104.947C242.05 103.8 238.347 102.981 233.813 103.117C229.28 103.253 225.632 104.293 225.667 105.44C225.701 106.587 229.404 107.406 233.938 107.27Z" fill="url(#paint19_linear_303_13234)" /><path d="M146.601 105.095L164.861 85.4055L121.373 86.7901L90.7949 106.588L146.601 105.095Z" fill="url(#paint20_linear_303_13234)" /><path d="M162.534 95.9603L170.824 87.0235L258.682 85.2163L252.964 95.295L162.534 95.9603Z" fill="url(#paint21_linear_303_13234)" /><path d="M162.425 100.339L252.962 99.1078V95.2957L162.533 95.961L162.425 100.339Z" fill="url(#paint22_linear_303_13234)" /><path d="M176.541 90.1617L175.201 91.9689L213.97 91.4115L246.462 91.0159L247.361 89.3076L176.541 90.1617Z" fill="url(#paint23_linear_303_13234)" /><path d="M213.969 91.4116L218.221 88.4536C234.36 81.5037 244.555 86.5476 247.361 89.3527C247.028 89.9191 246.462 91.061 246.462 91.061L213.969 91.4116Z" fill="url(#paint24_linear_303_13234)" /><path d="M213.969 91.4115C213.969 91.4115 230.332 83.3198 246.462 91.0159L213.969 91.4115Z" fill="url(#paint25_linear_303_13234)" /><path d="M258.68 85.2168L252.962 95.2955V99.1076L259.237 88.0669L258.68 85.2168Z" fill="url(#paint26_linear_303_13234)" /><path d="M344.989 113.898C479.689 110.733 614.657 110.434 743.903 112.999C734.651 91.0074 720.052 69.3298 702.925 49.7478C614.581 47.9497 503.85 50.6469 382.438 55.7807C366.554 73.9601 353.423 94.0043 344.989 113.898Z" fill="url(#paint27_linear_303_13234)" /><path d="M380.712 54.2261L383.121 56.9233C494.94 52.7606 624.075 48.8946 702.816 50.5309L705.415 48.0944C600.798 45.9456 486.606 49.8566 380.712 54.2261Z" fill="url(#paint28_linear_303_13234)" /><path d="M702.793 50.5488C702.793 50.5488 730.889 85.2173 742.838 113.125L752.323 113.305L705.409 48.1033L702.793 50.5488Z" fill="url(#paint29_linear_303_13234)" /><path d="M383.311 56.5815C383.311 56.5815 358.784 85.7567 346.836 113.664L337.368 113.934L380.695 54.145L383.311 56.5815Z" fill="url(#paint30_linear_303_13234)" /><path d="M363.673 103.846L363.907 106.75C364.041 109.169 380.324 108.548 380.189 106.085L380.09 103.387L363.673 103.846Z" fill="url(#paint31_linear_303_13234)" /><path d="M371.958 105.655C376.489 105.499 380.13 104.444 380.09 103.297C380.051 102.151 376.346 101.348 371.815 101.504C367.284 101.66 363.643 102.715 363.683 103.862C363.722 105.008 367.427 105.811 371.958 105.655Z" fill="url(#paint32_linear_303_13234)" /><path d="M387.319 103.945L387.544 106.84C387.688 109.268 403.97 108.638 403.835 106.175L403.728 103.478L387.319 103.945Z" fill="url(#paint33_linear_303_13234)" /><path d="M395.601 105.751C400.132 105.595 403.773 104.54 403.734 103.393C403.694 102.247 399.989 101.444 395.459 101.6C390.928 101.756 387.287 102.811 387.326 103.958C387.366 105.104 391.071 105.907 395.601 105.751Z" fill="url(#paint34_linear_303_13234)" /><path d="M410.866 103.945L411.1 106.84C411.235 109.268 427.517 108.638 427.382 106.175L427.283 103.478L410.866 103.945Z" fill="url(#paint35_linear_303_13234)" /><path d="M419.127 105.751C423.658 105.595 427.299 104.539 427.259 103.393C427.22 102.247 423.515 101.444 418.984 101.599C414.453 101.755 410.812 102.811 410.852 103.957C410.891 105.104 414.596 105.907 419.127 105.751Z" fill="url(#paint36_linear_303_13234)" /><path d="M708.294 104.044V107.442C708.294 110.283 727.372 110.382 727.399 107.541L727.48 104.331L708.294 104.044Z" fill="url(#paint37_linear_303_13234)" /><path d="M727.44 104.282C727.455 102.942 723.159 101.81 717.846 101.754C712.533 101.698 708.215 102.74 708.201 104.081C708.187 105.421 712.483 106.553 717.795 106.609C723.108 106.664 727.426 105.623 727.44 104.282Z" fill="url(#paint38_linear_303_13234)" /><path d="M365.132 97.2919V92.8145L455.337 92.248L455.561 96.24L365.132 97.2919Z" fill="url(#paint39_linear_303_13234)" /><path d="M365.132 92.8146L370.059 84.0666L456.901 82.4482L455.337 92.2482L365.132 92.8146Z" fill="url(#paint40_linear_303_13234)" /><path d="M455.604 96.219L455.315 92.2169L456.854 82.4426V86.3485L455.604 96.219Z" fill="url(#paint41_linear_303_13234)" /><path d="M371.515 86.6019L399.342 86.0984L396.914 88.5978L370.095 88.8855L371.515 86.6019Z" fill="url(#paint42_linear_303_13234)" /><path d="M370.094 88.8856L370.058 90.441L397.03 89.9645L396.913 88.5979L370.094 88.8856Z" fill="url(#paint43_linear_303_13234)" /><path d="M399.342 86.0984L396.914 88.5983L397.031 89.9652L399.648 89.9382L399.342 86.0984Z" fill="url(#paint44_linear_303_13234)" /><path d="M399.458 87.8425L426.278 87.429L425.414 89.5508L399.647 89.9374L399.458 87.8425Z" fill="url(#paint45_linear_303_13234)" /><path d="M388.066 57.3637C494.84 53.9652 599.026 52.9103 700.622 54.1989L709.613 71.9558C608.916 71.2006 495.631 72.6571 375.092 75.3813L388.066 57.3637Z" fill="url(#paint46_linear_303_13234)" /><path d="M375.064 75.3811L375.361 78.0784C494.939 75.2283 607.827 74.3831 709.882 76.8107L709.585 71.9916C608.124 71.1914 495.065 72.6299 375.064 75.3811Z" fill="url(#paint47_linear_303_13234)" /><path opacity="0.4" d="M389.406 68.0808L395.232 59.4586L453.655 58.4426L450.517 66.7501L389.406 68.0808Z" fill="url(#paint48_linear_303_13234)" /><path opacity="0.4" d="M463.364 58.1278C485.607 57.2287 507.203 56.6713 527.612 56.5454V70.0316C502.438 70.3823 478.963 70.5621 456.846 70.679L463.364 58.1278Z" fill="url(#paint49_linear_303_13234)" /><path d="M593.615 56.2847L629.803 56.5724L631.035 60.1867H593.391L593.615 56.2847Z" fill="url(#paint50_linear_303_13234)" /><path d="M593.391 60.1868V62.0928L631.035 62.4704V60.1868H593.391Z" fill="url(#paint51_linear_303_13234)" /><path d="M630.372 58.2446L631.037 60.1867V62.4703L694.575 62.1826L692.562 58.0918L630.372 58.2446Z" fill="url(#paint52_linear_303_13234)" /><path d="M696.365 56.3835L699.502 62.2815L694.575 62.1826L692.562 58.0918L696.365 56.3835Z" fill="url(#paint53_linear_303_13234)" /><path d="M692.561 58.0918L630.371 58.2446L629.805 56.5724L696.364 56.3835L692.561 58.0918Z" fill="url(#paint54_linear_303_13234)" /><path d="M702.874 67.8917C687.275 67.8378 664.51 67.613 638.778 67.3073L627.684 67.1815L593.519 66.7589V64.7629L701.318 65.4193L702.874 67.8917Z" fill="url(#paint55_linear_303_13234)" /><path d="M638.777 66.1116V67.3074L627.683 67.1815V66.1116H638.777Z" fill="url(#paint56_linear_303_13234)" /><path d="M633.248 67.2265C636.322 67.2265 638.813 66.7233 638.813 66.1026C638.813 65.4819 636.322 64.9788 633.248 64.9788C630.174 64.9788 627.683 65.4819 627.683 66.1026C627.683 66.7233 630.174 67.2265 633.248 67.2265Z" fill="url(#paint57_linear_303_13234)" /><path d="M720.529 100.313C704.93 100.25 682.165 100.025 656.434 99.7194L645.339 99.5936L611.174 99.18V97.175L718.973 97.8404L720.529 100.313Z" fill="url(#paint58_linear_303_13234)" /><path d="M508.327 91.7355C508.327 91.9873 508.255 92.23 508.201 92.4728C508.052 93.1357 507.832 93.7807 507.545 94.3968C505.109 98.3258 496.118 101.266 485.518 101.266C484.942 101.266 484.367 101.266 483.8 101.266C481.113 101.19 478.436 100.889 475.799 100.367C472.935 99.8746 470.167 98.9308 467.599 97.5706C465.706 96.2689 464.337 94.3384 463.733 92.1221C463.729 92.0743 463.729 92.0261 463.733 91.9783C463.705 91.8872 463.684 91.794 463.67 91.6996C462.771 85.406 471.663 80.3082 483.728 80.0115C501.8 79.6878 509.137 85.5858 508.327 91.7355Z" fill="url(#paint59_linear_303_13234)" /><path d="M508.211 92.2569C508.215 92.3318 508.215 92.4068 508.211 92.4817C508.162 93.1691 507.936 93.8321 507.554 94.4057C505.118 98.3347 496.127 101.275 485.527 101.275C478.056 101.275 471.528 99.8092 467.599 97.5795C465.664 96.2502 464.277 94.2627 463.697 91.9872C464.461 87.4019 474.037 83.6797 485.77 83.5628C498.078 83.4369 508.211 87.3209 508.211 92.2569Z" fill="url(#paint60_linear_303_13234)" /><path d="M503.634 84.1204L503.257 87.1053L483.801 101.248C481.113 101.172 478.436 100.871 475.799 100.349L497.736 87.5279L498.743 86.9435L499.22 86.6648L500.937 85.6668L503.634 84.1204Z" fill="url(#paint61_linear_303_13234)" /><path d="M503.634 84.12L500.936 85.6934L499.219 86.6914L498.743 86.9701L497.736 87.5545C490.966 91.4925 480.231 97.7501 475.798 100.375C472.934 99.8833 470.166 98.9395 467.598 97.5793C465.706 96.2776 464.336 94.3471 463.732 92.1309C469.127 90.5934 481.229 87.1679 498.86 82.241C500.532 82.637 502.14 83.2697 503.634 84.12Z" fill="url(#paint62_linear_303_13234)" /><path d="M492.575 85.1002L499.076 84.1921L496.27 86.7635L492.575 85.1002Z" fill="url(#paint63_linear_303_13234)" /><path d="M558.641 91.7356C558.641 91.9874 558.569 92.2301 558.515 92.4729C558.367 93.1372 558.143 93.7827 557.85 94.3969C556.178 97.0942 551.413 99.2879 545.155 100.43C541.986 100.998 538.772 101.278 535.553 101.266C534.968 101.266 534.384 101.266 533.809 101.266C531.333 101.202 528.866 100.956 526.427 100.529C526.187 100.493 525.945 100.448 525.699 100.394C522.803 99.9018 520.003 98.9582 517.4 97.5976C515.491 96.3037 514.105 94.3722 513.489 92.1492C513.485 92.1014 513.485 92.0532 513.489 92.0054C513.457 91.9155 513.436 91.8219 513.426 91.7266C512.527 85.6129 521.033 80.605 532.739 80.1195H533.737C535.853 80.0716 537.822 80.1135 539.644 80.2454C553.642 81.0546 559.369 86.3412 558.641 91.7356Z" fill="url(#paint64_linear_303_13234)" /><path d="M558.523 92.2571C558.528 92.332 558.528 92.4071 558.523 92.4819C558.475 93.1693 558.249 93.8324 557.867 94.4059C555.394 98.3349 546.296 101.275 535.561 101.275C525.518 101.275 514.801 98.9733 513.443 91.9874C514.226 87.4021 523.918 83.6799 535.803 83.563C548.274 83.4372 558.523 87.3212 558.523 92.2571Z" fill="url(#paint65_linear_303_13234)" /><path d="M545.153 100.439C539.018 101.538 532.569 101.614 526.425 100.538L532.718 80.1284C535.075 80.0024 537.293 80.0504 539.623 80.2543L545.153 100.439Z" fill="url(#paint66_linear_303_13234)" /><path d="M533.547 85.0645L536.073 82.0706L538.762 85.1634L533.547 85.0645Z" fill="#68209D" /><path d="M568.846 79.0226C618.88 78.4832 666.297 78.5731 709.92 79.598L716.978 91.2861L568.963 90.6208L568.846 79.0226Z" fill="url(#paint67_linear_303_13234)" /><path d="M568.963 90.6299V92.9135C620.858 92.4101 670.271 92.7907 717.203 94.0554L716.979 91.2952L568.963 90.6299Z" fill="url(#paint68_linear_303_13234)" /><path d="M572.137 80.8388C572.137 80.8388 592.51 80.5781 599.379 80.7309C599.442 81.8188 599.379 83.0056 599.379 83.0056H572.263L572.137 80.8388Z" fill="url(#paint69_linear_303_13234)" /><path d="M572.262 83.0056L572.45 85.0555L599.171 85.0196L599.378 83.0056H572.262Z" fill="url(#paint70_linear_303_13234)" /><path d="M602.373 80.767L604.027 88.3552C641.528 87.7798 677.59 88.3552 711.62 90.4141L706.855 81.1716C672.501 80.1646 637.626 80.1017 602.373 80.767Z" fill="url(#paint71_linear_303_13234)" /><path d="M666.333 82.2322C686.616 82.0164 705.982 83.5718 705.982 83.5718L707.924 86.9524C702.584 86.8715 679.541 85.8465 667.592 85.8825L666.333 82.2322Z" fill="url(#paint72_linear_303_13234)" /><path d="M1001.14 13.831L736.95 2.42993L737.843 72.0523L1014.44 76.5498L1001.14 13.831Z" fill="url(#paint73_linear_303_13234)" /><path d="M750.596 8.31323L751.42 11.2039L986.601 21.0066L992.136 70.5474L996.965 70.5984L989.874 17.6654L750.596 8.31323Z" fill="#5C1693" /><path d="M763.237 66.2964L992.194 70.5049L986.6 21.0066L751.419 11.2039L763.237 66.2964Z" fill="url(#paint74_radial_303_13234)" /><path d="M736.95 2.42993L731.143 12.9638L728.635 60.8212L737.842 72.0523L736.95 2.42993Z" fill="url(#paint75_linear_303_13234)" /><path d="M780.708 22.7495L787.263 58.0751L876.95 59.7244L870.641 25.9462L780.708 22.7495Z" fill="url(#paint76_linear_303_13234)" /><path d="M785.989 25.5806L786.491 28.1311L867.276 31.2684L866.324 28.2927L785.989 25.5806Z" fill="url(#paint77_linear_303_13234)" /><path d="M786.745 30.5032L787.238 34.0485L838.454 35.5449L837.697 32.6457L786.745 30.5032Z" fill="url(#paint78_linear_303_13234)" /><path d="M789.126 45.1692L790.801 54.7679L830.165 55.5841L828.413 46.1129L789.126 45.1692Z" fill="url(#paint79_linear_303_13234)" /><path d="M832.434 46.3765L834.075 55.7456L847.355 55.7796L845.416 46.708L832.434 46.3765Z" fill="url(#paint80_linear_303_13234)" /><path d="M935.582 45.6493C935.973 51.297 947.667 53.4468 948.159 47.9663C948.383 45.9855 946.604 43.9329 944.069 42.7594C942.876 37.4841 932.346 35.8901 932.029 40.8695C931.917 42.641 933.392 44.5051 935.582 45.6493ZM933.693 39.1091C936.455 37.2124 942.202 39.2405 943.387 42.4895C939.329 41.0668 935.917 42.6105 935.606 45.0155C932.824 43.4379 931.532 40.5819 933.693 39.1091ZM940.108 23.3701C926.785 19.6668 911.405 22.8297 910.235 34.6666C909.092 46.2558 924.157 60.3984 942.579 62.4783C974.787 66.115 973.329 32.6185 940.108 23.3701ZM958.463 58.5623C942.035 68.4834 910.047 52.0346 911.721 34.9598C912.647 25.5739 923.459 22.1364 933.619 23.2836C958.042 26.0509 973.742 49.36 958.463 58.5623ZM938.218 32.4638C930.97 30.8352 923.195 33.3812 923.947 40.1112C914.587 35.5919 911.243 45.9971 921.062 48.1377C923.826 48.7488 926.289 48.0336 927.293 46.5073C930.295 49.4538 933.87 51.4486 937.717 52.3234C956.472 56.9197 957.758 36.84 938.218 32.4638ZM925.778 41.2729C924.155 35.1099 930.882 32.108 938.1 33.7235C948.275 36.0008 954.521 45.4538 948.498 49.8661C943.324 53.6316 932.709 51.0442 927.785 45.0197C927.847 43.7054 927.073 42.3546 925.778 41.2729ZM949.347 50.4827C944.324 54.1689 933.506 52.3301 927.589 45.9909C927.62 45.9089 927.648 45.8251 927.672 45.74C932.933 51.7253 943.57 54.1898 948.869 50.3033C955.306 45.5905 948.901 35.5796 938.232 33.1886C931.175 31.6107 923.928 34.3127 925.07 40.7492C924.915 40.6449 924.761 40.5407 924.596 40.4546C923.558 34.0877 930.799 31.3657 938.103 33.0005C949.089 35.4561 955.883 45.7329 949.347 50.4827Z" fill="url(#paint81_linear_303_13234)" /><path d="M137.414 9.97117L353.84 0.695557L352.947 70.3179L107.666 75.232L137.414 9.97117Z" fill="url(#paint82_linear_303_13234)" /><path d="M327.552 64.562L124.84 69.7227L142.575 17.6058L339.369 9.46948L327.552 64.562Z" fill="url(#paint83_radial_303_13234)" /><path opacity="0.5" d="M192.697 34.048C194.671 36.7663 189.643 41.4875 187.746 39.047C186.873 37.9253 186.322 37.1192 185.671 36.2856C182.033 31.4456 175.275 43.4175 172.361 39.5332C169.263 35.4841 169.319 33.7047 161.621 39.6776C157.449 42.9487 155.807 39.6101 157.849 36.9316C158.579 35.9694 159.085 35.5611 167.657 29.2133C171.977 26.0459 173.001 28.5652 176.464 33.1933C188.083 24.6602 186.321 25.2861 192.697 34.048ZM180.963 48.2135C183.714 46.4288 184.255 42.4334 181.365 42.5394C178.474 42.6454 172.795 50.7736 169.663 46.6946C169.348 46.2852 168.938 45.6922 167.62 43.9165C165.65 41.3071 160.569 46.0771 162.625 48.9171C163.618 50.2994 164.026 50.8457 165.404 52.7284C166.35 53.9165 167.522 54.6864 168.768 54.9382C170.013 55.19 171.273 54.9121 172.386 54.1406L180.963 48.2135Z" fill="url(#paint84_linear_303_13234)" /><path d="M353.84 0.695557L358.771 11.2295L362.155 59.0954L352.947 70.3179L353.84 0.695557Z" fill="url(#paint85_linear_303_13234)" /><path d="M340.195 6.57886L339.37 9.46952L142.576 17.6059L141.471 14.2816L340.195 6.57886Z" fill="url(#paint86_linear_303_13234)" /><path d="M141.47 14.2817L121.898 69.8164L124.84 69.7229L142.575 17.606L141.47 14.2817Z" fill="url(#paint87_linear_303_13234)" /><path d="M225.639 24.4158L314.628 20.4624L308.141 55.5414L218.438 57.2673L225.639 24.4158Z" fill="url(#paint88_linear_303_13234)" /><path d="M229.531 26.4817L309.432 23.2085L308.982 26.1757L228.944 29.2959L229.531 26.4817Z" fill="url(#paint89_linear_303_13234)" /><path d="M257.92 30.5713L308.532 28.5818L307.962 31.7955L257.291 33.598L257.92 30.5713Z" fill="url(#paint90_linear_303_13234)" /><path d="M226.744 51.4351L245.312 50.8655L244.691 54.3173L225.944 54.7084L226.744 51.4351Z" fill="url(#paint91_linear_303_13234)" /><path d="M1106.76 165.703C737.629 124.795 366.974 123.572 6.03845 166.602L0.330078 241.152L1116.74 241.323L1106.76 165.703Z" fill="url(#paint92_linear_303_13234)" /><path d="M1106.76 165.703C737.629 124.795 366.974 123.572 6.03845 166.602L0.330078 241.152L1116.74 241.323L1106.76 165.703Z" fill="url(#paint93_linear_303_13234)" fill-opacity="0.7" /><path d="M652.835 127.517C568.689 125.608 510.012 125.435 415.219 127.456L16.126 143.028L6.0293 166.629C6.0293 166.629 366.884 149.043 377.349 153.143C383.176 155.426 411.182 177.687 411.182 177.687H653.345C653.403 177.564 653.46 177.441 653.516 177.318L653.568 177.687C653.568 177.687 679.219 156.379 687.733 152.567C690.278 151.425 845.944 154.428 1106.77 165.703L1098.32 142.884C1098.32 142.884 821.832 129.291 652.835 127.517Z" fill="url(#paint94_linear_303_13234)" /><path d="M1097.4 135.134L1098.3 143.486C909.206 136.426 720.039 132.592 530.836 130.312C359.348 128.246 187.24 135.497 15.9395 144.26L16.0294 135.341C186.339 124.671 358.115 116.604 528.968 116.686C718.923 116.777 907.965 126.091 1097.4 135.134Z" fill="url(#paint95_linear_303_13234)" /><path d="M411.183 177.687H653.522L654.115 180.349H409.844L411.183 177.687Z" fill="url(#paint96_linear_303_13234)" /><path d="M411.185 177.687L416.264 115.534C481.385 113.736 558.984 113.538 645.458 114.518L653.55 177.687H411.185Z" fill="url(#paint97_linear_303_13234)" /><path d="M425.081 122.889C492.512 116.802 618.932 120.191 634.846 121.558C640.24 143.63 643.135 161.891 640.672 170.45C527.046 166.458 424.407 170.837 424.407 170.837C420.865 132.212 425.081 122.889 425.081 122.889Z" fill="url(#paint98_linear_303_13234)" /><path d="M427.546 125.937C427.546 125.937 423.509 161.513 427.096 169.308C454.887 168.931 611.093 167.025 638.65 170.072C637.535 147.811 634.622 128.787 632.599 125.172C564.718 120.641 496.307 121.387 427.546 125.937Z" fill="url(#paint99_linear_303_13234)" /><path d="M487.335 145.401C487.332 147.19 486.923 148.954 486.14 150.562C482.831 157.53 472.986 162.583 461.37 162.583C449.754 162.583 439.9 157.53 436.591 150.562C435.808 148.954 435.399 147.19 435.396 145.401C435.396 135.907 447.03 128.22 461.37 128.22C475.71 128.22 487.335 135.907 487.335 145.401Z" fill="url(#paint100_linear_303_13234)" /><path d="M486.392 148.234C486.395 149.017 486.31 149.798 486.14 150.562C482.831 157.53 472.986 162.583 461.37 162.583C449.754 162.583 439.9 157.53 436.592 150.562C436.421 149.798 436.337 149.017 436.34 148.234C436.34 139.09 447.542 131.673 461.37 131.673C475.198 131.673 486.392 139.09 486.392 148.234Z" fill="url(#paint101_radial_303_13234)" /><path d="M460.739 140.825L465.935 145.482H457.277L460.739 140.825Z" fill="url(#paint102_linear_303_13234)" /><path d="M495.544 130.306L495.993 163.788L605.358 163.599L601.33 126.494C601.33 126.494 509.875 125.927 495.544 130.306Z" fill="url(#paint103_radial_303_13234)" /><path d="M495.767 126.494C530.427 125.127 565.563 124.992 601.328 126.494C603.412 138.77 604.757 151.161 605.356 163.599H601.76C601.166 151.497 600.087 140.115 597.956 130.333C564.169 128.382 529.968 128.723 495.533 130.333L495.767 126.494Z" fill="url(#paint104_linear_303_13234)" /><path d="M594.937 135.988C578.693 135.095 562.408 134.652 546.081 134.658V136.707C561.779 136.797 578.1 137.181 595.045 137.858L594.937 135.988ZM595.233 143.774C588.94 143.433 582.044 143.289 575.66 143.451L575.732 142.084L554.595 141.76V139.584C567.452 139.698 580.899 140.055 594.937 140.654L595.233 143.774ZM595.431 155.912H574.752L574.896 157.629L595.818 157.575L595.431 155.912ZM505.928 140.484C505.928 140.484 505.856 134.586 513.624 134.711C519.828 134.649 521.167 140.735 520.277 142.327C519.387 143.918 511.16 152.918 511.16 152.918L521.05 153.107V156.343L506.036 156.469L506.18 153.484C506.18 153.484 515.368 143.531 516.564 141.877C517.76 140.223 516.339 137.633 513.282 137.633C512.436 137.618 511.611 137.902 510.953 138.435C510.295 138.967 509.847 139.715 509.686 140.547L505.928 140.484ZM523.909 134.9L524.431 146.193L528.09 146.13C529.735 143.145 533.763 144.035 534.734 146.57C535.705 149.106 535.409 151.587 534.519 152.468C533.628 153.349 530.482 153.547 529.286 152.603C528.09 151.659 528.09 150.805 528.09 150.805L524.278 150.742C525.177 153.916 528.54 157.036 532.424 156.703C536.308 156.37 538.843 153.529 539.149 152.01C539.455 150.49 539.517 145.797 536.982 143.576C534.447 141.356 530.554 140.484 527.856 142.417C527.635 140.929 527.536 139.425 527.56 137.921L537.342 137.858L537.117 134.873L523.909 134.9Z" fill="url(#paint105_linear_303_13234)" /><path d="M612.515 146.417C612.588 140.863 612.088 135.317 611.023 129.865L608.703 131.762L610.277 148.44L612.515 146.417Z" fill="url(#paint106_linear_303_13234)" /><path d="M610.276 148.44L627.907 148.314L629.921 146.48L612.515 146.417L610.276 148.44Z" fill="url(#paint107_linear_303_13234)" /><path d="M611.022 129.865L627.206 130.054C627.206 130.054 630.802 138.613 629.903 146.48C615.041 146.48 612.497 146.417 612.497 146.417L611.022 129.865Z" fill="url(#paint108_linear_303_13234)" /><defs><linearGradient id="paint0_linear_303_13234" x1="955632" y1="32587.6" x2="955717" y2="6425.97" gradientUnits="userSpaceOnUse"><stop stop-color="#D418D1" /><stop offset="1" stop-color="#6D19A1" /></linearGradient><linearGradient id="paint1_linear_303_13234" x1="440274" y1="5285.82" x2="440268" y2="1192.28" gradientUnits="userSpaceOnUse"><stop stop-color="#D418D1" /><stop offset="1" stop-color="#6D19A1" /></linearGradient><linearGradient id="paint2_linear_303_13234" x1="522.39" y1="71.5477" x2="600.315" y2="-637.827" gradientUnits="userSpaceOnUse"><stop stop-color="#3A2789" /><stop offset="1" stop-color="#5229A6" /></linearGradient><linearGradient id="paint3_linear_303_13234" x1="556.809" y1="35.87" x2="556.808" y2="113.978" gradientUnits="userSpaceOnUse"><stop offset="0.0283688" stop-color="#B53ACD" /><stop offset="1" stop-color="#8726AC" /></linearGradient><linearGradient id="paint4_linear_303_13234" x1="807.644" y1="80.7929" x2="806.797" y2="104.954" gradientUnits="userSpaceOnUse"><stop stop-color="#BF2FC7" /><stop offset="1" stop-color="#9F2AB8" /></linearGradient><linearGradient id="paint5_linear_303_13234" x1="-22189.7" y1="482.718" x2="-21962.2" y2="1209.36" gradientUnits="userSpaceOnUse"><stop stop-color="#D418D1" /><stop offset="1" stop-color="#6D19A1" /></linearGradient><linearGradient id="paint6_linear_303_13234" x1="891.259" y1="75.4562" x2="891.259" y2="94.2976" gradientUnits="userSpaceOnUse"><stop stop-color="#9F2AB8" /><stop offset="1" stop-color="#BF2FC7" /></linearGradient><linearGradient id="paint7_linear_303_13234" x1="49446.7" y1="407.441" x2="49446.7" y2="392.453" gradientUnits="userSpaceOnUse"><stop stop-color="#D418D1" /><stop offset="1" stop-color="#6D19A1" /></linearGradient><linearGradient id="paint8_linear_303_13234" x1="9297.08" y1="1760.07" x2="9180.78" y2="1712.32" gradientUnits="userSpaceOnUse"><stop stop-color="#D418D1" /><stop offset="1" stop-color="#6D19A1" /></linearGradient><linearGradient id="paint9_linear_303_13234" x1="893.946" y1="99.6659" x2="893.946" y2="91.1159" gradientUnits="userSpaceOnUse"><stop stop-color="#7323A3" /><stop offset="1" stop-color="#A12AB9" /></linearGradient><linearGradient id="paint10_linear_303_13234" x1="855.936" y1="84.8914" x2="890.616" y2="84.8914" gradientUnits="userSpaceOnUse"><stop stop-color="#9F2AB8" /><stop offset="0.681818" stop-color="#C830D1" /><stop offset="1" stop-color="#B42EC2" /></linearGradient><linearGradient id="paint11_linear_303_13234" x1="871.483" y1="90.3216" x2="871.483" y2="83.0673" gradientUnits="userSpaceOnUse"><stop stop-color="#7323A3" /><stop offset="1" stop-color="#A12AB9" /></linearGradient><linearGradient id="paint12_linear_303_13234" x1="899.18" y1="112.168" x2="899.18" y2="103.931" gradientUnits="userSpaceOnUse"><stop stop-color="#7323A3" /><stop offset="1" stop-color="#A12AB9" /></linearGradient><linearGradient id="paint13_linear_303_13234" x1="899.18" y1="100.985" x2="899.179" y2="108.755" gradientUnits="userSpaceOnUse"><stop stop-color="#9F2AB8" /><stop offset="1" stop-color="#BF2FC7" /></linearGradient><linearGradient id="paint14_linear_303_13234" x1="287.368" y1="81.0207" x2="287.367" y2="107.138" gradientUnits="userSpaceOnUse"><stop stop-color="#BF2FC7" /><stop offset="1" stop-color="#9F2AB8" /></linearGradient><linearGradient id="paint15_linear_303_13234" x1="23282" y1="483.27" x2="23054.5" y2="1209.92" gradientUnits="userSpaceOnUse"><stop stop-color="#D418D1" /><stop offset="1" stop-color="#6D19A1" /></linearGradient><linearGradient id="paint16_linear_303_13234" x1="213.557" y1="111.169" x2="213.557" y2="103.08" gradientUnits="userSpaceOnUse"><stop stop-color="#7323A3" /><stop offset="1" stop-color="#A12AB9" /></linearGradient><linearGradient id="paint17_linear_303_13234" x1="213.317" y1="100.495" x2="213.574" y2="107.969" gradientUnits="userSpaceOnUse"><stop stop-color="#9F2AB8" /><stop offset="1" stop-color="#BF2FC7" /></linearGradient><linearGradient id="paint18_linear_303_13234" x1="234.024" y1="110.735" x2="234.024" y2="102.543" gradientUnits="userSpaceOnUse"><stop stop-color="#7323A3" /><stop offset="1" stop-color="#A12AB9" /></linearGradient><linearGradient id="paint19_linear_303_13234" x1="233.713" y1="99.792" x2="233.938" y2="107.27" gradientUnits="userSpaceOnUse"><stop stop-color="#9F2AB8" /><stop offset="1" stop-color="#BF2FC7" /></linearGradient><linearGradient id="paint20_linear_303_13234" x1="128.995" y1="84.4924" x2="128.432" y2="106.603" gradientUnits="userSpaceOnUse"><stop stop-color="#BF2FC7" /><stop offset="1" stop-color="#9F2AB8" /></linearGradient><linearGradient id="paint21_linear_303_13234" x1="210.608" y1="76.6172" x2="210.608" y2="95.9603" gradientUnits="userSpaceOnUse"><stop stop-color="#9F2AB8" /><stop offset="1" stop-color="#BF2FC7" /></linearGradient><linearGradient id="paint22_linear_303_13234" x1="207.694" y1="100.937" x2="207.694" y2="92.596" gradientUnits="userSpaceOnUse"><stop stop-color="#7323A3" /><stop offset="1" stop-color="#A12AB9" /></linearGradient><linearGradient id="paint23_linear_303_13234" x1="49300.4" y1="378.083" x2="49300.4" y2="364.557" gradientUnits="userSpaceOnUse"><stop stop-color="#D418D1" /><stop offset="1" stop-color="#6D19A1" /></linearGradient><linearGradient id="paint24_linear_303_13234" x1="215.857" y1="86.5087" x2="250.649" y2="86.5087" gradientUnits="userSpaceOnUse"><stop stop-color="#9F2AB8" /><stop offset="0.681818" stop-color="#C830D1" /><stop offset="1" stop-color="#B42EC2" /></linearGradient><linearGradient id="paint25_linear_303_13234" x1="230.215" y1="91.8516" x2="230.215" y2="85.7059" gradientUnits="userSpaceOnUse"><stop stop-color="#7323A3" /><stop offset="1" stop-color="#A12AB9" /></linearGradient><linearGradient id="paint26_linear_303_13234" x1="256.1" y1="100.752" x2="256.1" y2="77.7818" gradientUnits="userSpaceOnUse"><stop stop-color="#7323A3" /><stop offset="1" stop-color="#A12AB9" /></linearGradient><linearGradient id="paint27_linear_303_13234" x1="544.93" y1="53.5063" x2="544.93" y2="118.079" gradientUnits="userSpaceOnUse"><stop stop-color="#C331CC" /><stop offset="1" stop-color="#7721A2" /></linearGradient><linearGradient id="paint28_linear_303_13234" x1="502.671" y1="47.4871" x2="604.483" y2="56.9234" gradientUnits="userSpaceOnUse"><stop stop-color="#752AAC" /><stop offset="1" stop-color="#A723BC" /></linearGradient><linearGradient id="paint29_linear_303_13234" x1="702.793" y1="48.1033" x2="741.43" y2="113.305" gradientUnits="userSpaceOnUse"><stop stop-color="#541885" /><stop offset="1" stop-color="#7919A2" /></linearGradient><linearGradient id="paint30_linear_303_13234" x1="337.368" y1="54.145" x2="372.601" y2="114.288" gradientUnits="userSpaceOnUse"><stop stop-color="#541885" /><stop offset="1" stop-color="#7919A2" /></linearGradient><linearGradient id="paint31_linear_303_13234" x1="378.403" y1="106.202" x2="364.75" y2="106.202" gradientUnits="userSpaceOnUse"><stop stop-color="#7323A3" /><stop offset="1" stop-color="#A12AB9" /></linearGradient><linearGradient id="paint32_linear_303_13234" x1="371.815" y1="101.504" x2="371.958" y2="105.649" gradientUnits="userSpaceOnUse"><stop stop-color="#AF39C3" /><stop offset="1" stop-color="#C927CC" /></linearGradient><linearGradient id="paint33_linear_303_13234" x1="402.05" y1="106.294" x2="388.397" y2="106.294" gradientUnits="userSpaceOnUse"><stop stop-color="#7323A3" /><stop offset="1" stop-color="#A12AB9" /></linearGradient><linearGradient id="paint34_linear_303_13234" x1="395.459" y1="101.6" x2="395.601" y2="105.745" gradientUnits="userSpaceOnUse"><stop stop-color="#AF39C3" /><stop offset="1" stop-color="#C927CC" /></linearGradient><linearGradient id="paint35_linear_303_13234" x1="425.597" y1="106.294" x2="411.944" y2="106.294" gradientUnits="userSpaceOnUse"><stop stop-color="#7323A3" /><stop offset="1" stop-color="#A12AB9" /></linearGradient><linearGradient id="paint36_linear_303_13234" x1="418.984" y1="101.599" x2="419.127" y2="105.745" gradientUnits="userSpaceOnUse"><stop stop-color="#AF39C3" /><stop offset="1" stop-color="#C927CC" /></linearGradient><linearGradient id="paint37_linear_303_13234" x1="725.405" y1="107.254" x2="709.545" y2="107.254" gradientUnits="userSpaceOnUse"><stop stop-color="#7323A3" /><stop offset="1" stop-color="#A12AB9" /></linearGradient><linearGradient id="paint38_linear_303_13234" x1="708.201" y1="104.081" x2="727.413" y2="104.279" gradientUnits="userSpaceOnUse"><stop stop-color="#AF39C3" /><stop offset="1" stop-color="#C927CC" /></linearGradient><linearGradient id="paint39_linear_303_13234" x1="410.347" y1="97.8892" x2="410.347" y2="89.5484" gradientUnits="userSpaceOnUse"><stop stop-color="#7323A3" /><stop offset="1" stop-color="#A12AB9" /></linearGradient><linearGradient id="paint40_linear_303_13234" x1="411.016" y1="74.1514" x2="411.016" y2="92.8146" gradientUnits="userSpaceOnUse"><stop stop-color="#9F2AB8" /><stop offset="1" stop-color="#CE2FD6" /></linearGradient><linearGradient id="paint41_linear_303_13234" x1="456.085" y1="97.8503" x2="456.085" y2="75.0689" gradientUnits="userSpaceOnUse"><stop stop-color="#7323A3" /><stop offset="1" stop-color="#A12AB9" /></linearGradient><linearGradient id="paint42_linear_303_13234" x1="384.718" y1="86.0984" x2="384.718" y2="88.8816" gradientUnits="userSpaceOnUse"><stop stop-color="#AF39C3" /><stop offset="1" stop-color="#C927CC" /></linearGradient><linearGradient id="paint43_linear_303_13234" x1="383.544" y1="90.6593" x2="383.544" y2="87.6114" gradientUnits="userSpaceOnUse"><stop stop-color="#7323A3" /><stop offset="1" stop-color="#A12AB9" /></linearGradient><linearGradient id="paint44_linear_303_13234" x1="398.281" y1="90.4231" x2="398.281" y2="84.0287" gradientUnits="userSpaceOnUse"><stop stop-color="#7323A3" /><stop offset="1" stop-color="#A12AB9" /></linearGradient><linearGradient id="paint45_linear_303_13234" x1="412.988" y1="89.9374" x2="413.059" y2="87.2129" gradientUnits="userSpaceOnUse"><stop stop-color="#611A7F" /><stop offset="0.94" stop-color="#68198D" /></linearGradient><linearGradient id="paint46_linear_303_13234" x1="542.352" y1="53.6675" x2="542.352" y2="75.3813" gradientUnits="userSpaceOnUse"><stop stop-color="#D42FD1" /><stop offset="1" stop-color="#E628DC" /></linearGradient><linearGradient id="paint47_linear_303_13234" x1="563.276" y1="69.2059" x2="561.4" y2="101.858" gradientUnits="userSpaceOnUse"><stop stop-color="#7323A3" /><stop offset="1" stop-color="#A12AB9" /></linearGradient><linearGradient id="paint48_linear_303_13234" x1="421.189" y1="83.7373" x2="424.526" y2="47.0058" gradientUnits="userSpaceOnUse"><stop stop-color="#D418D1" /><stop offset="0.94" stop-color="#6D19A1" /></linearGradient><linearGradient id="paint49_linear_303_13234" x1="491.853" y1="93.638" x2="498.327" y2="40.1127" gradientUnits="userSpaceOnUse"><stop stop-color="#D418D1" /><stop offset="0.94" stop-color="#6D19A1" /></linearGradient><linearGradient id="paint50_linear_303_13234" x1="612.213" y1="54.3631" x2="612.213" y2="60.1811" gradientUnits="userSpaceOnUse"><stop stop-color="#C638CD" /><stop offset="1" stop-color="#CC27C7" /></linearGradient><linearGradient id="paint51_linear_303_13234" x1="612.213" y1="62.7408" x2="612.213" y2="58.9645" gradientUnits="userSpaceOnUse"><stop stop-color="#7323A3" /><stop offset="1" stop-color="#A12AB9" /></linearGradient><linearGradient id="paint52_linear_303_13234" x1="662.762" y1="62.4703" x2="662.852" y2="57.7131" gradientUnits="userSpaceOnUse"><stop stop-color="#611A7F" /><stop offset="0.94" stop-color="#68198D" /></linearGradient><linearGradient id="paint53_linear_303_13234" x1="696.032" y1="62.9799" x2="696.032" y2="53.2267" gradientUnits="userSpaceOnUse"><stop stop-color="#7323A3" /><stop offset="1" stop-color="#A12AB9" /></linearGradient><linearGradient id="paint54_linear_303_13234" x1="663.084" y1="58.465" x2="663.084" y2="55.3874" gradientUnits="userSpaceOnUse"><stop stop-color="#7323A3" /><stop offset="1" stop-color="#A12AB9" /></linearGradient><linearGradient id="paint55_linear_303_13234" x1="648.687" y1="67.8917" x2="648.714" y2="64.4913" gradientUnits="userSpaceOnUse"><stop stop-color="#611A7F" /><stop offset="0.94" stop-color="#68198D" /></linearGradient><linearGradient id="paint56_linear_303_13234" x1="633.23" y1="67.4489" x2="633.23" y2="65.4715" gradientUnits="userSpaceOnUse"><stop stop-color="#7323A3" /><stop offset="1" stop-color="#A12AB9" /></linearGradient><linearGradient id="paint57_linear_303_13234" x1="633.248" y1="63.8719" x2="633.248" y2="67.2233" gradientUnits="userSpaceOnUse"><stop stop-color="#C638CD" /><stop offset="1" stop-color="#CC27C7" /></linearGradient><linearGradient id="paint58_linear_303_13234" x1="666.342" y1="100.313" x2="666.369" y2="96.9027" gradientUnits="userSpaceOnUse"><stop stop-color="#611A7F" /><stop offset="0.94" stop-color="#68198D" /></linearGradient><linearGradient id="paint59_linear_303_13234" x1="503.544" y1="92.2343" x2="466.528" y2="92.2343" gradientUnits="userSpaceOnUse"><stop stop-color="#7323A3" /><stop offset="1" stop-color="#A12AB9" /></linearGradient><linearGradient id="paint60_linear_303_13234" x1="486.155" y1="101.275" x2="488.261" y2="82.254" gradientUnits="userSpaceOnUse"><stop stop-color="#611A7F" /><stop offset="0.94" stop-color="#68198D" /></linearGradient><linearGradient id="paint61_linear_303_13234" x1="489.717" y1="103.276" x2="489.717" y2="74.953" gradientUnits="userSpaceOnUse"><stop stop-color="#7323A3" /><stop offset="1" stop-color="#A12AB9" /></linearGradient><linearGradient id="paint62_linear_303_13234" x1="483.683" y1="82.241" x2="483.683" y2="100.35" gradientUnits="userSpaceOnUse"><stop stop-color="#AF39C3" /><stop offset="1" stop-color="#C927CC" /></linearGradient><linearGradient id="paint63_linear_303_13234" x1="7010.33" y1="322.893" x2="7001.26" y2="346.341" gradientUnits="userSpaceOnUse"><stop stop-color="#D418D1" /><stop offset="1" stop-color="#6D19A1" /></linearGradient><linearGradient id="paint64_linear_303_13234" x1="553.799" y1="92.2777" x2="516.319" y2="92.2777" gradientUnits="userSpaceOnUse"><stop stop-color="#7323A3" /><stop offset="1" stop-color="#A12AB9" /></linearGradient><linearGradient id="paint65_linear_303_13234" x1="536.187" y1="101.275" x2="538.267" y2="82.2485" gradientUnits="userSpaceOnUse"><stop stop-color="#611A7F" /><stop offset="0.94" stop-color="#68198D" /></linearGradient><linearGradient id="paint66_linear_303_13234" x1="535.789" y1="80.0591" x2="535.789" y2="101.275" gradientUnits="userSpaceOnUse"><stop stop-color="#AF39C3" /><stop offset="1" stop-color="#C927CC" /></linearGradient><linearGradient id="paint67_linear_303_13234" x1="642.912" y1="68.6208" x2="642.912" y2="91.2861" gradientUnits="userSpaceOnUse"><stop stop-color="#9F2AB8" /><stop offset="1" stop-color="#CE2FD6" /></linearGradient><linearGradient id="paint68_linear_303_13234" x1="652.294" y1="89.2364" x2="651.045" y2="106.941" gradientUnits="userSpaceOnUse"><stop stop-color="#7323A3" /><stop offset="1" stop-color="#A12AB9" /></linearGradient><linearGradient id="paint69_linear_303_13234" x1="33421.2" y1="213.24" x2="33422.8" y2="324.677" gradientUnits="userSpaceOnUse"><stop stop-color="#D418D1" /><stop offset="1" stop-color="#6D19A1" /></linearGradient><linearGradient id="paint70_linear_303_13234" x1="587.505" y1="82.1717" x2="585.173" y2="92.2816" gradientUnits="userSpaceOnUse"><stop stop-color="#7323A3" /><stop offset="1" stop-color="#A12AB9" /></linearGradient><linearGradient id="paint71_linear_303_13234" x1="656.417" y1="106.795" x2="657.487" y2="67.4066" gradientUnits="userSpaceOnUse"><stop stop-color="#D418D1" /><stop offset="0.94" stop-color="#6D19A1" /></linearGradient><linearGradient id="paint72_linear_303_13234" x1="50766.6" y1="352.764" x2="50770.9" y2="580.173" gradientUnits="userSpaceOnUse"><stop stop-color="#D418D1" /><stop offset="1" stop-color="#6D19A1" /></linearGradient><linearGradient id="paint73_linear_303_13234" x1="1005.31" y1="68.7278" x2="1007.3" y2="2.41301" gradientUnits="userSpaceOnUse"><stop stop-color="#8A28AE" /><stop offset="1" stop-color="#7C20BB" /></linearGradient><radialGradient id="paint74_radial_303_13234" cx="0" cy="0" r="1" gradientUnits="userSpaceOnUse" gradientTransform="translate(782.545 5.2289) rotate(-11.3468) scale(256.072 172.424)"><stop stop-color="#4D2D6E" /><stop offset="1" stop-color="#361D4F" /></radialGradient><linearGradient id="paint75_linear_303_13234" x1="741.816" y1="-0.764308" x2="756.096" y2="78.614" gradientUnits="userSpaceOnUse"><stop stop-color="#E102E0" /><stop offset="1" stop-color="#BF05D1" /></linearGradient><linearGradient id="paint76_linear_303_13234" x1="828.829" y1="65.6211" x2="822.721" y2="15.0435" gradientUnits="userSpaceOnUse"><stop stop-color="#64209B" /><stop offset="1" stop-color="#B52EC2" /></linearGradient><linearGradient id="paint77_linear_303_13234" x1="805.245" y1="56.1037" x2="832.487" y2="-2.42213" gradientUnits="userSpaceOnUse"><stop stop-color="#64209B" /><stop offset="1" stop-color="#B52EC2" /></linearGradient><linearGradient id="paint78_linear_303_13234" x1="805.245" y1="56.1037" x2="832.487" y2="-2.42213" gradientUnits="userSpaceOnUse"><stop stop-color="#64209B" /><stop offset="1" stop-color="#B52EC2" /></linearGradient><linearGradient id="paint79_linear_303_13234" x1="762.974" y1="103.815" x2="812.778" y2="9.22915" gradientUnits="userSpaceOnUse"><stop stop-color="#64209B" /><stop offset="1" stop-color="#B52EC2" /></linearGradient><linearGradient id="paint80_linear_303_13234" x1="762.974" y1="103.815" x2="812.778" y2="9.22915" gradientUnits="userSpaceOnUse"><stop stop-color="#64209B" /><stop offset="1" stop-color="#B52EC2" /></linearGradient><linearGradient id="paint81_linear_303_13234" x1="935.144" y1="67.9128" x2="929.849" y2="15.1443" gradientUnits="userSpaceOnUse"><stop stop-color="#64209B" /><stop offset="1" stop-color="#B52EC2" /></linearGradient><linearGradient id="paint82_linear_303_13234" x1="345.737" y1="67.366" x2="348" y2="0.695555" gradientUnits="userSpaceOnUse"><stop stop-color="#8A28AE" /><stop offset="1" stop-color="#7C20BB" /></linearGradient><radialGradient id="paint83_radial_303_13234" cx="0" cy="0" r="1" gradientUnits="userSpaceOnUse" gradientTransform="translate(347.416 9.46949) rotate(-4.00166) scale(223.326 171.289)"><stop stop-color="#4E2D6E" /><stop offset="1" stop-color="#361D4F" /></radialGradient><linearGradient id="paint84_linear_303_13234" x1="28541.6" y1="1136.63" x2="28025" y2="2278.32" gradientUnits="userSpaceOnUse"><stop stop-color="#D418D1" /><stop offset="1" stop-color="#6D19A1" /></linearGradient><linearGradient id="paint85_linear_303_13234" x1="366.128" y1="-2.49868" x2="380.408" y2="76.8796" gradientUnits="userSpaceOnUse"><stop stop-color="#E102E0" /><stop offset="1" stop-color="#BF05D1" /></linearGradient><linearGradient id="paint86_linear_303_13234" x1="181.763" y1="44.1243" x2="165.762" y2="-1.82687" gradientUnits="userSpaceOnUse"><stop stop-color="#5B1C91" /><stop offset="1" stop-color="#52178B" /></linearGradient><linearGradient id="paint87_linear_303_13234" x1="142.085" y1="66.3677" x2="142.085" y2="14.2817" gradientUnits="userSpaceOnUse"><stop stop-color="#7323A2" /><stop offset="1" stop-color="#5B1C91" /></linearGradient><linearGradient id="paint88_linear_303_13234" x1="266.533" y1="63.1368" x2="260.477" y2="12.786" gradientUnits="userSpaceOnUse"><stop stop-color="#64209B" /><stop offset="1" stop-color="#B52EC2" /></linearGradient><linearGradient id="paint89_linear_303_13234" x1="224.634" y1="39.6681" x2="274.985" y2="-5.98903" gradientUnits="userSpaceOnUse"><stop stop-color="#64209B" /><stop offset="1" stop-color="#B52EC2" /></linearGradient><linearGradient id="paint90_linear_303_13234" x1="224.634" y1="39.6681" x2="274.985" y2="-5.98903" gradientUnits="userSpaceOnUse"><stop stop-color="#64209B" /><stop offset="1" stop-color="#B52EC2" /></linearGradient><linearGradient id="paint91_linear_303_13234" x1="241.276" y1="54.7084" x2="320.216" y2="32.4143" gradientUnits="userSpaceOnUse"><stop stop-color="#64209B" /><stop offset="1" stop-color="#B52EC2" /></linearGradient><linearGradient id="paint92_linear_303_13234" x1="557.52" y1="218.282" x2="557.52" y2="161.345" gradientUnits="userSpaceOnUse"><stop offset="0.0283688" stop-color="#992EBA" /><stop offset="1" stop-color="#7222A1" /></linearGradient><linearGradient id="paint93_linear_303_13234" x1="948.693" y1="255.759" x2="252.906" y2="156.36" gradientUnits="userSpaceOnUse"><stop stop-color="#4200FF" /><stop offset="1" stop-color="#DD31BC" stop-opacity="0" /></linearGradient><linearGradient id="paint94_linear_303_13234" x1="210.624" y1="122.856" x2="210.624" y2="169.961" gradientUnits="userSpaceOnUse"><stop offset="0.0283688" stop-color="#B53ACD" /><stop offset="1" stop-color="#8726AC" /></linearGradient><linearGradient id="paint95_linear_303_13234" x1="215.805" y1="116.986" x2="215.805" y2="140.416" gradientUnits="userSpaceOnUse"><stop offset="0.0283688" stop-color="#B53ACD" /><stop offset="1" stop-color="#8726AC" /></linearGradient><linearGradient id="paint96_linear_303_13234" x1="253565" y1="801.356" x2="253565" y2="546.517" gradientUnits="userSpaceOnUse"><stop stop-color="#D418D1" /><stop offset="1" stop-color="#6D19A1" /></linearGradient><linearGradient id="paint97_linear_303_13234" x1="532.367" y1="110.262" x2="532.366" y2="167.881" gradientUnits="userSpaceOnUse"><stop offset="0.0283688" stop-color="#A935C5" /><stop offset="1" stop-color="#8726AC" /></linearGradient><linearGradient id="paint98_linear_303_13234" x1="226942" y1="12178.6" x2="226970" y2="7251.25" gradientUnits="userSpaceOnUse"><stop stop-color="#D418D1" /><stop offset="1" stop-color="#6D19A1" /></linearGradient><linearGradient id="paint99_linear_303_13234" x1="532.13" y1="117.735" x2="532.129" y2="162.697" gradientUnits="userSpaceOnUse"><stop offset="0.0283688" stop-color="#9027B2" /><stop offset="1" stop-color="#7022A0" /></linearGradient><linearGradient id="paint100_linear_303_13234" x1="54221.8" y1="4351.76" x2="50638.5" y2="7293.66" gradientUnits="userSpaceOnUse"><stop stop-color="#D418D1" /><stop offset="1" stop-color="#6D19A1" /></linearGradient><radialGradient id="paint101_radial_303_13234" cx="0" cy="0" r="1" gradientUnits="userSpaceOnUse" gradientTransform="translate(480.45 137.962) scale(43.9042 37.5104)"><stop stop-color="#57327A" /><stop offset="1" stop-color="#361D4F" /></radialGradient><linearGradient id="paint102_linear_303_13234" x1="461.606" y1="140.825" x2="461.606" y2="145.482" gradientUnits="userSpaceOnUse"><stop stop-color="#AD38C2" /><stop offset="1" stop-color="#8126A8" /></linearGradient><radialGradient id="paint103_radial_303_13234" cx="0" cy="0" r="1" gradientUnits="userSpaceOnUse" gradientTransform="translate(609.477 126.47) rotate(-4.83815) scale(114.446 105.968)"><stop stop-color="#4E2D6E" /><stop offset="1" stop-color="#361D4F" /></radialGradient><linearGradient id="paint104_linear_303_13234" x1="547.753" y1="128.324" x2="550.444" y2="157.726" gradientUnits="userSpaceOnUse"><stop offset="0.0283688" stop-color="#64209B" /><stop offset="1" stop-color="#661399" /></linearGradient><linearGradient id="paint105_linear_303_13234" x1="548.074" y1="134.657" x2="548.396" y2="153.73" gradientUnits="userSpaceOnUse"><stop stop-color="#AF39C3" /><stop offset="1" stop-color="#7D24A6" /></linearGradient><linearGradient id="paint106_linear_303_13234" x1="4980.99" y1="3272.76" x2="4820.78" y2="3253.3" gradientUnits="userSpaceOnUse"><stop stop-color="#D418D1" /><stop offset="1" stop-color="#6D19A1" /></linearGradient><linearGradient id="paint107_linear_303_13234" x1="22815.5" y1="555.15" x2="22816.5" y2="490.708" gradientUnits="userSpaceOnUse"><stop stop-color="#D418D1" /><stop offset="1" stop-color="#6D19A1" /></linearGradient><linearGradient id="paint108_linear_303_13234" x1="620.535" y1="128.344" x2="620.534" y2="143.924" gradientUnits="userSpaceOnUse"><stop offset="0.0283688" stop-color="#B53ACD" /><stop offset="1" stop-color="#8726AC" /></linearGradient></defs></svg>