<svg width="432" height="90" viewBox="0 0 432 90" fill="none" xmlns="http://www.w3.org/2000/svg">
<path d="M3.33574 4.85327H4.84814V9.43322H0.263672V7.92231C0.263672 6.22253 1.63428 4.85327 3.33574 4.85327Z" fill="white"/>
<path d="M7.58941 4.85327H16.3802C18.0817 4.85327 19.4523 6.22253 19.4523 7.92231V16.7045H7.58941V4.85327Z" fill="white"/>
<path d="M4.84814 12.1717H0.263672V16.7517H4.84814V12.1717Z" fill="white"/>
<path d="M16.4275 24.023H14.915V19.4902H19.4995V20.9539C19.4995 22.6537 18.1289 24.023 16.4275 24.023Z" fill="white"/>
<path d="M12.1739 19.4902H7.58941V24.0702H12.1739V19.4902Z" fill="white"/>
<path d="M0.263672 21.0011V19.4902H4.84814V24.0702H3.33574C1.63428 24.0702 0.263672 22.7009 0.263672 21.0011Z" fill="white"/>
<path d="M31.0789 6.17533V21.2844H38.7827V22.7481H29.4248V6.17533H31.0789Z" fill="white"/>
<path fill-rule="evenodd" clip-rule="evenodd" d="M49.6055 16.0907C49.6055 13.1161 47.9513 10.6136 44.6429 10.6136C41.4291 10.6136 38.7824 12.9272 38.8769 16.7989V17.2238C38.9714 20.5762 41.7599 23.1258 45.0683 23.0314C46.6752 23.0314 48.2349 22.4176 49.4637 21.3788L48.7548 20.1984C47.715 21.0955 46.4389 21.6149 45.1156 21.6149C42.6579 21.6149 40.5784 19.9624 40.4838 16.9405H49.5582C49.5582 16.9405 49.6055 16.374 49.6055 16.0907ZM44.5484 11.9356C46.3444 11.9356 47.8568 13.1161 47.9513 15.5713H40.4838C40.8619 13.2105 42.5634 11.9356 44.5484 11.9356Z" fill="white"/>
<path fill-rule="evenodd" clip-rule="evenodd" d="M56.2698 10.6136C57.8767 10.5664 59.3891 11.4163 60.1453 12.88H60.1926C60.1453 12.5967 60.1453 12.2662 60.1453 11.9829V6.17533H61.7523V22.7481H60.1926V21.4733C60.1926 21.19 60.1926 20.9067 60.2399 20.6234H60.1926C60.1926 20.6234 59.2473 22.9842 56.128 22.9842C52.9142 22.9842 50.9291 20.4346 50.9291 16.7517C50.9291 13.0689 53.1505 10.6136 56.2698 10.6136ZM56.3643 21.615C58.3494 21.615 60.1926 20.1985 60.1926 16.7989C60.1926 14.3909 58.9638 12.0301 56.4116 12.0301C54.332 12.0301 52.5833 13.8243 52.5833 16.7989C52.5833 19.7735 54.143 21.615 56.3643 21.615Z" fill="white"/>
<path fill-rule="evenodd" clip-rule="evenodd" d="M72.2442 22.5592C72.2442 25.2033 70.401 26.2893 68.0852 26.2893C66.9981 26.2421 65.9111 25.9588 64.9186 25.4394L64.3042 26.7615C65.4857 27.3753 66.8091 27.7058 68.1797 27.7058C71.0627 27.7058 73.8512 26.2421 73.8512 22.4648V10.8969H72.2915V12.5967H72.2442C72.2442 12.5967 71.5353 10.6136 68.3215 10.6136C65.1076 10.6136 63.1698 13.0216 63.1698 16.61C63.1698 20.1984 65.2494 22.7009 68.4632 22.7009C70.3065 22.7009 71.5353 21.9454 72.2442 20.6234H72.2915C72.2442 20.9067 72.2442 21.19 72.2442 21.4733V22.5592ZM68.5578 12.0773C70.6373 12.0773 72.2915 13.1161 72.2915 16.61C72.2915 20.104 70.6373 21.2372 68.7468 21.2372C66.3837 21.2372 64.8713 19.3958 64.8713 16.5628C64.8713 13.7299 66.2419 12.0773 68.5578 12.0773Z" fill="white"/>
<path fill-rule="evenodd" clip-rule="evenodd" d="M81.1299 10.6136C84.391 10.6136 86.0925 13.1161 86.0925 16.0907C86.0925 16.374 86.0452 16.9405 86.0452 16.9405H76.9236C76.9708 19.9624 79.0976 21.6149 81.5553 21.6149C82.8786 21.6149 84.1547 21.0955 85.1472 20.1984L85.9034 21.3788C84.6746 22.4176 83.115 23.0314 81.508 23.0314C78.1996 23.1258 75.4112 20.5762 75.3166 17.2238V16.7989C75.2694 12.9272 77.9161 10.6136 81.1299 10.6136ZM84.4383 15.5713C84.3438 13.1161 82.8314 11.9356 81.0827 11.9356C79.0976 11.9356 77.3489 13.2105 77.0181 15.5713H84.4383Z" fill="white"/>
<path d="M89.117 10.8969H87.5101L87.5574 22.7481H89.1643V17.7432C89.1643 16.9406 89.2588 16.1851 89.4951 15.4296C90.015 13.6827 91.2438 12.3606 92.9453 12.3606C93.1343 12.3606 93.3234 12.3606 93.5124 12.4078V10.8497C93.3943 10.8497 93.2879 10.8379 93.1816 10.8261C93.0753 10.8143 92.9689 10.8025 92.8508 10.8025C91.0075 10.8025 89.6842 12.1717 89.117 13.966H89.0698C89.0698 13.966 89.117 13.541 89.117 13.0216V10.8969Z" fill="white"/>
<path fill-rule="evenodd" clip-rule="evenodd" d="M130.825 3.58716C133.976 3.58716 136.565 6.05728 136.565 9.03482L136.567 10.8319H138.929V23.3004L130.823 27.0626L122.723 23.3004V10.7761H125.085V9.03482C125.085 6.05852 127.674 3.58716 130.825 3.58716ZM130.825 6.50763C129.249 6.50763 128.011 7.63104 128.011 9.03482V10.7761H133.639V9.03482C133.639 7.63104 132.401 6.50763 130.825 6.50763ZM130.823 23.5268L135.665 21.2787V13.753H125.983V21.2806L130.823 23.5268Z" fill="white"/>
<path fill-rule="evenodd" clip-rule="evenodd" d="M189.804 17.0661C189.804 13.3597 192.504 10.6073 196.331 10.6073C200.158 10.6073 202.915 13.3609 202.915 17.068C202.915 20.775 200.102 23.5268 196.331 23.5268C192.56 23.5268 189.804 20.7725 189.804 17.0661ZM193.123 17.0686C193.123 19.1442 194.418 20.6044 196.331 20.6044C198.244 20.6044 199.595 19.1442 199.595 17.0686C199.595 14.993 198.244 13.5328 196.331 13.5328C194.418 13.5328 193.123 14.9347 193.123 17.0686Z" fill="white"/>
<path d="M179.617 10.776H189.24V13.3032L184.006 20.3799H189.24V23.3562H179.617V20.829L184.85 13.753H179.617V10.776Z" fill="white"/>
<path fill-rule="evenodd" clip-rule="evenodd" d="M212.088 18.6951C213.269 18.246 214.509 17.0661 214.509 14.988C214.509 12.4608 212.764 10.8319 210.175 10.8319H204.266V23.3562H207.53V19.1442H208.77L211.077 23.3562H214.848L212.088 18.6951ZM209.781 16.2237H207.53V13.6965H209.781C210.626 13.6965 211.188 14.2021 211.188 14.9322C211.188 15.7182 210.626 16.2237 209.781 16.2237Z" fill="white"/>
<path d="M168.924 10.776H178.041V13.6965H172.188V15.55H177.872V18.4141H172.188V20.4357H178.041V23.3562H168.924V10.776Z" fill="white"/>
<path fill-rule="evenodd" clip-rule="evenodd" d="M167.405 14.988C167.405 12.4608 165.66 10.8319 163.072 10.8319H157.162V23.3562H160.426V19.1442H161.664L163.972 23.3562H167.745L164.988 18.6951C166.167 18.246 167.405 17.0661 167.405 14.988ZM162.678 16.2237H160.426V13.6965H162.678C163.522 13.6965 164.084 14.2021 164.084 14.9322C164.084 15.7182 163.522 16.2237 162.678 16.2237Z" fill="white"/>
<path d="M155.699 10.776H145.513V13.753H148.946V23.3562H152.21V13.753H155.699V10.776Z" fill="white"/>
<path d="M258.411 2.29208C257.539 2.13711 256.647 2.13711 255.775 2.29208L255.774 2.38139C256.631 2.55034 257.453 2.72467 258.261 2.9571C258.974 3.16215 259.656 3.43252 260.339 3.70319L260.34 3.70359C260.431 3.73961 260.522 3.77564 260.613 3.81152C261.388 4.11714 262.189 4.43889 262.885 4.93604C263.577 5.43631 264.181 6.04709 264.674 6.74389C265.159 7.43313 265.604 8.14915 266.009 8.88855C266.397 9.62783 266.736 10.3917 267.024 11.1753C267.637 12.7313 268.027 14.367 268.314 16.0833H268.399C268.684 14.3519 268.486 12.5365 267.913 10.8513C267.611 10.0134 267.214 9.21292 266.73 8.46564C266.26 7.71239 265.692 7.02488 265.042 6.42106C264.404 5.80768 263.734 5.24704 263.062 4.6993C262.979 4.63203 262.896 4.5642 262.813 4.49617L262.812 4.49526C262.22 4.00973 261.616 3.51415 260.93 3.13681C260.143 2.71715 259.292 2.43166 258.411 2.29208Z" fill="white"/>
<path fill-rule="evenodd" clip-rule="evenodd" d="M270.356 15.0686C270.369 18.0056 269.511 20.8806 267.892 23.3299C266.273 25.7792 263.965 27.6928 261.259 28.8287C258.554 29.9646 255.572 30.2718 252.692 29.7114C249.812 29.1511 247.163 27.7484 245.079 25.6806C242.996 23.6129 241.571 20.973 240.986 18.0949C240.401 15.2168 240.682 12.2296 241.793 9.51119C242.904 6.79276 244.795 4.46517 247.227 2.82276C249.66 1.18034 252.524 0.296875 255.458 0.284077C259.392 0.266915 263.171 1.8149 265.965 4.5875C268.759 7.36011 270.339 11.1302 270.356 15.0686ZM269.243 15.0739C269.256 17.7903 268.463 20.4494 266.966 22.7148C265.469 24.9802 263.334 26.7502 260.832 27.8011C259.902 28.1917 258.937 28.4764 257.954 28.6533L257.954 28.6531L257.958 28.6521C257.383 24.6329 260.891 20.6965 262.868 18.6821C263.054 18.4932 263.282 18.2747 263.531 18.0362C263.866 17.7152 264.238 17.3577 264.599 16.987C267.214 14.5704 267.771 11.6685 262.481 10.2261C261.493 9.93989 260.469 9.53491 259.432 9.12485L259.409 9.1156L259.408 9.1105L259.409 9.11128L259.406 9.10213C259.387 9.0283 259.356 8.94945 259.309 8.86541C258.673 7.53008 256.98 7.36883 255.574 7.80706C255.578 7.80738 255.583 7.80774 255.587 7.80813L255.574 7.81137C254.35 7.52297 253.142 7.42075 251.982 7.70376C246.939 9.09447 246.098 11.5496 245.892 14.5084C245.88 14.6575 245.867 14.8049 245.855 14.9506L245.855 14.9526C245.604 17.989 245.412 20.3097 244.24 22.9477C243.191 21.4278 242.453 19.704 242.081 17.8762C241.54 15.2144 241.799 12.4517 242.826 9.9374C243.853 7.42313 245.602 5.27023 247.851 3.75097C250.101 2.2317 252.75 1.41431 255.463 1.40215C259.101 1.38613 262.597 2.81745 265.181 5.38133C267.765 7.94521 269.227 11.4317 269.243 15.0739ZM255.13 12.8147C255.335 12.5074 255.445 12.1463 255.445 11.7768C255.445 11.2813 255.248 10.8062 254.898 10.4558C254.548 10.1055 254.074 9.90869 253.579 9.90869C253.21 9.90869 252.849 10.0183 252.542 10.2235C252.235 10.4288 251.996 10.7206 251.855 11.0619C251.713 11.4033 251.676 11.7789 251.748 12.1412C251.82 12.5036 251.998 12.8365 252.259 13.0977C252.52 13.359 252.853 13.5369 253.215 13.609C253.577 13.6811 253.952 13.6441 254.293 13.5027C254.634 13.3613 254.925 13.1219 255.13 12.8147ZM265.718 15.6723C265.05 16.2813 264.256 16.7322 263.447 17.1304C262.629 17.5193 261.776 17.8302 260.9 18.059C260.023 18.2861 259.108 18.4572 258.181 18.3733C257.255 18.2893 256.308 17.974 255.694 17.2789L255.723 17.2455C256.476 17.7341 257.344 17.9062 258.208 17.931C259.084 17.9577 259.961 17.8855 260.82 17.7158C261.689 17.5337 262.539 17.2707 263.358 16.9302C264.178 16.5912 264.99 16.1985 265.689 15.6389L265.718 15.6723ZM263.558 14.7228C263.62 14.6278 263.653 14.5163 263.653 14.4025C263.652 14.2499 263.59 14.1039 263.482 13.9966C263.373 13.8893 263.227 13.8294 263.074 13.83C262.961 13.8306 262.85 13.865 262.755 13.9288C262.661 13.9926 262.588 14.0829 262.545 14.1884C262.502 14.2938 262.491 14.4096 262.514 14.5212C262.537 14.6327 262.592 14.735 262.673 14.815C262.754 14.8951 262.857 14.9494 262.969 14.971C263.08 14.9925 263.196 14.9805 263.301 14.9363C263.406 14.8922 263.495 14.8179 263.558 14.7228Z" fill="white"/>
<path d="M282.358 10.7459C283.863 10.7459 284.633 11.6175 284.938 12.8087L286.752 12.8023C286.533 10.5651 284.691 9.27161 282.355 9.25762C279.25 9.25762 277.399 11.7316 277.399 14.6951C277.399 17.6587 279.256 20.1283 282.362 20.1283C284.868 20.1283 286.624 18.4152 286.769 15.9316H284.998C284.854 17.4424 283.971 18.6476 282.358 18.6476C280.138 18.6476 279.209 16.6859 279.209 14.6962C279.209 12.7065 280.138 10.7459 282.358 10.7459Z" fill="white"/>
<path fill-rule="evenodd" clip-rule="evenodd" d="M291.627 12.1642C289.218 12.1642 287.84 13.8192 287.84 16.1145C287.84 18.4249 289.218 20.081 291.627 20.081C294.036 20.081 295.414 18.4098 295.414 16.1145C295.414 13.8192 294.036 12.1642 291.627 12.1642ZM291.627 13.4716C293.107 13.4716 293.76 14.8232 293.76 16.1145C293.76 17.422 293.107 18.7735 291.627 18.7735C290.147 18.7735 289.495 17.4069 289.495 16.1145C289.495 14.8221 290.147 13.4716 291.627 13.4716Z" fill="white"/>
<path d="M298.491 9.50513H296.836V11.0741H298.491V9.50513Z" fill="white"/>
<path d="M296.836 12.3675H298.491V19.8776H296.836V12.3675Z" fill="white"/>
<path d="M300.29 12.3676H301.857V13.4716L301.886 13.5007C302.124 13.0917 302.465 12.7527 302.875 12.5178C303.286 12.283 303.751 12.1606 304.223 12.1631C305.848 12.1631 306.878 13.0347 306.878 14.7188V19.8766H305.224V15.1557C305.195 13.9795 304.731 13.4716 303.759 13.4716C302.656 13.4716 301.944 14.3422 301.944 15.4463V19.8776H300.29V12.3676Z" fill="white"/>
<path d="M317.892 19.8776H316.731L316.456 18.6573C315.488 19.7614 314.598 20.124 313.338 20.124C310.235 20.1262 308.373 17.6512 308.373 14.6908C308.373 11.7305 310.235 9.25762 313.336 9.25762C315.594 9.25762 317.501 10.4629 317.776 12.8023H316.005C315.831 11.4367 314.642 10.7394 313.336 10.7394C311.116 10.7394 310.187 12.7001 310.187 14.6898C310.187 16.6795 311.116 18.6412 313.336 18.6412C315.193 18.6702 316.208 17.5522 316.239 15.7938H313.481V14.4154H317.889L317.892 19.8776Z" fill="white"/>
<path fill-rule="evenodd" clip-rule="evenodd" d="M320.925 16.5503C320.925 17.7276 321.564 18.7735 322.942 18.7735C323.899 18.7735 324.48 18.3517 324.769 17.5242H326.337C325.975 19.1652 324.582 20.081 322.942 20.081C320.592 20.081 319.271 18.4389 319.271 16.1296C319.271 13.9935 320.668 12.1642 322.899 12.1642C325.264 12.1642 326.715 14.2991 326.439 16.5503H320.925ZM324.785 15.4613C324.727 14.4154 324.016 13.4716 322.899 13.4716C321.752 13.4716 320.969 14.3422 320.925 15.4613H324.785Z" fill="white"/>
<path d="M332.766 14.8802C332.635 13.9645 331.968 13.4716 331.054 13.4716C330.194 13.4716 328.993 13.9214 328.993 16.2017C328.993 17.451 329.545 18.7735 330.981 18.7735C331.939 18.7735 332.606 18.1343 332.766 17.0593H334.421C334.115 19.006 332.916 20.081 330.981 20.081C328.63 20.081 327.339 18.4098 327.339 16.2017C327.339 13.9354 328.573 12.1642 331.039 12.1642C332.78 12.1642 334.264 13.0358 334.421 14.8802H332.766Z" fill="white"/>
<path d="M335.818 9.50513H337.472V15.4032L340.462 12.3675H342.493L339.62 15.1267L342.768 19.8776H340.748L338.455 16.2307L337.468 17.1895V19.8798H335.818V9.50513Z" fill="white"/>
<path fill-rule="evenodd" clip-rule="evenodd" d="M343.215 16.1145C343.215 13.8192 344.593 12.1642 347.001 12.1642C349.41 12.1642 350.789 13.8192 350.789 16.1145C350.789 18.4098 349.41 20.081 347.001 20.081C344.593 20.081 343.215 18.4249 343.215 16.1145ZM349.135 16.1145C349.135 14.8232 348.482 13.4716 347.001 13.4716C345.521 13.4716 344.869 14.8221 344.869 16.1145C344.869 17.4069 345.521 18.7735 347.001 18.7735C348.482 18.7735 349.135 17.422 349.135 16.1145Z" fill="white"/>
<path d="M431.885 8.04545H428.478V4.68896H425.631V8.04545H422.223V10.7334H425.631V14.0899H428.478V10.7334H431.885V8.04545Z" fill="white"/>
<path d="M387.59 20.267C386.885 20.6081 385.947 20.8429 384.817 20.8429C381.978 20.8429 379.679 18.793 379.679 15.8039C379.679 12.8149 381.874 10.8503 384.838 10.8503C386.907 10.8503 388.165 11.6188 388.549 11.8747L389.849 9.52577L389.82 9.50653C389.241 9.12731 387.665 8.096 384.711 8.096C379.98 8.096 376.629 11.4651 376.629 15.8039C376.629 20.1427 379.977 23.4897 384.647 23.4897C387.781 23.4897 389.552 22.3579 390.361 21.7388V15.825H387.59V20.267Z" fill="white"/>
<path fill-rule="evenodd" clip-rule="evenodd" d="M398.875 8.0402C402.626 8.0402 405.128 10.1712 405.128 13.6203C405.128 15.8218 404.008 17.4916 402.098 18.3929L405.631 23.4908H402.056L399.05 19.0741H396.394V23.4908H393.366V8.0402H398.875ZM396.394 16.4114H398.61L398.611 16.4156C400.651 16.4156 401.99 15.3164 401.99 13.6245C401.99 11.7789 400.63 10.7029 398.633 10.7029H396.394V16.4114Z" fill="white"/>
<path d="M411.305 8.04336H408.277V23.4908H411.305V8.04336Z" fill="white"/>
<path d="M428.462 15.4323V15.8966C428.462 15.8966 428.496 17.02 428.462 17.3916C428.124 21.1524 425.009 23.4908 420.736 23.4908H414.79V8.0402H420.62V10.7239H417.818V20.8102H420.605C423.221 20.8102 425.269 19.5521 425.558 17.3916C425.607 17.021 425.638 15.8966 425.638 15.8966V15.4323H428.462Z" fill="white"/>
<path d="M24.5458 54.9171C24.8684 55.6048 25.6632 56.9598 25.6632 56.9598L34.8545 41.7637L25.8862 48.028C25.1849 48.5523 24.8352 48.9787 24.6096 49.4315C23.3884 51.8939 24.2275 54.2285 24.5458 54.9171Z" fill="white"/>
<path d="M59.533 82.9832V79.0748L58.185 81.9286C58.1825 81.9338 58.1786 81.9381 58.1738 81.9411C58.169 81.9442 58.1633 81.9457 58.1577 81.9457H57.5339C57.5283 81.9456 57.5229 81.9439 57.5183 81.9409C57.5159 81.9394 57.5138 81.9376 57.5119 81.9355C57.5102 81.9334 57.5087 81.9311 57.5075 81.9286L56.1263 79.0748V82.9824C56.1263 82.9863 56.1255 82.9901 56.124 82.9938L56.1233 82.9955L56.1217 82.9981C56.1205 83 56.1191 83.0018 56.1175 83.0034C56.1148 83.0062 56.1115 83.0084 56.1079 83.0099C56.1042 83.0114 56.1004 83.0121 56.0965 83.0121H55.2624C55.2585 83.0121 55.2547 83.0114 55.251 83.0099C55.2475 83.0084 55.2441 83.0062 55.2414 83.0034C55.2386 83.0006 55.2364 82.9974 55.2349 82.9938C55.2334 82.9901 55.2327 82.9863 55.2327 82.9824V77.1521C55.2327 77.1442 55.2358 77.1366 55.2414 77.131C55.247 77.1254 55.2545 77.1223 55.2624 77.1223H56.1076C56.1132 77.1222 56.1188 77.1238 56.1236 77.1268C56.1285 77.1298 56.1323 77.1342 56.1347 77.1393L57.847 80.7873L59.5236 77.1368C59.526 77.1316 59.5299 77.1273 59.5347 77.1243C59.5396 77.1213 59.5451 77.1197 59.5509 77.1197H60.3951C60.3982 77.1197 60.4012 77.1202 60.404 77.1211C60.407 77.122 60.4098 77.1235 60.4124 77.1253L60.4147 77.1272L60.4161 77.1285C60.4217 77.1341 60.4248 77.1416 60.4248 77.1495V82.9798C60.4248 82.9812 60.4247 82.9826 60.4244 82.9839L60.4237 82.9879C60.4231 82.9901 60.4222 82.9923 60.4211 82.9943C60.4203 82.9957 60.4194 82.997 60.4184 82.9983L60.4161 83.0009C60.4105 83.0065 60.403 83.0096 60.3951 83.0096H59.5611C59.554 83.0092 59.5473 83.0064 59.5421 83.0016C59.5371 82.9967 59.5337 82.9902 59.533 82.9832Z" fill="white"/>
<path d="M10.376 82.9798V77.1495C10.376 77.1446 10.3772 77.1398 10.3796 77.1355L10.3809 77.1333L10.3822 77.1314L10.3847 77.1285C10.3903 77.1229 10.3978 77.1198 10.4058 77.1198H14.1095C14.1174 77.1198 14.125 77.1229 14.1305 77.1285C14.1362 77.1341 14.1393 77.1416 14.1393 77.1495V77.8926C14.1393 77.9005 14.1362 77.9081 14.1305 77.9136C14.125 77.9192 14.1174 77.9224 14.1095 77.9224H11.2696V79.6434H13.6874C13.6953 79.6434 13.7029 79.6465 13.7084 79.6521C13.7113 79.655 13.7136 79.6584 13.7151 79.6622C13.7164 79.6656 13.7172 79.6694 13.7172 79.6732V80.4077C13.7172 80.41 13.7169 80.4123 13.7164 80.4145L13.7149 80.4191C13.7134 80.4227 13.7112 80.426 13.7084 80.4288C13.7068 80.4303 13.7052 80.4317 13.7033 80.4329C13.7019 80.4338 13.7004 80.4346 13.6988 80.4352L13.6953 80.4364L13.6924 80.437L13.6896 80.4374L13.6874 80.4375H11.2696V82.2078H14.1095C14.1174 82.2078 14.125 82.211 14.1305 82.2166C14.1362 82.2221 14.1393 82.2297 14.1393 82.2376V82.9807C14.1393 82.9886 14.1362 82.9961 14.1305 83.0017C14.125 83.0073 14.1174 83.0105 14.1095 83.0105H10.4058C10.404 83.0105 10.4022 83.0103 10.4003 83.01C10.3983 83.0096 10.3962 83.0089 10.3942 83.0081C10.3905 83.0066 10.3872 83.0043 10.3844 83.0014C10.383 83 10.3818 82.9985 10.3807 82.9969C10.3796 82.9952 10.3787 82.9934 10.378 82.9915C10.3766 82.9878 10.3759 82.9838 10.376 82.9798Z" fill="white"/>
<path d="M18.5136 77.9224V82.9798C18.5136 82.9823 18.5133 82.9848 18.5127 82.9872C18.5122 82.9889 18.5116 82.9907 18.5108 82.9923C18.5101 82.9941 18.5091 82.9958 18.5079 82.9974L18.5049 83.0009C18.4994 83.0065 18.4918 83.0096 18.4839 83.0096H17.6524C17.6445 83.0096 17.6369 83.0065 17.6314 83.0009C17.6258 82.9953 17.6226 82.9877 17.6226 82.9798V77.9224H16.0286C16.0207 77.9224 16.0131 77.9192 16.0076 77.9136C16.002 77.9081 15.9988 77.9005 15.9988 77.8926V77.1495C15.9988 77.1416 16.002 77.1341 16.0076 77.1285L16.0101 77.1263L16.0132 77.1241L16.0164 77.1224C16.0202 77.1207 16.0244 77.1198 16.0286 77.1198H20.1051C20.113 77.1198 20.1206 77.1229 20.1261 77.1285C20.1287 77.131 20.1308 77.134 20.1322 77.1373C20.1339 77.1411 20.1349 77.1453 20.1349 77.1495V77.8926C20.1349 77.9005 20.1318 77.9081 20.1261 77.9136C20.1206 77.9192 20.113 77.9224 20.1051 77.9224H18.5136Z" fill="white"/>
<path d="M29.0742 77.1495V82.9798C29.0741 82.9838 29.0748 82.9878 29.0762 82.9915C29.0777 82.9952 29.0799 82.9986 29.0826 83.0014C29.0854 83.0043 29.0887 83.0066 29.0924 83.0081L29.0954 83.0092L29.0986 83.01C29.1004 83.0103 29.1022 83.0105 29.104 83.0105H32.8086L32.8133 83.0101L32.815 83.0098C32.8178 83.0092 32.8205 83.0081 32.823 83.0067L32.8253 83.0052C32.8269 83.0042 32.8283 83.003 32.8297 83.0017C32.8317 82.9998 32.8333 82.9976 32.8347 82.9952L32.8364 82.9913C32.8376 82.988 32.8384 82.9843 32.8384 82.9807V82.2376C32.8384 82.2297 32.8352 82.2221 32.8297 82.2166C32.8267 82.2136 32.8231 82.2113 32.8193 82.2098L32.817 82.2091L32.8128 82.2081L32.8086 82.2078H29.9678V80.4375H32.3864C32.3904 80.4375 32.3943 80.4367 32.3978 80.4352C32.3994 80.4346 32.4009 80.4338 32.4023 80.4329L32.4054 80.4307L32.4076 80.4288C32.4103 80.426 32.4125 80.4227 32.414 80.4191C32.4155 80.4155 32.4163 80.4116 32.4163 80.4077V79.6732C32.4163 79.6653 32.4131 79.6577 32.4076 79.6521C32.4019 79.6465 32.3943 79.6434 32.3864 79.6434H29.9678V77.9224H32.8077L32.8125 77.922L32.8167 77.921L32.8195 77.9199C32.8229 77.9184 32.8261 77.9163 32.8288 77.9136C32.831 77.9115 32.8328 77.909 32.8342 77.9063C32.8363 77.9021 32.8375 77.8974 32.8375 77.8926V77.1495C32.8375 77.1416 32.8344 77.1341 32.8288 77.1285C32.8232 77.1229 32.8156 77.1198 32.8077 77.1198H29.104C29.0961 77.1198 29.0885 77.1229 29.0829 77.1285C29.0774 77.1341 29.0742 77.1416 29.0742 77.1495Z" fill="white"/>
<path d="M25.482 82.9832V80.44H23.099V82.9832C23.099 82.9911 23.0959 82.9987 23.0903 83.0043L23.0883 83.0061L23.0866 83.0074C23.0816 83.011 23.0755 83.013 23.0693 83.013H22.2352C22.2273 83.013 22.2197 83.0099 22.2142 83.0043C22.2086 82.9987 22.2055 82.9911 22.2055 82.9832V77.1529C22.2055 77.145 22.2086 77.1375 22.2142 77.1319C22.2156 77.1305 22.2171 77.1293 22.2187 77.1282C22.2236 77.1249 22.2292 77.1232 22.2352 77.1232H23.0693C23.0772 77.1232 23.0848 77.1263 23.0903 77.1319C23.0959 77.1375 23.099 77.145 23.099 77.1529V79.6383H25.482V77.1529C25.482 77.1513 25.482 77.1498 25.4823 77.1482L25.483 77.145L25.4848 77.1403C25.4862 77.1372 25.4882 77.1344 25.4907 77.1319C25.4963 77.1263 25.5038 77.1232 25.5117 77.1232H26.3458C26.3537 77.1232 26.3613 77.1263 26.3668 77.1319C26.3724 77.1375 26.3756 77.145 26.3756 77.1529V82.9832C26.3756 82.9875 26.3746 82.9917 26.3729 82.9955C26.3714 82.9988 26.3694 83.0017 26.3668 83.0043C26.3613 83.0099 26.3537 83.013 26.3458 83.013H25.5117C25.5038 83.013 25.4963 83.0099 25.4907 83.0043C25.4886 83.0022 25.4869 82.9998 25.4855 82.9972C25.4832 82.993 25.482 82.9881 25.482 82.9832Z" fill="white"/>
<path d="M48.4175 82.6734C49.0772 82.9668 49.7892 83.1246 50.511 83.1373C51.2353 83.1242 51.9497 82.9668 52.6123 82.6742C52.6146 82.6732 52.6167 82.6719 52.6186 82.6703C52.6209 82.6684 52.6229 82.6661 52.6245 82.6636C52.6274 82.6589 52.6288 82.6534 52.6285 82.6479V77.1529C52.6285 77.145 52.6253 77.1375 52.6198 77.1319C52.6165 77.1286 52.6126 77.1262 52.6083 77.1247C52.6052 77.1237 52.602 77.1232 52.5987 77.1232H51.7647C51.7616 77.1232 51.7585 77.1236 51.7556 77.1246C51.7511 77.126 51.747 77.1285 51.7436 77.1319C51.738 77.1375 51.7349 77.145 51.7349 77.1529V81.9882C51.7349 81.9882 51.2855 82.1993 50.512 82.1993C49.7384 82.1993 49.2958 81.9882 49.2958 81.9882V77.1529C49.2958 77.145 49.2927 77.1375 49.2871 77.1319C49.2815 77.1263 49.2739 77.1232 49.266 77.1232H48.432C48.4241 77.1232 48.4165 77.1263 48.411 77.1319C48.4054 77.1375 48.4022 77.145 48.4022 77.1529V82.647C48.4018 82.6524 48.4031 82.6578 48.4058 82.6625C48.4085 82.6672 48.4126 82.671 48.4175 82.6734Z" fill="white"/>
<path d="M39.8365 83.0096H38.9105C38.9059 83.0098 38.9012 83.0089 38.8969 83.007C38.8926 83.0051 38.8888 83.0022 38.8859 82.9985L36.8502 79.8153C36.8473 79.8108 36.8457 79.8057 36.8454 79.8003C36.8453 79.795 36.8464 79.7897 36.849 79.785C36.8504 79.7824 36.8522 79.78 36.8543 79.7779L36.857 79.7755L36.8598 79.7736C36.8643 79.7709 36.8695 79.7694 36.8749 79.7693H38.605C38.605 79.7693 38.8425 79.4621 38.8425 78.851C38.8425 78.2398 38.5787 77.9249 38.5787 77.9249H36.2426V82.9798C36.2426 82.9837 36.2418 82.9876 36.2403 82.9912C36.2388 82.9948 36.2366 82.9981 36.2338 83.0009C36.2326 83.0021 36.2313 83.0033 36.2298 83.0043C36.228 83.0055 36.2262 83.0065 36.2242 83.0073C36.2205 83.0088 36.2167 83.0096 36.2128 83.0096H35.3787L35.3752 83.0094L35.3735 83.0091L35.3703 83.0084L35.3673 83.0073C35.3652 83.0064 35.3631 83.0052 35.3612 83.0038L35.3577 83.0009C35.3559 82.999 35.3542 82.9969 35.353 82.9946L35.3512 82.9912C35.3497 82.9876 35.349 82.9837 35.349 82.9798V77.1495L35.3491 77.1473L35.3493 77.1458L35.3496 77.1437C35.35 77.1418 35.3505 77.14 35.3512 77.1381L35.3524 77.1356L35.354 77.1331L35.3553 77.1312L35.3577 77.1285C35.3604 77.1257 35.3638 77.1235 35.3673 77.122C35.371 77.1205 35.3748 77.1198 35.3787 77.1198H39.1744C39.1793 77.1197 39.1842 77.121 39.1885 77.1234C39.1929 77.1257 39.1964 77.1292 39.1991 77.1334C39.268 77.2406 39.7097 77.9726 39.7097 78.8416C39.7025 79.4157 39.5379 79.9768 39.234 80.4639C39.2313 80.4679 39.2277 80.4713 39.2233 80.4735C39.219 80.4757 39.2141 80.4768 39.2093 80.4766H38.2263L39.8611 82.9636C39.8641 82.9681 39.8657 82.9733 39.866 82.9786C39.8661 82.9839 39.865 82.9892 39.8624 82.9939C39.8599 82.9986 39.8562 83.0025 39.8516 83.0053C39.8496 83.0065 39.8474 83.0075 39.8452 83.0082L39.8427 83.0089L39.84 83.0094L39.8365 83.0096Z" fill="white"/>
<path d="M46.0822 82.2104H43.2415V80.44H45.6601C45.6637 80.44 45.6672 80.4394 45.6704 80.4382C45.6744 80.4367 45.6781 80.4344 45.6812 80.4313C45.6831 80.4294 45.6847 80.4273 45.686 80.425C45.6873 80.4227 45.6883 80.4202 45.6889 80.4175C45.6895 80.4151 45.6899 80.4127 45.6899 80.4102V79.6757C45.6899 79.6678 45.6868 79.6602 45.6812 79.6546C45.6756 79.6491 45.668 79.6459 45.6601 79.6459H43.2415V77.9249H46.0822C46.0901 77.9249 46.0977 77.9218 46.1033 77.9162L46.105 77.9144L46.1069 77.9119C46.1081 77.9102 46.1091 77.9084 46.1099 77.9064L46.1108 77.9038C46.1112 77.9025 46.1115 77.9012 46.1116 77.8998C46.1119 77.8983 46.1121 77.8967 46.1121 77.8951V77.1521C46.1121 77.1442 46.1089 77.1366 46.1033 77.131C46.0977 77.1254 46.0901 77.1223 46.0822 77.1223H42.3776C42.3697 77.1223 42.3622 77.1254 42.3566 77.131C42.351 77.1366 42.3479 77.1442 42.3479 77.1521V82.9824C42.3479 82.9863 42.3486 82.9901 42.3501 82.9938C42.3516 82.9974 42.3538 83.0007 42.3566 83.0034C42.358 83.0048 42.3595 83.0061 42.3612 83.0071C42.3627 83.0082 42.3645 83.0091 42.3662 83.0099C42.3699 83.0114 42.3737 83.0121 42.3776 83.0121H46.0814C46.0853 83.0121 46.0892 83.0114 46.0928 83.0099C46.0964 83.0084 46.0997 83.0062 46.1024 83.0034C46.1052 83.0007 46.1074 82.9974 46.1089 82.9938C46.1097 82.9918 46.1103 82.9899 46.1106 82.9878L46.1111 82.9848L46.1111 82.9824V82.2436C46.1116 82.2394 46.1112 82.2353 46.1101 82.2313C46.1088 82.2274 46.1067 82.2237 46.104 82.2206C46.1013 82.2175 46.0979 82.2149 46.0942 82.2132C46.0924 82.2124 46.0906 82.2117 46.0888 82.2113L46.0847 82.2105L46.0822 82.2104Z" fill="white"/>
<path d="M15.4397 89.8757H16.0056C16.0126 89.875 16.0191 89.8718 16.0238 89.8666C16.0258 89.8643 16.0275 89.8617 16.0288 89.8589L16.0297 89.8565C16.0302 89.8551 16.0305 89.8536 16.0308 89.8522L16.0309 89.8501L16.0311 89.8476V86.0515C16.0311 86.0441 16.0282 86.037 16.0229 86.0317C16.0176 86.0264 16.0105 86.0235 16.003 86.0235H15.3707L15.3666 86.0238L15.3631 86.0245L15.3593 86.0259C15.3576 86.0266 15.3561 86.0275 15.3546 86.0286C15.3532 86.0295 15.352 86.0305 15.3508 86.0317C15.3456 86.037 15.3426 86.0441 15.3426 86.0515V88.4977L13.7256 86.0354C13.7231 86.0314 13.7196 86.0282 13.7154 86.0259C13.7112 86.0237 13.7065 86.0226 13.7018 86.0226H13.1325C13.1288 86.0226 13.1252 86.0233 13.1218 86.0247C13.1183 86.0262 13.1152 86.0282 13.1126 86.0308L13.1098 86.0341L13.1084 86.0362C13.1076 86.0374 13.107 86.0387 13.1065 86.0399C13.1051 86.0434 13.1044 86.047 13.1044 86.0507V89.8468C13.1044 89.8542 13.1074 89.8613 13.1126 89.8666C13.1178 89.8719 13.125 89.8748 13.1325 89.8748H13.7708C13.7744 89.8748 13.7779 89.8741 13.7811 89.8728C13.7846 89.8714 13.7879 89.8693 13.7906 89.8666C13.7959 89.8613 13.7988 89.8542 13.7988 89.8468V87.3946L15.4158 89.8629C15.4184 89.8669 15.4219 89.8701 15.4261 89.8724C15.428 89.8734 15.4299 89.8741 15.4319 89.8747C15.4344 89.8754 15.437 89.8757 15.4397 89.8757Z" fill="white"/>
<path fill-rule="evenodd" clip-rule="evenodd" d="M20.4727 89.8757H19.7987C19.7929 89.8757 19.7872 89.8739 19.7826 89.8705C19.7778 89.8672 19.7743 89.8624 19.7723 89.857L19.5247 89.1267H18.1383L17.8881 89.857C17.8862 89.8624 17.8826 89.8672 17.8779 89.8705C17.8731 89.8739 17.8676 89.8757 17.8617 89.8757H17.1877C17.1832 89.8757 17.1788 89.8746 17.1748 89.8725C17.1708 89.8704 17.1674 89.8675 17.1649 89.8638C17.1623 89.8601 17.1606 89.8559 17.16 89.8514C17.1596 89.8489 17.1596 89.8464 17.16 89.8439L17.1605 89.8406L17.1613 89.8382L18.5528 86.0422C18.5547 86.0367 18.5583 86.032 18.563 86.0286C18.5678 86.0253 18.5733 86.0235 18.5791 86.0235H19.0813C19.0839 86.0235 19.0864 86.0238 19.0888 86.0245C19.0905 86.025 19.0922 86.0257 19.0938 86.0265L19.0974 86.0286C19.1021 86.032 19.1057 86.0367 19.1076 86.0422L20.4991 89.8382C20.5006 89.8425 20.501 89.847 20.5005 89.8514C20.4998 89.8559 20.4981 89.8601 20.4956 89.8638C20.493 89.8675 20.4896 89.8704 20.4856 89.8725C20.4816 89.8746 20.4772 89.8757 20.4727 89.8757ZM18.3451 88.5224H19.3196L18.8438 87.1163L18.3451 88.5224Z" fill="white"/>
<path d="M24.3756 89.8757H25.0105C25.014 89.8751 25.0174 89.8739 25.0204 89.8722C25.0231 89.8706 25.0255 89.8685 25.0276 89.8661L25.0296 89.8635L25.0316 89.8601C25.0328 89.8575 25.0337 89.8547 25.0341 89.8519L25.0343 89.8476V86.0516C25.0343 86.0479 25.0336 86.0442 25.0322 86.0408C25.0308 86.0374 25.0287 86.0343 25.0261 86.0317C25.0234 86.0291 25.0204 86.027 25.017 86.0256L25.0148 86.0248L25.0105 86.0238L25.0062 86.0235H24.3858C24.3804 86.0234 24.3752 86.025 24.3707 86.0278C24.3661 86.0307 24.3626 86.0348 24.3603 86.0396L23.3391 88.2594L22.2974 86.0396C22.2956 86.0359 22.2931 86.0326 22.2899 86.0299L22.287 86.0278C22.2824 86.025 22.2772 86.0234 22.2719 86.0235H21.6523C21.65 86.0235 21.6478 86.0237 21.6456 86.0243L21.6416 86.0256C21.6381 86.027 21.635 86.0291 21.6324 86.0317C21.6298 86.0343 21.6278 86.0374 21.6263 86.0408C21.6249 86.0442 21.6242 86.0479 21.6242 86.0516V89.8476C21.6242 89.8551 21.6272 89.8622 21.6324 89.8675C21.6376 89.8727 21.6448 89.8757 21.6523 89.8757H22.2837C22.2912 89.8757 22.2984 89.8727 22.3036 89.8675C22.3088 89.8622 22.3118 89.8551 22.3118 89.8476V87.5887L23.0846 89.1837C23.0868 89.1886 23.0905 89.1927 23.095 89.1955C23.098 89.1974 23.1014 89.1988 23.1049 89.1994L23.1079 89.1998L23.1101 89.1999H23.5705C23.5735 89.1999 23.5764 89.1994 23.5793 89.1985C23.5815 89.1978 23.5837 89.1968 23.5857 89.1955C23.5881 89.1939 23.5905 89.1919 23.5923 89.1896C23.5938 89.1878 23.595 89.1858 23.596 89.1837L24.3475 87.5947V89.8476C24.3475 89.8551 24.3505 89.8622 24.3557 89.8675C24.3584 89.8701 24.3616 89.8722 24.3651 89.8736C24.3684 89.875 24.372 89.8757 24.3756 89.8757Z" fill="white"/>
<path d="M29.0972 89.8757H26.6479C26.6461 89.8757 26.6442 89.8755 26.6424 89.8751L26.6401 89.8745L26.6372 89.8735C26.6338 89.8721 26.6306 89.8701 26.628 89.8675C26.6255 89.8649 26.6234 89.8618 26.622 89.8584C26.6206 89.855 26.6198 89.8513 26.6198 89.8476V86.0516C26.6198 86.0479 26.6206 86.0442 26.622 86.0408C26.6234 86.0374 26.6255 86.0343 26.628 86.0317C26.6306 86.0291 26.6338 86.027 26.6372 86.0256C26.6406 86.0242 26.6442 86.0235 26.6479 86.0235H29.0972C29.1009 86.0235 29.1045 86.0242 29.1079 86.0256C29.1114 86.027 29.1144 86.0291 29.1171 86.0317C29.1197 86.0343 29.1217 86.0374 29.1232 86.0408C29.1237 86.0422 29.1242 86.0437 29.1246 86.0451L29.1251 86.0479L29.1253 86.0516V86.6261C29.1253 86.6335 29.1223 86.6407 29.1171 86.6459L29.1145 86.6481L29.1129 86.6493C29.1083 86.6524 29.1029 86.6542 29.0972 86.6542H27.31V87.621H28.8325C28.8362 87.621 28.8398 87.6218 28.8432 87.6232C28.8466 87.6246 28.8498 87.6267 28.8524 87.6293L28.8538 87.6308L28.8557 87.6333C28.8568 87.6349 28.8577 87.6366 28.8584 87.6384C28.8599 87.6418 28.8606 87.6454 28.8606 87.6491V88.2185C28.8606 88.2222 28.8599 88.2259 28.8584 88.2293C28.857 88.2327 28.855 88.2358 28.8524 88.2384C28.8498 88.241 28.8466 88.2431 28.8432 88.2445C28.8398 88.2459 28.8362 88.2466 28.8325 88.2466H27.3075V89.245H29.0946C29.0983 89.245 29.102 89.2457 29.1054 89.2471C29.1088 89.2485 29.1119 89.2506 29.1145 89.2532C29.1171 89.2558 29.1192 89.2589 29.1206 89.2623C29.1214 89.2644 29.122 89.2666 29.1223 89.2688C29.1226 89.2702 29.1227 89.2716 29.1227 89.2731V89.8476C29.1227 89.8519 29.1217 89.8561 29.1199 89.8599L29.1187 89.8622C29.1178 89.8637 29.1167 89.8652 29.1154 89.8666C29.1107 89.8718 29.1042 89.8751 29.0972 89.8757Z" fill="white"/>
<path d="M36.9455 89.8757H39.3948C39.4018 89.8751 39.4083 89.8718 39.413 89.8666C39.4178 89.8614 39.4203 89.8546 39.4203 89.8476V89.2731C39.4203 89.2694 39.4196 89.2657 39.4182 89.2623C39.4168 89.2589 39.4147 89.2558 39.4121 89.2532C39.4094 89.2506 39.4064 89.2485 39.403 89.2471C39.4011 89.2464 39.3992 89.2458 39.3972 89.2455L39.3942 89.2451L39.3922 89.245H37.6051V88.2466H39.1301C39.1338 88.2466 39.1374 88.2459 39.1408 88.2445C39.1442 88.2431 39.1474 88.241 39.15 88.2384C39.1513 88.2371 39.1525 88.2356 39.1536 88.234C39.1545 88.2325 39.1554 88.2309 39.156 88.2293L39.1573 88.2257L39.158 88.2217L39.1582 88.2185V87.6491C39.1582 87.6474 39.158 87.6457 39.1578 87.644C39.1575 87.6426 39.1571 87.6412 39.1566 87.6398L39.1558 87.6377L39.1549 87.6358L39.1531 87.633C39.1521 87.6317 39.1511 87.6304 39.15 87.6293C39.1447 87.624 39.1376 87.621 39.1301 87.621H37.6076V86.6542H39.3948C39.4022 86.6542 39.4094 86.6512 39.4147 86.6459C39.4199 86.6407 39.4229 86.6335 39.4229 86.6261V86.0516C39.4229 86.0479 39.4222 86.0442 39.4207 86.0408C39.4193 86.0374 39.4173 86.0343 39.4147 86.0317C39.412 86.0291 39.4089 86.027 39.4055 86.0256C39.4021 86.0242 39.3985 86.0235 39.3948 86.0235H36.9455C36.9436 86.0235 36.9417 86.0237 36.9398 86.024C36.9381 86.0244 36.9364 86.0249 36.9348 86.0256C36.9314 86.027 36.9282 86.0291 36.9256 86.0317C36.9231 86.0343 36.921 86.0374 36.9196 86.0408C36.9182 86.0442 36.9174 86.0479 36.9174 86.0516V89.8476C36.9174 89.8551 36.9204 89.8622 36.9256 89.8675C36.9287 89.8706 36.9325 89.8729 36.9366 89.8742C36.9394 89.8752 36.9424 89.8757 36.9455 89.8757Z" fill="white"/>
<path d="M46.4525 89.8757H45.9648C45.9589 89.8756 45.9532 89.8737 45.9484 89.8702L45.9473 89.8693L45.9451 89.8673L45.943 89.8649L45.9414 89.8625L45.9401 89.8603L45.9393 89.8583L45.9384 89.8561L44.6908 86.0601C44.6895 86.0559 44.6891 86.0514 44.6898 86.0471C44.6902 86.0447 44.6909 86.0424 44.6919 86.0402C44.6926 86.0384 44.6936 86.0367 44.6948 86.0351C44.6974 86.0316 44.7007 86.0287 44.7046 86.0266L44.7082 86.0251L44.7114 86.0241C44.7133 86.0237 44.7152 86.0235 44.7172 86.0235H45.3742C45.3801 86.0235 45.3858 86.0255 45.3905 86.029C45.3952 86.0325 45.3988 86.0374 45.4006 86.043L46.2082 88.5964L47.0159 86.043C47.0176 86.0374 47.0211 86.0325 47.0258 86.029C47.0306 86.0255 47.0363 86.0235 47.0422 86.0235H47.7094L47.7129 86.0237L47.7172 86.0247L47.7199 86.0256L47.7221 86.0266C47.7238 86.0276 47.7255 86.0287 47.727 86.03C47.7289 86.0315 47.7305 86.0332 47.7319 86.0351C47.7344 86.0387 47.7361 86.0428 47.7368 86.0471C47.7375 86.0514 47.7372 86.0559 47.7359 86.0601L46.478 89.8561C46.4762 89.8616 46.4728 89.8664 46.4683 89.8699C46.4637 89.8734 46.4582 89.8754 46.4525 89.8757Z" fill="white"/>
<path d="M48.8788 89.8757H49.5111C49.5186 89.8757 49.5257 89.8727 49.5309 89.8675C49.5363 89.8622 49.5392 89.8551 49.5392 89.8476V86.0516C49.5392 86.0492 49.5388 86.0469 49.5382 86.0447L49.537 86.0408C49.5356 86.0374 49.5336 86.0343 49.5309 86.0317C49.5284 86.0291 49.5253 86.027 49.5219 86.0256C49.5185 86.0242 49.5148 86.0235 49.5111 86.0235H48.8788C48.8751 86.0235 48.8715 86.0242 48.8681 86.0256C48.8646 86.027 48.8615 86.0291 48.8589 86.0317C48.8563 86.0343 48.8543 86.0374 48.8528 86.0408C48.8514 86.0442 48.8507 86.0479 48.8507 86.0516V89.8476C48.8507 89.8493 48.8509 89.8509 48.8511 89.8525C48.8516 89.8551 48.8524 89.8577 48.8536 89.86L48.8555 89.8632L48.8571 89.8653L48.8589 89.8675C48.8641 89.8727 48.8713 89.8757 48.8788 89.8757Z" fill="white"/>
<path d="M57.4811 89.8757H55.0293C55.0218 89.8757 55.0147 89.8727 55.0094 89.8675C55.0069 89.865 55.0049 89.862 55.0035 89.8589C55.0028 89.8572 55.0022 89.8554 55.0019 89.8535C55.0014 89.8516 55.0012 89.8496 55.0012 89.8476V86.0516C55.0012 86.0479 55.0019 86.0442 55.0034 86.0408C55.0048 86.0374 55.0068 86.0343 55.0094 86.0317C55.0107 86.0304 55.0121 86.0293 55.0136 86.0283L55.0158 86.0269L55.0186 86.0256C55.022 86.0242 55.0256 86.0235 55.0293 86.0235H57.4811C57.4848 86.0235 57.4885 86.0242 57.4919 86.0256C57.4953 86.027 57.4984 86.0291 57.501 86.0317C57.5036 86.0343 57.5057 86.0374 57.5071 86.0408C57.5085 86.0442 57.5092 86.0479 57.5092 86.0516V86.6261C57.5092 86.6277 57.509 86.6293 57.5088 86.6308C57.5084 86.6333 57.5077 86.6356 57.5067 86.6378C57.5053 86.6408 57.5034 86.6436 57.501 86.6459C57.4957 86.6512 57.4886 86.6542 57.4811 86.6542H55.6939V87.621H57.2165C57.22 87.621 57.2235 87.6217 57.2267 87.623C57.2303 87.6244 57.2336 87.6265 57.2363 87.6293C57.2416 87.6345 57.2446 87.6417 57.2446 87.6491V88.2185C57.2446 88.2222 57.2438 88.2259 57.2424 88.2293C57.241 88.2327 57.2389 88.2358 57.2363 88.2384C57.2337 88.241 57.2306 88.2431 57.2272 88.2445C57.2238 88.2459 57.2201 88.2466 57.2165 88.2466H55.6897V89.245H57.4769C57.4806 89.245 57.4843 89.2457 57.4876 89.2471C57.491 89.2485 57.4941 89.2506 57.4967 89.2532C57.4994 89.2558 57.5014 89.2589 57.5028 89.2623L57.504 89.2655C57.5046 89.268 57.505 89.2705 57.505 89.2731V89.8476C57.505 89.8544 57.5027 89.8609 57.4983 89.8661C57.4939 89.8713 57.4878 89.8747 57.4811 89.8757Z" fill="white"/>
<path d="M51.3604 89.8816H53.5366C53.5391 89.882 53.5417 89.8819 53.5442 89.8815L53.5484 89.8806L53.5511 89.8796L53.5541 89.878L53.5565 89.8764L53.5587 89.8747L53.5619 89.8713C53.5634 89.8694 53.5647 89.8674 53.5656 89.8652C53.5666 89.8628 53.5673 89.8603 53.5677 89.8577C53.568 89.8563 53.5681 89.855 53.5681 89.8536V89.2663C53.5681 89.2588 53.5651 89.2517 53.5598 89.2464C53.5567 89.2433 53.5529 89.241 53.5488 89.2396L53.545 89.2387C53.5433 89.2383 53.5416 89.2382 53.54 89.2382H51.8285C51.7323 88.8144 51.6871 88.3807 51.694 87.9462C51.6853 87.5143 51.7293 87.083 51.8251 86.6618H53.5366C53.5385 86.6618 53.5404 86.6616 53.5422 86.6612C53.544 86.6609 53.5456 86.6603 53.5473 86.6597L53.5513 86.6576C53.5531 86.6565 53.5548 86.6551 53.5564 86.6536C53.5578 86.6523 53.5589 86.6508 53.56 86.6493L53.5617 86.6462L53.5625 86.6445C53.5639 86.6411 53.5647 86.6374 53.5647 86.6337V86.0464C53.5647 86.039 53.5617 86.0318 53.5564 86.0266C53.5512 86.0213 53.544 86.0183 53.5366 86.0183H51.3604C51.3551 86.0179 51.3498 86.0192 51.3452 86.0219L51.3431 86.0233L51.3401 86.0259C51.3379 86.0281 51.3362 86.0308 51.3349 86.0337C51.2881 86.1435 51.0192 86.8295 51.0192 87.9453C51.0192 89.0612 51.2889 89.754 51.3349 89.8655C51.3369 89.8705 51.3404 89.8748 51.345 89.8777C51.3496 89.8807 51.355 89.882 51.3604 89.8816Z" fill="white"/>
<path d="M44.0125 89.8817H43.3138C43.3091 89.8817 43.3044 89.8806 43.3002 89.8783C43.2961 89.8761 43.2926 89.8728 43.29 89.8689L41.9232 87.7317C41.9204 87.7274 41.9189 87.7225 41.9187 87.7174C41.9185 87.7123 41.9197 87.7073 41.9221 87.7028C41.9246 87.6984 41.9282 87.6947 41.9326 87.6921L41.9361 87.6904L41.939 87.6894C41.9416 87.6886 41.9443 87.6883 41.947 87.6883H42.9283C43.0212 87.5281 43.0667 87.3448 43.0594 87.1597C43.0663 86.9713 43.0152 86.7853 42.9129 86.6269H41.5283V89.8536L41.5281 89.8573C41.5277 89.8597 41.5271 89.8621 41.5262 89.8643C41.5248 89.8677 41.5227 89.8708 41.5201 89.8734C41.5175 89.876 41.5144 89.8781 41.511 89.8795L41.5094 89.8801C41.5064 89.8811 41.5033 89.8817 41.5002 89.8817H40.8688C40.8651 89.8817 40.8615 89.8809 40.858 89.8795C40.8546 89.8781 40.8515 89.876 40.8489 89.8734C40.8463 89.8708 40.8442 89.8677 40.8428 89.8643C40.842 89.8622 40.8414 89.8601 40.8411 89.8578L40.8408 89.8557L40.8407 89.8536V86.043C40.8407 86.0393 40.8414 86.0357 40.8428 86.0323L40.8433 86.0311L40.8447 86.0286C40.8458 86.0266 40.8473 86.0248 40.8489 86.0232C40.8501 86.022 40.8513 86.0209 40.8527 86.02C40.8544 86.0188 40.8562 86.0179 40.858 86.0171C40.86 86.0163 40.8619 86.0157 40.8639 86.0154L40.8661 86.0151L40.8688 86.0149H43.3878L43.3955 86.026C43.6053 86.3665 43.7227 86.7558 43.7359 87.1555C43.7272 87.5455 43.6179 87.9266 43.4185 88.2619L43.4117 88.273H42.9555L44.0125 89.8817Z" fill="white"/>
<path d="M32.6554 89.7931C33.0878 89.9171 33.5349 89.9829 33.9846 89.9889C34.4314 89.9831 34.8753 89.9176 35.3047 89.794C35.3102 89.7923 35.3151 89.7888 35.3185 89.784C35.3219 89.7792 35.3236 89.7734 35.3234 89.7676V88.1113C35.3234 88.1055 35.3215 88.0999 35.3182 88.0951C35.3148 88.0904 35.3101 88.0868 35.3047 88.0849L33.3184 87.3887V86.6524C33.7536 86.5393 34.2106 86.5393 34.6459 86.6524V86.8678H35.2979C35.3053 86.8678 35.3124 86.8648 35.3177 86.8595C35.323 86.8543 35.3259 86.8471 35.3259 86.8397V86.1588C35.3262 86.1529 35.3245 86.1472 35.321 86.1424C35.3177 86.1376 35.3128 86.1341 35.3072 86.1324C34.875 86.0085 34.4283 85.9426 33.9787 85.9366C33.5309 85.9424 33.0857 86.0082 32.6554 86.1324C32.6516 86.1336 32.6481 86.1355 32.6453 86.1381C32.6438 86.1394 32.6426 86.1408 32.6415 86.1424C32.6397 86.145 32.6384 86.1479 32.6375 86.1509C32.6369 86.1535 32.6365 86.1561 32.6366 86.1588V87.7657C32.6367 87.7715 32.6384 87.7772 32.6418 87.7819C32.6442 87.7852 32.6472 87.788 32.6508 87.79C32.6522 87.7909 32.6538 87.7916 32.6554 87.7921L34.6442 88.4892V89.2731C34.209 89.3863 33.7519 89.3863 33.3166 89.2731V89.062H32.6647C32.6573 89.062 32.6502 89.065 32.6448 89.0702C32.6396 89.0755 32.6366 89.0826 32.6366 89.0901V89.7667C32.6364 89.7726 32.6381 89.7784 32.6415 89.7831C32.6428 89.785 32.6443 89.7867 32.6461 89.7881C32.6487 89.7904 32.6519 89.7921 32.6554 89.7931Z" fill="white"/>
<path d="M25.2148 66.5776C23.0803 65.0379 21.5654 62.3543 21.3289 59.3702C21.2004 57.4322 21.2489 56.49 21.3247 55.6993C21.4387 54.5775 21.9068 53.4012 22.3654 52.3714C22.3654 52.3714 22.6046 51.8666 22.7365 51.6224C22.6619 52.0898 22.6581 52.5658 22.7255 53.0344C22.8225 53.7851 23.196 55.0414 23.7467 55.9776C28.8265 64.6106 34.8434 73.2863 34.8434 73.2863L25.2148 66.5776Z" fill="white"/>
<path d="M46.1844 60.1337C45.8618 59.446 45.067 58.091 45.067 58.091L35.8757 73.2871L44.8448 67.0236C45.5461 66.4993 45.8959 66.0729 46.1214 65.6201C47.3461 63.1569 46.5027 60.8223 46.1844 60.1337Z" fill="white"/>
<path d="M45.5188 48.4732C47.6532 50.0129 49.1681 52.6965 49.4047 55.6806C49.5341 57.6186 49.4813 58.5608 49.4089 59.3523C49.2949 60.4741 48.8268 61.6504 48.3682 62.6803C48.3682 62.6803 48.3035 62.8167 48.2229 62.982C48.1485 63.1347 48.0604 63.312 47.9971 63.4293C48.0717 62.9618 48.0754 62.4858 48.0081 62.0172C47.9111 61.2665 47.5376 60.0103 46.9869 59.074C41.9071 50.4401 35.8902 41.7645 35.8902 41.7645L45.5188 48.4732Z" fill="white"/>
<path d="M101.055 57.5448C101.621 57.2408 102.29 57.2408 102.804 57.5448L108.77 60.9405C109.335 61.2446 109.644 61.802 109.644 62.4102V69.1508C109.644 69.7589 109.284 70.3165 108.77 70.6205L102.855 73.9655C102.29 74.2696 101.621 74.2696 101.107 73.9655L95.1924 70.6205C94.6267 70.3165 94.3181 69.7589 94.3181 69.1508V66.8195L97.0439 65.2484V67.5797C97.0439 68.1878 97.4039 68.7454 97.9182 69.0495L101.055 70.8233C101.621 71.1274 102.29 71.1274 102.804 70.8233L105.941 68.9987C106.507 68.6947 106.815 68.1372 106.815 67.529V63.9307C106.815 63.3225 106.455 62.765 105.941 62.4609L102.804 60.6871C102.238 60.383 101.57 60.383 101.055 60.6871L97.0439 62.9677L94.3181 64.5388L90.3067 66.8195C89.741 67.1236 89.0724 67.1236 88.5582 66.8195L82.6438 63.4746C82.0781 63.1705 81.7695 62.6129 81.7695 62.0048V55.2642C81.7695 54.656 82.0781 54.0985 82.6438 53.7945L88.5582 50.4495C89.1239 50.1454 89.7924 50.1454 90.3067 50.4495L96.1182 53.7945C96.6839 54.0985 96.9924 54.656 96.9924 55.2642V57.5955L94.2667 59.1666V56.8353C94.2667 56.2271 93.9067 55.6696 93.3924 55.3656L90.2552 53.5917C89.6895 53.2876 89.021 53.2876 88.5067 53.5917L85.3695 55.3656C84.8038 55.6696 84.4953 56.2271 84.4953 56.8353V60.4337C84.4953 61.0419 84.8553 61.5993 85.3695 61.9034L88.5582 63.7279C89.1239 64.032 89.7924 64.032 90.3067 63.7279L94.3181 61.3966L97.0439 59.8762L101.055 57.5448Z" fill="white"/>
<path d="M143.176 50.2462V66.9203H140.193V50.2462H143.176Z" fill="white"/>
<path fill-rule="evenodd" clip-rule="evenodd" d="M125.998 59.572C125.638 58.8118 125.073 58.2543 124.404 57.8488C123.735 57.3927 122.913 57.19 122.038 57.19C120.753 57.19 119.518 57.6461 118.387 58.5584L118.13 57.4434H115.558V71.33H118.541V66.0592C118.901 66.4139 119.364 66.7181 119.878 66.8701C120.393 67.0727 120.907 67.1742 121.473 67.1742C122.45 67.1742 123.376 66.9714 124.147 66.5659C124.918 66.2112 125.535 65.6537 125.947 64.8935C126.41 64.1333 126.616 63.2717 126.616 62.258C126.616 61.2445 126.41 60.3322 125.998 59.572ZM123.53 62.3088C123.53 63.0689 123.273 63.6772 122.758 64.1333C122.244 64.5894 121.627 64.8428 120.856 64.8428C120.29 64.8428 119.827 64.6908 119.416 64.4374C119.056 64.1839 118.747 63.8292 118.593 63.373V61.0925C118.85 60.6363 119.158 60.2815 119.57 60.0788C119.981 59.8254 120.495 59.724 121.061 59.724C121.73 59.724 122.347 59.9268 122.81 60.4336C123.273 60.9404 123.53 61.5486 123.53 62.3088Z" fill="white"/>
<path fill-rule="evenodd" clip-rule="evenodd" d="M130.267 57.8985C129.444 58.3039 128.827 58.9121 128.364 59.6216C127.952 60.3818 127.695 61.2434 127.695 62.2064C127.695 63.2199 127.952 64.0815 128.364 64.8417C128.827 65.602 129.444 66.1595 130.267 66.565C131.09 66.9704 132.015 67.1731 133.044 67.1731C134.073 67.1731 135.05 66.9196 135.821 66.5142C136.644 66.1087 137.21 65.5006 137.673 64.7404C138.135 63.9802 138.341 63.1693 138.341 62.2064C138.341 61.2434 138.135 60.4325 137.673 59.6723C137.21 58.9121 136.593 58.3039 135.821 57.8985C134.998 57.4423 134.073 57.2396 133.044 57.2396C132.015 57.2396 131.09 57.493 130.267 57.8985ZM133.044 64.7404C132.375 64.7404 131.81 64.5377 131.398 64.0308C130.935 63.5241 130.73 62.9158 130.73 62.2064C130.73 61.4462 130.935 60.838 131.347 60.3312C131.81 59.875 132.324 59.6216 132.993 59.6216C133.713 59.6216 134.227 59.875 134.69 60.3818C135.101 60.838 135.307 61.4462 135.307 62.2064C135.307 62.9158 135.101 63.5747 134.69 64.0308C134.278 64.487 133.713 64.7404 133.044 64.7404Z" fill="white"/>
<path d="M149.347 71.38L155.416 57.6961H152.741L150.273 63.1696L147.804 57.6961H144.41L148.73 66.464L146.467 71.38H149.347Z" fill="white"/>
<path fill-rule="evenodd" clip-rule="evenodd" d="M166.832 57.6957V66.9196C166.832 67.7813 166.575 68.5922 166.061 69.3018C165.547 70.0112 164.878 70.5688 164.004 70.9742C163.129 71.3797 162.204 71.5823 161.175 71.5823C160.404 71.5823 159.735 71.481 159.169 71.3289C158.604 71.1262 158.141 70.9234 157.781 70.7208C157.369 70.4673 156.958 70.1633 156.495 69.7579L158.244 67.7305C158.655 68.1361 159.118 68.4401 159.529 68.6429C159.941 68.8455 160.507 68.9976 161.124 68.9976C161.895 68.9976 162.512 68.7949 163.027 68.4401C163.541 68.0853 163.798 67.5279 163.798 66.869V65.5513C163.489 66.0074 163.078 66.4129 162.461 66.717C161.844 67.0211 161.124 67.1731 160.301 67.1731C159.478 67.1731 158.655 66.9704 157.935 66.5142C157.215 66.1087 156.649 65.5006 156.187 64.7404C155.775 63.9802 155.518 63.1693 155.518 62.2571C155.518 61.3448 155.724 60.4832 156.187 59.723C156.649 58.9628 157.215 58.3546 157.987 57.8985C158.707 57.4423 159.478 57.2396 160.301 57.2396C161.072 57.2396 161.741 57.341 162.358 57.5437C162.975 57.7464 163.438 58.0505 163.747 58.4053L164.055 57.6957H166.832ZM163.798 63.3721V61.0914C163.592 60.6353 163.284 60.2805 162.821 60.0271C162.358 59.7737 161.844 59.6216 161.226 59.6216C160.507 59.6216 159.889 59.875 159.375 60.3312C158.861 60.7873 158.604 61.3955 158.604 62.1557C158.604 62.8652 158.861 63.5241 159.375 64.0308C159.889 64.5377 160.507 64.7911 161.226 64.7911C162.409 64.7404 163.284 64.2843 163.798 63.3721Z" fill="white"/>
<path fill-rule="evenodd" clip-rule="evenodd" d="M171.205 57.8488C170.382 58.305 169.765 58.8625 169.302 59.6227C168.839 60.3829 168.633 61.2445 168.633 62.106C168.633 63.1704 168.839 64.0319 169.302 64.7922C169.765 65.5524 170.382 66.1098 171.205 66.5153C172.027 66.9207 172.953 67.1235 173.982 67.1235C175.01 67.1235 175.988 66.8701 176.759 66.4646C177.582 66.0592 178.199 65.4509 178.61 64.6908C179.073 63.9306 179.279 63.1197 179.279 62.1567C179.279 61.1938 179.022 60.3829 178.61 59.6227C178.148 58.8625 177.53 58.2543 176.759 57.8488C175.936 57.3927 175.01 57.19 173.982 57.19C172.953 57.19 172.027 57.4434 171.205 57.8488ZM173.93 64.7415C173.262 64.7415 172.696 64.5387 172.285 64.0319C171.873 63.5251 171.668 62.9169 171.616 62.2074C171.616 61.4979 171.822 60.839 172.285 60.3829C172.748 59.9268 173.262 59.6734 173.93 59.6734C174.599 59.6734 175.165 59.9268 175.576 60.3829C175.988 60.839 176.193 61.4471 176.193 62.2074C176.193 62.9169 175.988 63.5758 175.576 64.0319C175.165 64.488 174.599 64.7415 173.93 64.7415Z" fill="white"/>
<path d="M189.822 57.9998C190.439 58.5066 190.696 59.1655 190.747 59.9764V66.9196H187.713V61.0914C187.662 60.1791 187.199 59.723 186.325 59.723C185.656 59.723 185.09 60.0271 184.679 60.6859C184.268 61.3448 184.062 62.1557 184.062 63.1186V66.9196H181.079V57.6957H183.805L184.01 59.1655C184.37 58.5573 184.833 58.1012 185.45 57.7464C186.068 57.3917 186.788 57.2396 187.61 57.2396C188.484 57.2396 189.256 57.493 189.822 57.9998Z" fill="white"/>
<path d="M242.716 61.6099C242.739 61.6875 242.68 61.7647 242.598 61.7647H241.456C241.374 61.7647 241.314 61.6867 241.338 61.6089L241.954 59.5447C241.979 59.463 242.096 59.4636 242.12 59.5454L242.716 61.6099Z" fill="#FEFEFE"/>
<path d="M227.506 60.3996V58.2907C227.506 58.1565 227.616 58.0478 227.752 58.0478H229.535C229.874 58.0478 230.15 58.3197 230.15 58.6551V60.0352C230.15 60.3706 229.874 60.6425 229.535 60.6425H227.752C227.616 60.6425 227.506 60.5337 227.506 60.3996Z" fill="#FEFEFE"/>
<path d="M247.303 60.3996V58.2907C247.303 58.1565 247.413 58.0478 247.549 58.0478H249.332C249.672 58.0478 249.947 58.3197 249.947 58.6551V60.0352C249.947 60.3706 249.672 60.6425 249.332 60.6425H247.549C247.413 60.6425 247.303 60.5337 247.303 60.3996Z" fill="#FEFEFE"/>
<path d="M235.596 58.2353C235.504 58.0565 235.247 58.0565 235.155 58.2353L234.148 60.2051C233.987 60.5188 233.987 60.8897 234.148 61.2034L235.155 63.1732C235.247 63.352 235.504 63.352 235.596 63.1732L236.604 61.2034C236.764 60.8897 236.764 60.5188 236.604 60.2051L235.596 58.2353Z" fill="#FEFEFE"/>
<path fill-rule="evenodd" clip-rule="evenodd" d="M240.042 43.5761C239.177 43.056 238.091 43.056 237.227 43.5761L235.39 44.6814C234.827 45.0203 234.177 45.1923 233.518 45.177L231.368 45.127C230.356 45.1034 229.415 45.6398 228.93 46.5172L227.899 48.3815C227.583 48.9532 227.107 49.4231 226.528 49.7354L224.641 50.754C223.753 51.2334 223.21 52.1625 223.233 53.162L223.284 55.2859C223.3 55.9371 223.125 56.579 222.782 57.1353L221.663 58.9496C221.137 59.8035 221.137 60.8762 221.663 61.7301L222.782 63.5444C223.125 64.1007 223.3 64.7426 223.284 65.3939L223.233 67.5178C223.21 68.5173 223.753 69.4463 224.641 69.9257L226.528 70.9443C227.107 71.2566 227.583 71.7266 227.899 72.2982L228.93 74.1626C229.415 75.04 230.356 75.5763 231.368 75.5528L233.518 75.5028C234.177 75.4874 234.827 75.6594 235.39 75.9983L237.227 77.1036C238.091 77.6238 239.177 77.6238 240.042 77.1036L241.878 75.9983C242.441 75.6594 243.091 75.4874 243.751 75.5028L245.901 75.5528C246.913 75.5763 247.853 75.04 248.338 74.1626L249.37 72.2982C249.686 71.7266 250.162 71.2566 250.74 70.9443L252.628 69.9257C253.516 69.4463 254.059 68.5173 254.035 67.5178L253.984 65.3939C253.969 64.7426 254.143 64.1007 254.486 63.5444L255.605 61.7301C256.132 60.8762 256.132 59.8035 255.605 58.9496L254.486 57.1353C254.143 56.579 253.969 55.9371 253.984 55.2859L254.035 53.162C254.059 52.1625 253.516 51.2334 252.628 50.754L250.74 49.7354C250.162 49.4231 249.686 48.9532 249.37 48.3815L248.338 46.5172C247.853 45.6398 246.913 45.1034 245.901 45.127L243.751 45.177C243.091 45.1923 242.441 45.0203 241.878 44.6814L240.042 43.5761ZM243.109 62.9694C243.072 62.839 242.951 62.7491 242.814 62.7491H241.227C241.091 62.7491 240.971 62.8377 240.932 62.9669L240.643 63.936C240.565 64.1965 240.291 64.3445 240.03 64.2667C239.77 64.1888 239.622 63.9145 239.7 63.6541L241.539 57.4987C241.69 56.9929 242.407 56.9961 242.553 57.5032L244.332 63.6583C244.408 63.9194 244.258 64.1923 243.997 64.2679C243.736 64.3434 243.463 64.193 243.388 63.9319L243.109 62.9694ZM226.522 63.8623V57.4855C226.522 57.2842 226.687 57.1211 226.891 57.1211H229.596C230.411 57.1211 231.072 57.7737 231.072 58.5786V60.1116C231.072 60.9166 230.411 61.5691 229.596 61.5691H227.813C227.644 61.5691 227.506 61.7051 227.506 61.8728V63.8623C227.506 64.0971 227.313 64.2874 227.076 64.2874H226.953C226.715 64.2874 226.522 64.0971 226.522 63.8623ZM246.319 63.8623V57.4855C246.319 57.2842 246.485 57.1211 246.688 57.1211H249.393C250.208 57.1211 250.869 57.7737 250.869 58.5786V60.1116C250.869 60.9166 250.208 61.5691 249.393 61.5691H247.611C247.441 61.5691 247.303 61.7051 247.303 61.8728V63.8623C247.303 64.0971 247.11 64.2874 246.873 64.2874H246.75C246.512 64.2874 246.319 64.0971 246.319 63.8623ZM234.275 57.7917C234.732 56.8976 236.019 56.8976 236.477 57.7917L237.485 59.7614C237.788 60.354 237.788 61.0546 237.485 61.6471L236.477 63.6169C236.019 64.511 234.732 64.511 234.275 63.6169L233.267 61.6471C232.964 61.0546 232.964 60.354 233.267 59.7614L234.275 57.7917Z" fill="#FEFEFE"/>
<path d="M224.658 84.3933L228.617 75.0074C228.757 75.1807 228.914 75.3389 229.083 75.4803L225.225 84.6269C225 85.1598 225.519 85.7044 226.072 85.5148L230.856 83.8708C231.123 83.7791 231.417 83.901 231.538 84.1535L233.699 88.6676C233.949 89.1902 234.707 89.1737 234.934 88.6409L238.386 80.5238L238.062 79.7555L234.605 87.8329C234.51 88.0536 234.197 88.0621 234.09 87.8468L231.8 83.2185C231.718 83.0545 231.527 82.9751 231.351 83.0329L226.339 84.6834C226.11 84.7588 225.896 84.534 225.988 84.3129L229.506 75.7818C230.494 76.3794 231.674 76.3194 232.807 76.2618C233.053 76.2493 233.296 76.2369 233.535 76.2313C234.503 76.2088 235.268 76.7111 236.036 77.2155C236.671 77.632 237.308 78.05 238.063 78.1754L242.465 88.6293C242.69 89.164 243.45 89.1818 243.701 88.6583L245.857 84.1535C245.978 83.901 246.272 83.7791 246.539 83.8708L251.308 85.5094C251.861 85.6996 252.381 85.1513 252.153 84.618L248.223 75.4481C248.392 75.3037 248.546 75.1426 248.685 74.9664L252.719 84.3813C253.155 85.3994 252.163 86.4462 251.106 86.083L246.389 84.4624L244.257 88.9178C243.778 89.9173 242.327 89.8833 241.897 88.8626L238.718 81.3116L235.5 88.8761C235.068 89.8934 233.62 89.9247 233.143 88.9272L231.006 84.4624L226.274 86.0884C225.22 86.4505 224.228 85.4107 224.658 84.3933Z" fill="#FEFEFE"/>
<path d="M242.791 87.8312L238.697 78.2219C239.788 78.2022 240.733 77.5949 241.639 77.0131C241.848 76.8784 242.056 76.7451 242.262 76.6207C243.104 76.1144 244.046 76.1605 244.992 76.2067C245.953 76.2537 246.916 76.3008 247.781 75.7705L251.399 84.308C251.493 84.5293 251.279 84.7568 251.049 84.6809L246.043 83.0329C245.868 82.9751 245.677 83.0545 245.595 83.2185L243.305 87.8455C243.199 88.061 242.885 88.0523 242.791 87.8312Z" fill="#FEFEFE"/>
<path fill-rule="evenodd" clip-rule="evenodd" d="M293.06 51.3453L300.94 58.197L297.771 61.2805L302.567 58.5396L293.061 51.3454L301.111 54.4284H307.627L315.672 51.345L315.676 51.3581L306.168 58.5396L310.875 61.2805L307.792 58.2012L315.677 51.3596L316.956 55.1136L316.11 59.0536L316.528 59.3962L315.843 60.0814L316.528 60.5953L315.672 61.2806L316.11 61.6232L314.901 62.9936L316.699 68.304L315.158 73.7857L309.676 72.0727L306.25 74.6422H302.481L299.055 72.0727L293.573 73.7857L292.032 68.304L293.745 62.9936L292.717 61.6232L293.231 61.2806L292.374 60.5953L292.888 60.0814L292.203 59.3962L292.717 59.0536L291.86 55.1136L293.059 51.345L293.06 51.3453ZM299.399 65.9571L301.697 64.8779L302.653 66.9335L299.399 65.9571ZM303.025 70.0757H305.711L306.271 70.451L306.495 72.5765L306.243 72.3633H302.54L302.298 72.5766L302.516 70.4262L303.025 70.0757ZM306.08 66.9317L307.036 64.8779L309.334 65.9571L306.08 66.9317ZM403.963 63.7299C403.553 63.4583 403.116 63.2356 402.679 63.0125L402.679 63.0124C402.414 62.8773 402.149 62.7421 401.889 62.5958C401.783 62.5361 401.676 62.4779 401.569 62.4198L401.568 62.4197C401.223 62.2326 400.876 62.045 400.58 61.8009C399.921 61.2581 400.057 60.1918 400.745 59.7266C401.734 59.0674 403.372 59.4358 403.547 60.7831C403.547 60.8122 403.576 60.8316 403.605 60.8316H405.098C405.136 60.8316 405.165 60.8025 405.156 60.7638C405.078 59.8332 404.72 59.0577 404.06 58.5634C403.43 58.0884 402.713 57.8364 401.947 57.8364C398.002 57.8364 397.643 62.0142 399.766 63.3325C399.86 63.3925 400.229 63.586 400.69 63.8271L400.69 63.8272L400.693 63.8288L400.694 63.829L400.695 63.8299L400.695 63.83L400.696 63.8302C401.425 64.2119 402.379 64.7115 402.829 64.9901C403.566 65.4457 403.799 66.2793 403.479 66.9384C403.188 67.5394 402.432 67.9562 401.676 67.9078C400.852 67.8593 400.212 67.4134 399.989 66.7155C399.95 66.5895 399.931 66.3471 399.931 66.2405C399.931 66.2114 399.902 66.1824 399.873 66.1824H398.254C398.225 66.1824 398.196 66.2114 398.196 66.2405C398.196 67.4134 398.487 68.0629 399.282 68.6542C400.028 69.2164 400.842 69.449 401.685 69.449C403.896 69.449 405.039 68.1986 405.272 66.8997C405.476 65.6298 405.098 64.486 403.963 63.7299ZM334.685 58.1078C334.685 58.0787 334.656 58.0496 334.627 58.0496H332.174C332.145 58.0496 332.126 58.069 332.116 58.0884L330.788 62.4698C330.769 62.528 330.691 62.528 330.672 62.4698L329.344 58.0884C329.334 58.0593 329.315 58.0496 329.286 58.0496H326.814C326.785 58.0496 326.756 58.0787 326.756 58.1078V69.2939C326.756 69.323 326.785 69.3521 326.814 69.3521H328.433C328.462 69.3521 328.491 69.323 328.491 69.2939V60.7928C328.491 60.725 328.588 60.7153 328.607 60.7735L329.945 65.1839L330.042 65.4941C330.051 65.5232 330.071 65.5329 330.1 65.5329H331.341C331.37 65.5329 331.389 65.5135 331.399 65.4941L331.496 65.1839L332.833 60.7735C332.853 60.7056 332.95 60.725 332.95 60.7928V69.2939C332.95 69.323 332.979 69.3521 333.008 69.3521H334.627C334.656 69.3521 334.685 69.323 334.685 69.2939V58.1078ZM379.177 58.0496C379.148 58.0496 379.129 58.069 379.119 58.0884L377.791 62.4698C377.772 62.528 377.694 62.528 377.675 62.4698L376.347 58.0884C376.337 58.0593 376.318 58.0496 376.289 58.0496H373.827C373.798 58.0496 373.769 58.0787 373.769 58.1078V69.2939C373.769 69.323 373.798 69.3521 373.827 69.3521H375.446C375.475 69.3521 375.504 69.323 375.504 69.2939V60.7928C375.504 60.725 375.601 60.7153 375.62 60.7735L376.958 65.1839L377.055 65.4941C377.064 65.5232 377.084 65.5329 377.113 65.5329H378.354C378.383 65.5329 378.402 65.5135 378.412 65.4941L378.509 65.1839L379.846 60.7735C379.866 60.7056 379.963 60.725 379.963 60.7928V69.2939C379.963 69.323 379.992 69.3521 380.021 69.3521H381.64C381.669 69.3521 381.698 69.323 381.698 69.2939V58.1078C381.698 58.0787 381.669 58.0496 381.64 58.0496H379.177ZM358.356 58.1078C358.356 58.0787 358.337 58.0496 358.298 58.0496H350.65C350.621 58.0496 350.592 58.0787 350.592 58.1078V59.5036C350.592 59.5327 350.621 59.5618 350.65 59.5618H353.606V69.2939C353.606 69.323 353.635 69.3521 353.665 69.3521H355.283C355.312 69.3521 355.342 69.323 355.342 69.2939V59.5618H358.298C358.327 59.5618 358.356 59.5327 358.356 59.5036V58.1078ZM367.846 69.3521H369.319C369.358 69.3521 369.387 69.3133 369.377 69.2745L366.334 58.0496C366.324 58.0205 366.305 58.0108 366.276 58.0108H364.162C364.133 58.0108 364.114 58.0302 364.104 58.0496L361.061 69.2745C361.051 69.3133 361.08 69.3521 361.119 69.3521H362.592C362.621 69.3521 362.641 69.3327 362.65 69.3133L363.532 66.0466C363.542 66.0176 363.561 66.0079 363.591 66.0079H366.848C366.877 66.0079 366.896 66.0273 366.906 66.0466L367.788 69.3133C367.797 69.3327 367.827 69.3521 367.846 69.3521ZM363.978 64.4085L365.161 60.0368C365.18 59.9786 365.258 59.9786 365.277 60.0368L366.46 64.4085C366.469 64.4472 366.44 64.486 366.402 64.486H364.036C363.998 64.486 363.969 64.4472 363.978 64.4085ZM392.971 69.3521H394.445C394.483 69.3521 394.512 69.3133 394.503 69.2745L391.459 58.0496C391.449 58.0205 391.43 58.0108 391.401 58.0108H389.288C389.259 58.0108 389.239 58.0302 389.23 58.0496L386.186 69.2745C386.176 69.3133 386.205 69.3521 386.244 69.3521H387.717C387.746 69.3521 387.766 69.3327 387.776 69.3133L388.658 66.0466C388.667 66.0176 388.687 66.0079 388.716 66.0079H391.973C392.002 66.0079 392.021 66.0273 392.031 66.0466L392.913 69.3133C392.923 69.3327 392.942 69.3521 392.971 69.3521ZM389.104 64.4085L390.286 60.0368C390.306 59.9786 390.383 59.9786 390.402 60.0368L391.585 64.4085C391.595 64.4472 391.566 64.486 391.527 64.486H389.162C389.123 64.486 389.094 64.4472 389.104 64.4085ZM341.257 67.6945V64.2243C341.257 64.1952 341.286 64.1661 341.315 64.1661H345.629C345.658 64.1661 345.687 64.1371 345.687 64.108V62.7121C345.687 62.683 345.658 62.654 345.629 62.654H341.315C341.286 62.654 341.257 62.6249 341.257 62.5958V59.6296C341.257 59.6006 341.286 59.5715 341.315 59.5715H346.22C346.249 59.5715 346.278 59.5424 346.278 59.5133V58.1175C346.278 58.0884 346.249 58.0593 346.22 58.0593H339.58C339.551 58.0593 339.522 58.0884 339.522 58.1175V69.2939C339.522 69.323 339.551 69.3521 339.58 69.3521H346.424C346.453 69.3521 346.482 69.323 346.482 69.2939V67.8205C346.482 67.7915 346.453 67.7624 346.424 67.7624H341.305C341.276 67.7527 341.257 67.7333 341.257 67.6945ZM418.756 69.2552L413.153 63.4682C413.133 63.4488 413.133 63.41 413.153 63.3907L418.193 58.1562C418.232 58.1175 418.203 58.0593 418.155 58.0593H416.09C416.07 58.0593 416.061 58.069 416.051 58.0787L411.776 62.5183C411.738 62.557 411.679 62.528 411.679 62.4795V58.1175C411.679 58.0884 411.65 58.0593 411.621 58.0593H410.002C409.973 58.0593 409.944 58.0884 409.944 58.1175V69.3036C409.944 69.3327 409.973 69.3618 410.002 69.3618H411.621C411.65 69.3618 411.679 69.3327 411.679 69.3036V64.3794C411.679 64.3309 411.747 64.3018 411.776 64.3406L416.623 69.3424C416.633 69.3521 416.652 69.3618 416.662 69.3618H418.726C418.765 69.3521 418.794 69.2842 418.756 69.2552Z" fill="white"/>
</svg>
