<svg width="130" height="128" viewBox="0 0 130 128" fill="none" xmlns="http://www.w3.org/2000/svg">
<path opacity="0.4" d="M6.38513 106.568C41.586 135.643 125.279 134.64 104.824 106.568C88.8903 86.9999 51.7457 86.9997 36.3644 86.9998C20.9831 86.9998 -14.4261 89.746 6.38513 106.568Z" fill="#5A0EA7"/>
<ellipse opacity="0.5" rx="31.5" ry="10" transform="matrix(-1 0 0 1 74.5 117)" fill="#5A0EA7"/>
<path d="M75.0266 104.362C58.4725 104.362 45.0527 108.426 45.0527 113.439V116.923C45.0527 121.936 58.4725 126 75.0266 126C91.5807 126 105 121.936 105 116.923V113.439C105 108.426 91.5807 104.362 75.0266 104.362Z" fill="url(#paint0_linear_300_195)"/>
<ellipse cx="75.0266" cy="113.439" rx="29.9739" ry="9.07701" fill="url(#paint1_linear_300_195)"/>
<g opacity="0.4">
<path d="M50.2695 118.557V122.041C51.6364 122.646 53.239 123.199 55.0372 123.687V120.203C53.239 119.715 51.6365 119.163 50.2695 118.557Z" fill="white"/>
<path d="M56.5293 120.582V124.066C57.2948 124.248 58.0903 124.419 58.9131 124.578V121.094C58.0903 120.935 57.2948 120.764 56.5293 120.582Z" fill="white"/>
</g>
<path opacity="0.3" d="M45.4749 115.057C70.9608 121.325 103.146 119.465 101.334 109.114C96.2598 106.284 86.358 104.362 74.9739 104.362C58.4198 104.362 45 108.426 45 113.439C45 113.991 45.1629 114.532 45.4749 115.057Z" fill="#FF0101"/>
<path d="M75.1586 96.0002C61.1129 96.0002 49.7266 99.3408 49.7266 103.462V110.586C49.7266 114.707 61.1129 118.048 75.1586 118.048C89.2044 118.048 100.591 114.707 100.591 110.586V103.462C100.591 99.3408 89.2044 96.0002 75.1586 96.0002Z" fill="url(#paint2_linear_300_195)"/>
<ellipse cx="75.1586" cy="103.461" rx="25.4321" ry="7.46133" fill="url(#paint3_linear_300_195)"/>
<path opacity="0.3" d="M49.6816 103.464C70.2079 108.46 94.8693 107.402 94.5309 98.6424C89.8658 97.0261 82.8982 96 75.1137 96C61.068 96 49.6816 99.3406 49.6816 103.461L49.6816 103.464Z" fill="#FF0101"/>
<g opacity="0.4">
<path d="M59.4626 109.343C60.1122 109.492 60.7872 109.632 61.4852 109.762V116.879C60.7871 116.748 60.1121 116.607 59.4626 116.458V109.343Z" fill="white"/>
<path d="M54.1523 107.687C55.3137 108.182 56.6733 108.634 58.1976 109.033V116.146C56.6719 115.746 55.3122 115.291 54.1523 114.794V107.687Z" fill="white"/>
</g>
<path d="M100.711 103.319C74.0622 117.52 40.9466 107.43 26.7453 80.781C12.544 54.1323 22.6345 21.0168 49.2832 6.81541C75.9319 -7.38594 109.047 2.70464 123.249 29.3534C137.45 56.0021 127.36 89.1176 100.711 103.319Z" fill="url(#paint4_linear_300_195)"/>
<g opacity="0.15">
<path d="M97.4098 4.72318C92.2012 2.44182 86.5704 0.94546 80.6672 0.383759L20.7422 60.3087C21.3039 66.212 22.8002 71.8428 25.0816 77.0514L97.4098 4.72318Z" fill="#EAFDFF"/>
<path d="M41.2188 98.0161C35.4804 93.4455 30.678 87.7497 27.1457 81.2625L101.621 6.78731C108.108 10.3196 113.804 15.122 118.375 20.8604L41.2188 98.0161Z" fill="#EAFDFF"/>
<path d="M64.9131 108.95C62.7715 108.536 60.6743 107.998 58.6293 107.342L127.701 38.2709C128.356 40.3159 128.895 42.4131 129.309 44.5547L64.9131 108.95Z" fill="#EAFDFF"/>
</g>
<path fill-rule="evenodd" clip-rule="evenodd" d="M130 55C130 85.3757 105.376 110 75 110C44.6243 110 20 85.3757 20 55C20 24.6243 44.6243 0 75 0C105.376 0 130 24.6243 130 55ZM47.9322 16.0461C49.8293 15.4075 51.6928 14.9321 53.4631 14.5809C58.5365 19.0686 58.2608 27.015 53.4631 33.3928C56.1286 33.0288 60.9999 33.5683 62.7649 34.3333C63.9086 34.8294 64.545 35.3626 65.1382 35.8596C65.8447 36.4515 66.4899 36.992 67.8576 37.3573C71.8304 38.4203 75.5738 39.9253 78.9893 41.8303C79.5797 42.1596 80.8888 39.6688 82.3006 36.9829C83.9419 33.86 85.722 30.4732 86.6725 30.9479C103.651 35.4302 107.046 54.0383 107.046 57.0944C107.046 59.1483 102.447 60.9924 99.4895 62.1779C98.0465 62.7564 96.9947 63.1781 97.0595 63.3908C97.8759 66.0698 98.3834 68.9053 98.5438 71.8806C98.7244 75.229 98.5496 77.3258 98.4059 79.0504C98.2173 81.3128 98.0821 82.935 98.8723 85.9025C99.3992 87.8842 99.6646 89.1786 98.7796 91.411C95.228 100.375 92.1268 101.751 88.4632 103.375C87.6093 103.754 86.7248 104.146 85.797 104.651C107.651 99.7342 123.976 80.2082 123.976 56.8692C123.976 29.8204 102.049 7.89302 74.9998 7.89302C64.9926 7.89302 55.6863 10.8944 47.9322 16.0461Z" fill="url(#paint5_linear_300_195)"/>
<path fill-rule="evenodd" clip-rule="evenodd" d="M75 110C105.376 110 130 85.3757 130 55C130 24.6243 105.376 0 75 0C44.6243 0 20 24.6243 20 55C20 85.3757 44.6243 110 75 110ZM74.9998 103.976C102.049 103.976 123.976 82.049 123.976 55.0002C123.976 27.9514 102.049 6.02397 74.9998 6.02397C47.951 6.02397 26.0237 27.9514 26.0237 55.0002C26.0237 82.049 47.951 103.976 74.9998 103.976Z" fill="url(#paint6_linear_300_195)"/>
<path d="M64.8747 20.2456L63.7351 17.2219L63.1894 20.1873L62.2017 20.5533L59.8973 18.7591L60.9786 21.6853L58.935 22.445L56.4785 15.7936L58.3208 15.1124L61.7978 17.8563L62.5968 13.5335L64.4404 12.8522L66.9171 19.496L64.8747 20.2456ZM68.9038 15.5277C68.7326 13.3634 70.561 11.6723 72.6656 11.5734C74.7446 11.4088 76.7893 12.8233 76.891 15.02C77.0622 17.1849 75.2343 18.8754 73.1291 18.9743C71.0489 19.1389 69.0074 17.7246 68.9038 15.5277ZM74.4801 15.1732C74.4432 14.2703 73.7428 13.431 72.7809 13.5043C71.8308 13.5512 71.2259 14.4652 71.3057 15.3745C71.3427 16.2778 72.0439 17.1174 73.0063 17.0434C73.9626 17.0003 74.5621 16.1034 74.4801 15.1732ZM79.8197 15.239C80.2405 13.0812 82.4635 11.9707 84.4996 12.4318C86.5681 12.8313 88.1292 14.7638 87.6524 16.88C87.2318 19.0375 85.0094 20.147 82.9738 19.6859C80.925 19.2889 79.3432 17.3542 79.8197 15.239ZM85.2922 16.3887C85.499 15.5086 85.0455 14.5122 84.0995 14.3261C83.1709 14.1199 82.3461 14.8361 82.1786 15.7341C81.9698 16.6228 82.4382 17.6132 83.3714 17.7968C84.1819 17.9717 85.1424 17.1878 85.2922 16.3887ZM98.4987 18.0361L95.2737 24.3519L93.5238 23.4579L92.5894 19.3643L91.1256 22.2247L89.0503 21.1661L92.2753 14.8503L94.0252 15.7442L94.9597 19.8379L96.4247 16.9699L98.4987 18.0361ZM106.185 24.1632L107.78 25.9435L103.879 29.4382L106.014 31.8225L104.633 33.0583L100.903 28.8937L106.185 24.1632ZM109.289 38.5144L108.023 36.1339L106.708 36.2935L105.568 34.1409L113.284 33.5534L114.386 35.63L109.574 41.6925L108.416 39.5096L109.289 38.5144ZM110.502 37.1215L111.753 35.6768L109.854 35.9047L110.502 37.1215ZM118.562 48.6681L111.644 50.228L111.211 48.311L113.762 44.9745L110.619 45.6823L110.112 43.4108L117.03 41.8495L117.461 43.7666L114.913 47.1043L118.055 46.3952L118.562 48.6681ZM118.967 53.0757L118.817 56.5666C118.77 58.6214 117.336 60.5616 115.108 60.4121C112.909 60.3713 111.603 58.344 111.737 56.2627L111.886 52.7705L118.967 53.0757ZM113.599 56.2412C113.555 57.2431 114.203 57.9592 115.206 58.0038C116.208 58.0466 116.93 57.3919 116.965 56.3856L117.008 55.384L113.649 55.2396L113.599 56.2412ZM117.834 64.2753L117.255 66.5949L110.374 64.8767L110.954 62.5583L117.834 64.2753ZM113.101 76.8018L106.697 73.7629L107.541 71.9902L111.608 70.9406L108.695 69.5566L109.696 67.4534L116.1 70.4923L115.256 72.265L111.19 73.3147L114.102 74.6986L113.101 76.8018ZM105.113 81.897L103.771 83.4823L101.483 81.545C101.598 80.4616 102.09 79.4417 102.791 78.6074C104.113 76.9923 106.532 76.5396 108.18 77.9794C109.877 79.3639 109.822 81.837 108.423 83.4367C107.655 84.3746 106.521 85.0465 105.286 85.0271L105.245 82.9897C106.904 82.9775 108.067 81.0443 106.628 79.8192C105.576 78.9241 104.165 79.4402 103.75 80.7422L105.113 81.897ZM99.8953 83.3215C100.356 83.8706 100.143 84.687 99.5953 85.0891C99.0795 85.5355 98.2345 85.5529 97.8048 84.9891C97.3521 84.4382 97.5394 83.6113 98.0923 83.205C98.6104 82.7519 99.4638 82.7645 99.8953 83.3215ZM103.646 87.9735L101.508 89.6791L99.1356 85.9742L100.561 84.8346L103.646 87.9735Z" fill="white"/>
<path d="M69.5809 109.737C49.4414 107.768 32.4868 94.9366 24.6524 77.1784C24.5594 76.2529 24.4984 75.2908 24.4746 74.2912C24.4139 71.7431 23.943 70.7537 23.5215 69.868C22.9445 68.6557 22.46 67.6379 23.2473 63.0834C24.2867 57.0762 25.6711 55.947 27.7251 54.2716C28.7123 53.4664 29.8541 52.535 31.1867 50.8754C31.826 50.0784 32.4943 49.2862 33.1901 48.5078C32.9619 47.6692 32.7461 46.8926 32.548 46.1797L32.5216 46.0844C31.4793 42.3297 30.823 39.9654 31.006 38.2488C31.2216 36.2006 33.1824 34.3412 35.7593 32.8439C35.3158 32.2401 34.9168 31.5957 34.5689 30.9145C33.8254 30.774 33.1471 30.3974 32.6347 29.8406C30.898 28.6428 30.5458 25.4248 31.6565 23.4562C32.1278 22.2092 32.9182 21.4213 33.7834 21.0408C35.7876 14.8405 41.3007 11.7391 45.8307 11.4678C56.9359 10.8097 65.0093 24.2538 56.8205 33.6978C59.4915 33.1698 62.5527 33.4334 64.3571 34.2221C65.4162 34.6858 66.0061 35.1851 66.5558 35.6504C67.2106 36.2047 67.8085 36.7107 69.0749 37.051C72.809 38.0564 76.3235 39.4886 79.5235 41.3066C82.5369 34.9652 86.0392 29.1258 88.2194 29.794C88.7778 29.9659 88.7864 30.4445 88.4452 31.16C90.8826 31.9492 95.7759 34.3007 98.1409 36.3933C103.135 40.8116 106.76 53.6443 106.769 54.0824C106.769 56.2912 99.9665 59.3186 95.8909 60.7179C96.7748 63.4377 97.3191 66.3358 97.4772 69.3918C97.6396 72.5318 97.4745 74.4987 97.3387 76.1164C97.1604 78.2393 97.0327 79.7609 97.7619 82.5436C98.2455 84.4017 98.491 85.6118 97.6674 87.7118C94.3604 96.1262 91.483 97.4206 88.0836 98.9499C86.4543 99.6828 84.705 100.47 82.7311 102.12C78.1114 105.984 73.8289 107.281 72.3909 107.716C72.1741 107.782 72.0219 107.828 71.9431 107.86C71.381 108.093 71.0438 108.437 70.6791 108.808C70.3787 109.114 70.0596 109.439 69.5809 109.737Z" fill="url(#paint7_linear_300_195)"/>
<path d="M85.2121 57.4378C85.2121 57.4586 85.9964 57.7274 86.4468 57.6366C87.6459 57.3911 86.7892 54.9942 84.7285 53.5546C83.785 52.7654 83.4148 52.8878 83.3401 52.9125C83.3344 52.9144 83.3304 52.9157 83.3281 52.916C83.3272 52.9161 83.3265 52.9161 83.3261 52.9159C83.3248 52.9143 83.3279 52.9083 83.3357 52.8962L83.3392 52.8906C82.3918 53.1054 82.2064 53.6012 82.3353 54.2406C82.7489 56.2092 83.5859 56.7284 85.2158 57.4292L85.2121 57.4378Z" fill="white"/>
<path d="M76.4099 62.671L76.416 62.6575C79.6291 62.6575 80.6097 66.5996 80.6036 67.8588C80.6036 69.1463 79.7997 70.592 78.8363 71.6389C78.6757 71.753 78.5084 71.8575 78.3355 71.9519C77.5324 72.3872 76.6251 72.5931 75.7128 72.5471H75.6747L75.5606 72.5398C75.4489 72.5312 75.3384 72.5177 75.228 72.5017C75.1937 72.4968 75.1595 72.4909 75.1252 72.4849L75.0886 72.4785L75.0733 72.476C74.9547 72.4539 74.8369 72.4281 74.7199 72.3986C74.3709 72.3082 74.0324 72.1815 73.7098 72.0206C73.6558 71.9936 73.6018 71.9654 73.549 71.936L73.4017 71.8512L73.3747 71.8347L73.354 71.8222L73.3529 71.8215C73.3092 71.7951 73.264 71.7677 73.2213 71.7383C73.2033 71.7272 73.1829 71.713 73.1643 71.7L73.1456 71.687C73.1387 71.6823 73.1323 71.678 73.1268 71.6745C73.1141 71.6665 73.1053 71.6606 73.094 71.6527L73.0569 71.6267C73.0483 71.6207 73.0398 71.6146 73.0313 71.6084L73.0177 71.5984L72.994 71.5807C72.9788 71.5692 72.9635 71.5575 72.9483 71.5458L72.947 71.5449L72.9401 71.5396L72.9213 71.525L72.8962 71.5053L72.8372 71.4585C72.8016 71.4303 72.7648 71.4008 72.7292 71.3701C72.5138 71.1864 72.3142 70.9848 72.1327 70.7676C71.7201 70.2765 71.4212 69.7002 71.2576 69.08C71.0024 67.784 71.1533 66.6168 71.5976 65.6436L71.6074 65.6202C71.9605 64.8784 72.4846 64.2311 73.1366 63.7314C73.147 63.722 73.1581 63.7134 73.1698 63.7056C74.0359 63.0732 75.0707 62.7131 76.1423 62.671H76.4099Z" fill="white"/>
<path d="M53.1524 72.2415C53.2796 72.3328 53.4125 72.4243 53.5491 72.5177L53.6434 72.5822C55.4729 73.8312 57.8627 75.4628 56.0759 81.0131C55.861 81.8267 55.4399 82.5048 55.0094 83.198C54.8964 83.3799 54.7825 83.5633 54.6718 83.75C54.3309 84.322 53.9877 84.8899 53.6084 85.4224C52.4189 87.0927 50.8761 88.4138 47.9474 88.4138C45.4781 88.4138 43.5684 86.9864 41.6734 85.3222C41.2939 84.9879 40.8569 84.7692 40.4182 84.5497C39.1786 83.9294 37.9264 83.3028 37.9264 80.0447C37.9264 77.7971 38.6199 75.9736 39.6641 74.5176C42.2124 70.964 46.8493 69.5992 48.5905 69.5992C48.7398 69.5993 48.889 69.6083 49.0373 69.6262C49.9001 69.7243 50.5788 70.1171 51.201 70.608C51.4902 70.8357 51.7671 71.0835 52.0439 71.3312C52.4025 71.6521 52.7612 71.9731 53.1463 72.2501L53.1524 72.2415Z" fill="white"/>
<path d="M73.9209 81.2451C78.2165 81.2451 81.7658 85.4388 80.6711 89.8264L80.6772 89.8178C80.6281 90.0154 80.5829 90.2127 80.5381 90.408C80.5083 90.5384 80.4785 90.6683 80.4479 90.7966C80.1745 91.9449 79.8332 92.9908 78.6779 93.6212C77.5427 94.2349 76.0846 94.9713 74.7506 94.9713H74.7473C69.7521 94.9702 67.8457 92.4678 67.8457 88.1413C67.8457 87.3287 67.8915 86.6023 67.9844 85.9548C68.4906 82.4286 70.3954 81.2451 73.9209 81.2451Z" fill="white"/>
<path fill-rule="evenodd" clip-rule="evenodd" d="M58.422 107.459C45.2012 103.285 34.1382 94.2521 27.3288 82.4549C27.2092 82.0536 27.0936 81.6387 26.9826 81.2095C26.1416 77.9552 26.0849 75.6146 26.0399 73.7562C26.0054 72.3304 25.9778 71.1884 25.608 70.1355C25.4237 69.609 25.2323 69.2148 25.0581 68.8558C24.4735 67.6515 24.0814 66.8438 24.7943 62.7716C25.3907 59.3474 25.9357 57.1788 28.3363 55.2544C29.9557 53.9568 31.5697 52.1878 33.3158 50.2742L33.585 49.9792C33.835 50.9228 34.0953 51.9324 34.3598 53.006C33.9854 53.3777 33.5864 53.7237 33.1656 54.0419C32.3803 54.6614 31.5748 55.3012 31.1704 56.3955C31.116 56.3916 31.0603 56.3896 31.0032 56.3896C27.957 56.3896 26.3898 60.3502 25.3907 63.0171C24.9931 65.9712 26.5837 67.6895 28.5719 67.6895C30.4583 67.6895 34.4998 65.635 34.4998 63.8676C34.0146 63.7865 33.337 64.2507 32.5664 64.7787C31.5419 65.4807 30.3529 66.2953 29.2322 66.0915C31.4596 64.3635 32.8053 61.4425 32.9293 59.2561C33.1075 59.2889 33.293 59.3058 33.4835 59.3058C33.8928 59.3016 34.299 59.2337 34.6874 59.1045C35.1185 58.9763 35.5244 58.7754 35.8877 58.5105L35.9054 58.4986C36.0241 58.4191 36.162 58.3267 36.3455 58.2098C36.6011 58.2902 36.868 58.3291 37.1359 58.3252C38.0368 58.3252 39.0984 57.9459 40.0483 57.2856C40.9247 56.6656 41.6642 55.8718 42.2206 54.9538C43.3584 56.3639 45.0312 57.0512 47.3041 57.0512C48.2911 57.0318 49.2755 56.942 50.2497 56.7824C50.737 56.6999 51.2288 56.6471 51.7225 56.6241C51.8148 56.6203 51.9072 56.6285 51.9974 56.6487L52.0231 56.656H52.0489C53.4628 56.9273 54.0126 58.1767 54.7932 60.1956C55.3344 61.5972 55.9481 63.1853 57.1459 64.4028L57.1692 64.4261L57.195 64.4482C58.2412 65.301 59.5457 65.7735 60.8953 65.7884C62.1803 65.7884 63.2837 65.3233 64.0029 64.4789C64.484 63.9143 64.9994 62.93 64.8767 61.3529C67.9438 61.2327 69.3061 59.2812 69.3061 57.3642C69.3032 56.4123 68.964 55.4921 68.3484 54.7661C67.7329 54.0401 66.8806 53.5549 65.942 53.3963C66.5029 51.6732 66.5029 49.8641 65.8892 48.4269C65.5538 47.6229 65.0149 46.9199 64.3257 46.3871C65.6561 45.9195 66.5225 45.1427 66.8429 44.4468C67.1423 43.7926 67.0797 43.098 66.6514 42.4426C66.1911 41.7497 65.4695 41.6356 64.6339 41.5035L64.6276 41.5025C60.643 40.8746 59.7012 39.206 58.4242 36.9436C58.2809 36.6897 58.1333 36.4283 57.9768 36.16C57.6804 35.6189 57.3419 35.1029 56.9646 34.6166C59.3594 34.0574 62.2698 34.2767 63.7858 34.9375C64.6492 35.3135 65.1563 35.7493 65.6654 36.1867C66.3779 36.799 67.0941 37.4144 68.7957 37.8733C72.5317 38.881 76.0159 40.2859 79.161 42.0758C76.1673 48.4965 73.744 55.1811 73.744 55.9848C73.744 57.4785 74.6031 57.6871 75.5408 56.5359C75.7686 56.2547 76.0309 55.7458 76.3261 55.0655C76.6713 55.3947 76.9806 55.7947 76.8749 56.504C76.7178 57.5546 75.4021 58.2051 74.3651 58.3032C74.0914 58.3622 73.7882 58.4456 73.7146 58.7623H73.7085C73.7367 59.0409 73.9711 59.1746 74.2865 59.2225C75.7851 59.4459 77.7893 58.3965 78.0384 56.7384C78.2173 55.5439 77.5997 54.3341 76.8409 53.8017C77.1733 52.9465 77.5382 51.9494 77.9341 50.8677L77.9346 50.8662L77.935 50.8653C78.5058 49.3053 79.1411 47.5694 79.8363 45.8289C80.0394 45.9382 80.2821 46.0544 80.5578 46.1863C82.4479 47.0909 85.8896 48.738 88.7674 54.0322C89.1812 54.793 89.525 55.815 89.8759 56.8578C90.6379 59.122 91.4328 61.4844 93.0471 61.4844C93.3009 61.4844 93.8749 61.3526 94.6511 61.1191C95.8967 65.3253 96.3745 70.0321 95.9388 75.219C95.7964 74.7638 95.6915 74.2564 95.5843 73.7375C95.3432 72.5706 95.0902 71.3463 94.3715 70.5307C93.5725 71.1934 95.5804 78.8911 95.8762 79.9073L95.8737 79.9098C96.0223 81.0476 96.2374 81.8819 96.4185 82.5848C96.7716 83.9544 96.996 84.8248 96.3487 86.4697C95.3497 88.998 94.3887 90.8487 93.4473 92.238C91.3535 95.3262 89.3483 96.13 87.2108 96.9868C86.2086 97.3885 85.1773 97.8019 84.094 98.4679C81.6204 99.9628 80.0278 100.486 78.7763 100.897C77.7129 101.246 76.8958 101.515 75.9938 102.23C74.9735 103.042 77.9723 102.191 78.4727 102.049L78.4755 102.048L78.5173 102.036L78.5405 102.03C77.6666 103.659 73.7564 105.104 72.4322 105.472C70.5404 105.995 69.9917 106.595 69.4954 107.137C69.028 107.648 68.6072 108.108 67.1547 108.405C65.3276 108.783 64.1339 108.426 62.9835 108.083L62.982 108.082C62.7304 108.007 62.4807 107.933 62.2271 107.867C60.4906 107.413 59.5994 107.433 58.6936 107.453C58.6035 107.455 58.5133 107.457 58.422 107.459ZM81.3498 54.34C82.4188 59.5905 88.4461 59.955 87.8017 56.7885V56.7836C86.9512 52.6046 80.5226 50.2678 81.3498 54.34ZM77.8139 73.7278C82.4175 71.8439 83.7528 64.3328 78.2447 62.1384V62.1334C73.5576 60.8779 70.0352 63.7694 70.0352 67.892C70.0352 72.7705 74.3774 74.8103 77.8139 73.7278ZM41.5609 87.5298C42.8169 88.7746 43.9698 89.9172 46.7913 89.9172V89.9123C53.4187 89.9123 56.0992 85.7309 57.2504 83.0443C57.5256 82.4019 57.714 81.8454 57.8473 81.4517C57.9381 81.1835 58.0033 80.9907 58.053 80.8977C59.0712 75.2829 58.1015 74.5832 55.7572 72.8914C55.3575 72.6029 54.9177 72.2856 54.4411 71.9102C53.9903 71.5556 53.6075 71.1612 53.2228 70.7649C51.9594 69.4632 50.6761 68.1411 46.8956 68.1411H46.8846C42.1742 68.1411 39.6938 70.7675 37.2011 75.4546C36.301 78.083 36.446 80.9568 37.6061 83.4812C38.0648 84.6628 38.8084 85.2254 39.6614 85.8707C39.961 86.0975 40.2743 86.3345 40.5934 86.6121C40.9394 86.9139 41.2532 87.2249 41.5609 87.5298ZM71.8787 95.6254C72.3774 95.7712 72.8878 95.8735 73.4042 95.931V95.9236C74.1803 96.0154 74.9654 96.0001 75.7373 95.8782C77.0373 95.6813 78.2596 95.1359 79.2744 94.2999C84.5985 89.8473 80.9398 80.3614 75.5397 80.3614C68.8411 80.3614 66.2821 83.6763 66.2821 88.5758C66.2792 89.2821 66.3801 89.9851 66.5816 90.6622C67.3376 93.188 69.4523 94.916 71.8787 95.6254ZM91.9365 92.0932C93.3442 90.0461 94.9925 86.8183 95.373 85.8671L95.3828 85.8536C95.8578 84.749 95.4663 84.1808 95.0723 84.4275C93.7117 85.2681 91.6298 89.4039 90.5386 91.5717L90.5297 91.5892C90.4216 91.8039 90.3234 91.999 90.2367 92.1693C90.1483 92.3436 90.071 92.4909 90.0084 92.6075C89.7826 93.0419 89.8035 93.3758 89.9409 93.6556C90.233 94.2459 91.0332 93.4163 91.9365 92.0932ZM72.6689 54.5293C73.2679 53.7315 72.5143 53.6125 71.8675 54.0887C71.2526 54.5084 70.9667 55.2325 70.8108 55.9861C70.4207 57.8647 71.4522 58.6656 71.9507 59.0527L71.9608 59.0605C72.4554 59.4446 72.8972 58.9611 72.5548 58.4333C72.4452 58.2634 72.3181 58.1118 72.1936 57.9632C71.6113 57.2682 71.0855 56.6405 72.6689 54.5293ZM77.3388 59.5428C77.1363 59.5171 77.0246 59.4004 77.0443 59.2716H77.0504C77.0651 59.1709 77.1609 59.0605 77.3474 58.9697C77.6063 58.9666 77.7951 58.6959 77.9799 58.4311C78.17 58.1585 78.3557 57.8922 78.6091 57.9301C78.656 57.9355 78.7011 57.9509 78.7416 57.9751C78.7821 57.9994 78.8169 58.032 78.8437 58.0708C78.8706 58.1097 78.8888 58.1537 78.8973 58.2002C78.9057 58.2466 78.9041 58.2943 78.8926 58.3401C78.8214 58.8199 78.0102 59.6435 77.3388 59.5428Z" fill="white"/>
<path fill-rule="evenodd" clip-rule="evenodd" d="M91.6344 57.5917C91.0835 55.7435 90.3235 53.1935 88.5716 50.7122C89.0912 51.0017 89.8699 51.2614 90.9952 51.6366L90.9966 51.6371L90.9977 51.6374C91.4188 51.7779 91.8887 51.9346 92.4115 52.115C94.1616 52.709 95.0305 50.3735 93.3553 49.8298C93.0897 49.7436 92.8484 49.6689 92.6285 49.6008C91.4613 49.2395 90.8991 49.0655 90.5325 48.357C90.2029 47.7298 90.3592 46.9207 90.5011 46.1858C90.5892 45.7299 90.6717 45.3025 90.6294 44.9647C90.465 43.5435 88.6044 43.4564 88.2558 45.139C88.1637 45.7056 88.0759 46.2096 87.9974 46.6598C87.7492 48.0839 87.595 48.9686 87.6979 49.5842C86.353 47.9994 84.5402 46.4929 82.0456 45.2752C81.7437 45.1267 80.9042 44.7646 80.2709 44.7425C81.1718 42.5641 82.1659 40.4347 83.2422 38.6944C84.2033 37.1399 85.2919 35.6813 86.2406 34.4102L86.2415 34.409C86.7523 33.7246 87.2224 33.0946 87.6102 32.5333C88.0166 32.7457 88.5168 32.973 89.0879 33.2326C92.9425 34.9844 100.028 38.2044 103.32 48.2048C103.453 48.6083 103.645 49.0715 103.851 49.5695C104.368 50.816 104.975 52.2807 104.975 53.5742C104.974 57.3335 93.1626 60.3158 93.1503 60.3158C92.4463 60.3158 92.1224 59.2292 91.6344 57.5917ZM99.5679 52.9017C99.8256 52.5519 99.8502 52.4758 100.706 48.3153C101.081 46.4798 99.7092 46.0931 97.5821 45.4932C97.2174 45.3904 96.8301 45.2812 96.426 45.1574C96.5022 44.7029 96.5751 44.2913 96.6412 43.9179L96.6421 43.9129L96.6429 43.9087L96.6432 43.9068C96.9604 42.1165 97.1218 41.2057 96.7549 40.6338C96.375 40.0416 95.4285 39.8128 93.502 39.3471L93.5011 39.3469C93.0103 39.2283 92.4558 39.0943 91.831 38.935C90.1569 38.5189 89.3665 40.9514 90.8859 41.4019C91.1294 41.4703 91.3555 41.5317 91.5653 41.5887C94.0475 42.2632 94.2387 42.3152 93.6265 45.8607C93.417 47.0682 94.129 47.2757 95.5045 47.6766C95.741 47.7456 95.997 47.8202 96.2713 47.9066C97.9872 48.4633 97.6597 49.8833 97.3741 51.1217C97.3374 51.281 97.3013 51.4374 97.2704 51.5885C96.8064 53.5952 98.899 53.8087 99.5679 52.9017Z" fill="white"/>
<path d="M28.2332 59.736C28.8615 58.855 29.5984 58.2173 30.3123 58.3067C32.3859 58.618 31.4283 61.8254 30.1141 63.6636C29.9567 63.8838 29.7942 64.0843 29.6311 64.2579L29.6273 64.264C29.59 64.324 29.5516 64.3815 29.5122 64.4364C28.421 65.9588 26.5812 65.5521 26.5812 63.7265C26.5812 62.9553 27.2833 61.0677 28.2332 59.736Z" fill="white"/>
<path d="M104.271 61.5312C104.584 61.4393 104.906 61.6481 104.95 61.972L105.096 63.052C105.108 63.1343 105.138 63.2129 105.185 63.2815L105.799 64.1816C105.984 64.4514 105.884 64.822 105.59 64.9638L104.608 65.4367C104.533 65.4728 104.468 65.5257 104.417 65.5915L103.751 66.4542C103.551 66.7128 103.168 66.7331 102.942 66.4969L102.189 65.7091C102.132 65.649 102.061 65.6032 101.983 65.5753L100.957 65.2083C100.649 65.0983 100.511 64.7402 100.666 64.4525L101.183 63.4927C101.222 63.4195 101.244 63.3382 101.246 63.2552L101.278 62.1657C101.287 61.8391 101.585 61.5976 101.907 61.6559L102.979 61.8505C103.061 61.8654 103.145 61.8609 103.225 61.8376L104.271 61.5312Z" fill="#EA6902"/>
<path d="M76.7129 26.1624C77.3493 26.3113 77.7038 26.9918 77.4612 27.5986L76.8701 29.0773C76.8085 29.2315 76.7836 29.398 76.7976 29.5635L76.9316 31.1503C76.9865 31.8015 76.4489 32.3489 75.7968 32.3058L74.2079 32.2005C74.0422 32.1896 73.8761 32.2174 73.7231 32.2818L72.2553 32.8996C71.653 33.1531 70.9662 32.811 70.8058 32.1774L70.4148 30.6338C70.374 30.4727 70.2963 30.3235 70.1877 30.1978L69.1466 28.9928C68.7194 28.4982 68.8326 27.7394 69.3855 27.391L70.7328 26.5422C70.8733 26.4536 70.9913 26.3335 71.0773 26.1914L71.9016 24.829C72.2399 24.2698 72.9966 24.1429 73.4988 24.5612L74.7224 25.5802C74.85 25.6865 75.0007 25.7616 75.1624 25.7994L76.7129 26.1624Z" fill="#EA6902"/>
<path d="M104.271 61.5312C104.584 61.4393 104.906 61.6481 104.95 61.972L105.096 63.052C105.108 63.1343 105.138 63.2129 105.185 63.2815L105.799 64.1816C105.984 64.4514 105.884 64.822 105.59 64.9638L104.608 65.4367C104.533 65.4728 104.468 65.5257 104.417 65.5915L103.751 66.4542C103.551 66.7128 103.168 66.7331 102.942 66.4969L102.189 65.7091C102.132 65.649 102.061 65.6032 101.983 65.5753L100.957 65.2083C100.649 65.0983 100.511 64.7402 100.666 64.4525L101.183 63.4927C101.222 63.4195 101.244 63.3382 101.246 63.2552L101.278 62.1657C101.287 61.8391 101.585 61.5976 101.907 61.6559L102.979 61.8505C103.061 61.8654 103.145 61.8609 103.225 61.8376L104.271 61.5312Z" stroke="#EA6902" stroke-width="0.533902" stroke-linecap="round" stroke-linejoin="round"/>
<path d="M76.7129 26.1624C77.3493 26.3113 77.7038 26.9918 77.4612 27.5986L76.8701 29.0773C76.8085 29.2315 76.7836 29.398 76.7976 29.5635L76.9316 31.1503C76.9865 31.8015 76.4489 32.3489 75.7968 32.3058L74.2079 32.2005C74.0422 32.1896 73.8761 32.2174 73.7231 32.2818L72.2553 32.8996C71.653 33.1531 70.9662 32.811 70.8058 32.1774L70.4148 30.6338C70.374 30.4727 70.2963 30.3235 70.1877 30.1978L69.1466 28.9928C68.7194 28.4982 68.8326 27.7394 69.3855 27.391L70.7328 26.5422C70.8733 26.4536 70.9913 26.3335 71.0773 26.1914L71.9016 24.829C72.2399 24.2698 72.9966 24.1429 73.4988 24.5612L74.7224 25.5802C74.85 25.6865 75.0007 25.7616 75.1624 25.7994L76.7129 26.1624Z" stroke="#EA6902" stroke-width="0.533902" stroke-linecap="round" stroke-linejoin="round"/>
<path d="M104.271 60.4632C104.584 60.3713 104.906 60.5801 104.95 60.9039L105.096 61.984C105.108 62.0663 105.138 62.1449 105.185 62.2135L105.799 63.1136C105.984 63.3834 105.884 63.754 105.59 63.8958L104.608 64.3687C104.533 64.4047 104.468 64.4577 104.417 64.5235L103.751 65.3862C103.551 65.6448 103.168 65.665 102.942 65.4288L102.189 64.641C102.132 64.581 102.061 64.5352 101.983 64.5072L100.957 64.1403C100.649 64.0303 100.511 63.6722 100.666 63.3845L101.183 62.4247C101.222 62.3515 101.244 62.2702 101.246 62.1872L101.278 61.0977C101.287 60.7711 101.585 60.5296 101.907 60.5879L102.979 60.7825C103.061 60.7974 103.145 60.7929 103.225 60.7696L104.271 60.4632Z" fill="#FFC811"/>
<path d="M76.7129 25.0944C77.3493 25.2433 77.7038 25.9238 77.4612 26.5306L76.8701 28.0093C76.8085 28.1635 76.7836 28.33 76.7976 28.4955L76.9316 30.0823C76.9865 30.7335 76.4489 31.2809 75.7968 31.2377L74.2079 31.1325C74.0422 31.1216 73.8761 31.1494 73.7231 31.2138L72.2553 31.8315C71.653 32.0851 70.9662 31.7429 70.8058 31.1094L70.4148 29.5657C70.374 29.4047 70.2963 29.2554 70.1877 29.1297L69.1466 27.9248C68.7194 27.4302 68.8326 26.6714 69.3855 26.323L70.7328 25.4742C70.8733 25.3856 70.9913 25.2655 71.0773 25.1234L71.9016 23.7609C72.2399 23.2018 72.9966 23.0749 73.4988 23.4931L74.7224 24.5122C74.85 24.6185 75.0007 24.6936 75.1624 24.7314L76.7129 25.0944Z" fill="#FFC811"/>
<path d="M58.4235 107.459C45.2175 103.291 34.1644 94.2736 27.3528 82.4963C27.2288 82.0822 27.1091 81.6536 26.9943 81.2097C26.1533 77.9555 26.0966 75.6149 26.0517 73.7565C26.0171 72.3306 25.9895 71.1886 25.6197 70.1357C25.4354 69.6093 25.244 69.215 25.0698 68.856C24.4852 67.6517 24.0931 66.8441 24.806 62.7719C25.4025 59.3477 25.9474 57.1791 28.348 55.2546C29.9674 53.9571 31.5815 52.1881 33.3275 50.2744L33.5874 49.9897C33.8365 50.9304 34.0958 51.9365 34.3594 53.0062C33.985 53.3778 33.586 53.7239 33.1652 54.042C32.3799 54.6616 31.5743 55.3014 31.17 56.3958C31.1155 56.3919 31.0598 56.3899 31.0027 56.3899C27.9565 56.3899 26.3892 60.3504 25.3902 63.0174C24.9926 65.9715 26.5831 67.6897 28.5714 67.6897C30.4578 67.6897 34.4993 65.6352 34.4993 63.8679C34.014 63.7868 33.3365 64.251 32.5658 64.779C31.5414 65.4809 30.3523 66.2956 29.2317 66.0918C31.4591 64.3637 32.8048 61.4426 32.9288 59.2562C33.107 59.289 33.2926 59.3059 33.4831 59.3059C33.8924 59.3017 34.2986 59.2339 34.687 59.1046C35.1181 58.9765 35.524 58.7756 35.8874 58.5106L35.9051 58.4987C36.0238 58.4192 36.1616 58.3268 36.3451 58.2099C36.6008 58.2903 36.8676 58.3292 37.1355 58.3253C38.0364 58.3253 39.098 57.946 40.0479 57.2858C40.9243 56.6657 41.6638 55.872 42.2203 54.9539C43.358 56.3641 45.0308 57.0514 47.3038 57.0514C48.2908 57.032 49.2751 56.9421 50.2493 56.7826C50.7366 56.7001 51.2284 56.6472 51.7221 56.6243C51.8144 56.6204 51.9068 56.6286 51.997 56.6488L52.0227 56.6562H52.0485C53.4624 56.9274 54.0122 58.1768 54.7928 60.1957C55.1206 61.0447 55.4751 61.9622 55.9698 62.8242C55.6207 62.8325 55.2321 62.8556 54.8335 62.8794C54.3026 62.911 53.7538 62.9438 53.2564 62.9438C50.0318 62.9438 49.1797 61.4772 48.432 60.1904C47.8476 59.1846 47.3269 58.2886 45.787 58.2886C44.302 58.2886 43.0654 58.8799 41.8506 59.4608C41.5036 59.6268 41.1583 59.7919 40.8096 59.9421C41.2513 60.5742 41.6838 61.037 42.0155 61.3919C42.229 61.6203 42.4007 61.804 42.5062 61.9594C42.7082 62.2576 42.8611 62.5798 43.0137 62.9015C43.2097 63.3146 43.4053 63.7268 43.7041 64.0863C44.085 64.5447 44.5878 64.8609 45.0918 65.1777C45.5215 65.4478 45.952 65.7185 46.3084 66.0783C46.682 66.4573 46.7533 67.0411 46.82 67.5871C46.8434 67.7783 46.8662 67.9649 46.9012 68.1364C41.9711 68.1364 39.5374 71.066 37.2055 75.45C36.3053 78.0783 36.4504 80.9522 37.6105 83.4765C38.0691 84.6581 38.8127 85.2207 39.6658 85.8661C39.9654 86.0928 40.2787 86.3298 40.5978 86.6074C40.9438 86.9093 41.2576 87.2203 41.5653 87.5252C42.8212 88.7699 43.9742 89.9126 46.7957 89.9126C54.5401 89.9126 56.8609 83.9856 57.2045 83.1082C57.2323 83.0372 57.2471 82.9992 57.2508 83.0003C57.2551 83.0015 57.2447 83.0538 57.2225 83.1658C57.1914 83.3228 57.1371 83.5971 57.067 84.0129C57.5668 84.2496 58.0891 84.4377 58.6111 84.6255C59.5773 84.9733 60.5426 85.3208 61.3626 85.9766C62.0123 86.4976 62.5004 87.1429 62.9895 87.7895C63.4797 88.4377 63.9711 89.0872 64.6272 89.6143C64.9845 89.9023 65.4208 90.1015 65.8531 90.2988C66.1024 90.4126 66.3503 90.5258 66.5811 90.6551C67.5776 93.9737 71.3749 96.583 75.7368 95.8723C77.6426 95.6935 78.3854 95.2187 79.0226 94.8115C79.3477 94.6037 79.6452 94.4135 80.0557 94.2891C80.9345 94.0242 81.8159 93.9792 82.6993 93.934C83.4405 93.8961 84.1832 93.8582 84.9268 93.6902C85.8016 93.4945 86.5218 93.2318 87.2243 92.9755C88.1559 92.6357 89.0565 92.3072 90.246 92.161C90.2367 92.1792 90.2274 92.1973 90.218 92.2154L90.2044 92.2416L90.1863 92.2759L90.1485 92.3474C89.9231 92.7718 89.7133 93.1669 89.9502 93.6472C90.2423 94.2376 91.0425 93.4079 91.9618 92.0861C92.4641 92.0965 92.9649 92.1474 93.4591 92.2383C91.3652 95.3265 89.36 96.1302 87.2225 96.987C86.2203 97.3887 85.189 97.8021 84.1058 98.4681C81.6321 99.9631 80.0395 100.486 78.788 100.897C77.7247 101.247 76.9076 101.515 76.0055 102.23C74.985 103.043 77.9856 102.19 78.4848 102.049C78.5223 102.038 78.5457 102.031 78.5522 102.03C77.6784 103.66 73.7682 105.104 72.4439 105.472C70.5521 105.996 70.0034 106.595 69.5072 107.137C69.0398 107.648 68.6189 108.108 67.1665 108.406C65.3394 108.783 64.1456 108.427 62.9952 108.083C62.7431 108.008 62.493 107.933 62.2388 107.867C60.5023 107.413 59.6112 107.433 58.7054 107.453C58.6119 107.455 58.5182 107.457 58.4235 107.459Z" fill="url(#paint8_linear_300_195)"/>
<path d="M66.1995 61.185C65.7392 61.4763 65.3044 61.7317 64.8929 61.955C64.8977 61.7647 64.8928 61.5642 64.8763 61.3531C65.3787 61.3334 65.8353 61.2645 66.2477 61.1548L66.1995 61.185Z" fill="url(#paint9_linear_300_195)"/>
<path d="M26.5807 63.7317C26.5807 65.6254 28.5603 65.9924 29.6305 64.2631V64.2533C31.1549 62.6357 32.6338 58.6555 30.3117 58.3119C28.5186 58.0861 26.5807 62.4503 26.5807 63.7317Z" fill="url(#paint10_linear_300_195)"/>
<path d="M51.4805 83.5725C51.5853 84.9839 51.6903 86.397 50.8629 87.8274L50.8654 87.8249C52.6904 86.9965 53.6943 85.3801 54.675 83.7355C54.7838 83.5524 54.8955 83.3727 55.0067 83.1939C55.4392 82.498 55.8632 81.8159 56.079 80.9986C57.8588 75.4685 55.4738 73.8415 53.6449 72.5939C53.4736 72.477 53.3071 72.3635 53.1494 72.2504C52.7631 71.9734 52.4044 71.6522 52.0458 71.3311C51.1763 70.5525 50.3063 69.7735 49.0404 69.6215C47.197 69.4092 43.1432 70.7567 40.6063 73.3881C41.2266 73.2424 41.8596 73.1578 42.4964 73.1353C43.6992 73.1353 49.2785 77.1731 49.2895 77.1854C49.5451 77.4628 49.7021 77.8489 49.8545 78.2239C49.9335 78.4181 50.0112 78.6093 50.1008 78.7809C50.3069 79.1773 50.5156 79.368 50.7041 79.5402C51.1026 79.9042 51.4103 80.1854 51.4103 82.1535C51.4103 82.6267 51.4454 83.0995 51.4805 83.5725Z" fill="url(#paint11_linear_300_195)"/>
<path d="M77.7508 85.5188C79.5795 85.5188 80.8583 88.0139 80.7773 89.364C81.5235 85.1445 78.0674 81.2367 73.9228 81.2367C69.75 81.2367 67.8476 82.8948 67.8476 88.133C67.843 88.8325 67.9034 89.531 68.0281 90.2194C68.2625 87.89 70.7993 85.5716 72.9532 85.5716C73.382 85.5716 73.7877 85.669 74.1923 85.7662C74.5949 85.8629 74.9965 85.9594 75.4189 85.9594C75.8299 85.9594 76.2152 85.848 76.5982 85.7372C76.977 85.6277 77.3536 85.5188 77.7508 85.5188Z" fill="url(#paint12_linear_300_195)"/>
<path d="M79.6727 70.5702C80.4815 65.6536 77.6759 62.2061 72.5875 64.2606C76.3713 59.6496 83.0601 65.337 79.6727 70.5702Z" fill="url(#paint13_linear_300_195)"/>
<path d="M37.1943 41.0596C37.3279 38.541 38.2589 37.0295 39.6695 36.4576C43.9354 39.1 49.5412 39.3641 54.3017 35.9712L54.5472 35.8718C54.9228 35.5714 55.2776 35.2645 55.6124 34.9519C56.6297 36.0583 57.385 37.4731 58.1321 39.1217C56.5366 38.8051 49.9914 40.4472 49.5042 43.3044C47.9369 44.0064 46.3893 44.5317 42.9823 44.6299C43.0674 44.1485 43.1673 43.7826 43.2434 43.5039C43.3867 42.979 43.4457 42.7632 43.1627 42.6662C42.8001 42.546 42.6901 42.9794 42.471 43.8423C42.4506 43.9227 42.4292 44.007 42.4067 44.0947C42.0684 45.3564 42.1537 46.667 42.2407 48.0044C42.3896 50.2914 42.5435 52.6565 40.5927 54.9883C38.2166 57.843 35.1165 57.3472 36.5168 55.1442H36.5119C36.5624 55.0648 36.5792 54.9685 36.5587 54.8767C36.5382 54.7849 36.4821 54.7049 36.4027 54.6545C36.3233 54.604 36.227 54.5872 36.1352 54.6077C36.0434 54.6282 35.9634 54.6843 35.913 54.7637C35.3877 55.5222 35.3091 56.6047 35.9731 57.2637C34.8231 57.8565 32.1807 58.3217 32.4397 57.0035C32.6829 56.1537 33.4256 55.5088 34.2066 54.8307C34.797 54.318 35.4094 53.7862 35.8442 53.1326C37.7443 50.3171 37.4897 46.7996 37.2842 43.9595C37.2051 42.8663 37.1332 41.8735 37.1943 41.0596Z" fill="white"/>
<path d="M58.9998 40.2668C62.4228 44.6078 59.2195 45.5577 53.9409 46.8623C52.7136 47.1642 51.8348 46.4941 51.3918 45.3196C50.799 43.4786 50.7781 42.104 52.4583 41.2277C54.2416 40.3011 57.9836 38.9781 58.9998 40.2668Z" fill="white"/>
<path d="M60.8911 45.4107C61.1696 45.4337 64.3406 45.6959 65.5487 44.0505C66.1587 43.1698 65.4562 43.0057 64.2188 42.7166C63.2352 42.4868 61.9136 42.1781 60.6444 41.3677C61.0482 42.3618 61.4532 43.999 60.8027 44.9575C60.8261 45.1073 60.8494 45.2582 60.8715 45.4092C60.8715 45.4092 60.8733 45.4092 60.876 45.4094L60.8911 45.4107Z" fill="white"/>
<path d="M32.166 39.3377C32.166 37.1212 34.3862 35.4741 35.4392 35.4741C36.4015 35.4741 36.7782 36.4781 36.7782 37.5471C36.7782 38.3947 36.6071 39.3901 36.4651 40.2159C36.3988 40.6013 36.3389 40.9497 36.3057 41.229C36.2523 42.3608 36.3545 43.482 36.4554 44.5885C36.6882 47.1427 36.9138 49.618 35.2011 51.9618C34.4145 47.7925 33.5189 44.6253 32.9065 42.4599C32.4651 40.899 32.1709 39.8587 32.1709 39.3389L32.166 39.3377Z" fill="white"/>
<path d="M49.215 55.6069C51.875 55.1115 54.3874 54.6435 55.7966 59.3084H55.8015C59.2563 70.2008 68.2893 62.2527 61.3894 57.7768C59.3128 60.9874 58.9078 60.0338 59.1533 59.7601C64.1443 54.2497 59.4167 51.8947 56.9106 50.6464C56.0588 50.2221 55.4636 49.9256 55.5941 49.6765C55.7008 49.4728 58.5703 50.7492 58.9274 50.9456C59.935 49.5747 60.1339 48.2246 60.1044 46.5064C60.0869 45.4731 59.7471 45.6495 58.6648 46.2115C57.6274 46.7502 55.9078 47.6431 53.1358 48.1645C50.8579 48.5904 49.6281 45.7675 49.4735 44.0493C47.3823 45.117 45.21 45.2118 43.9541 45.2666C43.2915 45.2956 42.8839 45.3134 42.8779 45.4571C42.8378 46.2885 42.8855 47.093 42.9332 47.8957C43.0354 49.618 43.1371 51.3321 42.3686 53.286C44.3055 56.5213 46.8201 56.053 49.215 55.6069Z" fill="white"/>
<path d="M64.0748 60.1982C63.8121 58.9083 62.8597 57.8087 61.7036 57.2085C62.44 55.5075 62.1221 53.016 59.5288 51.3064C60.3499 50.2276 60.9648 48.5818 60.95 46.418C65.82 47.1826 66.3367 51.7703 63.3371 55.9014C63.2144 56.0806 63.4145 57.0244 64.7412 54.6127C64.7791 54.6242 64.8631 54.6338 64.9813 54.6473C65.5709 54.7144 67.0128 54.8787 67.8561 55.8609C69.2343 57.5104 67.9371 60.483 64.0797 60.2031L64.0748 60.1982Z" fill="white"/>
<path d="M33.7989 21.0408C32.9336 21.4213 32.1433 22.2092 31.672 23.4562C30.5613 25.4248 30.9135 28.6428 32.6501 29.8406C33.1625 30.3974 33.8409 30.774 34.5844 30.9145C34.9322 31.5957 35.3313 32.2401 35.7748 32.8439C38.0722 36.1124 43.0539 39.606 49.5883 38.118C52.435 37.3416 55.3953 35.6604 56.8359 33.6978C65.0248 24.2538 56.9514 10.8097 45.8461 11.4678C41.3162 11.7391 35.8031 14.8405 33.7989 21.0408Z" fill="url(#paint14_radial_300_195)"/>
<path d="M35.7471 30.9057C37.1026 33.3073 39.1741 35.2256 41.6725 36.393C39.4562 35.0088 37.7278 32.9668 36.7289 30.5522C36.4232 30.723 36.0915 30.8424 35.7471 30.9057Z" fill="white"/>
<path d="M37.2692 30.1828C37.2687 30.1816 37.2682 30.1804 37.2677 30.1792V30.184C37.2682 30.1836 37.2687 30.1832 37.2692 30.1828Z" fill="white"/>
<path d="M50.0403 37.0803C44.9752 38.5785 39.3568 35.4102 37.2692 30.1828C37.4286 30.0479 37.5767 29.9001 37.712 29.741C39.5002 34.4858 44.2646 37.6805 50.0403 37.0803Z" fill="white"/>
<path d="M32.0241 24.9564C32.0239 24.9558 32.0237 24.9551 32.0234 24.9545V24.9594C32.0237 24.9584 32.0239 24.9574 32.0241 24.9564Z" fill="white"/>
<path d="M32.0241 24.9564C32.6815 26.843 34.7988 28.1376 36.1681 26.5267C36.3386 22.1698 32.7901 21.4951 32.0241 24.9564Z" fill="white"/>
<path d="M34.9641 20.7718C35.6193 20.7398 36.2683 20.9113 36.8222 21.2628V21.2677C39.3738 15.2661 46.7511 12.3096 52.9809 14.2119C46.0381 10.082 37.6764 13.5406 34.9641 20.7718Z" fill="white"/>
<path d="M34.1651 21.9513C34.9997 22.0065 35.7029 22.5232 36.1705 23.2105V23.2154C36.8234 24.1801 37.0161 25.4295 36.967 26.5831C37.4913 26.9198 37.8452 26.7246 37.9722 26.6546C37.979 26.6508 37.9851 26.6474 37.9906 26.6445C38.4091 23.7125 36.4135 20.8467 34.1651 21.9513Z" fill="white"/>
<path d="M37.3487 21.6616C37.4921 21.7895 37.6254 21.9282 37.7476 22.0765V22.0814C40.6735 14.8022 51.5315 11.7867 57.344 18.4412C56.7302 17.4861 55.9974 16.613 55.1631 15.843C48.9603 12.3059 40.0954 14.9802 37.3487 21.6616Z" fill="white"/>
<path opacity="0.3" d="M38.3613 28.7128C41.6063 39.6381 57.5219 38.0255 59.0206 27.0878C54.7581 32.6279 44.3015 34.2148 38.6056 28.1151C38.5361 28.319 38.4545 28.5185 38.3613 28.7128Z" fill="#E55C00"/>
<path opacity="0.3" d="M43.2844 24.0101C43.1912 26.2193 40.3389 26.5347 40.0223 24.0286C39.875 21.5273 43.2452 21.2131 43.2844 24.0101ZM42.2412 27.8148C42.337 28.8666 41.0851 28.9795 40.9096 28.0271C40.8163 26.9728 42.067 26.86 42.2425 27.8111L42.2412 27.8148ZM57.6488 26.2009C57.1677 27.3914 56.381 28.6555 55.1427 28.2873C51.9787 27.3705 55.5821 21.9814 49.8653 20.327C49.4173 20.1969 48.9656 20.0901 48.5287 19.9588C47.6377 19.7011 46.0029 18.9843 46.2422 18.1608C46.4533 17.433 48.1311 17.0427 48.8871 17.0084C52.5874 16.6279 59.0038 19.2997 57.6501 26.2009H57.6488Z" fill="white"/>
<g opacity="0.3">
<path d="M32.3626 45.5145L40.8033 37.0739C47.2629 39.9202 53.391 37.7706 56.9728 33.6688C59.3348 33.2307 61.9744 33.4013 63.7708 33.999L23.4782 74.2915C21.5414 69.1211 20.3606 63.5813 20.0703 57.8068L26.1299 51.7472C26.0594 52.8225 26.0236 53.9073 26.0236 55.0004C26.0236 55.2668 26.0257 55.5328 26.03 55.7982C26.5391 55.2386 27.1009 54.7804 27.7244 54.2718C28.7115 53.4667 29.8534 52.5353 31.1859 50.8756C31.8252 50.0787 32.4935 49.2865 33.1894 48.508C32.9611 47.6694 32.7453 46.8928 32.5472 46.1799L32.5208 46.0847C32.467 45.891 32.4143 45.701 32.3626 45.5145Z" fill="url(#paint15_linear_300_195)"/>
<path d="M37.5214 95.257C33.8437 91.832 30.636 87.909 28.0055 83.5954C26.9947 81.9379 26.0691 80.2228 25.2349 78.456L67.3872 36.3037C67.8169 36.5942 68.3301 36.8514 69.0741 37.0513C72.8082 38.0566 76.3227 39.4889 79.5228 41.3068C82.5362 34.9655 86.0384 29.1261 88.2186 29.7943C88.777 29.9661 88.7856 30.4448 88.4444 31.1603C90.5826 31.8526 94.6106 33.7471 97.164 35.6145L37.5214 95.257Z" fill="url(#paint16_linear_300_195)"/>
<path d="M55.8824 106.588C54.1023 105.928 52.3657 105.179 50.6781 104.345L105.407 49.6166C106.274 52.0896 106.765 53.9218 106.768 54.0827C106.768 56.2915 99.9658 59.3189 95.8901 60.7181C96.3826 62.2336 96.7697 63.8043 97.0433 65.4269L55.8824 106.588Z" fill="url(#paint17_linear_300_195)"/>
<path d="M124.344 30.6794C125.177 32.367 125.927 34.1035 126.587 35.8835L121.835 40.6348C121.266 38.7773 120.59 36.9668 119.813 35.2104L124.344 30.6794Z" fill="url(#paint18_linear_300_195)"/>
<path d="M98.4536 5.23731C104.818 8.24235 110.514 12.4325 115.255 17.5232L110.993 21.7859C106.255 16.654 100.433 12.5377 93.8907 9.80029L98.4536 5.23731Z" fill="url(#paint19_linear_300_195)"/>
<path d="M77.8065 0.0706177C83.581 0.360857 89.1208 1.54169 94.2912 3.47854L89.5484 8.22132C84.9521 6.79339 80.0658 6.02422 74.9998 6.02422C73.9067 6.02422 72.8219 6.06003 71.7466 6.13055L77.8065 0.0706177Z" fill="url(#paint20_linear_300_195)"/>
<path d="M58.738 19.1391L58.4604 19.4167C59.3928 20.9032 59.9282 22.4683 60.122 24.0355C59.9816 22.3242 59.4992 20.6632 58.738 19.1391Z" fill="url(#paint21_linear_300_195)"/>
</g>
<defs>
<linearGradient id="paint0_linear_300_195" x1="55.5755" y1="126.122" x2="89.8515" y2="126.122" gradientUnits="userSpaceOnUse">
<stop stop-color="#FFCC00"/>
<stop offset="1" stop-color="#FFB300"/>
</linearGradient>
<linearGradient id="paint1_linear_300_195" x1="55.5755" y1="121.074" x2="89.8515" y2="121.074" gradientUnits="userSpaceOnUse">
<stop stop-color="#FFA200"/>
<stop offset="1" stop-color="#FF8400"/>
</linearGradient>
<linearGradient id="paint2_linear_300_195" x1="58.6548" y1="116.14" x2="87.7371" y2="116.14" gradientUnits="userSpaceOnUse">
<stop stop-color="#FFCC00"/>
<stop offset="1" stop-color="#FFB300"/>
</linearGradient>
<linearGradient id="paint3_linear_300_195" x1="58.6548" y1="109.737" x2="87.7371" y2="109.737" gradientUnits="userSpaceOnUse">
<stop stop-color="#FFA200"/>
<stop offset="1" stop-color="#FF8400"/>
</linearGradient>
<linearGradient id="paint4_linear_300_195" x1="17.7251" y1="45.3831" x2="47.1297" y2="100.56" gradientUnits="userSpaceOnUse">
<stop stop-color="#FF8400"/>
<stop offset="1" stop-color="#E76400"/>
</linearGradient>
<linearGradient id="paint5_linear_300_195" x1="57.8249" y1="11.4081" x2="86.7437" y2="101.231" gradientUnits="userSpaceOnUse">
<stop stop-color="#EA6902"/>
<stop offset="1" stop-color="#D64400"/>
</linearGradient>
<linearGradient id="paint6_linear_300_195" x1="18.0658" y1="64.8961" x2="105.54" y2="57.7974" gradientUnits="userSpaceOnUse">
<stop stop-color="#FFCC00"/>
<stop offset="1" stop-color="#FFBE31"/>
</linearGradient>
<linearGradient id="paint7_linear_300_195" x1="48.2602" y1="8.44444" x2="103.256" y2="98.9693" gradientUnits="userSpaceOnUse">
<stop stop-color="#FFCC00"/>
<stop offset="1" stop-color="#FFBE31"/>
</linearGradient>
<linearGradient id="paint8_linear_300_195" x1="36.052" y1="25.8675" x2="75.4018" y2="105.009" gradientUnits="userSpaceOnUse">
<stop stop-color="#FFCC00"/>
<stop offset="1" stop-color="#FFBE31"/>
</linearGradient>
<linearGradient id="paint9_linear_300_195" x1="36.052" y1="25.8675" x2="75.4018" y2="105.009" gradientUnits="userSpaceOnUse">
<stop stop-color="#FFCC00"/>
<stop offset="1" stop-color="#FFBE31"/>
</linearGradient>
<linearGradient id="paint10_linear_300_195" x1="36.052" y1="25.8675" x2="75.4018" y2="105.009" gradientUnits="userSpaceOnUse">
<stop stop-color="#FFCC00"/>
<stop offset="1" stop-color="#FFBE31"/>
</linearGradient>
<linearGradient id="paint11_linear_300_195" x1="36.052" y1="25.8675" x2="75.4018" y2="105.009" gradientUnits="userSpaceOnUse">
<stop stop-color="#FFCC00"/>
<stop offset="1" stop-color="#FFBE31"/>
</linearGradient>
<linearGradient id="paint12_linear_300_195" x1="36.052" y1="25.8675" x2="75.4018" y2="105.009" gradientUnits="userSpaceOnUse">
<stop stop-color="#FFCC00"/>
<stop offset="1" stop-color="#FFBE31"/>
</linearGradient>
<linearGradient id="paint13_linear_300_195" x1="36.052" y1="25.8675" x2="75.4018" y2="105.009" gradientUnits="userSpaceOnUse">
<stop stop-color="#FFCC00"/>
<stop offset="1" stop-color="#FFBE31"/>
</linearGradient>
<radialGradient id="paint14_radial_300_195" cx="0" cy="0" r="1" gradientUnits="userSpaceOnUse" gradientTransform="translate(35.0332 24.9579) rotate(25.1024) scale(24.0055 19.8873)">
<stop offset="0.360475" stop-color="#FFCA09"/>
<stop offset="1" stop-color="#FF8001"/>
</radialGradient>
<linearGradient id="paint15_linear_300_195" x1="53.1566" y1="23.0923" x2="94.1114" y2="73.1756" gradientUnits="userSpaceOnUse">
<stop stop-color="white"/>
<stop offset="1" stop-color="white" stop-opacity="0"/>
</linearGradient>
<linearGradient id="paint16_linear_300_195" x1="53.1566" y1="23.0923" x2="94.1114" y2="73.1756" gradientUnits="userSpaceOnUse">
<stop stop-color="white"/>
<stop offset="1" stop-color="white" stop-opacity="0"/>
</linearGradient>
<linearGradient id="paint17_linear_300_195" x1="53.1566" y1="23.0923" x2="94.1114" y2="73.1756" gradientUnits="userSpaceOnUse">
<stop stop-color="white"/>
<stop offset="1" stop-color="white" stop-opacity="0"/>
</linearGradient>
<linearGradient id="paint18_linear_300_195" x1="53.1566" y1="23.0923" x2="94.1114" y2="73.1756" gradientUnits="userSpaceOnUse">
<stop stop-color="white"/>
<stop offset="1" stop-color="white" stop-opacity="0"/>
</linearGradient>
<linearGradient id="paint19_linear_300_195" x1="53.1566" y1="23.0923" x2="94.1114" y2="73.1756" gradientUnits="userSpaceOnUse">
<stop stop-color="white"/>
<stop offset="1" stop-color="white" stop-opacity="0"/>
</linearGradient>
<linearGradient id="paint20_linear_300_195" x1="53.1566" y1="23.0923" x2="94.1114" y2="73.1756" gradientUnits="userSpaceOnUse">
<stop stop-color="white"/>
<stop offset="1" stop-color="white" stop-opacity="0"/>
</linearGradient>
<linearGradient id="paint21_linear_300_195" x1="53.1566" y1="23.0923" x2="94.1114" y2="73.1756" gradientUnits="userSpaceOnUse">
<stop stop-color="white"/>
<stop offset="1" stop-color="white" stop-opacity="0"/>
</linearGradient>
</defs>
</svg>
