<svg width="130" height="128" viewBox="0 0 130 128" fill="none" xmlns="http://www.w3.org/2000/svg">
<path opacity="0.4" d="M128.987 107.5C113.932 134.833 15.8193 134.833 0.984843 107.5C-13.8496 80.1667 144.041 80.1667 128.987 107.5Z" fill="#5A0EA7"/>
<ellipse opacity="0.5" cx="65" cy="117" rx="32" ry="10" fill="#5A0EA7"/>
<path d="M65.5 98.9999C49.2076 98.9999 36 102.936 36 107.791V117.209C36 122.064 49.2076 126 65.5 126C81.7924 126 95 122.064 95 117.209V107.791C95 102.936 81.7924 98.9999 65.5 98.9999Z" fill="url(#paint0_linear_300_194)"/>
<g opacity="0.4">
<path d="M49.4383 124.573L49.4385 114.638L47.0925 114.147L47.0923 124.077C47.8457 124.253 48.6285 124.419 49.4383 124.573Z" fill="white"/>
<path d="M45.6256 123.71L45.6258 113.793C43.6126 113.237 42.5979 112.915 40.9338 112.185L40.9336 122.118C42.2788 122.703 43.8559 123.238 45.6256 123.71Z" fill="white"/>
</g>
<ellipse cx="65.5" cy="107.5" rx="29.5" ry="8.5" fill="url(#paint1_linear_300_194)"/>
<path opacity="0.45" d="M81.0976 100.356C89.4456 101.84 95.0003 104.481 95.0003 107.492V107.494C74.3181 112.385 43.9134 112.435 36.5605 105.888C38.1404 103.557 43.0996 101.57 49.9273 100.356C60.1038 98.5464 70.9394 98.5497 81.0976 100.356Z" fill="#A6008B"/>
<circle cx="66" cy="55" r="55" fill="url(#paint2_linear_300_194)"/>
<path fill-rule="evenodd" clip-rule="evenodd" d="M66 110C96.3756 110 121 85.3756 121 55C121 24.6243 96.3756 0 66 0C35.6243 0 11 24.6243 11 55C11 85.3756 35.6243 110 66 110ZM65.9998 105.573C93.0486 105.573 114.976 83.6452 114.976 56.5964C114.976 29.5476 93.0486 7.62021 65.9998 7.62021C38.951 7.62021 17.0236 29.5476 17.0236 56.5964C17.0236 83.6452 38.951 105.573 65.9998 105.573Z" fill="#5D006C"/>
<g opacity="0.15">
<path d="M87.9475 4.6246C82.7303 2.3393 77.0903 0.840283 71.1774 0.277435L11.1504 60.3044C11.7132 66.2174 13.2123 71.8574 15.4976 77.0745L87.9475 4.6246Z" fill="#EAFDFF"/>
<path d="M31.6623 98.0738C25.9142 93.4957 21.1036 87.7905 17.5652 81.2926L92.1655 6.69228C98.6634 10.2307 104.369 15.0412 108.947 20.7893L31.6623 98.0738Z" fill="#EAFDFF"/>
<path d="M55.3968 109.026C53.2516 108.611 51.1508 108.071 49.1023 107.415L118.288 38.2294C118.944 40.2779 119.484 42.3787 119.899 44.5239L55.3968 109.026Z" fill="#EAFDFF"/>
</g>
<path d="M27.0117 93.7931C27.0458 93.6981 27.0807 93.6033 27.1163 93.5087C28.5186 89.7886 31.0544 86.6053 34.3641 84.4104C37.6738 82.2156 41.5893 81.1206 45.5551 81.2809C46.3833 81.3143 47.2049 81.4022 48.0149 81.5426C48.1343 80.5913 48.1785 79.6203 48.1704 78.5228C47.4365 78.678 46.4652 79.0241 45.4143 79.3985C41.6087 80.7544 36.7568 82.4831 38.3343 76.876C39.1294 74.0497 41.2183 70.0248 44.3762 66.8574C40.8228 62.8258 38.6672 57.5327 38.6672 51.7362C38.6672 39.1008 48.9102 28.8577 61.5457 28.8577C65.4646 28.8577 69.1533 29.843 72.3777 31.5794C79.6524 26.5425 88.3936 23.0765 98.3805 21.7171C101.204 21.372 103.922 23.2392 104.612 25.9983C109.607 41.9946 107.884 56.5677 102.358 68.402L104.913 70.9979C105.105 71.1946 105.343 71.3409 105.606 71.4238L112.118 73.476C112.353 73.5499 112.568 73.6743 112.75 73.8405C112.932 74.0067 113.074 74.2107 113.169 74.4381C113.263 74.6655 113.306 74.9108 113.295 75.1567C113.285 75.4026 113.22 75.6432 113.106 75.8615L109.957 81.9226C109.83 82.1668 109.764 82.4385 109.767 82.7139L109.81 88.2563C109.053 89.2521 108.263 90.2212 107.441 91.1621L101.116 90.1089C100.844 90.064 100.565 90.0859 100.304 90.1725L93.8249 92.3358C93.5915 92.4137 93.3439 92.4397 93.0994 92.4118C92.8549 92.3839 92.6195 92.3028 92.4097 92.1743C92.1999 92.0457 92.0207 91.8728 91.8848 91.6677C91.7489 91.4626 91.6595 91.2302 91.6229 90.9868L90.694 84.8185C89.8475 85.6434 88.98 86.4362 88.0942 87.1956C88.2448 91.3397 87.7483 98.7092 80.3236 104.164C79.8707 104.498 79.3267 104.562 78.84 104.426C79.1893 105.639 79.3687 106.899 79.3697 108.169C79.3697 108.234 79.3692 108.299 79.3683 108.364C75.0887 109.432 70.6106 110 65.9999 110C50.7625 110 36.9724 103.803 27.0117 93.7931Z" fill="url(#paint3_linear_300_194)"/>
<path fill-rule="evenodd" clip-rule="evenodd" d="M66 110C63.9214 110 61.8697 109.885 59.851 109.66C32.3696 106.603 11 83.297 11 55C11 24.6243 35.6243 0 66 0C96.3756 0 121 24.6243 121 55C121 80.9029 103.093 102.624 78.9838 108.459C78.9838 108.459 78.9838 108.458 78.9838 108.459C74.821 109.466 70.4724 110 66 110C66.0002 110 65.9997 110 66 110ZM28.9215 86.9992C30.3288 84.8162 32.1778 82.9344 34.3646 81.4842C37.6743 79.2894 41.5898 78.1945 45.5556 78.3547C46.3838 78.3882 47.2054 78.476 48.0155 78.6164C48.1349 77.6651 48.179 76.6941 48.1709 75.5966C47.437 75.7519 46.4658 76.0979 45.4149 76.4723C41.6093 77.8282 36.7574 79.5569 38.3348 73.9498C39.13 71.1236 41.2188 67.0986 44.3768 63.9312C40.8234 59.8996 38.6677 54.6066 38.6677 48.8101C38.6677 36.1746 48.9108 25.9315 61.5462 25.9315C65.4651 25.9315 69.1538 26.9168 72.3782 28.6532C79.6529 23.6163 88.3941 20.1503 98.381 18.7909C98.5663 18.7683 98.7511 18.7552 98.9349 18.7512C90.2368 10.8436 78.6812 6.02391 65.9998 6.02391C38.951 6.02391 17.0236 27.9513 17.0236 55.0001C17.0236 67.2318 21.5076 78.4162 28.9215 86.9992ZM105.449 25.9699C109.384 40.828 107.549 54.3601 102.358 65.4758L104.913 68.0717C105.106 68.2684 105.344 68.4147 105.606 68.4976L112.118 70.5498C112.221 70.5821 112.32 70.624 112.414 70.6748C114.075 65.7535 114.976 60.482 114.976 55.0001C114.976 44.1336 111.437 34.0936 105.449 25.9699ZM102.689 87.4445L101.117 87.1827C100.845 87.1378 100.566 87.1597 100.304 87.2464L93.8254 89.4096C93.592 89.4876 93.3444 89.5135 93.0999 89.4856C92.8555 89.4577 92.62 89.3766 92.4102 89.2481C92.2004 89.1196 92.0212 88.9466 91.8853 88.7415C91.7494 88.5364 91.66 88.304 91.6235 88.0607L90.6946 81.8923C89.8481 82.7172 88.9806 83.51 88.0947 84.2694C88.2453 88.4135 87.7488 95.783 80.3241 101.238C79.8713 101.572 79.3273 101.636 78.8405 101.5C78.9096 101.74 78.972 101.981 79.0277 102.225C88.3092 99.6698 96.4873 94.452 102.689 87.4445ZM76.3292 92.5888C76.6631 93.773 77.0119 95.977 77.2913 98.0382C76.4943 96.7702 75.4906 95.6404 74.319 94.6975C73.8627 94.3304 73.3843 93.9942 72.8871 93.6908C74.8493 93.2125 76.3292 92.5888 76.3292 92.5888Z" fill="url(#paint4_linear_300_194)"/>
<path d="M44.1607 87.7493C45.5755 85.6603 45.0613 82.1222 42.5787 82.5719C38.8117 83.2542 35.3315 85.3492 33.0174 88.4837C32.3084 89.4441 32.5223 90.7663 33.4132 91.561C35.5421 93.4599 37.8379 95.1757 40.2758 96.6835C41.127 97.2099 42.2153 96.3504 42.1337 95.3529C41.9097 92.6145 42.6772 89.9399 44.1607 87.7493Z" fill="#FFC83C"/>
<path d="M66.0017 103.976C68.1874 103.976 70.3397 103.833 72.4496 103.556C73.8746 103.368 74.8533 102.001 74.2912 100.678C73.244 98.2132 71.263 96.1714 68.7263 95.1192C63.3594 92.8929 57.9482 95.7293 55.6249 100.188C54.9478 101.488 55.8566 102.947 57.299 103.205C60.1233 103.712 63.0317 103.976 66.0017 103.976Z" fill="#FFC83C"/>
<path d="M48.6556 88.0084C44.6539 91.5697 45.6656 97.9171 49.828 100.487C50.9223 101.162 52.1878 100.314 52.6496 99.1133C52.8248 98.6582 52.8762 98.169 52.7897 97.689C52.4299 95.6918 52.203 92.7425 52.4163 89.9335C52.5575 88.0741 50.9914 86.3469 49.4472 87.3922C49.1744 87.5768 48.91 87.7821 48.6556 88.0084Z" fill="#FFC83C"/>
<path d="M109.735 47.8014C110.892 54.2977 108.342 59.3673 107.565 62.3513C106.622 65.9759 109.276 65.6388 110.085 63.2956C110.62 61.7444 112.528 55.609 109.735 47.8014Z" fill="white"/>
<path fill-rule="evenodd" clip-rule="evenodd" d="M50.3506 59.8899C53.586 48.4338 60.0604 38.3701 69.2386 30.9962C66.9875 30.0094 64.5001 29.4619 61.8848 29.4619C51.7592 29.4619 43.5508 37.6703 43.5508 47.7958C43.5508 52.7962 45.5526 57.3291 48.7986 60.6367C49.2976 60.3499 49.8148 60.0989 50.3506 59.8899ZM61.3417 34.7493C61.641 35.4938 60.9942 36.4548 59.8971 36.8959C58.8 37.3369 57.668 37.0909 57.3687 36.3464C57.0695 35.602 57.7162 34.6409 58.8133 34.1999C59.9104 33.7589 61.0424 34.0049 61.3417 34.7493ZM51.8089 43.9741C51.8089 45.9191 50.7393 47.4958 49.4198 47.4958C48.1003 47.4958 47.0307 45.9191 47.0307 43.9741C47.0307 42.0291 48.1003 40.4524 49.4198 40.4524C50.7393 40.4524 51.8089 42.0291 51.8089 43.9741Z" fill="#FFC83C"/>
<path d="M72.5513 33.6271C53.5475 48.8597 49.7494 75.3806 55.0372 82.4743C56.7998 80.2897 59.4541 78.3317 61.9385 77.343C64.8103 76.1982 68.1036 78.1726 68.4997 81.1918C68.8278 83.7134 68.4222 86.6571 67.2352 89.3069C76.0243 90.4999 96.0302 76.2261 101.765 53.3198C90.6276 53.891 75.6351 43.4734 72.5513 33.6271ZM82.2173 73.5703C73.7547 79.6454 61.0288 72.5265 61.6387 62.0776C62.1577 54.0356 72.0517 48.63 80.14 52.9649C88.2283 57.2998 89.6822 68.1244 82.2173 73.5703Z" fill="white"/>
<path d="M102.985 46.6989C102.858 47.7553 101.978 48.5993 100.917 48.6822C86.9787 49.726 73.0464 32.795 78.1016 29.744C83.8367 26.2889 90.2578 23.9969 96.8653 22.8845C100.546 22.2671 100.481 22.5206 101.349 25.8146C103.182 32.7651 103.84 39.5725 102.985 46.6989Z" fill="white"/>
<g opacity="0.4">
<path d="M101.766 53.3197C96.0313 76.226 76.0255 90.4997 67.2363 89.3053C68.1725 87.2122 68.6402 84.9398 68.6067 82.6471C77.621 84.693 84.8876 78.1735 89.2717 71.2051C97.2154 58.5583 82.2512 52.2102 76.4325 40.4357C82.3914 47.7202 93.2145 53.7581 101.766 53.3197Z" fill="#FEBEFF"/>
<path d="M102.994 46.593C102.864 47.6954 102.026 48.5949 100.919 48.6787C91.2564 49.41 79.6863 40.8946 77.2826 33.005C85.0651 39.4753 106.78 55.2358 100.077 22.8231C100.699 23.187 100.897 24.0817 101.353 25.8159C103.175 32.7271 103.831 39.5068 102.994 46.593Z" fill="#FEBEFF"/>
</g>
<path d="M84.2493 88.3688C83.8019 91.2931 82.4062 94.2606 80.6704 96.6569C79.9285 91.7991 80.2659 91.3375 84.2493 88.3688ZM43.207 73.005C44.5491 70.3701 46.5563 67.7769 48.9526 66.0426C48.157 70.7623 47.5619 71.5449 43.207 73.005ZM55.4826 94.4678C55.295 92.3597 58.9425 79.7178 63.0067 83.4136C67.0578 87.0974 58.2809 93.6612 55.4841 94.4678H55.4826Z" fill="white"/>
<path d="M25.9283 71.6034L26.6368 73.5337L24.9136 74.1663L22.6819 68.0835L24.4051 67.4509L25.1135 69.3814L29.9809 67.5944L30.7973 69.8175L25.9283 71.6034ZM28.4774 63.3238C28.2622 63.9464 27.8809 64.4985 27.3748 64.9201C26.8687 65.3418 26.257 65.6171 25.6058 65.7163C24.9545 65.8155 24.2886 65.7348 23.6798 65.483C23.0711 65.2312 22.5427 64.8178 22.1519 64.2875C20.4685 61.9925 21.3232 58.3466 24.4116 57.8767C27.5001 57.4069 29.4047 60.6213 28.4774 63.3238ZM26.41 60.7726C25.6315 59.8412 23.8339 60.1101 23.3577 61.2303C22.9119 62.3068 23.7479 63.5718 25.2378 63.3453C26.7277 63.1188 27.1413 61.6489 26.41 60.7726ZM23.1257 50.4942L22.8304 52.5284L21.0137 52.2683L21.9338 45.8543L23.7504 46.1145L23.4552 48.1486L28.5894 48.8839L28.2523 51.2265L23.1257 50.4942ZM24.8059 37.0983L31.4176 39.4645L30.6197 41.6926L28.1827 40.8218L27.4463 42.8794L29.8821 43.7518L29.0841 45.9801L22.4819 43.621L23.2783 41.3916L25.6219 42.2293L26.3583 40.1717L24.0159 39.3323L24.8059 37.0983ZM33.613 32.306L35.1325 33.2345L32.0849 38.2143L26.0967 34.548L29.0761 29.682L30.5957 30.6104L28.8316 33.4927L29.5331 33.9231L31.0827 31.3922L32.5364 32.2835L30.9868 34.8145L31.7729 35.2961L33.613 32.306ZM42.7719 25.532L40.6822 23.109L41.1832 26.051L40.3889 26.7256L37.6351 25.8437L39.6375 28.196L37.9969 29.5947L33.4435 24.2495L34.925 22.9874L39.0911 24.3531L38.3675 20.067L39.849 18.8049L44.4174 24.1367L42.7719 25.532ZM46.9288 22.4309C46.2702 22.4148 45.6285 22.2192 45.0731 21.8649C44.5178 21.5106 44.0699 21.0111 43.7777 20.4207C43.4855 19.8303 43.3603 19.1712 43.4155 18.5148C43.4707 17.8584 43.7043 17.2296 44.091 16.6962C45.7654 14.3994 49.4979 14.1049 50.8845 16.9037C52.2711 19.7025 49.776 22.4892 46.9272 22.4297L46.9288 22.4309ZM48.7384 19.6913C49.3902 18.6685 48.5906 17.0367 47.3604 16.9335C46.2016 16.8371 45.253 18.019 45.9176 19.3649C46.5821 20.7107 48.1122 20.6472 48.7258 19.6819L48.7384 19.6913ZM55.0314 19.0334C54.3936 18.8685 53.8129 18.5325 53.3522 18.0616C52.8915 17.5907 52.5684 17.0027 52.4175 16.3614C52.2667 15.7201 52.2941 15.0498 52.4966 14.4229C52.6992 13.796 53.0691 13.2365 53.5666 12.8047C55.7211 10.9444 59.4246 11.5123 60.1446 14.5398C60.8646 17.5673 57.8025 19.7314 55.0188 19.0239L55.0314 19.0334ZM57.4098 16.7697C58.2775 15.9187 57.8628 14.1546 56.7016 13.7757C55.5956 13.4185 54.399 14.3501 54.7448 15.8188C55.0907 17.2874 56.5839 17.5585 57.3972 16.7603L57.4098 16.7697ZM68.9112 10.7957L68.9782 17.8173L67.0338 17.8356L64.3348 14.6724L64.3645 17.8617L62.0577 17.8839L61.9908 10.8622L63.9368 10.845L66.6358 14.0082L66.6044 10.8179L68.9112 10.7957ZM70.5385 17.8677C70.4379 17.7437 70.3642 17.6 70.3219 17.446C70.2797 17.292 70.2698 17.1309 70.293 16.9729C70.3162 16.8149 70.372 16.6634 70.4568 16.528C70.5416 16.3927 70.6535 16.2764 70.7855 16.1866C71.0837 16.0088 71.434 15.9394 71.7774 15.9899C72.1208 16.0403 72.4364 16.2076 72.6708 16.4636C72.7717 16.5875 72.8457 16.7311 72.8881 16.8852C72.9305 17.0393 72.9404 17.2005 72.9172 17.3586C72.8939 17.5167 72.8381 17.6682 72.7531 17.8036C72.6682 17.9389 72.556 18.0551 72.4237 18.1448C72.1262 18.3345 71.77 18.4101 71.4211 18.3574C71.0721 18.3047 70.7541 18.1274 70.5259 17.8583L70.5385 17.8677ZM71.127 11.1113L73.8066 11.5045L72.7289 15.7266L70.952 15.4693L71.127 11.1113Z" fill="white"/>
<path d="M93.668 78.7611C96.2429 75.8315 98.5622 72.5769 100.535 69.0385C101.713 70.2319 102.803 71.5844 104.458 72.1085L107.313 73.0119C107.951 73.2122 108.276 73.9789 107.963 74.5801C107.108 76.2241 105.948 77.8907 105.961 79.8115L105.986 82.8075C106.001 83.4822 105.369 84.0383 104.695 83.9262C103.451 83.7196 102.167 83.374 100.9 83.3611C99.3067 83.3412 97.7445 84.0945 96.2611 84.5899C95.6267 84.801 94.9141 84.373 94.8135 83.7025C94.5692 82.0611 94.5327 80.224 93.668 78.7611Z" fill="#FFC83C"/>
<g opacity="0.7">
<path d="M84.6098 3.22777C79.0104 1.21464 72.99 0.084096 66.7164 0.00393677L60.378 6.34235C62.2226 6.13156 64.0983 6.02326 65.9993 6.02326C70.8036 6.02326 75.4463 6.71501 79.8333 8.00434L84.6098 3.22777Z" fill="url(#paint5_linear_300_194)"/>
<path d="M67.4288 26.6946C69.1682 27.1561 70.8262 27.8175 72.3769 28.6525C79.6516 23.6156 88.3928 20.1497 98.3797 18.7903C98.5652 18.7676 98.7502 18.7545 98.9343 18.7505C94.7235 14.9225 89.8431 11.8181 84.4895 9.63379L89.0672 5.0561C95.8532 8.19567 101.891 12.6776 106.84 18.1612L48.1532 76.8484C48.1678 76.4464 48.1728 76.0311 48.1696 75.596C47.4357 75.7512 46.4645 76.0972 45.4135 76.4717C41.6079 77.8275 36.756 79.5562 38.3335 73.9492C39.1286 71.1229 41.2175 67.098 44.3754 63.9305C42.0691 61.3138 40.3515 58.1656 39.4301 54.6932L67.4288 26.6946Z" fill="url(#paint6_linear_300_194)"/>
<path d="M61.904 25.9336C61.7845 25.9318 61.6648 25.9309 61.5449 25.9309C48.9095 25.9309 38.6664 36.1739 38.6664 48.8094C38.6664 48.9293 38.6673 49.049 38.6691 49.1684L61.904 25.9336Z" fill="url(#paint7_linear_300_194)"/>
<path d="M19.0042 68.8334C17.7148 64.4464 17.0231 59.8037 17.0231 54.9994C17.0231 53.0984 17.1314 51.2227 17.3422 49.3781L11.0039 55.7164C11.0841 61.99 12.2146 68.0104 14.2277 73.6098L19.0042 68.8334Z" fill="url(#paint8_linear_300_194)"/>
<path d="M29.1611 95.8404C28.8415 95.552 28.5253 95.2598 28.2126 94.964C28.166 94.9199 28.1194 94.8757 28.0729 94.8315C27.9364 94.7015 27.8006 94.5707 27.6654 94.4393C27.3208 94.1043 26.9805 93.7648 26.6447 93.4209C26.5631 93.3373 26.4817 93.2534 26.4006 93.1693C22.1635 88.7747 18.6512 83.6765 16.0561 78.0672L20.6336 73.4897C22.6578 78.451 25.4722 83.0059 28.9205 86.998C30.3278 84.8152 32.1767 82.9337 34.3633 81.4836C37.673 79.2887 41.5885 78.1938 45.5543 78.354C45.8969 78.3679 46.2383 78.391 46.5782 78.4233L29.1611 95.8404Z" fill="url(#paint9_linear_300_194)"/>
<path d="M49.1506 107.371C47.1975 106.743 45.292 106.009 43.4409 105.175L107.563 41.0534C107.602 43.9346 107.426 46.7412 107.058 49.4634L49.1506 107.371Z" fill="url(#paint10_linear_300_194)"/>
<path d="M116.175 32.4409C117.009 34.292 117.743 36.1975 118.371 38.1506L113.5 43.0211C112.985 40.9727 112.341 38.9755 111.577 37.0387L116.175 32.4409Z" fill="url(#paint11_linear_300_194)"/>
</g>
<path d="M70.8868 63.5583C71.48 65.8684 71.5818 66.8923 72.5258 67.5395C73.6927 68.3498 75.3513 67.248 76.3728 67.4173C78.0447 67.6766 78.3895 70.6056 76.404 71.1255C69.5554 72.5138 70.4854 73.3618 68.4734 64.8461C67.9346 62.5322 70.3223 61.3947 70.8868 63.5583ZM69.1557 58.666C70.4616 58.307 72.1608 57.4713 72.8379 59.7676C73.5181 62.1326 73.6076 63.4838 75.1249 63.1444C79.2757 62.1866 79.0259 62.5758 80.5077 67.0496C81.3217 69.423 84.1492 68.1995 83.2622 65.6368C80.4754 57.6977 81.373 58.2024 75.669 59.505C74.6286 56.2558 74.36 54.1106 72.3203 54.6737C68.3911 55.7765 68.3206 55.8052 67.9824 56.1018C67.1072 56.8765 67.1947 59.2753 69.1557 58.666Z" fill="white"/>
<defs>
<linearGradient id="paint0_linear_300_194" x1="38.9999" y1="120.437" x2="90.7621" y2="120.437" gradientUnits="userSpaceOnUse">
<stop stop-color="#FF82A8"/>
<stop offset="1" stop-color="#FF33A4"/>
</linearGradient>
<linearGradient id="paint1_linear_300_194" x1="29.9085" y1="108.948" x2="86.6563" y2="108.948" gradientUnits="userSpaceOnUse">
<stop stop-color="#E60086"/>
<stop offset="1" stop-color="#D10092"/>
</linearGradient>
<linearGradient id="paint2_linear_300_194" x1="42.9235" y1="7.57547" x2="88.5476" y2="100.287" gradientUnits="userSpaceOnUse">
<stop stop-color="#A000A8"/>
<stop offset="0.701009" stop-color="#4D0073"/>
</linearGradient>
<linearGradient id="paint3_linear_300_194" x1="69.8268" y1="33.9123" x2="76.7093" y2="98.5574" gradientUnits="userSpaceOnUse">
<stop stop-color="#5D006C"/>
<stop offset="1" stop-color="#380054"/>
</linearGradient>
<linearGradient id="paint4_linear_300_194" x1="59.5993" y1="22.9512" x2="93.589" y2="89.4648" gradientUnits="userSpaceOnUse">
<stop stop-color="#FF6996"/>
<stop offset="1" stop-color="#E82C94"/>
</linearGradient>
<linearGradient id="paint5_linear_300_194" x1="16.9467" y1="-5.49143" x2="105.196" y2="86.0774" gradientUnits="userSpaceOnUse">
<stop stop-color="white" stop-opacity="0.69"/>
<stop offset="1" stop-color="white" stop-opacity="0"/>
</linearGradient>
<linearGradient id="paint6_linear_300_194" x1="16.9467" y1="-5.49143" x2="105.196" y2="86.0774" gradientUnits="userSpaceOnUse">
<stop stop-color="white" stop-opacity="0.69"/>
<stop offset="1" stop-color="white" stop-opacity="0"/>
</linearGradient>
<linearGradient id="paint7_linear_300_194" x1="16.9467" y1="-5.49143" x2="105.196" y2="86.0774" gradientUnits="userSpaceOnUse">
<stop stop-color="white" stop-opacity="0.69"/>
<stop offset="1" stop-color="white" stop-opacity="0"/>
</linearGradient>
<linearGradient id="paint8_linear_300_194" x1="16.9467" y1="-5.49143" x2="105.196" y2="86.0774" gradientUnits="userSpaceOnUse">
<stop stop-color="white" stop-opacity="0.69"/>
<stop offset="1" stop-color="white" stop-opacity="0"/>
</linearGradient>
<linearGradient id="paint9_linear_300_194" x1="16.9467" y1="-5.49143" x2="105.196" y2="86.0774" gradientUnits="userSpaceOnUse">
<stop stop-color="white" stop-opacity="0.69"/>
<stop offset="1" stop-color="white" stop-opacity="0"/>
</linearGradient>
<linearGradient id="paint10_linear_300_194" x1="16.9467" y1="-5.49143" x2="105.196" y2="86.0774" gradientUnits="userSpaceOnUse">
<stop stop-color="white" stop-opacity="0.69"/>
<stop offset="1" stop-color="white" stop-opacity="0"/>
</linearGradient>
<linearGradient id="paint11_linear_300_194" x1="16.9467" y1="-5.49143" x2="105.196" y2="86.0774" gradientUnits="userSpaceOnUse">
<stop stop-color="white" stop-opacity="0.69"/>
<stop offset="1" stop-color="white" stop-opacity="0"/>
</linearGradient>
</defs>
</svg>
