<svg width="800" height="780" viewBox="0 0 800 780" fill="none" xmlns="http://www.w3.org/2000/svg">
<path d="M674.818 58.4683C705.54 62.1209 693.087 74.1644 693.087 97.9674C693.087 104.715 694.376 112.964 701.135 112.964C721.159 112.964 704.545 74.408 746.725 74.408C810.432 74.408 768.921 126.996 768.921 141.038C768.921 148.526 778.868 149.906 778.868 159.027C778.868 168.889 771.347 178.782 769.662 188.228C767.003 203.143 768.718 218.525 764.08 233.054C754.104 264.345 737.895 272.807 737.895 313.483C737.895 375.202 712.218 378.104 712.218 401.897C712.218 408.867 720.906 429.454 720.906 435.937C720.906 451.836 708.118 461.303 695.117 461.222C690.888 461.243 686.837 462.927 683.84 465.909C680.843 468.892 679.141 472.934 679.101 477.161C678.543 510.471 676.056 512.947 698.791 512.947C718.622 512.947 719.87 524.859 731.451 524.859C739.268 524.823 746.874 527.4 753.06 532.179C759.245 536.959 763.656 543.667 765.593 551.239C769.784 567.848 823.118 546.815 788.215 661.021C764.019 740.232 749.364 749.577 724.864 749.577C693.949 749.577 641.904 730.664 609.275 712.817C605.54 710.778 601.42 709.543 597.179 709.194C592.938 708.844 588.671 709.387 584.653 710.788C575.965 713.771 557.788 712.046 513.05 707.237C498.405 705.664 484.318 716.713 484.449 734.002C484.581 751.291 458.417 779.011 439.844 779.011C430.984 779.011 411.578 768.682 401.805 753.341C399.709 750.011 396.926 747.166 393.642 744.997C390.359 742.828 386.65 741.386 382.763 740.765C378.877 740.145 374.903 740.361 371.107 741.399C367.311 742.438 363.78 744.274 360.751 746.786C294.375 802.398 335.708 777.438 268.5 733.109C254.596 723.978 222.5 728.5 196.354 733.109C170.209 737.719 105.61 754.924 88.7728 708.86C43.6393 585.695 53.8393 541.052 21.7475 513.19C14.4807 506.89 7.82278 488.058 10.8777 436.15C13.6992 387.997 32.7391 395.2 18.3982 386.434C-12.6888 367.532 -3.75747 311.514 40.4728 311.514C68.383 311.514 84.5 336.149 80.3896 359.252C78.0755 372.3 99.1047 371.509 96.8313 359.029C65.044 184.687 80.6737 247.593 57.4321 231.238C50.1754 226.165 51.3425 223.121 46.1665 178.965C44.0554 160.864 61.0959 161.615 117.708 148.658C89.2295 118.635 73.5997 89.3127 108.889 66.4229C133.247 50.6456 151.992 71.2423 164.577 97.7341C172.453 77.6344 182.754 63.0746 207.782 66.4229C208.472 66.5142 222.417 67.539 212.735 57.758C205.367 50.3107 206.108 41.3618 207.031 27.9282C207.169 24.9625 208.217 22.1111 210.033 19.7619C211.849 17.4127 214.344 15.6799 217.18 14.799C228.72 10.9942 226.944 -0.623191 240.534 0.0261659C292.518 2.68447 270.342 31.936 303.286 35.6393C366.384 42.7518 611.995 51.0007 674.818 58.4683ZM734.972 403.703C732.138 406.577 730.562 410.459 730.591 414.494C730.62 418.53 732.25 422.389 735.125 425.223C749.608 439.499 752.053 443.77 760.173 443.77C768.516 443.77 771.337 438.9 785.18 424.868C788.013 421.992 789.587 418.11 789.557 414.074C789.526 410.039 787.894 406.18 785.018 403.348C770.809 389.387 768.13 384.811 759.97 384.811C751.81 384.811 749.222 389.265 734.972 403.703Z" fill="white"/>
<path d="M665.256 81.7231L605.204 511.09L317.961 466.426L324.487 94.3856L665.256 81.7231Z" fill="#F22A45"/>
<g opacity="0.2">
<path opacity="0.2" d="M322.895 161.422C323.493 161.422 323.341 330.122 323.341 330.122L618.084 422.98L627.908 347.98C583.069 257.384 488.499 198.496 379.03 225.627L382.328 163.431C382.328 163.431 635.043 174.683 652.713 175.555L661.492 117.884L324.468 101.153L322.895 161.422Z" fill="#312841"/>
</g>
<path d="M292.426 49.6613L296.881 129.542L672.554 146.791L677.963 71.5264L292.426 49.6613Z" fill="#F22A45"/>
<path d="M296.883 129.542L672.555 146.791L677.031 84.4223C677.031 84.4223 668.09 141.241 667.846 141.799C634.557 140.389 296.883 129.542 296.883 129.542Z" fill="#CB0D43"/>
<path fill-rule="evenodd" clip-rule="evenodd" d="M386.246 75.3719C390.895 81.3683 396.162 89.2316 396.091 89.12C397.38 91.0275 397.979 91.3826 397.461 91.6566C397.174 91.8221 396.84 91.888 396.511 91.8439C396.183 91.7999 395.878 91.6484 395.644 91.4131C395.462 91.2304 394.203 89.2925 392.508 86.4719C391.209 84.3209 390.113 82.5351 390.083 82.5047C389.9 82.3119 394.832 91.5044 394.822 91.9508C394.822 92.2146 394.741 92.3567 394.406 92.7118C393.782 93.4802 393.425 94.4314 393.391 95.4208C393.158 97.0138 392.579 98.1298 390.996 100.017C390.493 100.556 390.051 101.148 389.677 101.782C389.399 102.276 389.249 102.83 389.24 103.396C389.175 104.08 389.248 104.77 389.453 105.425C389.663 106.111 389.971 106.764 390.367 107.363C390.689 107.817 390.926 108.326 391.067 108.865C391.067 109.037 391.067 109.037 391.818 108.865C393.296 108.64 394.68 108 395.807 107.018C396.024 106.829 396.195 106.593 396.306 106.327C396.417 106.061 396.465 105.773 396.446 105.486C396.489 105.2 396.45 104.908 396.335 104.644C395.746 103.284 393.584 102.919 393.34 101.011C393.281 100.154 393.518 99.3014 394.01 98.5966C394.568 97.6244 394.897 96.5386 394.975 95.4208C395.056 94.5685 395.157 94.2337 395.411 93.9699C395.559 93.8242 395.735 93.7103 395.929 93.6353C396.123 93.5602 396.33 93.5256 396.537 93.5336C397.355 93.5032 398.14 93.2036 398.77 92.6813C398.989 92.5042 399.166 92.2819 399.291 92.0297C399.415 91.7775 399.483 91.5014 399.491 91.2203V90.7434L399.247 90.439C398.344 89.3128 385.668 74.4892 385.576 74.4892C385.485 74.4892 385.861 74.8849 386.246 75.3719ZM391.686 104.319C391.794 104.139 391.829 103.925 391.786 103.72C391.743 103.515 391.624 103.334 391.453 103.213C391.128 102.98 390.6 103.071 390.59 103.365C390.58 103.66 391.118 103.538 390.793 104.004C390.641 104.228 390.641 104.431 390.793 104.573C390.865 104.628 390.948 104.665 391.037 104.682C391.125 104.699 391.217 104.695 391.303 104.67C391.39 104.646 391.47 104.601 391.536 104.54C391.603 104.479 391.654 104.403 391.686 104.319ZM398.598 83.7527C398.182 83.6715 398.161 83.6614 398.364 83.6411C398.997 83.6186 399.63 83.6904 400.242 83.8541C402.034 84.468 403.587 85.6329 404.677 87.1821L405.215 87.1111C407.397 86.8089 409.619 87.162 411.599 88.1257C412.104 88.3724 412.583 88.668 413.03 89.0084C413.096 89.1949 413.137 89.3894 413.152 89.5867C413.297 90.3311 413.201 91.1023 412.878 91.7885C412.804 91.876 412.758 91.9835 412.745 92.0973C412.732 92.2111 412.754 92.3261 412.807 92.4277C412.853 92.5332 412.928 92.6235 413.023 92.6881C413.118 92.7527 413.23 92.7891 413.345 92.7929C413.811 92.7929 414.36 92.0421 414.603 90.9768L414.715 90.5506L414.887 90.7738C415.852 91.8897 416.494 93.2472 416.745 94.7004V94.9947C416.486 94.4736 416.106 94.0215 415.638 93.6757C414.065 92.5697 411.396 93.1988 408.686 92.2248C407.052 91.6464 406.23 90.8956 404.342 88.2576C402.779 85.995 401.379 84.2397 398.598 83.7527ZM413.872 84.9601C414.075 84.5441 414.126 84.5035 413.974 84.9601C413.797 85.5346 413.755 86.1423 413.852 86.7357C413.964 87.659 414.035 87.7503 414.968 88.7649C415.499 89.3207 415.984 89.9178 416.42 90.5506L416.085 90.2158C415.595 89.7402 415.073 89.2995 414.522 88.8968C414.38 88.8156 414.359 88.8156 414.268 88.8968C413.994 89.1505 414.359 90.4086 413.649 91.7276C413.487 92.0421 413.466 91.9711 413.649 91.616C413.788 91.2155 413.836 90.7894 413.791 90.368C413.791 88.6127 413.639 88.1866 412.441 87.4256C412.147 87.243 411.64 86.9589 411.335 86.8168L410.797 86.5327C411.369 86.6677 411.929 86.8475 412.472 87.0705C413.172 87.3647 413.294 87.4053 413.375 87.3647C413.456 87.3241 413.355 86.0457 413.872 84.9601ZM398.121 84.9601C398.03 86.4974 398.436 88.0231 399.278 89.3128C399.826 90.1793 400.681 90.8064 401.673 91.0681C402.17 91.129 402.323 90.9768 402.099 90.6419C401.801 90.1706 401.549 89.671 401.348 89.1505C401.287 88.9678 401.166 88.4098 401.074 87.9126C400.76 86.2284 400.425 85.5688 399.633 85.0615C399.235 84.8253 398.804 84.6508 398.354 84.5441H398.161L398.121 84.9601ZM412.147 98.4444C408.209 96.7297 406.839 95.2889 406.9 92.9147C406.887 92.7052 406.887 92.4951 406.9 92.2856C407.02 92.3628 407.132 92.4511 407.235 92.5494C408.859 93.9293 411.964 93.767 414.471 94.6801C415.555 94.9993 416.525 95.6233 417.264 96.4777C418.004 97.3322 418.482 98.3811 418.642 99.4996C418.72 100.347 418.655 101.201 418.45 102.026C418.306 102.541 418.076 103.028 417.77 103.467C417.77 103.467 417.709 103.365 417.709 103.203C417.686 102.762 417.576 102.331 417.384 101.934C417.193 101.536 416.923 101.181 416.592 100.89C415.249 99.8449 413.749 99.0195 412.147 98.4444ZM409.336 99.043C409.507 99.9396 409.318 100.867 408.811 101.627C408.305 102.386 407.52 102.915 406.626 103.101C406.413 103.101 405.611 103.294 404.819 103.406C403.772 103.487 402.745 103.734 401.774 104.136C401.216 104.39 400.222 104.938 400.942 104.694C403.987 103.68 406.849 104.928 408.93 102.888C409.32 102.519 409.619 102.064 409.802 101.559C409.959 101.219 410.035 100.848 410.026 100.474C410.073 100.095 410.034 99.7099 409.914 99.3474C409.764 98.8198 409.489 98.3361 409.112 97.9371C409.23 98.3096 409.305 98.6942 409.336 99.0836V99.043ZM411.041 102.401C410.549 101.373 410.451 100.2 410.767 99.1039C410.767 99.0024 410.848 98.9111 410.878 98.9111C410.976 98.9489 411.068 99.0002 411.152 99.0633C411.396 99.2358 411.873 99.53 413.182 100.281C415.374 101.559 416.937 102.726 417.293 105.212C417.351 106.004 417.296 106.8 417.13 107.576C416.919 108.388 416.538 109.147 416.013 109.803C415.489 110.458 414.832 110.996 414.085 111.381C413.948 111.458 413.806 111.525 413.659 111.584C413.699 111.43 413.76 111.283 413.842 111.147C414.958 108.946 413.842 107.089 412.553 105.06C411.982 104.213 411.477 103.324 411.041 102.401ZM400.983 105.922C399.119 106.233 397.369 107.027 395.908 108.225L395.462 108.591C397.715 109.007 398.222 109.149 399.755 110.813C400.536 111.675 400.77 111.827 401.47 112.05C401.911 112.199 402.392 112.177 402.819 111.99C403.245 111.802 403.586 111.462 403.774 111.036C403.935 110.59 403.935 110.102 403.774 109.656C403.68 109.468 403.547 109.303 403.382 109.172C403.218 109.041 403.027 108.949 402.822 108.9C402.618 108.852 402.405 108.849 402.2 108.892C401.994 108.935 401.8 109.022 401.632 109.149C401.518 109.229 401.428 109.34 401.374 109.469C401.32 109.599 401.304 109.741 401.327 109.879C401.351 110.017 401.413 110.145 401.506 110.25C401.6 110.354 401.721 110.429 401.856 110.468C401.988 110.468 401.988 110.468 401.856 110.468C401.745 110.424 401.65 110.346 401.584 110.247C401.519 110.147 401.486 110.029 401.49 109.91C401.509 109.762 401.564 109.621 401.652 109.501C401.74 109.381 401.857 109.286 401.993 109.224C402.128 109.162 402.277 109.135 402.425 109.147C402.573 109.159 402.716 109.208 402.84 109.291C403.041 109.37 403.211 109.511 403.326 109.693C403.441 109.876 403.495 110.09 403.48 110.305C403.477 110.481 403.437 110.653 403.363 110.812C403.288 110.97 403.18 111.111 403.046 111.224C402.913 111.338 402.756 111.421 402.588 111.469C402.419 111.517 402.242 111.529 402.069 111.503C401.633 111.418 401.235 111.197 400.932 110.873C400.786 110.689 400.685 110.473 400.635 110.243C400.585 110.013 400.588 109.774 400.643 109.546C400.699 109.317 400.806 109.104 400.956 108.923C401.107 108.741 401.296 108.597 401.511 108.499C401.891 108.344 402.305 108.288 402.713 108.336C403.121 108.384 403.511 108.534 403.845 108.773C404.657 109.341 404.992 109.849 405.662 111.503C405.839 111.967 406.05 112.417 406.291 112.852C406.522 113.3 406.864 113.68 407.286 113.956C407.708 114.231 408.194 114.393 408.696 114.425C409.203 114.44 409.705 114.328 410.158 114.1C410.48 113.963 410.778 113.774 411.041 113.542C410.918 113.552 410.798 113.583 410.685 113.633C410.248 113.834 409.768 113.926 409.288 113.901C408.807 113.876 408.339 113.736 407.925 113.491C407.468 113.067 407.174 112.496 407.093 111.878C407.093 111.756 406.991 111.198 406.92 110.64C406.874 109.66 406.581 108.707 406.068 107.87C405.465 107.032 404.59 106.429 403.591 106.166C402.754 105.945 401.887 105.862 401.023 105.922H400.983ZM398.953 95.0454C399.037 94.7772 399.182 94.5318 399.375 94.3278C399.569 94.1239 399.806 93.9667 400.069 93.8684C400.488 93.797 400.919 93.8499 401.308 94.0206C401.578 94.157 401.803 94.3682 401.956 94.6292C402.109 94.8901 402.183 95.1896 402.17 95.4918C402.049 96.0905 401.084 96.5064 399.988 96.5064C399.43 96.5064 399.227 96.4151 399.024 96.1209C398.882 95.7802 398.857 95.4018 398.953 95.0454ZM401.155 94.2236C401.217 94.2522 401.272 94.2943 401.316 94.3469C401.359 94.3994 401.39 94.4611 401.407 94.5273C401.423 94.5934 401.425 94.6625 401.411 94.7293C401.398 94.7962 401.369 94.8591 401.328 94.9135C401.23 95.0131 401.113 95.0915 400.984 95.1439C400.855 95.1962 400.716 95.2214 400.577 95.2179C400.191 95.2179 399.765 94.9135 399.765 94.6598C399.785 94.1322 400.617 93.8786 401.155 94.2236ZM486.876 97.8559C486.053 94.812 487.586 92.4378 490.753 91.7682C492.648 91.6094 494.556 91.7049 496.426 92.0523C496.68 92.1537 496.781 92.5291 496.761 93.3003C496.746 93.8538 496.784 94.4075 496.872 94.9541C496.974 95.4005 496.873 95.4817 496.436 95.4614C496 95.4411 495.756 95.1976 495.421 94.4468C494.883 93.2292 494.193 92.8234 492.569 92.7828C490.539 92.7219 488.946 94.0815 489.159 95.7658C489.291 96.8717 490.357 97.9776 492.782 99.5199C495.208 101.062 496.416 102.178 496.933 103.233C498.324 106.054 497.004 108.996 493.726 110.407C491.649 111.128 489.389 111.128 487.312 110.407L486.064 109.95C486.155 106.196 486.064 105.892 486.622 105.892C486.967 105.892 487.119 106.135 487.221 106.906C487.32 107.753 487.739 108.53 488.391 109.078C489.044 109.627 489.881 109.906 490.732 109.859C491.597 109.922 492.455 109.673 493.151 109.157C493.848 108.641 494.336 107.893 494.528 107.048C494.659 106.718 494.708 106.362 494.673 106.009C494.638 105.656 494.518 105.317 494.325 105.019C493.838 104.004 492.975 103.233 490.022 101.427C488.571 100.662 487.451 99.3913 486.876 97.8559ZM428.223 91.342C427.817 91.342 427.665 91.2 427.675 90.855C427.685 90.51 427.838 90.3781 431.045 90.4593C434.018 90.5405 434.404 90.5912 434.323 90.926C434.242 91.2609 433.856 91.4232 433.399 91.5653L432.557 91.8088C432.415 95.502 432.029 103.67 432.354 104.918C432.851 106.815 434.485 107.962 436.82 107.962C437.519 108.02 438.222 107.924 438.88 107.68C439.538 107.437 440.134 107.051 440.626 106.551C441.935 105.364 442.168 104.218 442.321 98.2212C442.473 92.2248 442.371 91.8189 441.103 91.6667C440.524 91.5957 440.331 91.4638 440.341 91.1188C440.352 90.7738 440.544 90.6622 443.224 90.7231C445.903 90.784 446.096 90.8246 446.086 91.271C446.086 91.5653 445.913 91.7479 445.649 91.7377C444.543 91.7377 444.523 91.8291 444.208 98.3023C443.894 105.039 443.721 105.831 442.321 107.434C441.706 108.049 440.988 108.55 440.199 108.915C438.951 109.483 438.565 109.544 436.414 109.494C435.188 109.576 433.962 109.356 432.841 108.854C431.525 108.283 430.448 107.271 429.796 105.993C429.33 105.09 429.299 104.603 429.34 98.5661C429.441 91.7174 429.38 91.342 428.223 91.342ZM450.602 91.9001C450.054 91.9001 449.902 91.7783 449.912 91.4029C449.922 91.0275 450.044 90.9362 454.824 91.0884C465.664 103.71 466.608 104.928 466.861 104.938C467.09 103.036 467.181 101.12 467.135 99.2053L467.206 93.4626L466.547 92.8741C466.203 92.5542 465.772 92.3425 465.308 92.2653C464.882 92.2653 464.73 92.1233 464.73 91.7682C464.73 91.4131 464.872 91.2913 468.028 91.4333C470.718 91.5551 471.317 91.6464 471.307 91.9305C471.297 92.2146 470.972 92.3364 470.495 92.4175C470.107 92.476 469.736 92.6179 469.409 92.8335C469.114 93.1176 468.972 97.9066 468.566 109.981H467.876C467.277 109.981 466.587 109.27 462.893 105.029C457.24 98.5357 455.007 95.644 454.774 95.6136C454.54 95.5831 454.297 106.298 454.55 107.332C454.753 108.124 454.906 108.266 455.839 108.54C456.59 108.763 456.854 108.976 456.854 109.281C456.854 109.585 456.55 109.697 453.495 109.625C450.44 109.554 450.146 109.504 450.156 109.088C450.166 108.672 450.389 108.611 450.876 108.52C452.348 108.266 452.449 107.809 452.713 100.758C452.875 98.3253 452.875 95.8849 452.713 93.4524C452.616 92.9833 452.348 92.5667 451.963 92.2821C451.577 91.9976 451.1 91.8652 450.623 91.9102L450.602 91.9001ZM475.681 92.5291C475.163 92.5291 475.011 92.3972 475.021 92.032C475.031 91.6667 475.184 91.5551 478.614 91.6464C482.044 91.7377 482.197 91.758 482.187 92.2146C482.176 92.6712 482.014 92.6813 481.578 92.6712C481.172 92.6979 480.786 92.8585 480.482 93.1278C479.994 93.5945 479.974 93.8279 479.862 101.123C479.751 108.225 479.771 108.651 480.207 108.986C480.507 109.197 480.857 109.324 481.222 109.352C481.618 109.352 481.77 109.494 481.76 109.839C481.75 110.184 481.588 110.305 478.168 110.224C474.747 110.143 474.575 110.102 474.585 109.686C474.595 109.27 474.839 109.209 475.549 109.118C476.97 108.925 477.051 108.469 477.173 100.23C477.264 93.6351 477.244 93.2191 476.818 92.8944C476.479 92.673 476.085 92.55 475.681 92.5393V92.5291ZM500.699 93.1481C500.549 93.1541 500.403 93.1077 500.284 93.0169C500.165 92.9261 500.082 92.7966 500.049 92.6509C499.948 92.1943 500.049 92.174 503.51 92.2653C506.971 92.3567 507.072 92.3769 507.062 92.8234C507.052 93.2698 506.89 93.3002 506.362 93.2901C504.85 93.2901 504.88 93.5235 507.001 99.8141C508.564 104.451 509.123 106.003 509.711 107.505C513.517 98.0994 514.36 96.3441 513.913 94.9236C513.747 94.5253 513.48 94.1772 513.138 93.9138C512.797 93.6504 512.392 93.4809 511.964 93.422C511.751 93.422 511.599 93.2089 511.599 92.9451C511.599 92.4886 511.772 92.4683 515.324 92.5596C518.876 92.6509 519.028 92.6712 519.018 93.1278C519.008 93.5843 518.845 93.5945 518.45 93.5843C517.435 93.5843 516.988 94.0815 517.11 95.1266C517.232 96.1716 521.058 107.779 521.231 107.617C521.403 107.454 526.386 95.0961 526.396 94.6193C526.407 94.1424 526.011 93.7771 525.077 93.7568C524.661 93.7568 524.509 93.6046 524.509 93.2597C524.509 92.9147 524.681 92.7929 527.391 92.8538C529.827 92.9147 530.263 92.9857 530.253 93.3003C530.243 93.6148 529.949 93.767 529.573 93.8786C528.751 94.1424 528.558 94.4671 527.442 97.0746L521.505 111.279C521.434 111.452 521.038 111.584 520.622 111.574H519.86L515.933 100.474C515.263 98.5661 515.202 98.4444 514.918 99.0126C514.532 99.7431 510.391 109.96 509.843 111.279L508.179 111.097C507.722 109.788 502.394 94.4874 501.724 93.7365C501.457 93.4341 501.096 93.2304 500.699 93.1582V93.1481ZM548.501 94.4366C548.489 94.2982 548.489 94.159 548.501 94.0206C548.501 93.9562 548.519 93.8929 548.552 93.838C548.552 93.7771 548.623 93.7771 548.796 93.767C551.499 93.5893 554.209 93.5622 556.915 93.6858C559.716 93.8989 561.675 95.3092 562.304 97.5617C563.512 101.935 560.985 105.77 556.418 105.526C553.82 105.384 553.546 104.806 552.977 104.512C552.816 106.538 552.816 108.573 552.977 110.6C553.363 111.533 554.763 111.553 555.007 111.817C555.062 111.916 555.091 112.028 555.091 112.142C555.091 112.255 555.062 112.367 555.007 112.466C554.973 112.497 554.933 112.52 554.889 112.534C554.845 112.548 554.799 112.553 554.753 112.548L548.39 112.345C548.39 112.345 548.146 112.345 548.045 112.284C547.986 112.184 547.961 112.068 547.974 111.952C547.987 111.837 548.037 111.729 548.116 111.645C548.277 111.551 548.452 111.483 548.633 111.442C549.567 111.208 549.973 110.944 550.196 110.427C550.42 109.91 550.389 109.24 550.552 102.939C550.694 96.9732 550.714 95.8368 550.552 95.5324C550.318 94.9439 549.608 94.8628 548.684 94.5888C548.796 94.5787 548.542 94.5381 548.501 94.4468V94.4366ZM559.94 99.601C559.994 100.225 559.92 100.854 559.723 101.449C559.526 102.044 559.209 102.593 558.793 103.061C558.143 103.514 557.405 103.825 556.627 103.974C555.848 104.122 555.048 104.105 554.276 103.923C553.832 103.814 553.41 103.628 553.028 103.375C553.079 100.595 553.14 96.5673 553.251 96.1716C553.322 95.0454 555.007 94.9642 555.829 95.0048C559.331 95.1874 559.879 98.069 559.94 99.6112V99.601ZM536.13 93.8583C532.232 102.99 529.725 108.834 529.431 109.362V109.463C529.157 109.94 528.69 110.762 527.899 110.873C527.687 110.885 527.482 110.948 527.3 111.056C527.256 111.089 527.22 111.132 527.195 111.181C527.171 111.231 527.158 111.285 527.158 111.34V111.543C527.163 111.573 527.175 111.601 527.192 111.626C527.21 111.65 527.233 111.671 527.259 111.685C527.401 111.766 527.198 111.685 533.349 111.858C533.349 111.858 533.562 111.858 533.643 111.858C533.694 111.81 533.732 111.751 533.755 111.685V111.482C533.735 111.362 533.683 111.249 533.602 111.158C533.426 111.076 533.237 111.021 533.044 110.995C532.828 110.976 532.619 110.907 532.434 110.794C532.248 110.681 532.091 110.527 531.976 110.343C531.86 110.159 531.788 109.951 531.765 109.736C531.743 109.52 531.771 109.301 531.847 109.098C531.989 108.408 532.963 105.912 533.217 105.263C536.678 105.323 539.438 105.364 539.631 105.415C539.824 105.466 539.946 105.841 540.463 107.231C541.255 109.321 541.326 109.585 541.123 109.96C541.123 109.96 541.123 109.96 541.123 110.041C541.021 110.345 540.835 110.613 540.587 110.816C540.34 111.019 540.04 111.148 539.722 111.188C539.722 111.188 539.266 111.188 539.154 111.32C539.119 111.36 539.091 111.406 539.074 111.457C539.057 111.507 539.049 111.561 539.053 111.614V111.827C539.062 111.889 539.09 111.945 539.134 111.99C539.183 112.007 539.237 112.007 539.286 111.99L546.096 112.142C546.096 112.142 546.259 112.142 546.299 112.142C546.325 112.106 546.343 112.064 546.35 112.02V111.736C546.343 111.654 546.311 111.576 546.258 111.513C546.072 111.425 545.874 111.363 545.67 111.33C544.848 111.178 544.564 110.315 544.3 109.96C543.988 109.374 543.723 108.763 543.508 108.134C538.109 93.4322 538.088 93.3713 538.027 93.2698C537.967 93.1684 537.52 93.2698 537.52 93.2698C537.038 93.4243 536.573 93.6247 536.13 93.8684V93.8583ZM537.145 98.7082C536.566 97.2065 536.393 96.5673 536.262 96.7905C536.13 97.0138 534.293 102.016 533.958 102.878C533.9 103.009 533.856 103.145 533.826 103.284C533.826 103.396 538.9 103.507 538.9 103.457C538.9 103.406 537.205 98.7488 537.195 98.7183L537.145 98.7082Z" fill="#FEC26D"/>
<path d="M605.904 142.58C609.396 123.82 640.107 115.693 654.62 134.402C662.577 115.51 671.468 116.626 674.452 120.603L671.925 145.208L605.904 142.58Z" fill="#CA2A44"/>
<path d="M658.517 168.291L630.912 425.527C618.306 413.047 542.431 345.108 512.166 315.238C540.929 214.354 527.095 162.731 590.924 165.916C598.343 166.282 649.749 167.306 658.517 168.291Z" fill="#CA2A44"/>
<path d="M618.238 146.355C621.506 158.997 637.572 184.362 669.552 184.038L666.802 174.713C643.732 174.044 638.739 157.333 632.467 142.124C626.195 126.915 614.98 133.713 618.238 146.355Z" fill="#FEC26D"/>
<path d="M743.527 193.26C759.157 193.595 758.659 217.226 743.009 216.881C727.359 216.536 727.877 192.915 743.527 193.26Z" fill="#0099F3"/>
<path d="M733.388 242.226C732.363 244.509 730.51 246.319 728.203 247.293C725.897 248.266 723.307 248.33 720.955 247.472C689.493 235.915 669.428 226.489 639.63 209.241C637.641 208.095 636.12 206.284 635.334 204.128C634.549 201.971 634.55 199.607 635.337 197.451C642.187 178.843 654.316 149.053 665.602 129.421C666.788 127.411 668.677 125.913 670.904 125.216C673.132 124.519 675.538 124.672 677.659 125.646C708.523 139.161 728.588 148.374 758.426 162.69C760.764 163.808 762.572 165.795 763.467 168.226C764.362 170.657 764.272 173.341 763.217 175.708C751.342 202.24 746.978 212.082 733.388 242.226Z" fill="#33C7FF"/>
<path d="M757.025 188.096C757.163 186.539 756.934 184.972 756.355 183.52C755.777 182.068 754.867 180.772 753.697 179.736C751.18 177.483 671.864 142.935 668.991 141.079C659.969 135.062 666.84 120.908 677.659 125.646C708.522 139.161 728.587 148.374 758.426 162.69C760.763 163.808 762.572 165.795 763.467 168.226C764.361 170.657 764.272 173.342 763.216 175.708C746.978 212.082 756.934 190.247 757.025 188.096Z" fill="#0088D9"/>
<path opacity="0.1" d="M757.027 188.096C757.147 186.541 756.91 184.979 756.332 183.53C755.755 182.081 754.854 180.783 753.698 179.736C751.313 177.585 672.189 143.088 668.992 141.058C667.65 140.188 666.56 138.979 665.831 137.555C665.103 136.13 664.761 134.539 664.842 132.941C676.32 133.195 759.686 173.13 760.985 180.629C748.532 208.49 756.814 190.531 757.027 188.096Z" fill="#153150"/>
<path d="M753.697 179.735C752.012 178.284 758.406 181.551 670.281 141.789C667.764 140.652 668.159 140.774 669.266 138.44C670.839 135.254 669.154 128.639 753.951 168.696C759.015 171.07 754.783 176.762 753.697 179.735Z" fill="#0099F3"/>
<path opacity="0.4" d="M647.922 200.048L647.08 198.526" stroke="#B6BFC7" stroke-width="0.426213" stroke-linecap="round" stroke-linejoin="round"/>
<path d="M692.529 201.935C692.085 201.864 691.644 201.769 691.21 201.651C690.518 201.481 689.839 201.261 689.18 200.992C692.468 197.948 692.133 195.493 694.072 196.314C695.828 197.045 694.366 199.906 692.529 201.935ZM706.738 192.804L682.38 186.219C680.238 185.641 679.944 193.585 685.272 198.476C686.699 197.204 687.906 195.706 688.845 194.042C692.539 188.208 702.577 193.027 698.994 199.115C698.309 200.42 697.281 201.515 696.02 202.28C705.835 202.301 709.062 193.433 706.758 192.804H706.738Z" fill="#1E324D"/>
<path d="M689.006 176.874C690.843 170.949 681.79 168.118 679.953 174.023C678.116 179.928 687.18 182.779 689.006 176.874Z" fill="#1E324D"/>
<path d="M685.068 174.429C685.163 174.08 685.12 173.708 684.946 173.39C684.773 173.072 684.483 172.834 684.138 172.725C683.793 172.616 683.419 172.645 683.095 172.806C682.771 172.967 682.521 173.247 682.399 173.587C682.304 173.936 682.347 174.309 682.521 174.626C682.694 174.944 682.983 175.182 683.329 175.291C683.674 175.4 684.048 175.371 684.372 175.21C684.696 175.05 684.945 174.77 685.068 174.429Z" fill="white"/>
<path d="M716.999 185.823C718.836 179.898 709.762 177.067 707.935 182.982C706.109 188.898 715.162 191.789 716.999 185.823Z" fill="#1E324D"/>
<path d="M713.366 183.226C713.451 182.88 713.401 182.514 713.226 182.204C713.05 181.893 712.763 181.661 712.423 181.555C712.082 181.449 711.714 181.476 711.393 181.632C711.073 181.788 710.824 182.061 710.697 182.394C710.612 182.74 710.662 183.106 710.837 183.417C711.012 183.727 711.299 183.959 711.64 184.066C711.98 184.172 712.348 184.144 712.669 183.988C712.99 183.832 713.239 183.56 713.366 183.226Z" fill="white"/>
<g opacity="0.15">
<path opacity="0.15" d="M677.346 167.185C681.01 163.36 688.348 164.192 687.282 167.043C686.359 169.518 682.847 165.724 679.488 169.224C679.211 169.48 678.847 169.62 678.471 169.618C678.094 169.615 677.733 169.469 677.46 169.209C677.187 168.949 677.023 168.595 677.002 168.219C676.981 167.843 677.104 167.473 677.346 167.185Z" fill="#153150"/>
</g>
<g opacity="0.15">
<path opacity="0.15" d="M721.333 183.672C719.364 183.074 721.099 178.853 716.705 178.214C716.324 178.149 715.984 177.939 715.756 177.627C715.528 177.316 715.431 176.927 715.485 176.545C715.54 176.163 715.741 175.817 716.046 175.581C716.352 175.345 716.737 175.238 717.121 175.282C723.261 176.124 724.976 184.748 721.333 183.672Z" fill="#153150"/>
</g>
<path opacity="0.4" d="M640.677 183.429C640.677 191.718 653.293 197.501 669.866 202.209C692.316 208.581 745.742 214.669 745.742 214.669L741.165 225.038L633.969 200.231L640.677 183.429Z" fill="#0099F3"/>
<path d="M610.167 420.18C604.585 422.808 608.452 424.239 526.304 340.989C522.325 335.764 528.151 274.734 543.629 213.949C547.942 196.984 549.261 189.821 580.785 191.13C611.902 192.418 658.66 200.261 699.185 210.407C734.099 219.113 736.788 217.266 735.54 243.788C734.302 270.006 727.492 312.701 718.367 347.604C711.09 375.435 710.583 373.031 610.167 420.18Z" fill="#0099F3"/>
<path d="M692.306 308.146C707.002 222.573 577.488 200.211 562.721 285.905C547.954 371.6 677.589 393.841 692.306 308.146Z" fill="white"/>
<path d="M630.842 280.345C636.708 293.272 633.075 289.639 645.954 296.833" stroke="white" stroke-width="6.16993" stroke-linecap="round" stroke-linejoin="round"/>
<path d="M650.724 276.206C633.471 237.873 641.692 238.847 612.35 267.937C570.84 271.538 575.357 264.781 594.447 302.515C587.14 342.947 580.888 336.921 621.85 331.574C641.428 343.445 651.577 352.099 652.592 344.581C661.818 277.525 708.504 307.679 650.724 276.206Z" fill="#0099F3"/>
<path d="M606.921 300.354C614.675 301.673 612.168 304.686 615.578 284.617C616.41 279.726 610.686 288.097 609.042 284.779C607.398 281.461 605.885 283.562 617.861 276.439C623.504 277.393 622.53 273.395 617.638 302.17C624.134 303.276 622.987 301.936 622.175 306.715C603.145 303.458 606.098 305.224 606.921 300.354ZM638.728 298.629C624.134 309.292 644.605 301.804 643.661 307.344C642.991 311.261 646.36 310.824 623.474 306.938C624.093 303.316 622.814 305.041 635.166 296.194C643.468 290.238 642.27 284.546 637.703 283.765C630.183 282.486 636.384 289.517 627.493 286.342C632.344 271.275 659.372 283.541 638.738 298.608L638.728 298.629ZM606.18 320.859C608.372 307.963 607.519 309.698 609.701 310.033C610.392 310.155 610.3 310.713 610.331 311.494C612.574 309.708 615.466 310.256 615.953 313.057C617.587 310.713 621.302 311.271 622.5 313.168C623.514 314.781 623.037 316.08 621.769 323.507C615.953 322.493 621.952 317.348 620.104 314.315C619.905 314.065 619.649 313.865 619.358 313.733C619.067 313.6 618.749 313.538 618.429 313.552C618.11 313.566 617.798 313.655 617.519 313.812C617.241 313.97 617.003 314.19 616.826 314.457C613.497 320.149 618.714 322.99 612.635 321.955C612.98 319.926 615.781 308.633 610.229 313.188C608.585 322.909 609.752 321.448 606.19 320.839L606.18 320.859ZM631.055 313.483C638.424 314.731 636.485 326.165 629.107 324.918C621.728 323.67 623.636 312.204 631.065 313.462L631.055 313.483ZM629.462 322.858C633.166 323.487 634.405 316.151 630.71 315.532C627.016 314.913 625.707 322.208 629.472 322.838L629.462 322.858ZM636.313 324.461C636.404 324.043 636.653 323.676 637.008 323.436C637.363 323.197 637.796 323.104 638.218 323.175C638.64 323.247 639.018 323.479 639.274 323.822C639.53 324.166 639.643 324.594 639.591 325.019C639.461 325.394 639.202 325.71 638.86 325.911C638.518 326.112 638.115 326.184 637.725 326.114C637.334 326.045 636.981 325.838 636.73 325.531C636.478 325.224 636.345 324.837 636.353 324.441L636.313 324.461Z" fill="white"/>
<path d="M712.624 228.113C712.387 229.962 712.525 231.841 713.03 233.637C713.534 235.432 714.395 237.108 715.561 238.564C716.726 240.02 718.173 241.227 719.815 242.112C721.457 242.997 723.261 243.543 725.118 243.717C754.551 246.508 750.826 245.219 754.855 205.7C752.216 229.137 715.781 203.214 712.624 228.113Z" fill="#6CD7FF"/>
<path d="M726.417 222.867C735.623 221.528 737.663 235.448 728.447 236.788C719.232 238.127 717.202 224.257 726.417 222.867Z" fill="#FFD168"/>
<path d="M160.234 621.156L82.7852 197.593L335.937 139.496L421.038 571.338L160.234 621.156Z" fill="#1699C9"/>
<path fill-rule="evenodd" clip-rule="evenodd" d="M153.453 188.968L195.694 180.415L278.613 602.152L236.21 610.269L153.453 188.968Z" fill="#FEC26D"/>
<path d="M66.2013 218.798L360.457 150.048L351.018 110.904L61.2891 177.179L66.2013 218.798Z" fill="#1699C9"/>
<path opacity="0.2" fill-rule="evenodd" clip-rule="evenodd" d="M61.3594 177.28L89.3103 170.908L101.489 210.925L338.981 155.263L343.609 179.675L141.711 220.452L166.525 321.265C220.966 308.755 251.566 321.488 286.164 333.491C298.11 302.829 310.593 273.446 355.564 239.405L421.96 558.311L239.589 607.712L160.233 621.166L85.9306 214.192L66.3731 218.687L61.3594 177.28Z" fill="#003077"/>
<path d="M111.374 116.545C120.945 131.521 140.807 150.646 149.515 158.337L168.798 151.955C147.221 85.3354 132.779 69.0812 117.159 79.1665C101.539 89.2518 99.4588 97.8355 111.374 116.545Z" fill="#FEC26D"/>
<path d="M150.398 148.952C146.46 144.508 104.087 102.432 111.344 92.9246C120.904 82.0986 140.675 125.352 150.398 148.952Z" fill="#E5AE5A"/>
<path d="M195.553 81.9566C187.434 83.3061 179.913 90.175 164.283 151.265C173.306 152.645 183.81 154.847 187.931 155.77C224.052 127.28 246.441 96.9223 228.416 88.5922C216.633 83.1437 203.621 80.597 195.553 81.9566Z" fill="#FEC26D"/>
<path d="M184.338 143.808C192.681 124.905 211.568 88.9573 220.357 96.3437C230.131 102.736 200.414 130.648 184.338 143.808Z" fill="#E5AE5A"/>
<path d="M148.37 204.502L141.641 151.448L195.979 141.302L208.128 190.754L148.37 204.502Z" fill="#FEC26D"/>
<path d="M305.488 373.112C305.539 373.254 388.012 623.033 363.187 658.93C333.125 702.407 139.488 739.593 119.362 684.61C95.9582 620.689 224.528 535.613 179.577 359.404C250.865 341.517 287.382 323.771 305.488 373.112Z" fill="#33DCF3"/>
<path d="M309.378 466.376C354.105 640.251 373.906 653.553 262.184 672.871C270.851 641.986 301.279 661.558 275.043 512.145L240.109 360.967C274.15 366.74 279.945 351.927 309.378 466.376Z" fill="white"/>
<g style="mix-blend-mode:multiply" opacity="0.6">
<path d="M324.672 435.004C347.365 511.486 380.015 634.549 363.147 658.93C350.644 677.011 309.834 694.016 264.984 703.736C264.984 703.736 341.103 684.458 359.443 657.632C378.422 629.831 324.672 435.004 324.672 435.004Z" fill="#9F8FAC"/>
</g>
<g style="mix-blend-mode:multiply" opacity="0.3">
<path d="M292.641 351.734C284.857 362.621 290.297 402.11 290.297 402.11C265.056 476.898 286.207 488.18 313.386 481.382L322.206 516.123C322.206 516.123 311.326 605.572 320.805 617.585C328.224 626.97 345.072 624.017 345.072 624.017L341.439 643.721H390.723V397.889L330.549 383.36L292.641 351.734Z" fill="#9F8FAC"/>
</g>
<path d="M295.726 402.516C286.815 337.316 313.335 280.132 365.218 245.189C420.044 208.287 523.698 231.36 587.161 330.792C597.31 346.732 604.302 333.258 621.81 389.478C640.698 450.01 429.056 453.642 350.644 467.157C338.201 469.308 310.95 472.433 300.05 467.096C289.85 465.29 286.856 451.826 286.673 441.467C286.206 417.908 283.212 402.83 295.726 402.516Z" fill="black"/>
<path d="M560.507 299.674C444.654 174.084 291.624 241.424 299.175 393.191C299.693 404.109 297.957 403.266 303.235 402.962C373.346 398.904 524.609 304.696 588.184 334.739C580.531 321.985 570.301 310.297 560.507 299.674Z" fill="#9E93B1"/>
<path d="M289.473 428.317C290.153 452.141 288.763 465.189 308.036 466.751C344.949 469.694 406.595 439.529 478.634 416.335C501.865 408.857 591.666 380.366 608.371 398.203C610.137 400.111 613.588 403.449 612.827 406.442C611.122 413.24 600.404 419.541 599.633 418.871C612.137 409.74 628.051 383.278 534.495 404.413C485.881 415.381 399.328 450.771 359.746 462.114C457.838 445.434 637.205 446.743 617.861 385.247C604.291 342.115 594.822 326.521 533.227 336.048C443.67 349.918 364.354 408.421 302.302 406.615C287.22 401.085 289.016 414.255 289.473 428.317Z" fill="#9E93B1"/>
<g style="mix-blend-mode:multiply" opacity="0.4">
<path d="M400.405 236.432C400.506 235.996 401.308 236.94 401.318 237.214C401.318 240.694 404.292 245.331 405.378 248.577C489.88 497.799 399.014 242.632 400.405 236.432Z" fill="#234B6D"/>
</g>
<g style="mix-blend-mode:multiply" opacity="0.4">
<path d="M403.065 234.302C428.529 251.256 468.75 357.923 461.28 349.055C458.631 345.92 458.479 337.499 441.144 297.31C421.191 251.063 398.609 231.359 403.065 234.302Z" fill="#234B6D"/>
</g>
<g style="mix-blend-mode:multiply" opacity="0.4">
<path d="M405.612 232.547C449.608 243.109 495.787 331.685 496.183 340.938C496.518 349.055 460.438 252.748 406.149 233.866C405.774 233.693 404.952 232.374 405.612 232.547Z" fill="#234B6D"/>
</g>
<g style="mix-blend-mode:multiply" opacity="0.4">
<path d="M469.257 266.354C499.532 299.116 515.557 348.386 508.839 335.977C506.068 330.904 496.426 299.095 468.587 268.18C436.678 232.77 412.827 234.2 409.722 231.806C405.276 228.427 434.841 229.087 469.257 266.354Z" fill="#234B6D"/>
</g>
<g style="mix-blend-mode:multiply" opacity="0.4">
<path d="M488.428 266.445C516.288 292.896 532.598 333.41 532.598 334.161C532.699 347.797 518.013 281.482 459.087 246.345C448.38 239.974 435.45 232.902 422.966 231.319C415.101 230.345 444.949 225.16 488.428 266.445Z" fill="#234B6D"/>
</g>
<g style="mix-blend-mode:multiply" opacity="0.4">
<path d="M435.033 228.224C484.571 242.124 505.458 261.412 533.074 301.094C534.089 302.505 549.496 329.189 549.475 331.817C549.374 342.278 530.344 276.906 473.488 244.955C449.303 231.38 453.19 235.763 435.5 229.31C435.175 229.198 434.485 228.072 435.033 228.224Z" fill="#234B6D"/>
</g>
<g style="mix-blend-mode:multiply" opacity="0.4">
<path d="M568.019 331.025C568.831 333.055 566.476 331.441 565.989 330.559C545.924 291.12 518.917 258.876 477.417 240.958C463.715 235.002 537.906 256.39 568.019 331.025Z" fill="#234B6D"/>
</g>
<g style="mix-blend-mode:multiply" opacity="0.4">
<path d="M394.913 234.819C395.238 234.87 409.965 299.978 423.331 336.616C425.361 342.308 433.582 362.154 433.562 363.788C433.369 381.412 387.626 233.439 394.913 234.819Z" fill="#234B6D"/>
</g>
<g style="mix-blend-mode:multiply" opacity="0.4">
<path d="M391.319 236.504C387.817 273.618 406.39 335.033 417.057 370.586C417.585 372.351 414.956 370.322 414.672 369.388C377.262 244.133 391.755 231.461 391.319 236.504Z" fill="#234B6D"/>
</g>
<g style="mix-blend-mode:multiply" opacity="0.4">
<path d="M380.461 249.623C382.49 235.164 385.606 238.462 385.099 239.426C373.772 260.002 400.008 376.267 399.835 376.298C393.583 377.12 377.162 273.07 380.461 249.623Z" fill="#234B6D"/>
</g>
<g style="mix-blend-mode:multiply" opacity="0.4">
<path d="M374.442 242.327C374.706 241.992 375.538 243.037 375.376 243.342C359.969 277.23 380.126 386.596 379.507 386.048C373.245 380.63 359.076 261.859 374.442 242.327Z" fill="#234B6D"/>
</g>
<g style="mix-blend-mode:multiply" opacity="0.4">
<path d="M366.577 246.427C366.77 245.99 367.592 246.944 367.5 247.319C347.466 306.786 365.227 379.839 365.673 391C366.384 406.889 343.041 298.893 366.577 246.427Z" fill="#234B6D"/>
</g>
<g style="mix-blend-mode:multiply" opacity="0.4">
<path d="M346.521 318.322C351.596 242.662 365.023 248.76 362.547 251.256C347.495 266.567 348.622 349.441 348.541 358.806C348.287 390.868 352.418 396.732 351.454 397.28C343.892 403.063 345.75 329.777 346.521 318.322Z" fill="#234B6D"/>
</g>
<g style="mix-blend-mode:multiply" opacity="0.4">
<path d="M335.845 364.437C332.891 267.034 360.761 247.269 356.508 254.716C327.411 307.456 342.462 423.123 336.829 399.025C335.52 393.496 336.687 392.329 335.845 364.437Z" fill="#234B6D"/>
</g>
<g style="mix-blend-mode:multiply" opacity="0.4">
<path d="M337.65 275.83C339.781 269.945 343.79 266.627 347.099 261.564C347.363 261.159 348.114 262.072 347.982 262.417C342.806 273.436 341.395 267.49 335.6 292.003C320.072 357.892 328.018 403.408 327.592 403.834C320.813 410.835 322.183 318.617 337.65 275.83Z" fill="#234B6D"/>
</g>
<g style="mix-blend-mode:multiply" opacity="0.4">
<path d="M314.166 338.28C322.519 281.035 337.367 271.011 335.155 275.82C312.299 324.806 314.288 355.975 313.04 405.458C312.887 411.089 305.661 396.509 314.166 338.28Z" fill="#234B6D"/>
</g>
<g style="mix-blend-mode:multiply" opacity="0.4">
<path d="M299.815 385.754C300.373 325.344 315.81 295.899 314.237 304.28C311.05 320.291 306.381 322.645 304.27 358.694C303.306 375.273 300.809 394.206 303.438 404.2C303.641 404.991 299.602 408.624 299.815 385.754Z" fill="#234B6D"/>
</g>
<g style="mix-blend-mode:multiply" opacity="0.4">
<path d="M571.885 331.076C607.996 334.242 621.281 411.231 607.275 400.801C606.93 400.801 606.615 400.395 606.453 400.091C606.453 398.061 610.289 398.812 610.421 391.304C610.614 379.849 598.78 341.994 580.136 335.267C577.568 334.343 575.061 334.252 572.534 333.024C572.098 332.821 570.738 330.975 571.885 331.076Z" fill="#234B6D"/>
</g>
<g style="mix-blend-mode:multiply" opacity="0.4">
<path d="M582.856 375.04C591.93 403.236 583.871 394.561 584.216 392.765C585.8 383.542 570.444 343.374 558.143 333.643C556.519 332.365 554.652 331.888 552.977 330.813C548.938 328.266 567.43 327.109 582.856 375.04Z" fill="#234B6D"/>
</g>
<g style="mix-blend-mode:multiply" opacity="0.4">
<path d="M535.194 332.02C552.57 334.658 566.657 415.148 559.664 397.26C559.593 397.077 548.977 340.117 535.611 333.339C535.347 333.156 534.443 331.908 535.194 332.02Z" fill="#234B6D"/>
</g>
<g style="mix-blend-mode:multiply" opacity="0.4">
<path d="M515.01 336.312C521.17 340.046 535.684 376.399 539.094 401.004C539.347 402.84 537.064 400.72 536.851 399.878C534.253 389.143 522.561 345.362 515 337.235C514.827 337.052 514.33 335.865 515.01 336.312Z" fill="#234B6D"/>
</g>
<g style="mix-blend-mode:multiply" opacity="0.4">
<path d="M493.25 340.827C494.438 339.964 495.158 341.76 494.864 342.156C494.57 342.552 499.431 352.546 499.939 353.855C522.693 416.649 512.737 407.031 512.27 404.19C508.342 381.371 492.53 341.304 493.25 340.827Z" fill="#234B6D"/>
</g>
<g style="mix-blend-mode:multiply" opacity="0.4">
<path d="M472.067 349.542C474.097 351.572 474.879 355.265 475.954 357.791C504.758 425.395 491.675 413.494 491.503 410.836C490.539 396.905 468.373 345.636 472.067 349.542Z" fill="#234B6D"/>
</g>
<g style="mix-blend-mode:multiply" opacity="0.4">
<path d="M477.01 420.85C473.194 420.434 476.797 415.168 462.619 383.238C460.853 379.291 452.937 357.101 452.591 355.042C451.698 349.806 482.298 421.428 477.01 420.85Z" fill="#234B6D"/>
</g>
<g style="mix-blend-mode:multiply" opacity="0.4">
<g style="mix-blend-mode:multiply" opacity="0.4">
<path d="M439.6 363.625C441.072 369.581 466.902 426.268 461.929 423.904C458.519 422.27 460.812 416.984 444.939 381.198C435.155 359.12 439.286 362.418 439.6 363.625Z" fill="#234B6D"/>
</g>
</g>
<g style="mix-blend-mode:multiply" opacity="0.4">
<path d="M443.132 415.736C444.584 420.17 445.162 425.578 447.121 429.779C447.628 430.864 446.563 430.905 445.964 430.256C443.295 427.425 446.035 428.977 436.221 402.546C431.806 390.645 425.006 379.21 421.839 366.923C420.226 360.714 437.682 399.137 443.132 415.736Z" fill="#234B6D"/>
</g>
<g style="mix-blend-mode:multiply" opacity="0.4">
<path d="M410.146 372.392C412.907 389.153 437.042 440.584 431.186 435.602C429.014 433.746 428.628 430.661 427.613 428.094C402.646 365.289 409.933 371.032 410.146 372.392Z" fill="#234B6D"/>
</g>
<g style="mix-blend-mode:multiply" opacity="0.4">
<path d="M396.679 379.494C399.724 395.322 419.007 438.636 417.089 437.601C419.403 438.879 419.22 444.825 414.704 435.572C410.106 426.146 402.799 404.119 399.156 394.277C393.025 377.637 396.243 377.15 396.679 379.494Z" fill="#234B6D"/>
</g>
<g style="mix-blend-mode:multiply" opacity="0.4">
<path d="M384.186 383.816C384.551 383.735 385.201 384.577 384.917 384.881C380.573 389.386 404.129 442.583 404.484 444.744C406.281 455.783 376.422 385.581 384.186 383.816Z" fill="#234B6D"/>
</g>
<g style="mix-blend-mode:multiply" opacity="0.4">
<path d="M369.877 388.067C370.039 387.55 371.074 388.686 370.973 389.143C368.699 399.705 374.332 411.414 377.133 421.347C382.655 440.97 382.695 447.179 385.324 451.369C386.278 452.881 384.806 453.013 383.954 451.917C381.995 449.391 381.67 445.83 380.909 442.786C370.76 404.616 366.599 398.772 369.877 388.067Z" fill="#234B6D"/>
</g>
<g style="mix-blend-mode:multiply" opacity="0.4">
<path d="M357.302 391.466C357.718 391.04 358.854 392.481 358.58 392.907C351.76 404.474 378.108 467.898 368.851 453.957C368.232 453.034 349.629 399.259 357.302 391.466Z" fill="#234B6D"/>
</g>
<g style="mix-blend-mode:multiply" opacity="0.4">
<path d="M342.908 398.772C343.08 398.234 344.105 399.391 344.065 399.786C342.573 412.652 363.49 473.549 356.426 461.079C354.397 457.589 354.234 453.165 353.28 449.29C347.211 424.736 339.163 410.866 342.908 398.772Z" fill="#234B6D"/>
</g>
<g style="mix-blend-mode:multiply" opacity="0.4">
<path d="M332.02 400.233C332.243 399.746 333.187 400.831 333.035 401.247C329.442 412.601 334.242 422.554 337.582 433.39C349.213 471.033 342.27 462.987 342.068 461.445C337.257 426.004 325.017 415.756 332.02 400.233Z" fill="#234B6D"/>
</g>
<g style="mix-blend-mode:multiply" opacity="0.4">
<path d="M317.669 403.003C317.669 401.836 319.556 403.479 319.029 404.119C313.802 410.47 329.036 447.839 328.163 467.786C328.102 469.399 325.758 466.771 325.666 465.929C321.069 424.746 311.173 408.847 317.669 403.003Z" fill="#234B6D"/>
</g>
<g style="mix-blend-mode:multiply" opacity="0.4">
<path d="M307.671 403.662C308.047 403.338 308.879 404.423 308.686 404.799C306.281 409.527 308.524 415.96 309.457 420.951C321.007 481.768 313.517 464.773 313.517 464.58C311.203 427.749 301.713 408.756 307.671 403.662Z" fill="#234B6D"/>
</g>
<g style="mix-blend-mode:multiply" opacity="0.4">
<path d="M297.035 403.541C297.329 403.165 298.283 404.332 298.05 404.717C295.523 409.862 297.167 416.152 298.354 421.52C309.336 471.439 300.384 478.501 300.729 451.136C301.013 430.611 290.012 412.53 297.035 403.541Z" fill="#234B6D"/>
</g>
<path d="M463.724 336.88C462.933 333.674 459.878 334.851 458.497 335.328C464.475 333.187 462.06 327.809 457.391 329.24C463.288 327.211 461.258 323.091 458.782 322.685C462.709 317.206 444.634 275.526 444.786 275.242C433.622 250.242 402.941 250.962 394.09 270.453C387.605 284.657 395.674 286.21 407.457 334.597C407.613 335.301 407.926 335.961 408.371 336.528C408.815 337.096 409.382 337.557 410.028 337.877C410.674 338.197 411.384 338.368 412.105 338.379C412.827 338.389 413.541 338.237 414.196 337.935C413.665 339.637 413.265 341.377 412.998 343.14C409.314 344.327 409.771 347.797 411.679 348.913C410.766 352.678 410.837 352.485 410.918 352.901C410.963 353.341 411.106 353.765 411.337 354.143C411.567 354.521 411.879 354.843 412.249 355.085C412.62 355.327 413.04 355.483 413.478 355.543C413.917 355.602 414.363 355.562 414.785 355.427C416.713 354.839 416.926 354.098 418.195 348.051C420.62 347.239 419.514 346.194 420.834 348.274C422.112 350.202 424.751 354.778 427.644 351.085C433.946 353.408 431.703 338.168 435.174 343.891C436.677 346.184 437.59 347.949 439.376 347.949C440.03 347.959 440.67 347.77 441.214 347.408C441.758 347.046 442.179 346.527 442.421 345.92C442.928 344.561 442.725 346.204 444.887 346.225C445.828 346.243 446.743 345.92 447.463 345.316C448.183 344.711 448.66 343.866 448.805 342.937C451.748 327.464 448.094 345.809 454.59 343.1C459.309 341.436 464.739 340.715 463.724 336.88ZM450.033 329.392C449.555 329.54 449.136 329.834 448.835 330.234C445.689 328.996 445.395 333.278 445.182 334.658C444.055 343.546 443.964 332.913 439.6 332.872C439.147 332.875 438.704 332.995 438.311 333.218C437.918 333.442 437.59 333.763 437.357 334.151C436.342 335.774 432.728 331.289 431.419 339.082C430.932 342.004 428.527 340.989 429.065 343.81C429.349 345.382 430.354 345.088 430.08 345.92C425.523 339.092 424.883 337.955 423.138 337.935C421.392 337.915 423.371 338.047 422.691 335.003C421.087 327.901 420.874 328.195 421.128 327.901C423.229 325.323 421.28 333.988 426.74 333.988C433.987 334.059 429.785 325.678 430.252 325.039C431.693 323.223 430.638 328.915 435.144 328.956C440.899 329.017 438.96 322.401 439.092 322.219C440.625 320.189 439.305 328.367 444.38 328.408C451.302 328.479 447.161 319.956 447.638 319.276C448.115 318.596 448.338 319.469 450.002 326.034C450.926 329.493 454.001 327.972 450.033 329.341V329.392ZM453.717 333.45C453.717 333.45 457.026 332.314 454.224 333.268L453.717 333.45ZM456.173 337.986C454.509 338.574 454.042 338.706 456.498 337.854C456.396 337.91 456.287 337.951 456.173 337.976V337.986Z" fill="#5A5C7F"/>
<path d="M446.127 341.203C439.642 331.676 437.805 329.931 439.672 329.423C440.443 329.22 440.322 329.109 447.314 339.884C449.527 326.237 449.019 326.349 449.882 326.085C451.668 325.375 451.09 328.5 448.867 340.29C448.593 341.71 446.908 342.36 446.127 341.203Z" fill="white"/>
<path d="M452.589 326.247C451.95 323.538 471.873 320.494 454.386 326.46C454.721 327.9 455.035 329.351 455.401 330.792C461.145 328.844 461.744 328.306 461.998 329.443C462.251 330.579 461.389 330.549 455.756 332.487C456.06 333.948 456.345 335.399 456.629 336.86C460.222 335.642 465.286 333.339 463.733 335.957C463.479 336.393 463.733 336.22 456.071 338.818C454.883 339.274 455.35 338.026 452.589 326.247Z" fill="white"/>
<path d="M442.501 342.014C434.93 330.589 433.905 326.297 431.702 338.331C430.535 338.686 429.216 338.838 429.429 339.954C429.642 341.07 430.657 340.502 431.307 340.299C430.708 343.241 429.277 347.472 431.195 346.803C432.017 346.529 431.936 346.204 433.154 339.7C434.301 339.345 435.549 339.213 435.326 338.087C435.102 336.961 434.098 337.539 433.499 337.722C433.783 336.149 434.057 334.566 434.311 332.984C441.486 343.617 441.04 343.718 441.923 343.465C442.065 343.419 442.195 343.342 442.304 343.24C442.413 343.138 442.498 343.013 442.553 342.875C442.608 342.736 442.632 342.587 442.623 342.438C442.614 342.29 442.573 342.145 442.501 342.014Z" fill="white"/>
<path d="M428.223 346.387C420.418 334.698 419.565 330.782 417.058 342.653C415.83 342.998 414.46 343.14 414.653 344.256C414.846 345.372 415.922 344.804 416.602 344.611C415.891 347.655 414.328 351.713 416.358 351.094C417.211 350.831 417.129 350.536 418.54 344.063C419.758 343.718 421.057 343.586 420.844 342.46C420.631 341.334 419.575 341.912 418.956 342.085C419.271 340.522 419.586 338.949 419.87 337.377C427.096 347.959 426.67 348.142 427.593 347.868C427.744 347.829 427.884 347.756 428.001 347.654C428.119 347.553 428.212 347.425 428.273 347.282C428.334 347.139 428.361 346.984 428.352 346.829C428.343 346.673 428.299 346.522 428.223 346.387Z" fill="white"/>
<path d="M444.311 272.37C430.883 242.662 386.379 257.151 397.98 287.711C397.086 288.066 400.395 284.607 411.813 331.888C412.686 335.5 418.329 333.917 417.496 330.234C416.898 327.576 416.248 324.917 415.558 322.279C414.614 318.688 420.156 316.993 421.11 320.605C421.444 321.863 421.759 323.122 422.124 324.38C423.038 327.931 428.447 326.277 427.595 322.706C427.29 321.437 426.955 320.189 426.58 318.931C425.616 315.329 430.954 313.625 431.949 317.237C433.441 322.695 438.373 319.844 437.5 316.577C436.069 311.261 441.449 310.621 442.392 313.838C442.758 315.096 443.093 316.354 443.407 317.622C444.361 321.255 449.497 319.56 448.482 315.908C448.147 314.649 447.792 313.391 447.467 312.133C446.777 309.698 449.142 307.557 451.182 308.744C452.44 309.465 452.44 309.881 454.642 318.393C455.576 322.036 460.6 320.321 459.585 316.679C446.564 269.722 443.62 272.959 444.311 272.37ZM417.557 281.735C419.009 290.867 403.896 286.342 409.377 278.052C411.549 275.384 416.877 277.474 417.557 281.735ZM429.31 287.387C429.31 291.273 422.094 292.155 421.556 288.726C421.302 287.549 423.352 287.782 425.19 287.174C427.027 286.565 429.249 284.485 429.31 287.387ZM434.293 278.722C432.69 283.44 425.545 280.812 425.565 275.333C425.078 267.632 436.546 271.944 434.253 278.722H434.293Z" fill="white"/>
<path d="M429.309 287.163C429.086 284.566 427.168 286.483 425.199 287.163C423.444 287.742 421.708 287.559 421.566 288.422C421.698 287.549 423.434 287.742 425.199 287.163C426.965 286.585 429.056 284.586 429.309 287.163Z" fill="white"/>
<path d="M426.104 272.959C426.154 272.867 426.215 272.776 426.276 272.685C426.266 272.746 426.154 272.837 426.104 272.959Z" fill="white"/>
<g style="mix-blend-mode:multiply" opacity="0.6">
<path d="M380.085 243.971C354.073 269.103 358.833 305.944 365.694 341.496C368.495 356.066 371.367 370.372 385.789 366.913C424.234 357.72 511.223 320.443 556.296 328.986C464.415 332.213 377.101 398.68 303.317 402.962C297.958 403.277 299.734 404.068 299.257 393.191C295.451 318.393 333.196 265.603 380.085 243.971Z" fill="#9F8FAC"/>
</g>
<g style="mix-blend-mode:multiply" opacity="0.6">
<path d="M289.819 410.318C294.071 394.683 294.508 422.493 376.432 389.731C377.762 396.042 381.324 402.069 384.815 407.345C398.466 427.982 411.68 421.925 434.749 413.534C603.744 352.038 645.67 393.546 601.592 419.287C554.145 446.986 407.651 453.977 359.787 462.114C404.698 449.249 561.117 384.181 602.353 397.382C610.128 399.867 612.401 409.557 599.623 418.871C600.435 419.612 611.112 413.098 612.817 406.442C613.578 403.449 610.128 400.111 608.362 398.203C583.374 371.529 402.8 444.105 367.886 454.931C330.213 470.86 288.144 469.582 292.529 457.812C288.885 448.691 288.692 414.437 289.819 410.318Z" fill="#9F8FAC"/>
</g>
<path d="M661.28 616.357C661.156 619.09 659.964 621.664 657.959 623.526C655.954 625.388 653.298 626.388 650.563 626.31C603.521 625.073 406.82 619.725 340.302 615.829C338.092 615.698 335.982 614.869 334.274 613.461C332.567 612.054 331.351 610.14 330.802 607.996C330.537 606.981 330.431 605.93 330.488 604.882L337.318 468.141C379.518 460.268 436.669 434.04 494.306 415.452C509.063 410.683 523.84 406.422 538.424 403.104C581.579 403.185 621.211 400.182 651.872 401.075C654.014 401.136 657.769 402.181 659.636 403.906C663.331 407.315 663.229 410.927 663.615 438.92C664.142 475.751 664.873 539.682 661.28 616.357Z" fill="url(#paint0_linear_285_4830)"/>
<path d="M648.756 622.516C601.714 621.268 404.952 615.9 338.484 612.025C337.12 611.949 335.784 611.606 334.553 611.015C333.321 610.423 332.218 609.595 331.307 608.578C330.396 607.56 329.694 606.373 329.241 605.084C328.789 603.796 328.595 602.43 328.67 601.067L335.277 468.507C335.967 468.415 336.637 468.283 337.307 468.141C379.497 460.268 436.658 434.05 494.295 415.452C509.042 410.694 523.829 406.422 538.413 403.104C544.124 401.799 549.801 400.645 555.444 399.644L557.078 399.37C574.2 399.441 642.169 400.598 651.059 400.943C652.756 401.024 654.41 401.5 655.89 402.333C656.093 402.446 656.287 402.575 656.469 402.719C656.609 402.802 656.741 402.897 656.865 403.003C657.196 403.25 657.515 403.514 657.819 403.794C657.958 403.922 658.091 404.057 658.215 404.2C659.427 405.476 660.284 407.046 660.701 408.756C660.884 409.469 660.989 410.201 661.016 410.937C661.229 417.025 661.513 425.771 661.736 436.911C662.295 462.794 662.65 501.38 661.584 548.002C661.584 548.418 661.584 548.854 661.584 549.27C661.584 549.27 659.656 606.88 659.473 610.98C659.473 611.477 659.422 611.994 659.402 612.481C659.296 615.215 658.122 617.797 656.131 619.674C654.14 621.551 651.491 622.571 648.756 622.516Z" fill="url(#paint1_linear_285_4830)"/>
<path opacity="0.8" d="M373.143 529.81L370.534 529.729L373.143 529.81ZM400.15 530.622L397.541 530.54L400.15 530.622ZM416.825 518.081C418.043 477.496 421.656 483.492 399.003 482.813C353.007 481.433 360.06 476.106 359.187 505.266C358.589 525.112 357.289 529.333 362.618 529.485C424.071 531.342 416.307 534.802 416.804 518.081H416.825Z" fill="#E9D38B"/>
<path opacity="0.6" d="M390.855 541.407C390.182 542.298 389.318 543.027 388.327 543.541C387.336 544.054 386.242 544.34 385.126 544.377C384.01 544.414 382.9 544.201 381.877 543.754C380.854 543.307 379.944 542.637 379.213 541.793L369.277 549.291C371.121 551.618 373.462 553.504 376.13 554.81C378.797 556.116 381.723 556.809 384.692 556.838C387.662 556.867 390.601 556.232 393.293 554.979C395.986 553.725 398.363 551.886 400.253 549.595L390.855 541.407Z" fill="white"/>
<path d="M596.131 451.441L605.042 459.558L605.215 452.851L598.009 446.073L610.279 446.398C611.024 449.447 612.86 452.118 615.441 453.905C618.022 455.692 621.168 456.472 624.285 456.097C627.402 455.722 630.274 454.219 632.357 451.871C634.44 449.523 635.59 446.493 635.59 443.354C635.59 440.216 634.44 437.186 632.357 434.838C630.274 432.49 627.402 430.986 624.285 430.611C621.168 430.236 618.022 431.016 615.441 432.803C612.86 434.591 611.024 437.261 610.279 440.31L583.84 439.63L583.678 445.718L591.27 445.911L592.528 447.24L583.698 453.013L583.536 459.507L596.131 451.441ZM615.262 443.324C615.301 441.839 615.779 440.4 616.636 439.187C617.493 437.974 618.69 437.043 620.076 436.51C621.463 435.978 622.976 435.868 624.425 436.195C625.873 436.522 627.193 437.271 628.215 438.348C629.238 439.424 629.919 440.78 630.171 442.243C630.424 443.706 630.237 445.211 629.633 446.568C629.03 447.925 628.038 449.072 626.783 449.866C625.527 450.659 624.065 451.062 622.58 451.025C621.59 451 620.615 450.779 619.711 450.376C618.806 449.973 617.99 449.395 617.31 448.676C616.63 447.956 616.099 447.109 615.748 446.184C615.396 445.258 615.231 444.273 615.262 443.283V443.324ZM588.438 478.927C582.633 476.897 580.38 467.502 585.474 461.506C587.281 459.388 590.147 458.374 594.071 458.462C601.713 458.665 605.367 463.332 605.235 469.288C605.134 472.88 603.845 475.944 600.861 477.841C598.181 479.596 595.4 479.627 592.203 479.495L592.609 464.022C586.682 464.103 586.347 470.049 588.083 472.281C588.475 472.767 588.962 473.167 589.514 473.458L588.438 478.927ZM599.501 465.838C598.611 464.986 597.474 464.439 596.253 464.276L595.999 473.843C601.175 473.6 601.52 467.888 599.501 465.818V465.838ZM578.999 480.956C578.796 483.442 578.796 484.588 580.735 485.42C581.132 485.631 581.566 485.766 582.014 485.816L604.403 478.582L604.24 484.761L588.448 488.992L604.007 493.781L603.855 499.696C583.455 491.985 577.619 490.006 575.731 488.332C573.844 486.658 574.483 482.346 574.716 480.063L578.999 480.956ZM588.235 518.771C587.084 518.422 586.008 517.865 585.058 517.127C583.876 516.211 582.941 515.013 582.34 513.643C581.739 512.273 581.491 510.775 581.618 509.284C581.706 505.861 582.785 503.372 584.855 501.817C587.17 500.186 589.978 499.405 592.802 499.605C605.874 499.939 605.54 511.861 602.129 516.447C600.972 518 599.085 518.923 596.344 519.238L595.867 513.606C597.999 513.383 599.328 512.227 599.389 509.984C599.45 509.124 599.217 508.268 598.728 507.556C598.24 506.845 597.525 506.32 596.7 506.068C594.214 505.27 591.551 505.2 589.027 505.865C588.221 506.081 587.512 506.562 587.013 507.23C586.514 507.898 586.255 508.714 586.276 509.548C586.154 510.401 586.375 511.267 586.891 511.957C587.406 512.647 588.174 513.105 589.027 513.231L588.235 518.771ZM597.369 520.607C601.977 521.399 603.713 524.818 603.591 529.84C603.576 531.995 603.043 534.114 602.038 536.019C601.077 537.812 599.311 538.674 596.74 538.607L581.547 538.181L581.689 532.823L584.175 532.894C579.02 527.821 580.745 519.359 587.687 519.542C597.532 519.796 592.548 532.955 596.679 533.057C598.648 533.057 599.024 531.464 599.074 529.505C599.135 527.233 598.273 526.188 596.243 525.812L597.369 520.607ZM592.071 532.945C590.417 530.124 591.757 525.234 588.012 525.143C584.734 525.051 584.673 528.816 586.215 531.23C587.403 533.026 590.001 532.864 592.061 532.915L592.071 532.945ZM602.566 555.622L597.227 553.887C597.552 551.472 597.43 548.925 595.299 547.728C593.675 546.825 591.523 546.987 581.374 546.713L581.516 541.123L602.769 541.681L602.637 546.977L598.932 546.886C599.994 547.505 600.953 548.286 601.774 549.199C603.875 551.797 602.606 554.962 602.556 555.591L602.566 555.622ZM599.369 569.035L609.518 569.299L609.366 574.93L580.674 574.179L580.806 568.781L583.749 568.863C577.193 564.5 580.136 553.461 591.29 553.745C603.997 554.009 605.296 565.514 599.359 569.005L599.369 569.035ZM586.621 567.594C589.138 569.461 594.599 569.542 596.771 567.117C597.176 566.666 597.482 566.136 597.67 565.559C597.858 564.983 597.923 564.373 597.86 563.77C597.798 563.167 597.61 562.584 597.309 562.058C597.008 561.531 596.6 561.074 596.111 560.715C594.702 559.92 593.118 559.484 591.501 559.445C589.883 559.406 588.28 559.766 586.835 560.492C586.269 560.888 585.805 561.41 585.477 562.018C585.149 562.625 584.968 563.3 584.947 563.99C584.926 564.679 585.067 565.364 585.358 565.99C585.648 566.616 586.081 567.165 586.621 567.594Z" fill="white"/>
<path style="mix-blend-mode:multiply" opacity="0.2" d="M621.525 621.613L581.243 537.156L421.992 608.646L621.525 621.613Z" fill="url(#paint2_linear_285_4830)"/>
<path style="mix-blend-mode:multiply" opacity="0.4" d="M606.454 400.091C522.215 403.967 437.226 514.509 332.75 522.86L335.277 468.507C335.967 468.415 336.637 468.283 337.307 468.141C379.497 460.268 436.658 434.05 494.295 415.452C509.042 410.694 523.829 406.422 538.413 403.104C544.124 401.799 549.801 400.645 555.444 399.644L557.078 399.37C574.199 399.441 590.783 399.594 606.19 399.837L606.454 400.091Z" fill="url(#paint3_linear_285_4830)"/>
<path d="M240.139 218.626L236.719 215.958L226.823 217.825L224.611 221.548C224.611 221.548 222.013 221.325 221.059 222.715C221.059 222.715 224.306 221.802 225.788 223.435C225.788 223.435 228.955 223.435 229.361 223.364C230.07 223.097 230.751 222.757 231.39 222.35C231.802 222.11 232.247 221.933 232.71 221.822C233.181 221.755 233.659 221.755 234.131 221.822C234.873 221.971 235.627 222.046 236.384 222.045C236.79 221.964 239.743 220.807 239.743 220.807C240.525 218.778 243.874 218.423 243.874 218.423C242.484 217.48 240.139 218.626 240.139 218.626Z" fill="white"/>
<path d="M256.274 230.395L254.184 219.306L255.249 219.113C255.664 219.036 256.092 219.126 256.44 219.363C256.788 219.601 257.028 219.967 257.107 220.381L258.04 225.312C259.124 223.696 260.802 222.574 262.709 222.187C264.484 221.799 266.341 222.099 267.903 223.028C269.466 223.957 270.616 225.444 271.123 227.189C271.42 228.149 271.509 229.16 271.383 230.157C271.257 231.153 270.92 232.112 270.393 232.967C269.866 233.822 269.162 234.555 268.329 235.116C267.496 235.677 266.552 236.053 265.561 236.219C260.973 237.082 257.117 234.87 256.274 230.395ZM259.025 230.781C259.418 231.895 260.187 232.837 261.201 233.445C262.214 234.052 263.408 234.287 264.576 234.109C265.556 233.93 266.459 233.456 267.163 232.751C267.867 232.046 268.339 231.144 268.517 230.164C268.695 229.184 268.57 228.173 268.159 227.265C267.747 226.358 267.069 225.598 266.215 225.085C265.36 224.573 264.37 224.333 263.376 224.398C262.381 224.463 261.43 224.829 260.65 225.447C259.869 226.066 259.295 226.908 259.004 227.861C258.714 228.813 258.721 229.832 259.025 230.781Z" fill="white"/>
<path d="M274.361 220.29L274.736 222.258C276.035 220.117 276.928 219.437 278.867 219.072C279.43 218.97 280 218.909 280.572 218.89L281.059 221.517C280.435 221.465 279.806 221.499 279.192 221.619C278.555 221.716 277.945 221.941 277.398 222.279C276.85 222.617 276.376 223.062 276.005 223.587C275.715 223.972 275.518 224.419 275.43 224.892C275.342 225.366 275.365 225.853 275.497 226.317L276.878 233.622L274.147 234.129L271.641 220.797L274.361 220.29Z" fill="white"/>
<path d="M282.083 223.394C281.926 222.421 282.082 221.422 282.53 220.543C283.403 218.961 285.28 217.865 288.142 217.327C289.88 216.878 291.71 216.93 293.42 217.479C294.496 217.926 295.054 218.768 295.358 220.391L296.475 226.317C296.779 227.92 297.337 228.092 298.677 227.636L299.012 229.421C298.58 229.663 298.11 229.828 297.622 229.908C295.906 230.203 295.033 229.908 294.222 228.478C293.577 229.372 292.756 230.126 291.811 230.693C290.865 231.259 289.814 231.628 288.721 231.775C285.382 232.404 283.068 231.268 282.631 228.813C282.496 228.126 282.565 227.415 282.83 226.767C283.095 226.12 283.545 225.564 284.123 225.17C285.047 224.551 285.635 224.298 288.467 223.455C289.67 223.186 290.84 222.788 291.958 222.268C292.262 222.16 292.515 221.944 292.67 221.662C292.825 221.38 292.872 221.05 292.801 220.736C292.537 219.306 291.207 218.879 288.68 219.356C286.153 219.833 285.148 220.513 284.894 221.812C284.829 222.134 284.67 222.431 284.437 222.663C284.204 222.896 283.908 223.055 283.585 223.121L282.083 223.394ZM293.298 223.638C291.674 224.473 289.975 225.152 288.223 225.667C285.818 226.337 285.179 226.966 285.382 228.183C285.585 229.401 286.894 230.03 289.106 229.614C290.64 229.433 292.046 228.67 293.034 227.483C293.887 226.225 293.663 225.627 293.308 223.638H293.298Z" fill="white"/>
<path d="M305.59 228.214L304.89 228.346C304.587 228.406 304.274 228.379 303.986 228.267C303.699 228.156 303.449 227.965 303.266 227.717L295.045 216.394L296.679 216.089C297.146 215.997 297.629 216.044 298.07 216.224C298.51 216.405 298.888 216.711 299.155 217.104L304.758 225.302L307.122 215.572C307.238 215.116 307.482 214.704 307.826 214.384C308.17 214.063 308.598 213.849 309.061 213.766L310.543 213.492L306.869 227.067C306.784 227.359 306.619 227.621 306.393 227.824C306.167 228.026 305.889 228.161 305.59 228.214Z" fill="white"/>
<path d="M313.792 220.564C314.553 223.09 316.837 224.298 319.882 223.74C320.596 223.664 321.282 223.423 321.887 223.036C322.491 222.648 322.997 222.125 323.363 221.507C323.537 221.178 323.784 220.893 324.084 220.673C324.385 220.454 324.732 220.305 325.098 220.239L326.682 219.935C325.87 223.222 323.688 225.18 320.014 225.87C315.426 226.733 311.813 224.531 311.032 220.361C310.25 216.191 312.869 212.68 317.436 211.818C320.734 211.199 323.688 212.183 325.22 214.476C325.942 215.589 326.413 216.846 326.6 218.159L313.792 220.564ZM323.434 216.617C322.905 215.617 322.069 214.813 321.05 214.322C320.03 213.832 318.88 213.68 317.769 213.89C316.657 214.1 315.641 214.66 314.871 215.488C314.101 216.317 313.616 217.37 313.488 218.494L323.434 216.617Z" fill="white"/>
<path fill-rule="evenodd" clip-rule="evenodd" d="M246.409 220.199L246.003 222.228L247.485 224.795C247.485 224.795 246.673 236.047 246.592 237.417C246.419 240.126 246.166 241.201 244.562 242.855C241.903 245.595 239.437 247.928 239.203 248.182C238.046 249.339 237.742 249.399 236.24 248.74L235.824 248.567C235.205 248.324 231.419 246.69 229.318 245.727C227.217 244.763 226.578 243.86 225.441 241.404C224.863 240.156 220.011 229.959 220.011 229.959L220.458 227.037L219.352 225.323C219.352 225.323 220.123 224.105 221.067 222.715C222.011 221.325 224.619 221.548 224.619 221.548L226.832 217.825L236.727 215.958L240.147 218.626C240.147 218.626 242.492 217.48 243.872 218.423C245.252 219.367 246.409 220.199 246.409 220.199ZM244.379 225.414C244.207 224.48 239.762 220.777 239.762 220.777C239.762 220.777 236.808 221.934 236.402 222.015C235.645 222.022 234.89 221.948 234.149 221.792C233.678 221.725 233.199 221.725 232.728 221.792C232.265 221.902 231.821 222.08 231.409 222.319C230.769 222.726 230.089 223.066 229.379 223.334C228.973 223.405 225.806 223.405 225.806 223.405C225.806 223.405 223.005 228.478 223.178 229.401C223.35 230.325 223.838 230.477 224.406 230.903L227.775 233.348C228.01 233.456 228.201 233.64 228.318 233.87C228.434 234.101 228.468 234.364 228.415 234.616V234.769C228.255 235.186 228.197 235.636 228.245 236.08C228.292 236.524 228.444 236.951 228.689 237.326C229.379 238.188 230.384 238.665 230.932 238.452C231.721 238.023 232.454 237.498 233.114 236.889C233.54 236.473 234.849 234.86 234.758 234.414C234.667 233.967 233.439 233.531 232.83 233.308L232.271 233.084C231.713 232.871 230.719 232.476 230.648 232.242C230.577 232.009 230.556 231.847 230.81 231.025C231.064 230.203 231.602 229.066 231.358 228.417C231.114 227.768 230.15 227.676 229.328 227.545C229.227 227.545 226.375 227.027 226.223 226.987C225.806 226.885 226.517 226.702 226.913 226.581C227.808 226.259 228.744 226.067 229.694 226.012C230.48 226.033 231.262 226.135 232.028 226.317V226.378C232.241 226.581 232.211 226.713 232.211 227.93C232.211 229.148 232.211 230.629 232.211 231.349C232.211 231.786 232.261 232.07 232.769 232.09C233.386 232.152 234.009 232.152 234.626 232.09C235.216 231.895 235.796 231.668 236.362 231.41C236.828 231.207 236.737 230.933 236.605 230.517C236.392 229.827 235.905 228.6 235.397 227.311C234.961 226.215 234.88 226.063 234.991 225.799C234.997 225.776 234.997 225.752 234.991 225.728C235.625 225.28 236.306 224.903 237.021 224.602C237.923 224.306 238.863 224.142 239.812 224.115C240.228 224.115 240.949 223.993 240.614 224.237C240.431 224.369 238.036 225.82 237.914 225.881C237.184 226.317 236.321 226.834 236.321 227.443C236.321 228.052 237.245 229.006 237.782 229.675C238.32 230.345 238.351 230.436 238.371 230.751C238.391 231.065 237.204 232.09 236.94 232.344C236.676 232.597 235.245 233.784 235.337 234.271C235.428 234.759 237.224 235.743 237.772 235.976C238.607 236.308 239.48 236.533 240.371 236.646C240.959 236.646 241.72 235.834 242.055 234.779C242.145 234.34 242.13 233.887 242.012 233.455C241.894 233.023 241.676 232.625 241.375 232.293C241.345 232.255 241.318 232.214 241.294 232.171C241.152 231.954 241.088 231.696 241.112 231.438C241.136 231.18 241.247 230.938 241.426 230.751C241.497 230.659 243.801 227.058 243.862 226.966C244.06 226.771 244.208 226.53 244.292 226.265C244.377 226 244.397 225.718 244.349 225.444L244.379 225.414ZM240.188 238.604C240.36 238.421 240.452 238.137 240.188 238.036C239.924 237.934 237.996 237.356 238.158 237.397C237.334 237.137 236.482 236.974 235.621 236.91C234.841 237.282 234.105 237.741 233.428 238.279C232.606 238.939 231.926 239.446 231.723 239.639C231.52 239.832 231.723 240.055 231.947 240.166C232.17 240.278 235.306 241.861 235.763 242.196C236.026 242.404 236.343 242.534 236.676 242.571C236.91 242.52 237.184 242.165 237.397 241.891C237.651 241.506 240.005 238.807 240.157 238.655L240.188 238.604Z" fill="white"/>
<path d="M240.139 218.626L236.719 215.958L226.823 217.825L224.611 221.548C224.611 221.548 222.013 221.325 221.059 222.715C221.059 222.715 224.306 221.802 225.788 223.435C225.788 223.435 228.955 223.435 229.361 223.364C230.07 223.097 230.751 222.757 231.39 222.35C231.802 222.11 232.247 221.933 232.71 221.822C233.181 221.755 233.659 221.755 234.131 221.822C234.873 221.971 235.627 222.046 236.384 222.045C236.79 221.964 239.743 220.807 239.743 220.807C240.525 218.778 243.874 218.423 243.874 218.423C242.484 217.48 240.139 218.626 240.139 218.626Z" fill="white"/>
<path d="M737.417 733.251C719.808 741.064 651.443 718.803 614.52 698.45C602.443 691.784 593.725 685.331 591.258 680.187C586.427 670.162 592.527 637.897 602.423 606.119C613.11 571.825 628.212 538.059 638.828 533.199C653.635 526.411 673.508 542.33 687.544 531.758C695.166 526.005 706.736 527.283 713.597 534.315C715.582 536.41 718.018 538.026 720.721 539.04C723.424 540.055 726.322 540.441 729.196 540.169C733.972 539.601 738.792 540.782 742.763 543.495C746.735 546.207 749.588 550.267 750.794 554.922C755.097 571.896 779.212 572.485 786.316 587.207C796.851 608.707 760.76 722.872 737.417 733.251Z" fill="#C4F8FF"/>
<path d="M679.994 565.849C683.445 555.338 678.441 561.446 700.841 548.296C705.357 545.648 699.704 540.697 695.38 546.034L688.114 538.373C700.293 524.361 722.54 542.523 709.315 554.211C698.831 563.475 691.838 559.061 708.3 564.469L705.124 574.128L679.994 565.849Z" fill="#5EE1FB"/>
<path d="M735.074 581.505C727.381 585.918 716.298 581.363 713.954 572.789C711.609 564.216 716.917 551.391 724.611 546.977C732.304 542.564 743.387 547.119 745.731 555.693C748.075 564.266 742.767 577.091 735.074 581.505ZM726.407 572.566C732.73 575.184 739.601 558.513 733.278 555.906C726.955 553.298 720.084 569.958 726.407 572.566Z" fill="#5EE1FB"/>
<path d="M718.022 693.468C703.813 699.718 635.966 674.018 629.876 661.477C623.787 649.089 646.196 578.491 658.589 572.81C670.981 567.128 741.264 592.361 747.587 605.379C753.737 618.285 732.272 687.198 718.022 693.468Z" fill="url(#paint4_linear_285_4830)"/>
<path d="M661.725 614.551C661.055 609.701 690.325 593.416 691.756 600.59C692.213 602.893 692.68 610.584 690.518 609.65C678.532 604.486 679.08 604.577 678.339 604.8C676.147 605.48 672.432 607.946 674.482 608.859C676.928 609.873 683.617 612.735 690.082 615.677C689.5 617.504 688.823 619.299 688.052 621.055C687.952 621.291 687.946 621.557 688.035 621.798C688.123 622.039 688.3 622.237 688.529 622.353C690.097 623.192 691.714 623.937 693.37 624.585C693.5 624.642 693.64 624.67 693.782 624.669C693.923 624.668 694.063 624.638 694.192 624.579C694.321 624.521 694.437 624.436 694.531 624.331C694.625 624.225 694.697 624.101 694.74 623.967C698.374 613.952 701.327 589.632 697.988 587.156C693.776 584.021 645.679 606.627 647.699 612.796C651.576 624.271 714.998 642.646 716.327 650.397C717.16 655.247 689.402 667.22 687.199 665.18C685.291 663.415 688.783 647.587 689.737 643.427C690.102 641.814 686.123 640.556 684.52 640.089C679.628 638.668 676.157 672.364 680.186 677.407C684.215 682.449 731.703 659.022 730.151 652.142C728.709 645.649 662.435 619.604 661.725 614.551Z" fill="white"/>
<path d="M679.994 565.849C683.435 555.378 678.431 561.415 700.841 548.296C705.357 545.658 699.704 540.697 695.38 546.034L688.114 538.373C700.343 524.351 722.519 542.543 709.315 554.211C698.821 563.475 691.838 559.071 708.3 564.469L705.124 574.128L679.994 565.849ZM735.125 581.505C727.432 585.918 716.349 581.363 714.004 572.789C711.66 564.216 716.968 551.391 724.661 546.977C732.354 542.564 743.437 547.119 745.781 555.693C748.126 564.266 742.767 577.091 735.074 581.505H735.125ZM726.457 572.566C732.79 575.184 739.651 558.513 733.328 555.906C727.005 553.298 720.083 569.958 726.406 572.566H726.457Z" fill="url(#paint5_linear_285_4830)"/>
<path d="M786.437 587.187C787.161 588.686 787.664 590.282 787.929 591.925C788.22 593.566 788.41 595.223 788.497 596.887C788.636 600.209 788.572 603.536 788.304 606.85C787.761 613.479 786.86 620.073 785.605 626.605C783.022 639.634 779.701 652.507 775.659 665.16C771.706 677.871 766.96 690.321 761.45 702.438C758.667 708.526 755.497 714.429 751.96 720.112C750.166 722.998 748.158 725.746 745.952 728.331C744.822 729.656 743.59 730.891 742.268 732.024C740.887 733.228 739.325 734.207 737.64 734.926C734.297 736.063 730.775 736.579 727.247 736.448C723.852 736.418 720.461 736.171 717.098 735.707C710.468 734.8 703.894 733.519 697.408 731.872C684.51 728.577 671.816 724.532 659.389 719.757C646.953 715.061 634.777 709.703 622.913 703.706C616.993 700.663 611.234 697.317 605.66 693.681C602.879 691.858 600.209 689.873 597.662 687.736C595.196 685.534 592.699 683.18 591.258 680.167C592.851 683.099 595.429 685.24 597.977 687.35C600.574 689.37 603.285 691.24 606.096 692.951C611.76 696.353 617.597 699.458 623.583 702.255C635.519 707.94 647.749 712.987 660.222 717.373C672.646 721.841 685.291 725.668 698.109 728.838C704.515 730.435 711.003 731.685 717.544 732.582C720.761 733.006 724.002 733.23 727.247 733.252C730.346 733.358 733.439 732.911 736.381 731.933C739.02 730.857 741.385 728.635 743.486 726.251C745.59 723.798 747.51 721.194 749.23 718.458C752.7 712.901 755.835 707.141 758.618 701.21C764.194 689.251 769.094 676.989 773.294 664.481C777.589 651.98 781.187 639.25 784.072 626.351C785.543 619.889 786.665 613.352 787.432 606.769C787.824 603.49 788.013 600.189 788 596.887C787.997 595.238 787.892 593.591 787.685 591.956C787.5 590.315 787.079 588.709 786.437 587.187Z" fill="#2789E9"/>
<path opacity="0.2" d="M617.657 635.503L614.52 698.409C602.443 691.743 593.725 685.29 591.258 680.146C586.427 670.122 592.527 637.857 602.423 606.079L617.657 635.503Z" fill="#2789E9"/>
<path d="M563.665 670.233L418.176 649.149L465.735 615.87L579.091 624.23L563.665 670.233Z" fill="#004FBC"/>
<path d="M494.487 581.19L310.604 706.831L323.189 733.931L503.56 605.227L494.487 581.19Z" fill="#E5AE5A"/>
<path d="M494.488 581.19L421.961 578.248L254.977 685.057L310.604 706.831L494.488 581.19Z" fill="#FEC26D"/>
<path d="M420.391 631.899L444.703 647.279L479.843 622.052L470.628 599.053L420.391 631.899Z" fill="#D39432"/>
<path d="M389.68 615.26C374.279 628.85 403.729 632.071 420.379 631.982L470.588 599.069C450.036 598.803 405.082 601.67 389.68 615.26Z" fill="#E5AE5A"/>
<path d="M310.604 706.831L323.189 733.931L266.841 707.226L254.977 685.057L310.604 706.831Z" fill="#D39432"/>
<path d="M381.193 638.75L359.697 634.661L291.24 679.01L310.229 686.153L381.193 638.75Z" fill="#E5AE5A"/>
<path d="M569.702 673.663L433.946 654.902L438.706 651.767L557.351 667.514L544.674 636.578L407.995 624.393C395.603 623.195 390.285 620.74 388.711 616.956C388.366 616.124 387.605 614.541 387.108 613.465C385.362 609.711 391.736 605.034 396.181 601.604C412.42 589.104 433.652 584.934 454.154 585.705L585.078 587.887L599.612 623.946L569.702 673.663Z" fill="#1C73DE"/>
<path d="M394.803 598.652C411.042 586.142 432.274 581.982 452.776 582.743L585.081 587.948L550.401 632.114L406.617 621.38C378.697 618.701 385.111 606.038 394.803 598.652Z" fill="url(#paint6_linear_285_4830)"/>
<path d="M585.059 587.897L599.806 624.088L569.703 673.663L550.379 632.063L585.059 587.897Z" fill="url(#paint7_linear_285_4830)"/>
<path d="M459.592 592.037L448.337 591.479L439.264 602.345L454.437 603.106L461.176 595.04C462.627 593.295 461.49 592.128 459.592 592.037ZM444.836 591.306L442.928 591.205C441.759 591.194 440.601 591.421 439.523 591.871C438.445 592.321 437.469 592.985 436.655 593.822L435.508 595.192L441.344 595.486L444.836 591.306ZM439.253 597.992L433.418 597.708L429.926 601.889L435.762 602.173L439.253 597.992ZM443.049 609.508L444.957 609.61C446.125 609.619 447.283 609.392 448.361 608.942C449.439 608.492 450.415 607.829 451.23 606.992L452.356 605.643L446.561 605.348L443.049 609.508ZM442.999 605.156L437.163 604.861L433.671 609.042L439.507 609.336L442.999 605.156ZM427.775 604.425L426.658 605.754C425.542 607.094 425.796 608.636 428.242 608.798L430.15 608.9L433.641 604.709L427.775 604.425ZM465.946 607.956L475.78 608.443L474.542 609.935L462.363 609.336L475.182 593.985L477.475 594.096L465.946 607.956ZM492.709 605.247L481.109 604.679C477.79 608.93 483.139 610.34 489.177 608.007C489.177 609.468 489.177 609.265 489.066 609.316C480.946 612.359 474.42 609.59 478.866 604.415C485.229 597.039 500.666 596.988 492.74 605.247H492.709ZM491.623 603.776C495.003 599.322 486.731 599.291 482.317 603.319L491.623 603.776ZM514.398 595.923L516.661 596.034L503.843 611.385C501.316 611.264 501.62 611.304 501.701 611.203C503.731 608.768 503.549 609.529 501.427 610.381C496.079 612.532 489.462 611.071 494.394 605.166C499.57 598.956 509.466 598.348 509.466 601.889C510.501 600.681 514.307 596.075 514.429 595.923H514.398ZM505.112 601.229C498.768 600.915 491.481 609.519 497.835 609.833C504.411 610.158 511.353 601.533 505.142 601.229H505.112ZM526.303 601.016L528.506 601.117L519.635 611.842C515.707 616.54 507.669 617.473 503.853 615.19C506.147 613.699 505.832 613.871 505.883 613.922C508.644 615.637 514.398 615.251 517.281 611.791C517.412 611.629 518.235 610.665 518.61 610.249C513.393 613.222 505.03 612.004 510.237 605.764C515.261 599.748 523.431 599.677 524.903 601.706C525.471 602.386 524.608 603.076 526.334 601.016H526.303ZM512.592 605.846C510.46 608.392 510.988 610.137 513.952 610.29C517.778 610.482 520.538 607.885 521.838 606.322C524.131 603.573 523.705 602.173 520.549 602.01C519.021 601.993 517.509 602.33 516.134 602.996C514.759 603.661 513.556 604.637 512.622 605.846H512.592ZM539.304 607.56L527.755 606.982C524.436 611.233 529.784 612.644 535.823 610.31C535.823 611.771 535.894 611.568 535.742 611.619C527.552 614.663 521.127 611.862 525.593 606.708C531.926 599.24 547.139 599.423 539.335 607.56H539.304ZM538.188 606.079C541.568 601.625 533.296 601.594 528.881 605.622L538.188 606.079ZM553.503 602.315C551.717 601.899 548.713 602.548 545.871 604.547C546.175 604.212 546.196 604.172 547.901 602.081L545.668 601.97L536.473 612.989L538.736 613.1L542.623 608.443C544.785 605.815 548.794 603.37 552.214 603.918C553.797 602.112 553.635 602.335 553.534 602.315H553.503Z" fill="white"/>
<path d="M571.266 617.067C567.643 621.572 568.14 630.795 571.885 633.392C575.63 635.99 579.051 629.334 580.664 630.937C582.126 632.337 579.02 638.039 576.128 635.056L574.311 642.575C580.086 649.261 590.266 634.397 584.897 627.071C581.081 621.866 575.671 628.34 573.966 626.26C572.829 624.87 574.616 620.669 577.234 623.439L578.959 616.245C576.473 613.668 573.296 614.531 571.266 617.067Z" fill="#0F50BC"/>
<path d="M599.806 624.088L571.449 665.667L555.677 630.186L585.059 587.897L550.968 631.312L485.049 627.305L551.12 633.666L569.703 673.663L599.806 624.088Z" fill="#0F50BC"/>
<path d="M62.3357 392.522C64.5424 390.974 66.9677 389.763 69.5315 388.93C94.2144 382.193 106.069 387.134 112.848 405.631C117.923 419.582 107.215 429.708 94.4173 434.385C86.7851 437.185 56.2563 441.487 50.2379 425.061C46.168 413.92 53.4755 398.396 62.3357 392.522Z" fill="#CB3626"/>
<path d="M255.757 378.845C268.301 413.118 349.13 640.332 299.926 676.849C273.386 696.553 159.604 729.69 119.189 717.017C111.161 714.511 105.437 710.23 103.032 703.655C85.5245 655.815 60.6184 558.28 45.1814 491.031C39.2137 464.945 34.6466 443.415 32.4746 431.097C31.9315 427.955 32.3138 424.723 33.5752 421.793C34.8366 418.864 36.9225 416.365 39.5791 414.6C86.9454 383.147 177.07 345.92 193.167 341.547C222.823 333.653 241.832 340.806 255.757 378.845Z" fill="#C4F8FF"/>
<g style="mix-blend-mode:multiply">
<path d="M255.757 378.845C268.302 413.119 349.13 640.333 299.926 676.849C273.386 696.553 159.604 729.69 119.189 717.018C119.189 717.018 181.1 719.219 249.099 693.093C298.617 674.048 326.233 680.917 301.875 555.592C286.692 477.425 255.757 378.845 255.757 378.845Z" fill="#9F8FAC"/>
</g>
<path d="M110.554 482.306L109.529 482.884L111.599 491.407L104.82 495.232L97.7661 493.629L89.4844 458.959L95.8784 455.236L103.074 456.311H103.084L106.2 469.176L108.007 468.243L103.805 450.974L109.549 447.555L116.897 448.6L125.605 483.888L118.714 487.815L111.427 485.908L110.554 482.306Z" fill="url(#paint8_linear_285_4830)"/>
<path d="M159.714 466.092L152.711 438.88L148.652 438.129L148.175 436.313L140.847 435.196L126.709 443.222L127.785 447.544L124.223 449.574L130.921 476.532L135.295 477.638L135.63 478.947L143.049 480.337L146.622 478.308L157.309 471.56L156.416 468.06L159.714 466.092ZM142.593 464.722L139.243 451.441L141.74 449.756L145.089 463.017L142.593 464.722Z" fill="url(#paint9_linear_285_4830)"/>
<path d="M205.152 453.145L174.522 469.957L166.717 468.435L157.299 432L164.434 428.267L172.32 429.088L173.466 433.482L177.952 430.945L182.946 431.554L179.627 419.064L186.995 415.198L195.115 415.959L205.152 453.145Z" fill="url(#paint10_linear_285_4830)"/>
<path d="M194.223 504.637L187.971 480.875L183.77 480.489L183.262 478.551L175.579 477.171L160.629 485.014L161.786 489.499L158.031 491.528L165.136 519.583L169.754 520.861L170.099 522.221L177.934 523.895L193.026 515.301L192.062 511.658L195.522 509.731L194.223 504.637ZM173.925 494.105L176.107 492.776L179.679 506.565L177.508 507.925L173.925 494.105Z" fill="url(#paint11_linear_285_4830)"/>
<path d="M149.983 489.824L142.259 488.505L121.027 499.848L123.209 508.757L130.497 510.289L131.633 509.7L137.225 532.357L144.736 534.213L151.922 530.459L144.99 502.821L152.317 499.036L149.983 489.824Z" fill="url(#paint12_linear_285_4830)"/>
<path d="M137.723 584.772L130.811 556.363L126.924 555.764L126.457 553.857L119.292 552.111L101.602 560.746L110.208 597.272L117.465 599.474L135.388 590.007L134.515 586.416L137.723 584.772ZM120.378 582.306L117.11 568.66L119.911 567.148L123.169 580.724L120.378 582.306Z" fill="url(#paint13_linear_285_4830)"/>
<path d="M164.271 567.229L169.985 564.216L167.682 555.135L159.735 553.43L151.514 557.905L151.311 556.677L166.159 548.662L164.008 540.595L156.802 539.124L134.453 549.899L143.587 587.217L151.189 589.409L173.446 577.903L171.132 568.771L164.271 567.229Z" fill="url(#paint14_linear_285_4830)"/>
<path opacity="0.8" d="M146.17 637.633C147.325 637.08 147.848 636.089 147.924 635.103C147.759 636.09 147.236 637.081 146.17 637.633ZM143.666 631.405C144.914 631.03 145.902 631.285 146.717 631.989C145.902 631.285 144.823 630.942 143.666 631.405ZM142.491 636.968C141.855 636.262 141.482 635.193 141.469 634.299C141.394 635.284 141.765 636.263 142.491 636.968ZM156.582 633.462C156.939 633.368 157.21 633.543 157.392 633.809C157.21 633.543 156.939 633.368 156.582 633.462ZM157.403 634.614C157.315 634.704 157.228 634.884 157.049 634.887C157.227 634.795 157.405 634.703 157.403 634.614ZM165.515 632.264C161.867 620.953 149.712 615.664 139.938 620.721C132.029 624.768 128.319 634.661 131.219 643.656C134.491 653.721 144.772 659.393 154.216 656.309C163.305 653.498 168.971 642.683 165.515 632.264ZM146.17 637.633C146.08 637.634 145.992 637.725 145.992 637.725C145.902 637.726 145.814 637.817 145.814 637.817C144.835 638.188 144.027 638.021 143.305 637.583C143.125 637.496 142.943 637.32 142.762 637.144C142.671 637.055 142.581 636.967 142.49 636.879C141.854 636.172 141.481 635.104 141.468 634.209C141.467 634.12 141.466 634.03 141.464 633.941C141.463 633.851 141.461 633.673 141.549 633.582C141.715 632.685 142.241 631.872 143.219 631.411C143.307 631.321 143.397 631.32 143.486 631.318C143.576 631.317 143.574 631.228 143.664 631.226C144.912 630.851 145.9 631.106 146.715 631.81C146.806 631.898 146.896 631.986 146.897 632.076C146.988 632.164 147.079 632.252 147.171 632.43C147.354 632.696 147.536 632.962 147.63 633.229C147.631 633.318 147.723 633.496 147.724 633.585C147.816 633.763 147.82 634.031 147.822 634.21C147.823 634.3 147.825 634.389 147.827 634.568C147.828 634.657 147.831 634.836 147.832 634.926C147.759 636.09 147.236 637.081 146.17 637.633ZM151.877 655.447C150.716 655.642 149.554 655.747 148.391 655.764C149.554 655.747 150.716 655.642 151.877 655.447C152.502 655.348 153.126 655.161 153.751 655.063C153.127 655.25 152.502 655.348 151.877 655.447ZM156.597 653.771C154.309 650.134 155.828 643.582 158.105 639.972C159.243 638.167 160.026 636.545 160.364 635.109C160.014 635.74 159.311 636.645 158.428 637.462C157.634 638.278 156.659 639.008 155.684 639.648C155.328 639.832 155.062 640.014 154.707 640.198C154.619 640.289 154.529 640.29 154.352 640.382C153.729 640.659 153.016 640.848 152.391 640.946C152.033 640.951 151.764 640.955 151.406 640.96C150.779 640.879 150.24 640.708 149.696 640.268C151.674 640.867 153.28 640.576 154.79 639.75L154.879 639.659C155.056 639.567 155.234 639.475 155.322 639.384C155.5 639.292 155.678 639.2 155.766 639.11C157.36 637.924 158.769 636.294 160.356 634.572C160.93 630.807 158.126 628.699 149.808 628.994C148.538 627.759 146.932 628.139 145.421 628.876C144.177 629.519 143.91 629.613 144.624 629.513C143.553 629.707 142.485 630.08 141.596 630.539C137.509 632.654 135.691 637.063 136.716 640.001C138.025 644.009 139.152 647.84 138.404 651.966C128.537 643.873 129.565 627.755 140.582 621.965C149.734 617.275 160.901 622.308 164.267 632.639C166.98 641.101 163.523 649.916 156.597 653.771ZM157.392 633.809C157.392 633.809 157.483 633.897 157.484 633.986C157.485 634.076 157.576 634.164 157.577 634.253C157.579 634.343 157.58 634.432 157.58 634.432C157.581 634.522 157.581 634.522 157.493 634.612C157.405 634.703 157.316 634.794 157.139 634.886L157.049 634.887C156.782 634.98 156.602 634.893 156.422 634.806C156.331 634.718 156.24 634.63 156.239 634.54C156.238 634.451 156.148 634.452 156.147 634.363C156.146 634.273 156.055 634.185 156.054 634.096C156.053 634.006 156.05 633.827 156.138 633.737C156.137 633.647 156.227 633.646 156.225 633.556C156.314 633.466 156.314 633.466 156.403 633.464L156.493 633.463C156.939 633.368 157.21 633.543 157.392 633.809ZM143.681 632.479C146.525 631.008 148.472 635.901 145.442 636.838C142.771 637.77 141.192 633.676 143.681 632.479ZM143.803 621.92C144.514 621.552 146.211 621.35 146.926 621.25C150.768 620.839 154.197 622.849 157.535 624.771C162.406 627.566 163.482 634.082 163.216 634.264C163.038 634.356 162.296 632.488 162.204 632.31C160.724 628.842 155.103 623.641 152.047 622.7C148.9 621.67 143.906 622.903 143.539 622.281C143.447 622.104 143.714 622.011 143.803 621.92ZM152.391 640.946C152.033 640.951 151.764 640.955 151.406 640.96C151.766 641.044 152.123 641.039 152.391 640.946ZM149.696 640.268C151.674 640.867 153.28 640.576 154.79 639.75C153.37 640.575 151.674 640.867 149.696 640.268ZM152.391 640.946C153.016 640.848 153.729 640.659 154.352 640.382C153.729 640.659 153.106 640.936 152.391 640.946ZM173.587 620.7C176.785 619.045 179.937 620.433 180.957 623.013L178.553 623.851C178.186 623.23 177.642 622.701 177.012 622.442C176.113 622.186 174.954 622.47 174.335 623.016C171.857 625.018 174.202 632.769 178.21 631.371C179.189 631 179.717 630.366 179.884 629.469C180.218 627.765 178.975 628.498 182.271 627.378C182.668 630.146 181.539 632.667 178.778 633.6C171.56 635.848 167.811 623.643 173.587 620.7ZM189.347 627.817C186.681 629.196 185.102 625.013 185.704 623.305C186.218 621.598 189.07 620.753 190.281 624.225C190.658 625.562 190.679 627.082 189.347 627.817ZM185.574 620.354C180.954 622.744 183.765 631.831 189.644 629.87C195.968 627.724 192.149 616.952 185.574 620.354ZM192.703 618.197L195.785 627.459L198.012 626.712L195.02 617.449L192.703 618.197ZM191.672 614.812L192.328 616.95L194.555 616.203L193.898 614.065L191.672 614.812ZM197.246 616.702L199.384 615.957C200.505 619.341 199.117 616.05 201.786 614.939C203.031 614.385 204.643 614.452 205.554 615.602C206.102 616.4 206.196 616.757 208.347 623.347L206.03 624.095C204.346 618.84 204.148 617.501 203.247 617.066C202.616 616.717 201.725 616.998 201.195 617.452C199.78 618.725 201.249 621.388 202.467 625.308L200.241 626.054L197.246 616.702ZM210.82 608.193C214.197 606.446 217.346 607.655 218.545 610.232L216.14 611.071C213.852 607.435 207.107 611.465 211.58 617.755C213.498 620.502 218.404 619.36 217.807 615.074L214.956 616.008L214.3 613.87L219.288 612.19L221.53 618.959L219.927 619.518C218.087 615.875 220.377 619.69 215.834 621.185C208.619 623.612 204.332 611.415 210.82 608.193ZM228.037 610.637L223.761 612.039C223.441 608.375 227.378 608.32 228.037 610.637ZM223.788 607.565C218.989 609.958 221.802 619.223 227.949 617.169C230.443 616.329 231.487 614.168 231.288 612.739C228.17 613.766 229.148 613.306 228.712 614.117C228.103 615.378 225.697 616.127 224.506 614.175C224.322 613.82 224.229 613.553 224.139 613.465C231.889 610.941 230.912 611.492 230.633 610.69C229.419 607.039 226.632 606.183 223.788 607.565ZM233.676 604.296C236.253 603.007 238.408 603.514 239.698 606.18L237.292 606.929C236.647 605.596 235.214 605.527 234.331 606.344C232.917 607.617 234.423 612.964 237.094 611.942C237.806 611.664 238.069 611.302 238.151 610.765C238.4 609.33 237.157 610.063 240.453 608.943C241.595 613.848 233.855 617.176 231.705 610.586C230.953 608.002 231.276 605.492 233.676 604.296ZM239.239 598.94L241.466 598.193L243.803 605.318L245.793 600.459L248.644 599.525L246.56 604.116L251.907 608.873L249.056 609.807L245.43 606.458C244.561 608.349 244.547 607.365 245.671 610.928L243.444 611.675L239.239 598.94ZM256.692 605.496C253.848 606.878 252.268 602.695 252.869 600.897C253.384 599.28 256.411 598.164 257.625 601.815C258.093 603.24 258.115 604.85 256.692 605.496ZM252.738 597.857C247.85 600.341 250.755 609.694 256.991 607.639C263.671 605.399 259.759 594.36 252.738 597.857Z" fill="#0099F3"/>
<path d="M199.996 529.09L191.674 527.507L168.879 538.678L178.541 576.625L186.549 578.816L194.191 575.164L191.694 565.535L199.814 561.537L197.266 551.797L188.964 550.082L187.848 550.66L186.711 546.257L202.544 538.769L199.996 529.09Z" fill="url(#paint15_linear_285_4830)"/>
<path d="M245.78 546.044L236.91 544.309L235.712 544.857L231.835 530.561L240.432 526.522L237.722 516.63L228.963 515.088L205.031 526.725L207.558 536.273L215.81 538.069L216.774 537.622L220.57 551.837L220.661 551.857L212.674 555.581L215.231 565.271L223.594 567.249L248.531 556.088L245.78 546.044Z" fill="url(#paint16_linear_285_4830)"/>
<path d="M29.9574 500.508C34.8594 494.227 42.8976 484.812 48.2868 477.811C55.2086 481.595 63.267 485.501 73.6598 489.915C73.1219 486.942 49.0277 398.041 69.6001 388.91C60.6079 391.294 53.7877 394.531 46.4498 397.23C22.589 406.026 21.432 439.762 29.9574 500.508Z" fill="#E15748"/>
<path d="M763.43 102.776L738.328 91.4136L726.963 116.508L752.064 127.87L763.43 102.776Z" fill="#FEC26D"/>
<path d="M775.48 416.952L761.113 402.789L746.946 417.151L761.312 431.314L775.48 416.952Z" fill="#F22A45"/>
<path d="M448.017 734.202L436.664 723.01L425.469 734.359L436.822 745.552L448.017 734.202Z" fill="#F22A45"/>
<path d="M40.4641 362.083C46.0469 362.083 50.5727 357.559 50.5727 351.977C50.5727 346.396 46.0469 341.872 40.4641 341.872C34.8812 341.872 30.3555 346.396 30.3555 351.977C30.3555 357.559 34.8812 362.083 40.4641 362.083Z" fill="#FEC26D"/>
<path d="M695.605 445.992C701.188 445.992 705.713 441.468 705.713 435.886C705.713 430.305 701.188 425.781 695.605 425.781C690.022 425.781 685.496 430.305 685.496 435.886C685.496 441.468 690.022 445.992 695.605 445.992Z" fill="#99DBF8"/>
<path d="M271.61 30.4342L275.071 45.3998H258.487L261.055 63.8761L241.802 64.3124L241.01 45.1868H221.098L222.214 28.9732L240.361 29.5109L239.772 15.2555L254.428 16.0063L256.356 29.9776L271.61 30.4342Z" fill="#99DBF8"/>
<path d="M214.604 184.727L360.458 150.048L351.75 114.932L356.114 147.968L214.604 184.727Z" fill="#99DBF8"/>
<path d="M296.11 110.62L292.426 49.6613L612.714 67.6201L298.231 56.3375L296.11 110.62Z" fill="#CB0D43"/>
<defs>
<linearGradient id="paint0_linear_285_4830" x1="165928" y1="146051" x2="165928" y2="96002.2" gradientUnits="userSpaceOnUse">
<stop stop-color="#8642A0"/>
<stop offset="1" stop-color="#6456C0"/>
</linearGradient>
<linearGradient id="paint1_linear_285_4830" x1="242541" y1="114602" x2="242541" y2="52328" gradientUnits="userSpaceOnUse">
<stop stop-color="#8060D7"/>
<stop offset="1" stop-color="#9F5BA0"/>
</linearGradient>
<linearGradient id="paint2_linear_285_4830" x1="-27843.9" y1="11634" x2="-12475.8" y2="11634" gradientUnits="userSpaceOnUse">
<stop stop-color="#7E9598"/>
<stop offset="1" stop-color="#755CBB"/>
</linearGradient>
<linearGradient id="paint3_linear_285_4830" x1="136704" y1="78474.4" x2="200879" y2="95019.3" gradientUnits="userSpaceOnUse">
<stop stop-color="#7E9598"/>
<stop offset="1" stop-color="#755CBB"/>
</linearGradient>
<linearGradient id="paint4_linear_285_4830" x1="533.14" y1="694.841" x2="730.485" y2="616.319" gradientUnits="userSpaceOnUse">
<stop offset="0.05" stop-color="#3369E7"/>
<stop offset="0.94" stop-color="#33DCF3"/>
</linearGradient>
<linearGradient id="paint5_linear_285_4830" x1="493.736" y1="581.339" x2="714.7" y2="558.125" gradientUnits="userSpaceOnUse">
<stop offset="0.05" stop-color="#3369E7"/>
<stop offset="1" stop-color="#33DCF3"/>
</linearGradient>
<linearGradient id="paint6_linear_285_4830" x1="66686.7" y1="23010.9" x2="67543.9" y2="32099.1" gradientUnits="userSpaceOnUse">
<stop stop-color="#43AAF4"/>
<stop offset="1" stop-color="#584AB1"/>
</linearGradient>
<linearGradient id="paint7_linear_285_4830" x1="29526.7" y1="59238.2" x2="20514.3" y2="47567.9" gradientUnits="userSpaceOnUse">
<stop stop-color="#219CF6"/>
<stop offset="1" stop-color="#4433AE"/>
</linearGradient>
<linearGradient id="paint8_linear_285_4830" x1="2988.56" y1="35425.3" x2="4778.85" y2="21230.9" gradientUnits="userSpaceOnUse">
<stop offset="0.05" stop-color="#3369E7"/>
<stop offset="0.94" stop-color="#33DCF3"/>
</linearGradient>
<linearGradient id="paint9_linear_285_4830" x1="4120.24" y1="33691.5" x2="5754.82" y2="20236.7" gradientUnits="userSpaceOnUse">
<stop offset="0.05" stop-color="#3369E7"/>
<stop offset="0.94" stop-color="#33DCF3"/>
</linearGradient>
<linearGradient id="paint10_linear_285_4830" x1="7311.87" y1="40950.6" x2="9101.48" y2="24584" gradientUnits="userSpaceOnUse">
<stop offset="0.05" stop-color="#3369E7"/>
<stop offset="0.94" stop-color="#33DCF3"/>
</linearGradient>
<linearGradient id="paint11_linear_285_4830" x1="5804.2" y1="35069.2" x2="7463.56" y2="21135" gradientUnits="userSpaceOnUse">
<stop offset="0.05" stop-color="#3369E7"/>
<stop offset="0.94" stop-color="#33DCF3"/>
</linearGradient>
<linearGradient id="paint12_linear_285_4830" x1="3643.97" y1="34163.4" x2="5536.23" y2="20602.2" gradientUnits="userSpaceOnUse">
<stop offset="0.05" stop-color="#3369E7"/>
<stop offset="0.94" stop-color="#33DCF3"/>
</linearGradient>
<linearGradient id="paint13_linear_285_4830" x1="3769.69" y1="35395.2" x2="5536.8" y2="21291.6" gradientUnits="userSpaceOnUse">
<stop offset="0.05" stop-color="#3369E7"/>
<stop offset="0.94" stop-color="#33DCF3"/>
</linearGradient>
<linearGradient id="paint14_linear_285_4830" x1="5367.34" y1="37688.9" x2="7213.45" y2="22707.4" gradientUnits="userSpaceOnUse">
<stop offset="0.05" stop-color="#3369E7"/>
<stop offset="0.94" stop-color="#33DCF3"/>
</linearGradient>
<linearGradient id="paint15_linear_285_4830" x1="5651.88" y1="38574.9" x2="7864.33" y2="23378.3" gradientUnits="userSpaceOnUse">
<stop offset="0.05" stop-color="#3369E7"/>
<stop offset="0.94" stop-color="#33DCF3"/>
</linearGradient>
<linearGradient id="paint16_linear_285_4830" x1="9044.56" y1="39395.8" x2="10828.9" y2="23823.1" gradientUnits="userSpaceOnUse">
<stop offset="0.05" stop-color="#3369E7"/>
<stop offset="0.94" stop-color="#33DCF3"/>
</linearGradient>
</defs>
</svg>
