<svg width="130" height="128" viewBox="0 0 130 128" fill="none" xmlns="http://www.w3.org/2000/svg">
<path opacity="0.4" d="M123.858 106.511C91.5877 133.55 8.84251 136.732 29.1742 106.511C40.8249 89.1584 80.228 87 95.0226 87C109.817 87 143.876 89.7381 123.858 106.511Z" fill="#5A0EA7"/>
<ellipse opacity="0.5" cx="57.6096" cy="115.845" rx="29.9914" ry="8.90834" fill="#5A0EA7"/>
<path d="M57.0163 101.09C41.6005 101.09 29.1035 104.812 29.1035 109.404V114.428C29.1035 119.02 41.6005 122.742 57.0163 122.742C72.4321 122.742 84.9291 119.02 84.9291 114.428V109.404C84.9291 104.812 72.4321 101.09 57.0163 101.09Z" fill="url(#paint0_linear_300_193)"/>
<ellipse cx="57.0163" cy="109.404" rx="27.9128" ry="8.31445" fill="#2D86DF"/>
<g opacity="0.4">
<path d="M33.96 114.092V119.116C35.2329 119.671 36.7252 120.177 38.3998 120.623V115.6C36.7252 115.153 35.2328 114.647 33.96 114.092Z" fill="white"/>
<path d="M39.7872 115.946V120.97C40.5001 121.137 41.2409 121.294 42.0072 121.44V116.416C41.2409 116.27 40.5001 116.113 39.7872 115.946Z" fill="white"/>
</g>
<path opacity="0.45" d="M84.9304 109.407C62.402 114.974 35.3353 113.796 35.7069 104.034C40.827 102.233 48.4741 101.09 57.0176 101.09C72.4334 101.09 84.9304 104.813 84.9304 109.405L84.9304 109.407Z" fill="#104BF5"/>
<circle cx="55.0006" cy="54.9997" r="54.9997" fill="url(#paint1_linear_300_193)"/>
<circle cx="55.0006" cy="54.9997" r="54.9997" fill="url(#paint2_linear_300_193)"/>
<path fill-rule="evenodd" clip-rule="evenodd" d="M54.9997 109.999C85.3751 109.999 109.999 85.3751 109.999 54.9997C109.999 24.6242 85.3751 0 54.9997 0C24.6242 0 0 24.6242 0 54.9997C0 85.3751 24.6242 109.999 54.9997 109.999ZM54.9993 105.809C82.0479 105.809 103.975 83.8817 103.975 56.833C103.975 29.7844 82.0479 7.85712 54.9993 7.85712C27.9507 7.85712 6.02341 29.7844 6.02341 56.833C6.02341 83.8817 27.9507 105.809 54.9993 105.809Z" fill="#004DB2"/>
<path opacity="0.2" fill-rule="evenodd" clip-rule="evenodd" d="M77.0442 4.59647C71.827 2.31123 66.1869 0.812289 60.2739 0.249527L0.248047 60.2754C0.81081 66.1884 2.30975 71.8285 4.59499 77.0456L77.0442 4.59647ZM20.7594 98.045C15.0114 93.4669 10.2009 87.7616 6.66262 81.2637L81.2622 6.6641C87.7601 10.2024 93.4654 15.0128 98.0435 20.7609L20.7594 98.045ZM44.4936 108.997C42.3484 108.582 40.2476 108.043 38.1992 107.386L107.385 38.2007C108.041 40.2492 108.581 42.3499 108.996 44.4951L44.4936 108.997Z" fill="#EAFDFF"/>
<path fill-rule="evenodd" clip-rule="evenodd" d="M83.393 57.2194C84.941 58.5143 86.0948 60.6005 86.3213 63.4393C87.4306 68.1386 84.7945 74.5309 80.5004 75.955C79.1084 76.7731 77.503 77.1876 75.8921 77.0105C73.9688 79.056 71.8484 80.7439 69.5989 82.0876C76.1397 84.3443 84.8158 88.5863 86.0512 95.04C87.4825 96.1589 88.337 97.2981 88.8122 98.3801C79.4846 105.661 67.7482 109.999 54.9985 109.999C44.1054 109.999 33.952 106.832 25.4086 101.369C27.0322 100.493 28.9059 99.8837 30.9347 99.5536L31.7969 97.7131C29.4417 95.5794 31.2498 91.6682 34.3924 92.0857C34.4482 91.9628 34.5029 91.8395 34.5565 91.7158C28.8049 91.4943 22.0859 88.8025 16.0574 86.1863C14.1899 85.3761 12.4103 85.1606 10.9507 84.9839C10.0159 84.8707 9.21227 84.7733 8.60091 84.5459C8.16545 83.8635 7.74463 83.1708 7.3389 82.4684C7.49446 81.5135 8.42562 80.825 9.57814 80.4434C9.03597 80.0604 8.02986 79.4843 6.17574 78.7266C5.7921 78.5698 5.44291 78.4009 5.12767 78.2225C4.47644 76.8264 3.8821 75.3984 3.34766 73.9415C3.98483 73.0956 5.26534 72.4326 7.14137 72.2019C14.5355 71.2929 21.3594 74.0275 27.529 76.4999C30.7594 77.7944 33.8104 79.0171 36.67 79.6072C28.7364 73.1503 24.2013 62.7133 26.281 52.1187C29.4811 35.8165 47.5304 24.4496 64.3584 30.4224C73.4956 33.6647 82.9681 43.3048 83.393 57.2194Z" fill="#004DB2"/>
<path d="M16.2551 45.3127L17.3863 45.7258L17.649 44.6076L19.0358 44.9339L18.7309 46.228L19.9589 46.6829L19.6117 48.1605L18.3836 47.7056L18.1689 48.6129L19.3969 49.0678L19.0478 50.545L17.8198 50.09L17.5571 51.2083L16.1704 50.882L16.4753 49.5878L15.3435 49.1766L15.0808 50.2948L13.6963 49.9672L14.0007 48.6749L12.7726 48.2199L13.1217 46.7428L14.3497 47.1977L14.5627 46.29L13.3347 45.8351L13.6819 44.3575L14.9105 44.8106L15.1745 43.6946L16.5595 44.0205L16.2551 45.3127ZM15.9073 46.7922L15.6943 47.6999L16.8256 48.113L17.0386 47.2053L15.9073 46.7922ZM23.2559 38.7432L20.5301 37.4062L22.0609 39.7809L21.626 40.6667L18.9027 40.9201L21.5175 42.2249L20.6063 44.049L14.655 41.0822L15.4774 39.4348L19.6099 39.0791L17.3836 35.6145L18.2042 33.9666L24.1604 36.9154L23.2559 38.7432ZM24.5923 28.1841L27.3512 33.1868C27.7033 33.8264 27.8576 34.3888 27.8141 34.874C27.706 36.0344 26.6009 37.0541 25.8344 37.2158L25.1433 35.7349C25.5959 35.6266 26.091 35.2208 26.0097 34.7756L20.554 33.1494L21.9433 31.4424L24.782 32.3659L23.3147 29.7652L24.5923 28.1841ZM30.1028 29.7865C29.4943 29.9249 28.8592 29.8888 28.2704 29.6823C27.6816 29.4758 27.163 29.1073 26.7742 28.6192C24.3909 25.7724 27.6064 22.0313 30.5182 22.6869L30.2455 24.5635C29.5959 24.4287 29.0583 24.5395 28.6326 24.896C27.9348 25.4782 27.8334 26.3662 28.5052 27.1677C29.177 27.9692 30.0668 28.0285 30.7656 27.4427C31.1913 27.0862 31.3948 26.5764 31.3762 25.9133L33.2718 25.9747C33.2945 26.514 33.182 27.0504 32.9444 27.5351C32.6593 28.0903 32.2593 28.5785 31.7709 28.9672C31.2824 29.3558 30.7168 29.6359 30.1117 29.789L30.1028 29.7865ZM35.3681 20.0351L36.3316 21.6714C35.4368 22.0338 35.0237 22.5566 35.5232 23.4019L36.6921 25.3899L34.8496 26.4787L32.2078 22.0025L33.966 20.9679L34.2495 21.4509C34.3657 20.8838 34.7415 20.4127 35.377 20.0375L35.3681 20.0351ZM42.4721 17.1291L42.4282 22.8389C42.4234 23.5691 42.2826 24.1346 42.0057 24.5355C41.3441 25.4947 39.8809 25.8449 39.1341 25.6082L39.2564 23.9784C39.704 24.1005 40.3282 24.0005 40.4813 23.5671L36.5211 19.4766L38.5692 18.6679L40.5877 20.8627L40.5822 17.8748L42.4721 17.1291ZM49.5729 20.6897C48.8996 21.2671 47.7265 21.538 47.0197 21.0631L47.4369 23.2149L45.3323 23.6218L43.9963 16.7183L45.9991 16.3301L46.0779 16.7494C46.3158 16.3495 46.7489 16.0884 47.3772 15.9663C50.1273 15.4381 51.3809 19.1471 49.5819 20.6922L49.5729 20.6897ZM48.1265 19.3291C48.2528 19.0893 48.2853 18.8111 48.2179 18.5485C48.1811 18.2781 48.0467 18.0305 47.8399 17.8523C47.3108 17.4414 46.3503 17.7897 46.5582 18.8683C46.5928 19.1375 46.7267 19.3841 46.9335 19.5599C47.0251 19.6299 47.1305 19.6799 47.2427 19.7065C47.3549 19.7331 47.4714 19.7359 47.5847 19.7145C47.6981 19.6931 47.8056 19.6482 47.9004 19.5825C47.9952 19.5168 48.0752 19.4319 48.135 19.3334L48.1265 19.3291ZM55.656 20.3989C55.2526 20.6135 54.801 20.721 54.3442 20.7112C52.9003 20.7498 52.0574 20.0871 52.0201 18.6667L51.9825 17.3391L51.2718 17.3595L51.2282 15.7926L51.9402 15.7744L51.8999 14.3223L54.0409 14.2634L54.0798 15.7132L55.1424 15.6845L55.1885 17.2424L54.126 17.2711L54.1553 18.5792C54.1631 18.8691 54.3264 19.0779 54.6145 19.0696C54.7863 19.0681 54.9534 19.0139 55.0934 18.9144L55.656 20.3989ZM57.6002 20.4736C57.1872 20.2081 56.8593 19.8294 56.6555 19.3826C56.4517 18.9359 56.3807 18.4399 56.4508 17.9539C56.5075 17.4667 56.7035 17.0062 57.0155 16.6278C57.3275 16.2493 57.7421 15.9689 58.2095 15.8203C58.7249 15.6598 59.2691 15.6139 59.8041 15.6858C60.339 15.7578 60.8518 15.9458 61.3064 16.2367C61.7184 16.5016 62.0451 16.8798 62.2472 17.326C62.4493 17.7722 62.5181 18.2672 62.4455 18.7516C62.3912 19.2381 62.198 19.6986 61.8889 20.0781C61.5797 20.4575 61.1679 20.7399 60.7025 20.8915C60.1883 21.0558 59.6441 21.1039 59.1091 21.0324C58.5741 20.9609 58.0617 20.7715 57.6087 20.4779L57.6002 20.4736ZM59.9444 19.1817C60.1394 18.9917 60.2584 18.737 60.279 18.4656C60.3307 18.1989 60.2815 17.9225 60.141 17.69C59.7697 17.1463 58.7415 17.1554 58.6066 18.2371C58.4718 19.3187 59.4494 19.6222 59.9553 19.1769L59.9444 19.1817ZM75.2162 19.013L70.7957 24.4091L68.5642 23.5258L68.8718 19.8294L66.5156 22.7156L64.284 21.8323L64.7717 14.8644L66.9158 15.7142L66.6044 19.651L69.1321 16.5895L71.0498 17.3486L70.7202 21.3307L73.2638 18.2252L75.2162 19.013ZM76.2031 21.7105L77.9844 22.9056L75.0939 27.2184L73.3126 26.0233L76.2031 21.7105ZM78.5418 20.1485C80.0312 21.1462 78.7113 22.8896 77.3266 21.9611C75.9043 20.9934 77.1154 19.1817 78.5527 20.1438L78.5418 20.1485ZM83.1661 27.8857C83.1959 28.4322 82.9492 28.9939 82.426 29.571L80.435 31.763L78.8484 30.3216L80.5889 28.4032C80.9895 27.9639 81.0324 27.6015 80.7176 27.316C80.6388 27.2395 80.5442 27.1814 80.4404 27.1457C80.3366 27.11 80.2262 27.0977 80.1171 27.1096C79.839 27.1661 79.5908 27.3213 79.4183 27.5467L77.7801 29.352L76.1917 27.9101L79.6801 24.0677L81.1894 25.4455L80.8445 25.8246C81.1339 25.8149 81.4224 25.8635 81.6926 25.9675C81.9629 26.0715 82.2095 26.2287 82.4179 26.4298C82.6355 26.6082 82.8149 26.8287 82.9453 27.0781C83.0757 27.3274 83.1545 27.6005 83.177 27.881L83.1661 27.8857ZM83.7437 35.6215C83.3308 35.4269 82.9743 35.1301 82.708 34.7593C81.8078 33.6269 81.8385 32.5517 82.9437 31.673L83.9827 30.8459L83.5399 30.2884L84.7714 29.3148L85.2143 29.8723L86.3499 28.9671L87.6864 30.6455L86.549 31.5501L87.2124 32.3821L85.9809 33.3557L85.3193 32.5242L84.2949 33.3399C84.2399 33.3723 84.1925 33.4162 84.1561 33.4687C84.1197 33.5212 84.0951 33.5809 84.084 33.6438C84.0729 33.7067 84.0755 33.7712 84.0918 33.833C84.108 33.8947 84.1375 33.9522 84.1781 34.0015C84.2829 34.1383 84.4272 34.2398 84.5914 34.292L83.7437 35.6215ZM88.602 40.0381L86.8046 36.9128C86.6755 37.0684 86.6044 37.264 86.6033 37.4663C86.639 37.8933 86.8379 38.2901 87.1587 38.5741C87.3105 38.6949 87.4787 38.7934 87.6583 38.8669L87.2398 40.4004C86.5108 40.2401 85.892 39.7235 85.3833 38.8506C83.5852 35.7212 86.7289 33.4459 88.9038 34.8624C89.3231 35.149 89.6742 35.5245 89.932 35.9621C90.1898 36.3997 90.3481 36.8887 90.3956 37.3944C90.4652 38.3426 90.0309 39.2402 89.0459 39.8058C89.0361 39.8205 88.8857 39.8973 88.617 40.0326L88.602 40.0381ZM87.6826 36.3642L88.5141 37.812C88.6726 37.6888 88.7794 37.5109 88.8138 37.3131C88.8481 37.1153 88.8075 36.9118 88.6998 36.7423C88.611 36.5623 88.4575 36.4225 88.27 36.3509C88.0825 36.2793 87.8748 36.2812 87.6887 36.3562L87.6826 36.3642ZM93.4189 43.6225L91.6503 44.2989C91.4368 43.354 90.9866 42.866 90.0731 43.2194L87.9156 44.0465L87.1438 42.0471L91.9869 40.1777L92.7209 42.0818L92.1985 42.283C92.7533 42.4821 93.1651 42.9268 93.4339 43.617L93.4189 43.6225ZM91.9413 54.458L90.2201 54.6778L89.5368 49.3955L90.9018 49.2214L93.4191 51.3224C93.7092 51.5619 94.0189 51.772 94.3892 51.7243C94.6834 51.6868 94.8829 51.4727 94.8253 51.0185C94.7996 50.8155 94.7167 50.624 94.5864 50.4663C94.456 50.3087 94.2835 50.1913 94.089 50.1279L94.7109 48.3447C95.2141 48.5347 95.651 48.8674 95.9679 49.302C96.595 50.1396 96.7831 51.4891 96.5258 52.4176C96.2991 53.2482 95.7154 53.8229 94.8826 53.9298C93.9701 54.0458 93.3416 53.6734 92.6393 53.0683L91.6608 52.2372L91.9413 54.458ZM90.4567 56.8828C91.1459 55.879 92.3689 55.5386 93.5906 55.6132C95.1571 55.6988 96.117 56.3858 96.566 57.225C96.8117 57.7144 96.9252 58.2596 96.8952 58.8064C96.8652 59.3533 96.6928 59.8828 96.3951 60.3425C95.7054 61.348 94.4829 61.6866 93.263 61.6125C92.043 61.5384 90.8618 61.075 90.2858 60.0003C90.0411 59.5089 89.9292 58.962 89.9612 58.414C89.9932 57.8659 90.1679 57.3358 90.4681 56.8762L90.4567 56.8828ZM93.3853 59.3665C94.5042 59.4285 95.0797 59.2076 95.1116 58.7037C95.1435 58.1999 94.5982 57.9165 93.4756 57.8535C92.3579 57.7919 91.7825 58.0128 91.7494 58.5163C91.7163 59.0198 92.2654 59.301 93.3968 59.36L93.3853 59.3665ZM90.2553 67.742L88.565 67.3386L89.8027 62.1594L91.1408 62.4802L92.7447 65.3306C92.9285 65.6551 93.1511 65.965 93.5136 66.0524C93.7994 66.1304 94.0655 65.9906 94.1714 65.5462C94.2194 65.3471 94.2098 65.1383 94.1437 64.9445C94.0776 64.7506 93.9577 64.5796 93.7979 64.4513L95.0134 63.0059C95.4163 63.3621 95.7066 63.828 95.849 64.3466C96.1371 65.3505 95.836 66.6804 95.2669 67.4562C94.7575 68.1478 94.0201 68.4855 93.1948 68.2892C92.2993 68.0738 91.8445 67.5035 91.4004 66.6888L90.7817 65.5656L90.2553 67.742ZM93.2527 73.4704L87.0829 71.0139L87.9132 68.934L92.5141 70.7692L92.9382 69.7105L94.5072 70.3319L93.2527 73.4704Z" fill="white"/>
<path fill-rule="evenodd" clip-rule="evenodd" d="M109.999 54.9998C109.999 85.3752 85.3751 109.999 54.9997 109.999C54.9403 109.999 54.881 109.999 54.8218 109.999C53.9325 109.996 53.0482 109.972 52.1694 109.928C41.7418 109.4 32.0805 105.967 23.9779 100.424C23.9782 100.423 23.9786 100.423 23.9789 100.423C15.0812 94.3346 8.06346 85.7001 3.97546 75.5691C3.97437 75.5681 3.97329 75.5671 3.97221 75.5661C3.61264 74.6749 3.27575 73.7721 2.96224 72.8584C2.96256 72.8573 2.96288 72.8562 2.96319 72.8552C1.04253 67.2565 0 61.2499 0 54.9998C0 24.6243 24.6242 9.15527e-05 54.9997 9.15527e-05C85.3751 9.15527e-05 109.999 24.6243 109.999 54.9998ZM8.4427 70.2449C6.87253 65.4468 6.02341 60.3224 6.02341 54.9996C6.02341 27.951 27.9507 6.02374 54.9993 6.02374C82.0479 6.02374 103.975 27.951 103.975 54.9996C103.975 70.2899 96.9683 83.9437 85.9903 92.9251C84.4444 86.117 74.6086 81.8164 68.0696 79.7495C59.7111 83.1542 47.8875 83.1875 37.7112 77.9614C34.5539 77.4825 31.1535 76.1198 27.5271 74.6666C21.7216 72.3401 15.3368 69.7815 8.4427 70.2449ZM15.6724 84.1944C19.7562 89.6864 24.9632 94.2937 30.9535 97.6761L31.7951 95.8798C29.4398 93.7461 31.2479 89.8349 34.3905 90.2523C34.4463 90.1294 34.501 90.0061 34.5546 89.8825C28.803 89.6609 22.084 86.9692 16.0556 84.353C15.9274 84.2974 15.7997 84.2446 15.6724 84.1944Z" fill="url(#paint3_linear_300_193)"/>
<path fill-rule="evenodd" clip-rule="evenodd" d="M35.6351 99.9986C35.0022 99.7259 34.3762 99.4402 33.7574 99.1419C32.6065 98.0945 33.4879 96.15 33.738 95.5982C33.7628 95.5433 33.7815 95.5022 33.7912 95.4771C34.0843 94.7262 34.3446 94.0462 34.5797 93.432C36.672 87.9666 36.7696 87.7116 40.2306 89.0213L48.8529 92.2853C50.5981 93.4012 49.9685 94.9775 48.4065 98.8873L48.4065 98.8874C48.0594 99.7564 47.6662 100.741 47.2428 101.861C47.0248 102.432 46.595 102.897 46.0439 103.159C43.8826 102.759 41.7711 102.218 39.7194 101.545L35.6351 99.9986ZM50.1262 103.736C49.2566 103.65 48.3936 103.542 47.538 103.411C48.0886 102.817 48.3649 102.052 48.6921 101.147C48.768 100.936 48.8467 100.719 48.9322 100.494C48.8578 101.793 49.2058 102.769 50.4094 103.271C50.3722 103.257 50.3307 103.34 50.2644 103.474C50.2273 103.548 50.1824 103.639 50.1262 103.736ZM51.927 103.881C51.7324 103.869 51.5381 103.856 51.3441 103.841C51.3712 103.791 51.3979 103.739 51.4243 103.686C51.5915 103.752 51.7591 103.817 51.927 103.881ZM66.1215 102.707C63.1488 103.397 60.0722 103.817 56.9191 103.939C54.1251 103.311 51.6219 102.372 50.8979 101.993C49.4569 101.377 50.7065 98.1027 52.1979 98.5584C53.9819 99.4967 59.5345 102.008 64.5076 101.009C64.524 101.006 64.5517 100.999 64.5887 100.99C65.0562 100.87 67.0027 100.373 66.2665 102.378C66.2244 102.493 66.1759 102.603 66.1215 102.707ZM69.1266 101.907C68.6542 102.049 68.1788 102.184 67.7006 102.312C67.7403 102.118 67.7646 101.921 67.7716 101.725L69.1266 101.907ZM74.8681 99.7774C73.8553 100.227 72.8244 100.644 71.7769 101.026C71.7783 100.07 72.5839 98.7901 74.5168 97.3691C76.0276 96.2521 76.6542 95.1068 77.1654 94.1725C77.6647 93.2598 78.0539 92.5484 79.0495 92.2613C79.9053 92.0154 82.3893 92.7199 84.4252 94.1532C82.9517 95.2624 81.4136 96.2904 79.8174 97.2304C78.6995 96.8213 77.6085 96.4101 78.6928 93.5645C78.9253 92.9534 77.8049 92.5086 77.1943 95.1347C76.8773 96.6712 77.4398 97.4604 78.3845 98.0422C77.6896 98.4205 76.9845 98.7826 76.2698 99.1277C75.9836 98.9875 75.6482 98.8901 75.257 98.8511C73.9052 98.7182 74.2033 99.7145 74.7099 99.7577C74.7637 99.7622 74.8164 99.7689 74.8681 99.7774ZM7.27004 71.8944C3.84247 72.3173 3.45785 73.9356 6.72294 75.2711C7.33493 75.5212 8.03165 76.0028 8.7568 76.504C10.124 77.4491 11.5923 78.4639 12.7843 78.1292C13.345 77.9716 14.1164 79.0313 10.9159 79.8465C10.4254 79.925 8.75493 80.2298 8.92065 80.9856C9.12611 81.1777 10.0362 81.2898 11.083 81.4186H11.083L11.083 81.4186L11.083 81.4186L11.0831 81.4186C11.586 81.4805 12.1204 81.5463 12.6234 81.6268C14.9823 82.003 16.5069 82.6618 18.6509 83.5884C20.3041 84.3027 22.3256 85.1763 25.3818 86.2022C26.6762 83.3572 27.1418 79.3547 27.1598 76.2159L26.7802 76.0642C20.4577 73.5362 14.2133 71.0394 7.27004 71.8944ZM26.6937 86.6246C27.9756 83.726 28.4641 79.9056 28.5271 76.7604C34.8014 79.2448 37.5354 80.2335 39.5471 80.1423C48.8529 85.9042 58.797 84.4637 67.7017 81.3209C70.2322 82.0536 71.9754 82.6784 74.943 83.9783C70.8031 85.6354 70.0196 90.4619 70.6143 94.8781C68.7082 94.0564 66.6446 93.7494 64.5448 93.8042C63.4769 93.8321 63.4818 95.4531 64.5869 95.4454C64.8375 95.4407 65.0822 95.4407 65.3211 95.4454C65.3475 96.778 65.3053 98.111 65.1948 99.4393C65.1396 99.4492 65.0587 99.4699 64.9522 99.4971C63.8537 99.7782 60.0352 100.755 53.6745 97.7504L53.6752 97.7489C53.7185 97.6605 55.6547 93.7052 52.0277 92.3182C49.3364 91.2887 47.1847 90.4513 45.45 89.7762C38.5129 87.0763 38.2462 86.9725 36.8151 87.5634C37.6986 84.655 37.7413 84.3235 37.3157 84.1889C36.938 84.066 36.8837 84.1952 36.1873 85.8509L36.1873 85.8509C35.9475 86.4211 35.6315 87.1722 35.2 88.1564C32.3879 88.1564 29.3592 87.448 26.6937 86.6246ZM72.1304 95.6659C72.4196 95.8442 72.6943 96.0302 72.9543 96.2239C74.0483 95.4507 74.7852 94.3631 75.4849 93.3305C77.1121 90.929 78.5377 88.825 83.7841 91.6649C82.3518 88.3659 79.3964 86.2361 76.8086 84.8738C71.9537 85.7076 71.226 90.8689 72.1304 95.6659ZM69.9485 100.916L67.5298 100.588C67.3592 100.263 67.1097 99.9864 66.8044 99.7834C66.8706 99.1668 66.9887 97.3668 66.9592 95.5707C68.9353 95.8355 70.482 96.4942 71.6856 97.305C70.6051 98.4156 69.983 99.692 69.9485 100.916ZM50.967 93.0812C51.8058 93.368 54.1867 94.1821 52.6831 97.2782C51.5556 96.8849 50.4296 97.5135 49.7523 98.3221C49.9207 97.8774 50.0772 97.4798 50.2191 97.1195C50.9758 95.1976 51.3154 94.3352 50.8044 93.024C50.848 93.0405 50.9031 93.0593 50.967 93.0812Z" fill="white"/>
<path fill-rule="evenodd" clip-rule="evenodd" d="M75.5713 3.97609C70.1939 1.806 64.3948 0.461334 58.3311 0.0990906L0.0996094 58.3306C0.401715 63.3879 1.38717 68.2613 2.96496 72.8593C3.27827 73.7723 3.61493 74.6745 3.97423 75.5652L3.97443 75.5653C3.97516 75.5671 3.97588 75.5689 3.97661 75.5707L9.34621 70.2011C9.04627 70.2101 8.74535 70.2247 8.44345 70.245C6.87326 65.4469 6.02413 60.3224 6.02413 54.9996C6.02413 27.951 27.9514 6.02374 55 6.02374C60.5615 6.02374 65.9064 6.95072 70.8888 8.65859L75.5713 3.97609ZM15.1652 70.6678L5.94214 79.8909C9.30874 86.5129 13.9767 92.3622 19.6093 97.1018L23.8865 92.8246C20.8119 90.2926 18.0514 87.393 15.6722 84.1931C15.8005 84.2436 15.9293 84.2968 16.0586 84.3529C19.8819 86.0121 23.9829 87.7017 27.9388 88.7723L38.4045 78.3066C38.1736 78.1942 37.9435 78.0791 37.7142 77.9613C34.5569 77.4824 31.1565 76.1198 27.5301 74.6665L27.53 74.6665C23.659 73.1152 19.5305 71.4608 15.1652 70.6678ZM92.825 23.8862C88.1308 18.186 82.1731 13.5653 75.3805 10.4526L79.8914 5.94162C86.5135 9.30824 92.3627 13.9762 97.1023 19.6088L92.825 23.8862ZM58.328 81.9975L34.3388 105.987C36.2531 106.763 38.2211 107.435 40.2356 107.995L68.3823 79.8482C68.2783 79.8148 68.175 79.7818 68.0726 79.7494C65.1707 80.9315 61.8512 81.7072 58.328 81.9975ZM103.001 45.2293C102.571 43.1054 102.004 41.0313 101.309 39.0168L105.987 34.3384C106.764 36.2527 107.435 38.2206 107.995 40.2351L103.001 45.2293Z" fill="url(#paint4_linear_300_193)"/>
<path d="M86.0542 62.1093C85.8277 59.2705 84.6739 57.1842 83.1259 55.8894C82.701 41.9748 73.2285 32.3347 64.0914 29.0924C47.2633 23.1196 29.214 34.4864 26.0139 50.7887C22.8198 67.0607 34.45 83.8422 50.8107 85.5215C59.3105 86.394 69.0336 84.4574 76.4824 76.6096C78.0933 76.7868 78.8414 75.4431 80.2333 74.625C84.5274 73.2008 87.1635 66.8086 86.0542 62.1093Z" fill="url(#paint5_linear_300_193)"/>
<path opacity="0.6" d="M39.8278 52.0701C40.8977 55.5522 41.2004 57.1982 42.7256 57.8415C44.606 58.657 47.089 56.1552 48.7356 56.0103C51.3962 55.7404 52.0747 60.3033 49.1235 62.0509C39.1342 67.4337 40.6078 68.4131 36.1552 55.2041C35.0434 51.626 38.8308 48.8172 39.8278 52.0701ZM36.9716 44.9625C39.1163 43.8756 42.0251 41.9459 43.0066 45.2663C44.0174 48.7085 44.1889 50.8372 46.6562 49.6914C53.5618 46.5849 53.1157 47.2842 55.3895 53.7457C56.703 57.1909 61.2741 54.1003 60.0257 50.4726C56.2264 39.3371 57.7739 39.8268 47.7756 43.7948C46.3478 39.1763 46.3027 36.0686 42.6519 37.6169C35.7677 40.6803 35.7582 40.8152 35.1423 41.3875C33.6208 42.9223 33.7506 46.6985 36.9716 44.9625Z" fill="url(#paint6_linear_300_193)"/>
<path d="M71.8669 73.1398C72.3908 73.6691 72.9977 74.1097 73.6637 74.4442C69.4558 78.5538 64.0655 81.249 58.2464 82.1531C63.5739 80.6795 68.4109 77.4602 71.8669 73.1398ZM70.326 70.894C63.8386 79.543 52.1633 83.2555 40.6726 78.6029C50.1736 84.6745 63.5978 81.5221 70.9778 72.0538C70.7291 71.6856 70.5111 71.2977 70.326 70.894ZM75.4044 65.2318C77.258 69.3407 82.3733 67.9442 84.8431 64.4725C85.3329 56.9314 77.6471 56.2042 75.4044 65.2345V65.2318ZM48.2339 30.0642C64.9322 25.7295 80.0335 37.7629 81.2975 54.1705C80.0048 53.7182 78.5835 53.6875 77.1937 54.0771C75.5296 40.2823 62.1492 29.8582 48.2339 30.0642ZM73.7321 64.875C72.3888 65.2741 71.7828 64.5748 71.5968 64.394C72.4798 58.145 78.2791 53.4631 82.2324 57.0597C80.4897 56.6763 78.7394 57.3162 77.3715 58.4473C75.4571 60.0313 74.321 62.4743 73.7321 64.875ZM36.7686 36.1331C38.5955 34.5422 40.6181 33.1896 42.7875 32.1081C57.6158 28.5498 74.2116 39.2774 75.8736 54.5771C75.5041 54.7557 75.1482 54.9609 74.8087 55.1911C73.1337 38.5604 52.6516 25.9519 36.7686 36.1331Z" fill="white"/>
<path opacity="0.2" d="M69.4845 68.486C62.9698 78.6751 48.1004 83.4462 33.9333 72.4294C32.8425 71.3018 26.7478 62.7996 28.2026 52.8556C33.6347 66.7697 54.0772 76.2502 69.3379 67.114C69.361 67.5737 69.4099 68.0318 69.4845 68.486Z" fill="#001D42"/>
<g opacity="0.2">
<path d="M68.6976 57.8836C66.5762 62.838 60.9438 60.4993 62.0602 55.9059C63.7929 50.1924 70.4758 52.8403 68.6976 57.8836Z" fill="#94E2EE"/>
<path d="M64.5282 65.5508C63.6088 67.3971 61.1252 66.4234 61.94 64.3199C62.8607 62.4756 65.3429 63.45 64.5282 65.5508Z" fill="#94E2EE"/>
</g>
<defs>
<linearGradient id="paint0_linear_300_193" x1="40.0905" y1="119.352" x2="84.9291" y2="119.352" gradientUnits="userSpaceOnUse">
<stop stop-color="#88D4FF"/>
<stop offset="1" stop-color="#4DB7F9"/>
</linearGradient>
<linearGradient id="paint1_linear_300_193" x1="26.3222" y1="7.59525" x2="83.679" y2="103.059" gradientUnits="userSpaceOnUse">
<stop stop-color="#289DFD"/>
<stop offset="1" stop-color="#0B3DF3"/>
</linearGradient>
<linearGradient id="paint2_linear_300_193" x1="26.3222" y1="7.59525" x2="83.679" y2="103.059" gradientUnits="userSpaceOnUse">
<stop stop-color="#3086CD"/>
<stop offset="1" stop-color="#2440A4"/>
</linearGradient>
<linearGradient id="paint3_linear_300_193" x1="25.9284" y1="19.9047" x2="50.3904" y2="115.533" gradientUnits="userSpaceOnUse">
<stop stop-color="#C9EEF2"/>
<stop offset="1" stop-color="#1FC5E4"/>
</linearGradient>
<linearGradient id="paint4_linear_300_193" x1="36.582" y1="26.9479" x2="94.2254" y2="86.0764" gradientUnits="userSpaceOnUse">
<stop stop-color="white" stop-opacity="0.69"/>
<stop offset="1" stop-color="white" stop-opacity="0"/>
</linearGradient>
<linearGradient id="paint5_linear_300_193" x1="34.849" y1="13.295" x2="68.9006" y2="81.7972" gradientUnits="userSpaceOnUse">
<stop stop-color="#0065EA"/>
<stop offset="1" stop-color="#004DB2"/>
</linearGradient>
<linearGradient id="paint6_linear_300_193" x1="44.1945" y1="65.298" x2="48.6472" y2="32.3666" gradientUnits="userSpaceOnUse">
<stop stop-color="#0159CC"/>
<stop offset="1" stop-color="white"/>
</linearGradient>
</defs>
</svg>
