<svg width="216" height="110" viewBox="0 0 216 110" fill="none" xmlns="http://www.w3.org/2000/svg"><path d="M214.854 66.8005C209.016 16.1718 148.518 30.9685 117.729 33.4277C117.083 33.4835 116.451 33.5253 115.833 33.5671C113.797 33.6973 111.782 33.7794 109.79 33.8135C109.427 33.8135 109.06 33.8135 108.702 33.8135C62.5264 34.2784 32.2822 10.0355 27.6939 5.55887C22.4037 0.394191 19.5123 2.66274 23.3521 9.05003C27.071 15.2514 32.0869 20.3742 30.167 23.6236C27.1686 28.7 13.4783 17.1899 7.45823 7.08365C1.4382 -3.02258 -1.27197 0.682426 2.1634 8.47826C22.0783 53.7517 53.9496 86.1576 100.371 100.62C102.02 101.137 103.687 101.628 105.373 102.093C163.607 118.294 219.629 108.178 214.854 66.8005Z" fill="#FF655D" /><path d="M105.373 102.117C103.684 101.649 102.016 101.157 100.371 100.643C100.878 100.666 116.153 103.065 115.414 97.0959C114.628 90.7412 95.3782 94.3346 81.0463 87.9985C66.7144 81.6623 51.7317 68.1161 55.0974 62.3889C57.9191 57.6008 66.8911 66.1079 67.9045 57.3358C68.8342 49.2518 49.1517 42.395 53.5912 37.221C56.3804 33.9669 60.1412 36.1564 75.9048 40.8377C98.8461 47.6387 142.46 49.4377 142.818 41.8139C143.25 32.6235 124.818 33.5439 117.715 33.4463C148.503 30.9871 209.001 16.1903 214.84 66.8191C219.628 108.178 163.607 118.294 105.373 102.117ZM45.9627 48.1454C40.2123 41.3583 35.7868 44.9657 39.4546 50.4697C44.0893 57.4288 51.7271 54.9371 45.9627 48.1454Z" fill="#FF8B7A" /><path d="M153.175 79.854C151.371 75.3262 150.544 72.0117 150.53 68.8366C150.432 47.0948 167.669 40.5448 179.96 41.2002C195.25 42.0138 206.388 53.2868 207.713 64.2065C210.265 85.186 195.296 98.0768 178.101 98.0768C174.001 98.0768 169.008 96.2174 165.433 93.7768C159.99 90.5335 155.703 85.6637 153.175 79.854Z" fill="#FFC165" /><path opacity="0.9" d="M162.789 81.0066C166.007 83.0725 169.75 84.1698 173.574 84.1678C186.637 84.1678 194.028 73.1365 193.563 63.2487C194.942 62.2534 196.13 61.0191 197.073 59.6042C195.79 60.1748 194.428 60.5492 193.033 60.7152C194.502 59.8348 195.601 58.4503 196.125 56.8196C194.746 57.6409 193.236 58.2195 191.662 58.5303C190.602 57.4012 189.198 56.6532 187.67 56.4022C186.141 56.1512 184.573 56.4111 183.207 57.1417C181.841 57.8723 180.754 59.0328 180.114 60.4436C179.475 61.8543 179.318 63.4367 179.668 64.9455C176.871 64.8061 174.135 64.0797 171.637 62.8135C169.139 61.5473 166.935 59.7695 165.169 57.5959C164.27 59.1444 163.995 60.9772 164.399 62.7216C164.803 64.466 165.856 65.9909 167.345 66.9863C166.228 66.9527 165.136 66.6514 164.16 66.1077C164.143 67.7449 164.697 69.337 165.727 70.6098C166.757 71.8825 168.199 72.7563 169.804 73.0807C168.767 73.3617 167.68 73.4031 166.624 73.2016C167.074 74.5996 167.949 75.8221 169.128 76.6982C170.306 77.5742 171.729 78.0599 173.197 78.0873C170.252 80.4009 166.508 81.4509 162.789 81.0066Z" fill="white" /><g opacity="0.9"><path opacity="0.9" d="M91.8017 64.6336C91.2424 64.503 90.7105 64.2749 90.2305 63.9596L91.0161 62.1931C91.8504 62.7244 92.8163 63.0126 93.8053 63.0252C94.735 63.0252 95.1999 62.7974 95.1999 62.3372C95.1976 62.2176 95.1584 62.1016 95.0876 62.0051C95.0169 61.9085 94.9181 61.8362 94.8048 61.7979C94.3951 61.638 93.9719 61.5151 93.5403 61.4307C92.9984 61.3141 92.4655 61.1587 91.9458 60.9658C91.5225 60.8113 91.1451 60.5522 90.8488 60.2127C90.5263 59.8215 90.3607 59.3245 90.3839 58.8181C90.3775 58.3207 90.5252 57.8335 90.8069 57.4235C91.1282 56.9807 91.5705 56.6401 92.0806 56.4426C92.7353 56.1831 93.436 56.0597 94.14 56.08C94.6923 56.0791 95.2429 56.1415 95.781 56.266C96.2823 56.3759 96.7637 56.5626 97.2081 56.8192L96.4737 58.595C95.7584 58.1834 94.9511 57.958 94.1261 57.9395C93.7674 57.9145 93.4088 57.9885 93.0894 58.1534C92.9909 58.2075 92.9084 58.2868 92.8504 58.3831C92.7925 58.4795 92.761 58.5895 92.7594 58.7019C92.7626 58.8168 92.8021 58.9277 92.8722 59.0187C92.9424 59.1097 93.0396 59.1762 93.1498 59.2086C93.551 59.3668 93.9667 59.4851 94.391 59.5619C94.9364 59.6768 95.4725 59.8322 95.9948 60.0268C96.4184 60.1812 96.7969 60.4384 97.0966 60.7752C97.421 61.1653 97.5869 61.6631 97.5614 62.1698C97.567 62.6671 97.4193 63.154 97.1384 63.5644C96.8169 64.005 96.3768 64.3452 95.8693 64.5453C95.2173 64.8093 94.5178 64.9359 93.8146 64.9172C93.134 64.9124 92.4571 64.8171 91.8017 64.6336Z" fill="white" /><path opacity="0.9" d="M104.763 58.7673C105.029 59.0618 105.232 59.4074 105.36 59.7831C105.488 60.1588 105.538 60.5565 105.507 60.9521V64.699H103.211V61.3287C103.211 60.4362 102.853 59.9852 102.137 59.9852C101.963 59.9805 101.79 60.0128 101.63 60.0802C101.47 60.1475 101.325 60.2482 101.207 60.3757C100.944 60.7013 100.815 61.1157 100.849 61.5332V64.699H98.5527V55.7317H100.849V58.7533C101.104 58.5181 101.405 58.3377 101.732 58.2234C102.082 58.1 102.45 58.0387 102.82 58.0421C103.176 58.0279 103.531 58.0848 103.865 58.2093C104.198 58.3338 104.504 58.5235 104.763 58.7673Z" fill="white" /><path opacity="0.9" d="M112.229 58.8046C112.531 59.0976 112.764 59.4538 112.912 59.8477C113.06 60.2415 113.119 60.6632 113.085 61.0825V64.7178H110.946V63.881C110.615 64.5163 109.97 64.8355 109.012 64.8386C108.56 64.8502 108.11 64.7596 107.697 64.5736C107.354 64.4182 107.062 64.1682 106.855 63.8531C106.664 63.5435 106.565 63.1852 106.572 62.8211C106.56 62.5398 106.618 62.2599 106.743 62.0073C106.867 61.7546 107.053 61.5373 107.283 61.3753C107.946 60.9827 108.714 60.8026 109.482 60.8593H110.788C110.751 60.1667 110.286 59.8227 109.394 59.8227C109.078 59.8273 108.765 59.8774 108.464 59.9714C108.166 60.0594 107.887 60.2012 107.641 60.3898L106.869 58.8325C107.274 58.5704 107.72 58.3801 108.19 58.2701C108.701 58.1371 109.228 58.0699 109.756 58.0701C110.642 58.0095 111.52 58.2703 112.229 58.8046V58.8046ZM110.37 63.1837C110.574 63.0494 110.727 62.8493 110.802 62.6166V62.0494H109.812C109.143 62.0494 108.808 62.2679 108.808 62.7142C108.809 62.8042 108.83 62.893 108.87 62.9736C108.911 63.0541 108.969 63.1244 109.04 63.179C109.223 63.3087 109.444 63.3726 109.668 63.3603C109.909 63.3679 110.148 63.3066 110.356 63.1837H110.37Z" fill="white" /><path opacity="0.9" d="M117.65 58.3023C118.061 58.1472 118.498 58.0715 118.937 58.0791V60.1431C118.765 60.1228 118.591 60.1119 118.417 60.1106C117.995 60.085 117.581 60.227 117.264 60.5057C117.114 60.67 117 60.8633 116.928 61.0736C116.856 61.2839 116.828 61.5068 116.846 61.7283V64.736H114.535V58.1861H116.72V58.9717C116.963 58.6683 117.285 58.4369 117.65 58.3023V58.3023Z" fill="white" /><path opacity="0.9" d="M126.481 62.0214H121.702C121.788 62.3407 121.988 62.6172 122.265 62.7977C122.579 62.9907 122.943 63.0862 123.311 63.072C123.588 63.0773 123.864 63.0316 124.124 62.9371C124.38 62.8346 124.616 62.6883 124.822 62.5048L126.03 63.76C125.671 64.1292 125.235 64.4157 124.753 64.5995C124.271 64.7834 123.756 64.8602 123.241 64.8245C122.544 64.8398 121.852 64.69 121.224 64.3875C120.669 64.1203 120.202 63.7012 119.876 63.1789C119.635 62.7914 119.478 62.3587 119.412 61.9076C119.346 61.4565 119.374 60.9968 119.493 60.5568C119.613 60.1169 119.821 59.7063 120.106 59.3504C120.391 58.9946 120.746 58.7012 121.149 58.4884C121.724 58.1932 122.363 58.0447 123.009 58.056C123.625 58.047 124.233 58.1857 124.785 58.4605C125.309 58.7223 125.748 59.1288 126.049 59.6319C126.37 60.1829 126.531 60.8123 126.514 61.4496C126.514 61.4496 126.481 61.6634 126.481 62.0214ZM122.139 59.9899C121.892 60.2002 121.727 60.4919 121.675 60.8127H124.357C124.307 60.4911 124.142 60.1985 123.892 59.9899C123.638 59.7939 123.325 59.6876 123.004 59.6876C122.683 59.6876 122.371 59.7939 122.116 59.9899H122.139Z" fill="white" /><path opacity="0.9" d="M132.475 64.392C131.928 64.1166 131.468 63.6948 131.147 63.1736C130.826 62.6524 130.656 62.0523 130.656 61.4401C130.656 60.828 130.826 60.2278 131.147 59.7066C131.468 59.1854 131.928 58.7636 132.475 58.4882C133.067 58.1973 133.72 58.0507 134.381 58.0605C135.042 58.051 135.697 58.1976 136.291 58.4882C136.839 58.7561 137.299 59.1759 137.616 59.6975C137.932 60.2192 138.092 60.8209 138.076 61.4308C138.09 62.0472 137.929 62.655 137.611 63.1834C137.294 63.7011 136.839 64.1198 136.296 64.392C135.704 64.69 135.048 64.84 134.385 64.829C133.722 64.8422 133.066 64.6921 132.475 64.392V64.392ZM135.361 62.5837C135.634 62.2634 135.772 61.8505 135.747 61.4308C135.771 61.017 135.632 60.6104 135.361 60.2966C135.235 60.1614 135.082 60.0546 134.911 59.9833C134.74 59.912 134.556 59.8777 134.371 59.8828C134.186 59.8768 134.002 59.9106 133.831 59.982C133.66 60.0534 133.507 60.1607 133.381 60.2966C133.107 60.6086 132.967 61.0161 132.991 61.4308C132.965 61.8514 133.105 62.2654 133.381 62.5837C133.506 62.7209 133.659 62.8293 133.83 62.9016C134.001 62.9738 134.186 63.0081 134.371 63.0021C134.557 63.0072 134.741 62.9725 134.912 62.9003C135.083 62.8281 135.236 62.7201 135.361 62.5837V62.5837Z" fill="white" /><path opacity="0.9" d="M145.361 58.7674C145.627 59.0619 145.83 59.4075 145.958 59.7832C146.086 60.1588 146.136 60.5566 146.105 60.9522V64.6991H143.808V61.3288C143.808 60.4362 143.45 59.9853 142.735 59.9853C142.561 59.9805 142.388 60.0129 142.228 60.0803C142.067 60.1476 141.923 60.2483 141.805 60.3758C141.543 60.7023 141.415 61.116 141.447 61.5333V64.6991H139.15V58.1491H141.34V58.865C141.602 58.5953 141.919 58.3859 142.27 58.2514C142.641 58.1094 143.035 58.0384 143.432 58.0421C143.785 58.0299 144.138 58.0876 144.469 58.2121C144.8 58.3366 145.103 58.5253 145.361 58.7674V58.7674Z" fill="white" /><path opacity="0.9" d="M92.76 71.9137H90.0312V69.4592H98.636V71.8951H95.9025V78.7845H92.76V71.9137Z" fill="white" /><path opacity="0.9" d="M111.383 71.5137L108.854 78.8028H105.921L104.815 75.4325L103.671 78.8028H100.743L98.209 71.5137H101.059L102.314 75.3627L103.62 71.5137H106.177L107.441 75.4046L108.748 71.5137H111.383Z" fill="white" /><path opacity="0.9" d="M112.164 70.4958C112.006 70.3592 111.88 70.1903 111.794 70.0007C111.707 69.811 111.662 69.6049 111.662 69.3964C111.662 69.1879 111.707 68.9818 111.794 68.7921C111.88 68.6024 112.006 68.4335 112.164 68.297C112.533 67.9961 113 67.8421 113.475 67.8646C113.95 67.8406 114.419 67.9873 114.795 68.2783C114.953 68.4065 115.079 68.5691 115.165 68.7536C115.25 68.9381 115.292 69.1397 115.288 69.3429C115.293 69.5571 115.251 69.7698 115.166 69.9664C115.081 70.163 114.955 70.3388 114.795 70.4818C114.431 70.7998 113.958 70.9662 113.475 70.9467C112.997 70.964 112.53 70.8033 112.164 70.4958V70.4958ZM111.969 71.5139H114.981V78.803H111.969V71.5139Z" fill="white" /><path opacity="0.9" d="M121.68 78.5475C121.104 78.8348 120.463 78.9678 119.821 78.9333C118.97 78.9899 118.129 78.7262 117.464 78.1942C117.173 77.9067 116.949 77.5594 116.806 77.1765C116.663 76.7936 116.605 76.3842 116.636 75.9767V74.1173H115.637V71.9184H116.636V69.8823H119.649V71.9184H121.141V74.108H119.649V75.9674C119.636 76.1553 119.698 76.3405 119.821 76.4834C119.879 76.5471 119.951 76.5969 120.032 76.629C120.112 76.6612 120.199 76.675 120.285 76.6694C120.528 76.6753 120.767 76.6054 120.969 76.4695L121.68 78.5475Z" fill="white" /><path opacity="0.9" d="M127.676 78.5475C127.1 78.8348 126.459 78.9678 125.817 78.9333C124.965 78.9893 124.123 78.7257 123.455 78.1942C123.166 77.9057 122.943 77.5582 122.801 77.1755C122.659 76.7928 122.601 76.3838 122.632 75.9767V74.1173H121.633V71.9184H122.632V69.8823H125.64V71.9184H127.132V74.108H125.64V75.9674C125.629 76.1559 125.693 76.341 125.817 76.4834C125.875 76.5474 125.947 76.5973 126.028 76.6295C126.108 76.6617 126.195 76.6753 126.281 76.6694C126.523 76.6746 126.76 76.6047 126.96 76.4695L127.676 78.5475Z" fill="white" /><path opacity="0.9" d="M135.946 75.8606H130.883C130.985 76.1257 131.173 76.3486 131.418 76.4928C131.703 76.6453 132.024 76.7206 132.348 76.7113C132.621 76.7174 132.893 76.6765 133.152 76.5904C133.408 76.4888 133.648 76.3494 133.863 76.1766L135.439 77.7619C134.728 78.5428 133.663 78.9333 132.255 78.9333C131.454 78.9585 130.659 78.7994 129.93 78.4685C129.298 78.1725 128.763 77.7034 128.387 77.1157C128.02 76.5348 127.829 75.8597 127.838 75.1726C127.828 74.4836 128.015 73.8059 128.378 73.2201C128.739 72.6475 129.25 72.1846 129.856 71.8813C130.5 71.5733 131.204 71.4101 131.918 71.4028C132.631 71.3956 133.338 71.5446 133.989 71.8394C134.585 72.1239 135.088 72.5721 135.439 73.1318C135.81 73.7464 135.997 74.4547 135.978 75.1726C135.987 75.1958 135.974 75.4329 135.946 75.8606ZM131.232 73.685C131.018 73.8706 130.876 74.1258 130.832 74.4055H133.156C133.11 74.1291 132.969 73.8776 132.757 73.6943C132.539 73.5169 132.265 73.4244 131.985 73.434C131.712 73.4278 131.446 73.5165 131.232 73.685Z" fill="white" /><path opacity="0.9" d="M142.157 71.3838V74.0475C141.937 74.0122 141.715 73.9936 141.492 73.9917C140.46 73.9917 139.944 74.5155 139.944 75.563V78.8171H136.932V71.5279H139.8V72.3136C140.099 71.9936 140.466 71.7442 140.874 71.5834C141.281 71.4226 141.72 71.3545 142.157 71.3838V71.3838Z" fill="white" /></g></svg>