<svg width="458" height="373" viewBox="0 0 458 373" fill="none" xmlns="http://www.w3.org/2000/svg">
<path d="M76.133 115.06C74.0684 111.779 71.8072 110.439 68.3573 108.91C52.465 95.9502 38.3794 80.9207 26.4756 64.2224C25.3048 72.6685 25.4657 82.0977 27.9056 93.4753C28.8881 98.0042 30.1052 102.479 31.5522 106.882C32.2225 108.964 32.9732 111.109 33.7866 113.326C34.725 115.944 35.6903 118.402 36.6823 120.726C41.75 132.622 47.4075 140.818 53.6013 146.886C55.1633 148.428 56.8072 149.884 58.5259 151.248L58.5885 151.302C59.4822 151.865 60.224 152.401 60.9569 152.91L61.2161 153.098C67.2579 157.308 73.7288 160.454 80.2979 163.582L80.6018 163.716L81.6743 164.225L81.8084 164.288C94.321 170.187 107.424 176.309 119.82 189.608V189.662C121.465 191.449 123.1 193.317 124.709 195.346C124.843 195.507 124.995 195.713 125.174 195.945C126.523 197.733 129.178 201.495 132.422 206.161L132.628 206.456L135.309 210.37L135.416 210.522C144.264 223.339 155.383 239.73 157.099 242.278L157.251 242.501L157.304 242.59L157.894 243.18C162.184 247.506 163.311 249.061 164.732 250.447L164.803 250.518L164.901 250.607C165.791 251.436 166.741 252.198 167.744 252.887H167.806C168.593 253.45 169.549 254.111 170.764 254.933L171.185 255.219C175.037 257.82 181.32 261.967 192.286 269.359L194.708 270.976L194.932 271.128C195.495 271.521 196.532 272.272 197.979 273.345L198.042 273.398C210.036 281.389 226.267 292.167 248.37 306.825L264.645 317.631L270.195 321.313C286.569 332.19 303.113 343.299 320.094 354.141C329.8 360.343 339.65 366.457 349.687 372.391C392.945 370.407 430.349 349.457 447.428 319.427C449.99 314.927 452.086 310.177 453.685 305.252C457.746 292.75 458.364 279.384 455.472 266.561C455.067 264.702 454.593 262.84 454.051 260.975C418.015 137.001 280.25 186.462 213.218 173.646C157.269 162.947 111.267 141.774 76.133 115.06Z" fill="#7451FB"/>
<path d="M442.636 257.677C445.023 307.227 386.41 348.01 324.124 356.044L321.353 354.257C317.411 351.674 313.416 349.055 309.403 346.41L299.375 339.796C298.562 339.251 297.74 338.706 296.9 338.16L292.261 335.095L289.437 333.227L284.494 329.947L274.663 323.458L270.641 320.777L265.019 317.032C259.192 313.165 253.701 309.509 248.547 306.065C246.313 304.582 244.087 303.092 241.871 301.597C240.387 300.613 238.897 299.627 237.402 298.638L234.846 296.931C262.919 270.199 356.603 266.659 383.38 245.513C398.333 233.715 403.659 225.341 414.724 225.511C420.194 225.591 427.049 227.745 437.166 232.589C439.562 240.982 442.225 249.16 442.636 257.677Z" fill="#6A4AE4"/>
<path d="M440.68 243.02C429.455 145.68 313.141 174.128 253.947 178.856C252.705 178.964 251.489 179.044 250.3 179.124C246.386 179.375 242.513 179.533 238.681 179.598C237.984 179.598 237.278 179.598 236.59 179.598C147.813 180.492 89.6647 133.882 80.8432 125.275C70.6722 115.346 65.113 119.707 72.4955 131.988C79.6456 143.91 89.2893 153.76 85.5981 160.007C79.8333 169.767 53.512 147.637 41.9378 128.207C30.3636 108.777 25.153 115.9 31.7578 130.888C70.0466 217.932 131.323 280.236 220.574 308.041C223.744 309.036 226.949 309.98 230.191 310.874C342.152 342.021 449.859 322.573 440.68 243.02ZM12.0496 6.88339C7.76848 -5.18239 -1.03508 0.385766 0.949067 10.0295C3.4516 22.3276 16.3039 18.9939 12.0496 6.88339Z" fill="#FF655D"/>
<path d="M230.191 310.918C226.944 310.019 223.738 309.074 220.574 308.085C221.549 308.13 250.918 312.742 249.497 301.266C247.986 289.048 210.975 295.957 183.421 283.775C155.866 271.593 127.06 245.549 133.531 234.538C138.956 225.332 156.206 241.688 158.154 224.822C159.942 209.28 122.1 196.097 130.635 186.149C135.998 179.893 143.228 184.103 173.536 193.103C217.643 206.179 301.496 209.637 302.184 194.98C303.015 177.31 267.577 179.08 253.921 178.892C313.114 174.164 429.429 145.716 440.654 243.055C449.86 322.573 342.153 342.021 230.191 310.918ZM115.969 207.153C104.913 194.104 96.4041 201.039 103.456 211.622C112.367 225.001 127.051 220.211 115.969 207.153Z" fill="#FF8B7A"/>
<path d="M322.096 268.116C318.628 259.411 317.037 253.039 317.011 246.934C316.823 205.133 349.964 192.54 373.595 193.8C402.99 195.364 424.405 217.038 426.952 238.032C431.859 278.368 403.08 303.152 370.02 303.152C362.137 303.152 352.538 299.577 345.665 294.885C335.2 288.649 326.956 279.286 322.096 268.116Z" fill="#FFC165"/>
<path opacity="0.9" d="M340.578 270.332C346.764 274.304 353.962 276.414 361.313 276.41C386.428 276.41 400.639 255.201 399.745 236.191C402.395 234.277 404.681 231.904 406.493 229.184C404.026 230.281 401.408 231.001 398.726 231.32C401.551 229.627 403.663 226.965 404.67 223.83C402.019 225.409 399.117 226.521 396.09 227.119C394.051 224.948 391.353 223.51 388.414 223.027C385.476 222.545 382.46 223.044 379.834 224.449C377.207 225.854 375.118 228.085 373.888 230.797C372.658 233.51 372.357 236.552 373.031 239.453C367.653 239.185 362.392 237.788 357.589 235.354C352.786 232.919 348.549 229.502 345.154 225.322C343.426 228.3 342.896 231.823 343.673 235.177C344.45 238.531 346.475 241.463 349.337 243.377C347.19 243.312 345.091 242.733 343.215 241.687C343.181 244.835 344.247 247.896 346.227 250.343C348.208 252.79 350.979 254.47 354.065 255.094C352.071 255.634 349.981 255.714 347.952 255.326C348.816 258.014 350.499 260.364 352.765 262.049C355.031 263.733 357.767 264.667 360.589 264.72C354.926 269.168 347.729 271.186 340.578 270.332Z" fill="white"/>
<g opacity="0.9">
<path opacity="0.9" d="M204.103 238.853C203.028 238.602 202.005 238.164 201.082 237.558L202.592 234.161C204.196 235.183 206.054 235.737 207.955 235.761C209.743 235.761 210.636 235.323 210.636 234.438C210.632 234.208 210.556 233.985 210.421 233.8C210.285 233.614 210.095 233.475 209.877 233.401C209.089 233.094 208.275 232.858 207.446 232.695C206.404 232.471 205.379 232.173 204.38 231.802C203.566 231.505 202.841 231.006 202.271 230.354C201.651 229.602 201.332 228.646 201.377 227.672C201.365 226.716 201.649 225.779 202.19 224.991C202.808 224.14 203.658 223.485 204.639 223.105C205.898 222.606 207.245 222.369 208.599 222.408C209.66 222.406 210.719 222.526 211.754 222.766C212.717 222.977 213.643 223.336 214.497 223.829L213.085 227.243C211.71 226.452 210.158 226.019 208.572 225.983C207.882 225.935 207.193 226.077 206.579 226.394C206.389 226.499 206.231 226.651 206.119 226.836C206.008 227.021 205.947 227.233 205.944 227.449C205.95 227.67 206.026 227.883 206.161 228.058C206.296 228.233 206.483 228.361 206.695 228.423C207.466 228.727 208.265 228.955 209.081 229.102C210.13 229.323 211.161 229.622 212.165 229.996C212.979 230.293 213.707 230.788 214.283 231.435C214.907 232.185 215.226 233.142 215.177 234.116C215.187 235.073 214.903 236.009 214.363 236.798C213.745 237.645 212.899 238.299 211.923 238.684C210.67 239.191 209.325 239.435 207.973 239.399C206.664 239.389 205.363 239.206 204.103 238.853Z" fill="white"/>
<path opacity="0.9" d="M229.021 227.575C229.532 228.141 229.923 228.805 230.168 229.528C230.414 230.25 230.51 231.015 230.451 231.775V238.979H226.036V232.499C226.036 230.783 225.347 229.916 223.971 229.916C223.637 229.907 223.304 229.969 222.996 230.099C222.688 230.228 222.411 230.422 222.183 230.667C221.677 231.293 221.431 232.09 221.495 232.892V238.979H217.08V221.738H221.495V227.548C221.986 227.095 222.564 226.749 223.193 226.529C223.865 226.292 224.573 226.174 225.285 226.18C225.969 226.153 226.652 226.262 227.293 226.502C227.934 226.741 228.522 227.106 229.021 227.575Z" fill="white"/>
<path opacity="0.9" d="M243.374 227.646C243.955 228.21 244.403 228.894 244.687 229.652C244.972 230.409 245.085 231.22 245.019 232.026V239.015H240.908V237.406C240.27 238.628 239.031 239.241 237.189 239.247C236.319 239.27 235.454 239.095 234.66 238.738C234 238.439 233.439 237.958 233.042 237.352C232.674 236.757 232.484 236.068 232.497 235.368C232.474 234.827 232.587 234.289 232.826 233.804C233.065 233.318 233.422 232.9 233.865 232.589C235.139 231.834 236.615 231.488 238.092 231.597H240.604C240.532 230.265 239.638 229.604 237.922 229.604C237.316 229.613 236.714 229.709 236.135 229.89C235.563 230.059 235.027 230.331 234.553 230.694L233.069 227.7C233.847 227.196 234.705 226.83 235.608 226.618C236.591 226.363 237.603 226.234 238.619 226.234C240.323 226.118 242.011 226.619 243.374 227.646ZM239.799 236.065C240.192 235.807 240.486 235.423 240.63 234.975V233.885H238.727C237.44 233.885 236.796 234.305 236.796 235.163C236.798 235.336 236.839 235.507 236.916 235.661C236.993 235.816 237.105 235.952 237.243 236.057C237.594 236.306 238.02 236.429 238.45 236.405C238.914 236.42 239.373 236.302 239.772 236.065H239.799Z" fill="white"/>
<path opacity="0.9" d="M253.795 226.681C254.586 226.383 255.426 226.237 256.271 226.252V230.22C255.938 230.181 255.604 230.16 255.27 230.158C254.459 230.108 253.663 230.382 253.053 230.917C252.765 231.233 252.545 231.605 252.407 232.009C252.268 232.414 252.215 232.842 252.249 233.268V239.051H247.807V226.458H252.007V227.968C252.475 227.385 253.093 226.94 253.795 226.681Z" fill="white"/>
<path opacity="0.9" d="M270.776 233.831H261.588C261.752 234.445 262.137 234.977 262.67 235.324C263.273 235.695 263.973 235.878 264.681 235.851C265.214 235.861 265.744 235.773 266.245 235.592C266.737 235.395 267.19 235.113 267.585 234.761L269.909 237.174C269.218 237.884 268.38 238.434 267.453 238.788C266.527 239.141 265.536 239.289 264.547 239.22C263.206 239.25 261.877 238.962 260.668 238.38C259.601 237.866 258.703 237.061 258.076 236.056C257.614 235.312 257.311 234.48 257.184 233.612C257.058 232.745 257.111 231.861 257.341 231.015C257.57 230.17 257.971 229.38 258.519 228.696C259.067 228.012 259.75 227.448 260.525 227.038C261.63 226.471 262.858 226.185 264.1 226.207C265.284 226.19 266.454 226.457 267.514 226.985C268.523 227.488 269.366 228.27 269.945 229.237C270.562 230.296 270.871 231.506 270.839 232.732C270.839 232.732 270.776 233.143 270.776 233.831ZM262.428 229.925C261.952 230.33 261.635 230.89 261.535 231.507H266.692C266.596 230.889 266.278 230.326 265.798 229.925C265.309 229.548 264.708 229.344 264.091 229.344C263.473 229.344 262.873 229.548 262.384 229.925H262.428Z" fill="white"/>
<path opacity="0.9" d="M282.297 238.389C281.246 237.86 280.362 237.049 279.745 236.046C279.128 235.044 278.801 233.891 278.801 232.714C278.801 231.537 279.128 230.383 279.745 229.381C280.362 228.379 281.246 227.568 282.297 227.038C283.436 226.479 284.692 226.197 285.961 226.216C287.233 226.198 288.492 226.479 289.635 227.038C290.689 227.553 291.572 228.36 292.181 229.363C292.789 230.366 293.097 231.523 293.067 232.696C293.094 233.881 292.784 235.049 292.173 236.065C291.563 237.061 290.687 237.866 289.644 238.389C288.505 238.962 287.245 239.25 285.97 239.229C284.695 239.255 283.434 238.966 282.297 238.389ZM287.847 234.912C288.371 234.297 288.636 233.503 288.589 232.696C288.634 231.9 288.368 231.118 287.847 230.515C287.604 230.255 287.309 230.05 286.981 229.913C286.652 229.776 286.299 229.71 285.943 229.72C285.588 229.708 285.233 229.773 284.905 229.91C284.577 230.048 284.282 230.254 284.04 230.515C283.513 231.115 283.243 231.898 283.289 232.696C283.239 233.504 283.509 234.3 284.04 234.912C284.28 235.176 284.575 235.385 284.903 235.523C285.232 235.662 285.587 235.728 285.943 235.717C286.3 235.726 286.654 235.66 286.982 235.521C287.311 235.382 287.606 235.175 287.847 234.912Z" fill="white"/>
<path opacity="0.9" d="M307.073 227.575C307.585 228.141 307.975 228.805 308.221 229.528C308.467 230.25 308.563 231.015 308.504 231.775V238.979H304.088V232.499C304.088 230.783 303.4 229.916 302.024 229.916C301.69 229.907 301.357 229.969 301.049 230.099C300.741 230.228 300.464 230.422 300.236 230.667C299.733 231.295 299.487 232.09 299.548 232.893V238.979H295.133V226.386H299.342V227.762C299.845 227.244 300.455 226.841 301.13 226.583C301.843 226.31 302.601 226.173 303.364 226.18C304.044 226.157 304.722 226.268 305.358 226.507C305.995 226.746 306.578 227.109 307.073 227.575Z" fill="white"/>
<path opacity="0.9" d="M205.944 252.85H200.697V248.131H217.241V252.815H211.985V266.06H205.944V252.85Z" fill="white"/>
<path opacity="0.9" d="M241.747 252.081L236.885 266.095H231.245L229.118 259.615L226.92 266.095H221.289L216.418 252.081H221.897L224.31 259.481L226.821 252.081H231.737L234.168 259.562L236.68 252.081H241.747Z" fill="white"/>
<path opacity="0.9" d="M243.248 250.124C242.945 249.861 242.702 249.537 242.536 249.172C242.369 248.807 242.283 248.411 242.283 248.01C242.283 247.609 242.369 247.213 242.536 246.848C242.702 246.484 242.945 246.159 243.248 245.896C243.957 245.318 244.855 245.022 245.769 245.065C246.683 245.019 247.583 245.301 248.307 245.861C248.61 246.107 248.853 246.42 249.018 246.774C249.182 247.129 249.263 247.517 249.254 247.907C249.264 248.319 249.184 248.728 249.021 249.106C248.857 249.484 248.614 249.822 248.307 250.097C247.606 250.709 246.698 251.028 245.769 250.991C244.85 251.024 243.952 250.715 243.248 250.124ZM242.873 252.081H248.664V266.095H242.873V252.081Z" fill="white"/>
<path opacity="0.9" d="M261.545 265.604C260.437 266.157 259.205 266.412 257.97 266.346C256.335 266.455 254.718 265.948 253.438 264.925C252.88 264.372 252.448 263.705 252.173 262.969C251.899 262.232 251.787 261.445 251.847 260.662V257.087H249.926V252.859H251.847V248.945H257.639V252.859H260.508V257.069H257.639V260.644C257.615 261.005 257.734 261.361 257.97 261.636C258.083 261.758 258.221 261.854 258.376 261.916C258.531 261.978 258.697 262.004 258.863 261.993C259.331 262.005 259.79 261.87 260.177 261.609L261.545 265.604Z" fill="white"/>
<path opacity="0.9" d="M273.074 265.604C271.967 266.157 270.735 266.412 269.499 266.346C267.861 266.454 266.243 265.947 264.959 264.925C264.403 264.371 263.974 263.702 263.701 262.967C263.428 262.231 263.317 261.444 263.377 260.662V257.087H261.455V252.859H263.377V248.945H269.159V252.859H272.028V257.069H269.159V260.644C269.139 261.006 269.261 261.362 269.499 261.636C269.611 261.759 269.75 261.855 269.905 261.917C270.06 261.979 270.226 262.005 270.393 261.993C270.857 262.004 271.313 261.869 271.698 261.609L273.074 265.604Z" fill="white"/>
<path opacity="0.9" d="M288.975 260.438H279.242C279.437 260.948 279.799 261.377 280.27 261.654C280.819 261.947 281.435 262.092 282.057 262.074C282.582 262.086 283.105 262.007 283.603 261.842C284.096 261.646 284.557 261.378 284.971 261.046L288.001 264.094C286.633 265.595 284.586 266.346 281.878 266.346C280.34 266.395 278.811 266.089 277.409 265.452C276.194 264.883 275.166 263.982 274.442 262.852C273.736 261.735 273.37 260.437 273.388 259.116C273.367 257.791 273.727 256.488 274.424 255.362C275.12 254.261 276.102 253.371 277.266 252.788C278.505 252.196 279.858 251.882 281.23 251.868C282.603 251.854 283.962 252.141 285.212 252.707C286.358 253.254 287.326 254.116 288.001 255.192C288.715 256.374 289.074 257.736 289.037 259.116C289.055 259.16 289.028 259.616 288.975 260.438ZM279.912 256.256C279.501 256.613 279.229 257.103 279.143 257.641H283.612C283.523 257.11 283.251 256.626 282.844 256.273C282.426 255.932 281.899 255.755 281.36 255.773C280.836 255.761 280.324 255.932 279.912 256.256Z" fill="white"/>
<path opacity="0.9" d="M300.915 251.831V256.953C300.492 256.885 300.065 256.849 299.637 256.845C297.653 256.845 296.661 257.852 296.661 259.866V266.123H290.869V252.108H296.384V253.619C296.959 253.004 297.664 252.524 298.448 252.215C299.232 251.906 300.074 251.775 300.915 251.831Z" fill="white"/>
</g>
</svg>
