<svg xmlns="http://www.w3.org/2000/svg" xmlns:xlink="http://www.w3.org/1999/xlink" viewBox="0 0 1920 264"><path d="M1369.69,29.27c.1,1.92-1.37-10.07,23.58,186.53,4.4,34.42,25.41,40.95,47.78,35.87,109.9-22.61,346.52-64.59,455-116.68,13.47-6.46,22-29.71,18.3-49.52l-9.84-61.35c-2.69-15.06-11.66-24.25-21.86-23.8h-494.2C1377.27-.28,1368.59,12.44,1369.69,29.27Z" style="fill:url(#top-right-lg)" /><path d="M1369.69,29.27c.07,1,.16,1.95.29,2.93l23.29,183.6c4.4,34.42,25.42,40.95,47.78,35.87C1425.3,192,1410,123.6,1394.59,60.76c-5.68-23.21-13.11-51.47,20.25-60.49-8.6-.36-17.72.41-26.37,0C1377.42-.27,1368.61,12.16,1369.69,29.27Z" style="fill:url(#top-right-lg-2)" /><path d="M1504,69.19v.1l-15.5,61.56L1298.29,161.9l-43.52-83.43c-3.63-7.88-1.37-19.51,4.32-22.19l84.5-39.8a7.84,7.84,0,0,1,5.35-.56Z" style="fill:url(#top-right-lg-3)" /><path d="M1488.52,130.88a2.21,2.21,0,0,1-.3.84,1.23,1.23,0,0,1-.5.49l-98.47,50.61a25.82,25.82,0,0,1-19.74,2l-69.62-21.15a2.43,2.43,0,0,1-1.28-1l-.35-.69a5.91,5.91,0,0,1-.42-1.63,7.4,7.4,0,0,1,0-1.76,6.14,6.14,0,0,1,.44-1.61,3.8,3.8,0,0,1,.79-1.2l52.32-50.85c6.35-6.21,13.82-8.56,21.11-6.65l115,29.94a1.15,1.15,0,0,1,.49.33,2.2,2.2,0,0,1,.37.64,3.06,3.06,0,0,1,.17.82,3.16,3.16,0,0,1,0,.87Z" style="fill:url(#top-right-lg-4)" /><path d="M1341.2,187.85l-8.91-27.32a4.18,4.18,0,0,1,0-1.69,2.58,2.58,0,0,1,.65-1.3L1363.4,128c3.68-3.61,8-5,12.26-3.87l66.78,17.39a.59.59,0,0,1,.29.19,1.27,1.27,0,0,1,.22.38,1.78,1.78,0,0,1,.1.48,1.51,1.51,0,0,1,0,.52l-2.16,29-99.54,16.24Z" style="fill:url(#top-right-lg-5)" /><path d="M1440.82,172.07a1.15,1.15,0,0,1-.16.44.56.56,0,0,1-.27.26l-51.49,26.47a13.54,13.54,0,0,1-10.33,1l-36.42-11.07a1.2,1.2,0,0,1-.67-.55l-.18-.36a3,3,0,0,1-.22-.85,3.54,3.54,0,0,1,0-.92,3.15,3.15,0,0,1,.23-.84,1.91,1.91,0,0,1,.41-.62l27.37-26.59c3.32-3.24,7.22-4.48,11-3.49l60.17,15.65a.61.61,0,0,1,.26.18,1,1,0,0,1,.2.34,1.49,1.49,0,0,1,.09.44,1.78,1.78,0,0,1,0,.46Z" style="fill:url(#top-right-lg-6)" /><path d="M1913.15-1.07,1684.08,114a33.17,33.17,0,0,1-23.32,1.46l-64.53-20.83c10.53,2.84,21.34,1.17,31.37-4.85L1780.93-1.07Z" style="fill:url(#top-right-lg-7)" /><path d="M1781.09-1.07l-153.5,90.88c-11.3,6.76-23.55,8-35.27,3.59L1510,62.29l-30.38,35.09a1.17,1.17,0,0,1-1.18.42L1411.69,79c-1.45-.45-2.62-2.37-2.89-4.76l-4.91-39.92L1467,1.83A31.46,31.46,0,0,1,1489.51.37L1592,32c8.3,2.52,16.87.37,24.34-6.1l29.06-26.95Z" style="fill:url(#top-right-lg-8)" /><path d="M1510,62.29l-6,6.9-24.42,28.19a1.17,1.17,0,0,1-1.18.42L1411.69,79a3.33,3.33,0,0,1-1.62-1.25l54-27.4a18.45,18.45,0,0,1,16-.64Z" style="fill:url(#top-right-lg-9)" /><path d="M1324.54,90.06c2.43,18-3.73,35.36-13.76,38.71-5.25,1.76-15.46-.08-20.47-19-7.29-27.6,3.87-43.65,11.74-46.28C1312.07,60.09,1322.11,72.05,1324.54,90.06Z" style="fill:url(#top-right-lg-10)" /><path d="M1315.52,94.31c2,13.5-1.91,26-8.67,28-6.12,1.78-11.47-5.19-14.25-14.53-5-16.9-.24-32.27,7.11-34.4C1306.46,71.43,1313.55,80.78,1315.52,94.31Z" style="fill:url(#top-right-lg-11)" /><path d="M1302.35,109.42,1285.51,115c-4.28,1.07-8.15,4.8-10.8,10.41a41.34,41.34,0,0,0-3.45,19.77c1.47,26.78,3.85,42.54-3.63,61.85-12.85,16-22.38,40.8-31.89,22.32-2.91-4.09,4.2-12.86,10.27-18.89,17.64-17.54,14.57-26.47,12.57-62.94-1.44-26.43,9.72-50,25.4-53.72l16.84-5.56C1309.16,86.29,1310.69,107.48,1302.35,109.42Z" style="fill:url(#top-right-lg-12)" /><defs><linearGradient id="top-right-lg" x1="1642.42" y1="448.21" x2="1642.36" y2="621.02" gradientTransform="translate(0 -448)" gradientUnits="userSpaceOnUse"><stop offset="0" stop-color="#7200a0" /><stop offset="1" stop-color="#8c09b0" /></linearGradient><linearGradient id="top-right-lg-2" x1="1390.99" y1="456.92" x2="1422.6" y2="696.71" gradientTransform="translate(0 -448)" gradientUnits="userSpaceOnUse"><stop offset="0" stop-color="#7a13b4" /><stop offset="1" stop-color="#bc13bc" /></linearGradient><linearGradient id="top-right-lg-3" x1="1296.24" y1="148.81" x2="1387.45" y2="181.96" gradientTransform="matrix(1, 0, 0, -1, 0, 266)" gradientUnits="userSpaceOnUse"><stop offset="0.6" stop-color="#a12ab9" /><stop offset="0.9" stop-color="#64209b" /></linearGradient><linearGradient id="top-right-lg-4" x1="1344.84" y1="60.58" x2="1426.66" y2="164.05" gradientTransform="matrix(1, 0, 0, -1, 0, 266)" gradientUnits="userSpaceOnUse"><stop offset="0" stop-color="#ff0bbe" /><stop offset="0.92" stop-color="#b80cd2" /></linearGradient><linearGradient id="top-right-lg-5" x1="1342.51" y1="98.35" x2="1390.37" y2="113.24" gradientTransform="matrix(1, 0, 0, -1, 0, 266)" gradientUnits="userSpaceOnUse"><stop offset="0.49" stop-color="#a12ab9" /><stop offset="0.9" stop-color="#64209b" /></linearGradient><linearGradient id="top-right-lg-6" x1="1365.67" y1="54.94" x2="1408.46" y2="109.06" xlink:href="#top-right-lg-4" /><linearGradient id="top-right-lg-7" x1="1657.03" y1="-9" x2="1762.57" y2="237.61" gradientTransform="matrix(1, 0, 0, -1, 0, 266)" gradientUnits="userSpaceOnUse"><stop offset="0" stop-color="#ff0bbe" /><stop offset="1" stop-color="#b80cd2" /></linearGradient><linearGradient id="top-right-lg-8" x1="1655.87" y1="247.23" x2="1425.49" y2="188.31" gradientTransform="matrix(1, 0, 0, -1, 0, 266)" gradientUnits="userSpaceOnUse"><stop offset="0" stop-color="#8e27b0" /><stop offset="1" stop-color="#a22aba" /></linearGradient><linearGradient id="top-right-lg-9" x1="1427.32" y1="119.45" x2="1464.58" y2="206.63" xlink:href="#top-right-lg-7" /><linearGradient id="top-right-lg-10" x1="1299.72" y1="203.94" x2="1313.03" y2="138.51" gradientTransform="matrix(1, 0, 0, -1, 0, 266)" gradientUnits="userSpaceOnUse"><stop offset="0" stop-color="#921baa" /><stop offset="1" stop-color="#d429c8" /></linearGradient><linearGradient id="top-right-lg-11" x1="1299.67" y1="197.09" x2="1306.36" y2="144.01" gradientTransform="matrix(1, 0, 0, -1, 0, 266)" gradientUnits="userSpaceOnUse"><stop offset="0" stop-color="#a720b4" /><stop offset="1" stop-color="#c126c0" /></linearGradient><linearGradient id="top-right-lg-12" x1="1283.92" y1="91.32" x2="1192.7" y2="189.91" gradientTransform="matrix(1, 0, 0, -1, 0, 266)" gradientUnits="userSpaceOnUse"><stop offset="0.07" stop-color="#8425a6" /><stop offset="0.9" stop-color="#7022a1" /></linearGradient></defs></svg>