<svg xmlns="http://www.w3.org/2000/svg" xmlns:xlink="http://www.w3.org/1999/xlink" viewBox="0 0 1920 162"><path d="M544.62,19c-.1,1.22,1.35-6.39-23.19,118.41-4.33,21.85-25,26-47,22.77-108.08-14.35-340.83-41-447.53-74.07C13.64,82,5.28,67.25,8.89,54.68l9.67-38.95C21.23,6.17,30.05.34,40.08.62H526.17C537.17.24,545.7,8.32,544.62,19Z" style="fill:url(#top-left-lg)" /><path d="M544.63,19c-.08.62-.16,1.24-.29,1.86-2.12,10.83,1.91-9.71-22.91,116.55-4.33,21.85-25,26-47,22.77C489.91,122.3,505,78.88,520.12,39,525.71,24.26,533,6.32,500.2.59c8.47-.23,17.44.26,25.95,0C537,.25,545.68,8.14,544.63,19Z" style="fill:url(#top-left-lg-2)" /><path d="M502.07,31.93Q476.6,20.9,451.15,10a9.34,9.34,0,0,0-12.7,6.79q-8.32,51.78-16.65,103.27a9.78,9.78,0,0,0,7.6,10.85q21.19,4.67,42.4,9.51a37.93,37.93,0,0,0,9.87.72c5-.15,9.81-1.36,11.83-6.69,9.8-26.86,20-54.81,29.83-82.16a7.81,7.81,0,0,0-2.82-9C514.77,39.08,508.6,34.82,502.07,31.93Z" style="fill-rule:evenodd;fill:url(#top-left-lg-3)" /><path d="M484.14,140.93h-.23a10.41,10.41,0,0,1-2.94-.32q-17.69-4.5-35.36-8.89a11.17,11.17,0,0,1-8.41-13.34q11-44.46,22-89.31a8.66,8.66,0,0,1,4.5-5.55,8.72,8.72,0,0,1,7.14-.31q23.9,9.54,47.79,19.22a7.31,7.31,0,0,1,1.56.89,7.71,7.71,0,0,1,2.82,9c-9.79,27.35-20,55.3-29.82,82.16a10,10,0,0,1-9,6.47Z" style="fill:url(#top-left-lg-4)" /><path d="M541.08,72.5c3.72,2.23,3.36,4.22,1.8,8l-27.48,49c-1.81,2.38-5.64,3.3-8.26,3.08a59.56,59.56,0,0,1-10.69-1.73q-17.58-4.87-35.19-9.58c-4-1.09-6.62-4.1-6.05-6.9,2.59-12.76,9.36-46.24,12.2-60.37.7-3.46,5.87-5.5,10.45-4.05q22.83,7.19,45.6,14.53a66,66,0,0,1,9.36,3.8Z" style="fill:url(#top-left-lg-5)" /><path d="M542.21,82q-13.34,23.94-26.73,47.4c-1.3,2.3-4.87,3.61-8.52,3.24-.89-.11-32.64-9.43-32.64-9.39-5-1.42-8.05-5.24-6.93-8.6q8.72-26.28,17.45-52.8c1-3.07,5.8-4.74,10.07-3.46Q517.2,65,539.51,71.89C547.5,74.38,543.09,80.17,542.21,82Z" style="fill:url(#top-left-lg-6)" /><path d="M443,.6c-.39-.3-.81.26-1.24,0-33.72.45-72.37-.14-113.26,0h-9.87c-21.27,0-43.09.08-65.08,0H224.22C208.06.47,191.9.8,175.9.6,171.59,17.1,167.29,34.39,163,51c-2.67,10.27,4.39,20.52,15.91,23.12,75.49,16.9,151,33.57,226.49,51.1a15.7,15.7,0,0,0,2.74.37c6.17.26,11.86-3.36,13.29-8.89q4.06-15.56,8.14-31.12,9.19-35.26,18.4-70.64C449.22,9.91,447.16,3.64,443,.6Z" style="fill:url(#top-left-lg-7)" /><path d="M408.12,125.51l-16.44.25a25.3,25.3,0,0,1-5.56-.51C304,108.84,221.85,93.33,139.72,77.52c-12.61-2.5-21-13.07-19.5-24.5Q125,26.77,129.72.6h46.16C171.58,17.1,167.27,34.39,163,51c-2.67,10.27,4.39,20.52,15.92,23.12,75.48,16.9,151,33.57,226.48,51.1A16.82,16.82,0,0,0,408.12,125.51Z" style="fill:url(#top-left-lg-8)" /><path d="M410.71,59.47l-12.45,43.66,8.83,2.31,12.37-43.58Zm-21.93-48-23.89,83,9,2.32,23.78-82.95Zm-4.5,78.19-2.67,9.19,8.89,2.33,2.67-9.2ZM372.1,7,348,90.2l9,2.33,24-83.15Zm-26.56,29L331,85.84l9.1,2.35,14.47-49.87ZM318.65.67l-22,76.38,9.24,2.29L328.52.59Zm-2,71.48-2.73,9.31,9.18,2.35,2.66-9.3ZM287.45,44.8l-8.21,27.82L288.55,75l8.18-27.77ZM279.24,9.08,261.73,68.17l9.37,2.28,17.44-59Zm-21.78,9.68L244.12,63.67l9.45,2.4,13.34-44.81ZM243.38.67,226.3,59.06l9.52,2.43L253.61.6ZM224.2.67,208.39,54.56,218,57,234.47.67ZM198.91,21.51,190.35,50,200,52.44l8.52-28.36Z" style="fill:url(#top-left-lg-9)" /><defs><linearGradient id="top-left-lg" x1="293.98" y1="182.95" x2="256.64" y2="34.06" gradientTransform="matrix(1, 0, 0, -1, 0, 164)" gradientUnits="userSpaceOnUse"><stop offset="0" stop-color="#7200a0" /><stop offset="1" stop-color="#8c09b0" /></linearGradient><linearGradient id="top-left-lg-2" x1="520.61" y1="158.49" x2="500.25" y2="4.06" gradientTransform="matrix(1, 0, 0, -1, 0, 164)" gradientUnits="userSpaceOnUse"><stop offset="0" stop-color="#7a13b4" /><stop offset="1" stop-color="#bc13bc" /></linearGradient><linearGradient id="top-left-lg-3" x1="485.21" y1="144.58" x2="451.76" y2="27.65" gradientTransform="matrix(1, 0, 0, -1, 0, 164)" gradientUnits="userSpaceOnUse"><stop offset="0" stop-color="#74209c" /><stop offset="0.17" stop-color="#9529c7" /><stop offset="0.91" stop-color="#b01fc8" /><stop offset="1" stop-color="#cb31c5" /></linearGradient><linearGradient id="top-left-lg-4" x1="489.31" y1="116.92" x2="464.19" y2="27.1" gradientTransform="matrix(1, 0, 0, -1, 0, 164)" gradientUnits="userSpaceOnUse"><stop offset="0.17" stop-color="#ab17c3" /><stop offset="1" stop-color="#ea0ed4" /></linearGradient><linearGradient id="top-left-lg-5" x1="507.81" y1="108.65" x2="491.98" y2="32.2" xlink:href="#top-left-lg-3" /><linearGradient id="top-left-lg-6" x1="510.38" y1="91.3" x2="498.71" y2="32.46" xlink:href="#top-left-lg-4" /><linearGradient id="top-left-lg-7" x1="313.36" y1="165.92" x2="284.61" y2="38.76" gradientTransform="matrix(1, 0, 0, -1, 0, 164)" gradientUnits="userSpaceOnUse"><stop offset="0.28" stop-color="#ab17c3" /><stop offset="1" stop-color="#e90ad3" /></linearGradient><linearGradient id="top-left-lg-8" x1="277.85" y1="147.44" x2="261.79" y2="63.81" gradientTransform="matrix(1, 0, 0, -1, 0, 164)" gradientUnits="userSpaceOnUse"><stop offset="0" stop-color="#7b0fad" /><stop offset="0.78" stop-color="#b01fc8" /><stop offset="1" stop-color="#cb31c5" /></linearGradient><linearGradient id="top-left-lg-9" x1="317.24" y1="160.51" x2="301.09" y2="91.89" gradientTransform="matrix(1, 0, 0, -1, 0, 164)" gradientUnits="userSpaceOnUse"><stop offset="0" stop-color="#ba00d8" /><stop offset="1" stop-color="#e800d1" /></linearGradient></defs></svg>