<svg width="578" height="162" viewBox="0 0 578 162" fill="none" xmlns="http://www.w3.org/2000/svg">
<g opacity="0.1">
<path opacity="0.1" d="M0.898621 64.7716C60.6035 265.4 168.174 92.2689 252.448 92.2689C301.46 92.2689 349.58 109.964 398.719 109.964C466.953 109.964 494.705 89.5956 549.19 64.7716H0.898621Z" fill="#75ACEB"/>
</g>
<path d="M577.45 56.3699C484.647 28.9998 419.468 56.2426 369.438 61.3347C324.755 65.9175 293.693 -19.1205 202.417 4.17585C163.717 14.1054 123.617 38.2929 93.7008 56.4972C132.273 111.874 131.637 111.237 131.764 111.237C166.39 93.7968 188.286 74.7014 217.184 70.1185C234.497 67.4452 257.921 62.0985 284.909 72.6646C369.183 105.763 418.449 105.254 489.866 84.5037C558.482 64.6445 562.174 56.7518 576.177 60.8255L577.45 56.3699Z" fill="#EDA443"/>
<path d="M146.914 103.217C151.497 100.544 149.333 104.872 157.862 77.7566L130.62 74.7013L143.477 51.7869C108.978 44.5306 113.434 46.1856 113.561 44.4033C107.832 47.8405 108.087 46.8221 138.64 53.8237C138.512 54.0783 135.202 59.6796 125.146 77.2474C135.457 78.3931 129.347 77.7566 153.534 80.3026C151.115 88.45 148.951 96.2154 146.914 103.217Z" fill="#DA8E21"/>
<path d="M158.243 96.5974C162.953 93.6694 160.534 98.5069 169.7 69.2274L142.457 66.1721L155.315 43.2577C122.344 36.3833 126.545 36.6379 122.726 38.9294C122.726 39.0567 120.689 38.5475 150.478 45.4218C150.35 45.5491 145.131 54.7149 136.983 68.8455C147.295 69.9912 141.312 69.3547 165.372 71.9007C162.826 80.6846 160.407 89.2139 158.243 96.5974Z" fill="#DA8E21"/>
<path d="M169.445 89.9776C174.283 87.0496 171.864 91.6325 180.775 63.3714C159.516 60.9526 153.66 60.3161 153.533 60.3161L166.39 37.529C146.913 33.4553 136.729 31.4185 136.474 31.4185C132.91 33.328 128.836 32.1823 161.553 39.6931C155.315 50.3865 158.497 45.0398 148.059 63.1168C158.37 64.2625 152.26 63.626 176.447 66.172L169.445 89.9776Z" fill="white"/>
<path d="M208.909 71.7734C209.927 71.5188 210.818 71.2642 211.837 71.1369C188.159 42.4939 203.562 3.9212 193.633 6.84916C195.542 27.2176 190.323 49.6228 208.909 71.7734Z" fill="white"/>
<path d="M196.815 75.8472C197.833 75.4653 198.852 74.9561 199.87 74.7014C190.577 52.0416 194.014 29.7637 185.485 9.52258C180.647 11.1775 184.721 7.48574 187.776 30.1456C190.068 46.5676 190.068 60.4436 196.815 75.8472Z" fill="#DA8E21"/>
<path d="M77.1506 148.537C74.4772 127.277 91.5358 132.115 99.6831 126.514C124.634 109.328 100.829 127.023 93.6999 126.641C86.8255 126.259 75.1137 128.041 72.8222 135.297L70.6582 142.426L63.2746 131.478C63.2746 131.478 73.8407 119.13 82.2427 119.639C90.6446 120.148 112.668 112.638 114.577 104.872C89.3716 124.604 71.1674 107.164 62.7654 126.895L56.1457 118.493C56.1457 118.493 64.1657 107.418 71.9312 106.527C79.9512 105.763 101.211 109.964 106.557 91.3781C93.318 108.946 70.0216 99.9073 63.7838 102.326C60.7285 103.472 55.2545 110.092 55.2545 110.092L47.9983 103.854C47.9983 103.854 51.1808 95.961 62.0015 92.9057C77.4051 88.5774 92.8088 103.981 100.065 79.9209C83.1338 103.599 54.1088 76.1018 45.4522 103.217L39.2144 88.9593C58.4371 69.7366 79.8239 91.3781 91.5357 66.0449C74.6045 77.2475 61.6196 64.008 40.6147 82.085L32.9766 74.4468C74.6045 53.4419 83.8976 64.2626 93.6999 56.4972L131.891 111.237C91.663 143.317 89.2443 128.678 85.0433 138.48C79.6966 150.956 91.1538 151.465 77.1506 148.537Z" fill="#DA8E21"/>
</svg>
