<svg width="299" height="293" viewBox="0 0 299 293" fill="none" xmlns="http://www.w3.org/2000/svg">
<path opacity="0.1" d="M213.859 0.0390625C213.859 195.78 215.269 186.384 210.728 186.384C-16.1751 186.384 -0.202684 187.167 0.580279 184.818C54.2916 144.261 132.901 140.816 132.901 99.9452C132.744 81.4672 93.2831 2.38795 213.859 0.0390625Z" fill="#75ACEB"/>
<path d="M195.554 136.931C148.004 136.232 75.7479 126.442 99.2895 104.998C120.267 85.8853 212.802 80.2912 266.878 92.8779C325.15 106.164 287.856 138.33 195.554 136.931Z" fill="#F3AE51"/>
<path d="M295.548 168.397C294.149 242.052 297.646 233.428 291.819 236.225C227.021 269.324 134.019 251.842 106.981 239.722C97.658 235.526 99.7557 233.894 97.4249 186.811C95.7933 154.645 94.1617 139.495 95.3272 113.622C95.5603 106.163 94.861 118.284 130.756 125.743C174.809 134.833 273.172 133.201 292.285 111.524C295.548 107.562 294.616 116.652 294.849 124.344C294.849 139.728 296.014 155.111 295.548 168.397Z" fill="#F3AE51"/>
<path opacity="0.55" d="M261.051 125.743C245.201 137.863 191.358 128.773 179.704 152.314C172.012 168.164 174.343 211.751 176.207 228.533C180.636 269.09 275.502 240.887 278.998 241.586C277.833 240.421 278.299 245.549 252.659 250.443C190.659 262.797 101.387 248.113 100.221 231.33C100.221 231.097 92.5294 113.622 96.2588 111.524C99.0558 109.893 95.7927 117.118 122.831 123.878C178.305 138.096 261.517 126.442 261.051 125.743Z" fill="#DD9738"/>
<path d="M108.381 113.156C129.592 88.2156 264.316 86.351 282.963 109.893C306.271 138.795 87.4035 137.63 108.381 113.156Z" fill="#FDE244"/>
<path d="M294.383 178.187C281.796 183.315 267.345 182.616 245.202 182.849C264.781 178.886 283.894 172.36 297.646 157.675C300.676 154.412 295.315 149.984 292.751 151.382C243.57 176.788 163.155 179.119 133.32 167.698C120.035 162.57 107.448 155.811 96.0268 147.42C92.9967 145.089 80.6431 151.149 124.696 170.262C115.373 169.097 106.05 167.465 96.9592 163.969C93.696 162.803 81.8085 171.894 134.02 176.555C153.832 178.42 154.997 182.383 186.464 186.112C156.862 189.841 127.26 191.007 98.1246 185.879C93.9291 185.179 92.2974 191.473 96.493 192.172C151.501 201.729 180.637 189.841 249.63 188.676C272.473 188.21 285.293 188.443 296.248 183.781C299.045 182.149 297.646 176.788 294.383 178.187ZM176.208 178.886C212.803 179.819 248.931 176.089 282.728 161.871C265.48 173.525 222.826 186.345 176.208 178.886Z" fill="#FFF5CB"/>
<path d="M221.892 66.7721C221.892 104.066 165.252 104.299 165.252 66.7721C165.252 51.1553 177.839 2.20728 193.455 2.20728C209.305 2.20728 221.892 51.1553 221.892 66.7721Z" fill="#FFB024"/>
<path d="M216.997 72.5994C216.997 102.434 172.012 102.434 172.012 72.5994C172.012 60.2458 182.034 21.0874 194.621 21.0874C206.975 21.0874 216.997 60.0128 216.997 72.5994Z" fill="#FFE164"/>
<path d="M196.952 65.3737C187.396 56.0502 192.99 132.502 199.749 111.525C203.479 100.337 199.283 67.7045 196.952 65.3737Z" fill="#512410"/>
<path d="M214.486 215.98C201.332 217.39 192.093 228.351 171.266 248.238C164.846 254.346 157.956 261.705 157.956 270.631C158.113 280.653 167.508 288.483 177.217 290.675C196.165 294.903 220.593 282.062 255.044 289.579C264.752 291.771 276.027 295.216 284.013 289.109C291.373 283.628 291.843 272.354 287.615 264.211C283.387 256.068 275.87 250.431 268.51 244.95C253.634 234.145 234.843 213.945 214.486 215.98Z" fill="white"/>
<path d="M282.447 256.695C282.76 262.645 280.881 268.596 276.183 272.041C262.09 282.689 249.563 264.681 199.296 272.197C184.577 274.389 169.857 277.521 158.112 268.282C156.703 279.4 166.568 288.326 177.217 290.675C196.164 294.903 220.593 282.063 255.043 289.579C264.752 291.771 276.027 295.216 284.013 289.109C291.529 283.472 293.878 269.379 282.447 256.695Z" fill="#BDD4F0"/>
</svg>
