<?xml version="1.0" encoding="UTF-8"?>
<svg width="485px" height="169px" viewBox="0 0 485 169" version="1.1" xmlns="http://www.w3.org/2000/svg" xmlns:xlink="http://www.w3.org/1999/xlink">
    <!-- Generator: Sketch 63.1 (92452) - https://sketch.com -->
    <title>status-logo-2</title>
    <desc>Created with Sketch.</desc>
    <defs>
        <path d="M477.582,0.74617763 C478.428,14.1455 478.848,20.7659 479.693,34.1645 C479.693,34.1645 477.001,36.1609 475.644,36.8435 C474.286,37.5262 475.461,45.8564 475.461,45.8564 C423.037,49.5501 370.429,52.9346 317.987,56.1548 C368.041,53.8136 423.738,54.422 468.131,48.6579 C469.852,48.4357 470.772,68.4676 470.772,68.4676 C469.693,71.9839 469.239,73.7388 468.339,77.4064 C461.623,78.131 458.181,78.5753 451.465,79.2999 C458.383,79.3578 461.843,79.3868 468.767,79.6025 C468.615,84.8222 468.543,87.5109 468.392,92.7306 C467.725,93.3875 467.397,93.8737 466.557,94.537 C437.009,95.0073 407.639,95.6289 378.102,96.415 C409.562,96.189 441.212,96.431 472.7,96.994 C473.317,104.239 473.625,107.862 474.241,115.107 C471.145,115.538 469.424,115.76 466.334,116.35 C469.977,116.688 471.715,116.939 475.186,117.283 C475.7,126.428 476.044,130.998 476.552,139.985 C475.033,140.989 474.36,141.488 472.842,142.493 C309.8,129.608 165.932,136.789 16.5485,160.779 C13.5956,160.415 12.0358,160.315 9.0888,160.109 C8.6552,157.755 8.4414,156.657 8.0077,154.303 C10.0502,153.437 11.0685,152.925 13.111,152.059 C16.213,151.785 17.9396,151.721 21.0475,151.605 C37.3737,148.942 45.626,147.686 62.1367,145.332 C44.7333,146.929 35.9512,147.889 18.7323,149.795 C15.2261,148.504 13.6486,147.931 10.1425,146.639 C9.3793,135.45 9.0006,129.934 8.2374,118.744 C9.2262,117.443 9.8875,116.629 10.8763,115.328 C43.3972,111.112 75.9358,107.371 108.671,104.254 C74.531,106.791 40.5758,109.638 6.62654,112.642 C5.20406,111.589 4.66254,110.977 3.23417,109.767 C2.62987,102.837 2.32772,99.372 1.72343,92.4429 C5.33163,91.8343 7.0465,91.4543 10.482,90.8522 C6.67759,90.8361 4.95099,90.9005 1.14659,90.8844 C0.97198,81.5688 0.97395,76.9867 0.80523,67.8289 C1.28201,66.7051 1.60379,66.0611 2.08057,64.9373 C43.7034,63.7006 85.3203,62.3062 127.11,60.9053 C87.5296,61.2757 48.116,61.482 8.5239,61.5369 C8.4298,59.0124 8.3827,57.7502 8.2885,55.2256 C10.5095,54.5108 11.5337,54.1566 13.7606,53.5995 C11.5043,53.3677 10.2898,53.255 8.2061,53.0167 C8.2591,40.5326 8.369,34.2084 8.422,21.7243 C65.0603,19.7695 472.736,0.61167 477.582,0.74617763 Z" id="path-1"></path>
    </defs>
    <g id="Page-1" stroke="none" stroke-width="1" fill="none" fill-rule="evenodd">
        <g id="status-logo-2">
            <path d="M454.008,95.8454 C454.008,95.8454 443.462,72.6966 454.807,52.3652 C460.479,42.1995 471.253,34.3716 482.185,30.8037 C482.185,30.8037 442.705,47.7606 454.008,95.8454 Z" id="Path" fill="#FFFFFF" fill-rule="nonzero" opacity="0.4"></path>
            <path d="M4.83415,22.1985 L3.8954,57.2874 C7.1363,60.7364 6.55468,59.0508 6.43486,65.1085 C1.06585,69.4995 2.22243,68.0594 0.62882,71.6888 C1.339,118.536 -1.89109,110.741 4.39484,117.025 C9.9951,118.834 9.7762,117.601 6.83023,122.056 C4.35497,153.036 2.42601,147.675 13.2242,154.412 C1.33462,160.133 3.12981,157.272 6.49867,168.788 C173.446,138.445 369.177,139.119 479.863,149.267 C476.506,105.622 474.226,100.12 474.226,100.12 C469.978,97.4844 469.834,98.2658 474.254,96.2384 C472.524,77.6775 472.197,82.8117 475.769,71.9688 C475.769,71.9688 471.57,52.1031 469.682,52.484 C467.795,52.8648 477.101,52.052 477.101,52.052 C475.522,42.1774 479.655,41.7128 484.201,38.439 L478.623,0.154514 L4.83415,22.1985 Z" id="Path" fill="#DE993E" fill-rule="nonzero"></path>
            <path d="M475.549,70.7095 C475.549,70.7095 473.041,59.111 471.108,53.653 C470.377,52.5743 470.008,51.956 469.449,50.8709 C460.258,59.4298 455.577,63.7125 446.375,71.9558 C446.344,75.749 446.241,77.6489 446.21,81.4421 C455.055,86.8002 459.477,89.4792 468.501,94.9887 C470.757,95.2205 471.972,95.3332 474.222,95.4072 C473.641,89.1088 473.351,85.9597 472.77,79.6613 C473.671,75.9936 474.297,74.2323 475.549,70.7095 Z" id="Path" fill="#BC905C" fill-rule="nonzero"></path>
            <path d="M63.8424,144.054 C60.6521,141.961 59.0569,140.915 55.8667,138.822 C47.2886,135.982 42.9132,134.565 34.3352,131.725 C24.9664,126.228 20.1928,123.404 10.8123,117.592 C9.1445,119.234 8.3107,120.055 6.81557,121.691 C6.00719,132.465 5.52256,138.014 4.71417,148.788 C8.083,151.032 9.8508,152.072 13.2196,154.317 C32.8205,151.373 42.4541,150.066 62.2394,147.432 C62.7044,145.993 63.0262,145.349 63.8424,144.054 Z" id="Path" fill="#BC905C" fill-rule="nonzero"></path>
            <path d="M477.524,3.16853763 C478.369,16.5678 478.789,23.1882 479.635,36.5868 C479.635,36.5868 476.943,38.5833 475.585,39.2659 C474.227,39.9486 475.403,48.2788 475.403,48.2788 C422.979,51.9724 370.37,55.3569 317.929,58.5772 C367.983,56.236 423.679,56.8443 468.072,51.0803 C469.793,50.8581 470.713,70.8899 470.713,70.8899 C469.634,74.4062 469.181,76.1612 468.28,79.8288 C461.564,80.5533 458.123,80.9977 451.407,81.7222 C458.325,81.7802 461.784,81.8091 468.708,82.0249 C468.557,87.2445 468.484,89.9333 468.333,95.153 C467.666,95.8098 467.338,96.2961 466.499,96.9594 C436.95,97.4297 407.581,98.0513 378.044,98.8371 C409.503,98.6115 441.153,98.8529 472.642,99.4163 C473.258,106.661 473.566,110.284 474.182,117.529 C471.086,117.96 469.365,118.183 466.275,118.772 C469.919,119.11 471.657,119.361 475.128,119.706 C475.642,128.851 475.985,133.42 476.493,142.407 C474.975,143.412 474.302,143.911 472.783,144.915 C308.892,134.075 164.92,140.799 16.4899,163.201 C13.537,162.837 11.9772,162.737 9.0302,162.531 C8.5966,160.177 8.3828,159.079 7.9492,156.725 C9.9916,155.859 11.0099,155.347 13.0524,154.481 C16.1544,154.207 17.881,154.143 20.9889,154.027 C37.3151,151.364 45.5674,150.108 62.0781,147.754 C44.6747,149.351 35.8926,150.311 18.6737,152.217 C15.1675,150.926 13.59,150.353 10.0839,149.062 C9.3207,137.872 8.942,132.356 8.1788,121.167 C9.1676,119.866 9.8289,119.051 10.8177,117.75 C43.3386,113.535 75.8772,109.793 108.612,106.676 C74.4724,109.213 40.5172,112.06 6.56795,115.065 C5.14547,114.012 4.60394,113.4 3.17558,112.189 C2.57128,105.26 2.26913,101.795 1.66483,94.8653 C5.27303,94.2567 6.98786,93.8767 10.4234,93.2745 C6.619,93.2584 4.8924,93.3229 1.08799,93.3068 C0.91339,83.9912 0.91536,79.4091 0.74664,70.2513 C1.22342,69.1275 1.5452,68.4835 2.02197,67.3597 C43.6448,66.123 85.2617,64.7285 127.051,63.3276 C87.471,63.6981 48.0574,63.9044 8.4653,63.9593 C8.3712,61.4348 8.3241,60.1725 8.2299,57.648 C10.4509,56.9332 11.4751,56.5789 13.702,56.0219 C11.4457,55.79 10.2312,55.6773 8.1475,55.4391 C8.2005,42.955 8.3104,36.6308 8.3634,24.1467 C65.0017,22.1919 472.677,3.03403 477.524,3.16853763 Z" id="Path" fill="#FFD261" fill-rule="nonzero"></path>
            <g id="Clipped" transform="translate(0.000000, 4.000000)">
                <mask id="mask-2" fill="white">
                    <use xlink:href="#path-1"></use>
                </mask>
                <g id="Path"></g>
                <g id="Group" mask="url(#mask-2)">
                    <g transform="translate(-26.000000, 6.000000)">
                        <g id="Group" opacity="0.1" stroke-width="1" fill="none" fill-rule="evenodd" transform="translate(0.000000, 19.000000)">
                            <path d="M17.0334,119.192 C71.904,102.293 129.337,93.831 187.912,88.169 C261.722,83.046 336.917,82.611 410.253,87.933 C409.586,88.59 409.252,88.919 408.591,89.733 C291.263,87 153.708,88.971 44.2509,125.761 C44.2509,125.761 14.4219,127.98 17.0334,119.192 Z" id="Path" fill="#C17C2B" fill-rule="nonzero"></path>
                            <path d="M175.325,130.825 C240.901,113.527 312.154,100.125 381.634,99.429 C411.552,99.577 441.302,99.889 471.058,100.359 C415.576,100.849 356.087,100.54 301.648,110.471 C285.053,115.198 274.34,120.022 274.34,120.022 C241.266,123.309 208.435,128.484 175.325,130.825 Z" id="Path" fill="#C17C2B" fill-rule="nonzero"></path>
                            <path d="M336.34,122.765 C336.34,122.765 380.08,113.391 407.194,112.538 C442.756,111.053 478.318,109.568 514.07,108.551 C515.573,116.395 516.411,120.314 517.914,128.158 C457.611,124.561 396.644,126.361 336.34,122.765 Z" id="Path" fill="#C17C2B" fill-rule="nonzero"></path>
                            <path d="M230.667,43.1241 C203.428,45.2462 181.111,49.5547 180.884,52.7232 C180.656,55.8918 202.637,56.4938 229.876,54.3717 C256.77,52.2624 278.747,48.1246 278.974,44.9561 C279.208,41.9453 257.566,41.1726 230.667,43.1241 Z M247.686,49.7573 C236.308,50.6557 226.966,50.5302 227.092,49.2615 C227.223,48.1506 236.494,46.3827 248.045,45.4778 C259.423,44.5794 268.597,44.8692 268.466,45.9801 C268.34,47.2488 259.064,48.8588 247.686,49.7573 Z" id="Shape" fill="#C17C2B" fill-rule="nonzero"></path>
                            <path d="M513.851,37.7743 C475.628,37.4621 437.256,37.7875 399.171,36.5222 C351.007,33.8949 302.331,31.4447 253.956,32.4592 C212.893,34.781 170.148,43.0117 132.021,54.546 C115.1397,60.8638 118.0415,69.1296 146.215,68.8687 C193.72,67.7286 243.887,63.8031 289.883,54.6612 C291.253,54.2941 315.92,52.742 324.792,49.5669 C333.492,46.3984 345.639,42.9432 349.247,42.3346 C378.784,41.5488 408.2,42.1895 437.468,43.4677 C466.051,44.9295 511.669,44.1758 511.669,44.1758 C512.783,41.6062 513.082,40.331 513.851,37.7743 Z M332.893,39.6267 C328.791,40.8857 314.448,41.1047 307.381,41.6844 C300.314,42.264 304.402,45.2715 306.182,46.6271 C307.956,47.825 301.942,48.8393 296.625,49.9857 C291.308,51.132 281.853,52.5908 273.624,54.4777 C268.825,55.6048 255.226,57.2181 234.173,58.3194 C212.953,59.585 149.242,61.9617 156.8,55.9917 C164.536,50.173 193.206,44.6795 222.411,39.64 C253.884,35.1479 286.379,34.8837 318.231,35.9076 C333.133,36.7737 337.002,38.5254 332.893,39.6267 Z" id="Shape" fill="#C17C2B" fill-rule="nonzero"></path>
                            <path d="M539.73,96.533 C495.223,89.978 450.084,85.025 404.706,82.926 C368.52,81.59 351.178,80.183 351.178,80.183 C396.997,80.212 442.703,81.825 488.368,82.333 C502.704,81.957 540.55,86.075 548.283,89.42 C556.366,92.911 539.73,96.533 539.73,96.533 Z" id="Path" fill="#C17C2B" fill-rule="nonzero"></path>
                            <path d="M62.5979,144.827 C107.5778,131.615 154.367,120.547 201.636,113.096 C239.29,107.425 256.807,104.244 256.807,104.244 C208.413,109.367 160.614,116.522 112.6419,123.684 C97.3222,125.519 58.2736,135.508 50.9964,139.729 C43.9036,144.26 62.5979,144.827 62.5979,144.827 Z" id="Path" fill="#C17C2B" fill-rule="nonzero"></path>
                            <path d="M36.2026,95.409 C69.5927,91.319 102.5904,85.98 136.183,82.673 C189.744,77.041 243.134,71.415 296.909,66.8812 C241.998,68.7716 186.943,71.457 132.298,75.866 C99.8318,76.919 61.8642,78.809 36.2026,95.409 Z" id="Path" fill="#C17C2B" fill-rule="nonzero"></path>
                            <path d="M38.7337,79.83 C38.7337,79.83 66.9185,65.9807 94.2969,58.3233 C121.3299,50.6788 143.23,44.4898 146.856,44.3545 C150.482,44.2193 83.4448,54.7781 66.9087,61.083 C50.3726,67.3879 26.20211,77.612 26.20211,77.612 C26.20211,77.612 32.37469,80.857 38.7337,79.83 Z" id="Path" fill="#C17C2B" fill-rule="nonzero"></path>
                            <path d="M512.585,3.8512 C492.243,0.818 456.622,0.7248 454.038,0.9792 C451.46,1.3914 375.187,0.7606 375.187,0.7606 C320.762,6.4249 265.564,9.906 211.555,17.4508 C191.983,21.1829 167.632,21.9333 128.69,20.858 C87.8477,19.8535 46.8684,19.8022 6.0442,19.271 C6.0442,19.271 -3.4659,23.8918 2.1612,35.69 C7.7884,47.4882 8.683,57.567 19.35068,60.8031 C48.7421,51.4906 78.6869,43.1054 109.3929,36.5879 C139.122,31.6869 169.802,29.1204 200.19,27.9868 C239.235,27.1623 278.423,25.5424 317.444,24.0868 C363.234,23.3267 409.346,21.9225 455.052,23.5356 C482.605,25.1938 525.847,25.6347 525.847,25.6347 C527.187,24.4787 527.854,23.8218 529.367,22.6594 C531.768,17.5137 532.877,14.7864 535.272,9.4829 C535.1,9.4894 532.755,6.8908 512.585,3.8512 Z M394.125,17.1183 C351.235,16.8222 308.075,18.5902 265.238,19.7142 C294.847,16.2397 324.445,12.4496 354.072,9.4483 C374.065,7.7545 404.392,9.6252 433.446,9.8054 C462.155,9.9985 518.98,17.6748 518.98,17.6748 C477.31,17.6492 435.652,17.9392 394.125,17.1183 Z" id="Shape" fill="#C17C2B" fill-rule="nonzero"></path>
                            <path d="M230.361,76.632 C320.301,68.2207 419.304,57.1014 509.171,65.2831 C507.319,66.6162 506.307,67.286 504.454,68.6191 C464.815,67.4118 424.491,66.388 384.636,68.6647 C333.225,71.689 281.76,73.292 230.361,76.632 Z" id="Path" fill="#C17C2B" fill-rule="nonzero"></path>
                            <path d="M342.804,59.6392 C400.835,57.9484 459.967,57.9545 517.675,61.4899 C521.045,59.1521 522.731,57.9832 526.274,55.639 C526.274,55.639 485.903,53.353 464.517,54.7828 C423.96,56.7697 383.367,57.81 342.804,59.6392 Z" id="Path" fill="#C17C2B" fill-rule="nonzero"></path>
                        </g>
                        <g id="Group" opacity="0.1" stroke-width="1" fill="none" fill-rule="evenodd" transform="translate(90.000000, 0.000000)">
                            <path d="M407.001,68.621 C407.001,68.621 406.248,48.4249 404.36,48.8113 C403.676,48.9949 384.522,50.0254 360.016,51.2555 C362.642,52.1056 368.726,52.9847 372.191,53.1714 C378.948,53.5513 392.378,56.6844 392.508,60.1556 C392.637,63.6268 388.907,70.244 388.387,74.8454 C387.867,79.4469 383.722,84.1836 386.835,84.2254 C389.777,84.2737 397.385,84.3059 388.876,87.9413 C380.539,91.57 329.353,96.008 326.246,96.124 C356.991,95.293 372.363,94.877 402.781,94.533 C403.448,93.876 403.776,93.39 404.615,92.726 C404.767,87.5066 404.839,84.8178 404.99,79.5981 C398.072,79.5402 394.613,79.5112 387.689,79.2955 C394.405,78.571 397.846,78.1266 404.563,77.4021 C405.475,74.05 405.928,72.2951 407.001,68.621 Z" id="Path" fill="#D7A456" fill-rule="nonzero"></path>
                            <path d="M33.318,150.817 C73.96,146.457 114.994,143.347 156.069,141.34 C241.161,137.376 324.686,137.736 409.244,142.64 C410.762,141.635 411.435,141.136 412.954,140.132 C412.44,130.987 412.097,126.417 411.589,117.43 C407.945,117.092 406.207,116.841 402.736,116.497 C405.832,116.065 407.553,115.843 410.643,115.254 C410.027,108.009 409.719,104.386 409.103,97.141 C378.477,96.545 363.087,96.487 332.312,96.529 C347.381,97.231 385.323,99.292 388.531,101.858 C392.459,105.188 397.548,121.114 395.052,123.735 C383.926,136 293.723,132.729 251.968,135.077 C178.813,139.228 105.814,142.899 33.318,150.817 Z" id="Path" fill="#D7A456" fill-rule="nonzero"></path>
                            <path d="M401.541,1.042 C388.115,2.6489 381.232,3.5377 367.8,4.9867 C377.278,4.1592 384.53,3.8886 387.31,4.2589 C398.955,5.8786 401.712,5.6177 399.995,10.5798 C398.278,15.5419 396.667,23.3441 396.803,26.9731 C396.938,30.602 397.199,32.9623 395.28,37.1419 C394.798,38.108 394.815,38.5813 394.994,38.7326 C394.13,38.7649 392.243,39.1513 387.634,40.7452 C374.838,45.3306 376.17,48.5989 363.411,49.5489 C382.725,48.1964 392.388,47.6779 411.697,46.1676 C411.697,46.1676 410.521,37.8374 411.879,37.1548 C413.237,36.4721 415.929,34.4757 415.929,34.4757 C415.083,21.0771 414.663,14.4567 413.818,1.0581 C408.971,0.9229 406.554,1.013 401.541,1.042 Z" id="Path" fill="#D7A456" fill-rule="nonzero"></path>
                            <path d="M1.1248,154.546 C1.2916,154.382 1.2974,154.54 1.1248,154.546 L1.1248,154.546 Z" id="Path" fill="#D7A456" fill-rule="nonzero"></path>
                        </g>
                        <path d="M36.8062,107.434 C35.0384,106.394 34.1515,105.795 32.55641,104.749 C65.2912,101.632 98.0436,98.988 130.808,96.66 C99.2816,99.732 67.9517,103.428 36.8062,107.434 Z" id="Path" fill="#BC905C" fill-rule="nonzero"></path>
                        <path d="M27.83752,57.0504 C68.2517,55.8588 108.8327,54.503 149.241,53.1536 C110.8693,53.479 72.4917,53.6466 34.1082,53.6564 C33.4117,53.5244 32.88783,53.3859 32.19131,53.2539 C30.51768,54.7384 29.68381,55.5595 27.83752,57.0504 Z" id="Path" fill="#FFD261" fill-rule="nonzero"></path>
                    </g>
                </g>
            </g>
            <path d="M3.16402,111.873 C4.59239,113.084 5.12803,113.538 6.55639,114.749 C39.2912,111.632 72.0436,108.988 104.808,106.66 C72.8774,108.167 40.9648,110.147 9.2366,112.437 C9.2366,112.437 6.91546,110.469 5.67741,109.726 C4.44524,109.139 2.91487,95.9244 2.91487,95.9244 C5.80889,94.7105 7.3452,94.1791 10.2392,92.9652 C6.63099,93.5738 4.91616,93.9537 1.48062,94.5559 C2.08492,101.485 2.38707,104.95 3.16402,111.873 Z" id="Path" fill="#FFD261" fill-rule="nonzero"></path>
            <path d="M458.531,3.87751 C464.127,5.56479 466.925,6.40843 472.521,8.0957 C472.521,8.0957 475.946,30.4041 475.475,31.6857 C475.005,32.9673 473.437,37.2918 472.627,38.744 C471.816,40.1963 472.356,45.3902 472.356,45.3902 C459.983,47.4318 453.969,48.4461 441.597,50.4877 C455.219,49.5055 461.947,49.0965 475.397,48.1208 C475.397,48.1208 474.222,39.7905 475.579,39.1079 C476.937,38.4252 479.629,36.4288 479.629,36.4288 C478.783,23.0302 478.364,16.4098 477.518,3.01124 C472.678,3.0338 470.255,2.96619 465.414,2.98875 C462.663,3.40737 461.288,3.61668 458.531,3.87751 Z" id="Path" fill="#FFD261" fill-rule="nonzero"></path>
            <path d="M3.26805,91.4872 C3.26805,91.4872 3.18176,70.6342 3.68797,70.2993 C19.9867,62.2653 81.8087,64.8571 120.133,63.2695 C121.687,63.2115 82.6603,64.5094 49.331,65.5947 C48.813,65.614 48.4677,65.6269 47.9497,65.6462 C45.8778,65.7235 43.8059,65.8008 41.9066,65.8716 C26.7067,66.2806 19.1096,66.564 3.90968,66.973 C2.87961,67.1695 2.54017,67.3401 1.5101,67.5366 C1.02743,68.5026 0.87243,68.9824 0.55654,69.7841 C0.73115,79.0997 0.72918,83.6818 0.8979,92.8396 C4.7023,92.8557 6.4289,92.7913 10.2333,92.8074 C7.4531,92.4371 6.05415,92.0153 3.26805,91.4872 Z" id="Path" fill="#FFD261" fill-rule="nonzero"></path>
            <path d="M11.895,160.528 C11.5203,159.752 11.3359,159.443 10.9611,158.667 C11.7891,157.688 12.2894,157.195 13.1233,156.374 C13.1233,156.374 15.8741,155.956 18.2913,155.865 C20.5359,155.782 62.0724,147.596 62.0724,147.596 C45.5618,149.95 37.4821,151.199 20.9832,153.869 C17.8812,154.143 16.1546,154.207 13.0468,154.323 C11.0043,155.189 9.986,155.701 7.9435,156.567 C8.3771,158.921 8.591,160.019 9.0246,162.373 C11.9774,162.737 13.5373,162.837 16.4843,163.043 C83.9139,153.733 151.104,147.277 219.424,143.306 C304.516,139.342 388.041,139.702 472.599,144.606 C474.118,143.601 474.791,143.102 476.309,142.098 C475.795,132.953 475.452,128.383 474.944,119.396 C471.3,119.058 469.562,118.807 466.091,118.463 C469.187,118.031 470.908,117.809 473.998,117.22 C473.382,109.975 473.074,106.352 472.458,99.1069 C440.969,98.5435 409.492,98.2958 377.86,98.5277 C408.819,98.7949 439.623,99.5418 470.439,100.604 C471.186,106.738 471.477,109.888 472.224,116.022 C468.461,117.11 466.579,117.654 462.989,118.736 C466.65,119.548 468.567,119.95 472.228,120.762 C472.228,120.762 473.37,137.467 473.244,138.736 C472.946,140.011 471.159,143.08 471.159,143.08 C412.737,138.939 353.546,137.355 294.812,138.756 C203.083,140.914 111.518,147.49 21.0637,160.66 C17.2593,160.644 15.5268,160.551 11.895,160.528 Z" id="Path" fill="#FFD261" fill-rule="nonzero"></path>
            <path d="M13.1155,146.894 C12.2855,138.551 11.7813,134.304 10.9455,125.803 C10.9455,125.803 11.954,120.393 13.3058,119.553 C14.4909,118.877 78.64,109.69 98.782,107.358 C69.3281,110.353 40.0583,113.657 10.8121,117.592 C9.8232,118.893 9.162,119.708 8.1731,121.009 C8.9363,132.198 9.315,137.714 10.0782,148.904 C13.4117,150.201 15.1619,150.768 18.668,152.059 C36.0596,150.147 44.669,149.193 62.0724,147.596 C44.9849,148.392 36.5305,148.865 19.4548,149.976 C16.8119,148.653 15.5798,148.066 13.1155,146.894 Z" id="Path" fill="#FFD261" fill-rule="nonzero"></path>
            <path d="M468.322,94.8372 C468.473,89.6175 468.545,86.9287 468.696,81.7091 C461.778,81.6511 458.319,81.6222 451.395,81.4065 C458.111,80.6819 461.553,80.2375 468.269,79.513 C469.348,75.9967 469.801,74.2418 470.702,70.5741 C470.702,70.5741 469.948,50.3781 468.061,50.7645 C467.376,50.948 448.223,51.9785 423.717,53.2087 C439.964,53.0766 448.085,52.9317 464.506,52.7931 C465.961,59.3749 466.782,62.8203 468.243,69.5598 C468.243,69.5598 466.43,76.5795 465.591,77.2429 C464.751,77.9062 446.031,81.2906 446.031,81.2906 C453.836,81.9474 457.825,82.2726 465.808,83.0808 C465.808,83.0808 465.714,94.4604 465.375,94.6311 C455.204,100.067 407.206,97.275 378.038,98.6791 C407.569,97.7355 436.939,97.1139 466.493,96.8014 C467.154,95.9867 467.488,95.6583 468.322,94.8372 Z" id="Path" fill="#FFD261" fill-rule="nonzero"></path>
            <g id="Group-2" transform="translate(123.186779, 34.781994)" fill="#000000" fill-rule="nonzero">
                <path d="M217.813221,43.5353395 L224.945752,43.1667801 C224.999755,44.1822295 225.379159,44.8931396 226.083966,45.29992 C226.835852,45.6571496 227.659741,45.8410198 228.494709,45.8377437 C229.328291,45.8343311 230.150796,45.6439088 230.899913,45.280673 C231.161619,45.1373444 231.374861,44.9209863 231.511945,44.6584901 C231.649029,44.3959939 231.705802,44.0993719 231.671184,43.8058894 C231.66703,43.4490693 231.518869,43.1087661 231.259932,42.8591013 C230.928991,42.5784501 230.541278,42.3702823 230.123103,42.2478387 C229.616306,42.0770728 228.972426,41.8932026 228.191462,41.6962281 L225.348696,40.9779468 C224.355874,40.7214568 223.42121,40.4506339 222.544702,40.1653416 C221.718043,39.9048929 220.932924,39.5299179 220.214271,39.0513367 C219.548236,38.6085194 218.99436,38.0218274 218.594185,37.3361705 C218.164932,36.532984 217.935073,35.6410702 217.921226,34.7333221 C217.835376,33.6568556 218.026463,32.5765671 218.476487,31.5922405 C218.909894,30.6922731 219.564852,29.9132477 220.381818,29.3256002 C221.302636,28.6722946 222.334229,28.1857962 223.428133,27.8890376 C224.724202,27.5255288 226.060426,27.3131294 227.407728,27.2560709 C228.954425,27.1482332 230.508046,27.2698578 232.017357,27.6167131 C233.188803,27.887263 234.2924,28.3872753 235.264451,29.0869921 C236.096649,29.7026228 236.766838,30.5064918 237.218247,31.4310299 C237.67104,32.3709929 237.927208,33.3910834 237.971518,34.4306939 L230.791907,34.8015738 C230.742058,33.86516 230.460967,33.1517928 229.944478,32.6535551 C229.427989,32.1553174 228.674718,31.9277661 227.681896,31.9790914 C226.99786,31.9957448 226.33044,32.2020015 225.758564,32.574383 C225.50932,32.7398253 225.309925,32.9692876 225.182534,33.2379265 C225.055142,33.5067018 225.005293,33.8044159 225.037141,34.0992634 C225.041295,34.4869333 225.19915,34.8574038 225.477472,35.1316392 C225.818106,35.4259407 226.214127,35.651035 226.64338,35.7939541 C227.151561,35.9823289 227.776055,36.1716593 228.518248,36.3619451 L231.06746,37.0213934 C232.104592,37.2298342 233.071105,37.4691248 233.968383,37.7392652 C234.808889,37.9860635 235.613393,38.3351029 236.365279,38.7787392 C237.04793,39.1874307 237.62673,39.7449109 238.057368,40.4083178 C238.522624,41.1911652 238.774637,42.0796664 238.788484,42.9871415 C238.892336,44.2249551 238.668016,45.4680923 238.13768,46.594792 C237.644731,47.5837597 236.920539,48.4423666 236.023261,49.0989484 C235.060902,49.7862434 233.976691,50.2896682 232.827399,50.5828777 C231.559025,50.9218158 230.258802,51.124387 228.947502,51.1869056 C225.55363,51.3621761 222.885335,50.7966421 220.945386,49.4901673 C219.004053,48.1836925 217.962767,46.1968844 217.821529,43.5296064" id="Path"></path>
                <path d="M106.813221,49.533895 L113.949512,49.1656839 C114.003544,50.1804131 114.383148,50.891051 115.088327,51.2974611 C115.840609,51.6546218 116.664933,51.8383862 117.498955,51.8349756 C118.334363,51.8317014 119.157301,51.6412521 119.905427,51.2782252 C120.168657,51.1351153 120.382011,50.9187453 120.519168,50.6565364 C120.656324,50.3941911 120.711741,50.0976031 120.678491,49.8042894 C120.674335,49.4476744 120.526095,49.1075668 120.267022,48.8580455 C119.935907,48.5776921 119.547989,48.3695075 119.129593,48.2472707 C118.62253,48.076603 117.976924,47.8928385 117.194163,47.6959773 L114.352669,46.9779724 C113.359324,46.7217663 112.424166,46.4509626 111.547196,46.1658343 C110.721487,45.9022612 109.938725,45.5236818 109.222464,45.0415558 C108.556077,44.5989931 108.003295,44.0126384 107.602909,43.3273756 C107.172044,42.5246508 106.942065,41.6333863 106.92821,40.7260235 C106.842314,39.6503123 107.033502,38.5706448 107.483763,37.5867476 C107.918785,36.6872975 108.572702,35.90872 109.390099,35.3215468 C110.311403,34.6684802 111.34354,34.1822615 112.438021,33.8856735 C113.734772,33.5223737 115.071702,33.3100964 116.419714,33.2532072 C117.964456,33.1496606 119.51751,33.2748988 121.024846,33.6244196 C122.19691,33.894814 123.301089,34.3945388 124.272267,35.0938534 C125.106289,35.7091302 125.776832,36.5126735 126.228478,37.4365437 C126.68151,38.3761027 126.937813,39.3956068 126.982146,40.4344833 L119.79875,40.8052864 C119.748875,39.8694109 119.467635,39.1563174 118.950874,38.6583661 C118.434113,38.1604148 117.680445,37.9331307 116.6871,37.9842901 C116.001317,38.0009339 115.334931,38.2070721 114.762753,38.5792396 C114.510607,38.743086 114.308336,38.9718707 114.178106,39.240628 C114.049263,39.5093853 113.996617,39.8080196 114.027096,40.1040619 C114.031252,40.4913725 114.18919,40.8617664 114.467659,41.1357078 C114.807087,41.4347514 115.204702,41.6642183 115.635567,41.8108752 C116.144016,41.9991417 116.768839,42.1882268 117.510038,42.3784032 L120.06198,43.0376089 C121.095502,43.2460663 122.062524,43.4853558 122.964432,43.755068 C123.803996,44.001588 124.610309,44.3505632 125.362592,44.7939444 C126.045603,45.201446 126.624708,45.7587421 127.054188,46.4225862 C127.522459,47.2047108 127.774605,48.0927012 127.78846,48.9997911 C127.892366,50.2340281 127.667928,51.4734493 127.140084,52.5973186 C126.646875,53.5857178 125.922301,54.4438311 125.024549,55.1000354 C124.061683,55.786526 122.976901,56.289525 121.827003,56.5831117 C120.55796,56.9221278 119.255666,57.1245825 117.942289,57.1869287 C114.548013,57.3620985 111.881082,56.7967532 109.938725,55.4910295 C107.997754,54.1853057 106.955919,52.1996397 106.813221,49.533895 Z" id="Path"></path>
                <path d="M128.100068,37.9645014 L127.813221,32.5686236 L131.428892,32.3824972 L131.066486,25.5960327 L138.40837,25.2180064 L138.770777,32.0044709 L144.030571,31.7336667 L144.318818,37.129407 L139.059023,37.4003488 L139.491392,45.5272256 C139.508183,46.2078103 139.624321,46.8826215 139.837008,47.5307647 C139.981131,47.9637765 140.232997,48.3549993 140.568818,48.6697921 C140.872456,48.9385344 141.250254,49.112289 141.654639,49.1690616 C142.119191,49.2335323 142.58934,49.2511277 143.05809,49.2215729 C143.370124,49.2054896 143.77031,49.1850075 144.253053,49.1254855 C144.677027,49.0885077 145.098202,49.024312 145.51378,48.9331733 L145.813221,54.5568291 C145.280105,54.6772476 144.591672,54.800278 143.773109,54.9274323 C142.955945,55.0545865 141.991859,55.1361027 140.880851,55.1932878 C139.967139,55.2368639 139.052027,55.2228426 138.139713,55.1510863 C137.182624,55.0786427 136.253519,54.7921676 135.42656,54.3132427 C134.505851,53.7510146 133.760049,52.9502863 133.273109,51.9990348 C132.675627,50.9372622 132.325814,49.4571864 132.225068,47.5588073 L131.703146,37.7790623 L128.100068,37.9645014 Z" id="Path"></path>
                <path d="M145.839016,42.8497028 C145.738378,41.2389056 145.932761,39.6232029 146.412514,38.0805387 C146.850909,36.6640565 147.569159,35.3471845 148.524529,34.2059591 C149.445434,33.1109277 150.574507,32.2038068 151.845577,31.5351509 C153.149732,30.8487805 154.593127,30.4591968 156.068229,30.3947431 C157.619154,30.2756468 159.172836,30.5687544 160.570737,31.2438148 C161.778391,31.8252606 162.805448,32.7193001 163.54162,33.8308196 L163.370674,30.593146 L170.61246,30.2180064 L171.813221,52.8736819 L164.553513,53.2497753 L164.383945,50.0593859 C163.791147,51.2162819 162.885406,52.1881291 161.767362,52.8674137 C160.43012,53.7001335 158.890223,54.1609842 157.310348,54.2015914 C155.842138,54.2855311 154.373929,54.0467935 153.010494,53.5026845 C151.671873,52.9693405 150.453191,52.1796806 149.424755,51.1792176 C148.359097,50.1370574 147.511258,48.8993558 146.926732,47.5354722 C146.287061,46.0507209 145.923111,44.4640428 145.852802,42.8516105 L145.839016,42.8497028 Z M153.091831,42.4766072 C153.130432,43.2403766 153.306893,43.9912007 153.614321,44.6929692 C153.899691,45.3561745 154.307757,45.9602404 154.819217,46.4735534 C155.326542,46.9669716 155.924854,47.3580542 156.582447,47.6249988 C157.292426,47.9088403 158.058927,48.0303893 158.822672,47.9802435 C159.593309,47.9501288 160.346025,47.7499544 161.027053,47.394846 C161.657074,47.0631752 162.215407,46.6119994 162.670345,46.0669365 C163.123904,45.5085196 163.467176,44.8697058 163.680859,44.1845618 C163.913842,43.4509071 164.010344,42.6812783 163.96485,41.913421 C163.891784,40.429896 163.279686,39.0224074 162.238843,37.9505412 C161.738411,37.435048 161.131827,37.0311563 160.460449,36.7655745 C159.74082,36.4886825 158.967425,36.3723116 158.196787,36.4247739 C157.433043,36.4533897 156.684463,36.6486585 156.006192,36.9964086 C155.372036,37.3279431 154.81646,37.788385 154.375308,38.347347 C153.931399,38.9169377 153.589506,39.5582042 153.364794,40.2428032 C153.130432,40.9602422 153.03393,41.7143367 153.078045,42.4667961" id="Shape"></path>
                <path d="M173.099934,35.9649672 L172.813221,30.569125 L176.427207,30.3829998 L176.064969,23.5964426 L183.411822,23.2180064 L183.77406,30.0045637 L189.031403,29.7337612 L189.319514,35.129466 L184.060773,35.4004059 L184.49434,43.5270917 C184.511123,44.2076719 184.625808,44.8824787 184.836997,45.5308925 C184.982451,45.9633517 185.232801,46.3544344 185.567067,46.6699124 C185.871962,46.9382405 186.249584,47.111994 186.65378,47.1690412 C187.118116,47.233374 187.588046,47.2509693 188.056577,47.2216896 C188.368465,47.2056064 188.768465,47.1849869 189.250983,47.1256028 C189.676158,47.0886253 190.097137,47.0242925 190.51392,46.9331544 L190.813221,52.5566357 C190.278955,52.6771909 189.589444,52.8003579 188.77406,52.9273739 C187.958675,53.0543898 186.990843,53.136043 185.880354,53.1932277 C184.968465,53.2369409 184.05378,53.2227822 183.143291,53.1510265 C182.186647,53.0785834 181.257976,52.7921101 180.431403,52.3131884 C179.509724,51.7516513 178.765668,50.9507908 178.277556,49.9989957 C177.681752,48.9372301 177.332102,47.457164 177.231403,45.5587975 L176.709724,35.7789795 L173.099934,35.9649672 Z" id="Path"></path>
                <path d="M192.524271,43.8474513 L191.813221,30.4036035 L199.023928,30.0286955 L199.637517,41.6355897 C199.722624,43.2573764 200.083639,44.5621324 200.719192,45.5501299 C201.354744,46.5379913 202.42681,46.9918846 203.934017,46.9118098 C205.432987,46.8339139 206.511917,46.2601808 207.172177,45.1908828 C207.832438,44.1215849 208.111093,42.703662 208.008142,40.9372505 L207.409652,29.5927782 L214.617613,29.2180064 L215.813221,51.8595598 L208.605259,52.2343315 L208.435046,49.0013803 C207.855774,50.2398158 206.903131,51.2693487 205.710269,51.9480778 C204.459755,52.6884972 202.938821,53.1052129 201.147469,53.1983611 C199.560647,53.2808872 198.267579,53.1034425 197.228457,52.6653463 C196.259343,52.2760031 195.384943,51.6863368 194.664285,50.9357038 C193.891464,50.1006382 193.345136,49.0839063 193.078835,47.9813801 C192.76449,46.6236495 192.579178,45.2396359 192.524271,43.8474513 Z" id="Path"></path>
                <path d="M43.9318749,0.280435981 C34.9455052,0.751341182 26.3001115,3.87663932 19.0887423,9.26090751 C11.878748,14.6453132 6.42725537,22.0469805 3.42309107,30.5297362 C0.418926779,39.0126294 -0.00179371254,48.195762 2.21317593,56.9178887 C4.42814558,65.640153 9.17981231,73.5101132 15.8673433,79.5308252 C22.5548742,85.5529122 30.8785404,89.4562694 39.7837908,90.7473059 C48.6904161,92.0383423 57.7785287,90.6593119 65.901459,86.7862026 C74.0230144,82.9117183 80.815038,76.7150184 85.4154653,68.9818613 C90.0172676,61.2480167 92.221238,52.3233664 91.751021,43.3367078 C91.1185653,31.2859343 85.7261935,19.9795348 76.7576976,11.9049887 C67.7905765,3.830305 55.9829047,-0.351195695 43.9318749,0.280435981 L43.9318749,0.280435981 Z M40.4107468,66.2660101 C34.7282704,66.8852676 28.8546824,63.7473203 28.2497248,58.1840394 C27.6598912,52.715627 31.7447297,48.8220315 38.7952352,48.0540092 C43.9964954,47.4865856 47.3196373,48.5026409 52.5291469,47.9346674 C53.8188064,47.7955269 55.094717,47.5446066 56.3417545,47.1849313 C56.0653989,56.651982 49.6693475,65.2573792 40.4107468,66.2660101 Z M53.953547,44.8951634 C48.5254277,45.4957222 45.0455468,44.4055595 39.6119279,45.0063932 C38.2658973,45.1521332 36.9336157,45.4184525 35.6343319,45.8020512 C35.9024381,35.6926446 42.5775949,26.5012625 52.241792,25.4341982 C58.1717511,24.7779557 64.3106956,28.14125 64.945901,34.0855173 C65.5701072,39.929279 61.3092811,44.084519 53.953547,44.8951634 Z" id="Shape"></path>
            </g>
        </g>
    </g>
</svg>