<svg xmlns="http://www.w3.org/2000/svg" viewBox="0 0 434.32 600"><g width="100%" height="100%"><path d="M367.75,0H66A66,66,0,0,0,0,66V208.63L21.45,214,0,222.39V534a66,66,0,0,0,66,66H367.75a66,66,0,0,0,66-66V153.42L369.58,157,433.75,137V66A66,66,0,0,0,367.75,0Z" style="fill:#eef9ff;opacity:0.800000011920929;isolation:isolate"/><path d="M434.32,467.83V153.42L370.14,157l58.76,2.94Z" style="fill:#fff"/><path d="M267.58,0h-201a66,66,0,0,0-66,66V168.63L4,67A66,66,0,0,1,68.91,3.21Z" style="fill:#fff"/></g></svg>
