<svg width="206" height="48" viewBox="0 0 206 48" fill="none" xmlns="http://www.w3.org/2000/svg">
<rect width="206" height="48" fill="white"/>
<path fill-rule="evenodd" clip-rule="evenodd" d="M47.5528 16.1051C47.6525 15.8947 47.7398 15.6765 47.8143 15.4513C48.0646 14.6948 47.2429 13.9983 46.5609 14.3887C45.8411 14.8007 45.0519 15.1184 44.217 15.3189C40.7894 12.3791 34.7626 14.6047 34.8244 19.5123C31.5246 19.0916 28.6325 17.4542 26.6411 15.0912C26.2622 14.6415 25.5414 14.7 25.2367 15.2051C24.292 16.7713 24.2108 18.7697 25.0305 20.4074C23.1035 21.0346 25.5137 24.7163 26.269 25.3862C25.2337 26.7984 28.0958 29.0175 29.0758 29.4763C27.6298 30.0994 26.0196 30.3331 24.4601 30.1495C23.5538 30.0428 23.1273 31.3124 23.907 31.7963C26.1533 33.1906 28.819 34 31.6778 34C39.3378 34 46.2251 27.9079 46.1346 19.8287C46.9879 19.1723 47.7343 18.3862 48.3433 17.5076C48.7664 16.8972 48.2755 16.0388 47.5528 16.1051ZM44.0372 19.9005C44.0372 27.4192 37.0273 32.6049 29.9522 31.8145C29.7537 31.7923 29.8943 31.5984 29.9958 31.5521C30.7536 31.2066 32.7033 30.3041 33.4365 29.3485C33.8144 28.8561 33.8479 28.1094 33.1496 27.9257C32.6529 27.795 32.1541 27.8029 31.6588 27.8108C30.9037 27.8228 30.1567 27.8346 29.4375 27.3551C29.3602 27.3036 29.3829 27.1638 29.4723 27.1405C29.6707 27.0887 29.9278 27.0551 30.2062 27.0187C31.1311 26.8976 32.2896 26.746 32.2986 25.7995C32.3058 25.0423 30.8821 24.6747 29.4937 24.3163C28.4755 24.0534 27.4763 23.7954 27.0742 23.3922C27.0058 23.3237 27.0635 23.1857 27.1592 23.1887C28.6119 23.2336 30.8966 22.5026 28.5542 21.1337C27.6426 20.601 26.5697 19.9056 26.3601 18.5369C26.3453 18.4406 26.4712 18.3649 26.5465 18.4248C27.084 18.852 29.1836 20.0541 31.3852 20.9659C33.0354 21.6493 34.7406 22.1638 35.8635 22.0863C37.2663 21.9894 37.2345 20.8434 37.2025 19.6888C37.1854 19.0707 37.1681 18.4502 37.3708 17.9869C38.349 15.7506 41.5497 15.3825 43.1051 17.1886C43.7118 17.8932 44.0372 18.8569 44.0372 19.9005Z" fill="#1EB8E7"/>
<path d="M71.152 20.616C70.9173 20.3173 70.608 20.0827 70.224 19.912C69.8507 19.7307 69.488 19.64 69.136 19.64C68.9547 19.64 68.768 19.656 68.576 19.688C68.3947 19.72 68.2293 19.784 68.08 19.88C67.9307 19.9653 67.8027 20.0827 67.696 20.232C67.6 20.3707 67.552 20.552 67.552 20.776C67.552 20.968 67.5893 21.128 67.664 21.256C67.7493 21.384 67.8667 21.496 68.016 21.592C68.176 21.688 68.3627 21.7787 68.576 21.864C68.7893 21.9387 69.0293 22.0187 69.296 22.104C69.68 22.232 70.08 22.376 70.496 22.536C70.912 22.6853 71.2907 22.888 71.632 23.144C71.9733 23.4 72.256 23.72 72.48 24.104C72.704 24.4773 72.816 24.9467 72.816 25.512C72.816 26.1627 72.6933 26.728 72.448 27.208C72.2133 27.6773 71.8933 28.0667 71.488 28.376C71.0827 28.6853 70.6187 28.9147 70.096 29.064C69.5733 29.2133 69.0347 29.288 68.48 29.288C67.6693 29.288 66.8853 29.1493 66.128 28.872C65.3707 28.584 64.7413 28.1787 64.24 27.656L66.032 25.832C66.3093 26.1733 66.672 26.4613 67.12 26.696C67.5787 26.92 68.032 27.032 68.48 27.032C68.6827 27.032 68.88 27.0107 69.072 26.968C69.264 26.9253 69.4293 26.856 69.568 26.76C69.7173 26.664 69.8347 26.536 69.92 26.376C70.0053 26.216 70.048 26.024 70.048 25.8C70.048 25.5867 69.9947 25.4053 69.888 25.256C69.7813 25.1067 69.6267 24.9733 69.424 24.856C69.232 24.728 68.9867 24.616 68.688 24.52C68.4 24.4133 68.0693 24.3013 67.696 24.184C67.3333 24.0667 66.976 23.928 66.624 23.768C66.2827 23.608 65.9733 23.4053 65.696 23.16C65.4293 22.904 65.2107 22.6 65.04 22.248C64.88 21.8853 64.8 21.448 64.8 20.936C64.8 20.3067 64.928 19.768 65.184 19.32C65.44 18.872 65.776 18.504 66.192 18.216C66.608 17.928 67.0773 17.72 67.6 17.592C68.1227 17.4533 68.6507 17.384 69.184 17.384C69.824 17.384 70.4747 17.5013 71.136 17.736C71.808 17.9707 72.3947 18.3173 72.896 18.776L71.152 20.616ZM79.7251 29V24.68C79.7251 24.456 79.7091 24.2427 79.6771 24.04C79.6451 23.8373 79.5811 23.6613 79.4851 23.512C79.3998 23.352 79.2825 23.2293 79.1331 23.144C78.9838 23.048 78.7918 23 78.5571 23C78.0985 23 77.7465 23.1653 77.5011 23.496C77.2558 23.816 77.1331 24.216 77.1331 24.696V29H74.5091V16.904H77.1331V22.04H77.1651C77.3465 21.72 77.6345 21.4373 78.0291 21.192C78.4238 20.936 78.8985 20.808 79.4531 20.808C79.9971 20.808 80.4505 20.904 80.8131 21.096C81.1865 21.288 81.4851 21.5387 81.7091 21.848C81.9438 22.1467 82.1091 22.4933 82.2051 22.888C82.3118 23.2827 82.3651 23.6773 82.3651 24.072V29H79.7251ZM89.0561 25.528H88.7201C88.4321 25.528 88.1388 25.544 87.8401 25.576C87.5521 25.5973 87.2908 25.6453 87.0561 25.72C86.8321 25.7947 86.6455 25.9067 86.4961 26.056C86.3468 26.1947 86.2721 26.3813 86.2721 26.616C86.2721 26.7653 86.3041 26.8933 86.3681 27C86.4428 27.1067 86.5335 27.192 86.6401 27.256C86.7468 27.32 86.8695 27.368 87.0081 27.4C87.1468 27.4213 87.2801 27.432 87.4081 27.432C87.9415 27.432 88.3468 27.288 88.6241 27C88.9121 26.7013 89.0561 26.3013 89.0561 25.8V25.528ZM84.2401 22.12C84.7095 21.672 85.2535 21.336 85.8721 21.112C86.5015 20.888 87.1415 20.776 87.7921 20.776C88.4641 20.776 89.0295 20.8613 89.4881 21.032C89.9575 21.192 90.3361 21.448 90.6241 21.8C90.9121 22.1413 91.1201 22.5787 91.2481 23.112C91.3868 23.6347 91.4561 24.2587 91.4561 24.984V29H89.0561V28.152H89.0081C88.8055 28.4827 88.4961 28.7387 88.0801 28.92C87.6748 29.1013 87.2321 29.192 86.7521 29.192C86.4321 29.192 86.1015 29.1493 85.7601 29.064C85.4188 28.9787 85.1041 28.84 84.8161 28.648C84.5388 28.456 84.3095 28.2 84.1281 27.88C83.9468 27.56 83.8561 27.1653 83.8561 26.696C83.8561 26.12 84.0108 25.656 84.3201 25.304C84.6401 24.952 85.0455 24.68 85.5361 24.488C86.0375 24.296 86.5921 24.168 87.2001 24.104C87.8081 24.04 88.4001 24.008 88.9761 24.008V23.88C88.9761 23.4853 88.8375 23.1973 88.5601 23.016C88.2828 22.824 87.9415 22.728 87.5361 22.728C87.1628 22.728 86.8001 22.808 86.4481 22.968C86.1068 23.128 85.8135 23.32 85.5681 23.544L84.2401 22.12ZM98.5826 23.176C98.4653 23.144 98.348 23.1227 98.2306 23.112C98.124 23.1013 98.0173 23.096 97.9106 23.096C97.5586 23.096 97.26 23.16 97.0146 23.288C96.78 23.416 96.588 23.5707 96.4386 23.752C96.3 23.9333 96.1986 24.1307 96.1346 24.344C96.0706 24.5573 96.0386 24.744 96.0386 24.904V29H93.4146V21.032H95.9426V22.184H95.9746C96.1773 21.7787 96.4653 21.448 96.8386 21.192C97.212 20.936 97.644 20.808 98.1346 20.808C98.2413 20.808 98.3426 20.8133 98.4386 20.824C98.5453 20.8347 98.6306 20.8507 98.6946 20.872L98.5826 23.176ZM104.965 24.104C104.965 23.688 104.832 23.3307 104.565 23.032C104.309 22.7333 103.92 22.584 103.397 22.584C103.141 22.584 102.906 22.6267 102.693 22.712C102.48 22.7867 102.293 22.8933 102.133 23.032C101.973 23.1707 101.845 23.336 101.749 23.528C101.653 23.7093 101.6 23.9013 101.589 24.104H104.965ZM107.381 25.112C107.381 25.2187 107.381 25.3253 107.381 25.432C107.381 25.5387 107.376 25.64 107.365 25.736H101.589C101.61 25.96 101.674 26.1627 101.781 26.344C101.898 26.5253 102.042 26.6853 102.213 26.824C102.394 26.952 102.592 27.0533 102.805 27.128C103.029 27.2027 103.258 27.24 103.493 27.24C103.909 27.24 104.261 27.1653 104.549 27.016C104.837 26.856 105.072 26.6533 105.253 26.408L107.077 27.56C106.704 28.104 106.208 28.5253 105.589 28.824C104.981 29.112 104.272 29.256 103.461 29.256C102.864 29.256 102.298 29.1653 101.765 28.984C101.232 28.792 100.762 28.52 100.357 28.168C99.9625 27.8053 99.6478 27.3627 99.4131 26.84C99.1891 26.3173 99.0771 25.72 99.0771 25.048C99.0771 24.3973 99.1891 23.8107 99.4131 23.288C99.6371 22.7547 99.9411 22.3067 100.325 21.944C100.709 21.5707 101.162 21.2827 101.685 21.08C102.208 20.8773 102.773 20.776 103.381 20.776C103.968 20.776 104.506 20.8773 104.997 21.08C105.488 21.272 105.909 21.5547 106.261 21.928C106.613 22.3013 106.885 22.7547 107.077 23.288C107.28 23.8213 107.381 24.4293 107.381 25.112ZM121.456 24.984C121.456 25.6347 121.339 26.2267 121.104 26.76C120.87 27.2827 120.55 27.7307 120.144 28.104C119.739 28.4667 119.27 28.7493 118.736 28.952C118.203 29.1547 117.632 29.256 117.024 29.256C116.427 29.256 115.856 29.1547 115.312 28.952C114.779 28.7493 114.31 28.4667 113.904 28.104C113.51 27.7307 113.195 27.2827 112.96 26.76C112.726 26.2267 112.608 25.6347 112.608 24.984C112.608 24.3333 112.726 23.7467 112.96 23.224C113.195 22.7013 113.51 22.2587 113.904 21.896C114.31 21.5333 114.779 21.256 115.312 21.064C115.856 20.872 116.427 20.776 117.024 20.776C117.632 20.776 118.203 20.872 118.736 21.064C119.27 21.256 119.739 21.5333 120.144 21.896C120.55 22.2587 120.87 22.7013 121.104 23.224C121.339 23.7467 121.456 24.3333 121.456 24.984ZM118.928 24.984C118.928 24.728 118.886 24.4773 118.8 24.232C118.715 23.9867 118.592 23.7733 118.432 23.592C118.272 23.4 118.075 23.2453 117.84 23.128C117.606 23.0107 117.334 22.952 117.024 22.952C116.715 22.952 116.443 23.0107 116.208 23.128C115.974 23.2453 115.776 23.4 115.616 23.592C115.467 23.7733 115.35 23.9867 115.264 24.232C115.19 24.4773 115.152 24.728 115.152 24.984C115.152 25.24 115.19 25.4907 115.264 25.736C115.35 25.9813 115.472 26.2053 115.632 26.408C115.792 26.6 115.99 26.7547 116.224 26.872C116.459 26.9893 116.731 27.048 117.04 27.048C117.35 27.048 117.622 26.9893 117.856 26.872C118.091 26.7547 118.288 26.6 118.448 26.408C118.608 26.2053 118.726 25.9813 118.8 25.736C118.886 25.4907 118.928 25.24 118.928 24.984ZM128.35 29V24.648C128.35 24.424 128.328 24.2107 128.286 24.008C128.254 23.8053 128.195 23.6293 128.11 23.48C128.024 23.32 127.902 23.1973 127.742 23.112C127.592 23.016 127.4 22.968 127.166 22.968C126.931 22.968 126.723 23.016 126.542 23.112C126.371 23.1973 126.227 23.32 126.11 23.48C125.992 23.64 125.902 23.8267 125.838 24.04C125.784 24.2427 125.758 24.456 125.758 24.68V29H123.118V21.032H125.662V22.136H125.694C125.79 21.9653 125.912 21.8 126.062 21.64C126.222 21.4693 126.403 21.3253 126.606 21.208C126.819 21.0907 127.048 20.9947 127.294 20.92C127.539 20.8453 127.8 20.808 128.078 20.808C128.611 20.808 129.064 20.904 129.438 21.096C129.811 21.288 130.11 21.5387 130.334 21.848C130.568 22.1467 130.734 22.4933 130.83 22.888C130.936 23.2827 130.99 23.6773 130.99 24.072V29H128.35ZM141.579 20.008V29H138.843V20.008H135.643V17.672H144.779V20.008H141.579ZM154.496 29H151.856L150.288 24.04H150.256L148.72 29H146.08L143.328 21.032H146.16L147.536 26.072H147.584L149.008 21.032H151.648L153.12 26.072H153.152L154.544 21.032H157.264L154.496 29ZM161.138 18.488C161.138 18.6907 161.095 18.8827 161.01 19.064C160.935 19.2347 160.828 19.384 160.69 19.512C160.562 19.64 160.402 19.7413 160.21 19.816C160.028 19.8907 159.836 19.928 159.634 19.928C159.207 19.928 158.85 19.7893 158.562 19.512C158.274 19.224 158.13 18.8827 158.13 18.488C158.13 18.296 158.167 18.1147 158.242 17.944C158.316 17.7627 158.423 17.608 158.562 17.48C158.7 17.352 158.86 17.2507 159.042 17.176C159.223 17.0907 159.42 17.048 159.634 17.048C159.836 17.048 160.028 17.0853 160.21 17.16C160.402 17.2347 160.562 17.336 160.69 17.464C160.828 17.592 160.935 17.7467 161.01 17.928C161.095 18.0987 161.138 18.2853 161.138 18.488ZM158.322 29V21.032H160.946V29H158.322ZM165.872 23V26.04C165.872 26.4133 165.941 26.696 166.08 26.888C166.229 27.0693 166.491 27.16 166.864 27.16C166.992 27.16 167.125 27.1493 167.264 27.128C167.413 27.1067 167.536 27.0747 167.632 27.032L167.664 28.952C167.483 29.016 167.253 29.0693 166.976 29.112C166.699 29.1653 166.421 29.192 166.144 29.192C165.611 29.192 165.163 29.128 164.8 29C164.437 28.8613 164.144 28.6693 163.92 28.424C163.707 28.168 163.552 27.8693 163.456 27.528C163.36 27.176 163.312 26.7867 163.312 26.36V23H162.032V21.032H163.296V18.936H165.872V21.032H167.744V23H165.872ZM171.435 23V26.04C171.435 26.4133 171.504 26.696 171.643 26.888C171.792 27.0693 172.053 27.16 172.427 27.16C172.555 27.16 172.688 27.1493 172.827 27.128C172.976 27.1067 173.099 27.0747 173.195 27.032L173.227 28.952C173.045 29.016 172.816 29.0693 172.539 29.112C172.261 29.1653 171.984 29.192 171.707 29.192C171.173 29.192 170.725 29.128 170.363 29C170 28.8613 169.707 28.6693 169.483 28.424C169.269 28.168 169.115 27.8693 169.019 27.528C168.923 27.176 168.875 26.7867 168.875 26.36V23H167.595V21.032H168.859V18.936H171.435V21.032H173.307V23H171.435ZM180.028 24.104C180.028 23.688 179.894 23.3307 179.628 23.032C179.372 22.7333 178.982 22.584 178.46 22.584C178.204 22.584 177.969 22.6267 177.756 22.712C177.542 22.7867 177.356 22.8933 177.196 23.032C177.036 23.1707 176.908 23.336 176.812 23.528C176.716 23.7093 176.662 23.9013 176.652 24.104H180.028ZM182.444 25.112C182.444 25.2187 182.444 25.3253 182.444 25.432C182.444 25.5387 182.438 25.64 182.428 25.736H176.652C176.673 25.96 176.737 26.1627 176.844 26.344C176.961 26.5253 177.105 26.6853 177.276 26.824C177.457 26.952 177.654 27.0533 177.868 27.128C178.092 27.2027 178.321 27.24 178.556 27.24C178.972 27.24 179.324 27.1653 179.612 27.016C179.9 26.856 180.134 26.6533 180.316 26.408L182.14 27.56C181.766 28.104 181.27 28.5253 180.652 28.824C180.044 29.112 179.334 29.256 178.524 29.256C177.926 29.256 177.361 29.1653 176.828 28.984C176.294 28.792 175.825 28.52 175.42 28.168C175.025 27.8053 174.71 27.3627 174.476 26.84C174.252 26.3173 174.14 25.72 174.14 25.048C174.14 24.3973 174.252 23.8107 174.476 23.288C174.7 22.7547 175.004 22.3067 175.388 21.944C175.772 21.5707 176.225 21.2827 176.748 21.08C177.27 20.8773 177.836 20.776 178.444 20.776C179.03 20.776 179.569 20.8773 180.06 21.08C180.55 21.272 180.972 21.5547 181.324 21.928C181.676 22.3013 181.948 22.7547 182.14 23.288C182.342 23.8213 182.444 24.4293 182.444 25.112ZM189.239 23.176C189.122 23.144 189.004 23.1227 188.887 23.112C188.78 23.1013 188.674 23.096 188.567 23.096C188.215 23.096 187.916 23.16 187.671 23.288C187.436 23.416 187.244 23.5707 187.095 23.752C186.956 23.9333 186.855 24.1307 186.791 24.344C186.727 24.5573 186.695 24.744 186.695 24.904V29H184.071V21.032H186.599V22.184H186.631C186.834 21.7787 187.122 21.448 187.495 21.192C187.868 20.936 188.3 20.808 188.791 20.808C188.898 20.808 188.999 20.8133 189.095 20.824C189.202 20.8347 189.287 20.8507 189.351 20.872L189.239 23.176Z" fill="#55B6E2"/>
</svg>
